<?xml version="1.0" encoding="utf-8" standalone="no"?>
<!DOCTYPE svg PUBLIC "-//W3C//DTD SVG 1.1//EN"
  "http://www.w3.org/Graphics/SVG/1.1/DTD/svg11.dtd">
<svg xmlns:xlink="http://www.w3.org/1999/xlink" width="349.559687pt" height="204.48pt" viewBox="0 0 349.559687 204.48" xmlns="http://www.w3.org/2000/svg" version="1.1">
 <metadata>
  <rdf:RDF xmlns:dc="http://purl.org/dc/elements/1.1/" xmlns:cc="http://creativecommons.org/ns#" xmlns:rdf="http://www.w3.org/1999/02/22-rdf-syntax-ns#">
   <cc:Work>
    <dc:type rdf:resource="http://purl.org/dc/dcmitype/StillImage"/>
    <dc:date>2023-06-05T17:31:41.037452</dc:date>
    <dc:format>image/svg+xml</dc:format>
    <dc:creator>
     <cc:Agent>
      <dc:title>Matplotlib v3.6.2, https://matplotlib.org/</dc:title>
     </cc:Agent>
    </dc:creator>
   </cc:Work>
  </rdf:RDF>
 </metadata>
 <defs>
  <style type="text/css">*{stroke-linejoin: round; stroke-linecap: butt}</style>
 </defs>
 <g id="figure_1">
  <g id="patch_1">
   <path d="M 0 204.48 
L 349.559687 204.48 
L 349.559687 0 
L 0 0 
z
" style="fill: #ffffff"/>
  </g>
  <g id="axes_1">
   <g id="patch_2">
    <path d="M 47.25125 177.720156 
L 108.620833 177.720156 
L 108.620833 21.789375 
L 47.25125 21.789375 
z
" style="fill: #eaeaf2"/>
   </g>
   <g id="matplotlib.axis_1">
    <g id="xtick_1">
     <g id="text_1">
      <!-- FeS -->
      <g style="fill: #262626" transform="translate(52.507161 195.09375) scale(0.11 -0.11)">
       <defs>
        <path id="ArialMT-46" d="M 525 0 
L 525 4581 
L 3616 4581 
L 3616 4041 
L 1131 4041 
L 1131 2622 
L 3281 2622 
L 3281 2081 
L 1131 2081 
L 1131 0 
L 525 0 
z
" transform="scale(0.015625)"/>
        <path id="ArialMT-65" d="M 2694 1069 
L 3275 997 
Q 3138 488 2766 206 
Q 2394 -75 1816 -75 
Q 1088 -75 661 373 
Q 234 822 234 1631 
Q 234 2469 665 2931 
Q 1097 3394 1784 3394 
Q 2450 3394 2872 2941 
Q 3294 2488 3294 1666 
Q 3294 1616 3291 1516 
L 816 1516 
Q 847 969 1125 678 
Q 1403 388 1819 388 
Q 2128 388 2347 550 
Q 2566 713 2694 1069 
z
M 847 1978 
L 2700 1978 
Q 2663 2397 2488 2606 
Q 2219 2931 1791 2931 
Q 1403 2931 1139 2672 
Q 875 2413 847 1978 
z
" transform="scale(0.015625)"/>
        <path id="ArialMT-53" d="M 288 1472 
L 859 1522 
Q 900 1178 1048 958 
Q 1197 738 1509 602 
Q 1822 466 2213 466 
Q 2559 466 2825 569 
Q 3091 672 3220 851 
Q 3350 1031 3350 1244 
Q 3350 1459 3225 1620 
Q 3100 1781 2813 1891 
Q 2628 1963 1997 2114 
Q 1366 2266 1113 2400 
Q 784 2572 623 2826 
Q 463 3081 463 3397 
Q 463 3744 659 4045 
Q 856 4347 1234 4503 
Q 1613 4659 2075 4659 
Q 2584 4659 2973 4495 
Q 3363 4331 3572 4012 
Q 3781 3694 3797 3291 
L 3216 3247 
Q 3169 3681 2898 3903 
Q 2628 4125 2100 4125 
Q 1550 4125 1298 3923 
Q 1047 3722 1047 3438 
Q 1047 3191 1225 3031 
Q 1400 2872 2139 2705 
Q 2878 2538 3153 2413 
Q 3553 2228 3743 1945 
Q 3934 1663 3934 1294 
Q 3934 928 3725 604 
Q 3516 281 3123 101 
Q 2731 -78 2241 -78 
Q 1619 -78 1198 103 
Q 778 284 539 648 
Q 300 1013 288 1472 
z
" transform="scale(0.015625)"/>
       </defs>
       <use xlink:href="#ArialMT-46"/>
       <use xlink:href="#ArialMT-65" x="61.083984"/>
       <use xlink:href="#ArialMT-53" x="116.699219"/>
      </g>
     </g>
    </g>
    <g id="xtick_2">
     <g id="text_2">
      <!-- FeD -->
      <g style="fill: #262626" transform="translate(82.888594 195.09375) scale(0.11 -0.11)">
       <defs>
        <path id="ArialMT-44" d="M 494 0 
L 494 4581 
L 2072 4581 
Q 2606 4581 2888 4516 
Q 3281 4425 3559 4188 
Q 3922 3881 4101 3404 
Q 4281 2928 4281 2316 
Q 4281 1794 4159 1391 
Q 4038 988 3847 723 
Q 3656 459 3429 307 
Q 3203 156 2883 78 
Q 2563 0 2147 0 
L 494 0 
z
M 1100 541 
L 2078 541 
Q 2531 541 2789 625 
Q 3047 709 3200 863 
Q 3416 1078 3536 1442 
Q 3656 1806 3656 2325 
Q 3656 3044 3420 3430 
Q 3184 3816 2847 3947 
Q 2603 4041 2063 4041 
L 1100 4041 
L 1100 541 
z
" transform="scale(0.015625)"/>
       </defs>
       <use xlink:href="#ArialMT-46"/>
       <use xlink:href="#ArialMT-65" x="61.083984"/>
       <use xlink:href="#ArialMT-44" x="116.699219"/>
      </g>
     </g>
    </g>
   </g>
   <g id="matplotlib.axis_2">
    <g id="ytick_1">
     <g id="line2d_1">
      <path d="M 47.25125 136.758944 
L 108.620833 136.758944 
" clip-path="url(#pe3f88424eb)" style="fill: none; stroke: #ffffff; stroke-opacity: 0.8; stroke-linecap: round"/>
     </g>
     <g id="line2d_2">
      <defs>
       <path id="me9e34c5f59" d="M 0 0 
L -6 0 
" style="stroke: #808080; stroke-width: 1.25"/>
      </defs>
      <g>
       <use xlink:href="#me9e34c5f59" x="47.25125" y="136.758944" style="fill: #808080; stroke: #808080; stroke-width: 1.25"/>
      </g>
     </g>
     <g id="text_3">
      <!-- 1.0 -->
      <g style="fill: #262626" transform="translate(22.46125 140.69574) scale(0.11 -0.11)">
       <defs>
        <path id="ArialMT-31" d="M 2384 0 
L 1822 0 
L 1822 3584 
Q 1619 3391 1289 3197 
Q 959 3003 697 2906 
L 697 3450 
Q 1169 3672 1522 3987 
Q 1875 4303 2022 4600 
L 2384 4600 
L 2384 0 
z
" transform="scale(0.015625)"/>
        <path id="ArialMT-2e" d="M 581 0 
L 581 641 
L 1222 641 
L 1222 0 
L 581 0 
z
" transform="scale(0.015625)"/>
        <path id="ArialMT-30" d="M 266 2259 
Q 266 3072 433 3567 
Q 600 4063 929 4331 
Q 1259 4600 1759 4600 
Q 2128 4600 2406 4451 
Q 2684 4303 2865 4023 
Q 3047 3744 3150 3342 
Q 3253 2941 3253 2259 
Q 3253 1453 3087 958 
Q 2922 463 2592 192 
Q 2263 -78 1759 -78 
Q 1097 -78 719 397 
Q 266 969 266 2259 
z
M 844 2259 
Q 844 1131 1108 757 
Q 1372 384 1759 384 
Q 2147 384 2411 759 
Q 2675 1134 2675 2259 
Q 2675 3391 2411 3762 
Q 2147 4134 1753 4134 
Q 1366 4134 1134 3806 
Q 844 3388 844 2259 
z
" transform="scale(0.015625)"/>
       </defs>
       <use xlink:href="#ArialMT-31"/>
       <use xlink:href="#ArialMT-2e" x="55.615234"/>
       <use xlink:href="#ArialMT-30" x="83.398438"/>
      </g>
     </g>
    </g>
    <g id="ytick_2">
     <g id="line2d_3">
      <path d="M 47.25125 95.700216 
L 108.620833 95.700216 
" clip-path="url(#pe3f88424eb)" style="fill: none; stroke: #ffffff; stroke-opacity: 0.8; stroke-linecap: round"/>
     </g>
     <g id="line2d_4">
      <g>
       <use xlink:href="#me9e34c5f59" x="47.25125" y="95.700216" style="fill: #808080; stroke: #808080; stroke-width: 1.25"/>
      </g>
     </g>
     <g id="text_4">
      <!-- 1.2 -->
      <g style="fill: #262626" transform="translate(22.46125 99.637013) scale(0.11 -0.11)">
       <defs>
        <path id="ArialMT-32" d="M 3222 541 
L 3222 0 
L 194 0 
Q 188 203 259 391 
Q 375 700 629 1000 
Q 884 1300 1366 1694 
Q 2113 2306 2375 2664 
Q 2638 3022 2638 3341 
Q 2638 3675 2398 3904 
Q 2159 4134 1775 4134 
Q 1369 4134 1125 3890 
Q 881 3647 878 3216 
L 300 3275 
Q 359 3922 746 4261 
Q 1134 4600 1788 4600 
Q 2447 4600 2831 4234 
Q 3216 3869 3216 3328 
Q 3216 3053 3103 2787 
Q 2991 2522 2730 2228 
Q 2469 1934 1863 1422 
Q 1356 997 1212 845 
Q 1069 694 975 541 
L 3222 541 
z
" transform="scale(0.015625)"/>
       </defs>
       <use xlink:href="#ArialMT-31"/>
       <use xlink:href="#ArialMT-2e" x="55.615234"/>
       <use xlink:href="#ArialMT-32" x="83.398438"/>
      </g>
     </g>
    </g>
    <g id="ytick_3">
     <g id="line2d_5">
      <path d="M 47.25125 54.641489 
L 108.620833 54.641489 
" clip-path="url(#pe3f88424eb)" style="fill: none; stroke: #ffffff; stroke-opacity: 0.8; stroke-linecap: round"/>
     </g>
     <g id="line2d_6">
      <g>
       <use xlink:href="#me9e34c5f59" x="47.25125" y="54.641489" style="fill: #808080; stroke: #808080; stroke-width: 1.25"/>
      </g>
     </g>
     <g id="text_5">
      <!-- 1.4 -->
      <g style="fill: #262626" transform="translate(22.46125 58.578286) scale(0.11 -0.11)">
       <defs>
        <path id="ArialMT-34" d="M 2069 0 
L 2069 1097 
L 81 1097 
L 81 1613 
L 2172 4581 
L 2631 4581 
L 2631 1613 
L 3250 1613 
L 3250 1097 
L 2631 1097 
L 2631 0 
L 2069 0 
z
M 2069 1613 
L 2069 3678 
L 634 1613 
L 2069 1613 
z
" transform="scale(0.015625)"/>
       </defs>
       <use xlink:href="#ArialMT-31"/>
       <use xlink:href="#ArialMT-2e" x="55.615234"/>
       <use xlink:href="#ArialMT-34" x="83.398438"/>
      </g>
     </g>
    </g>
    <g id="text_6">
     <!-- T3 ng/mL -->
     <g style="fill: #262626" transform="translate(15.935625 125.097266) rotate(-90) scale(0.12 -0.12)">
      <defs>
       <path id="ArialMT-54" d="M 1659 0 
L 1659 4041 
L 150 4041 
L 150 4581 
L 3781 4581 
L 3781 4041 
L 2266 4041 
L 2266 0 
L 1659 0 
z
" transform="scale(0.015625)"/>
       <path id="ArialMT-33" d="M 269 1209 
L 831 1284 
Q 928 806 1161 595 
Q 1394 384 1728 384 
Q 2125 384 2398 659 
Q 2672 934 2672 1341 
Q 2672 1728 2419 1979 
Q 2166 2231 1775 2231 
Q 1616 2231 1378 2169 
L 1441 2663 
Q 1497 2656 1531 2656 
Q 1891 2656 2178 2843 
Q 2466 3031 2466 3422 
Q 2466 3731 2256 3934 
Q 2047 4138 1716 4138 
Q 1388 4138 1169 3931 
Q 950 3725 888 3313 
L 325 3413 
Q 428 3978 793 4289 
Q 1159 4600 1703 4600 
Q 2078 4600 2393 4439 
Q 2709 4278 2876 4000 
Q 3044 3722 3044 3409 
Q 3044 3113 2884 2869 
Q 2725 2625 2413 2481 
Q 2819 2388 3044 2092 
Q 3269 1797 3269 1353 
Q 3269 753 2831 336 
Q 2394 -81 1725 -81 
Q 1122 -81 723 278 
Q 325 638 269 1209 
z
" transform="scale(0.015625)"/>
       <path id="ArialMT-20" transform="scale(0.015625)"/>
       <path id="ArialMT-6e" d="M 422 0 
L 422 3319 
L 928 3319 
L 928 2847 
Q 1294 3394 1984 3394 
Q 2284 3394 2536 3286 
Q 2788 3178 2913 3003 
Q 3038 2828 3088 2588 
Q 3119 2431 3119 2041 
L 3119 0 
L 2556 0 
L 2556 2019 
Q 2556 2363 2490 2533 
Q 2425 2703 2258 2804 
Q 2091 2906 1866 2906 
Q 1506 2906 1245 2678 
Q 984 2450 984 1813 
L 984 0 
L 422 0 
z
" transform="scale(0.015625)"/>
       <path id="ArialMT-67" d="M 319 -275 
L 866 -356 
Q 900 -609 1056 -725 
Q 1266 -881 1628 -881 
Q 2019 -881 2231 -725 
Q 2444 -569 2519 -288 
Q 2563 -116 2559 434 
Q 2191 0 1641 0 
Q 956 0 581 494 
Q 206 988 206 1678 
Q 206 2153 378 2554 
Q 550 2956 876 3175 
Q 1203 3394 1644 3394 
Q 2231 3394 2613 2919 
L 2613 3319 
L 3131 3319 
L 3131 450 
Q 3131 -325 2973 -648 
Q 2816 -972 2473 -1159 
Q 2131 -1347 1631 -1347 
Q 1038 -1347 672 -1080 
Q 306 -813 319 -275 
z
M 784 1719 
Q 784 1066 1043 766 
Q 1303 466 1694 466 
Q 2081 466 2343 764 
Q 2606 1063 2606 1700 
Q 2606 2309 2336 2618 
Q 2066 2928 1684 2928 
Q 1309 2928 1046 2623 
Q 784 2319 784 1719 
z
" transform="scale(0.015625)"/>
       <path id="ArialMT-2f" d="M 0 -78 
L 1328 4659 
L 1778 4659 
L 453 -78 
L 0 -78 
z
" transform="scale(0.015625)"/>
       <path id="ArialMT-6d" d="M 422 0 
L 422 3319 
L 925 3319 
L 925 2853 
Q 1081 3097 1340 3245 
Q 1600 3394 1931 3394 
Q 2300 3394 2536 3241 
Q 2772 3088 2869 2813 
Q 3263 3394 3894 3394 
Q 4388 3394 4653 3120 
Q 4919 2847 4919 2278 
L 4919 0 
L 4359 0 
L 4359 2091 
Q 4359 2428 4304 2576 
Q 4250 2725 4106 2815 
Q 3963 2906 3769 2906 
Q 3419 2906 3187 2673 
Q 2956 2441 2956 1928 
L 2956 0 
L 2394 0 
L 2394 2156 
Q 2394 2531 2256 2718 
Q 2119 2906 1806 2906 
Q 1569 2906 1367 2781 
Q 1166 2656 1075 2415 
Q 984 2175 984 1722 
L 984 0 
L 422 0 
z
" transform="scale(0.015625)"/>
       <path id="ArialMT-4c" d="M 469 0 
L 469 4581 
L 1075 4581 
L 1075 541 
L 3331 541 
L 3331 0 
L 469 0 
z
" transform="scale(0.015625)"/>
      </defs>
      <use xlink:href="#ArialMT-54"/>
      <use xlink:href="#ArialMT-33" x="61.083984"/>
      <use xlink:href="#ArialMT-20" x="116.699219"/>
      <use xlink:href="#ArialMT-6e" x="144.482422"/>
      <use xlink:href="#ArialMT-67" x="200.097656"/>
      <use xlink:href="#ArialMT-2f" x="255.712891"/>
      <use xlink:href="#ArialMT-6d" x="283.496094"/>
      <use xlink:href="#ArialMT-4c" x="366.796875"/>
     </g>
    </g>
   </g>
   <g id="PathCollection_1">
    <path d="M 66.673888 172.632393 
C 67.204295 172.632393 67.713048 172.421661 68.088102 172.046607 
C 68.463156 171.671553 68.673888 171.1628 68.673888 170.632393 
C 68.673888 170.101987 68.463156 169.593234 68.088102 169.21818 
C 67.713048 168.843126 67.204295 168.632393 66.673888 168.632393 
C 66.143482 168.632393 65.634729 168.843126 65.259675 169.21818 
C 64.884621 169.593234 64.673888 170.101987 64.673888 170.632393 
C 64.673888 171.1628 64.884621 171.671553 65.259675 172.046607 
C 65.634729 172.421661 66.143482 172.632393 66.673888 172.632393 
z
" clip-path="url(#pe3f88424eb)" style="fill: #0173b2; fill-opacity: 0.2; stroke: #0173b2; stroke-opacity: 0.6; stroke-width: 0.75"/>
    <path d="M 65.947238 151.487149 
C 66.477645 151.487149 66.986398 151.276416 67.361452 150.901363 
C 67.736506 150.526309 67.947238 150.017555 67.947238 149.487149 
C 67.947238 148.956743 67.736506 148.447989 67.361452 148.072935 
C 66.986398 147.697882 66.477645 147.487149 65.947238 147.487149 
C 65.416832 147.487149 64.908079 147.697882 64.533025 148.072935 
C 64.157971 148.447989 63.947238 148.956743 63.947238 149.487149 
C 63.947238 150.017555 64.157971 150.526309 64.533025 150.901363 
C 64.908079 151.276416 65.416832 151.487149 65.947238 151.487149 
z
" clip-path="url(#pe3f88424eb)" style="fill: #0173b2; fill-opacity: 0.2; stroke: #0173b2; stroke-opacity: 0.6; stroke-width: 0.75"/>
    <path d="M 64.538512 156.414196 
C 65.068919 156.414196 65.577672 156.203464 65.952726 155.82841 
C 66.32778 155.453356 66.538512 154.944602 66.538512 154.414196 
C 66.538512 153.88379 66.32778 153.375036 65.952726 152.999983 
C 65.577672 152.624929 65.068919 152.414196 64.538512 152.414196 
C 64.008106 152.414196 63.499353 152.624929 63.124299 152.999983 
C 62.749245 153.375036 62.538512 153.88379 62.538512 154.414196 
C 62.538512 154.944602 62.749245 155.453356 63.124299 155.82841 
C 63.499353 156.203464 64.008106 156.414196 64.538512 156.414196 
z
" clip-path="url(#pe3f88424eb)" style="fill: #0173b2; fill-opacity: 0.2; stroke: #0173b2; stroke-opacity: 0.6; stroke-width: 0.75"/>
    <path d="M 64.544324 101.190208 
C 65.074731 101.190208 65.583484 100.979476 65.958538 100.604422 
C 66.333592 100.229368 66.544324 99.720614 66.544324 99.190208 
C 66.544324 98.659802 66.333592 98.151048 65.958538 97.775995 
C 65.583484 97.400941 65.074731 97.190208 64.544324 97.190208 
C 64.013918 97.190208 63.505165 97.400941 63.130111 97.775995 
C 62.755057 98.151048 62.544324 98.659802 62.544324 99.190208 
C 62.544324 99.720614 62.755057 100.229368 63.130111 100.604422 
C 63.505165 100.979476 64.013918 101.190208 64.544324 101.190208 
z
" clip-path="url(#pe3f88424eb)" style="fill: #0173b2; fill-opacity: 0.2; stroke: #0173b2; stroke-opacity: 0.6; stroke-width: 0.75"/>
    <path d="M 66.799796 119.358695 
C 67.330202 119.358695 67.838956 119.147962 68.214009 118.772908 
C 68.589063 118.397855 68.799796 117.889101 68.799796 117.358695 
C 68.799796 116.828289 68.589063 116.319535 68.214009 115.944481 
C 67.838956 115.569428 67.330202 115.358695 66.799796 115.358695 
C 66.26939 115.358695 65.760636 115.569428 65.385582 115.944481 
C 65.010528 116.319535 64.799796 116.828289 64.799796 117.358695 
C 64.799796 117.889101 65.010528 118.397855 65.385582 118.772908 
C 65.760636 119.147962 66.26939 119.358695 66.799796 119.358695 
z
" clip-path="url(#pe3f88424eb)" style="fill: #0173b2; fill-opacity: 0.2; stroke: #0173b2; stroke-opacity: 0.6; stroke-width: 0.75"/>
    <path d="M 65.423595 122.848687 
C 65.954002 122.848687 66.462755 122.637954 66.837809 122.2629 
C 67.212863 121.887846 67.423595 121.379093 67.423595 120.848687 
C 67.423595 120.318281 67.212863 119.809527 66.837809 119.434473 
C 66.462755 119.059419 65.954002 118.848687 65.423595 118.848687 
C 64.893189 118.848687 64.384436 119.059419 64.009382 119.434473 
C 63.634328 119.809527 63.423595 120.318281 63.423595 120.848687 
C 63.423595 121.379093 63.634328 121.887846 64.009382 122.2629 
C 64.384436 122.637954 64.893189 122.848687 65.423595 122.848687 
z
" clip-path="url(#pe3f88424eb)" style="fill: #0173b2; fill-opacity: 0.2; stroke: #0173b2; stroke-opacity: 0.6; stroke-width: 0.75"/>
    <path d="M 97.1139 135.987479 
C 97.644306 135.987479 98.153059 135.776747 98.528113 135.401693 
C 98.903167 135.026639 99.1139 134.517886 99.1139 133.987479 
C 99.1139 133.457073 98.903167 132.94832 98.528113 132.573266 
C 98.153059 132.198212 97.644306 131.987479 97.1139 131.987479 
C 96.583493 131.987479 96.07474 132.198212 95.699686 132.573266 
C 95.324632 132.94832 95.1139 133.457073 95.1139 133.987479 
C 95.1139 134.517886 95.324632 135.026639 95.699686 135.401693 
C 96.07474 135.776747 96.583493 135.987479 97.1139 135.987479 
z
" clip-path="url(#pe3f88424eb)" style="fill: #de8f05; fill-opacity: 0.2; stroke: #de8f05; stroke-opacity: 0.6; stroke-width: 0.75"/>
    <path d="M 98.707401 129.212789 
C 99.237807 129.212789 99.746561 129.002057 100.121615 128.627003 
C 100.496669 128.251949 100.707401 127.743196 100.707401 127.212789 
C 100.707401 126.682383 100.496669 126.17363 100.121615 125.798576 
C 99.746561 125.423522 99.237807 125.212789 98.707401 125.212789 
C 98.176995 125.212789 97.668241 125.423522 97.293188 125.798576 
C 96.918134 126.17363 96.707401 126.682383 96.707401 127.212789 
C 96.707401 127.743196 96.918134 128.251949 97.293188 128.627003 
C 97.668241 129.002057 98.176995 129.212789 98.707401 129.212789 
z
" clip-path="url(#pe3f88424eb)" style="fill: #de8f05; fill-opacity: 0.2; stroke: #de8f05; stroke-opacity: 0.6; stroke-width: 0.75"/>
    <path d="M 97.073297 119.358695 
C 97.603704 119.358695 98.112457 119.147962 98.487511 118.772908 
C 98.862565 118.397855 99.073297 117.889101 99.073297 117.358695 
C 99.073297 116.828289 98.862565 116.319535 98.487511 115.944481 
C 98.112457 115.569428 97.603704 115.358695 97.073297 115.358695 
C 96.542891 115.358695 96.034138 115.569428 95.659084 115.944481 
C 95.28403 116.319535 95.073297 116.828289 95.073297 117.358695 
C 95.073297 117.889101 95.28403 118.397855 95.659084 118.772908 
C 96.034138 119.147962 96.542891 119.358695 97.073297 119.358695 
z
" clip-path="url(#pe3f88424eb)" style="fill: #de8f05; fill-opacity: 0.2; stroke: #de8f05; stroke-opacity: 0.6; stroke-width: 0.75"/>
    <path d="M 94.16949 86.30642 
C 94.699896 86.30642 95.20865 86.095687 95.583703 85.720633 
C 95.958757 85.345579 96.16949 84.836826 96.16949 84.30642 
C 96.16949 83.776013 95.958757 83.26726 95.583703 82.892206 
C 95.20865 82.517152 94.699896 82.30642 94.16949 82.30642 
C 93.639084 82.30642 93.13033 82.517152 92.755276 82.892206 
C 92.380222 83.26726 92.16949 83.776013 92.16949 84.30642 
C 92.16949 84.836826 92.380222 85.345579 92.755276 85.720633 
C 93.13033 86.095687 93.639084 86.30642 94.16949 86.30642 
z
" clip-path="url(#pe3f88424eb)" style="fill: #de8f05; fill-opacity: 0.2; stroke: #de8f05; stroke-opacity: 0.6; stroke-width: 0.75"/>
    <path d="M 94.139425 110.017834 
C 94.669831 110.017834 95.178585 109.807102 95.553639 109.432048 
C 95.928692 109.056994 96.139425 108.548241 96.139425 108.017834 
C 96.139425 107.487428 95.928692 106.978675 95.553639 106.603621 
C 95.178585 106.228567 94.669831 106.017834 94.139425 106.017834 
C 93.609019 106.017834 93.100265 106.228567 92.725211 106.603621 
C 92.350158 106.978675 92.139425 107.487428 92.139425 108.017834 
C 92.139425 108.548241 92.350158 109.056994 92.725211 109.432048 
C 93.100265 109.807102 93.609019 110.017834 94.139425 110.017834 
z
" clip-path="url(#pe3f88424eb)" style="fill: #de8f05; fill-opacity: 0.2; stroke: #de8f05; stroke-opacity: 0.6; stroke-width: 0.75"/>
    <path d="M 97.125706 120.898397 
C 97.656113 120.898397 98.164866 120.687665 98.53992 120.312611 
C 98.914974 119.937557 99.125706 119.428803 99.125706 118.898397 
C 99.125706 118.367991 98.914974 117.859237 98.53992 117.484184 
C 98.164866 117.10913 97.656113 116.898397 97.125706 116.898397 
C 96.5953 116.898397 96.086547 117.10913 95.711493 117.484184 
C 95.336439 117.859237 95.125706 118.367991 95.125706 118.898397 
C 95.125706 119.428803 95.336439 119.937557 95.711493 120.312611 
C 96.086547 120.687665 96.5953 120.898397 97.125706 120.898397 
z
" clip-path="url(#pe3f88424eb)" style="fill: #de8f05; fill-opacity: 0.2; stroke: #de8f05; stroke-opacity: 0.6; stroke-width: 0.75"/>
   </g>
   <g id="PathCollection_2">
    <path d="M 59.525167 138.321888 
C 60.320776 138.321888 61.083906 138.005789 61.646487 137.443208 
C 62.209068 136.880628 62.525167 136.117497 62.525167 135.321888 
C 62.525167 134.526279 62.209068 133.763148 61.646487 133.200568 
C 61.083906 132.637987 60.320776 132.321888 59.525167 132.321888 
C 58.729557 132.321888 57.966427 132.637987 57.403846 133.200568 
C 56.841266 133.763148 56.525167 134.526279 56.525167 135.321888 
C 56.525167 136.117497 56.841266 136.880628 57.403846 137.443208 
C 57.966427 138.005789 58.729557 138.321888 59.525167 138.321888 
z
" clip-path="url(#pe3f88424eb)" style="fill: #0173b2; stroke: #0173b2; stroke-width: 0.5"/>
    <path d="M 90.209958 117.963602 
C 91.005568 117.963602 91.768698 117.647504 92.331279 117.084923 
C 92.893859 116.522342 93.209958 115.759212 93.209958 114.963602 
C 93.209958 114.167993 92.893859 113.404863 92.331279 112.842282 
C 91.768698 112.279701 91.005568 111.963602 90.209958 111.963602 
C 89.414349 111.963602 88.651219 112.279701 88.088638 112.842282 
C 87.526057 113.404863 87.209958 114.167993 87.209958 114.963602 
C 87.209958 115.759212 87.526057 116.522342 88.088638 117.084923 
C 88.651219 117.647504 89.414349 117.963602 90.209958 117.963602 
z
" clip-path="url(#pe3f88424eb)" style="fill: #de8f05; stroke: #de8f05; stroke-width: 0.5"/>
   </g>
   <g id="LineCollection_1">
    <path d="M 59.525167 162.339108 
L 59.525167 108.304668 
" clip-path="url(#pe3f88424eb)" style="fill: none; stroke: #0173b2; stroke-width: 1.5; stroke-linecap: square"/>
    <path d="M 90.209958 132.406516 
L 90.209958 97.520689 
" clip-path="url(#pe3f88424eb)" style="fill: none; stroke: #de8f05; stroke-width: 1.5; stroke-linecap: square"/>
   </g>
   <g id="patch_3">
    <path d="M 47.25125 177.720156 
L 47.25125 21.789375 
" style="fill: none; stroke: #ffffff; stroke-width: 1.25; stroke-linejoin: miter; stroke-linecap: square"/>
   </g>
   <g id="patch_4">
    <path d="M 108.620833 177.720156 
L 108.620833 21.789375 
" style="fill: none; stroke: #ffffff; stroke-width: 1.25; stroke-linejoin: miter; stroke-linecap: square"/>
   </g>
   <g id="patch_5">
    <path d="M 47.25125 177.720156 
L 108.620833 177.720156 
" style="fill: none; stroke: #ffffff; stroke-width: 1.25; stroke-linejoin: miter; stroke-linecap: square"/>
   </g>
   <g id="patch_6">
    <path d="M 47.25125 21.789375 
L 108.620833 21.789375 
" style="fill: none; stroke: #ffffff; stroke-width: 1.25; stroke-linejoin: miter; stroke-linecap: square"/>
   </g>
   <g id="text_7">
    <!-- 11DIV -->
    <g style="fill: #262626" transform="translate(61.703229 15.789375) scale(0.12 -0.12)">
     <defs>
      <path id="ArialMT-49" d="M 597 0 
L 597 4581 
L 1203 4581 
L 1203 0 
L 597 0 
z
" transform="scale(0.015625)"/>
      <path id="ArialMT-56" d="M 1803 0 
L 28 4581 
L 684 4581 
L 1875 1253 
Q 2019 853 2116 503 
Q 2222 878 2363 1253 
L 3600 4581 
L 4219 4581 
L 2425 0 
L 1803 0 
z
" transform="scale(0.015625)"/>
     </defs>
     <use xlink:href="#ArialMT-31"/>
     <use xlink:href="#ArialMT-31" x="48.240234"/>
     <use xlink:href="#ArialMT-44" x="103.855469"/>
     <use xlink:href="#ArialMT-49" x="176.072266"/>
     <use xlink:href="#ArialMT-56" x="203.855469"/>
    </g>
   </g>
  </g>
  <g id="axes_2">
   <g id="patch_7">
    <path d="M 127.580833 177.720156 
L 188.950417 177.720156 
L 188.950417 21.789375 
L 127.580833 21.789375 
z
" style="fill: #eaeaf2"/>
   </g>
   <g id="matplotlib.axis_3">
    <g id="xtick_3">
     <g id="text_8">
      <!-- FeS -->
      <g style="fill: #262626" transform="translate(132.836745 195.09375) scale(0.11 -0.11)">
       <use xlink:href="#ArialMT-46"/>
       <use xlink:href="#ArialMT-65" x="61.083984"/>
       <use xlink:href="#ArialMT-53" x="116.699219"/>
      </g>
     </g>
    </g>
    <g id="xtick_4">
     <g id="text_9">
      <!-- FeD -->
      <g style="fill: #262626" transform="translate(163.218177 195.09375) scale(0.11 -0.11)">
       <use xlink:href="#ArialMT-46"/>
       <use xlink:href="#ArialMT-65" x="61.083984"/>
       <use xlink:href="#ArialMT-44" x="116.699219"/>
      </g>
     </g>
    </g>
   </g>
   <g id="matplotlib.axis_4">
    <g id="ytick_4">
     <g id="line2d_7">
      <path d="M 127.580833 136.758944 
L 188.950417 136.758944 
" clip-path="url(#p880b346b6a)" style="fill: none; stroke: #ffffff; stroke-opacity: 0.8; stroke-linecap: round"/>
     </g>
     <g id="line2d_8">
      <g>
       <use xlink:href="#me9e34c5f59" x="127.580833" y="136.758944" style="fill: #808080; stroke: #808080; stroke-width: 1.25"/>
      </g>
     </g>
    </g>
    <g id="ytick_5">
     <g id="line2d_9">
      <path d="M 127.580833 95.700216 
L 188.950417 95.700216 
" clip-path="url(#p880b346b6a)" style="fill: none; stroke: #ffffff; stroke-opacity: 0.8; stroke-linecap: round"/>
     </g>
     <g id="line2d_10">
      <g>
       <use xlink:href="#me9e34c5f59" x="127.580833" y="95.700216" style="fill: #808080; stroke: #808080; stroke-width: 1.25"/>
      </g>
     </g>
    </g>
    <g id="ytick_6">
     <g id="line2d_11">
      <path d="M 127.580833 54.641489 
L 188.950417 54.641489 
" clip-path="url(#p880b346b6a)" style="fill: none; stroke: #ffffff; stroke-opacity: 0.8; stroke-linecap: round"/>
     </g>
     <g id="line2d_12">
      <g>
       <use xlink:href="#me9e34c5f59" x="127.580833" y="54.641489" style="fill: #808080; stroke: #808080; stroke-width: 1.25"/>
      </g>
     </g>
    </g>
   </g>
   <g id="PathCollection_3">
    <path d="M 147.05946 128.699555 
C 147.589866 128.699555 148.098619 128.488823 148.473673 128.113769 
C 148.848727 127.738715 149.05946 127.229962 149.05946 126.699555 
C 149.05946 126.169149 148.848727 125.660396 148.473673 125.285342 
C 148.098619 124.910288 147.589866 124.699555 147.05946 124.699555 
C 146.529053 124.699555 146.0203 124.910288 145.645246 125.285342 
C 145.270192 125.660396 145.05946 126.169149 145.05946 126.699555 
C 145.05946 127.229962 145.270192 127.738715 145.645246 128.113769 
C 146.0203 128.488823 146.529053 128.699555 147.05946 128.699555 
z
" clip-path="url(#p880b346b6a)" style="fill: #0173b2; fill-opacity: 0.2; stroke: #0173b2; stroke-opacity: 0.6; stroke-width: 0.75"/>
    <path d="M 146.109274 124.798976 
C 146.63968 124.798976 147.148434 124.588244 147.523488 124.21319 
C 147.898541 123.838136 148.109274 123.329382 148.109274 122.798976 
C 148.109274 122.26857 147.898541 121.759817 147.523488 121.384763 
C 147.148434 121.009709 146.63968 120.798976 146.109274 120.798976 
C 145.578868 120.798976 145.070114 121.009709 144.69506 121.384763 
C 144.320007 121.759817 144.109274 122.26857 144.109274 122.798976 
C 144.109274 123.329382 144.320007 123.838136 144.69506 124.21319 
C 145.070114 124.588244 145.578868 124.798976 146.109274 124.798976 
z
" clip-path="url(#p880b346b6a)" style="fill: #0173b2; fill-opacity: 0.2; stroke: #0173b2; stroke-opacity: 0.6; stroke-width: 0.75"/>
    <path d="M 145.869276 108.683426 
C 146.399682 108.683426 146.908436 108.472693 147.28349 108.097639 
C 147.658543 107.722586 147.869276 107.213832 147.869276 106.683426 
C 147.869276 106.15302 147.658543 105.644266 147.28349 105.269212 
C 146.908436 104.894158 146.399682 104.683426 145.869276 104.683426 
C 145.33887 104.683426 144.830116 104.894158 144.455063 105.269212 
C 144.080009 105.644266 143.869276 106.15302 143.869276 106.683426 
C 143.869276 107.213832 144.080009 107.722586 144.455063 108.097639 
C 144.830116 108.472693 145.33887 108.683426 145.869276 108.683426 
z
" clip-path="url(#p880b346b6a)" style="fill: #0173b2; fill-opacity: 0.2; stroke: #0173b2; stroke-opacity: 0.6; stroke-width: 0.75"/>
    <path d="M 147.708201 93.902284 
C 148.238607 93.902284 148.747361 93.691551 149.122414 93.316498 
C 149.497468 92.941444 149.708201 92.43269 149.708201 91.902284 
C 149.708201 91.371878 149.497468 90.863124 149.122414 90.48807 
C 148.747361 90.113017 148.238607 89.902284 147.708201 89.902284 
C 147.177795 89.902284 146.669041 90.113017 146.293987 90.48807 
C 145.918933 90.863124 145.708201 91.371878 145.708201 91.902284 
C 145.708201 92.43269 145.918933 92.941444 146.293987 93.316498 
C 146.669041 93.691551 147.177795 93.902284 147.708201 93.902284 
z
" clip-path="url(#p880b346b6a)" style="fill: #0173b2; fill-opacity: 0.2; stroke: #0173b2; stroke-opacity: 0.6; stroke-width: 0.75"/>
    <path d="M 145.038247 143.993931 
C 145.568653 143.993931 146.077406 143.783199 146.45246 143.408145 
C 146.827514 143.033091 147.038247 142.524337 147.038247 141.993931 
C 147.038247 141.463525 146.827514 140.954771 146.45246 140.579718 
C 146.077406 140.204664 145.568653 139.993931 145.038247 139.993931 
C 144.50784 139.993931 143.999087 140.204664 143.624033 140.579718 
C 143.248979 140.954771 143.038247 141.463525 143.038247 141.993931 
C 143.038247 142.524337 143.248979 143.033091 143.624033 143.408145 
C 143.999087 143.783199 144.50784 143.993931 145.038247 143.993931 
z
" clip-path="url(#p880b346b6a)" style="fill: #0173b2; fill-opacity: 0.2; stroke: #0173b2; stroke-opacity: 0.6; stroke-width: 0.75"/>
    <path d="M 147.943113 107.862251 
C 148.473519 107.862251 148.982273 107.651519 149.357327 107.276465 
C 149.73238 106.901411 149.943113 106.392657 149.943113 105.862251 
C 149.943113 105.331845 149.73238 104.823092 149.357327 104.448038 
C 148.982273 104.072984 148.473519 103.862251 147.943113 103.862251 
C 147.412707 103.862251 146.903953 104.072984 146.5289 104.448038 
C 146.153846 104.823092 145.943113 105.331845 145.943113 105.862251 
C 145.943113 106.392657 146.153846 106.901411 146.5289 107.276465 
C 146.903953 107.651519 147.412707 107.862251 147.943113 107.862251 
z
" clip-path="url(#p880b346b6a)" style="fill: #0173b2; fill-opacity: 0.2; stroke: #0173b2; stroke-opacity: 0.6; stroke-width: 0.75"/>
    <path d="M 178.287775 105.604021 
C 178.818181 105.604021 179.326935 105.393289 179.701989 105.018235 
C 180.077042 104.643181 180.287775 104.134428 180.287775 103.604021 
C 180.287775 103.073615 180.077042 102.564862 179.701989 102.189808 
C 179.326935 101.814754 178.818181 101.604021 178.287775 101.604021 
C 177.757369 101.604021 177.248615 101.814754 176.873562 102.189808 
C 176.498508 102.564862 176.287775 103.073615 176.287775 103.604021 
C 176.287775 104.134428 176.498508 104.643181 176.873562 105.018235 
C 177.248615 105.393289 177.757369 105.604021 178.287775 105.604021 
z
" clip-path="url(#p880b346b6a)" style="fill: #de8f05; fill-opacity: 0.2; stroke: #de8f05; stroke-opacity: 0.6; stroke-width: 0.75"/>
    <path d="M 178.135426 99.445212 
C 178.665832 99.445212 179.174586 99.23448 179.54964 98.859426 
C 179.924694 98.484372 180.135426 97.975618 180.135426 97.445212 
C 180.135426 96.914806 179.924694 96.406052 179.54964 96.030999 
C 179.174586 95.655945 178.665832 95.445212 178.135426 95.445212 
C 177.60502 95.445212 177.096266 95.655945 176.721213 96.030999 
C 176.346159 96.406052 176.135426 96.914806 176.135426 97.445212 
C 176.135426 97.975618 176.346159 98.484372 176.721213 98.859426 
C 177.096266 99.23448 177.60502 99.445212 178.135426 99.445212 
z
" clip-path="url(#p880b346b6a)" style="fill: #de8f05; fill-opacity: 0.2; stroke: #de8f05; stroke-opacity: 0.6; stroke-width: 0.75"/>
    <path d="M 174.801783 128.802202 
C 175.332189 128.802202 175.840943 128.59147 176.215996 128.216416 
C 176.59105 127.841362 176.801783 127.332608 176.801783 126.802202 
C 176.801783 126.271796 176.59105 125.763042 176.215996 125.387989 
C 175.840943 125.012935 175.332189 124.802202 174.801783 124.802202 
C 174.271377 124.802202 173.762623 125.012935 173.387569 125.387989 
C 173.012515 125.763042 172.801783 126.271796 172.801783 126.802202 
C 172.801783 127.332608 173.012515 127.841362 173.387569 128.216416 
C 173.762623 128.59147 174.271377 128.802202 174.801783 128.802202 
z
" clip-path="url(#p880b346b6a)" style="fill: #de8f05; fill-opacity: 0.2; stroke: #de8f05; stroke-opacity: 0.6; stroke-width: 0.75"/>
    <path d="M 175.754975 89.796411 
C 176.285382 89.796411 176.794135 89.585679 177.169189 89.210625 
C 177.544243 88.835571 177.754975 88.326818 177.754975 87.796411 
C 177.754975 87.266005 177.544243 86.757252 177.169189 86.382198 
C 176.794135 86.007144 176.285382 85.796411 175.754975 85.796411 
C 175.224569 85.796411 174.715816 86.007144 174.340762 86.382198 
C 173.965708 86.757252 173.754975 87.266005 173.754975 87.796411 
C 173.754975 88.326818 173.965708 88.835571 174.340762 89.210625 
C 174.715816 89.585679 175.224569 89.796411 175.754975 89.796411 
z
" clip-path="url(#p880b346b6a)" style="fill: #de8f05; fill-opacity: 0.2; stroke: #de8f05; stroke-opacity: 0.6; stroke-width: 0.75"/>
    <path d="M 174.788745 100.16374 
C 175.319151 100.16374 175.827904 99.953007 176.202958 99.577954 
C 176.578012 99.2029 176.788745 98.694146 176.788745 98.16374 
C 176.788745 97.633334 176.578012 97.12458 176.202958 96.749526 
C 175.827904 96.374473 175.319151 96.16374 174.788745 96.16374 
C 174.258338 96.16374 173.749585 96.374473 173.374531 96.749526 
C 172.999477 97.12458 172.788745 97.633334 172.788745 98.16374 
C 172.788745 98.694146 172.999477 99.2029 173.374531 99.577954 
C 173.749585 99.953007 174.258338 100.16374 174.788745 100.16374 
z
" clip-path="url(#p880b346b6a)" style="fill: #de8f05; fill-opacity: 0.2; stroke: #de8f05; stroke-opacity: 0.6; stroke-width: 0.75"/>
    <path d="M 177.946536 30.877138 
C 178.476942 30.877138 178.985695 30.666405 179.360749 30.291351 
C 179.735803 29.916298 179.946536 29.407544 179.946536 28.877138 
C 179.946536 28.346732 179.735803 27.837978 179.360749 27.462924 
C 178.985695 27.08787 178.476942 26.877138 177.946536 26.877138 
C 177.41613 26.877138 176.907376 27.08787 176.532322 27.462924 
C 176.157268 27.837978 175.946536 28.346732 175.946536 28.877138 
C 175.946536 29.407544 176.157268 29.916298 176.532322 30.291351 
C 176.907376 30.666405 177.41613 30.877138 177.946536 30.877138 
z
" clip-path="url(#p880b346b6a)" style="fill: #de8f05; fill-opacity: 0.2; stroke: #de8f05; stroke-opacity: 0.6; stroke-width: 0.75"/>
   </g>
   <g id="PathCollection_4">
    <path d="M 139.85475 118.990071 
C 140.650359 118.990071 141.41349 118.673972 141.97607 118.111391 
C 142.538651 117.54881 142.85475 116.78568 142.85475 115.990071 
C 142.85475 115.194461 142.538651 114.431331 141.97607 113.86875 
C 141.41349 113.30617 140.650359 112.990071 139.85475 112.990071 
C 139.059141 112.990071 138.29601 113.30617 137.73343 113.86875 
C 137.170849 114.431331 136.85475 115.194461 136.85475 115.990071 
C 136.85475 116.78568 137.170849 117.54881 137.73343 118.111391 
C 138.29601 118.673972 139.059141 118.990071 139.85475 118.990071 
z
" clip-path="url(#p880b346b6a)" style="fill: #0173b2; stroke: #0173b2; stroke-width: 0.5"/>
    <path d="M 170.539542 93.448121 
C 171.335151 93.448121 172.098281 93.132022 172.660862 92.569441 
C 173.223443 92.00686 173.539542 91.24373 173.539542 90.448121 
C 173.539542 89.652511 173.223443 88.889381 172.660862 88.3268 
C 172.098281 87.76422 171.335151 87.448121 170.539542 87.448121 
C 169.743932 87.448121 168.980802 87.76422 168.418221 88.3268 
C 167.855641 88.889381 167.539542 89.652511 167.539542 90.448121 
C 167.539542 91.24373 167.855641 92.00686 168.418221 92.569441 
C 168.980802 93.132022 169.743932 93.448121 170.539542 93.448121 
z
" clip-path="url(#p880b346b6a)" style="fill: #de8f05; stroke: #de8f05; stroke-width: 0.5"/>
   </g>
   <g id="LineCollection_2">
    <path d="M 139.85475 133.915822 
L 139.85475 98.064319 
" clip-path="url(#p880b346b6a)" style="fill: none; stroke: #0173b2; stroke-width: 1.5; stroke-linecap: square"/>
    <path d="M 170.539542 123.315139 
L 170.539542 57.581102 
" clip-path="url(#p880b346b6a)" style="fill: none; stroke: #de8f05; stroke-width: 1.5; stroke-linecap: square"/>
   </g>
   <g id="patch_8">
    <path d="M 127.580833 177.720156 
L 127.580833 21.789375 
" style="fill: none; stroke: #ffffff; stroke-width: 1.25; stroke-linejoin: miter; stroke-linecap: square"/>
   </g>
   <g id="patch_9">
    <path d="M 188.950417 177.720156 
L 188.950417 21.789375 
" style="fill: none; stroke: #ffffff; stroke-width: 1.25; stroke-linejoin: miter; stroke-linecap: square"/>
   </g>
   <g id="patch_10">
    <path d="M 127.580833 177.720156 
L 188.950417 177.720156 
" style="fill: none; stroke: #ffffff; stroke-width: 1.25; stroke-linejoin: miter; stroke-linecap: square"/>
   </g>
   <g id="patch_11">
    <path d="M 127.580833 21.789375 
L 188.950417 21.789375 
" style="fill: none; stroke: #ffffff; stroke-width: 1.25; stroke-linejoin: miter; stroke-linecap: square"/>
   </g>
   <g id="text_10">
    <!-- 18DIV -->
    <g style="fill: #262626" transform="translate(141.590313 15.789375) scale(0.12 -0.12)">
     <defs>
      <path id="ArialMT-38" d="M 1131 2484 
Q 781 2613 612 2850 
Q 444 3088 444 3419 
Q 444 3919 803 4259 
Q 1163 4600 1759 4600 
Q 2359 4600 2725 4251 
Q 3091 3903 3091 3403 
Q 3091 3084 2923 2848 
Q 2756 2613 2416 2484 
Q 2838 2347 3058 2040 
Q 3278 1734 3278 1309 
Q 3278 722 2862 322 
Q 2447 -78 1769 -78 
Q 1091 -78 675 323 
Q 259 725 259 1325 
Q 259 1772 486 2073 
Q 713 2375 1131 2484 
z
M 1019 3438 
Q 1019 3113 1228 2906 
Q 1438 2700 1772 2700 
Q 2097 2700 2305 2904 
Q 2513 3109 2513 3406 
Q 2513 3716 2298 3927 
Q 2084 4138 1766 4138 
Q 1444 4138 1231 3931 
Q 1019 3725 1019 3438 
z
M 838 1322 
Q 838 1081 952 856 
Q 1066 631 1291 507 
Q 1516 384 1775 384 
Q 2178 384 2440 643 
Q 2703 903 2703 1303 
Q 2703 1709 2433 1975 
Q 2163 2241 1756 2241 
Q 1359 2241 1098 1978 
Q 838 1716 838 1322 
z
" transform="scale(0.015625)"/>
     </defs>
     <use xlink:href="#ArialMT-31"/>
     <use xlink:href="#ArialMT-38" x="55.615234"/>
     <use xlink:href="#ArialMT-44" x="111.230469"/>
     <use xlink:href="#ArialMT-49" x="183.447266"/>
     <use xlink:href="#ArialMT-56" x="211.230469"/>
    </g>
   </g>
  </g>
  <g id="axes_3">
   <g id="patch_12">
    <path d="M 207.910417 177.720156 
L 269.28 177.720156 
L 269.28 21.789375 
L 207.910417 21.789375 
z
" style="fill: #eaeaf2"/>
   </g>
   <g id="matplotlib.axis_5">
    <g id="xtick_5">
     <g id="text_11">
      <!-- FeS -->
      <g style="fill: #262626" transform="translate(213.166328 195.09375) scale(0.11 -0.11)">
       <use xlink:href="#ArialMT-46"/>
       <use xlink:href="#ArialMT-65" x="61.083984"/>
       <use xlink:href="#ArialMT-53" x="116.699219"/>
      </g>
     </g>
    </g>
    <g id="xtick_6">
     <g id="text_12">
      <!-- FeD -->
      <g style="fill: #262626" transform="translate(243.54776 195.09375) scale(0.11 -0.11)">
       <use xlink:href="#ArialMT-46"/>
       <use xlink:href="#ArialMT-65" x="61.083984"/>
       <use xlink:href="#ArialMT-44" x="116.699219"/>
      </g>
     </g>
    </g>
   </g>
   <g id="matplotlib.axis_6">
    <g id="ytick_7">
     <g id="line2d_13">
      <path d="M 207.910417 136.758944 
L 269.28 136.758944 
" clip-path="url(#p5b34719e7f)" style="fill: none; stroke: #ffffff; stroke-opacity: 0.8; stroke-linecap: round"/>
     </g>
     <g id="line2d_14">
      <g>
       <use xlink:href="#me9e34c5f59" x="207.910417" y="136.758944" style="fill: #808080; stroke: #808080; stroke-width: 1.25"/>
      </g>
     </g>
    </g>
    <g id="ytick_8">
     <g id="line2d_15">
      <path d="M 207.910417 95.700216 
L 269.28 95.700216 
" clip-path="url(#p5b34719e7f)" style="fill: none; stroke: #ffffff; stroke-opacity: 0.8; stroke-linecap: round"/>
     </g>
     <g id="line2d_16">
      <g>
       <use xlink:href="#me9e34c5f59" x="207.910417" y="95.700216" style="fill: #808080; stroke: #808080; stroke-width: 1.25"/>
      </g>
     </g>
    </g>
    <g id="ytick_9">
     <g id="line2d_17">
      <path d="M 207.910417 54.641489 
L 269.28 54.641489 
" clip-path="url(#p5b34719e7f)" style="fill: none; stroke: #ffffff; stroke-opacity: 0.8; stroke-linecap: round"/>
     </g>
     <g id="line2d_18">
      <g>
       <use xlink:href="#me9e34c5f59" x="207.910417" y="54.641489" style="fill: #808080; stroke: #808080; stroke-width: 1.25"/>
      </g>
     </g>
    </g>
   </g>
   <g id="PathCollection_5">
    <path d="M 228.169208 115.047529 
C 228.699614 115.047529 229.208368 114.836796 229.583422 114.461742 
C 229.958476 114.086688 230.169208 113.577935 230.169208 113.047529 
C 230.169208 112.517122 229.958476 112.008369 229.583422 111.633315 
C 229.208368 111.258261 228.699614 111.047529 228.169208 111.047529 
C 227.638802 111.047529 227.130048 111.258261 226.754995 111.633315 
C 226.379941 112.008369 226.169208 112.517122 226.169208 113.047529 
C 226.169208 113.577935 226.379941 114.086688 226.754995 114.461742 
C 227.130048 114.836796 227.638802 115.047529 228.169208 115.047529 
z
" clip-path="url(#p5b34719e7f)" style="fill: #0173b2; fill-opacity: 0.2; stroke: #0173b2; stroke-opacity: 0.6; stroke-width: 0.75"/>
    <path d="M 227.249007 129.315436 
C 227.779413 129.315436 228.288167 129.104704 228.66322 128.72965 
C 229.038274 128.354596 229.249007 127.845842 229.249007 127.315436 
C 229.249007 126.78503 229.038274 126.276277 228.66322 125.901223 
C 228.288167 125.526169 227.779413 125.315436 227.249007 125.315436 
C 226.718601 125.315436 226.209847 125.526169 225.834793 125.901223 
C 225.459739 126.276277 225.249007 126.78503 225.249007 127.315436 
C 225.249007 127.845842 225.459739 128.354596 225.834793 128.72965 
C 226.209847 129.104704 226.718601 129.315436 227.249007 129.315436 
z
" clip-path="url(#p5b34719e7f)" style="fill: #0173b2; fill-opacity: 0.2; stroke: #0173b2; stroke-opacity: 0.6; stroke-width: 0.75"/>
    <path d="M 226.745285 117.305759 
C 227.275691 117.305759 227.784445 117.095026 228.159498 116.719972 
C 228.534552 116.344918 228.745285 115.836165 228.745285 115.305759 
C 228.745285 114.775352 228.534552 114.266599 228.159498 113.891545 
C 227.784445 113.516491 227.275691 113.305759 226.745285 113.305759 
C 226.214879 113.305759 225.706125 113.516491 225.331071 113.891545 
C 224.956017 114.266599 224.745285 114.775352 224.745285 115.305759 
C 224.745285 115.836165 224.956017 116.344918 225.331071 116.719972 
C 225.706125 117.095026 226.214879 117.305759 226.745285 117.305759 
z
" clip-path="url(#p5b34719e7f)" style="fill: #0173b2; fill-opacity: 0.2; stroke: #0173b2; stroke-opacity: 0.6; stroke-width: 0.75"/>
    <path d="M 227.32005 119.358695 
C 227.850456 119.358695 228.35921 119.147962 228.734264 118.772908 
C 229.109317 118.397855 229.32005 117.889101 229.32005 117.358695 
C 229.32005 116.828289 229.109317 116.319535 228.734264 115.944481 
C 228.35921 115.569428 227.850456 115.358695 227.32005 115.358695 
C 226.789644 115.358695 226.28089 115.569428 225.905836 115.944481 
C 225.530783 116.319535 225.32005 116.828289 225.32005 117.358695 
C 225.32005 117.889101 225.530783 118.397855 225.905836 118.772908 
C 226.28089 119.147962 226.789644 119.358695 227.32005 119.358695 
z
" clip-path="url(#p5b34719e7f)" style="fill: #0173b2; fill-opacity: 0.2; stroke: #0173b2; stroke-opacity: 0.6; stroke-width: 0.75"/>
    <path d="M 225.358535 146.252161 
C 225.888942 146.252161 226.397695 146.041429 226.772749 145.666375 
C 227.147803 145.291321 227.358535 144.782567 227.358535 144.252161 
C 227.358535 143.721755 227.147803 143.213001 226.772749 142.837948 
C 226.397695 142.462894 225.888942 142.252161 225.358535 142.252161 
C 224.828129 142.252161 224.319376 142.462894 223.944322 142.837948 
C 223.569268 143.213001 223.358535 143.721755 223.358535 144.252161 
C 223.358535 144.782567 223.569268 145.291321 223.944322 145.666375 
C 224.319376 146.041429 224.828129 146.252161 225.358535 146.252161 
z
" clip-path="url(#p5b34719e7f)" style="fill: #0173b2; fill-opacity: 0.2; stroke: #0173b2; stroke-opacity: 0.6; stroke-width: 0.75"/>
    <path d="M 225.212999 164.933882 
C 225.743405 164.933882 226.252159 164.723149 226.627213 164.348096 
C 227.002266 163.973042 227.212999 163.464288 227.212999 162.933882 
C 227.212999 162.403476 227.002266 161.894722 226.627213 161.519669 
C 226.252159 161.144615 225.743405 160.933882 225.212999 160.933882 
C 224.682593 160.933882 224.173839 161.144615 223.798786 161.519669 
C 223.423732 161.894722 223.212999 162.403476 223.212999 162.933882 
C 223.212999 163.464288 223.423732 163.973042 223.798786 164.348096 
C 224.173839 164.723149 224.682593 164.933882 225.212999 164.933882 
z
" clip-path="url(#p5b34719e7f)" style="fill: #0173b2; fill-opacity: 0.2; stroke: #0173b2; stroke-opacity: 0.6; stroke-width: 0.75"/>
    <path d="M 258.692217 109.709894 
C 259.222623 109.709894 259.731377 109.499161 260.106431 109.124108 
C 260.481484 108.749054 260.692217 108.2403 260.692217 107.709894 
C 260.692217 107.179488 260.481484 106.670734 260.106431 106.29568 
C 259.731377 105.920627 259.222623 105.709894 258.692217 105.709894 
C 258.161811 105.709894 257.653057 105.920627 257.278004 106.29568 
C 256.90295 106.670734 256.692217 107.179488 256.692217 107.709894 
C 256.692217 108.2403 256.90295 108.749054 257.278004 109.124108 
C 257.653057 109.499161 258.161811 109.709894 258.692217 109.709894 
z
" clip-path="url(#p5b34719e7f)" style="fill: #de8f05; fill-opacity: 0.2; stroke: #de8f05; stroke-opacity: 0.6; stroke-width: 0.75"/>
    <path d="M 256.043053 114.636941 
C 256.57346 114.636941 257.082213 114.426209 257.457267 114.051155 
C 257.832321 113.676101 258.043053 113.167347 258.043053 112.636941 
C 258.043053 112.106535 257.832321 111.597782 257.457267 111.222728 
C 257.082213 110.847674 256.57346 110.636941 256.043053 110.636941 
C 255.512647 110.636941 255.003894 110.847674 254.62884 111.222728 
C 254.253786 111.597782 254.043053 112.106535 254.043053 112.636941 
C 254.043053 113.167347 254.253786 113.676101 254.62884 114.051155 
C 255.003894 114.426209 255.512647 114.636941 256.043053 114.636941 
z
" clip-path="url(#p5b34719e7f)" style="fill: #de8f05; fill-opacity: 0.2; stroke: #de8f05; stroke-opacity: 0.6; stroke-width: 0.75"/>
    <path d="M 257.097072 112.173418 
C 257.627478 112.173418 258.136232 111.962685 258.511286 111.587631 
C 258.88634 111.212577 259.097072 110.703824 259.097072 110.173418 
C 259.097072 109.643011 258.88634 109.134258 258.511286 108.759204 
C 258.136232 108.38415 257.627478 108.173418 257.097072 108.173418 
C 256.566666 108.173418 256.057912 108.38415 255.682859 108.759204 
C 255.307805 109.134258 255.097072 109.643011 255.097072 110.173418 
C 255.097072 110.703824 255.307805 111.212577 255.682859 111.587631 
C 256.057912 111.962685 256.566666 112.173418 257.097072 112.173418 
z
" clip-path="url(#p5b34719e7f)" style="fill: #de8f05; fill-opacity: 0.2; stroke: #de8f05; stroke-opacity: 0.6; stroke-width: 0.75"/>
    <path d="M 256.529787 130.033964 
C 257.060193 130.033964 257.568946 129.823231 257.944 129.448178 
C 258.319054 129.073124 258.529787 128.56437 258.529787 128.033964 
C 258.529787 127.503558 258.319054 126.994804 257.944 126.61975 
C 257.568946 126.244697 257.060193 126.033964 256.529787 126.033964 
C 255.99938 126.033964 255.490627 126.244697 255.115573 126.61975 
C 254.740519 126.994804 254.529787 127.503558 254.529787 128.033964 
C 254.529787 128.56437 254.740519 129.073124 255.115573 129.448178 
C 255.490627 129.823231 255.99938 130.033964 256.529787 130.033964 
z
" clip-path="url(#p5b34719e7f)" style="fill: #de8f05; fill-opacity: 0.2; stroke: #de8f05; stroke-opacity: 0.6; stroke-width: 0.75"/>
    <path d="M 256.479214 148.818332 
C 257.00962 148.818332 257.518374 148.607599 257.893427 148.232545 
C 258.268481 147.857491 258.479214 147.348738 258.479214 146.818332 
C 258.479214 146.287925 258.268481 145.779172 257.893427 145.404118 
C 257.518374 145.029064 257.00962 144.818332 256.479214 144.818332 
C 255.948808 144.818332 255.440054 145.029064 255.065 145.404118 
C 254.689947 145.779172 254.479214 146.287925 254.479214 146.818332 
C 254.479214 147.348738 254.689947 147.857491 255.065 148.232545 
C 255.440054 148.607599 255.948808 148.818332 256.479214 148.818332 
z
" clip-path="url(#p5b34719e7f)" style="fill: #de8f05; fill-opacity: 0.2; stroke: #de8f05; stroke-opacity: 0.6; stroke-width: 0.75"/>
    <path d="M 256.920658 60.336775 
C 257.451064 60.336775 257.959818 60.126042 258.334872 59.750988 
C 258.709926 59.375934 258.920658 58.867181 258.920658 58.336775 
C 258.920658 57.806368 258.709926 57.297615 258.334872 56.922561 
C 257.959818 56.547507 257.451064 56.336775 256.920658 56.336775 
C 256.390252 56.336775 255.881499 56.547507 255.506445 56.922561 
C 255.131391 57.297615 254.920658 57.806368 254.920658 58.336775 
C 254.920658 58.867181 255.131391 59.375934 255.506445 59.750988 
C 255.881499 60.126042 256.390252 60.336775 256.920658 60.336775 
z
" clip-path="url(#p5b34719e7f)" style="fill: #de8f05; fill-opacity: 0.2; stroke: #de8f05; stroke-opacity: 0.6; stroke-width: 0.75"/>
   </g>
   <g id="PathCollection_6">
    <path d="M 220.184333 133.035577 
C 220.979943 133.035577 221.743073 132.719478 222.305654 132.156897 
C 222.868234 131.594317 223.184333 130.831186 223.184333 130.035577 
C 223.184333 129.239968 222.868234 128.476837 222.305654 127.914257 
C 221.743073 127.351676 220.979943 127.035577 220.184333 127.035577 
C 219.388724 127.035577 218.625594 127.351676 218.063013 127.914257 
C 217.500432 128.476837 217.184333 129.239968 217.184333 130.035577 
C 217.184333 130.831186 217.500432 131.594317 218.063013 132.156897 
C 218.625594 132.719478 219.388724 133.035577 220.184333 133.035577 
z
" clip-path="url(#p5b34719e7f)" style="fill: #0173b2; stroke: #0173b2; stroke-width: 0.5"/>
    <path d="M 250.869125 113.618221 
C 251.664734 113.618221 252.427865 113.302122 252.990445 112.739541 
C 253.553026 112.17696 253.869125 111.41383 253.869125 110.618221 
C 253.869125 109.822611 253.553026 109.059481 252.990445 108.4969 
C 252.427865 107.934319 251.664734 107.618221 250.869125 107.618221 
C 250.073516 107.618221 249.310385 107.934319 248.747805 108.4969 
C 248.185224 109.059481 247.869125 109.822611 247.869125 110.618221 
C 247.869125 111.41383 248.185224 112.17696 248.747805 112.739541 
C 249.310385 113.302122 250.073516 113.618221 250.869125 113.618221 
z
" clip-path="url(#p5b34719e7f)" style="fill: #de8f05; stroke: #de8f05; stroke-width: 0.5"/>
   </g>
   <g id="LineCollection_3">
    <path d="M 220.184333 149.824835 
L 220.184333 110.246319 
" clip-path="url(#p5b34719e7f)" style="fill: none; stroke: #0173b2; stroke-width: 1.5; stroke-linecap: square"/>
    <path d="M 250.869125 140.147315 
L 250.869125 81.089126 
" clip-path="url(#p5b34719e7f)" style="fill: none; stroke: #de8f05; stroke-width: 1.5; stroke-linecap: square"/>
   </g>
   <g id="patch_13">
    <path d="M 207.910417 177.720156 
L 207.910417 21.789375 
" style="fill: none; stroke: #ffffff; stroke-width: 1.25; stroke-linejoin: miter; stroke-linecap: square"/>
   </g>
   <g id="patch_14">
    <path d="M 269.28 177.720156 
L 269.28 21.789375 
" style="fill: none; stroke: #ffffff; stroke-width: 1.25; stroke-linejoin: miter; stroke-linecap: square"/>
   </g>
   <g id="patch_15">
    <path d="M 207.910417 177.720156 
L 269.28 177.720156 
" style="fill: none; stroke: #ffffff; stroke-width: 1.25; stroke-linejoin: miter; stroke-linecap: square"/>
   </g>
   <g id="patch_16">
    <path d="M 207.910417 21.789375 
L 269.28 21.789375 
" style="fill: none; stroke: #ffffff; stroke-width: 1.25; stroke-linejoin: miter; stroke-linecap: square"/>
   </g>
   <g id="text_13">
    <!-- 21DIV -->
    <g style="fill: #262626" transform="translate(221.919896 15.789375) scale(0.12 -0.12)">
     <use xlink:href="#ArialMT-32"/>
     <use xlink:href="#ArialMT-31" x="55.615234"/>
     <use xlink:href="#ArialMT-44" x="111.230469"/>
     <use xlink:href="#ArialMT-49" x="183.447266"/>
     <use xlink:href="#ArialMT-56" x="211.230469"/>
    </g>
   </g>
  </g>
  <g id="legend_1">
   <g id="patch_17">
    <path d="M 289.94 111.127031 
L 345.919688 111.127031 
Q 348.119687 111.127031 348.119687 108.927031 
L 348.119687 62.432969 
Q 348.119687 60.232969 345.919688 60.232969 
L 289.94 60.232969 
Q 287.74 60.232969 287.74 62.432969 
L 287.74 108.927031 
Q 287.74 111.127031 289.94 111.127031 
z
" style="fill: #eaeaf2; opacity: 0.8; stroke: #cccccc; stroke-linejoin: miter"/>
   </g>
   <g id="text_14">
    <!-- Tx -->
    <g style="fill: #262626" transform="translate(311.265156 73.222344) scale(0.12 -0.12)">
     <defs>
      <path id="ArialMT-78" d="M 47 0 
L 1259 1725 
L 138 3319 
L 841 3319 
L 1350 2541 
Q 1494 2319 1581 2169 
Q 1719 2375 1834 2534 
L 2394 3319 
L 3066 3319 
L 1919 1756 
L 3153 0 
L 2463 0 
L 1781 1031 
L 1600 1309 
L 728 0 
L 47 0 
z
" transform="scale(0.015625)"/>
     </defs>
     <use xlink:href="#ArialMT-54"/>
     <use xlink:href="#ArialMT-78" x="61.083984"/>
    </g>
   </g>
   <g id="PathCollection_7">
    <defs>
     <path id="m50ba434b60" d="M 0 2 
C 0.530406 2 1.03916 1.789267 1.414214 1.414214 
C 1.789267 1.03916 2 0.530406 2 0 
C 2 -0.530406 1.789267 -1.03916 1.414214 -1.414214 
C 1.03916 -1.789267 0.530406 -2 0 -2 
C -0.530406 -2 -1.03916 -1.789267 -1.414214 -1.414214 
C -1.789267 -1.03916 -2 -0.530406 -2 0 
C -2 0.530406 -1.789267 1.03916 -1.414214 1.414214 
C -1.03916 1.789267 -0.530406 2 0 2 
z
" style="stroke: #0173b2; stroke-opacity: 0.6; stroke-width: 0.75"/>
    </defs>
    <g>
     <use xlink:href="#m50ba434b60" x="303.14" y="86.093437" style="fill: #0173b2; fill-opacity: 0.2; stroke: #0173b2; stroke-opacity: 0.6; stroke-width: 0.75"/>
    </g>
   </g>
   <g id="PathCollection_8">
    <defs>
     <path id="mf1afaafd01" d="M 0 3 
C 0.795609 3 1.55874 2.683901 2.12132 2.12132 
C 2.683901 1.55874 3 0.795609 3 0 
C 3 -0.795609 2.683901 -1.55874 2.12132 -2.12132 
C 1.55874 -2.683901 0.795609 -3 0 -3 
C -0.795609 -3 -1.55874 -2.683901 -2.12132 -2.12132 
C -2.683901 -1.55874 -3 -0.795609 -3 0 
C -3 0.795609 -2.683901 1.55874 -2.12132 2.12132 
C -1.55874 2.683901 -0.795609 3 0 3 
z
" style="stroke: #0173b2; stroke-width: 0.5"/>
    </defs>
    <g>
     <use xlink:href="#mf1afaafd01" x="303.14" y="86.093437" style="fill: #0173b2; stroke: #0173b2; stroke-width: 0.5"/>
    </g>
   </g>
   <g id="text_15">
    <!-- FeS -->
    <g style="fill: #262626" transform="translate(322.94 88.980937) scale(0.11 -0.11)">
     <use xlink:href="#ArialMT-46"/>
     <use xlink:href="#ArialMT-65" x="61.083984"/>
     <use xlink:href="#ArialMT-53" x="116.699219"/>
    </g>
   </g>
   <g id="PathCollection_9">
    <defs>
     <path id="mab3218bd59" d="M 0 2 
C 0.530406 2 1.03916 1.789267 1.414214 1.414214 
C 1.789267 1.03916 2 0.530406 2 0 
C 2 -0.530406 1.789267 -1.03916 1.414214 -1.414214 
C 1.03916 -1.789267 0.530406 -2 0 -2 
C -0.530406 -2 -1.03916 -1.789267 -1.414214 -1.414214 
C -1.789267 -1.03916 -2 -0.530406 -2 0 
C -2 0.530406 -1.789267 1.03916 -1.414214 1.414214 
C -1.03916 1.789267 -0.530406 2 0 2 
z
" style="stroke: #de8f05; stroke-opacity: 0.6; stroke-width: 0.75"/>
    </defs>
    <g>
     <use xlink:href="#mab3218bd59" x="303.14" y="101.653281" style="fill: #de8f05; fill-opacity: 0.2; stroke: #de8f05; stroke-opacity: 0.6; stroke-width: 0.75"/>
    </g>
   </g>
   <g id="PathCollection_10">
    <defs>
     <path id="mdb27acbccc" d="M 0 3 
C 0.795609 3 1.55874 2.683901 2.12132 2.12132 
C 2.683901 1.55874 3 0.795609 3 0 
C 3 -0.795609 2.683901 -1.55874 2.12132 -2.12132 
C 1.55874 -2.683901 0.795609 -3 0 -3 
C -0.795609 -3 -1.55874 -2.683901 -2.12132 -2.12132 
C -2.683901 -1.55874 -3 -0.795609 -3 0 
C -3 0.795609 -2.683901 1.55874 -2.12132 2.12132 
C -1.55874 2.683901 -0.795609 3 0 3 
z
" style="stroke: #de8f05; stroke-width: 0.5"/>
    </defs>
    <g>
     <use xlink:href="#mdb27acbccc" x="303.14" y="101.653281" style="fill: #de8f05; stroke: #de8f05; stroke-width: 0.5"/>
    </g>
   </g>
   <g id="text_16">
    <!-- FeD -->
    <g style="fill: #262626" transform="translate(322.94 104.540781) scale(0.11 -0.11)">
     <use xlink:href="#ArialMT-46"/>
     <use xlink:href="#ArialMT-65" x="61.083984"/>
     <use xlink:href="#ArialMT-44" x="116.699219"/>
    </g>
   </g>
  </g>
 </g>
 <defs>
  <clipPath id="pe3f88424eb">
   <rect x="47.25125" y="21.789375" width="61.369583" height="155.930781"/>
  </clipPath>
  <clipPath id="p880b346b6a">
   <rect x="127.580833" y="21.789375" width="61.369583" height="155.930781"/>
  </clipPath>
  <clipPath id="p5b34719e7f">
   <rect x="207.910417" y="21.789375" width="61.369583" height="155.930781"/>
  </clipPath>
 </defs>
</svg>
