<?xml version="1.0" encoding="utf-8" standalone="no"?>
<!DOCTYPE svg PUBLIC "-//W3C//DTD SVG 1.1//EN"
  "http://www.w3.org/Graphics/SVG/1.1/DTD/svg11.dtd">
<svg xmlns:xlink="http://www.w3.org/1999/xlink" width="349.559687pt" height="204.48pt" viewBox="0 0 349.559687 204.48" xmlns="http://www.w3.org/2000/svg" version="1.1">
 <metadata>
  <rdf:RDF xmlns:dc="http://purl.org/dc/elements/1.1/" xmlns:cc="http://creativecommons.org/ns#" xmlns:rdf="http://www.w3.org/1999/02/22-rdf-syntax-ns#">
   <cc:Work>
    <dc:type rdf:resource="http://purl.org/dc/dcmitype/StillImage"/>
    <dc:date>2023-06-09T14:28:23.739103</dc:date>
    <dc:format>image/svg+xml</dc:format>
    <dc:creator>
     <cc:Agent>
      <dc:title>Matplotlib v3.6.2, https://matplotlib.org/</dc:title>
     </cc:Agent>
    </dc:creator>
   </cc:Work>
  </rdf:RDF>
 </metadata>
 <defs>
  <style type="text/css">*{stroke-linejoin: round; stroke-linecap: butt}</style>
 </defs>
 <g id="figure_1">
  <g id="patch_1">
   <path d="M 0 204.48 
L 349.559687 204.48 
L 349.559687 0 
L 0 0 
z
" style="fill: #ffffff"/>
  </g>
  <g id="axes_1">
   <g id="patch_2">
    <path d="M 47.25125 177.720156 
L 108.620833 177.720156 
L 108.620833 21.789375 
L 47.25125 21.789375 
z
" style="fill: #eaeaf2"/>
   </g>
   <g id="matplotlib.axis_1">
    <g id="xtick_1">
     <g id="text_1">
      <text style="fill: #262626; font: 11px 'Arial', 'DejaVu Sans', 'Liberation Sans', 'Bitstream Vera Sans', sans-serif; text-anchor: middle" x="62.593646" y="195.09375" transform="rotate(-0 62.593646 195.09375)">FeS</text>
     </g>
    </g>
    <g id="xtick_2">
     <g id="text_2">
      <text style="fill: #262626; font: 11px 'Arial', 'DejaVu Sans', 'Liberation Sans', 'Bitstream Vera Sans', sans-serif; text-anchor: middle" x="93.278437" y="195.09375" transform="rotate(-0 93.278437 195.09375)">FeD</text>
     </g>
    </g>
   </g>
   <g id="matplotlib.axis_2">
    <g id="ytick_1">
     <g id="line2d_1">
      <path d="M 47.25125 136.758944 
L 108.620833 136.758944 
" clip-path="url(#pd27699596f)" style="fill: none; stroke: #ffffff; stroke-opacity: 0.8; stroke-linecap: round"/>
     </g>
     <g id="line2d_2">
      <defs>
       <path id="m90284744f5" d="M 0 0 
L -6 0 
" style="stroke: #808080; stroke-width: 1.25"/>
      </defs>
      <g>
       <use xlink:href="#m90284744f5" x="47.25125" y="136.758944" style="fill: #808080; stroke: #808080; stroke-width: 1.25"/>
      </g>
     </g>
     <g id="text_3">
      <text style="fill: #262626; font: 11px 'Arial', 'DejaVu Sans', 'Liberation Sans', 'Bitstream Vera Sans', sans-serif; text-anchor: end" x="37.75125" y="140.69574" transform="rotate(-0 37.75125 140.69574)">1.0</text>
     </g>
    </g>
    <g id="ytick_2">
     <g id="line2d_3">
      <path d="M 47.25125 95.700216 
L 108.620833 95.700216 
" clip-path="url(#pd27699596f)" style="fill: none; stroke: #ffffff; stroke-opacity: 0.8; stroke-linecap: round"/>
     </g>
     <g id="line2d_4">
      <g>
       <use xlink:href="#m90284744f5" x="47.25125" y="95.700216" style="fill: #808080; stroke: #808080; stroke-width: 1.25"/>
      </g>
     </g>
     <g id="text_4">
      <text style="fill: #262626; font: 11px 'Arial', 'DejaVu Sans', 'Liberation Sans', 'Bitstream Vera Sans', sans-serif; text-anchor: end" x="37.75125" y="99.637013" transform="rotate(-0 37.75125 99.637013)">1.2</text>
     </g>
    </g>
    <g id="ytick_3">
     <g id="line2d_5">
      <path d="M 47.25125 54.641489 
L 108.620833 54.641489 
" clip-path="url(#pd27699596f)" style="fill: none; stroke: #ffffff; stroke-opacity: 0.8; stroke-linecap: round"/>
     </g>
     <g id="line2d_6">
      <g>
       <use xlink:href="#m90284744f5" x="47.25125" y="54.641489" style="fill: #808080; stroke: #808080; stroke-width: 1.25"/>
      </g>
     </g>
     <g id="text_5">
      <text style="fill: #262626; font: 11px 'Arial', 'DejaVu Sans', 'Liberation Sans', 'Bitstream Vera Sans', sans-serif; text-anchor: end" x="37.75125" y="58.578286" transform="rotate(-0 37.75125 58.578286)">1.4</text>
     </g>
    </g>
    <g id="text_6">
     <text style="fill: #262626; font: 12px 'Arial', 'DejaVu Sans', 'Liberation Sans', 'Bitstream Vera Sans', sans-serif; text-anchor: middle" x="15.935625" y="99.754766" transform="rotate(-90 15.935625 99.754766)">T3 ng/mL</text>
    </g>
   </g>
   <g id="PathCollection_1">
    <path d="M 64.804778 172.632393 
C 65.335184 172.632393 65.843937 172.421661 66.218991 172.046607 
C 66.594045 171.671553 66.804778 171.1628 66.804778 170.632393 
C 66.804778 170.101987 66.594045 169.593234 66.218991 169.21818 
C 65.843937 168.843126 65.335184 168.632393 64.804778 168.632393 
C 64.274371 168.632393 63.765618 168.843126 63.390564 169.21818 
C 63.01551 169.593234 62.804778 170.101987 62.804778 170.632393 
C 62.804778 171.1628 63.01551 171.671553 63.390564 172.046607 
C 63.765618 172.421661 64.274371 172.632393 64.804778 172.632393 
z
" clip-path="url(#pd27699596f)" style="fill: #0173b2; fill-opacity: 0.2; stroke: #0173b2; stroke-opacity: 0.6; stroke-width: 0.75"/>
    <path d="M 64.290791 151.487149 
C 64.821198 151.487149 65.329951 151.276416 65.705005 150.901363 
C 66.080059 150.526309 66.290791 150.017555 66.290791 149.487149 
C 66.290791 148.956743 66.080059 148.447989 65.705005 148.072935 
C 65.329951 147.697882 64.821198 147.487149 64.290791 147.487149 
C 63.760385 147.487149 63.251632 147.697882 62.876578 148.072935 
C 62.501524 148.447989 62.290791 148.956743 62.290791 149.487149 
C 62.290791 150.017555 62.501524 150.526309 62.876578 150.901363 
C 63.251632 151.276416 63.760385 151.487149 64.290791 151.487149 
z
" clip-path="url(#pd27699596f)" style="fill: #0173b2; fill-opacity: 0.2; stroke: #0173b2; stroke-opacity: 0.6; stroke-width: 0.75"/>
    <path d="M 67.608422 156.414196 
C 68.138829 156.414196 68.647582 156.203464 69.022636 155.82841 
C 69.39769 155.453356 69.608422 154.944602 69.608422 154.414196 
C 69.608422 153.88379 69.39769 153.375036 69.022636 152.999983 
C 68.647582 152.624929 68.138829 152.414196 67.608422 152.414196 
C 67.078016 152.414196 66.569263 152.624929 66.194209 152.999983 
C 65.819155 153.375036 65.608422 153.88379 65.608422 154.414196 
C 65.608422 154.944602 65.819155 155.453356 66.194209 155.82841 
C 66.569263 156.203464 67.078016 156.414196 67.608422 156.414196 
z
" clip-path="url(#pd27699596f)" style="fill: #0173b2; fill-opacity: 0.2; stroke: #0173b2; stroke-opacity: 0.6; stroke-width: 0.75"/>
    <path d="M 64.951259 101.190208 
C 65.481665 101.190208 65.990418 100.979476 66.365472 100.604422 
C 66.740526 100.229368 66.951259 99.720614 66.951259 99.190208 
C 66.951259 98.659802 66.740526 98.151048 66.365472 97.775995 
C 65.990418 97.400941 65.481665 97.190208 64.951259 97.190208 
C 64.420852 97.190208 63.912099 97.400941 63.537045 97.775995 
C 63.161991 98.151048 62.951259 98.659802 62.951259 99.190208 
C 62.951259 99.720614 63.161991 100.229368 63.537045 100.604422 
C 63.912099 100.979476 64.420852 101.190208 64.951259 101.190208 
z
" clip-path="url(#pd27699596f)" style="fill: #0173b2; fill-opacity: 0.2; stroke: #0173b2; stroke-opacity: 0.6; stroke-width: 0.75"/>
    <path d="M 66.723596 119.358695 
C 67.254002 119.358695 67.762756 119.147962 68.13781 118.772908 
C 68.512863 118.397855 68.723596 117.889101 68.723596 117.358695 
C 68.723596 116.828289 68.512863 116.319535 68.13781 115.944481 
C 67.762756 115.569428 67.254002 115.358695 66.723596 115.358695 
C 66.19319 115.358695 65.684436 115.569428 65.309382 115.944481 
C 64.934329 116.319535 64.723596 116.828289 64.723596 117.358695 
C 64.723596 117.889101 64.934329 118.397855 65.309382 118.772908 
C 65.684436 119.147962 66.19319 119.358695 66.723596 119.358695 
z
" clip-path="url(#pd27699596f)" style="fill: #0173b2; fill-opacity: 0.2; stroke: #0173b2; stroke-opacity: 0.6; stroke-width: 0.75"/>
    <path d="M 64.035063 122.848687 
C 64.565469 122.848687 65.074223 122.637954 65.449276 122.2629 
C 65.82433 121.887846 66.035063 121.379093 66.035063 120.848687 
C 66.035063 120.318281 65.82433 119.809527 65.449276 119.434473 
C 65.074223 119.059419 64.565469 118.848687 64.035063 118.848687 
C 63.504657 118.848687 62.995903 119.059419 62.620849 119.434473 
C 62.245795 119.809527 62.035063 120.318281 62.035063 120.848687 
C 62.035063 121.379093 62.245795 121.887846 62.620849 122.2629 
C 62.995903 122.637954 63.504657 122.848687 64.035063 122.848687 
z
" clip-path="url(#pd27699596f)" style="fill: #0173b2; fill-opacity: 0.2; stroke: #0173b2; stroke-opacity: 0.6; stroke-width: 0.75"/>
    <path d="M 94.068396 131.987479 
L 92.068396 135.987479 
L 96.068396 135.987479 
z
" clip-path="url(#pd27699596f)" style="fill: #de8f05; fill-opacity: 0.2; stroke: #de8f05; stroke-opacity: 0.6; stroke-width: 0.75"/>
    <path d="M 95.283349 125.212789 
L 93.283349 129.212789 
L 97.283349 129.212789 
z
" clip-path="url(#pd27699596f)" style="fill: #de8f05; fill-opacity: 0.2; stroke: #de8f05; stroke-opacity: 0.6; stroke-width: 0.75"/>
    <path d="M 94.445068 115.358695 
L 92.445068 119.358695 
L 96.445068 119.358695 
z
" clip-path="url(#pd27699596f)" style="fill: #de8f05; fill-opacity: 0.2; stroke: #de8f05; stroke-opacity: 0.6; stroke-width: 0.75"/>
    <path d="M 98.153544 82.30642 
L 96.153544 86.30642 
L 100.153544 86.30642 
z
" clip-path="url(#pd27699596f)" style="fill: #de8f05; fill-opacity: 0.2; stroke: #de8f05; stroke-opacity: 0.6; stroke-width: 0.75"/>
    <path d="M 95.723215 106.017834 
L 93.723215 110.017834 
L 97.723215 110.017834 
z
" clip-path="url(#pd27699596f)" style="fill: #de8f05; fill-opacity: 0.2; stroke: #de8f05; stroke-opacity: 0.6; stroke-width: 0.75"/>
    <path d="M 96.904177 116.898397 
L 94.904177 120.898397 
L 98.904177 120.898397 
z
" clip-path="url(#pd27699596f)" style="fill: #de8f05; fill-opacity: 0.2; stroke: #de8f05; stroke-opacity: 0.6; stroke-width: 0.75"/>
   </g>
   <g id="PathCollection_2">
    <path d="M 59.525167 138.321888 
C 60.320776 138.321888 61.083906 138.005789 61.646487 137.443208 
C 62.209068 136.880628 62.525167 136.117497 62.525167 135.321888 
C 62.525167 134.526279 62.209068 133.763148 61.646487 133.200568 
C 61.083906 132.637987 60.320776 132.321888 59.525167 132.321888 
C 58.729557 132.321888 57.966427 132.637987 57.403846 133.200568 
C 56.841266 133.763148 56.525167 134.526279 56.525167 135.321888 
C 56.525167 136.117497 56.841266 136.880628 57.403846 137.443208 
C 57.966427 138.005789 58.729557 138.321888 59.525167 138.321888 
z
" clip-path="url(#pd27699596f)" style="fill: #0173b2; stroke: #0173b2; stroke-width: 0.5"/>
    <path d="M 90.209958 111.963602 
L 87.209958 117.963602 
L 93.209958 117.963602 
z
" clip-path="url(#pd27699596f)" style="fill: #de8f05; stroke: #de8f05; stroke-width: 0.5"/>
   </g>
   <g id="LineCollection_1">
    <path d="M 59.525167 162.339108 
L 59.525167 108.304668 
" clip-path="url(#pd27699596f)" style="fill: none; stroke: #0173b2; stroke-width: 1.5; stroke-linecap: round"/>
    <path d="M 90.209958 132.406516 
L 90.209958 97.520689 
" clip-path="url(#pd27699596f)" style="fill: none; stroke: #de8f05; stroke-width: 1.5; stroke-linecap: round"/>
   </g>
   <g id="patch_3">
    <path d="M 47.25125 177.720156 
L 47.25125 21.789375 
" style="fill: none; stroke: #ffffff; stroke-width: 1.25; stroke-linejoin: miter; stroke-linecap: square"/>
   </g>
   <g id="patch_4">
    <path d="M 108.620833 177.720156 
L 108.620833 21.789375 
" style="fill: none; stroke: #ffffff; stroke-width: 1.25; stroke-linejoin: miter; stroke-linecap: square"/>
   </g>
   <g id="patch_5">
    <path d="M 47.25125 177.720156 
L 108.620833 177.720156 
" style="fill: none; stroke: #ffffff; stroke-width: 1.25; stroke-linejoin: miter; stroke-linecap: square"/>
   </g>
   <g id="patch_6">
    <path d="M 47.25125 21.789375 
L 108.620833 21.789375 
" style="fill: none; stroke: #ffffff; stroke-width: 1.25; stroke-linejoin: miter; stroke-linecap: square"/>
   </g>
   <g id="text_7">
    <text style="fill: #262626; font: 12px 'Arial', 'DejaVu Sans', 'Liberation Sans', 'Bitstream Vera Sans', sans-serif; text-anchor: middle" x="77.936042" y="15.789375" transform="rotate(-0 77.936042 15.789375)">11DIV</text>
   </g>
  </g>
  <g id="axes_2">
   <g id="patch_7">
    <path d="M 127.580833 177.720156 
L 188.950417 177.720156 
L 188.950417 21.789375 
L 127.580833 21.789375 
z
" style="fill: #eaeaf2"/>
   </g>
   <g id="matplotlib.axis_3">
    <g id="xtick_3">
     <g id="text_8">
      <text style="fill: #262626; font: 11px 'Arial', 'DejaVu Sans', 'Liberation Sans', 'Bitstream Vera Sans', sans-serif; text-anchor: middle" x="142.923229" y="195.09375" transform="rotate(-0 142.923229 195.09375)">FeS</text>
     </g>
    </g>
    <g id="xtick_4">
     <g id="text_9">
      <text style="fill: #262626; font: 11px 'Arial', 'DejaVu Sans', 'Liberation Sans', 'Bitstream Vera Sans', sans-serif; text-anchor: middle" x="173.608021" y="195.09375" transform="rotate(-0 173.608021 195.09375)">FeD</text>
     </g>
    </g>
   </g>
   <g id="matplotlib.axis_4">
    <g id="ytick_4">
     <g id="line2d_7">
      <path d="M 127.580833 136.758944 
L 188.950417 136.758944 
" clip-path="url(#p9d4085920c)" style="fill: none; stroke: #ffffff; stroke-opacity: 0.8; stroke-linecap: round"/>
     </g>
     <g id="line2d_8">
      <g>
       <use xlink:href="#m90284744f5" x="127.580833" y="136.758944" style="fill: #808080; stroke: #808080; stroke-width: 1.25"/>
      </g>
     </g>
    </g>
    <g id="ytick_5">
     <g id="line2d_9">
      <path d="M 127.580833 95.700216 
L 188.950417 95.700216 
" clip-path="url(#p9d4085920c)" style="fill: none; stroke: #ffffff; stroke-opacity: 0.8; stroke-linecap: round"/>
     </g>
     <g id="line2d_10">
      <g>
       <use xlink:href="#m90284744f5" x="127.580833" y="95.700216" style="fill: #808080; stroke: #808080; stroke-width: 1.25"/>
      </g>
     </g>
    </g>
    <g id="ytick_6">
     <g id="line2d_11">
      <path d="M 127.580833 54.641489 
L 188.950417 54.641489 
" clip-path="url(#p9d4085920c)" style="fill: none; stroke: #ffffff; stroke-opacity: 0.8; stroke-linecap: round"/>
     </g>
     <g id="line2d_12">
      <g>
       <use xlink:href="#m90284744f5" x="127.580833" y="54.641489" style="fill: #808080; stroke: #808080; stroke-width: 1.25"/>
      </g>
     </g>
    </g>
   </g>
   <g id="PathCollection_3">
    <path d="M 144.411166 128.699555 
C 144.941572 128.699555 145.450326 128.488823 145.82538 128.113769 
C 146.200433 127.738715 146.411166 127.229962 146.411166 126.699555 
C 146.411166 126.169149 146.200433 125.660396 145.82538 125.285342 
C 145.450326 124.910288 144.941572 124.699555 144.411166 124.699555 
C 143.88076 124.699555 143.372006 124.910288 142.996952 125.285342 
C 142.621899 125.660396 142.411166 126.169149 142.411166 126.699555 
C 142.411166 127.229962 142.621899 127.738715 142.996952 128.113769 
C 143.372006 128.488823 143.88076 128.699555 144.411166 128.699555 
z
" clip-path="url(#p9d4085920c)" style="fill: #0173b2; fill-opacity: 0.2; stroke: #0173b2; stroke-opacity: 0.6; stroke-width: 0.75"/>
    <path d="M 144.654233 124.798976 
C 145.184639 124.798976 145.693393 124.588244 146.068447 124.21319 
C 146.443501 123.838136 146.654233 123.329382 146.654233 122.798976 
C 146.654233 122.26857 146.443501 121.759817 146.068447 121.384763 
C 145.693393 121.009709 145.184639 120.798976 144.654233 120.798976 
C 144.123827 120.798976 143.615073 121.009709 143.24002 121.384763 
C 142.864966 121.759817 142.654233 122.26857 142.654233 122.798976 
C 142.654233 123.329382 142.864966 123.838136 143.24002 124.21319 
C 143.615073 124.588244 144.123827 124.798976 144.654233 124.798976 
z
" clip-path="url(#p9d4085920c)" style="fill: #0173b2; fill-opacity: 0.2; stroke: #0173b2; stroke-opacity: 0.6; stroke-width: 0.75"/>
    <path d="M 146.526966 108.683426 
C 147.057372 108.683426 147.566126 108.472693 147.94118 108.097639 
C 148.316233 107.722586 148.526966 107.213832 148.526966 106.683426 
C 148.526966 106.15302 148.316233 105.644266 147.94118 105.269212 
C 147.566126 104.894158 147.057372 104.683426 146.526966 104.683426 
C 145.99656 104.683426 145.487806 104.894158 145.112752 105.269212 
C 144.737699 105.644266 144.526966 106.15302 144.526966 106.683426 
C 144.526966 107.213832 144.737699 107.722586 145.112752 108.097639 
C 145.487806 108.472693 145.99656 108.683426 146.526966 108.683426 
z
" clip-path="url(#p9d4085920c)" style="fill: #0173b2; fill-opacity: 0.2; stroke: #0173b2; stroke-opacity: 0.6; stroke-width: 0.75"/>
    <path d="M 146.448568 93.902284 
C 146.978974 93.902284 147.487728 93.691551 147.862781 93.316498 
C 148.237835 92.941444 148.448568 92.43269 148.448568 91.902284 
C 148.448568 91.371878 148.237835 90.863124 147.862781 90.48807 
C 147.487728 90.113017 146.978974 89.902284 146.448568 89.902284 
C 145.918162 89.902284 145.409408 90.113017 145.034354 90.48807 
C 144.6593 90.863124 144.448568 91.371878 144.448568 91.902284 
C 144.448568 92.43269 144.6593 92.941444 145.034354 93.316498 
C 145.409408 93.691551 145.918162 93.902284 146.448568 93.902284 
z
" clip-path="url(#p9d4085920c)" style="fill: #0173b2; fill-opacity: 0.2; stroke: #0173b2; stroke-opacity: 0.6; stroke-width: 0.75"/>
    <path d="M 145.328216 143.993931 
C 145.858622 143.993931 146.367376 143.783199 146.74243 143.408145 
C 147.117484 143.033091 147.328216 142.524337 147.328216 141.993931 
C 147.328216 141.463525 147.117484 140.954771 146.74243 140.579718 
C 146.367376 140.204664 145.858622 139.993931 145.328216 139.993931 
C 144.79781 139.993931 144.289057 140.204664 143.914003 140.579718 
C 143.538949 140.954771 143.328216 141.463525 143.328216 141.993931 
C 143.328216 142.524337 143.538949 143.033091 143.914003 143.408145 
C 144.289057 143.783199 144.79781 143.993931 145.328216 143.993931 
z
" clip-path="url(#p9d4085920c)" style="fill: #0173b2; fill-opacity: 0.2; stroke: #0173b2; stroke-opacity: 0.6; stroke-width: 0.75"/>
    <path d="M 147.61829 107.862251 
C 148.148696 107.862251 148.657449 107.651519 149.032503 107.276465 
C 149.407557 106.901411 149.61829 106.392657 149.61829 105.862251 
C 149.61829 105.331845 149.407557 104.823092 149.032503 104.448038 
C 148.657449 104.072984 148.148696 103.862251 147.61829 103.862251 
C 147.087883 103.862251 146.57913 104.072984 146.204076 104.448038 
C 145.829022 104.823092 145.61829 105.331845 145.61829 105.862251 
C 145.61829 106.392657 145.829022 106.901411 146.204076 107.276465 
C 146.57913 107.651519 147.087883 107.862251 147.61829 107.862251 
z
" clip-path="url(#p9d4085920c)" style="fill: #0173b2; fill-opacity: 0.2; stroke: #0173b2; stroke-opacity: 0.6; stroke-width: 0.75"/>
    <path d="M 175.275093 101.604021 
L 173.275093 105.604021 
L 177.275093 105.604021 
z
" clip-path="url(#p9d4085920c)" style="fill: #de8f05; fill-opacity: 0.2; stroke: #de8f05; stroke-opacity: 0.6; stroke-width: 0.75"/>
    <path d="M 174.78908 95.445212 
L 172.78908 99.445212 
L 176.78908 99.445212 
z
" clip-path="url(#p9d4085920c)" style="fill: #de8f05; fill-opacity: 0.2; stroke: #de8f05; stroke-opacity: 0.6; stroke-width: 0.75"/>
    <path d="M 176.814809 124.802202 
L 174.814809 128.802202 
L 178.814809 128.802202 
z
" clip-path="url(#p9d4085920c)" style="fill: #de8f05; fill-opacity: 0.2; stroke: #de8f05; stroke-opacity: 0.6; stroke-width: 0.75"/>
    <path d="M 178.325424 85.796411 
L 176.325424 89.796411 
L 180.325424 89.796411 
z
" clip-path="url(#p9d4085920c)" style="fill: #de8f05; fill-opacity: 0.2; stroke: #de8f05; stroke-opacity: 0.6; stroke-width: 0.75"/>
    <path d="M 176.773569 96.16374 
L 174.773569 100.16374 
L 178.773569 100.16374 
z
" clip-path="url(#p9d4085920c)" style="fill: #de8f05; fill-opacity: 0.2; stroke: #de8f05; stroke-opacity: 0.6; stroke-width: 0.75"/>
    <path d="M 177.959684 26.877138 
L 175.959684 30.877138 
L 179.959684 30.877138 
z
" clip-path="url(#p9d4085920c)" style="fill: #de8f05; fill-opacity: 0.2; stroke: #de8f05; stroke-opacity: 0.6; stroke-width: 0.75"/>
   </g>
   <g id="PathCollection_4">
    <path d="M 139.85475 118.990071 
C 140.650359 118.990071 141.41349 118.673972 141.97607 118.111391 
C 142.538651 117.54881 142.85475 116.78568 142.85475 115.990071 
C 142.85475 115.194461 142.538651 114.431331 141.97607 113.86875 
C 141.41349 113.30617 140.650359 112.990071 139.85475 112.990071 
C 139.059141 112.990071 138.29601 113.30617 137.73343 113.86875 
C 137.170849 114.431331 136.85475 115.194461 136.85475 115.990071 
C 136.85475 116.78568 137.170849 117.54881 137.73343 118.111391 
C 138.29601 118.673972 139.059141 118.990071 139.85475 118.990071 
z
" clip-path="url(#p9d4085920c)" style="fill: #0173b2; stroke: #0173b2; stroke-width: 0.5"/>
    <path d="M 170.539542 87.448121 
L 167.539542 93.448121 
L 173.539542 93.448121 
z
" clip-path="url(#p9d4085920c)" style="fill: #de8f05; stroke: #de8f05; stroke-width: 0.5"/>
   </g>
   <g id="LineCollection_2">
    <path d="M 139.85475 133.915822 
L 139.85475 98.064319 
" clip-path="url(#p9d4085920c)" style="fill: none; stroke: #0173b2; stroke-width: 1.5; stroke-linecap: round"/>
    <path d="M 170.539542 123.315139 
L 170.539542 57.581102 
" clip-path="url(#p9d4085920c)" style="fill: none; stroke: #de8f05; stroke-width: 1.5; stroke-linecap: round"/>
   </g>
   <g id="patch_8">
    <path d="M 127.580833 177.720156 
L 127.580833 21.789375 
" style="fill: none; stroke: #ffffff; stroke-width: 1.25; stroke-linejoin: miter; stroke-linecap: square"/>
   </g>
   <g id="patch_9">
    <path d="M 188.950417 177.720156 
L 188.950417 21.789375 
" style="fill: none; stroke: #ffffff; stroke-width: 1.25; stroke-linejoin: miter; stroke-linecap: square"/>
   </g>
   <g id="patch_10">
    <path d="M 127.580833 177.720156 
L 188.950417 177.720156 
" style="fill: none; stroke: #ffffff; stroke-width: 1.25; stroke-linejoin: miter; stroke-linecap: square"/>
   </g>
   <g id="patch_11">
    <path d="M 127.580833 21.789375 
L 188.950417 21.789375 
" style="fill: none; stroke: #ffffff; stroke-width: 1.25; stroke-linejoin: miter; stroke-linecap: square"/>
   </g>
   <g id="text_10">
    <text style="fill: #262626; font: 12px 'Arial', 'DejaVu Sans', 'Liberation Sans', 'Bitstream Vera Sans', sans-serif; text-anchor: middle" x="158.265625" y="15.789375" transform="rotate(-0 158.265625 15.789375)">18DIV</text>
   </g>
  </g>
  <g id="axes_3">
   <g id="patch_12">
    <path d="M 207.910417 177.720156 
L 269.28 177.720156 
L 269.28 21.789375 
L 207.910417 21.789375 
z
" style="fill: #eaeaf2"/>
   </g>
   <g id="matplotlib.axis_5">
    <g id="xtick_5">
     <g id="text_11">
      <text style="fill: #262626; font: 11px 'Arial', 'DejaVu Sans', 'Liberation Sans', 'Bitstream Vera Sans', sans-serif; text-anchor: middle" x="223.252812" y="195.09375" transform="rotate(-0 223.252812 195.09375)">FeS</text>
     </g>
    </g>
    <g id="xtick_6">
     <g id="text_12">
      <text style="fill: #262626; font: 11px 'Arial', 'DejaVu Sans', 'Liberation Sans', 'Bitstream Vera Sans', sans-serif; text-anchor: middle" x="253.937604" y="195.09375" transform="rotate(-0 253.937604 195.09375)">FeD</text>
     </g>
    </g>
   </g>
   <g id="matplotlib.axis_6">
    <g id="ytick_7">
     <g id="line2d_13">
      <path d="M 207.910417 136.758944 
L 269.28 136.758944 
" clip-path="url(#p22a7e87d53)" style="fill: none; stroke: #ffffff; stroke-opacity: 0.8; stroke-linecap: round"/>
     </g>
     <g id="line2d_14">
      <g>
       <use xlink:href="#m90284744f5" x="207.910417" y="136.758944" style="fill: #808080; stroke: #808080; stroke-width: 1.25"/>
      </g>
     </g>
    </g>
    <g id="ytick_8">
     <g id="line2d_15">
      <path d="M 207.910417 95.700216 
L 269.28 95.700216 
" clip-path="url(#p22a7e87d53)" style="fill: none; stroke: #ffffff; stroke-opacity: 0.8; stroke-linecap: round"/>
     </g>
     <g id="line2d_16">
      <g>
       <use xlink:href="#m90284744f5" x="207.910417" y="95.700216" style="fill: #808080; stroke: #808080; stroke-width: 1.25"/>
      </g>
     </g>
    </g>
    <g id="ytick_9">
     <g id="line2d_17">
      <path d="M 207.910417 54.641489 
L 269.28 54.641489 
" clip-path="url(#p22a7e87d53)" style="fill: none; stroke: #ffffff; stroke-opacity: 0.8; stroke-linecap: round"/>
     </g>
     <g id="line2d_18">
      <g>
       <use xlink:href="#m90284744f5" x="207.910417" y="54.641489" style="fill: #808080; stroke: #808080; stroke-width: 1.25"/>
      </g>
     </g>
    </g>
   </g>
   <g id="PathCollection_5">
    <path d="M 227.251334 115.047529 
C 227.78174 115.047529 228.290494 114.836796 228.665548 114.461742 
C 229.040602 114.086688 229.251334 113.577935 229.251334 113.047529 
C 229.251334 112.517122 229.040602 112.008369 228.665548 111.633315 
C 228.290494 111.258261 227.78174 111.047529 227.251334 111.047529 
C 226.720928 111.047529 226.212174 111.258261 225.837121 111.633315 
C 225.462067 112.008369 225.251334 112.517122 225.251334 113.047529 
C 225.251334 113.577935 225.462067 114.086688 225.837121 114.461742 
C 226.212174 114.836796 226.720928 115.047529 227.251334 115.047529 
z
" clip-path="url(#p22a7e87d53)" style="fill: #0173b2; fill-opacity: 0.2; stroke: #0173b2; stroke-opacity: 0.6; stroke-width: 0.75"/>
    <path d="M 223.959787 129.315436 
C 224.490193 129.315436 224.998947 129.104704 225.374001 128.72965 
C 225.749054 128.354596 225.959787 127.845842 225.959787 127.315436 
C 225.959787 126.78503 225.749054 126.276277 225.374001 125.901223 
C 224.998947 125.526169 224.490193 125.315436 223.959787 125.315436 
C 223.429381 125.315436 222.920627 125.526169 222.545574 125.901223 
C 222.17052 126.276277 221.959787 126.78503 221.959787 127.315436 
C 221.959787 127.845842 222.17052 128.354596 222.545574 128.72965 
C 222.920627 129.104704 223.429381 129.315436 223.959787 129.315436 
z
" clip-path="url(#p22a7e87d53)" style="fill: #0173b2; fill-opacity: 0.2; stroke: #0173b2; stroke-opacity: 0.6; stroke-width: 0.75"/>
    <path d="M 225.028815 117.305759 
C 225.559221 117.305759 226.067975 117.095026 226.443028 116.719972 
C 226.818082 116.344918 227.028815 115.836165 227.028815 115.305759 
C 227.028815 114.775352 226.818082 114.266599 226.443028 113.891545 
C 226.067975 113.516491 225.559221 113.305759 225.028815 113.305759 
C 224.498409 113.305759 223.989655 113.516491 223.614601 113.891545 
C 223.239548 114.266599 223.028815 114.775352 223.028815 115.305759 
C 223.028815 115.836165 223.239548 116.344918 223.614601 116.719972 
C 223.989655 117.095026 224.498409 117.305759 225.028815 117.305759 
z
" clip-path="url(#p22a7e87d53)" style="fill: #0173b2; fill-opacity: 0.2; stroke: #0173b2; stroke-opacity: 0.6; stroke-width: 0.75"/>
    <path d="M 228.733651 119.358695 
C 229.264057 119.358695 229.772811 119.147962 230.147864 118.772908 
C 230.522918 118.397855 230.733651 117.889101 230.733651 117.358695 
C 230.733651 116.828289 230.522918 116.319535 230.147864 115.944481 
C 229.772811 115.569428 229.264057 115.358695 228.733651 115.358695 
C 228.203245 115.358695 227.694491 115.569428 227.319437 115.944481 
C 226.944383 116.319535 226.733651 116.828289 226.733651 117.358695 
C 226.733651 117.889101 226.944383 118.397855 227.319437 118.772908 
C 227.694491 119.147962 228.203245 119.358695 228.733651 119.358695 
z
" clip-path="url(#p22a7e87d53)" style="fill: #0173b2; fill-opacity: 0.2; stroke: #0173b2; stroke-opacity: 0.6; stroke-width: 0.75"/>
    <path d="M 227.860246 146.252161 
C 228.390652 146.252161 228.899406 146.041429 229.27446 145.666375 
C 229.649514 145.291321 229.860246 144.782567 229.860246 144.252161 
C 229.860246 143.721755 229.649514 143.213001 229.27446 142.837948 
C 228.899406 142.462894 228.390652 142.252161 227.860246 142.252161 
C 227.32984 142.252161 226.821086 142.462894 226.446033 142.837948 
C 226.070979 143.213001 225.860246 143.721755 225.860246 144.252161 
C 225.860246 144.782567 226.070979 145.291321 226.446033 145.666375 
C 226.821086 146.041429 227.32984 146.252161 227.860246 146.252161 
z
" clip-path="url(#p22a7e87d53)" style="fill: #0173b2; fill-opacity: 0.2; stroke: #0173b2; stroke-opacity: 0.6; stroke-width: 0.75"/>
    <path d="M 226.211274 164.933882 
C 226.74168 164.933882 227.250433 164.723149 227.625487 164.348096 
C 228.000541 163.973042 228.211274 163.464288 228.211274 162.933882 
C 228.211274 162.403476 228.000541 161.894722 227.625487 161.519669 
C 227.250433 161.144615 226.74168 160.933882 226.211274 160.933882 
C 225.680867 160.933882 225.172114 161.144615 224.79706 161.519669 
C 224.422006 161.894722 224.211274 162.403476 224.211274 162.933882 
C 224.211274 163.464288 224.422006 163.973042 224.79706 164.348096 
C 225.172114 164.723149 225.680867 164.933882 226.211274 164.933882 
z
" clip-path="url(#p22a7e87d53)" style="fill: #0173b2; fill-opacity: 0.2; stroke: #0173b2; stroke-opacity: 0.6; stroke-width: 0.75"/>
    <path d="M 257.462313 105.709894 
L 255.462313 109.709894 
L 259.462313 109.709894 
z
" clip-path="url(#p22a7e87d53)" style="fill: #de8f05; fill-opacity: 0.2; stroke: #de8f05; stroke-opacity: 0.6; stroke-width: 0.75"/>
    <path d="M 258.144506 110.636941 
L 256.144506 114.636941 
L 260.144506 114.636941 
z
" clip-path="url(#p22a7e87d53)" style="fill: #de8f05; fill-opacity: 0.2; stroke: #de8f05; stroke-opacity: 0.6; stroke-width: 0.75"/>
    <path d="M 256.176176 108.173418 
L 254.176176 112.173418 
L 258.176176 112.173418 
z
" clip-path="url(#p22a7e87d53)" style="fill: #de8f05; fill-opacity: 0.2; stroke: #de8f05; stroke-opacity: 0.6; stroke-width: 0.75"/>
    <path d="M 255.535013 126.033964 
L 253.535013 130.033964 
L 257.535013 130.033964 
z
" clip-path="url(#p22a7e87d53)" style="fill: #de8f05; fill-opacity: 0.2; stroke: #de8f05; stroke-opacity: 0.6; stroke-width: 0.75"/>
    <path d="M 255.37477 144.818332 
L 253.37477 148.818332 
L 257.37477 148.818332 
z
" clip-path="url(#p22a7e87d53)" style="fill: #de8f05; fill-opacity: 0.2; stroke: #de8f05; stroke-opacity: 0.6; stroke-width: 0.75"/>
    <path d="M 255.700261 56.336775 
L 253.700261 60.336775 
L 257.700261 60.336775 
z
" clip-path="url(#p22a7e87d53)" style="fill: #de8f05; fill-opacity: 0.2; stroke: #de8f05; stroke-opacity: 0.6; stroke-width: 0.75"/>
   </g>
   <g id="PathCollection_6">
    <path d="M 220.184333 133.035577 
C 220.979943 133.035577 221.743073 132.719478 222.305654 132.156897 
C 222.868234 131.594317 223.184333 130.831186 223.184333 130.035577 
C 223.184333 129.239968 222.868234 128.476837 222.305654 127.914257 
C 221.743073 127.351676 220.979943 127.035577 220.184333 127.035577 
C 219.388724 127.035577 218.625594 127.351676 218.063013 127.914257 
C 217.500432 128.476837 217.184333 129.239968 217.184333 130.035577 
C 217.184333 130.831186 217.500432 131.594317 218.063013 132.156897 
C 218.625594 132.719478 219.388724 133.035577 220.184333 133.035577 
z
" clip-path="url(#p22a7e87d53)" style="fill: #0173b2; stroke: #0173b2; stroke-width: 0.5"/>
    <path d="M 250.869125 107.618221 
L 247.869125 113.618221 
L 253.869125 113.618221 
z
" clip-path="url(#p22a7e87d53)" style="fill: #de8f05; stroke: #de8f05; stroke-width: 0.5"/>
   </g>
   <g id="LineCollection_3">
    <path d="M 220.184333 149.824835 
L 220.184333 110.246319 
" clip-path="url(#p22a7e87d53)" style="fill: none; stroke: #0173b2; stroke-width: 1.5; stroke-linecap: round"/>
    <path d="M 250.869125 140.147315 
L 250.869125 81.089126 
" clip-path="url(#p22a7e87d53)" style="fill: none; stroke: #de8f05; stroke-width: 1.5; stroke-linecap: round"/>
   </g>
   <g id="patch_13">
    <path d="M 207.910417 177.720156 
L 207.910417 21.789375 
" style="fill: none; stroke: #ffffff; stroke-width: 1.25; stroke-linejoin: miter; stroke-linecap: square"/>
   </g>
   <g id="patch_14">
    <path d="M 269.28 177.720156 
L 269.28 21.789375 
" style="fill: none; stroke: #ffffff; stroke-width: 1.25; stroke-linejoin: miter; stroke-linecap: square"/>
   </g>
   <g id="patch_15">
    <path d="M 207.910417 177.720156 
L 269.28 177.720156 
" style="fill: none; stroke: #ffffff; stroke-width: 1.25; stroke-linejoin: miter; stroke-linecap: square"/>
   </g>
   <g id="patch_16">
    <path d="M 207.910417 21.789375 
L 269.28 21.789375 
" style="fill: none; stroke: #ffffff; stroke-width: 1.25; stroke-linejoin: miter; stroke-linecap: square"/>
   </g>
   <g id="text_13">
    <text style="fill: #262626; font: 12px 'Arial', 'DejaVu Sans', 'Liberation Sans', 'Bitstream Vera Sans', sans-serif; text-anchor: middle" x="238.595208" y="15.789375" transform="rotate(-0 238.595208 15.789375)">21DIV</text>
   </g>
  </g>
  <g id="legend_1">
   <g id="patch_17">
    <path d="M 289.94 111.127031 
L 345.919688 111.127031 
Q 348.119687 111.127031 348.119687 108.927031 
L 348.119687 62.432969 
Q 348.119687 60.232969 345.919688 60.232969 
L 289.94 60.232969 
Q 287.74 60.232969 287.74 62.432969 
L 287.74 108.927031 
Q 287.74 111.127031 289.94 111.127031 
z
" style="fill: #eaeaf2; opacity: 0.8; stroke: #cccccc; stroke-linejoin: miter"/>
   </g>
   <g id="text_14">
    <text style="fill: #262626; font: 12px 'Arial', 'DejaVu Sans', 'Liberation Sans', 'Bitstream Vera Sans', sans-serif; text-anchor: start" x="311.265156" y="73.222344" transform="rotate(-0 311.265156 73.222344)">Tx</text>
   </g>
   <g id="PathCollection_7">
    <defs>
     <path id="m31ce1b686f" d="M 0 2 
C 0.530406 2 1.03916 1.789267 1.414214 1.414214 
C 1.789267 1.03916 2 0.530406 2 0 
C 2 -0.530406 1.789267 -1.03916 1.414214 -1.414214 
C 1.03916 -1.789267 0.530406 -2 0 -2 
C -0.530406 -2 -1.03916 -1.789267 -1.414214 -1.414214 
C -1.789267 -1.03916 -2 -0.530406 -2 0 
C -2 0.530406 -1.789267 1.03916 -1.414214 1.414214 
C -1.03916 1.789267 -0.530406 2 0 2 
z
" style="stroke: #0173b2; stroke-opacity: 0.6; stroke-width: 0.75"/>
    </defs>
    <g>
     <use xlink:href="#m31ce1b686f" x="303.14" y="86.093437" style="fill: #0173b2; fill-opacity: 0.2; stroke: #0173b2; stroke-opacity: 0.6; stroke-width: 0.75"/>
    </g>
   </g>
   <g id="PathCollection_8">
    <defs>
     <path id="m8c1b9f59ea" d="M 0 3 
C 0.795609 3 1.55874 2.683901 2.12132 2.12132 
C 2.683901 1.55874 3 0.795609 3 0 
C 3 -0.795609 2.683901 -1.55874 2.12132 -2.12132 
C 1.55874 -2.683901 0.795609 -3 0 -3 
C -0.795609 -3 -1.55874 -2.683901 -2.12132 -2.12132 
C -2.683901 -1.55874 -3 -0.795609 -3 0 
C -3 0.795609 -2.683901 1.55874 -2.12132 2.12132 
C -1.55874 2.683901 -0.795609 3 0 3 
z
" style="stroke: #0173b2; stroke-width: 0.5"/>
    </defs>
    <g>
     <use xlink:href="#m8c1b9f59ea" x="303.14" y="86.093437" style="fill: #0173b2; stroke: #0173b2; stroke-width: 0.5"/>
    </g>
   </g>
   <g id="text_15">
    <text style="fill: #262626; font: 11px 'Arial', 'DejaVu Sans', 'Liberation Sans', 'Bitstream Vera Sans', sans-serif; text-anchor: start" x="322.94" y="88.980937" transform="rotate(-0 322.94 88.980937)">FeS</text>
   </g>
   <g id="PathCollection_9">
    <defs>
     <path id="m7b4a786e29" d="M 0 -2 
L -2 2 
L 2 2 
z
" style="stroke: #de8f05; stroke-opacity: 0.6; stroke-width: 0.75"/>
    </defs>
    <g>
     <use xlink:href="#m7b4a786e29" x="303.14" y="101.653281" style="fill: #de8f05; fill-opacity: 0.2; stroke: #de8f05; stroke-opacity: 0.6; stroke-width: 0.75"/>
    </g>
   </g>
   <g id="PathCollection_10">
    <defs>
     <path id="m0ecdd1a70c" d="M 0 -3 
L -3 3 
L 3 3 
z
" style="stroke: #de8f05; stroke-width: 0.5"/>
    </defs>
    <g>
     <use xlink:href="#m0ecdd1a70c" x="303.14" y="101.653281" style="fill: #de8f05; stroke: #de8f05; stroke-width: 0.5"/>
    </g>
   </g>
   <g id="text_16">
    <text style="fill: #262626; font: 11px 'Arial', 'DejaVu Sans', 'Liberation Sans', 'Bitstream Vera Sans', sans-serif; text-anchor: start" x="322.94" y="104.540781" transform="rotate(-0 322.94 104.540781)">FeD</text>
   </g>
  </g>
 </g>
 <defs>
  <clipPath id="pd27699596f">
   <rect x="47.25125" y="21.789375" width="61.369583" height="155.930781"/>
  </clipPath>
  <clipPath id="p9d4085920c">
   <rect x="127.580833" y="21.789375" width="61.369583" height="155.930781"/>
  </clipPath>
  <clipPath id="p22a7e87d53">
   <rect x="207.910417" y="21.789375" width="61.369583" height="155.930781"/>
  </clipPath>
 </defs>
</svg>
