<?xml version="1.0" encoding="utf-8" standalone="no"?>
<!DOCTYPE svg PUBLIC "-//W3C//DTD SVG 1.1//EN"
  "http://www.w3.org/Graphics/SVG/1.1/DTD/svg11.dtd">
<svg xmlns:xlink="http://www.w3.org/1999/xlink" width="349.559687pt" height="204.48pt" viewBox="0 0 349.559687 204.48" xmlns="http://www.w3.org/2000/svg" version="1.1">
 <metadata>
  <rdf:RDF xmlns:dc="http://purl.org/dc/elements/1.1/" xmlns:cc="http://creativecommons.org/ns#" xmlns:rdf="http://www.w3.org/1999/02/22-rdf-syntax-ns#">
   <cc:Work>
    <dc:type rdf:resource="http://purl.org/dc/dcmitype/StillImage"/>
    <dc:date>2023-06-02T17:23:01.676365</dc:date>
    <dc:format>image/svg+xml</dc:format>
    <dc:creator>
     <cc:Agent>
      <dc:title>Matplotlib v3.6.2, https://matplotlib.org/</dc:title>
     </cc:Agent>
    </dc:creator>
   </cc:Work>
  </rdf:RDF>
 </metadata>
 <defs>
  <style type="text/css">*{stroke-linejoin: round; stroke-linecap: butt}</style>
 </defs>
 <g id="figure_1">
  <g id="patch_1">
   <path d="M 0 204.48 
L 349.559687 204.48 
L 349.559687 0 
L 0 0 
z
" style="fill: #ffffff"/>
  </g>
  <g id="axes_1">
   <g id="patch_2">
    <path d="M 46.964375 177.720156 
L 143.833672 177.720156 
L 143.833672 21.789375 
L 46.964375 21.789375 
z
" style="fill: #eaeaf2"/>
   </g>
   <g id="matplotlib.axis_1">
    <g id="xtick_1">
     <g id="text_1">
      <!-- FeS -->
      <g style="fill: #262626" transform="translate(61.095215 195.09375) scale(0.11 -0.11)">
       <defs>
        <path id="ArialMT-46" d="M 525 0 
L 525 4581 
L 3616 4581 
L 3616 4041 
L 1131 4041 
L 1131 2622 
L 3281 2622 
L 3281 2081 
L 1131 2081 
L 1131 0 
L 525 0 
z
" transform="scale(0.015625)"/>
        <path id="ArialMT-65" d="M 2694 1069 
L 3275 997 
Q 3138 488 2766 206 
Q 2394 -75 1816 -75 
Q 1088 -75 661 373 
Q 234 822 234 1631 
Q 234 2469 665 2931 
Q 1097 3394 1784 3394 
Q 2450 3394 2872 2941 
Q 3294 2488 3294 1666 
Q 3294 1616 3291 1516 
L 816 1516 
Q 847 969 1125 678 
Q 1403 388 1819 388 
Q 2128 388 2347 550 
Q 2566 713 2694 1069 
z
M 847 1978 
L 2700 1978 
Q 2663 2397 2488 2606 
Q 2219 2931 1791 2931 
Q 1403 2931 1139 2672 
Q 875 2413 847 1978 
z
" transform="scale(0.015625)"/>
        <path id="ArialMT-53" d="M 288 1472 
L 859 1522 
Q 900 1178 1048 958 
Q 1197 738 1509 602 
Q 1822 466 2213 466 
Q 2559 466 2825 569 
Q 3091 672 3220 851 
Q 3350 1031 3350 1244 
Q 3350 1459 3225 1620 
Q 3100 1781 2813 1891 
Q 2628 1963 1997 2114 
Q 1366 2266 1113 2400 
Q 784 2572 623 2826 
Q 463 3081 463 3397 
Q 463 3744 659 4045 
Q 856 4347 1234 4503 
Q 1613 4659 2075 4659 
Q 2584 4659 2973 4495 
Q 3363 4331 3572 4012 
Q 3781 3694 3797 3291 
L 3216 3247 
Q 3169 3681 2898 3903 
Q 2628 4125 2100 4125 
Q 1550 4125 1298 3923 
Q 1047 3722 1047 3438 
Q 1047 3191 1225 3031 
Q 1400 2872 2139 2705 
Q 2878 2538 3153 2413 
Q 3553 2228 3743 1945 
Q 3934 1663 3934 1294 
Q 3934 928 3725 604 
Q 3516 281 3123 101 
Q 2731 -78 2241 -78 
Q 1619 -78 1198 103 
Q 778 284 539 648 
Q 300 1013 288 1472 
z
" transform="scale(0.015625)"/>
       </defs>
       <use xlink:href="#ArialMT-46"/>
       <use xlink:href="#ArialMT-65" x="61.083984"/>
       <use xlink:href="#ArialMT-53" x="116.699219"/>
      </g>
     </g>
    </g>
    <g id="xtick_2">
     <g id="text_2">
      <!-- FeD -->
      <g style="fill: #262626" transform="translate(109.226504 195.09375) scale(0.11 -0.11)">
       <defs>
        <path id="ArialMT-44" d="M 494 0 
L 494 4581 
L 2072 4581 
Q 2606 4581 2888 4516 
Q 3281 4425 3559 4188 
Q 3922 3881 4101 3404 
Q 4281 2928 4281 2316 
Q 4281 1794 4159 1391 
Q 4038 988 3847 723 
Q 3656 459 3429 307 
Q 3203 156 2883 78 
Q 2563 0 2147 0 
L 494 0 
z
M 1100 541 
L 2078 541 
Q 2531 541 2789 625 
Q 3047 709 3200 863 
Q 3416 1078 3536 1442 
Q 3656 1806 3656 2325 
Q 3656 3044 3420 3430 
Q 3184 3816 2847 3947 
Q 2603 4041 2063 4041 
L 1100 4041 
L 1100 541 
z
" transform="scale(0.015625)"/>
       </defs>
       <use xlink:href="#ArialMT-46"/>
       <use xlink:href="#ArialMT-65" x="61.083984"/>
       <use xlink:href="#ArialMT-44" x="116.699219"/>
      </g>
     </g>
    </g>
   </g>
   <g id="matplotlib.axis_2">
    <g id="ytick_1">
     <g id="line2d_1">
      <path d="M 46.964375 164.072032 
L 143.833672 164.072032 
" clip-path="url(#pef8a03ae76)" style="fill: none; stroke: #ffffff; stroke-linecap: round"/>
     </g>
     <g id="text_3">
      <!-- 1.0 -->
      <g style="fill: #262626" transform="translate(22.174375 168.008829) scale(0.11 -0.11)">
       <defs>
        <path id="ArialMT-31" d="M 2384 0 
L 1822 0 
L 1822 3584 
Q 1619 3391 1289 3197 
Q 959 3003 697 2906 
L 697 3450 
Q 1169 3672 1522 3987 
Q 1875 4303 2022 4600 
L 2384 4600 
L 2384 0 
z
" transform="scale(0.015625)"/>
        <path id="ArialMT-2e" d="M 581 0 
L 581 641 
L 1222 641 
L 1222 0 
L 581 0 
z
" transform="scale(0.015625)"/>
        <path id="ArialMT-30" d="M 266 2259 
Q 266 3072 433 3567 
Q 600 4063 929 4331 
Q 1259 4600 1759 4600 
Q 2128 4600 2406 4451 
Q 2684 4303 2865 4023 
Q 3047 3744 3150 3342 
Q 3253 2941 3253 2259 
Q 3253 1453 3087 958 
Q 2922 463 2592 192 
Q 2263 -78 1759 -78 
Q 1097 -78 719 397 
Q 266 969 266 2259 
z
M 844 2259 
Q 844 1131 1108 757 
Q 1372 384 1759 384 
Q 2147 384 2411 759 
Q 2675 1134 2675 2259 
Q 2675 3391 2411 3762 
Q 2147 4134 1753 4134 
Q 1366 4134 1134 3806 
Q 844 3388 844 2259 
z
" transform="scale(0.015625)"/>
       </defs>
       <use xlink:href="#ArialMT-31"/>
       <use xlink:href="#ArialMT-2e" x="55.615234"/>
       <use xlink:href="#ArialMT-30" x="83.398438"/>
      </g>
     </g>
    </g>
    <g id="ytick_2">
     <g id="line2d_2">
      <path d="M 46.964375 138.345126 
L 143.833672 138.345126 
" clip-path="url(#pef8a03ae76)" style="fill: none; stroke: #ffffff; stroke-linecap: round"/>
     </g>
     <g id="text_4">
      <!-- 1.1 -->
      <g style="fill: #262626" transform="translate(22.174375 142.281922) scale(0.11 -0.11)">
       <use xlink:href="#ArialMT-31"/>
       <use xlink:href="#ArialMT-2e" x="55.615234"/>
       <use xlink:href="#ArialMT-31" x="83.398438"/>
      </g>
     </g>
    </g>
    <g id="ytick_3">
     <g id="line2d_3">
      <path d="M 46.964375 112.618219 
L 143.833672 112.618219 
" clip-path="url(#pef8a03ae76)" style="fill: none; stroke: #ffffff; stroke-linecap: round"/>
     </g>
     <g id="text_5">
      <!-- 1.2 -->
      <g style="fill: #262626" transform="translate(22.174375 116.555016) scale(0.11 -0.11)">
       <defs>
        <path id="ArialMT-32" d="M 3222 541 
L 3222 0 
L 194 0 
Q 188 203 259 391 
Q 375 700 629 1000 
Q 884 1300 1366 1694 
Q 2113 2306 2375 2664 
Q 2638 3022 2638 3341 
Q 2638 3675 2398 3904 
Q 2159 4134 1775 4134 
Q 1369 4134 1125 3890 
Q 881 3647 878 3216 
L 300 3275 
Q 359 3922 746 4261 
Q 1134 4600 1788 4600 
Q 2447 4600 2831 4234 
Q 3216 3869 3216 3328 
Q 3216 3053 3103 2787 
Q 2991 2522 2730 2228 
Q 2469 1934 1863 1422 
Q 1356 997 1212 845 
Q 1069 694 975 541 
L 3222 541 
z
" transform="scale(0.015625)"/>
       </defs>
       <use xlink:href="#ArialMT-31"/>
       <use xlink:href="#ArialMT-2e" x="55.615234"/>
       <use xlink:href="#ArialMT-32" x="83.398438"/>
      </g>
     </g>
    </g>
    <g id="ytick_4">
     <g id="line2d_4">
      <path d="M 46.964375 86.891312 
L 143.833672 86.891312 
" clip-path="url(#pef8a03ae76)" style="fill: none; stroke: #ffffff; stroke-linecap: round"/>
     </g>
     <g id="text_6">
      <!-- 1.3 -->
      <g style="fill: #262626" transform="translate(22.174375 90.828109) scale(0.11 -0.11)">
       <defs>
        <path id="ArialMT-33" d="M 269 1209 
L 831 1284 
Q 928 806 1161 595 
Q 1394 384 1728 384 
Q 2125 384 2398 659 
Q 2672 934 2672 1341 
Q 2672 1728 2419 1979 
Q 2166 2231 1775 2231 
Q 1616 2231 1378 2169 
L 1441 2663 
Q 1497 2656 1531 2656 
Q 1891 2656 2178 2843 
Q 2466 3031 2466 3422 
Q 2466 3731 2256 3934 
Q 2047 4138 1716 4138 
Q 1388 4138 1169 3931 
Q 950 3725 888 3313 
L 325 3413 
Q 428 3978 793 4289 
Q 1159 4600 1703 4600 
Q 2078 4600 2393 4439 
Q 2709 4278 2876 4000 
Q 3044 3722 3044 3409 
Q 3044 3113 2884 2869 
Q 2725 2625 2413 2481 
Q 2819 2388 3044 2092 
Q 3269 1797 3269 1353 
Q 3269 753 2831 336 
Q 2394 -81 1725 -81 
Q 1122 -81 723 278 
Q 325 638 269 1209 
z
" transform="scale(0.015625)"/>
       </defs>
       <use xlink:href="#ArialMT-31"/>
       <use xlink:href="#ArialMT-2e" x="55.615234"/>
       <use xlink:href="#ArialMT-33" x="83.398438"/>
      </g>
     </g>
    </g>
    <g id="ytick_5">
     <g id="line2d_5">
      <path d="M 46.964375 61.164406 
L 143.833672 61.164406 
" clip-path="url(#pef8a03ae76)" style="fill: none; stroke: #ffffff; stroke-linecap: round"/>
     </g>
     <g id="text_7">
      <!-- 1.4 -->
      <g style="fill: #262626" transform="translate(22.174375 65.101203) scale(0.11 -0.11)">
       <defs>
        <path id="ArialMT-34" d="M 2069 0 
L 2069 1097 
L 81 1097 
L 81 1613 
L 2172 4581 
L 2631 4581 
L 2631 1613 
L 3250 1613 
L 3250 1097 
L 2631 1097 
L 2631 0 
L 2069 0 
z
M 2069 1613 
L 2069 3678 
L 634 1613 
L 2069 1613 
z
" transform="scale(0.015625)"/>
       </defs>
       <use xlink:href="#ArialMT-31"/>
       <use xlink:href="#ArialMT-2e" x="55.615234"/>
       <use xlink:href="#ArialMT-34" x="83.398438"/>
      </g>
     </g>
    </g>
    <g id="ytick_6">
     <g id="line2d_6">
      <path d="M 46.964375 35.437499 
L 143.833672 35.437499 
" clip-path="url(#pef8a03ae76)" style="fill: none; stroke: #ffffff; stroke-linecap: round"/>
     </g>
     <g id="text_8">
      <!-- 1.5 -->
      <g style="fill: #262626" transform="translate(22.174375 39.374296) scale(0.11 -0.11)">
       <defs>
        <path id="ArialMT-35" d="M 266 1200 
L 856 1250 
Q 922 819 1161 601 
Q 1400 384 1738 384 
Q 2144 384 2425 690 
Q 2706 997 2706 1503 
Q 2706 1984 2436 2262 
Q 2166 2541 1728 2541 
Q 1456 2541 1237 2417 
Q 1019 2294 894 2097 
L 366 2166 
L 809 4519 
L 3088 4519 
L 3088 3981 
L 1259 3981 
L 1013 2750 
Q 1425 3038 1878 3038 
Q 2478 3038 2890 2622 
Q 3303 2206 3303 1553 
Q 3303 931 2941 478 
Q 2500 -78 1738 -78 
Q 1113 -78 717 272 
Q 322 622 266 1200 
z
" transform="scale(0.015625)"/>
       </defs>
       <use xlink:href="#ArialMT-31"/>
       <use xlink:href="#ArialMT-2e" x="55.615234"/>
       <use xlink:href="#ArialMT-35" x="83.398438"/>
      </g>
     </g>
    </g>
    <g id="text_9">
     <!-- Abs -->
     <g style="fill: #262626" transform="translate(15.789375 110.093516) rotate(-90) scale(0.12 -0.12)">
      <defs>
       <path id="ArialMT-41" d="M -9 0 
L 1750 4581 
L 2403 4581 
L 4278 0 
L 3588 0 
L 3053 1388 
L 1138 1388 
L 634 0 
L -9 0 
z
M 1313 1881 
L 2866 1881 
L 2388 3150 
Q 2169 3728 2063 4100 
Q 1975 3659 1816 3225 
L 1313 1881 
z
" transform="scale(0.015625)"/>
       <path id="ArialMT-62" d="M 941 0 
L 419 0 
L 419 4581 
L 981 4581 
L 981 2947 
Q 1338 3394 1891 3394 
Q 2197 3394 2470 3270 
Q 2744 3147 2920 2923 
Q 3097 2700 3197 2384 
Q 3297 2069 3297 1709 
Q 3297 856 2875 390 
Q 2453 -75 1863 -75 
Q 1275 -75 941 416 
L 941 0 
z
M 934 1684 
Q 934 1088 1097 822 
Q 1363 388 1816 388 
Q 2184 388 2453 708 
Q 2722 1028 2722 1663 
Q 2722 2313 2464 2622 
Q 2206 2931 1841 2931 
Q 1472 2931 1203 2611 
Q 934 2291 934 1684 
z
" transform="scale(0.015625)"/>
       <path id="ArialMT-73" d="M 197 991 
L 753 1078 
Q 800 744 1014 566 
Q 1228 388 1613 388 
Q 2000 388 2187 545 
Q 2375 703 2375 916 
Q 2375 1106 2209 1216 
Q 2094 1291 1634 1406 
Q 1016 1563 777 1677 
Q 538 1791 414 1992 
Q 291 2194 291 2438 
Q 291 2659 392 2848 
Q 494 3038 669 3163 
Q 800 3259 1026 3326 
Q 1253 3394 1513 3394 
Q 1903 3394 2198 3281 
Q 2494 3169 2634 2976 
Q 2775 2784 2828 2463 
L 2278 2388 
Q 2241 2644 2061 2787 
Q 1881 2931 1553 2931 
Q 1166 2931 1000 2803 
Q 834 2675 834 2503 
Q 834 2394 903 2306 
Q 972 2216 1119 2156 
Q 1203 2125 1616 2013 
Q 2213 1853 2448 1751 
Q 2684 1650 2818 1456 
Q 2953 1263 2953 975 
Q 2953 694 2789 445 
Q 2625 197 2315 61 
Q 2006 -75 1616 -75 
Q 969 -75 630 194 
Q 291 463 197 991 
z
" transform="scale(0.015625)"/>
      </defs>
      <use xlink:href="#ArialMT-41"/>
      <use xlink:href="#ArialMT-62" x="66.699219"/>
      <use xlink:href="#ArialMT-73" x="122.314453"/>
     </g>
    </g>
   </g>
   <g id="PathCollection_1">
    <path d="M 78.138677 153.465848 
C 78.669083 153.465848 79.177837 153.255115 79.552891 152.880062 
C 79.927944 152.505008 80.138677 151.996254 80.138677 151.465848 
C 80.138677 150.935442 79.927944 150.426688 79.552891 150.051634 
C 79.177837 149.676581 78.669083 149.465848 78.138677 149.465848 
C 77.608271 149.465848 77.099517 149.676581 76.724463 150.051634 
C 76.34941 150.426688 76.138677 150.935442 76.138677 151.465848 
C 76.138677 151.996254 76.34941 152.505008 76.724463 152.880062 
C 77.099517 153.255115 77.608271 153.465848 78.138677 153.465848 
z
" clip-path="url(#pef8a03ae76)" style="fill: #0173b2; fill-opacity: 0.2; stroke: #0173b2; stroke-opacity: 0.6; stroke-width: 0.75"/>
    <path d="M 72.523775 148.577736 
C 73.054181 148.577736 73.562935 148.367003 73.937989 147.991949 
C 74.313042 147.616895 74.523775 147.108142 74.523775 146.577736 
C 74.523775 146.04733 74.313042 145.538576 73.937989 145.163522 
C 73.562935 144.788468 73.054181 144.577736 72.523775 144.577736 
C 71.993369 144.577736 71.484615 144.788468 71.109562 145.163522 
C 70.734508 145.538576 70.523775 146.04733 70.523775 146.577736 
C 70.523775 147.108142 70.734508 147.616895 71.109562 147.991949 
C 71.484615 148.367003 71.993369 148.577736 72.523775 148.577736 
z
" clip-path="url(#pef8a03ae76)" style="fill: #0173b2; fill-opacity: 0.2; stroke: #0173b2; stroke-opacity: 0.6; stroke-width: 0.75"/>
    <path d="M 76.178992 128.382114 
C 76.709398 128.382114 77.218152 128.171381 77.593205 127.796328 
C 77.968259 127.421274 78.178992 126.91252 78.178992 126.382114 
C 78.178992 125.851708 77.968259 125.342954 77.593205 124.9679 
C 77.218152 124.592847 76.709398 124.382114 76.178992 124.382114 
C 75.648586 124.382114 75.139832 124.592847 74.764778 124.9679 
C 74.389724 125.342954 74.178992 125.851708 74.178992 126.382114 
C 74.178992 126.91252 74.389724 127.421274 74.764778 127.796328 
C 75.139832 128.171381 75.648586 128.382114 76.178992 128.382114 
z
" clip-path="url(#pef8a03ae76)" style="fill: #0173b2; fill-opacity: 0.2; stroke: #0173b2; stroke-opacity: 0.6; stroke-width: 0.75"/>
    <path d="M 75.48159 109.858741 
C 76.011996 109.858741 76.52075 109.648009 76.895803 109.272955 
C 77.270857 108.897901 77.48159 108.389147 77.48159 107.858741 
C 77.48159 107.328335 77.270857 106.819581 76.895803 106.444528 
C 76.52075 106.069474 76.011996 105.858741 75.48159 105.858741 
C 74.951184 105.858741 74.44243 106.069474 74.067376 106.444528 
C 73.692323 106.819581 73.48159 107.328335 73.48159 107.858741 
C 73.48159 108.389147 73.692323 108.897901 74.067376 109.272955 
C 74.44243 109.648009 74.951184 109.858741 75.48159 109.858741 
z
" clip-path="url(#pef8a03ae76)" style="fill: #0173b2; fill-opacity: 0.2; stroke: #0173b2; stroke-opacity: 0.6; stroke-width: 0.75"/>
    <path d="M 72.709688 172.632393 
C 73.240094 172.632393 73.748848 172.421661 74.123902 172.046607 
C 74.498956 171.671553 74.709688 171.1628 74.709688 170.632393 
C 74.709688 170.101987 74.498956 169.593234 74.123902 169.21818 
C 73.748848 168.843126 73.240094 168.632393 72.709688 168.632393 
C 72.179282 168.632393 71.670528 168.843126 71.295475 169.21818 
C 70.920421 169.593234 70.709688 170.101987 70.709688 170.632393 
C 70.709688 171.1628 70.920421 171.671553 71.295475 172.046607 
C 71.670528 172.421661 72.179282 172.632393 72.709688 172.632393 
z
" clip-path="url(#pef8a03ae76)" style="fill: #0173b2; fill-opacity: 0.2; stroke: #0173b2; stroke-opacity: 0.6; stroke-width: 0.75"/>
    <path d="M 76.230238 127.353038 
C 76.760644 127.353038 77.269398 127.142305 77.644452 126.767251 
C 78.019505 126.392197 78.230238 125.883444 78.230238 125.353038 
C 78.230238 124.822632 78.019505 124.313878 77.644452 123.938824 
C 77.269398 123.56377 76.760644 123.353038 76.230238 123.353038 
C 75.699832 123.353038 75.191078 123.56377 74.816025 123.938824 
C 74.440971 124.313878 74.230238 124.822632 74.230238 125.353038 
C 74.230238 125.883444 74.440971 126.392197 74.816025 126.767251 
C 75.191078 127.142305 75.699832 127.353038 76.230238 127.353038 
z
" clip-path="url(#pef8a03ae76)" style="fill: #0173b2; fill-opacity: 0.2; stroke: #0173b2; stroke-opacity: 0.6; stroke-width: 0.75"/>
    <path d="M 123.325681 124.523078 
C 123.856087 124.523078 124.364841 124.312345 124.739894 123.937292 
C 125.114948 123.562238 125.325681 123.053484 125.325681 122.523078 
C 125.325681 121.992672 125.114948 121.483918 124.739894 121.108864 
C 124.364841 120.733811 123.856087 120.523078 123.325681 120.523078 
C 122.795275 120.523078 122.286521 120.733811 121.911467 121.108864 
C 121.536414 121.483918 121.325681 121.992672 121.325681 122.523078 
C 121.325681 123.053484 121.536414 123.562238 121.911467 123.937292 
C 122.286521 124.312345 122.795275 124.523078 123.325681 124.523078 
z
" clip-path="url(#pef8a03ae76)" style="fill: #de8f05; fill-opacity: 0.2; stroke: #de8f05; stroke-opacity: 0.6; stroke-width: 0.75"/>
    <path d="M 127.378515 116.805006 
C 127.908921 116.805006 128.417675 116.594273 128.792729 116.21922 
C 129.167783 115.844166 129.378515 115.335412 129.378515 114.805006 
C 129.378515 114.2746 129.167783 113.765846 128.792729 113.390792 
C 128.417675 113.015739 127.908921 112.805006 127.378515 112.805006 
C 126.848109 112.805006 126.339355 113.015739 125.964302 113.390792 
C 125.589248 113.765846 125.378515 114.2746 125.378515 114.805006 
C 125.378515 115.335412 125.589248 115.844166 125.964302 116.21922 
C 126.339355 116.594273 126.848109 116.805006 127.378515 116.805006 
z
" clip-path="url(#pef8a03ae76)" style="fill: #de8f05; fill-opacity: 0.2; stroke: #de8f05; stroke-opacity: 0.6; stroke-width: 0.75"/>
    <path d="M 126.096724 153.594483 
C 126.62713 153.594483 127.135884 153.38375 127.510937 153.008696 
C 127.885991 152.633642 128.096724 152.124889 128.096724 151.594483 
C 128.096724 151.064076 127.885991 150.555323 127.510937 150.180269 
C 127.135884 149.805215 126.62713 149.594483 126.096724 149.594483 
C 125.566318 149.594483 125.057564 149.805215 124.68251 150.180269 
C 124.307456 150.555323 124.096724 151.064076 124.096724 151.594483 
C 124.096724 152.124889 124.307456 152.633642 124.68251 153.008696 
C 125.057564 153.38375 125.566318 153.594483 126.096724 153.594483 
z
" clip-path="url(#pef8a03ae76)" style="fill: #de8f05; fill-opacity: 0.2; stroke: #de8f05; stroke-opacity: 0.6; stroke-width: 0.75"/>
    <path d="M 121.164539 104.71336 
C 121.694945 104.71336 122.203698 104.502627 122.578752 104.127573 
C 122.953806 103.75252 123.164539 103.243766 123.164539 102.71336 
C 123.164539 102.182954 122.953806 101.6742 122.578752 101.299146 
C 122.203698 100.924093 121.694945 100.71336 121.164539 100.71336 
C 120.634133 100.71336 120.125379 100.924093 119.750325 101.299146 
C 119.375271 101.6742 119.164539 102.182954 119.164539 102.71336 
C 119.164539 103.243766 119.375271 103.75252 119.750325 104.127573 
C 120.125379 104.502627 120.634133 104.71336 121.164539 104.71336 
z
" clip-path="url(#pef8a03ae76)" style="fill: #de8f05; fill-opacity: 0.2; stroke: #de8f05; stroke-opacity: 0.6; stroke-width: 0.75"/>
    <path d="M 121.990191 117.705448 
C 122.520597 117.705448 123.02935 117.494715 123.404404 117.119661 
C 123.779458 116.744607 123.990191 116.235854 123.990191 115.705448 
C 123.990191 115.175042 123.779458 114.666288 123.404404 114.291234 
C 123.02935 113.91618 122.520597 113.705448 121.990191 113.705448 
C 121.459784 113.705448 120.951031 113.91618 120.575977 114.291234 
C 120.200923 114.666288 119.990191 115.175042 119.990191 115.705448 
C 119.990191 116.235854 120.200923 116.744607 120.575977 117.119661 
C 120.951031 117.494715 121.459784 117.705448 121.990191 117.705448 
z
" clip-path="url(#pef8a03ae76)" style="fill: #de8f05; fill-opacity: 0.2; stroke: #de8f05; stroke-opacity: 0.6; stroke-width: 0.75"/>
    <path d="M 126.094442 30.877138 
C 126.624848 30.877138 127.133601 30.666405 127.508655 30.291351 
C 127.883709 29.916298 128.094442 29.407544 128.094442 28.877138 
C 128.094442 28.346732 127.883709 27.837978 127.508655 27.462924 
C 127.133601 27.08787 126.624848 26.877138 126.094442 26.877138 
C 125.564036 26.877138 125.055282 27.08787 124.680228 27.462924 
C 124.305174 27.837978 124.094442 28.346732 124.094442 28.877138 
C 124.094442 29.407544 124.305174 29.916298 124.680228 30.291351 
C 125.055282 30.666405 125.564036 30.877138 126.094442 30.877138 
z
" clip-path="url(#pef8a03ae76)" style="fill: #de8f05; fill-opacity: 0.2; stroke: #de8f05; stroke-opacity: 0.6; stroke-width: 0.75"/>
   </g>
   <g id="PathCollection_2">
    <path d="M 66.338234 141.044978 
C 67.133844 141.044978 67.896974 140.728879 68.459555 140.166299 
C 69.022135 139.603718 69.338234 138.840588 69.338234 138.044978 
C 69.338234 137.249369 69.022135 136.486239 68.459555 135.923658 
C 67.896974 135.361077 67.133844 135.044978 66.338234 135.044978 
C 65.542625 135.044978 64.779495 135.361077 64.216914 135.923658 
C 63.654333 136.486239 63.338234 137.249369 63.338234 138.044978 
C 63.338234 138.840588 63.654333 139.603718 64.216914 140.166299 
C 64.779495 140.728879 65.542625 141.044978 66.338234 141.044978 
z
" clip-path="url(#pef8a03ae76)" style="fill: #0173b2; stroke: #0173b2; stroke-width: 0.5"/>
    <path d="M 114.772883 109.036419 
C 115.568492 109.036419 116.331622 108.72032 116.894203 108.157739 
C 117.456784 107.595158 117.772883 106.832028 117.772883 106.036419 
C 117.772883 105.240809 117.456784 104.477679 116.894203 103.915098 
C 116.331622 103.352518 115.568492 103.036419 114.772883 103.036419 
C 113.977274 103.036419 113.214143 103.352518 112.651562 103.915098 
C 112.088982 104.477679 111.772883 105.240809 111.772883 106.036419 
C 111.772883 106.832028 112.088982 107.595158 112.651562 108.157739 
C 113.214143 108.72032 113.977274 109.036419 114.772883 109.036419 
z
" clip-path="url(#pef8a03ae76)" style="fill: #de8f05; stroke: #de8f05; stroke-width: 0.5"/>
   </g>
   <g id="LineCollection_1">
    <path d="M 66.338234 160.509101 
L 66.338234 115.580856 
" clip-path="url(#pef8a03ae76)" style="fill: none; stroke: #0173b2; stroke-width: 1.5; stroke-linecap: square"/>
    <path d="M 114.772883 147.224579 
L 114.772883 64.848258 
" clip-path="url(#pef8a03ae76)" style="fill: none; stroke: #de8f05; stroke-width: 1.5; stroke-linecap: square"/>
   </g>
   <g id="patch_3">
    <path d="M 46.964375 177.720156 
L 46.964375 21.789375 
" style="fill: none; stroke: #ffffff; stroke-width: 1.25; stroke-linejoin: miter; stroke-linecap: square"/>
   </g>
   <g id="patch_4">
    <path d="M 143.833672 177.720156 
L 143.833672 21.789375 
" style="fill: none; stroke: #ffffff; stroke-width: 1.25; stroke-linejoin: miter; stroke-linecap: square"/>
   </g>
   <g id="patch_5">
    <path d="M 46.964375 177.720156 
L 143.833672 177.720156 
" style="fill: none; stroke: #ffffff; stroke-width: 1.25; stroke-linejoin: miter; stroke-linecap: square"/>
   </g>
   <g id="patch_6">
    <path d="M 46.964375 21.789375 
L 143.833672 21.789375 
" style="fill: none; stroke: #ffffff; stroke-width: 1.25; stroke-linejoin: miter; stroke-linecap: square"/>
   </g>
   <g id="text_10">
    <!-- T3 -->
    <g style="fill: #262626" transform="translate(88.397773 15.789375) scale(0.12 -0.12)">
     <defs>
      <path id="ArialMT-54" d="M 1659 0 
L 1659 4041 
L 150 4041 
L 150 4581 
L 3781 4581 
L 3781 4041 
L 2266 4041 
L 2266 0 
L 1659 0 
z
" transform="scale(0.015625)"/>
     </defs>
     <use xlink:href="#ArialMT-54"/>
     <use xlink:href="#ArialMT-33" x="61.083984"/>
    </g>
   </g>
  </g>
  <g id="axes_2">
   <g id="patch_7">
    <path d="M 172.410703 177.720156 
L 269.28 177.720156 
L 269.28 21.789375 
L 172.410703 21.789375 
z
" style="fill: #eaeaf2"/>
   </g>
   <g id="matplotlib.axis_3">
    <g id="xtick_3">
     <g id="text_11">
      <!-- FeS -->
      <g style="fill: #262626" transform="translate(186.541543 195.09375) scale(0.11 -0.11)">
       <use xlink:href="#ArialMT-46"/>
       <use xlink:href="#ArialMT-65" x="61.083984"/>
       <use xlink:href="#ArialMT-53" x="116.699219"/>
      </g>
     </g>
    </g>
    <g id="xtick_4">
     <g id="text_12">
      <!-- FeD -->
      <g style="fill: #262626" transform="translate(234.672832 195.09375) scale(0.11 -0.11)">
       <use xlink:href="#ArialMT-46"/>
       <use xlink:href="#ArialMT-65" x="61.083984"/>
       <use xlink:href="#ArialMT-44" x="116.699219"/>
      </g>
     </g>
    </g>
   </g>
   <g id="matplotlib.axis_4">
    <g id="ytick_7">
     <g id="line2d_7">
      <path d="M 172.410703 169.133811 
L 269.28 169.133811 
" clip-path="url(#pff84e87cb6)" style="fill: none; stroke: #ffffff; stroke-linecap: round"/>
     </g>
     <g id="text_13">
      <!-- 3 -->
      <g style="fill: #262626" transform="translate(156.793672 173.070608) scale(0.11 -0.11)">
       <use xlink:href="#ArialMT-33"/>
      </g>
     </g>
    </g>
    <g id="ytick_8">
     <g id="line2d_8">
      <path d="M 172.410703 142.610235 
L 269.28 142.610235 
" clip-path="url(#pff84e87cb6)" style="fill: none; stroke: #ffffff; stroke-linecap: round"/>
     </g>
     <g id="text_14">
      <!-- 4 -->
      <g style="fill: #262626" transform="translate(156.793672 146.547032) scale(0.11 -0.11)">
       <use xlink:href="#ArialMT-34"/>
      </g>
     </g>
    </g>
    <g id="ytick_9">
     <g id="line2d_9">
      <path d="M 172.410703 116.086658 
L 269.28 116.086658 
" clip-path="url(#pff84e87cb6)" style="fill: none; stroke: #ffffff; stroke-linecap: round"/>
     </g>
     <g id="text_15">
      <!-- 5 -->
      <g style="fill: #262626" transform="translate(156.793672 120.023455) scale(0.11 -0.11)">
       <use xlink:href="#ArialMT-35"/>
      </g>
     </g>
    </g>
    <g id="ytick_10">
     <g id="line2d_10">
      <path d="M 172.410703 89.563081 
L 269.28 89.563081 
" clip-path="url(#pff84e87cb6)" style="fill: none; stroke: #ffffff; stroke-linecap: round"/>
     </g>
     <g id="text_16">
      <!-- 6 -->
      <g style="fill: #262626" transform="translate(156.793672 93.499878) scale(0.11 -0.11)">
       <defs>
        <path id="ArialMT-36" d="M 3184 3459 
L 2625 3416 
Q 2550 3747 2413 3897 
Q 2184 4138 1850 4138 
Q 1581 4138 1378 3988 
Q 1113 3794 959 3422 
Q 806 3050 800 2363 
Q 1003 2672 1297 2822 
Q 1591 2972 1913 2972 
Q 2475 2972 2870 2558 
Q 3266 2144 3266 1488 
Q 3266 1056 3080 686 
Q 2894 316 2569 119 
Q 2244 -78 1831 -78 
Q 1128 -78 684 439 
Q 241 956 241 2144 
Q 241 3472 731 4075 
Q 1159 4600 1884 4600 
Q 2425 4600 2770 4297 
Q 3116 3994 3184 3459 
z
M 888 1484 
Q 888 1194 1011 928 
Q 1134 663 1356 523 
Q 1578 384 1822 384 
Q 2178 384 2434 671 
Q 2691 959 2691 1453 
Q 2691 1928 2437 2201 
Q 2184 2475 1800 2475 
Q 1419 2475 1153 2201 
Q 888 1928 888 1484 
z
" transform="scale(0.015625)"/>
       </defs>
       <use xlink:href="#ArialMT-36"/>
      </g>
     </g>
    </g>
    <g id="ytick_11">
     <g id="line2d_11">
      <path d="M 172.410703 63.039505 
L 269.28 63.039505 
" clip-path="url(#pff84e87cb6)" style="fill: none; stroke: #ffffff; stroke-linecap: round"/>
     </g>
     <g id="text_17">
      <!-- 7 -->
      <g style="fill: #262626" transform="translate(156.793672 66.976301) scale(0.11 -0.11)">
       <defs>
        <path id="ArialMT-37" d="M 303 3981 
L 303 4522 
L 3269 4522 
L 3269 4084 
Q 2831 3619 2401 2847 
Q 1972 2075 1738 1259 
Q 1569 684 1522 0 
L 944 0 
Q 953 541 1156 1306 
Q 1359 2072 1739 2783 
Q 2119 3494 2547 3981 
L 303 3981 
z
" transform="scale(0.015625)"/>
       </defs>
       <use xlink:href="#ArialMT-37"/>
      </g>
     </g>
    </g>
    <g id="ytick_12">
     <g id="line2d_12">
      <path d="M 172.410703 36.515928 
L 269.28 36.515928 
" clip-path="url(#pff84e87cb6)" style="fill: none; stroke: #ffffff; stroke-linecap: round"/>
     </g>
     <g id="text_18">
      <!-- 8 -->
      <g style="fill: #262626" transform="translate(156.793672 40.452725) scale(0.11 -0.11)">
       <defs>
        <path id="ArialMT-38" d="M 1131 2484 
Q 781 2613 612 2850 
Q 444 3088 444 3419 
Q 444 3919 803 4259 
Q 1163 4600 1759 4600 
Q 2359 4600 2725 4251 
Q 3091 3903 3091 3403 
Q 3091 3084 2923 2848 
Q 2756 2613 2416 2484 
Q 2838 2347 3058 2040 
Q 3278 1734 3278 1309 
Q 3278 722 2862 322 
Q 2447 -78 1769 -78 
Q 1091 -78 675 323 
Q 259 725 259 1325 
Q 259 1772 486 2073 
Q 713 2375 1131 2484 
z
M 1019 3438 
Q 1019 3113 1228 2906 
Q 1438 2700 1772 2700 
Q 2097 2700 2305 2904 
Q 2513 3109 2513 3406 
Q 2513 3716 2298 3927 
Q 2084 4138 1766 4138 
Q 1444 4138 1231 3931 
Q 1019 3725 1019 3438 
z
M 838 1322 
Q 838 1081 952 856 
Q 1066 631 1291 507 
Q 1516 384 1775 384 
Q 2178 384 2440 643 
Q 2703 903 2703 1303 
Q 2703 1709 2433 1975 
Q 2163 2241 1756 2241 
Q 1359 2241 1098 1978 
Q 838 1716 838 1322 
z
" transform="scale(0.015625)"/>
       </defs>
       <use xlink:href="#ArialMT-38"/>
      </g>
     </g>
    </g>
   </g>
   <g id="PathCollection_3">
    <path d="M 199.704703 63.328734 
C 200.235109 63.328734 200.743863 63.118001 201.118916 62.742947 
C 201.49397 62.367894 201.704703 61.85914 201.704703 61.328734 
C 201.704703 60.798328 201.49397 60.289574 201.118916 59.91452 
C 200.743863 59.539466 200.235109 59.328734 199.704703 59.328734 
C 199.174297 59.328734 198.665543 59.539466 198.290489 59.91452 
C 197.915435 60.289574 197.704703 60.798328 197.704703 61.328734 
C 197.704703 61.85914 197.915435 62.367894 198.290489 62.742947 
C 198.665543 63.118001 199.174297 63.328734 199.704703 63.328734 
z
" clip-path="url(#pff84e87cb6)" style="fill: #0173b2; fill-opacity: 0.2; stroke: #0173b2; stroke-opacity: 0.6; stroke-width: 0.75"/>
    <path d="M 201.828068 172.632393 
C 202.358474 172.632393 202.867227 172.421661 203.242281 172.046607 
C 203.617335 171.671553 203.828068 171.1628 203.828068 170.632393 
C 203.828068 170.101987 203.617335 169.593234 203.242281 169.21818 
C 202.867227 168.843126 202.358474 168.632393 201.828068 168.632393 
C 201.297661 168.632393 200.788908 168.843126 200.413854 169.21818 
C 200.0388 169.593234 199.828068 170.101987 199.828068 170.632393 
C 199.828068 171.1628 200.0388 171.671553 200.413854 172.046607 
C 200.788908 172.421661 201.297661 172.632393 201.828068 172.632393 
z
" clip-path="url(#pff84e87cb6)" style="fill: #0173b2; fill-opacity: 0.2; stroke: #0173b2; stroke-opacity: 0.6; stroke-width: 0.75"/>
    <path d="M 199.478108 139.928823 
C 200.008514 139.928823 200.517268 139.718091 200.892321 139.343037 
C 201.267375 138.967983 201.478108 138.45923 201.478108 137.928823 
C 201.478108 137.398417 201.267375 136.889664 200.892321 136.51461 
C 200.517268 136.139556 200.008514 135.928823 199.478108 135.928823 
C 198.947702 135.928823 198.438948 136.139556 198.063894 136.51461 
C 197.68884 136.889664 197.478108 137.398417 197.478108 137.928823 
C 197.478108 138.45923 197.68884 138.967983 198.063894 139.343037 
C 198.438948 139.718091 198.947702 139.928823 199.478108 139.928823 
z
" clip-path="url(#pff84e87cb6)" style="fill: #0173b2; fill-opacity: 0.2; stroke: #0173b2; stroke-opacity: 0.6; stroke-width: 0.75"/>
    <path d="M 204.55088 102.557104 
C 205.081286 102.557104 205.590039 102.346371 205.965093 101.971317 
C 206.340147 101.596264 206.55088 101.08751 206.55088 100.557104 
C 206.55088 100.026698 206.340147 99.517944 205.965093 99.14289 
C 205.590039 98.767836 205.081286 98.557104 204.55088 98.557104 
C 204.020473 98.557104 203.51172 98.767836 203.136666 99.14289 
C 202.761612 99.517944 202.55088 100.026698 202.55088 100.557104 
C 202.55088 101.08751 202.761612 101.596264 203.136666 101.971317 
C 203.51172 102.346371 204.020473 102.557104 204.55088 102.557104 
z
" clip-path="url(#pff84e87cb6)" style="fill: #0173b2; fill-opacity: 0.2; stroke: #0173b2; stroke-opacity: 0.6; stroke-width: 0.75"/>
    <path d="M 202.541795 95.157026 
C 203.072201 95.157026 203.580955 94.946293 203.956008 94.571239 
C 204.331062 94.196186 204.541795 93.687432 204.541795 93.157026 
C 204.541795 92.62662 204.331062 92.117866 203.956008 91.742812 
C 203.580955 91.367759 203.072201 91.157026 202.541795 91.157026 
C 202.011389 91.157026 201.502635 91.367759 201.127581 91.742812 
C 200.752527 92.117866 200.541795 92.62662 200.541795 93.157026 
C 200.541795 93.687432 200.752527 94.196186 201.127581 94.571239 
C 201.502635 94.946293 202.011389 95.157026 202.541795 95.157026 
z
" clip-path="url(#pff84e87cb6)" style="fill: #0173b2; fill-opacity: 0.2; stroke: #0173b2; stroke-opacity: 0.6; stroke-width: 0.75"/>
    <path d="M 199.971151 97.013676 
C 200.501557 97.013676 201.010311 96.802944 201.385365 96.42789 
C 201.760419 96.052836 201.971151 95.544082 201.971151 95.013676 
C 201.971151 94.48327 201.760419 93.974517 201.385365 93.599463 
C 201.010311 93.224409 200.501557 93.013676 199.971151 93.013676 
C 199.440745 93.013676 198.931992 93.224409 198.556938 93.599463 
C 198.181884 93.974517 197.971151 94.48327 197.971151 95.013676 
C 197.971151 95.544082 198.181884 96.052836 198.556938 96.42789 
C 198.931992 96.802944 199.440745 97.013676 199.971151 97.013676 
z
" clip-path="url(#pff84e87cb6)" style="fill: #0173b2; fill-opacity: 0.2; stroke: #0173b2; stroke-opacity: 0.6; stroke-width: 0.75"/>
    <path d="M 252.617852 137.342775 
C 253.148258 137.342775 253.657012 137.132042 254.032066 136.756988 
C 254.40712 136.381934 254.617852 135.873181 254.617852 135.342775 
C 254.617852 134.812368 254.40712 134.303615 254.032066 133.928561 
C 253.657012 133.553507 253.148258 133.342775 252.617852 133.342775 
C 252.087446 133.342775 251.578693 133.553507 251.203639 133.928561 
C 250.828585 134.303615 250.617852 134.812368 250.617852 135.342775 
C 250.617852 135.873181 250.828585 136.381934 251.203639 136.756988 
C 251.578693 137.132042 252.087446 137.342775 252.617852 137.342775 
z
" clip-path="url(#pff84e87cb6)" style="fill: #de8f05; fill-opacity: 0.2; stroke: #de8f05; stroke-opacity: 0.6; stroke-width: 0.75"/>
    <path d="M 248.566243 153.906748 
C 249.096649 153.906748 249.605403 153.696016 249.980457 153.320962 
C 250.355511 152.945908 250.566243 152.437155 250.566243 151.906748 
C 250.566243 151.376342 250.355511 150.867589 249.980457 150.492535 
C 249.605403 150.117481 249.096649 149.906748 248.566243 149.906748 
C 248.035837 149.906748 247.527083 150.117481 247.15203 150.492535 
C 246.776976 150.867589 246.566243 151.376342 246.566243 151.906748 
C 246.566243 152.437155 246.776976 152.945908 247.15203 153.320962 
C 247.527083 153.696016 248.035837 153.906748 248.566243 153.906748 
z
" clip-path="url(#pff84e87cb6)" style="fill: #de8f05; fill-opacity: 0.2; stroke: #de8f05; stroke-opacity: 0.6; stroke-width: 0.75"/>
    <path d="M 247.139068 125.977422 
C 247.669475 125.977422 248.178228 125.766689 248.553282 125.391636 
C 248.928336 125.016582 249.139068 124.507828 249.139068 123.977422 
C 249.139068 123.447016 248.928336 122.938262 248.553282 122.563208 
C 248.178228 122.188155 247.669475 121.977422 247.139068 121.977422 
C 246.608662 121.977422 246.099909 122.188155 245.724855 122.563208 
C 245.349801 122.938262 245.139068 123.447016 245.139068 123.977422 
C 245.139068 124.507828 245.349801 125.016582 245.724855 125.391636 
C 246.099909 125.766689 246.608662 125.977422 247.139068 125.977422 
z
" clip-path="url(#pff84e87cb6)" style="fill: #de8f05; fill-opacity: 0.2; stroke: #de8f05; stroke-opacity: 0.6; stroke-width: 0.75"/>
    <path d="M 246.998158 30.877138 
C 247.528564 30.877138 248.037318 30.666405 248.412372 30.291351 
C 248.787426 29.916298 248.998158 29.407544 248.998158 28.877138 
C 248.998158 28.346732 248.787426 27.837978 248.412372 27.462924 
C 248.037318 27.08787 247.528564 26.877138 246.998158 26.877138 
C 246.467752 26.877138 245.958998 27.08787 245.583945 27.462924 
C 245.208891 27.837978 244.998158 28.346732 244.998158 28.877138 
C 244.998158 29.407544 245.208891 29.916298 245.583945 30.291351 
C 245.958998 30.666405 246.467752 30.877138 246.998158 30.877138 
z
" clip-path="url(#pff84e87cb6)" style="fill: #de8f05; fill-opacity: 0.2; stroke: #de8f05; stroke-opacity: 0.6; stroke-width: 0.75"/>
    <path d="M 249.280673 34.935245 
C 249.81108 34.935245 250.319833 34.724512 250.694887 34.349459 
C 251.069941 33.974405 251.280673 33.465651 251.280673 32.935245 
C 251.280673 32.404839 251.069941 31.896085 250.694887 31.521031 
C 250.319833 31.145978 249.81108 30.935245 249.280673 30.935245 
C 248.750267 30.935245 248.241514 31.145978 247.86646 31.521031 
C 247.491406 31.896085 247.280673 32.404839 247.280673 32.935245 
C 247.280673 33.465651 247.491406 33.974405 247.86646 34.349459 
C 248.241514 34.724512 248.750267 34.935245 249.280673 34.935245 
z
" clip-path="url(#pff84e87cb6)" style="fill: #de8f05; fill-opacity: 0.2; stroke: #de8f05; stroke-opacity: 0.6; stroke-width: 0.75"/>
    <path d="M 250.818245 89.507504 
C 251.348651 89.507504 251.857404 89.296771 252.232458 88.921718 
C 252.607512 88.546664 252.818245 88.03791 252.818245 87.507504 
C 252.818245 86.977098 252.607512 86.468344 252.232458 86.093291 
C 251.857404 85.718237 251.348651 85.507504 250.818245 85.507504 
C 250.287838 85.507504 249.779085 85.718237 249.404031 86.093291 
C 249.028977 86.468344 248.818245 86.977098 248.818245 87.507504 
C 248.818245 88.03791 249.028977 88.546664 249.404031 88.921718 
C 249.779085 89.296771 250.287838 89.507504 250.818245 89.507504 
z
" clip-path="url(#pff84e87cb6)" style="fill: #de8f05; fill-opacity: 0.2; stroke: #de8f05; stroke-opacity: 0.6; stroke-width: 0.75"/>
   </g>
   <g id="PathCollection_4">
    <path d="M 191.784562 112.769626 
C 192.580172 112.769626 193.343302 112.453527 193.905883 111.890946 
C 194.468464 111.328366 194.784562 110.565235 194.784562 109.769626 
C 194.784562 108.974017 194.468464 108.210887 193.905883 107.648306 
C 193.343302 107.085725 192.580172 106.769626 191.784562 106.769626 
C 190.988953 106.769626 190.225823 107.085725 189.663242 107.648306 
C 189.100661 108.210887 188.784562 108.974017 188.784562 109.769626 
C 188.784562 110.565235 189.100661 111.328366 189.663242 111.890946 
C 190.225823 112.453527 190.988953 112.769626 191.784562 112.769626 
z
" clip-path="url(#pff84e87cb6)" style="fill: #0173b2; stroke: #0173b2; stroke-width: 0.5"/>
    <path d="M 240.219211 96.424472 
C 241.01482 96.424472 241.777951 96.108373 242.340531 95.545792 
C 242.903112 94.983212 243.219211 94.220081 243.219211 93.424472 
C 243.219211 92.628863 242.903112 91.865732 242.340531 91.303152 
C 241.777951 90.740571 241.01482 90.424472 240.219211 90.424472 
C 239.423602 90.424472 238.660471 90.740571 238.097891 91.303152 
C 237.53531 91.865732 237.219211 92.628863 237.219211 93.424472 
C 237.219211 94.220081 237.53531 94.983212 238.097891 95.545792 
C 238.660471 96.108373 239.423602 96.424472 240.219211 96.424472 
z
" clip-path="url(#pff84e87cb6)" style="fill: #de8f05; stroke: #de8f05; stroke-width: 0.5"/>
   </g>
   <g id="LineCollection_2">
    <path d="M 191.784562 148.298379 
L 191.784562 71.240873 
" clip-path="url(#pff84e87cb6)" style="fill: none; stroke: #0173b2; stroke-width: 1.5; stroke-linecap: square"/>
    <path d="M 240.219211 146.28489 
L 240.219211 40.564054 
" clip-path="url(#pff84e87cb6)" style="fill: none; stroke: #de8f05; stroke-width: 1.5; stroke-linecap: square"/>
   </g>
   <g id="patch_8">
    <path d="M 172.410703 177.720156 
L 172.410703 21.789375 
" style="fill: none; stroke: #ffffff; stroke-width: 1.25; stroke-linejoin: miter; stroke-linecap: square"/>
   </g>
   <g id="patch_9">
    <path d="M 269.28 177.720156 
L 269.28 21.789375 
" style="fill: none; stroke: #ffffff; stroke-width: 1.25; stroke-linejoin: miter; stroke-linecap: square"/>
   </g>
   <g id="patch_10">
    <path d="M 172.410703 177.720156 
L 269.28 177.720156 
" style="fill: none; stroke: #ffffff; stroke-width: 1.25; stroke-linejoin: miter; stroke-linecap: square"/>
   </g>
   <g id="patch_11">
    <path d="M 172.410703 21.789375 
L 269.28 21.789375 
" style="fill: none; stroke: #ffffff; stroke-width: 1.25; stroke-linejoin: miter; stroke-linecap: square"/>
   </g>
   <g id="text_19">
    <!-- T4 -->
    <g style="fill: #262626" transform="translate(213.844102 15.789375) scale(0.12 -0.12)">
     <use xlink:href="#ArialMT-54"/>
     <use xlink:href="#ArialMT-34" x="61.083984"/>
    </g>
   </g>
  </g>
  <g id="legend_1">
   <g id="patch_12">
    <path d="M 289.94 111.127031 
L 345.919688 111.127031 
Q 348.119687 111.127031 348.119687 108.927031 
L 348.119687 62.432969 
Q 348.119687 60.232969 345.919688 60.232969 
L 289.94 60.232969 
Q 287.74 60.232969 287.74 62.432969 
L 287.74 108.927031 
Q 287.74 111.127031 289.94 111.127031 
z
" style="fill: #eaeaf2; opacity: 0.8; stroke: #cccccc; stroke-linejoin: miter"/>
   </g>
   <g id="text_20">
    <!-- Tx -->
    <g style="fill: #262626" transform="translate(311.265156 73.222344) scale(0.12 -0.12)">
     <defs>
      <path id="ArialMT-78" d="M 47 0 
L 1259 1725 
L 138 3319 
L 841 3319 
L 1350 2541 
Q 1494 2319 1581 2169 
Q 1719 2375 1834 2534 
L 2394 3319 
L 3066 3319 
L 1919 1756 
L 3153 0 
L 2463 0 
L 1781 1031 
L 1600 1309 
L 728 0 
L 47 0 
z
" transform="scale(0.015625)"/>
     </defs>
     <use xlink:href="#ArialMT-54"/>
     <use xlink:href="#ArialMT-78" x="61.083984"/>
    </g>
   </g>
   <g id="PathCollection_5">
    <defs>
     <path id="m1505197828" d="M 0 2 
C 0.530406 2 1.03916 1.789267 1.414214 1.414214 
C 1.789267 1.03916 2 0.530406 2 0 
C 2 -0.530406 1.789267 -1.03916 1.414214 -1.414214 
C 1.03916 -1.789267 0.530406 -2 0 -2 
C -0.530406 -2 -1.03916 -1.789267 -1.414214 -1.414214 
C -1.789267 -1.03916 -2 -0.530406 -2 0 
C -2 0.530406 -1.789267 1.03916 -1.414214 1.414214 
C -1.03916 1.789267 -0.530406 2 0 2 
z
" style="stroke: #0173b2; stroke-opacity: 0.6; stroke-width: 0.75"/>
    </defs>
    <g>
     <use xlink:href="#m1505197828" x="303.14" y="86.093437" style="fill: #0173b2; fill-opacity: 0.2; stroke: #0173b2; stroke-opacity: 0.6; stroke-width: 0.75"/>
    </g>
   </g>
   <g id="PathCollection_6">
    <defs>
     <path id="m5e337f11c8" d="M 0 3 
C 0.795609 3 1.55874 2.683901 2.12132 2.12132 
C 2.683901 1.55874 3 0.795609 3 0 
C 3 -0.795609 2.683901 -1.55874 2.12132 -2.12132 
C 1.55874 -2.683901 0.795609 -3 0 -3 
C -0.795609 -3 -1.55874 -2.683901 -2.12132 -2.12132 
C -2.683901 -1.55874 -3 -0.795609 -3 0 
C -3 0.795609 -2.683901 1.55874 -2.12132 2.12132 
C -1.55874 2.683901 -0.795609 3 0 3 
z
" style="stroke: #0173b2; stroke-width: 0.5"/>
    </defs>
    <g>
     <use xlink:href="#m5e337f11c8" x="303.14" y="86.093437" style="fill: #0173b2; stroke: #0173b2; stroke-width: 0.5"/>
    </g>
   </g>
   <g id="text_21">
    <!-- FeS -->
    <g style="fill: #262626" transform="translate(322.94 88.980937) scale(0.11 -0.11)">
     <use xlink:href="#ArialMT-46"/>
     <use xlink:href="#ArialMT-65" x="61.083984"/>
     <use xlink:href="#ArialMT-53" x="116.699219"/>
    </g>
   </g>
   <g id="PathCollection_7">
    <defs>
     <path id="m7ad1bfd859" d="M 0 2 
C 0.530406 2 1.03916 1.789267 1.414214 1.414214 
C 1.789267 1.03916 2 0.530406 2 0 
C 2 -0.530406 1.789267 -1.03916 1.414214 -1.414214 
C 1.03916 -1.789267 0.530406 -2 0 -2 
C -0.530406 -2 -1.03916 -1.789267 -1.414214 -1.414214 
C -1.789267 -1.03916 -2 -0.530406 -2 0 
C -2 0.530406 -1.789267 1.03916 -1.414214 1.414214 
C -1.03916 1.789267 -0.530406 2 0 2 
z
" style="stroke: #de8f05; stroke-opacity: 0.6; stroke-width: 0.75"/>
    </defs>
    <g>
     <use xlink:href="#m7ad1bfd859" x="303.14" y="101.653281" style="fill: #de8f05; fill-opacity: 0.2; stroke: #de8f05; stroke-opacity: 0.6; stroke-width: 0.75"/>
    </g>
   </g>
   <g id="PathCollection_8">
    <defs>
     <path id="mfe4b88ea23" d="M 0 3 
C 0.795609 3 1.55874 2.683901 2.12132 2.12132 
C 2.683901 1.55874 3 0.795609 3 0 
C 3 -0.795609 2.683901 -1.55874 2.12132 -2.12132 
C 1.55874 -2.683901 0.795609 -3 0 -3 
C -0.795609 -3 -1.55874 -2.683901 -2.12132 -2.12132 
C -2.683901 -1.55874 -3 -0.795609 -3 0 
C -3 0.795609 -2.683901 1.55874 -2.12132 2.12132 
C -1.55874 2.683901 -0.795609 3 0 3 
z
" style="stroke: #de8f05; stroke-width: 0.5"/>
    </defs>
    <g>
     <use xlink:href="#mfe4b88ea23" x="303.14" y="101.653281" style="fill: #de8f05; stroke: #de8f05; stroke-width: 0.5"/>
    </g>
   </g>
   <g id="text_22">
    <!-- FeD -->
    <g style="fill: #262626" transform="translate(322.94 104.540781) scale(0.11 -0.11)">
     <use xlink:href="#ArialMT-46"/>
     <use xlink:href="#ArialMT-65" x="61.083984"/>
     <use xlink:href="#ArialMT-44" x="116.699219"/>
    </g>
   </g>
  </g>
 </g>
 <defs>
  <clipPath id="pef8a03ae76">
   <rect x="46.964375" y="21.789375" width="96.869297" height="155.930781"/>
  </clipPath>
  <clipPath id="pff84e87cb6">
   <rect x="172.410703" y="21.789375" width="96.869297" height="155.930781"/>
  </clipPath>
 </defs>
</svg>
