<?xml version="1.0" encoding="utf-8" standalone="no"?>
<!DOCTYPE svg PUBLIC "-//W3C//DTD SVG 1.1//EN"
  "http://www.w3.org/Graphics/SVG/1.1/DTD/svg11.dtd">
<svg xmlns:xlink="http://www.w3.org/1999/xlink" width="314.279688pt" height="204.48pt" viewBox="0 0 314.279688 204.48" xmlns="http://www.w3.org/2000/svg" version="1.1">
 <metadata>
  <rdf:RDF xmlns:dc="http://purl.org/dc/elements/1.1/" xmlns:cc="http://creativecommons.org/ns#" xmlns:rdf="http://www.w3.org/1999/02/22-rdf-syntax-ns#">
   <cc:Work>
    <dc:type rdf:resource="http://purl.org/dc/dcmitype/StillImage"/>
    <dc:date>2023-06-02T17:23:01.020702</dc:date>
    <dc:format>image/svg+xml</dc:format>
    <dc:creator>
     <cc:Agent>
      <dc:title>Matplotlib v3.6.2, https://matplotlib.org/</dc:title>
     </cc:Agent>
    </dc:creator>
   </cc:Work>
  </rdf:RDF>
 </metadata>
 <defs>
  <style type="text/css">*{stroke-linejoin: round; stroke-linecap: butt}</style>
 </defs>
 <g id="figure_1">
  <g id="patch_1">
   <path d="M 0 204.48 
L 314.279688 204.48 
L 314.279688 0 
L 0 0 
z
" style="fill: #ffffff"/>
  </g>
  <g id="axes_1">
   <g id="patch_2">
    <path d="M 46.964375 177.720156 
L 125.833672 177.720156 
L 125.833672 21.789375 
L 46.964375 21.789375 
z
" style="fill: #eaeaf2"/>
   </g>
   <g id="matplotlib.axis_1">
    <g id="xtick_1">
     <g id="text_1">
      <!-- FeS -->
      <g style="fill: #262626" transform="translate(56.595215 195.09375) scale(0.11 -0.11)">
       <defs>
        <path id="ArialMT-46" d="M 525 0 
L 525 4581 
L 3616 4581 
L 3616 4041 
L 1131 4041 
L 1131 2622 
L 3281 2622 
L 3281 2081 
L 1131 2081 
L 1131 0 
L 525 0 
z
" transform="scale(0.015625)"/>
        <path id="ArialMT-65" d="M 2694 1069 
L 3275 997 
Q 3138 488 2766 206 
Q 2394 -75 1816 -75 
Q 1088 -75 661 373 
Q 234 822 234 1631 
Q 234 2469 665 2931 
Q 1097 3394 1784 3394 
Q 2450 3394 2872 2941 
Q 3294 2488 3294 1666 
Q 3294 1616 3291 1516 
L 816 1516 
Q 847 969 1125 678 
Q 1403 388 1819 388 
Q 2128 388 2347 550 
Q 2566 713 2694 1069 
z
M 847 1978 
L 2700 1978 
Q 2663 2397 2488 2606 
Q 2219 2931 1791 2931 
Q 1403 2931 1139 2672 
Q 875 2413 847 1978 
z
" transform="scale(0.015625)"/>
        <path id="ArialMT-53" d="M 288 1472 
L 859 1522 
Q 900 1178 1048 958 
Q 1197 738 1509 602 
Q 1822 466 2213 466 
Q 2559 466 2825 569 
Q 3091 672 3220 851 
Q 3350 1031 3350 1244 
Q 3350 1459 3225 1620 
Q 3100 1781 2813 1891 
Q 2628 1963 1997 2114 
Q 1366 2266 1113 2400 
Q 784 2572 623 2826 
Q 463 3081 463 3397 
Q 463 3744 659 4045 
Q 856 4347 1234 4503 
Q 1613 4659 2075 4659 
Q 2584 4659 2973 4495 
Q 3363 4331 3572 4012 
Q 3781 3694 3797 3291 
L 3216 3247 
Q 3169 3681 2898 3903 
Q 2628 4125 2100 4125 
Q 1550 4125 1298 3923 
Q 1047 3722 1047 3438 
Q 1047 3191 1225 3031 
Q 1400 2872 2139 2705 
Q 2878 2538 3153 2413 
Q 3553 2228 3743 1945 
Q 3934 1663 3934 1294 
Q 3934 928 3725 604 
Q 3516 281 3123 101 
Q 2731 -78 2241 -78 
Q 1619 -78 1198 103 
Q 778 284 539 648 
Q 300 1013 288 1472 
z
" transform="scale(0.015625)"/>
       </defs>
       <use xlink:href="#ArialMT-46"/>
       <use xlink:href="#ArialMT-65" x="61.083984"/>
       <use xlink:href="#ArialMT-53" x="116.699219"/>
      </g>
     </g>
    </g>
    <g id="xtick_2">
     <g id="text_2">
      <!-- FeD -->
      <g style="fill: #262626" transform="translate(95.726504 195.09375) scale(0.11 -0.11)">
       <defs>
        <path id="ArialMT-44" d="M 494 0 
L 494 4581 
L 2072 4581 
Q 2606 4581 2888 4516 
Q 3281 4425 3559 4188 
Q 3922 3881 4101 3404 
Q 4281 2928 4281 2316 
Q 4281 1794 4159 1391 
Q 4038 988 3847 723 
Q 3656 459 3429 307 
Q 3203 156 2883 78 
Q 2563 0 2147 0 
L 494 0 
z
M 1100 541 
L 2078 541 
Q 2531 541 2789 625 
Q 3047 709 3200 863 
Q 3416 1078 3536 1442 
Q 3656 1806 3656 2325 
Q 3656 3044 3420 3430 
Q 3184 3816 2847 3947 
Q 2603 4041 2063 4041 
L 1100 4041 
L 1100 541 
z
" transform="scale(0.015625)"/>
       </defs>
       <use xlink:href="#ArialMT-46"/>
       <use xlink:href="#ArialMT-65" x="61.083984"/>
       <use xlink:href="#ArialMT-44" x="116.699219"/>
      </g>
     </g>
    </g>
   </g>
   <g id="matplotlib.axis_2">
    <g id="ytick_1">
     <g id="line2d_1">
      <path d="M 46.964375 148.720166 
L 125.833672 148.720166 
" clip-path="url(#pfcc139abd4)" style="fill: none; stroke: #ffffff; stroke-linecap: round"/>
     </g>
     <g id="text_3">
      <!-- 0.9 -->
      <g style="fill: #262626" transform="translate(22.174375 152.656963) scale(0.11 -0.11)">
       <defs>
        <path id="ArialMT-30" d="M 266 2259 
Q 266 3072 433 3567 
Q 600 4063 929 4331 
Q 1259 4600 1759 4600 
Q 2128 4600 2406 4451 
Q 2684 4303 2865 4023 
Q 3047 3744 3150 3342 
Q 3253 2941 3253 2259 
Q 3253 1453 3087 958 
Q 2922 463 2592 192 
Q 2263 -78 1759 -78 
Q 1097 -78 719 397 
Q 266 969 266 2259 
z
M 844 2259 
Q 844 1131 1108 757 
Q 1372 384 1759 384 
Q 2147 384 2411 759 
Q 2675 1134 2675 2259 
Q 2675 3391 2411 3762 
Q 2147 4134 1753 4134 
Q 1366 4134 1134 3806 
Q 844 3388 844 2259 
z
" transform="scale(0.015625)"/>
        <path id="ArialMT-2e" d="M 581 0 
L 581 641 
L 1222 641 
L 1222 0 
L 581 0 
z
" transform="scale(0.015625)"/>
        <path id="ArialMT-39" d="M 350 1059 
L 891 1109 
Q 959 728 1153 556 
Q 1347 384 1650 384 
Q 1909 384 2104 503 
Q 2300 622 2425 820 
Q 2550 1019 2634 1356 
Q 2719 1694 2719 2044 
Q 2719 2081 2716 2156 
Q 2547 1888 2255 1720 
Q 1963 1553 1622 1553 
Q 1053 1553 659 1965 
Q 266 2378 266 3053 
Q 266 3750 677 4175 
Q 1088 4600 1706 4600 
Q 2153 4600 2523 4359 
Q 2894 4119 3086 3673 
Q 3278 3228 3278 2384 
Q 3278 1506 3087 986 
Q 2897 466 2520 194 
Q 2144 -78 1638 -78 
Q 1100 -78 759 220 
Q 419 519 350 1059 
z
M 2653 3081 
Q 2653 3566 2395 3850 
Q 2138 4134 1775 4134 
Q 1400 4134 1122 3828 
Q 844 3522 844 3034 
Q 844 2597 1108 2323 
Q 1372 2050 1759 2050 
Q 2150 2050 2401 2323 
Q 2653 2597 2653 3081 
z
" transform="scale(0.015625)"/>
       </defs>
       <use xlink:href="#ArialMT-30"/>
       <use xlink:href="#ArialMT-2e" x="55.615234"/>
       <use xlink:href="#ArialMT-39" x="83.398438"/>
      </g>
     </g>
    </g>
    <g id="ytick_2">
     <g id="line2d_2">
      <path d="M 46.964375 115.009047 
L 125.833672 115.009047 
" clip-path="url(#pfcc139abd4)" style="fill: none; stroke: #ffffff; stroke-linecap: round"/>
     </g>
     <g id="text_4">
      <!-- 1.0 -->
      <g style="fill: #262626" transform="translate(22.174375 118.945844) scale(0.11 -0.11)">
       <defs>
        <path id="ArialMT-31" d="M 2384 0 
L 1822 0 
L 1822 3584 
Q 1619 3391 1289 3197 
Q 959 3003 697 2906 
L 697 3450 
Q 1169 3672 1522 3987 
Q 1875 4303 2022 4600 
L 2384 4600 
L 2384 0 
z
" transform="scale(0.015625)"/>
       </defs>
       <use xlink:href="#ArialMT-31"/>
       <use xlink:href="#ArialMT-2e" x="55.615234"/>
       <use xlink:href="#ArialMT-30" x="83.398438"/>
      </g>
     </g>
    </g>
    <g id="ytick_3">
     <g id="line2d_3">
      <path d="M 46.964375 81.297928 
L 125.833672 81.297928 
" clip-path="url(#pfcc139abd4)" style="fill: none; stroke: #ffffff; stroke-linecap: round"/>
     </g>
     <g id="text_5">
      <!-- 1.1 -->
      <g style="fill: #262626" transform="translate(22.174375 85.234725) scale(0.11 -0.11)">
       <use xlink:href="#ArialMT-31"/>
       <use xlink:href="#ArialMT-2e" x="55.615234"/>
       <use xlink:href="#ArialMT-31" x="83.398438"/>
      </g>
     </g>
    </g>
    <g id="ytick_4">
     <g id="line2d_4">
      <path d="M 46.964375 47.586809 
L 125.833672 47.586809 
" clip-path="url(#pfcc139abd4)" style="fill: none; stroke: #ffffff; stroke-linecap: round"/>
     </g>
     <g id="text_6">
      <!-- 1.2 -->
      <g style="fill: #262626" transform="translate(22.174375 51.523606) scale(0.11 -0.11)">
       <defs>
        <path id="ArialMT-32" d="M 3222 541 
L 3222 0 
L 194 0 
Q 188 203 259 391 
Q 375 700 629 1000 
Q 884 1300 1366 1694 
Q 2113 2306 2375 2664 
Q 2638 3022 2638 3341 
Q 2638 3675 2398 3904 
Q 2159 4134 1775 4134 
Q 1369 4134 1125 3890 
Q 881 3647 878 3216 
L 300 3275 
Q 359 3922 746 4261 
Q 1134 4600 1788 4600 
Q 2447 4600 2831 4234 
Q 3216 3869 3216 3328 
Q 3216 3053 3103 2787 
Q 2991 2522 2730 2228 
Q 2469 1934 1863 1422 
Q 1356 997 1212 845 
Q 1069 694 975 541 
L 3222 541 
z
" transform="scale(0.015625)"/>
       </defs>
       <use xlink:href="#ArialMT-31"/>
       <use xlink:href="#ArialMT-2e" x="55.615234"/>
       <use xlink:href="#ArialMT-32" x="83.398438"/>
      </g>
     </g>
    </g>
    <g id="text_7">
     <!-- Abs -->
     <g style="fill: #262626" transform="translate(15.789375 110.093516) rotate(-90) scale(0.12 -0.12)">
      <defs>
       <path id="ArialMT-41" d="M -9 0 
L 1750 4581 
L 2403 4581 
L 4278 0 
L 3588 0 
L 3053 1388 
L 1138 1388 
L 634 0 
L -9 0 
z
M 1313 1881 
L 2866 1881 
L 2388 3150 
Q 2169 3728 2063 4100 
Q 1975 3659 1816 3225 
L 1313 1881 
z
" transform="scale(0.015625)"/>
       <path id="ArialMT-62" d="M 941 0 
L 419 0 
L 419 4581 
L 981 4581 
L 981 2947 
Q 1338 3394 1891 3394 
Q 2197 3394 2470 3270 
Q 2744 3147 2920 2923 
Q 3097 2700 3197 2384 
Q 3297 2069 3297 1709 
Q 3297 856 2875 390 
Q 2453 -75 1863 -75 
Q 1275 -75 941 416 
L 941 0 
z
M 934 1684 
Q 934 1088 1097 822 
Q 1363 388 1816 388 
Q 2184 388 2453 708 
Q 2722 1028 2722 1663 
Q 2722 2313 2464 2622 
Q 2206 2931 1841 2931 
Q 1472 2931 1203 2611 
Q 934 2291 934 1684 
z
" transform="scale(0.015625)"/>
       <path id="ArialMT-73" d="M 197 991 
L 753 1078 
Q 800 744 1014 566 
Q 1228 388 1613 388 
Q 2000 388 2187 545 
Q 2375 703 2375 916 
Q 2375 1106 2209 1216 
Q 2094 1291 1634 1406 
Q 1016 1563 777 1677 
Q 538 1791 414 1992 
Q 291 2194 291 2438 
Q 291 2659 392 2848 
Q 494 3038 669 3163 
Q 800 3259 1026 3326 
Q 1253 3394 1513 3394 
Q 1903 3394 2198 3281 
Q 2494 3169 2634 2976 
Q 2775 2784 2828 2463 
L 2278 2388 
Q 2241 2644 2061 2787 
Q 1881 2931 1553 2931 
Q 1166 2931 1000 2803 
Q 834 2675 834 2503 
Q 834 2394 903 2306 
Q 972 2216 1119 2156 
Q 1203 2125 1616 2013 
Q 2213 1853 2448 1751 
Q 2684 1650 2818 1456 
Q 2953 1263 2953 975 
Q 2953 694 2789 445 
Q 2625 197 2315 61 
Q 2006 -75 1616 -75 
Q 969 -75 630 194 
Q 291 463 197 991 
z
" transform="scale(0.015625)"/>
      </defs>
      <use xlink:href="#ArialMT-41"/>
      <use xlink:href="#ArialMT-62" x="66.699219"/>
      <use xlink:href="#ArialMT-73" x="122.314453"/>
     </g>
    </g>
   </g>
   <g id="PathCollection_1">
    <path d="M 70.984206 172.632393 
C 71.514612 172.632393 72.023365 172.421661 72.398419 172.046607 
C 72.773473 171.671553 72.984206 171.1628 72.984206 170.632393 
C 72.984206 170.101987 72.773473 169.593234 72.398419 169.21818 
C 72.023365 168.843126 71.514612 168.632393 70.984206 168.632393 
C 70.453799 168.632393 69.945046 168.843126 69.569992 169.21818 
C 69.194938 169.593234 68.984206 170.101987 68.984206 170.632393 
C 68.984206 171.1628 69.194938 171.671553 69.569992 172.046607 
C 69.945046 172.421661 70.453799 172.632393 70.984206 172.632393 
z
" clip-path="url(#pfcc139abd4)" style="fill: #0173b2; fill-opacity: 0.2; stroke: #0173b2; stroke-opacity: 0.6; stroke-width: 0.75"/>
    <path d="M 69.943583 137.909941 
C 70.473989 137.909941 70.982743 137.699208 71.357796 137.324154 
C 71.73285 136.949101 71.943583 136.440347 71.943583 135.909941 
C 71.943583 135.379535 71.73285 134.870781 71.357796 134.495727 
C 70.982743 134.120673 70.473989 133.909941 69.943583 133.909941 
C 69.413177 133.909941 68.904423 134.120673 68.529369 134.495727 
C 68.154315 134.870781 67.943583 135.379535 67.943583 135.909941 
C 67.943583 136.440347 68.154315 136.949101 68.529369 137.324154 
C 68.904423 137.699208 69.413177 137.909941 69.943583 137.909941 
z
" clip-path="url(#pfcc139abd4)" style="fill: #0173b2; fill-opacity: 0.2; stroke: #0173b2; stroke-opacity: 0.6; stroke-width: 0.75"/>
    <path d="M 73.628829 146.000609 
C 74.159235 146.000609 74.667988 145.789877 75.043042 145.414823 
C 75.418096 145.039769 75.628829 144.531016 75.628829 144.000609 
C 75.628829 143.470203 75.418096 142.96145 75.043042 142.586396 
C 74.667988 142.211342 74.159235 142.000609 73.628829 142.000609 
C 73.098422 142.000609 72.589669 142.211342 72.214615 142.586396 
C 71.839561 142.96145 71.628829 143.470203 71.628829 144.000609 
C 71.628829 144.531016 71.839561 145.039769 72.214615 145.414823 
C 72.589669 145.789877 73.098422 146.000609 73.628829 146.000609 
z
" clip-path="url(#pfcc139abd4)" style="fill: #0173b2; fill-opacity: 0.2; stroke: #0173b2; stroke-opacity: 0.6; stroke-width: 0.75"/>
    <path d="M 70.393537 55.317699 
C 70.923943 55.317699 71.432697 55.106966 71.807751 54.731913 
C 72.182804 54.356859 72.393537 53.848105 72.393537 53.317699 
C 72.393537 52.787293 72.182804 52.278539 71.807751 51.903486 
C 71.432697 51.528432 70.923943 51.317699 70.393537 51.317699 
C 69.863131 51.317699 69.354377 51.528432 68.979323 51.903486 
C 68.60427 52.278539 68.393537 52.787293 68.393537 53.317699 
C 68.393537 53.848105 68.60427 54.356859 68.979323 54.731913 
C 69.354377 55.106966 69.863131 55.317699 70.393537 55.317699 
z
" clip-path="url(#pfcc139abd4)" style="fill: #0173b2; fill-opacity: 0.2; stroke: #0173b2; stroke-opacity: 0.6; stroke-width: 0.75"/>
    <path d="M 72.86855 85.152039 
C 73.398956 85.152039 73.90771 84.941307 74.282764 84.566253 
C 74.657817 84.191199 74.86855 83.682446 74.86855 83.152039 
C 74.86855 82.621633 74.657817 82.11288 74.282764 81.737826 
C 73.90771 81.362772 73.398956 81.152039 72.86855 81.152039 
C 72.338144 81.152039 71.82939 81.362772 71.454336 81.737826 
C 71.079283 82.11288 70.86855 82.621633 70.86855 83.152039 
C 70.86855 83.682446 71.079283 84.191199 71.454336 84.566253 
C 71.82939 84.941307 72.338144 85.152039 72.86855 85.152039 
z
" clip-path="url(#pfcc139abd4)" style="fill: #0173b2; fill-opacity: 0.2; stroke: #0173b2; stroke-opacity: 0.6; stroke-width: 0.75"/>
    <path d="M 72.125221 90.88293 
C 72.655627 90.88293 73.164381 90.672197 73.539435 90.297143 
C 73.914489 89.922089 74.125221 89.413336 74.125221 88.88293 
C 74.125221 88.352524 73.914489 87.84377 73.539435 87.468716 
C 73.164381 87.093662 72.655627 86.88293 72.125221 86.88293 
C 71.594815 86.88293 71.086061 87.093662 70.711008 87.468716 
C 70.335954 87.84377 70.125221 88.352524 70.125221 88.88293 
C 70.125221 89.413336 70.335954 89.922089 70.711008 90.297143 
C 71.086061 90.672197 71.594815 90.88293 72.125221 90.88293 
z
" clip-path="url(#pfcc139abd4)" style="fill: #0173b2; fill-opacity: 0.2; stroke: #0173b2; stroke-opacity: 0.6; stroke-width: 0.75"/>
    <path d="M 110.829473 112.458046 
C 111.359879 112.458046 111.868633 112.247313 112.243687 111.872259 
C 112.61874 111.497206 112.829473 110.988452 112.829473 110.458046 
C 112.829473 109.92764 112.61874 109.418886 112.243687 109.043832 
C 111.868633 108.668779 111.359879 108.458046 110.829473 108.458046 
C 110.299067 108.458046 109.790313 108.668779 109.41526 109.043832 
C 109.040206 109.418886 108.829473 109.92764 108.829473 110.458046 
C 108.829473 110.988452 109.040206 111.497206 109.41526 111.872259 
C 109.790313 112.247313 110.299067 112.458046 110.829473 112.458046 
z
" clip-path="url(#pfcc139abd4)" style="fill: #de8f05; fill-opacity: 0.2; stroke: #de8f05; stroke-opacity: 0.6; stroke-width: 0.75"/>
    <path d="M 112.918333 101.333377 
C 113.448739 101.333377 113.957492 101.122644 114.332546 100.74759 
C 114.7076 100.372536 114.918333 99.863783 114.918333 99.333377 
C 114.918333 98.80297 114.7076 98.294217 114.332546 97.919163 
C 113.957492 97.544109 113.448739 97.333377 112.918333 97.333377 
C 112.387926 97.333377 111.879173 97.544109 111.504119 97.919163 
C 111.129065 98.294217 110.918333 98.80297 110.918333 99.333377 
C 110.918333 99.863783 111.129065 100.372536 111.504119 100.74759 
C 111.879173 101.122644 112.387926 101.333377 112.918333 101.333377 
z
" clip-path="url(#pfcc139abd4)" style="fill: #de8f05; fill-opacity: 0.2; stroke: #de8f05; stroke-opacity: 0.6; stroke-width: 0.75"/>
    <path d="M 111.09424 85.152039 
C 111.624646 85.152039 112.133399 84.941307 112.508453 84.566253 
C 112.883507 84.191199 113.09424 83.682446 113.09424 83.152039 
C 113.09424 82.621633 112.883507 82.11288 112.508453 81.737826 
C 112.133399 81.362772 111.624646 81.152039 111.09424 81.152039 
C 110.563833 81.152039 110.05508 81.362772 109.680026 81.737826 
C 109.304972 82.11288 109.09424 82.621633 109.09424 83.152039 
C 109.09424 83.682446 109.304972 84.191199 109.680026 84.566253 
C 110.05508 84.941307 110.563833 85.152039 111.09424 85.152039 
z
" clip-path="url(#pfcc139abd4)" style="fill: #de8f05; fill-opacity: 0.2; stroke: #de8f05; stroke-opacity: 0.6; stroke-width: 0.75"/>
    <path d="M 110.785411 30.877138 
C 111.315817 30.877138 111.82457 30.666405 112.199624 30.291351 
C 112.574678 29.916298 112.785411 29.407544 112.785411 28.877138 
C 112.785411 28.346732 112.574678 27.837978 112.199624 27.462924 
C 111.82457 27.08787 111.315817 26.877138 110.785411 26.877138 
C 110.255004 26.877138 109.746251 27.08787 109.371197 27.462924 
C 108.996143 27.837978 108.785411 28.346732 108.785411 28.877138 
C 108.785411 29.407544 108.996143 29.916298 109.371197 30.291351 
C 109.746251 30.666405 110.255004 30.877138 110.785411 30.877138 
z
" clip-path="url(#pfcc139abd4)" style="fill: #de8f05; fill-opacity: 0.2; stroke: #de8f05; stroke-opacity: 0.6; stroke-width: 0.75"/>
    <path d="M 112.75296 69.81348 
C 113.283366 69.81348 113.79212 69.602748 114.167174 69.227694 
C 114.542227 68.85264 114.75296 68.343887 114.75296 67.81348 
C 114.75296 67.283074 114.542227 66.774321 114.167174 66.399267 
C 113.79212 66.024213 113.283366 65.81348 112.75296 65.81348 
C 112.222554 65.81348 111.7138 66.024213 111.338747 66.399267 
C 110.963693 66.774321 110.75296 67.283074 110.75296 67.81348 
C 110.75296 68.343887 110.963693 68.85264 111.338747 69.227694 
C 111.7138 69.602748 112.222554 69.81348 112.75296 69.81348 
z
" clip-path="url(#pfcc139abd4)" style="fill: #de8f05; fill-opacity: 0.2; stroke: #de8f05; stroke-opacity: 0.6; stroke-width: 0.75"/>
    <path d="M 108.471885 87.680373 
C 109.002291 87.680373 109.511045 87.469641 109.886098 87.094587 
C 110.261152 86.719533 110.471885 86.21078 110.471885 85.680373 
C 110.471885 85.149967 110.261152 84.641214 109.886098 84.26616 
C 109.511045 83.891106 109.002291 83.680373 108.471885 83.680373 
C 107.941479 83.680373 107.432725 83.891106 107.057671 84.26616 
C 106.682617 84.641214 106.471885 85.149967 106.471885 85.680373 
C 106.471885 86.21078 106.682617 86.719533 107.057671 87.094587 
C 107.432725 87.469641 107.941479 87.680373 108.471885 87.680373 
z
" clip-path="url(#pfcc139abd4)" style="fill: #de8f05; fill-opacity: 0.2; stroke: #de8f05; stroke-opacity: 0.6; stroke-width: 0.75"/>
   </g>
   <g id="PathCollection_2">
    <path d="M 62.738234 115.649269 
C 63.533844 115.649269 64.296974 115.33317 64.859555 114.770589 
C 65.422135 114.208008 65.738234 113.444878 65.738234 112.649269 
C 65.738234 111.853659 65.422135 111.090529 64.859555 110.527948 
C 64.296974 109.965368 63.533844 109.649269 62.738234 109.649269 
C 61.942625 109.649269 61.179495 109.965368 60.616914 110.527948 
C 60.054333 111.090529 59.738234 111.853659 59.738234 112.649269 
C 59.738234 113.444878 60.054333 114.208008 60.616914 114.770589 
C 61.179495 115.33317 61.942625 115.649269 62.738234 115.649269 
z
" clip-path="url(#pfcc139abd4)" style="fill: #0173b2; stroke: #0173b2; stroke-width: 0.5"/>
    <path d="M 102.172883 82.219076 
C 102.968492 82.219076 103.731622 81.902977 104.294203 81.340396 
C 104.856784 80.777815 105.172883 80.014685 105.172883 79.219076 
C 105.172883 78.423466 104.856784 77.660336 104.294203 77.097755 
C 103.731622 76.535175 102.968492 76.219076 102.172883 76.219076 
C 101.377274 76.219076 100.614143 76.535175 100.051562 77.097755 
C 99.488982 77.660336 99.172883 78.423466 99.172883 79.219076 
C 99.172883 80.014685 99.488982 80.777815 100.051562 81.340396 
C 100.614143 81.902977 101.377274 82.219076 102.172883 82.219076 
z
" clip-path="url(#pfcc139abd4)" style="fill: #de8f05; stroke: #de8f05; stroke-width: 0.5"/>
   </g>
   <g id="LineCollection_1">
    <path d="M 62.738234 157.014049 
L 62.738234 68.284488 
" clip-path="url(#pfcc139abd4)" style="fill: none; stroke: #0173b2; stroke-width: 1.5; stroke-linecap: square"/>
    <path d="M 102.172883 107.861957 
L 102.172883 50.576194 
" clip-path="url(#pfcc139abd4)" style="fill: none; stroke: #de8f05; stroke-width: 1.5; stroke-linecap: square"/>
   </g>
   <g id="patch_3">
    <path d="M 46.964375 177.720156 
L 46.964375 21.789375 
" style="fill: none; stroke: #ffffff; stroke-width: 1.25; stroke-linejoin: miter; stroke-linecap: square"/>
   </g>
   <g id="patch_4">
    <path d="M 125.833672 177.720156 
L 125.833672 21.789375 
" style="fill: none; stroke: #ffffff; stroke-width: 1.25; stroke-linejoin: miter; stroke-linecap: square"/>
   </g>
   <g id="patch_5">
    <path d="M 46.964375 177.720156 
L 125.833672 177.720156 
" style="fill: none; stroke: #ffffff; stroke-width: 1.25; stroke-linejoin: miter; stroke-linecap: square"/>
   </g>
   <g id="patch_6">
    <path d="M 46.964375 21.789375 
L 125.833672 21.789375 
" style="fill: none; stroke: #ffffff; stroke-width: 1.25; stroke-linejoin: miter; stroke-linecap: square"/>
   </g>
   <g id="text_8">
    <!-- T3 -->
    <g style="fill: #262626" transform="translate(79.397773 15.789375) scale(0.12 -0.12)">
     <defs>
      <path id="ArialMT-54" d="M 1659 0 
L 1659 4041 
L 150 4041 
L 150 4581 
L 3781 4581 
L 3781 4041 
L 2266 4041 
L 2266 0 
L 1659 0 
z
" transform="scale(0.015625)"/>
      <path id="ArialMT-33" d="M 269 1209 
L 831 1284 
Q 928 806 1161 595 
Q 1394 384 1728 384 
Q 2125 384 2398 659 
Q 2672 934 2672 1341 
Q 2672 1728 2419 1979 
Q 2166 2231 1775 2231 
Q 1616 2231 1378 2169 
L 1441 2663 
Q 1497 2656 1531 2656 
Q 1891 2656 2178 2843 
Q 2466 3031 2466 3422 
Q 2466 3731 2256 3934 
Q 2047 4138 1716 4138 
Q 1388 4138 1169 3931 
Q 950 3725 888 3313 
L 325 3413 
Q 428 3978 793 4289 
Q 1159 4600 1703 4600 
Q 2078 4600 2393 4439 
Q 2709 4278 2876 4000 
Q 3044 3722 3044 3409 
Q 3044 3113 2884 2869 
Q 2725 2625 2413 2481 
Q 2819 2388 3044 2092 
Q 3269 1797 3269 1353 
Q 3269 753 2831 336 
Q 2394 -81 1725 -81 
Q 1122 -81 723 278 
Q 325 638 269 1209 
z
" transform="scale(0.015625)"/>
     </defs>
     <use xlink:href="#ArialMT-54"/>
     <use xlink:href="#ArialMT-33" x="61.083984"/>
    </g>
   </g>
  </g>
  <g id="axes_2">
   <g id="patch_7">
    <path d="M 154.410703 177.720156 
L 233.28 177.720156 
L 233.28 21.789375 
L 154.410703 21.789375 
z
" style="fill: #eaeaf2"/>
   </g>
   <g id="matplotlib.axis_3">
    <g id="xtick_3">
     <g id="text_9">
      <!-- FeS -->
      <g style="fill: #262626" transform="translate(164.041543 195.09375) scale(0.11 -0.11)">
       <use xlink:href="#ArialMT-46"/>
       <use xlink:href="#ArialMT-65" x="61.083984"/>
       <use xlink:href="#ArialMT-53" x="116.699219"/>
      </g>
     </g>
    </g>
    <g id="xtick_4">
     <g id="text_10">
      <!-- FeD -->
      <g style="fill: #262626" transform="translate(203.172832 195.09375) scale(0.11 -0.11)">
       <use xlink:href="#ArialMT-46"/>
       <use xlink:href="#ArialMT-65" x="61.083984"/>
       <use xlink:href="#ArialMT-44" x="116.699219"/>
      </g>
     </g>
    </g>
   </g>
   <g id="matplotlib.axis_4">
    <g id="ytick_5">
     <g id="line2d_5">
      <path d="M 154.410703 174.946602 
L 233.28 174.946602 
" clip-path="url(#pff47b7ae41)" style="fill: none; stroke: #ffffff; stroke-linecap: round"/>
     </g>
     <g id="text_11">
      <!-- 1 -->
      <g style="fill: #262626" transform="translate(138.793672 178.883399) scale(0.11 -0.11)">
       <use xlink:href="#ArialMT-31"/>
      </g>
     </g>
    </g>
    <g id="ytick_6">
     <g id="line2d_6">
      <path d="M 154.410703 146.83199 
L 233.28 146.83199 
" clip-path="url(#pff47b7ae41)" style="fill: none; stroke: #ffffff; stroke-linecap: round"/>
     </g>
     <g id="text_12">
      <!-- 2 -->
      <g style="fill: #262626" transform="translate(138.793672 150.768787) scale(0.11 -0.11)">
       <use xlink:href="#ArialMT-32"/>
      </g>
     </g>
    </g>
    <g id="ytick_7">
     <g id="line2d_7">
      <path d="M 154.410703 118.717379 
L 233.28 118.717379 
" clip-path="url(#pff47b7ae41)" style="fill: none; stroke: #ffffff; stroke-linecap: round"/>
     </g>
     <g id="text_13">
      <!-- 3 -->
      <g style="fill: #262626" transform="translate(138.793672 122.654176) scale(0.11 -0.11)">
       <use xlink:href="#ArialMT-33"/>
      </g>
     </g>
    </g>
    <g id="ytick_8">
     <g id="line2d_8">
      <path d="M 154.410703 90.602767 
L 233.28 90.602767 
" clip-path="url(#pff47b7ae41)" style="fill: none; stroke: #ffffff; stroke-linecap: round"/>
     </g>
     <g id="text_14">
      <!-- 4 -->
      <g style="fill: #262626" transform="translate(138.793672 94.539564) scale(0.11 -0.11)">
       <defs>
        <path id="ArialMT-34" d="M 2069 0 
L 2069 1097 
L 81 1097 
L 81 1613 
L 2172 4581 
L 2631 4581 
L 2631 1613 
L 3250 1613 
L 3250 1097 
L 2631 1097 
L 2631 0 
L 2069 0 
z
M 2069 1613 
L 2069 3678 
L 634 1613 
L 2069 1613 
z
" transform="scale(0.015625)"/>
       </defs>
       <use xlink:href="#ArialMT-34"/>
      </g>
     </g>
    </g>
    <g id="ytick_9">
     <g id="line2d_9">
      <path d="M 154.410703 62.488156 
L 233.28 62.488156 
" clip-path="url(#pff47b7ae41)" style="fill: none; stroke: #ffffff; stroke-linecap: round"/>
     </g>
     <g id="text_15">
      <!-- 5 -->
      <g style="fill: #262626" transform="translate(138.793672 66.424953) scale(0.11 -0.11)">
       <defs>
        <path id="ArialMT-35" d="M 266 1200 
L 856 1250 
Q 922 819 1161 601 
Q 1400 384 1738 384 
Q 2144 384 2425 690 
Q 2706 997 2706 1503 
Q 2706 1984 2436 2262 
Q 2166 2541 1728 2541 
Q 1456 2541 1237 2417 
Q 1019 2294 894 2097 
L 366 2166 
L 809 4519 
L 3088 4519 
L 3088 3981 
L 1259 3981 
L 1013 2750 
Q 1425 3038 1878 3038 
Q 2478 3038 2890 2622 
Q 3303 2206 3303 1553 
Q 3303 931 2941 478 
Q 2500 -78 1738 -78 
Q 1113 -78 717 272 
Q 322 622 266 1200 
z
" transform="scale(0.015625)"/>
       </defs>
       <use xlink:href="#ArialMT-35"/>
      </g>
     </g>
    </g>
    <g id="ytick_10">
     <g id="line2d_10">
      <path d="M 154.410703 34.373544 
L 233.28 34.373544 
" clip-path="url(#pff47b7ae41)" style="fill: none; stroke: #ffffff; stroke-linecap: round"/>
     </g>
     <g id="text_16">
      <!-- 6 -->
      <g style="fill: #262626" transform="translate(138.793672 38.310341) scale(0.11 -0.11)">
       <defs>
        <path id="ArialMT-36" d="M 3184 3459 
L 2625 3416 
Q 2550 3747 2413 3897 
Q 2184 4138 1850 4138 
Q 1581 4138 1378 3988 
Q 1113 3794 959 3422 
Q 806 3050 800 2363 
Q 1003 2672 1297 2822 
Q 1591 2972 1913 2972 
Q 2475 2972 2870 2558 
Q 3266 2144 3266 1488 
Q 3266 1056 3080 686 
Q 2894 316 2569 119 
Q 2244 -78 1831 -78 
Q 1128 -78 684 439 
Q 241 956 241 2144 
Q 241 3472 731 4075 
Q 1159 4600 1884 4600 
Q 2425 4600 2770 4297 
Q 3116 3994 3184 3459 
z
M 888 1484 
Q 888 1194 1011 928 
Q 1134 663 1356 523 
Q 1578 384 1822 384 
Q 2178 384 2434 671 
Q 2691 959 2691 1453 
Q 2691 1928 2437 2201 
Q 2184 2475 1800 2475 
Q 1419 2475 1153 2201 
Q 888 1928 888 1484 
z
" transform="scale(0.015625)"/>
       </defs>
       <use xlink:href="#ArialMT-36"/>
      </g>
     </g>
    </g>
   </g>
   <g id="PathCollection_3">
    <path d="M 178.480483 83.029742 
C 179.010889 83.029742 179.519643 82.81901 179.894697 82.443956 
C 180.26975 82.068902 180.480483 81.560148 180.480483 81.029742 
C 180.480483 80.499336 180.26975 79.990582 179.894697 79.615529 
C 179.519643 79.240475 179.010889 79.029742 178.480483 79.029742 
C 177.950077 79.029742 177.441323 79.240475 177.066269 79.615529 
C 176.691216 79.990582 176.480483 80.499336 176.480483 81.029742 
C 176.480483 81.560148 176.691216 82.068902 177.066269 82.443956 
C 177.441323 82.81901 177.950077 83.029742 178.480483 83.029742 
z
" clip-path="url(#pff47b7ae41)" style="fill: #0173b2; fill-opacity: 0.2; stroke: #0173b2; stroke-opacity: 0.6; stroke-width: 0.75"/>
    <path d="M 179.919289 76.183834 
C 180.449695 76.183834 180.958449 75.973102 181.333503 75.598048 
C 181.708557 75.222994 181.919289 74.71424 181.919289 74.183834 
C 181.919289 73.653428 181.708557 73.144674 181.333503 72.769621 
C 180.958449 72.394567 180.449695 72.183834 179.919289 72.183834 
C 179.388883 72.183834 178.880129 72.394567 178.505076 72.769621 
C 178.130022 73.144674 177.919289 73.653428 177.919289 74.183834 
C 177.919289 74.71424 178.130022 75.222994 178.505076 75.598048 
C 178.880129 75.973102 179.388883 76.183834 179.919289 76.183834 
z
" clip-path="url(#pff47b7ae41)" style="fill: #0173b2; fill-opacity: 0.2; stroke: #0173b2; stroke-opacity: 0.6; stroke-width: 0.75"/>
    <path d="M 177.231795 137.417458 
C 177.762201 137.417458 178.270955 137.206725 178.646009 136.831672 
C 179.021063 136.456618 179.231795 135.947864 179.231795 135.417458 
C 179.231795 134.887052 179.021063 134.378298 178.646009 134.003245 
C 178.270955 133.628191 177.762201 133.417458 177.231795 133.417458 
C 176.701389 133.417458 176.192635 133.628191 175.817582 134.003245 
C 175.442528 134.378298 175.231795 134.887052 175.231795 135.417458 
C 175.231795 135.947864 175.442528 136.456618 175.817582 136.831672 
C 176.192635 137.206725 176.701389 137.417458 177.231795 137.417458 
z
" clip-path="url(#pff47b7ae41)" style="fill: #0173b2; fill-opacity: 0.2; stroke: #0173b2; stroke-opacity: 0.6; stroke-width: 0.75"/>
    <path d="M 181.183327 101.810303 
C 181.713733 101.810303 182.222486 101.59957 182.59754 101.224516 
C 182.972594 100.849462 183.183327 100.340709 183.183327 99.810303 
C 183.183327 99.279896 182.972594 98.771143 182.59754 98.396089 
C 182.222486 98.021035 181.713733 97.810303 181.183327 97.810303 
C 180.65292 97.810303 180.144167 98.021035 179.769113 98.396089 
C 179.394059 98.771143 179.183327 99.279896 179.183327 99.810303 
C 179.183327 100.340709 179.394059 100.849462 179.769113 101.224516 
C 180.144167 101.59957 180.65292 101.810303 181.183327 101.810303 
z
" clip-path="url(#pff47b7ae41)" style="fill: #0173b2; fill-opacity: 0.2; stroke: #0173b2; stroke-opacity: 0.6; stroke-width: 0.75"/>
    <path d="M 179.681495 43.303796 
C 180.211901 43.303796 180.720654 43.093063 181.095708 42.71801 
C 181.470762 42.342956 181.681495 41.834202 181.681495 41.303796 
C 181.681495 40.77339 181.470762 40.264636 181.095708 39.889583 
C 180.720654 39.514529 180.211901 39.303796 179.681495 39.303796 
C 179.151088 39.303796 178.642335 39.514529 178.267281 39.889583 
C 177.892227 40.264636 177.681495 40.77339 177.681495 41.303796 
C 177.681495 41.834202 177.892227 42.342956 178.267281 42.71801 
C 178.642335 43.093063 179.151088 43.303796 179.681495 43.303796 
z
" clip-path="url(#pff47b7ae41)" style="fill: #0173b2; fill-opacity: 0.2; stroke: #0173b2; stroke-opacity: 0.6; stroke-width: 0.75"/>
    <path d="M 178.608261 30.877138 
C 179.138667 30.877138 179.647421 30.666405 180.022474 30.291351 
C 180.397528 29.916298 180.608261 29.407544 180.608261 28.877138 
C 180.608261 28.346732 180.397528 27.837978 180.022474 27.462924 
C 179.647421 27.08787 179.138667 26.877138 178.608261 26.877138 
C 178.077855 26.877138 177.569101 27.08787 177.194047 27.462924 
C 176.818994 27.837978 176.608261 28.346732 176.608261 28.877138 
C 176.608261 29.407544 176.818994 29.916298 177.194047 30.291351 
C 177.569101 30.666405 178.077855 30.877138 178.608261 30.877138 
z
" clip-path="url(#pff47b7ae41)" style="fill: #0173b2; fill-opacity: 0.2; stroke: #0173b2; stroke-opacity: 0.6; stroke-width: 0.75"/>
    <path d="M 214.727784 167.584436 
C 215.25819 167.584436 215.766943 167.373704 216.141997 166.99865 
C 216.517051 166.623596 216.727784 166.114842 216.727784 165.584436 
C 216.727784 165.05403 216.517051 164.545277 216.141997 164.170223 
C 215.766943 163.795169 215.25819 163.584436 214.727784 163.584436 
C 214.197377 163.584436 213.688624 163.795169 213.31357 164.170223 
C 212.938516 164.545277 212.727784 165.05403 212.727784 165.584436 
C 212.727784 166.114842 212.938516 166.623596 213.31357 166.99865 
C 213.688624 167.373704 214.197377 167.584436 214.727784 167.584436 
z
" clip-path="url(#pff47b7ae41)" style="fill: #de8f05; fill-opacity: 0.2; stroke: #de8f05; stroke-opacity: 0.6; stroke-width: 0.75"/>
    <path d="M 219.44921 158.503417 
C 219.979616 158.503417 220.48837 158.292684 220.863424 157.91763 
C 221.238478 157.542576 221.44921 157.033823 221.44921 156.503417 
C 221.44921 155.973011 221.238478 155.464257 220.863424 155.089203 
C 220.48837 154.714149 219.979616 154.503417 219.44921 154.503417 
C 218.918804 154.503417 218.41005 154.714149 218.034997 155.089203 
C 217.659943 155.464257 217.44921 155.973011 217.44921 156.503417 
C 217.44921 157.033823 217.659943 157.542576 218.034997 157.91763 
C 218.41005 158.292684 218.918804 158.503417 219.44921 158.503417 
z
" clip-path="url(#pff47b7ae41)" style="fill: #de8f05; fill-opacity: 0.2; stroke: #de8f05; stroke-opacity: 0.6; stroke-width: 0.75"/>
    <path d="M 214.843492 155.734128 
C 215.373898 155.734128 215.882651 155.523395 216.257705 155.148341 
C 216.632759 154.773287 216.843492 154.264534 216.843492 153.734128 
C 216.843492 153.203721 216.632759 152.694968 216.257705 152.319914 
C 215.882651 151.94486 215.373898 151.734128 214.843492 151.734128 
C 214.313085 151.734128 213.804332 151.94486 213.429278 152.319914 
C 213.054224 152.694968 212.843492 153.203721 212.843492 153.734128 
C 212.843492 154.264534 213.054224 154.773287 213.429278 155.148341 
C 213.804332 155.523395 214.313085 155.734128 214.843492 155.734128 
z
" clip-path="url(#pff47b7ae41)" style="fill: #de8f05; fill-opacity: 0.2; stroke: #de8f05; stroke-opacity: 0.6; stroke-width: 0.75"/>
    <path d="M 215.848576 122.488599 
C 216.378983 122.488599 216.887736 122.277867 217.26279 121.902813 
C 217.637844 121.527759 217.848576 121.019006 217.848576 120.488599 
C 217.848576 119.958193 217.637844 119.44944 217.26279 119.074386 
C 216.887736 118.699332 216.378983 118.488599 215.848576 118.488599 
C 215.31817 118.488599 214.809417 118.699332 214.434363 119.074386 
C 214.059309 119.44944 213.848576 119.958193 213.848576 120.488599 
C 213.848576 121.019006 214.059309 121.527759 214.434363 121.902813 
C 214.809417 122.277867 215.31817 122.488599 215.848576 122.488599 
z
" clip-path="url(#pff47b7ae41)" style="fill: #de8f05; fill-opacity: 0.2; stroke: #de8f05; stroke-opacity: 0.6; stroke-width: 0.75"/>
    <path d="M 217.49754 138.232782 
C 218.027946 138.232782 218.536699 138.022049 218.911753 137.646995 
C 219.286807 137.271942 219.49754 136.763188 219.49754 136.232782 
C 219.49754 135.702376 219.286807 135.193622 218.911753 134.818568 
C 218.536699 134.443514 218.027946 134.232782 217.49754 134.232782 
C 216.967133 134.232782 216.45838 134.443514 216.083326 134.818568 
C 215.708272 135.193622 215.49754 135.702376 215.49754 136.232782 
C 215.49754 136.763188 215.708272 137.271942 216.083326 137.646995 
C 216.45838 138.022049 216.967133 138.232782 217.49754 138.232782 
z
" clip-path="url(#pff47b7ae41)" style="fill: #de8f05; fill-opacity: 0.2; stroke: #de8f05; stroke-opacity: 0.6; stroke-width: 0.75"/>
    <path d="M 214.510097 63.363571 
C 215.040504 63.363571 215.549257 63.152839 215.924311 62.777785 
C 216.299365 62.402731 216.510097 61.893978 216.510097 61.363571 
C 216.510097 60.833165 216.299365 60.324412 215.924311 59.949358 
C 215.549257 59.574304 215.040504 59.363571 214.510097 59.363571 
C 213.979691 59.363571 213.470938 59.574304 213.095884 59.949358 
C 212.72083 60.324412 212.510097 60.833165 212.510097 61.363571 
C 212.510097 61.893978 212.72083 62.402731 213.095884 62.777785 
C 213.470938 63.152839 213.979691 63.363571 214.510097 63.363571 
z
" clip-path="url(#pff47b7ae41)" style="fill: #de8f05; fill-opacity: 0.2; stroke: #de8f05; stroke-opacity: 0.6; stroke-width: 0.75"/>
   </g>
   <g id="PathCollection_4">
    <path d="M 170.184562 79.770378 
C 170.980172 79.770378 171.743302 79.45428 172.305883 78.891699 
C 172.868464 78.329118 173.184562 77.565988 173.184562 76.770378 
C 173.184562 75.974769 172.868464 75.211639 172.305883 74.649058 
C 171.743302 74.086477 170.980172 73.770378 170.184562 73.770378 
C 169.388953 73.770378 168.625823 74.086477 168.063242 74.649058 
C 167.500661 75.211639 167.184562 75.974769 167.184562 76.770378 
C 167.184562 77.565988 167.500661 78.329118 168.063242 78.891699 
C 168.625823 79.45428 169.388953 79.770378 170.184562 79.770378 
z
" clip-path="url(#pff47b7ae41)" style="fill: #0173b2; stroke: #0173b2; stroke-width: 0.5"/>
    <path d="M 209.619211 135.317822 
C 210.41482 135.317822 211.177951 135.001723 211.740531 134.439143 
C 212.303112 133.876562 212.619211 133.113431 212.619211 132.317822 
C 212.619211 131.522213 212.303112 130.759083 211.740531 130.196502 
C 211.177951 129.633921 210.41482 129.317822 209.619211 129.317822 
C 208.823602 129.317822 208.060471 129.633921 207.497891 130.196502 
C 206.93531 130.759083 206.619211 131.522213 206.619211 132.317822 
C 206.619211 133.113431 206.93531 133.876562 207.497891 134.439143 
C 208.060471 135.001723 208.823602 135.317822 209.619211 135.317822 
z
" clip-path="url(#pff47b7ae41)" style="fill: #de8f05; stroke: #de8f05; stroke-width: 0.5"/>
   </g>
   <g id="LineCollection_2">
    <path d="M 170.184562 115.620839 
L 170.184562 37.919918 
" clip-path="url(#pff47b7ae41)" style="fill: none; stroke: #0173b2; stroke-width: 1.5; stroke-linecap: square"/>
    <path d="M 209.619211 170.632393 
L 209.619211 94.003251 
" clip-path="url(#pff47b7ae41)" style="fill: none; stroke: #de8f05; stroke-width: 1.5; stroke-linecap: square"/>
   </g>
   <g id="patch_8">
    <path d="M 154.410703 177.720156 
L 154.410703 21.789375 
" style="fill: none; stroke: #ffffff; stroke-width: 1.25; stroke-linejoin: miter; stroke-linecap: square"/>
   </g>
   <g id="patch_9">
    <path d="M 233.28 177.720156 
L 233.28 21.789375 
" style="fill: none; stroke: #ffffff; stroke-width: 1.25; stroke-linejoin: miter; stroke-linecap: square"/>
   </g>
   <g id="patch_10">
    <path d="M 154.410703 177.720156 
L 233.28 177.720156 
" style="fill: none; stroke: #ffffff; stroke-width: 1.25; stroke-linejoin: miter; stroke-linecap: square"/>
   </g>
   <g id="patch_11">
    <path d="M 154.410703 21.789375 
L 233.28 21.789375 
" style="fill: none; stroke: #ffffff; stroke-width: 1.25; stroke-linejoin: miter; stroke-linecap: square"/>
   </g>
   <g id="text_17">
    <!-- T4 -->
    <g style="fill: #262626" transform="translate(186.844102 15.789375) scale(0.12 -0.12)">
     <use xlink:href="#ArialMT-54"/>
     <use xlink:href="#ArialMT-34" x="61.083984"/>
    </g>
   </g>
  </g>
  <g id="legend_1">
   <g id="patch_12">
    <path d="M 254.66 111.127031 
L 310.639688 111.127031 
Q 312.839688 111.127031 312.839688 108.927031 
L 312.839688 62.432969 
Q 312.839688 60.232969 310.639688 60.232969 
L 254.66 60.232969 
Q 252.46 60.232969 252.46 62.432969 
L 252.46 108.927031 
Q 252.46 111.127031 254.66 111.127031 
z
" style="fill: #eaeaf2; opacity: 0.8; stroke: #cccccc; stroke-linejoin: miter"/>
   </g>
   <g id="text_18">
    <!-- Tx -->
    <g style="fill: #262626" transform="translate(275.985156 73.222344) scale(0.12 -0.12)">
     <defs>
      <path id="ArialMT-78" d="M 47 0 
L 1259 1725 
L 138 3319 
L 841 3319 
L 1350 2541 
Q 1494 2319 1581 2169 
Q 1719 2375 1834 2534 
L 2394 3319 
L 3066 3319 
L 1919 1756 
L 3153 0 
L 2463 0 
L 1781 1031 
L 1600 1309 
L 728 0 
L 47 0 
z
" transform="scale(0.015625)"/>
     </defs>
     <use xlink:href="#ArialMT-54"/>
     <use xlink:href="#ArialMT-78" x="61.083984"/>
    </g>
   </g>
   <g id="PathCollection_5">
    <defs>
     <path id="m7ab12015e1" d="M 0 2 
C 0.530406 2 1.03916 1.789267 1.414214 1.414214 
C 1.789267 1.03916 2 0.530406 2 0 
C 2 -0.530406 1.789267 -1.03916 1.414214 -1.414214 
C 1.03916 -1.789267 0.530406 -2 0 -2 
C -0.530406 -2 -1.03916 -1.789267 -1.414214 -1.414214 
C -1.789267 -1.03916 -2 -0.530406 -2 0 
C -2 0.530406 -1.789267 1.03916 -1.414214 1.414214 
C -1.03916 1.789267 -0.530406 2 0 2 
z
" style="stroke: #0173b2; stroke-opacity: 0.6; stroke-width: 0.75"/>
    </defs>
    <g>
     <use xlink:href="#m7ab12015e1" x="267.86" y="86.093437" style="fill: #0173b2; fill-opacity: 0.2; stroke: #0173b2; stroke-opacity: 0.6; stroke-width: 0.75"/>
    </g>
   </g>
   <g id="PathCollection_6">
    <defs>
     <path id="m41922800a3" d="M 0 3 
C 0.795609 3 1.55874 2.683901 2.12132 2.12132 
C 2.683901 1.55874 3 0.795609 3 0 
C 3 -0.795609 2.683901 -1.55874 2.12132 -2.12132 
C 1.55874 -2.683901 0.795609 -3 0 -3 
C -0.795609 -3 -1.55874 -2.683901 -2.12132 -2.12132 
C -2.683901 -1.55874 -3 -0.795609 -3 0 
C -3 0.795609 -2.683901 1.55874 -2.12132 2.12132 
C -1.55874 2.683901 -0.795609 3 0 3 
z
" style="stroke: #0173b2; stroke-width: 0.5"/>
    </defs>
    <g>
     <use xlink:href="#m41922800a3" x="267.86" y="86.093437" style="fill: #0173b2; stroke: #0173b2; stroke-width: 0.5"/>
    </g>
   </g>
   <g id="text_19">
    <!-- FeS -->
    <g style="fill: #262626" transform="translate(287.66 88.980937) scale(0.11 -0.11)">
     <use xlink:href="#ArialMT-46"/>
     <use xlink:href="#ArialMT-65" x="61.083984"/>
     <use xlink:href="#ArialMT-53" x="116.699219"/>
    </g>
   </g>
   <g id="PathCollection_7">
    <defs>
     <path id="m8d69b8d3aa" d="M 0 2 
C 0.530406 2 1.03916 1.789267 1.414214 1.414214 
C 1.789267 1.03916 2 0.530406 2 0 
C 2 -0.530406 1.789267 -1.03916 1.414214 -1.414214 
C 1.03916 -1.789267 0.530406 -2 0 -2 
C -0.530406 -2 -1.03916 -1.789267 -1.414214 -1.414214 
C -1.789267 -1.03916 -2 -0.530406 -2 0 
C -2 0.530406 -1.789267 1.03916 -1.414214 1.414214 
C -1.03916 1.789267 -0.530406 2 0 2 
z
" style="stroke: #de8f05; stroke-opacity: 0.6; stroke-width: 0.75"/>
    </defs>
    <g>
     <use xlink:href="#m8d69b8d3aa" x="267.86" y="101.653281" style="fill: #de8f05; fill-opacity: 0.2; stroke: #de8f05; stroke-opacity: 0.6; stroke-width: 0.75"/>
    </g>
   </g>
   <g id="PathCollection_8">
    <defs>
     <path id="me8f2fc4105" d="M 0 3 
C 0.795609 3 1.55874 2.683901 2.12132 2.12132 
C 2.683901 1.55874 3 0.795609 3 0 
C 3 -0.795609 2.683901 -1.55874 2.12132 -2.12132 
C 1.55874 -2.683901 0.795609 -3 0 -3 
C -0.795609 -3 -1.55874 -2.683901 -2.12132 -2.12132 
C -2.683901 -1.55874 -3 -0.795609 -3 0 
C -3 0.795609 -2.683901 1.55874 -2.12132 2.12132 
C -1.55874 2.683901 -0.795609 3 0 3 
z
" style="stroke: #de8f05; stroke-width: 0.5"/>
    </defs>
    <g>
     <use xlink:href="#me8f2fc4105" x="267.86" y="101.653281" style="fill: #de8f05; stroke: #de8f05; stroke-width: 0.5"/>
    </g>
   </g>
   <g id="text_20">
    <!-- FeD -->
    <g style="fill: #262626" transform="translate(287.66 104.540781) scale(0.11 -0.11)">
     <use xlink:href="#ArialMT-46"/>
     <use xlink:href="#ArialMT-65" x="61.083984"/>
     <use xlink:href="#ArialMT-44" x="116.699219"/>
    </g>
   </g>
  </g>
 </g>
 <defs>
  <clipPath id="pfcc139abd4">
   <rect x="46.964375" y="21.789375" width="78.869297" height="155.930781"/>
  </clipPath>
  <clipPath id="pff47b7ae41">
   <rect x="154.410703" y="21.789375" width="78.869297" height="155.930781"/>
  </clipPath>
 </defs>
</svg>
