<?xml version="1.0" encoding="utf-8" standalone="no"?>
<!DOCTYPE svg PUBLIC "-//W3C//DTD SVG 1.1//EN"
  "http://www.w3.org/Graphics/SVG/1.1/DTD/svg11.dtd">
<svg xmlns:xlink="http://www.w3.org/1999/xlink" width="208.439688pt" height="204.48pt" viewBox="0 0 208.439688 204.48" xmlns="http://www.w3.org/2000/svg" version="1.1">
 <metadata>
  <rdf:RDF xmlns:dc="http://purl.org/dc/elements/1.1/" xmlns:cc="http://creativecommons.org/ns#" xmlns:rdf="http://www.w3.org/1999/02/22-rdf-syntax-ns#">
   <cc:Work>
    <dc:type rdf:resource="http://purl.org/dc/dcmitype/StillImage"/>
    <dc:date>2023-06-05T13:15:25.759576</dc:date>
    <dc:format>image/svg+xml</dc:format>
    <dc:creator>
     <cc:Agent>
      <dc:title>Matplotlib v3.6.2, https://matplotlib.org/</dc:title>
     </cc:Agent>
    </dc:creator>
   </cc:Work>
  </rdf:RDF>
 </metadata>
 <defs>
  <style type="text/css">*{stroke-linejoin: round; stroke-linecap: butt}</style>
 </defs>
 <g id="figure_1">
  <g id="patch_1">
   <path d="M 0 204.48 
L 208.439688 204.48 
L 208.439688 0 
L 0 0 
z
" style="fill: #ffffff"/>
  </g>
  <g id="axes_1">
   <g id="patch_2">
    <path d="M 47.25125 177.720156 
L 125.28 177.720156 
L 125.28 7.2 
L 47.25125 7.2 
z
" style="fill: #eaeaf2"/>
   </g>
   <g id="matplotlib.axis_1">
    <g id="xtick_1">
     <g id="text_1">
      <!-- FeS -->
      <g style="fill: #262626" transform="translate(56.671953 195.09375) scale(0.11 -0.11)">
       <defs>
        <path id="ArialMT-46" d="M 525 0 
L 525 4581 
L 3616 4581 
L 3616 4041 
L 1131 4041 
L 1131 2622 
L 3281 2622 
L 3281 2081 
L 1131 2081 
L 1131 0 
L 525 0 
z
" transform="scale(0.015625)"/>
        <path id="ArialMT-65" d="M 2694 1069 
L 3275 997 
Q 3138 488 2766 206 
Q 2394 -75 1816 -75 
Q 1088 -75 661 373 
Q 234 822 234 1631 
Q 234 2469 665 2931 
Q 1097 3394 1784 3394 
Q 2450 3394 2872 2941 
Q 3294 2488 3294 1666 
Q 3294 1616 3291 1516 
L 816 1516 
Q 847 969 1125 678 
Q 1403 388 1819 388 
Q 2128 388 2347 550 
Q 2566 713 2694 1069 
z
M 847 1978 
L 2700 1978 
Q 2663 2397 2488 2606 
Q 2219 2931 1791 2931 
Q 1403 2931 1139 2672 
Q 875 2413 847 1978 
z
" transform="scale(0.015625)"/>
        <path id="ArialMT-53" d="M 288 1472 
L 859 1522 
Q 900 1178 1048 958 
Q 1197 738 1509 602 
Q 1822 466 2213 466 
Q 2559 466 2825 569 
Q 3091 672 3220 851 
Q 3350 1031 3350 1244 
Q 3350 1459 3225 1620 
Q 3100 1781 2813 1891 
Q 2628 1963 1997 2114 
Q 1366 2266 1113 2400 
Q 784 2572 623 2826 
Q 463 3081 463 3397 
Q 463 3744 659 4045 
Q 856 4347 1234 4503 
Q 1613 4659 2075 4659 
Q 2584 4659 2973 4495 
Q 3363 4331 3572 4012 
Q 3781 3694 3797 3291 
L 3216 3247 
Q 3169 3681 2898 3903 
Q 2628 4125 2100 4125 
Q 1550 4125 1298 3923 
Q 1047 3722 1047 3438 
Q 1047 3191 1225 3031 
Q 1400 2872 2139 2705 
Q 2878 2538 3153 2413 
Q 3553 2228 3743 1945 
Q 3934 1663 3934 1294 
Q 3934 928 3725 604 
Q 3516 281 3123 101 
Q 2731 -78 2241 -78 
Q 1619 -78 1198 103 
Q 778 284 539 648 
Q 300 1013 288 1472 
z
" transform="scale(0.015625)"/>
       </defs>
       <use xlink:href="#ArialMT-46"/>
       <use xlink:href="#ArialMT-65" x="61.083984"/>
       <use xlink:href="#ArialMT-53" x="116.699219"/>
      </g>
     </g>
    </g>
    <g id="xtick_2">
     <g id="text_2">
      <!-- FeD -->
      <g style="fill: #262626" transform="translate(95.382969 195.09375) scale(0.11 -0.11)">
       <defs>
        <path id="ArialMT-44" d="M 494 0 
L 494 4581 
L 2072 4581 
Q 2606 4581 2888 4516 
Q 3281 4425 3559 4188 
Q 3922 3881 4101 3404 
Q 4281 2928 4281 2316 
Q 4281 1794 4159 1391 
Q 4038 988 3847 723 
Q 3656 459 3429 307 
Q 3203 156 2883 78 
Q 2563 0 2147 0 
L 494 0 
z
M 1100 541 
L 2078 541 
Q 2531 541 2789 625 
Q 3047 709 3200 863 
Q 3416 1078 3536 1442 
Q 3656 1806 3656 2325 
Q 3656 3044 3420 3430 
Q 3184 3816 2847 3947 
Q 2603 4041 2063 4041 
L 1100 4041 
L 1100 541 
z
" transform="scale(0.015625)"/>
       </defs>
       <use xlink:href="#ArialMT-46"/>
       <use xlink:href="#ArialMT-65" x="61.083984"/>
       <use xlink:href="#ArialMT-44" x="116.699219"/>
      </g>
     </g>
    </g>
   </g>
   <g id="matplotlib.axis_2">
    <g id="ytick_1">
     <g id="line2d_1">
      <path d="M 47.25125 162.795071 
L 125.28 162.795071 
" clip-path="url(#p4aab8440c6)" style="fill: none; stroke: #ffffff; stroke-linecap: round"/>
     </g>
     <g id="text_3">
      <!-- 1.0 -->
      <g style="fill: #262626" transform="translate(22.46125 166.731868) scale(0.11 -0.11)">
       <defs>
        <path id="ArialMT-31" d="M 2384 0 
L 1822 0 
L 1822 3584 
Q 1619 3391 1289 3197 
Q 959 3003 697 2906 
L 697 3450 
Q 1169 3672 1522 3987 
Q 1875 4303 2022 4600 
L 2384 4600 
L 2384 0 
z
" transform="scale(0.015625)"/>
        <path id="ArialMT-2e" d="M 581 0 
L 581 641 
L 1222 641 
L 1222 0 
L 581 0 
z
" transform="scale(0.015625)"/>
        <path id="ArialMT-30" d="M 266 2259 
Q 266 3072 433 3567 
Q 600 4063 929 4331 
Q 1259 4600 1759 4600 
Q 2128 4600 2406 4451 
Q 2684 4303 2865 4023 
Q 3047 3744 3150 3342 
Q 3253 2941 3253 2259 
Q 3253 1453 3087 958 
Q 2922 463 2592 192 
Q 2263 -78 1759 -78 
Q 1097 -78 719 397 
Q 266 969 266 2259 
z
M 844 2259 
Q 844 1131 1108 757 
Q 1372 384 1759 384 
Q 2147 384 2411 759 
Q 2675 1134 2675 2259 
Q 2675 3391 2411 3762 
Q 2147 4134 1753 4134 
Q 1366 4134 1134 3806 
Q 844 3388 844 2259 
z
" transform="scale(0.015625)"/>
       </defs>
       <use xlink:href="#ArialMT-31"/>
       <use xlink:href="#ArialMT-2e" x="55.615234"/>
       <use xlink:href="#ArialMT-30" x="83.398438"/>
      </g>
     </g>
    </g>
    <g id="ytick_2">
     <g id="line2d_2">
      <path d="M 47.25125 134.661074 
L 125.28 134.661074 
" clip-path="url(#p4aab8440c6)" style="fill: none; stroke: #ffffff; stroke-linecap: round"/>
     </g>
     <g id="text_4">
      <!-- 1.1 -->
      <g style="fill: #262626" transform="translate(22.46125 138.597871) scale(0.11 -0.11)">
       <use xlink:href="#ArialMT-31"/>
       <use xlink:href="#ArialMT-2e" x="55.615234"/>
       <use xlink:href="#ArialMT-31" x="83.398438"/>
      </g>
     </g>
    </g>
    <g id="ytick_3">
     <g id="line2d_3">
      <path d="M 47.25125 106.527077 
L 125.28 106.527077 
" clip-path="url(#p4aab8440c6)" style="fill: none; stroke: #ffffff; stroke-linecap: round"/>
     </g>
     <g id="text_5">
      <!-- 1.2 -->
      <g style="fill: #262626" transform="translate(22.46125 110.463874) scale(0.11 -0.11)">
       <defs>
        <path id="ArialMT-32" d="M 3222 541 
L 3222 0 
L 194 0 
Q 188 203 259 391 
Q 375 700 629 1000 
Q 884 1300 1366 1694 
Q 2113 2306 2375 2664 
Q 2638 3022 2638 3341 
Q 2638 3675 2398 3904 
Q 2159 4134 1775 4134 
Q 1369 4134 1125 3890 
Q 881 3647 878 3216 
L 300 3275 
Q 359 3922 746 4261 
Q 1134 4600 1788 4600 
Q 2447 4600 2831 4234 
Q 3216 3869 3216 3328 
Q 3216 3053 3103 2787 
Q 2991 2522 2730 2228 
Q 2469 1934 1863 1422 
Q 1356 997 1212 845 
Q 1069 694 975 541 
L 3222 541 
z
" transform="scale(0.015625)"/>
       </defs>
       <use xlink:href="#ArialMT-31"/>
       <use xlink:href="#ArialMT-2e" x="55.615234"/>
       <use xlink:href="#ArialMT-32" x="83.398438"/>
      </g>
     </g>
    </g>
    <g id="ytick_4">
     <g id="line2d_4">
      <path d="M 47.25125 78.39308 
L 125.28 78.39308 
" clip-path="url(#p4aab8440c6)" style="fill: none; stroke: #ffffff; stroke-linecap: round"/>
     </g>
     <g id="text_6">
      <!-- 1.3 -->
      <g style="fill: #262626" transform="translate(22.46125 82.329876) scale(0.11 -0.11)">
       <defs>
        <path id="ArialMT-33" d="M 269 1209 
L 831 1284 
Q 928 806 1161 595 
Q 1394 384 1728 384 
Q 2125 384 2398 659 
Q 2672 934 2672 1341 
Q 2672 1728 2419 1979 
Q 2166 2231 1775 2231 
Q 1616 2231 1378 2169 
L 1441 2663 
Q 1497 2656 1531 2656 
Q 1891 2656 2178 2843 
Q 2466 3031 2466 3422 
Q 2466 3731 2256 3934 
Q 2047 4138 1716 4138 
Q 1388 4138 1169 3931 
Q 950 3725 888 3313 
L 325 3413 
Q 428 3978 793 4289 
Q 1159 4600 1703 4600 
Q 2078 4600 2393 4439 
Q 2709 4278 2876 4000 
Q 3044 3722 3044 3409 
Q 3044 3113 2884 2869 
Q 2725 2625 2413 2481 
Q 2819 2388 3044 2092 
Q 3269 1797 3269 1353 
Q 3269 753 2831 336 
Q 2394 -81 1725 -81 
Q 1122 -81 723 278 
Q 325 638 269 1209 
z
" transform="scale(0.015625)"/>
       </defs>
       <use xlink:href="#ArialMT-31"/>
       <use xlink:href="#ArialMT-2e" x="55.615234"/>
       <use xlink:href="#ArialMT-33" x="83.398438"/>
      </g>
     </g>
    </g>
    <g id="ytick_5">
     <g id="line2d_5">
      <path d="M 47.25125 50.259083 
L 125.28 50.259083 
" clip-path="url(#p4aab8440c6)" style="fill: none; stroke: #ffffff; stroke-linecap: round"/>
     </g>
     <g id="text_7">
      <!-- 1.4 -->
      <g style="fill: #262626" transform="translate(22.46125 54.195879) scale(0.11 -0.11)">
       <defs>
        <path id="ArialMT-34" d="M 2069 0 
L 2069 1097 
L 81 1097 
L 81 1613 
L 2172 4581 
L 2631 4581 
L 2631 1613 
L 3250 1613 
L 3250 1097 
L 2631 1097 
L 2631 0 
L 2069 0 
z
M 2069 1613 
L 2069 3678 
L 634 1613 
L 2069 1613 
z
" transform="scale(0.015625)"/>
       </defs>
       <use xlink:href="#ArialMT-31"/>
       <use xlink:href="#ArialMT-2e" x="55.615234"/>
       <use xlink:href="#ArialMT-34" x="83.398438"/>
      </g>
     </g>
    </g>
    <g id="ytick_6">
     <g id="line2d_6">
      <path d="M 47.25125 22.125085 
L 125.28 22.125085 
" clip-path="url(#p4aab8440c6)" style="fill: none; stroke: #ffffff; stroke-linecap: round"/>
     </g>
     <g id="text_8">
      <!-- 1.5 -->
      <g style="fill: #262626" transform="translate(22.46125 26.061882) scale(0.11 -0.11)">
       <defs>
        <path id="ArialMT-35" d="M 266 1200 
L 856 1250 
Q 922 819 1161 601 
Q 1400 384 1738 384 
Q 2144 384 2425 690 
Q 2706 997 2706 1503 
Q 2706 1984 2436 2262 
Q 2166 2541 1728 2541 
Q 1456 2541 1237 2417 
Q 1019 2294 894 2097 
L 366 2166 
L 809 4519 
L 3088 4519 
L 3088 3981 
L 1259 3981 
L 1013 2750 
Q 1425 3038 1878 3038 
Q 2478 3038 2890 2622 
Q 3303 2206 3303 1553 
Q 3303 931 2941 478 
Q 2500 -78 1738 -78 
Q 1113 -78 717 272 
Q 322 622 266 1200 
z
" transform="scale(0.015625)"/>
       </defs>
       <use xlink:href="#ArialMT-31"/>
       <use xlink:href="#ArialMT-2e" x="55.615234"/>
       <use xlink:href="#ArialMT-35" x="83.398438"/>
      </g>
     </g>
    </g>
    <g id="text_9">
     <!-- T3 ng/mL -->
     <g style="fill: #262626" transform="translate(15.935625 117.802578) rotate(-90) scale(0.12 -0.12)">
      <defs>
       <path id="ArialMT-54" d="M 1659 0 
L 1659 4041 
L 150 4041 
L 150 4581 
L 3781 4581 
L 3781 4041 
L 2266 4041 
L 2266 0 
L 1659 0 
z
" transform="scale(0.015625)"/>
       <path id="ArialMT-20" transform="scale(0.015625)"/>
       <path id="ArialMT-6e" d="M 422 0 
L 422 3319 
L 928 3319 
L 928 2847 
Q 1294 3394 1984 3394 
Q 2284 3394 2536 3286 
Q 2788 3178 2913 3003 
Q 3038 2828 3088 2588 
Q 3119 2431 3119 2041 
L 3119 0 
L 2556 0 
L 2556 2019 
Q 2556 2363 2490 2533 
Q 2425 2703 2258 2804 
Q 2091 2906 1866 2906 
Q 1506 2906 1245 2678 
Q 984 2450 984 1813 
L 984 0 
L 422 0 
z
" transform="scale(0.015625)"/>
       <path id="ArialMT-67" d="M 319 -275 
L 866 -356 
Q 900 -609 1056 -725 
Q 1266 -881 1628 -881 
Q 2019 -881 2231 -725 
Q 2444 -569 2519 -288 
Q 2563 -116 2559 434 
Q 2191 0 1641 0 
Q 956 0 581 494 
Q 206 988 206 1678 
Q 206 2153 378 2554 
Q 550 2956 876 3175 
Q 1203 3394 1644 3394 
Q 2231 3394 2613 2919 
L 2613 3319 
L 3131 3319 
L 3131 450 
Q 3131 -325 2973 -648 
Q 2816 -972 2473 -1159 
Q 2131 -1347 1631 -1347 
Q 1038 -1347 672 -1080 
Q 306 -813 319 -275 
z
M 784 1719 
Q 784 1066 1043 766 
Q 1303 466 1694 466 
Q 2081 466 2343 764 
Q 2606 1063 2606 1700 
Q 2606 2309 2336 2618 
Q 2066 2928 1684 2928 
Q 1309 2928 1046 2623 
Q 784 2319 784 1719 
z
" transform="scale(0.015625)"/>
       <path id="ArialMT-2f" d="M 0 -78 
L 1328 4659 
L 1778 4659 
L 453 -78 
L 0 -78 
z
" transform="scale(0.015625)"/>
       <path id="ArialMT-6d" d="M 422 0 
L 422 3319 
L 925 3319 
L 925 2853 
Q 1081 3097 1340 3245 
Q 1600 3394 1931 3394 
Q 2300 3394 2536 3241 
Q 2772 3088 2869 2813 
Q 3263 3394 3894 3394 
Q 4388 3394 4653 3120 
Q 4919 2847 4919 2278 
L 4919 0 
L 4359 0 
L 4359 2091 
Q 4359 2428 4304 2576 
Q 4250 2725 4106 2815 
Q 3963 2906 3769 2906 
Q 3419 2906 3187 2673 
Q 2956 2441 2956 1928 
L 2956 0 
L 2394 0 
L 2394 2156 
Q 2394 2531 2256 2718 
Q 2119 2906 1806 2906 
Q 1569 2906 1367 2781 
Q 1166 2656 1075 2415 
Q 984 2175 984 1722 
L 984 0 
L 422 0 
z
" transform="scale(0.015625)"/>
       <path id="ArialMT-4c" d="M 469 0 
L 469 4581 
L 1075 4581 
L 1075 541 
L 3331 541 
L 3331 0 
L 469 0 
z
" transform="scale(0.015625)"/>
      </defs>
      <use xlink:href="#ArialMT-54"/>
      <use xlink:href="#ArialMT-33" x="61.083984"/>
      <use xlink:href="#ArialMT-20" x="116.699219"/>
      <use xlink:href="#ArialMT-6e" x="144.482422"/>
      <use xlink:href="#ArialMT-67" x="200.097656"/>
      <use xlink:href="#ArialMT-2f" x="255.712891"/>
      <use xlink:href="#ArialMT-6d" x="283.496094"/>
      <use xlink:href="#ArialMT-4c" x="366.796875"/>
     </g>
    </g>
   </g>
   <g id="PathCollection_1">
    <path d="M 69.02989 151.009412 
C 69.560296 151.009412 70.06905 150.79868 70.444104 150.423626 
C 70.819157 150.048572 71.02989 149.539818 71.02989 149.009412 
C 71.02989 148.479006 70.819157 147.970252 70.444104 147.595199 
C 70.06905 147.220145 69.560296 147.009412 69.02989 147.009412 
C 68.499484 147.009412 67.99073 147.220145 67.615676 147.595199 
C 67.240623 147.970252 67.02989 148.479006 67.02989 149.009412 
C 67.02989 149.539818 67.240623 150.048572 67.615676 150.423626 
C 67.99073 150.79868 68.499484 151.009412 69.02989 151.009412 
z
" clip-path="url(#p4aab8440c6)" style="fill: #0173b2; fill-opacity: 0.2; stroke: #0173b2; stroke-opacity: 0.6; stroke-width: 0.75"/>
    <path d="M 72.827031 145.663953 
C 73.357437 145.663953 73.866191 145.45322 74.241245 145.078166 
C 74.616298 144.703113 74.827031 144.194359 74.827031 143.663953 
C 74.827031 143.133547 74.616298 142.624793 74.241245 142.249739 
C 73.866191 141.874685 73.357437 141.663953 72.827031 141.663953 
C 72.296625 141.663953 71.787871 141.874685 71.412817 142.249739 
C 71.037764 142.624793 70.827031 143.133547 70.827031 143.663953 
C 70.827031 144.194359 71.037764 144.703113 71.412817 145.078166 
C 71.787871 145.45322 72.296625 145.663953 72.827031 145.663953 
z
" clip-path="url(#p4aab8440c6)" style="fill: #0173b2; fill-opacity: 0.2; stroke: #0173b2; stroke-opacity: 0.6; stroke-width: 0.75"/>
    <path d="M 69.51479 123.578765 
C 70.045197 123.578765 70.55395 123.368032 70.929004 122.992979 
C 71.304058 122.617925 71.51479 122.109171 71.51479 121.578765 
C 71.51479 121.048359 71.304058 120.539605 70.929004 120.164552 
C 70.55395 119.789498 70.045197 119.578765 69.51479 119.578765 
C 68.984384 119.578765 68.475631 119.789498 68.100577 120.164552 
C 67.725523 120.539605 67.51479 121.048359 67.51479 121.578765 
C 67.51479 122.109171 67.725523 122.617925 68.100577 122.992979 
C 68.475631 123.368032 68.984384 123.578765 69.51479 123.578765 
z
" clip-path="url(#p4aab8440c6)" style="fill: #0173b2; fill-opacity: 0.2; stroke: #0173b2; stroke-opacity: 0.6; stroke-width: 0.75"/>
    <path d="M 73.054048 103.322287 
C 73.584454 103.322287 74.093207 103.111555 74.468261 102.736501 
C 74.843315 102.361447 75.054048 101.852693 75.054048 101.322287 
C 75.054048 100.791881 74.843315 100.283127 74.468261 99.908074 
C 74.093207 99.53302 73.584454 99.322287 73.054048 99.322287 
C 72.523641 99.322287 72.014888 99.53302 71.639834 99.908074 
C 71.26478 100.283127 71.054048 100.791881 71.054048 101.322287 
C 71.054048 101.852693 71.26478 102.361447 71.639834 102.736501 
C 72.014888 103.111555 72.523641 103.322287 73.054048 103.322287 
z
" clip-path="url(#p4aab8440c6)" style="fill: #0173b2; fill-opacity: 0.2; stroke: #0173b2; stroke-opacity: 0.6; stroke-width: 0.75"/>
    <path d="M 72.950983 171.96924 
C 73.481389 171.96924 73.990143 171.758507 74.365197 171.383454 
C 74.74025 171.0084 74.950983 170.499646 74.950983 169.96924 
C 74.950983 169.438834 74.74025 168.93008 74.365197 168.555026 
C 73.990143 168.179973 73.481389 167.96924 72.950983 167.96924 
C 72.420577 167.96924 71.911823 168.179973 71.536769 168.555026 
C 71.161716 168.93008 70.950983 169.438834 70.950983 169.96924 
C 70.950983 170.499646 71.161716 171.0084 71.536769 171.383454 
C 71.911823 171.758507 72.420577 171.96924 72.950983 171.96924 
z
" clip-path="url(#p4aab8440c6)" style="fill: #0173b2; fill-opacity: 0.2; stroke: #0173b2; stroke-opacity: 0.6; stroke-width: 0.75"/>
    <path d="M 68.459088 122.453405 
C 68.989494 122.453405 69.498248 122.242673 69.873302 121.867619 
C 70.248356 121.492565 70.459088 120.983811 70.459088 120.453405 
C 70.459088 119.922999 70.248356 119.414245 69.873302 119.039192 
C 69.498248 118.664138 68.989494 118.453405 68.459088 118.453405 
C 67.928682 118.453405 67.419928 118.664138 67.044875 119.039192 
C 66.669821 119.414245 66.459088 119.922999 66.459088 120.453405 
C 66.459088 120.983811 66.669821 121.492565 67.044875 121.867619 
C 67.419928 122.242673 67.928682 122.453405 68.459088 122.453405 
z
" clip-path="url(#p4aab8440c6)" style="fill: #0173b2; fill-opacity: 0.2; stroke: #0173b2; stroke-opacity: 0.6; stroke-width: 0.75"/>
    <path d="M 111.856493 119.358666 
C 112.3869 119.358666 112.895653 119.147933 113.270707 118.772879 
C 113.645761 118.397825 113.856493 117.889072 113.856493 117.358666 
C 113.856493 116.828259 113.645761 116.319506 113.270707 115.944452 
C 112.895653 115.569398 112.3869 115.358666 111.856493 115.358666 
C 111.326087 115.358666 110.817334 115.569398 110.44228 115.944452 
C 110.067226 116.319506 109.856493 116.828259 109.856493 117.358666 
C 109.856493 117.889072 110.067226 118.397825 110.44228 118.772879 
C 110.817334 119.147933 111.326087 119.358666 111.856493 119.358666 
z
" clip-path="url(#p4aab8440c6)" style="fill: #de8f05; fill-opacity: 0.2; stroke: #de8f05; stroke-opacity: 0.6; stroke-width: 0.75"/>
    <path d="M 109.992965 110.918466 
C 110.523371 110.918466 111.032125 110.707734 111.407179 110.33268 
C 111.782233 109.957626 111.992965 109.448873 111.992965 108.918466 
C 111.992965 108.38806 111.782233 107.879307 111.407179 107.504253 
C 111.032125 107.129199 110.523371 106.918466 109.992965 106.918466 
C 109.462559 106.918466 108.953805 107.129199 108.578752 107.504253 
C 108.203698 107.879307 107.992965 108.38806 107.992965 108.918466 
C 107.992965 109.448873 108.203698 109.957626 108.578752 110.33268 
C 108.953805 110.707734 109.462559 110.918466 109.992965 110.918466 
z
" clip-path="url(#p4aab8440c6)" style="fill: #de8f05; fill-opacity: 0.2; stroke: #de8f05; stroke-opacity: 0.6; stroke-width: 0.75"/>
    <path d="M 106.604715 151.150082 
C 107.135121 151.150082 107.643875 150.93935 108.018929 150.564296 
C 108.393982 150.189242 108.604715 149.680488 108.604715 149.150082 
C 108.604715 148.619676 108.393982 148.110922 108.018929 147.735869 
C 107.643875 147.360815 107.135121 147.150082 106.604715 147.150082 
C 106.074309 147.150082 105.565555 147.360815 105.190501 147.735869 
C 104.815448 148.110922 104.604715 148.619676 104.604715 149.150082 
C 104.604715 149.680488 104.815448 150.189242 105.190501 150.564296 
C 105.565555 150.93935 106.074309 151.150082 106.604715 151.150082 
z
" clip-path="url(#p4aab8440c6)" style="fill: #de8f05; fill-opacity: 0.2; stroke: #de8f05; stroke-opacity: 0.6; stroke-width: 0.75"/>
    <path d="M 111.002001 97.695488 
C 111.532407 97.695488 112.041161 97.484755 112.416215 97.109701 
C 112.791268 96.734648 113.002001 96.225894 113.002001 95.695488 
C 113.002001 95.165082 112.791268 94.656328 112.416215 94.281274 
C 112.041161 93.90622 111.532407 93.695488 111.002001 93.695488 
C 110.471595 93.695488 109.962841 93.90622 109.587787 94.281274 
C 109.212734 94.656328 109.002001 95.165082 109.002001 95.695488 
C 109.002001 96.225894 109.212734 96.734648 109.587787 97.109701 
C 109.962841 97.484755 110.471595 97.695488 111.002001 97.695488 
z
" clip-path="url(#p4aab8440c6)" style="fill: #de8f05; fill-opacity: 0.2; stroke: #de8f05; stroke-opacity: 0.6; stroke-width: 0.75"/>
    <path d="M 107.140068 111.903156 
C 107.670475 111.903156 108.179228 111.692424 108.554282 111.31737 
C 108.929336 110.942316 109.140068 110.433563 109.140068 109.903156 
C 109.140068 109.37275 108.929336 108.863997 108.554282 108.488943 
C 108.179228 108.113889 107.670475 107.903156 107.140068 107.903156 
C 106.609662 107.903156 106.100909 108.113889 105.725855 108.488943 
C 105.350801 108.863997 105.140068 109.37275 105.140068 109.903156 
C 105.140068 110.433563 105.350801 110.942316 105.725855 111.31737 
C 106.100909 111.692424 106.609662 111.903156 107.140068 111.903156 
z
" clip-path="url(#p4aab8440c6)" style="fill: #de8f05; fill-opacity: 0.2; stroke: #de8f05; stroke-opacity: 0.6; stroke-width: 0.75"/>
    <path d="M 109.243466 16.950916 
C 109.773873 16.950916 110.282626 16.740184 110.65768 16.36513 
C 111.032734 15.990076 111.243466 15.481322 111.243466 14.950916 
C 111.243466 14.42051 111.032734 13.911756 110.65768 13.536703 
C 110.282626 13.161649 109.773873 12.950916 109.243466 12.950916 
C 108.71306 12.950916 108.204307 13.161649 107.829253 13.536703 
C 107.454199 13.911756 107.243466 14.42051 107.243466 14.950916 
C 107.243466 15.481322 107.454199 15.990076 107.829253 16.36513 
C 108.204307 16.740184 108.71306 16.950916 109.243466 16.950916 
z
" clip-path="url(#p4aab8440c6)" style="fill: #de8f05; fill-opacity: 0.2; stroke: #de8f05; stroke-opacity: 0.6; stroke-width: 0.75"/>
   </g>
   <g id="PathCollection_2">
    <path d="M 62.857 137.332844 
C 63.652609 137.332844 64.41574 137.016745 64.97832 136.454164 
C 65.540901 135.891583 65.857 135.128453 65.857 134.332844 
C 65.857 133.537234 65.540901 132.774104 64.97832 132.211523 
C 64.41574 131.648943 63.652609 131.332844 62.857 131.332844 
C 62.061391 131.332844 61.29826 131.648943 60.73568 132.211523 
C 60.173099 132.774104 59.857 133.537234 59.857 134.332844 
C 59.857 135.128453 60.173099 135.891583 60.73568 136.454164 
C 61.29826 137.016745 62.061391 137.332844 62.857 137.332844 
z
" clip-path="url(#p4aab8440c6)" style="fill: #0173b2; stroke: #0173b2; stroke-width: 0.5"/>
    <path d="M 101.871375 102.329462 
C 102.666984 102.329462 103.430115 102.013363 103.992695 101.450783 
C 104.555276 100.888202 104.871375 100.125072 104.871375 99.329462 
C 104.871375 98.533853 104.555276 97.770723 103.992695 97.208142 
C 103.430115 96.645561 102.666984 96.329462 101.871375 96.329462 
C 101.075766 96.329462 100.312635 96.645561 99.750055 97.208142 
C 99.187474 97.770723 98.871375 98.533853 98.871375 99.329462 
C 98.871375 100.125072 99.187474 100.888202 99.750055 101.450783 
C 100.312635 102.013363 101.075766 102.329462 101.871375 102.329462 
z
" clip-path="url(#p4aab8440c6)" style="fill: #de8f05; stroke: #de8f05; stroke-width: 0.5"/>
   </g>
   <g id="LineCollection_1">
    <path d="M 62.857 158.89878 
L 62.857 109.766907 
" clip-path="url(#p4aab8440c6)" style="fill: none; stroke: #0173b2; stroke-width: 1.5; stroke-linecap: square"/>
    <path d="M 101.871375 144.371317 
L 101.871375 54.287608 
" clip-path="url(#p4aab8440c6)" style="fill: none; stroke: #de8f05; stroke-width: 1.5; stroke-linecap: square"/>
   </g>
   <g id="patch_3">
    <path d="M 47.25125 177.720156 
L 47.25125 7.2 
" style="fill: none; stroke: #ffffff; stroke-width: 1.25; stroke-linejoin: miter; stroke-linecap: square"/>
   </g>
   <g id="patch_4">
    <path d="M 125.28 177.720156 
L 125.28 7.2 
" style="fill: none; stroke: #ffffff; stroke-width: 1.25; stroke-linejoin: miter; stroke-linecap: square"/>
   </g>
   <g id="patch_5">
    <path d="M 47.25125 177.720156 
L 125.28 177.720156 
" style="fill: none; stroke: #ffffff; stroke-width: 1.25; stroke-linejoin: miter; stroke-linecap: square"/>
   </g>
   <g id="patch_6">
    <path d="M 47.25125 7.2 
L 125.28 7.2 
" style="fill: none; stroke: #ffffff; stroke-width: 1.25; stroke-linejoin: miter; stroke-linecap: square"/>
   </g>
  </g>
  <g id="legend_1">
   <g id="patch_7">
    <path d="M 148.82 111.127031 
L 204.799688 111.127031 
Q 206.999687 111.127031 206.999687 108.927031 
L 206.999687 62.432969 
Q 206.999687 60.232969 204.799688 60.232969 
L 148.82 60.232969 
Q 146.62 60.232969 146.62 62.432969 
L 146.62 108.927031 
Q 146.62 111.127031 148.82 111.127031 
z
" style="fill: #eaeaf2; opacity: 0.8; stroke: #cccccc; stroke-linejoin: miter"/>
   </g>
   <g id="text_10">
    <!-- Tx -->
    <g style="fill: #262626" transform="translate(170.145156 73.222344) scale(0.12 -0.12)">
     <defs>
      <path id="ArialMT-78" d="M 47 0 
L 1259 1725 
L 138 3319 
L 841 3319 
L 1350 2541 
Q 1494 2319 1581 2169 
Q 1719 2375 1834 2534 
L 2394 3319 
L 3066 3319 
L 1919 1756 
L 3153 0 
L 2463 0 
L 1781 1031 
L 1600 1309 
L 728 0 
L 47 0 
z
" transform="scale(0.015625)"/>
     </defs>
     <use xlink:href="#ArialMT-54"/>
     <use xlink:href="#ArialMT-78" x="61.083984"/>
    </g>
   </g>
   <g id="PathCollection_3">
    <defs>
     <path id="mbc0220a720" d="M 0 2 
C 0.530406 2 1.03916 1.789267 1.414214 1.414214 
C 1.789267 1.03916 2 0.530406 2 0 
C 2 -0.530406 1.789267 -1.03916 1.414214 -1.414214 
C 1.03916 -1.789267 0.530406 -2 0 -2 
C -0.530406 -2 -1.03916 -1.789267 -1.414214 -1.414214 
C -1.789267 -1.03916 -2 -0.530406 -2 0 
C -2 0.530406 -1.789267 1.03916 -1.414214 1.414214 
C -1.03916 1.789267 -0.530406 2 0 2 
z
" style="stroke: #0173b2; stroke-opacity: 0.6; stroke-width: 0.75"/>
    </defs>
    <g>
     <use xlink:href="#mbc0220a720" x="162.02" y="86.093438" style="fill: #0173b2; fill-opacity: 0.2; stroke: #0173b2; stroke-opacity: 0.6; stroke-width: 0.75"/>
    </g>
   </g>
   <g id="PathCollection_4">
    <defs>
     <path id="m08aba7d609" d="M 0 3 
C 0.795609 3 1.55874 2.683901 2.12132 2.12132 
C 2.683901 1.55874 3 0.795609 3 0 
C 3 -0.795609 2.683901 -1.55874 2.12132 -2.12132 
C 1.55874 -2.683901 0.795609 -3 0 -3 
C -0.795609 -3 -1.55874 -2.683901 -2.12132 -2.12132 
C -2.683901 -1.55874 -3 -0.795609 -3 0 
C -3 0.795609 -2.683901 1.55874 -2.12132 2.12132 
C -1.55874 2.683901 -0.795609 3 0 3 
z
" style="stroke: #0173b2; stroke-width: 0.5"/>
    </defs>
    <g>
     <use xlink:href="#m08aba7d609" x="162.02" y="86.093438" style="fill: #0173b2; stroke: #0173b2; stroke-width: 0.5"/>
    </g>
   </g>
   <g id="text_11">
    <!-- FeS -->
    <g style="fill: #262626" transform="translate(181.82 88.980938) scale(0.11 -0.11)">
     <use xlink:href="#ArialMT-46"/>
     <use xlink:href="#ArialMT-65" x="61.083984"/>
     <use xlink:href="#ArialMT-53" x="116.699219"/>
    </g>
   </g>
   <g id="PathCollection_5">
    <defs>
     <path id="m7830d7a7e6" d="M 0 2 
C 0.530406 2 1.03916 1.789267 1.414214 1.414214 
C 1.789267 1.03916 2 0.530406 2 0 
C 2 -0.530406 1.789267 -1.03916 1.414214 -1.414214 
C 1.03916 -1.789267 0.530406 -2 0 -2 
C -0.530406 -2 -1.03916 -1.789267 -1.414214 -1.414214 
C -1.789267 -1.03916 -2 -0.530406 -2 0 
C -2 0.530406 -1.789267 1.03916 -1.414214 1.414214 
C -1.03916 1.789267 -0.530406 2 0 2 
z
" style="stroke: #de8f05; stroke-opacity: 0.6; stroke-width: 0.75"/>
    </defs>
    <g>
     <use xlink:href="#m7830d7a7e6" x="162.02" y="101.653281" style="fill: #de8f05; fill-opacity: 0.2; stroke: #de8f05; stroke-opacity: 0.6; stroke-width: 0.75"/>
    </g>
   </g>
   <g id="PathCollection_6">
    <defs>
     <path id="mee8d814748" d="M 0 3 
C 0.795609 3 1.55874 2.683901 2.12132 2.12132 
C 2.683901 1.55874 3 0.795609 3 0 
C 3 -0.795609 2.683901 -1.55874 2.12132 -2.12132 
C 1.55874 -2.683901 0.795609 -3 0 -3 
C -0.795609 -3 -1.55874 -2.683901 -2.12132 -2.12132 
C -2.683901 -1.55874 -3 -0.795609 -3 0 
C -3 0.795609 -2.683901 1.55874 -2.12132 2.12132 
C -1.55874 2.683901 -0.795609 3 0 3 
z
" style="stroke: #de8f05; stroke-width: 0.5"/>
    </defs>
    <g>
     <use xlink:href="#mee8d814748" x="162.02" y="101.653281" style="fill: #de8f05; stroke: #de8f05; stroke-width: 0.5"/>
    </g>
   </g>
   <g id="text_12">
    <!-- FeD -->
    <g style="fill: #262626" transform="translate(181.82 104.540781) scale(0.11 -0.11)">
     <use xlink:href="#ArialMT-46"/>
     <use xlink:href="#ArialMT-65" x="61.083984"/>
     <use xlink:href="#ArialMT-44" x="116.699219"/>
    </g>
   </g>
  </g>
 </g>
 <defs>
  <clipPath id="p4aab8440c6">
   <rect x="47.25125" y="7.2" width="78.02875" height="170.520156"/>
  </clipPath>
 </defs>
</svg>
