<?xml version="1.0" encoding="utf-8" standalone="no"?>
<!DOCTYPE svg PUBLIC "-//W3C//DTD SVG 1.1//EN"
  "http://www.w3.org/Graphics/SVG/1.1/DTD/svg11.dtd">
<svg xmlns:xlink="http://www.w3.org/1999/xlink" width="208.439688pt" height="204.48pt" viewBox="0 0 208.439688 204.48" xmlns="http://www.w3.org/2000/svg" version="1.1">
 <metadata>
  <rdf:RDF xmlns:dc="http://purl.org/dc/elements/1.1/" xmlns:cc="http://creativecommons.org/ns#" xmlns:rdf="http://www.w3.org/1999/02/22-rdf-syntax-ns#">
   <cc:Work>
    <dc:type rdf:resource="http://purl.org/dc/dcmitype/StillImage"/>
    <dc:date>2023-06-05T13:15:00.392354</dc:date>
    <dc:format>image/svg+xml</dc:format>
    <dc:creator>
     <cc:Agent>
      <dc:title>Matplotlib v3.6.2, https://matplotlib.org/</dc:title>
     </cc:Agent>
    </dc:creator>
   </cc:Work>
  </rdf:RDF>
 </metadata>
 <defs>
  <style type="text/css">*{stroke-linejoin: round; stroke-linecap: butt}</style>
 </defs>
 <g id="figure_1">
  <g id="patch_1">
   <path d="M 0 204.48 
L 208.439688 204.48 
L 208.439688 0 
L 0 0 
z
" style="fill: #ffffff"/>
  </g>
  <g id="axes_1">
   <g id="patch_2">
    <path d="M 47.25125 177.720156 
L 125.28 177.720156 
L 125.28 7.2 
L 47.25125 7.2 
z
" style="fill: #eaeaf2"/>
   </g>
   <g id="matplotlib.axis_1">
    <g id="xtick_1">
     <g id="text_1">
      <!-- FeS -->
      <g style="fill: #262626" transform="translate(56.671953 195.09375) scale(0.11 -0.11)">
       <defs>
        <path id="ArialMT-46" d="M 525 0 
L 525 4581 
L 3616 4581 
L 3616 4041 
L 1131 4041 
L 1131 2622 
L 3281 2622 
L 3281 2081 
L 1131 2081 
L 1131 0 
L 525 0 
z
" transform="scale(0.015625)"/>
        <path id="ArialMT-65" d="M 2694 1069 
L 3275 997 
Q 3138 488 2766 206 
Q 2394 -75 1816 -75 
Q 1088 -75 661 373 
Q 234 822 234 1631 
Q 234 2469 665 2931 
Q 1097 3394 1784 3394 
Q 2450 3394 2872 2941 
Q 3294 2488 3294 1666 
Q 3294 1616 3291 1516 
L 816 1516 
Q 847 969 1125 678 
Q 1403 388 1819 388 
Q 2128 388 2347 550 
Q 2566 713 2694 1069 
z
M 847 1978 
L 2700 1978 
Q 2663 2397 2488 2606 
Q 2219 2931 1791 2931 
Q 1403 2931 1139 2672 
Q 875 2413 847 1978 
z
" transform="scale(0.015625)"/>
        <path id="ArialMT-53" d="M 288 1472 
L 859 1522 
Q 900 1178 1048 958 
Q 1197 738 1509 602 
Q 1822 466 2213 466 
Q 2559 466 2825 569 
Q 3091 672 3220 851 
Q 3350 1031 3350 1244 
Q 3350 1459 3225 1620 
Q 3100 1781 2813 1891 
Q 2628 1963 1997 2114 
Q 1366 2266 1113 2400 
Q 784 2572 623 2826 
Q 463 3081 463 3397 
Q 463 3744 659 4045 
Q 856 4347 1234 4503 
Q 1613 4659 2075 4659 
Q 2584 4659 2973 4495 
Q 3363 4331 3572 4012 
Q 3781 3694 3797 3291 
L 3216 3247 
Q 3169 3681 2898 3903 
Q 2628 4125 2100 4125 
Q 1550 4125 1298 3923 
Q 1047 3722 1047 3438 
Q 1047 3191 1225 3031 
Q 1400 2872 2139 2705 
Q 2878 2538 3153 2413 
Q 3553 2228 3743 1945 
Q 3934 1663 3934 1294 
Q 3934 928 3725 604 
Q 3516 281 3123 101 
Q 2731 -78 2241 -78 
Q 1619 -78 1198 103 
Q 778 284 539 648 
Q 300 1013 288 1472 
z
" transform="scale(0.015625)"/>
       </defs>
       <use xlink:href="#ArialMT-46"/>
       <use xlink:href="#ArialMT-65" x="61.083984"/>
       <use xlink:href="#ArialMT-53" x="116.699219"/>
      </g>
     </g>
    </g>
    <g id="xtick_2">
     <g id="text_2">
      <!-- FeD -->
      <g style="fill: #262626" transform="translate(95.382969 195.09375) scale(0.11 -0.11)">
       <defs>
        <path id="ArialMT-44" d="M 494 0 
L 494 4581 
L 2072 4581 
Q 2606 4581 2888 4516 
Q 3281 4425 3559 4188 
Q 3922 3881 4101 3404 
Q 4281 2928 4281 2316 
Q 4281 1794 4159 1391 
Q 4038 988 3847 723 
Q 3656 459 3429 307 
Q 3203 156 2883 78 
Q 2563 0 2147 0 
L 494 0 
z
M 1100 541 
L 2078 541 
Q 2531 541 2789 625 
Q 3047 709 3200 863 
Q 3416 1078 3536 1442 
Q 3656 1806 3656 2325 
Q 3656 3044 3420 3430 
Q 3184 3816 2847 3947 
Q 2603 4041 2063 4041 
L 1100 4041 
L 1100 541 
z
" transform="scale(0.015625)"/>
       </defs>
       <use xlink:href="#ArialMT-46"/>
       <use xlink:href="#ArialMT-65" x="61.083984"/>
       <use xlink:href="#ArialMT-44" x="116.699219"/>
      </g>
     </g>
    </g>
   </g>
   <g id="matplotlib.axis_2">
    <g id="ytick_1">
     <g id="line2d_1">
      <path d="M 47.25125 146.006836 
L 125.28 146.006836 
" clip-path="url(#pb60dcaa51b)" style="fill: none; stroke: #ffffff; stroke-linecap: round"/>
     </g>
     <g id="text_3">
      <!-- 0.9 -->
      <g style="fill: #262626" transform="translate(22.46125 149.943633) scale(0.11 -0.11)">
       <defs>
        <path id="ArialMT-30" d="M 266 2259 
Q 266 3072 433 3567 
Q 600 4063 929 4331 
Q 1259 4600 1759 4600 
Q 2128 4600 2406 4451 
Q 2684 4303 2865 4023 
Q 3047 3744 3150 3342 
Q 3253 2941 3253 2259 
Q 3253 1453 3087 958 
Q 2922 463 2592 192 
Q 2263 -78 1759 -78 
Q 1097 -78 719 397 
Q 266 969 266 2259 
z
M 844 2259 
Q 844 1131 1108 757 
Q 1372 384 1759 384 
Q 2147 384 2411 759 
Q 2675 1134 2675 2259 
Q 2675 3391 2411 3762 
Q 2147 4134 1753 4134 
Q 1366 4134 1134 3806 
Q 844 3388 844 2259 
z
" transform="scale(0.015625)"/>
        <path id="ArialMT-2e" d="M 581 0 
L 581 641 
L 1222 641 
L 1222 0 
L 581 0 
z
" transform="scale(0.015625)"/>
        <path id="ArialMT-39" d="M 350 1059 
L 891 1109 
Q 959 728 1153 556 
Q 1347 384 1650 384 
Q 1909 384 2104 503 
Q 2300 622 2425 820 
Q 2550 1019 2634 1356 
Q 2719 1694 2719 2044 
Q 2719 2081 2716 2156 
Q 2547 1888 2255 1720 
Q 1963 1553 1622 1553 
Q 1053 1553 659 1965 
Q 266 2378 266 3053 
Q 266 3750 677 4175 
Q 1088 4600 1706 4600 
Q 2153 4600 2523 4359 
Q 2894 4119 3086 3673 
Q 3278 3228 3278 2384 
Q 3278 1506 3087 986 
Q 2897 466 2520 194 
Q 2144 -78 1638 -78 
Q 1100 -78 759 220 
Q 419 519 350 1059 
z
M 2653 3081 
Q 2653 3566 2395 3850 
Q 2138 4134 1775 4134 
Q 1400 4134 1122 3828 
Q 844 3522 844 3034 
Q 844 2597 1108 2323 
Q 1372 2050 1759 2050 
Q 2150 2050 2401 2323 
Q 2653 2597 2653 3081 
z
" transform="scale(0.015625)"/>
       </defs>
       <use xlink:href="#ArialMT-30"/>
       <use xlink:href="#ArialMT-2e" x="55.615234"/>
       <use xlink:href="#ArialMT-39" x="83.398438"/>
      </g>
     </g>
    </g>
    <g id="ytick_2">
     <g id="line2d_2">
      <path d="M 47.25125 109.141598 
L 125.28 109.141598 
" clip-path="url(#pb60dcaa51b)" style="fill: none; stroke: #ffffff; stroke-linecap: round"/>
     </g>
     <g id="text_4">
      <!-- 1.0 -->
      <g style="fill: #262626" transform="translate(22.46125 113.078395) scale(0.11 -0.11)">
       <defs>
        <path id="ArialMT-31" d="M 2384 0 
L 1822 0 
L 1822 3584 
Q 1619 3391 1289 3197 
Q 959 3003 697 2906 
L 697 3450 
Q 1169 3672 1522 3987 
Q 1875 4303 2022 4600 
L 2384 4600 
L 2384 0 
z
" transform="scale(0.015625)"/>
       </defs>
       <use xlink:href="#ArialMT-31"/>
       <use xlink:href="#ArialMT-2e" x="55.615234"/>
       <use xlink:href="#ArialMT-30" x="83.398438"/>
      </g>
     </g>
    </g>
    <g id="ytick_3">
     <g id="line2d_3">
      <path d="M 47.25125 72.276361 
L 125.28 72.276361 
" clip-path="url(#pb60dcaa51b)" style="fill: none; stroke: #ffffff; stroke-linecap: round"/>
     </g>
     <g id="text_5">
      <!-- 1.1 -->
      <g style="fill: #262626" transform="translate(22.46125 76.213157) scale(0.11 -0.11)">
       <use xlink:href="#ArialMT-31"/>
       <use xlink:href="#ArialMT-2e" x="55.615234"/>
       <use xlink:href="#ArialMT-31" x="83.398438"/>
      </g>
     </g>
    </g>
    <g id="ytick_4">
     <g id="line2d_4">
      <path d="M 47.25125 35.411123 
L 125.28 35.411123 
" clip-path="url(#pb60dcaa51b)" style="fill: none; stroke: #ffffff; stroke-linecap: round"/>
     </g>
     <g id="text_6">
      <!-- 1.2 -->
      <g style="fill: #262626" transform="translate(22.46125 39.34792) scale(0.11 -0.11)">
       <defs>
        <path id="ArialMT-32" d="M 3222 541 
L 3222 0 
L 194 0 
Q 188 203 259 391 
Q 375 700 629 1000 
Q 884 1300 1366 1694 
Q 2113 2306 2375 2664 
Q 2638 3022 2638 3341 
Q 2638 3675 2398 3904 
Q 2159 4134 1775 4134 
Q 1369 4134 1125 3890 
Q 881 3647 878 3216 
L 300 3275 
Q 359 3922 746 4261 
Q 1134 4600 1788 4600 
Q 2447 4600 2831 4234 
Q 3216 3869 3216 3328 
Q 3216 3053 3103 2787 
Q 2991 2522 2730 2228 
Q 2469 1934 1863 1422 
Q 1356 997 1212 845 
Q 1069 694 975 541 
L 3222 541 
z
" transform="scale(0.015625)"/>
       </defs>
       <use xlink:href="#ArialMT-31"/>
       <use xlink:href="#ArialMT-2e" x="55.615234"/>
       <use xlink:href="#ArialMT-32" x="83.398438"/>
      </g>
     </g>
    </g>
    <g id="text_7">
     <!-- T3 ng/mL -->
     <g style="fill: #262626" transform="translate(15.935625 117.802578) rotate(-90) scale(0.12 -0.12)">
      <defs>
       <path id="ArialMT-54" d="M 1659 0 
L 1659 4041 
L 150 4041 
L 150 4581 
L 3781 4581 
L 3781 4041 
L 2266 4041 
L 2266 0 
L 1659 0 
z
" transform="scale(0.015625)"/>
       <path id="ArialMT-33" d="M 269 1209 
L 831 1284 
Q 928 806 1161 595 
Q 1394 384 1728 384 
Q 2125 384 2398 659 
Q 2672 934 2672 1341 
Q 2672 1728 2419 1979 
Q 2166 2231 1775 2231 
Q 1616 2231 1378 2169 
L 1441 2663 
Q 1497 2656 1531 2656 
Q 1891 2656 2178 2843 
Q 2466 3031 2466 3422 
Q 2466 3731 2256 3934 
Q 2047 4138 1716 4138 
Q 1388 4138 1169 3931 
Q 950 3725 888 3313 
L 325 3413 
Q 428 3978 793 4289 
Q 1159 4600 1703 4600 
Q 2078 4600 2393 4439 
Q 2709 4278 2876 4000 
Q 3044 3722 3044 3409 
Q 3044 3113 2884 2869 
Q 2725 2625 2413 2481 
Q 2819 2388 3044 2092 
Q 3269 1797 3269 1353 
Q 3269 753 2831 336 
Q 2394 -81 1725 -81 
Q 1122 -81 723 278 
Q 325 638 269 1209 
z
" transform="scale(0.015625)"/>
       <path id="ArialMT-20" transform="scale(0.015625)"/>
       <path id="ArialMT-6e" d="M 422 0 
L 422 3319 
L 928 3319 
L 928 2847 
Q 1294 3394 1984 3394 
Q 2284 3394 2536 3286 
Q 2788 3178 2913 3003 
Q 3038 2828 3088 2588 
Q 3119 2431 3119 2041 
L 3119 0 
L 2556 0 
L 2556 2019 
Q 2556 2363 2490 2533 
Q 2425 2703 2258 2804 
Q 2091 2906 1866 2906 
Q 1506 2906 1245 2678 
Q 984 2450 984 1813 
L 984 0 
L 422 0 
z
" transform="scale(0.015625)"/>
       <path id="ArialMT-67" d="M 319 -275 
L 866 -356 
Q 900 -609 1056 -725 
Q 1266 -881 1628 -881 
Q 2019 -881 2231 -725 
Q 2444 -569 2519 -288 
Q 2563 -116 2559 434 
Q 2191 0 1641 0 
Q 956 0 581 494 
Q 206 988 206 1678 
Q 206 2153 378 2554 
Q 550 2956 876 3175 
Q 1203 3394 1644 3394 
Q 2231 3394 2613 2919 
L 2613 3319 
L 3131 3319 
L 3131 450 
Q 3131 -325 2973 -648 
Q 2816 -972 2473 -1159 
Q 2131 -1347 1631 -1347 
Q 1038 -1347 672 -1080 
Q 306 -813 319 -275 
z
M 784 1719 
Q 784 1066 1043 766 
Q 1303 466 1694 466 
Q 2081 466 2343 764 
Q 2606 1063 2606 1700 
Q 2606 2309 2336 2618 
Q 2066 2928 1684 2928 
Q 1309 2928 1046 2623 
Q 784 2319 784 1719 
z
" transform="scale(0.015625)"/>
       <path id="ArialMT-2f" d="M 0 -78 
L 1328 4659 
L 1778 4659 
L 453 -78 
L 0 -78 
z
" transform="scale(0.015625)"/>
       <path id="ArialMT-6d" d="M 422 0 
L 422 3319 
L 925 3319 
L 925 2853 
Q 1081 3097 1340 3245 
Q 1600 3394 1931 3394 
Q 2300 3394 2536 3241 
Q 2772 3088 2869 2813 
Q 3263 3394 3894 3394 
Q 4388 3394 4653 3120 
Q 4919 2847 4919 2278 
L 4919 0 
L 4359 0 
L 4359 2091 
Q 4359 2428 4304 2576 
Q 4250 2725 4106 2815 
Q 3963 2906 3769 2906 
Q 3419 2906 3187 2673 
Q 2956 2441 2956 1928 
L 2956 0 
L 2394 0 
L 2394 2156 
Q 2394 2531 2256 2718 
Q 2119 2906 1806 2906 
Q 1569 2906 1367 2781 
Q 1166 2656 1075 2415 
Q 984 2175 984 1722 
L 984 0 
L 422 0 
z
" transform="scale(0.015625)"/>
       <path id="ArialMT-4c" d="M 469 0 
L 469 4581 
L 1075 4581 
L 1075 541 
L 3331 541 
L 3331 0 
L 469 0 
z
" transform="scale(0.015625)"/>
      </defs>
      <use xlink:href="#ArialMT-54"/>
      <use xlink:href="#ArialMT-33" x="61.083984"/>
      <use xlink:href="#ArialMT-20" x="116.699219"/>
      <use xlink:href="#ArialMT-6e" x="144.482422"/>
      <use xlink:href="#ArialMT-67" x="200.097656"/>
      <use xlink:href="#ArialMT-2f" x="255.712891"/>
      <use xlink:href="#ArialMT-6d" x="283.496094"/>
      <use xlink:href="#ArialMT-4c" x="366.796875"/>
     </g>
    </g>
   </g>
   <g id="PathCollection_1">
    <path d="M 71.453716 171.96924 
C 71.984123 171.96924 72.492876 171.758507 72.86793 171.383454 
C 73.242984 171.0084 73.453716 170.499646 73.453716 169.96924 
C 73.453716 169.438834 73.242984 168.93008 72.86793 168.555026 
C 72.492876 168.179973 71.984123 167.96924 71.453716 167.96924 
C 70.92331 167.96924 70.414557 168.179973 70.039503 168.555026 
C 69.664449 168.93008 69.453716 169.438834 69.453716 169.96924 
C 69.453716 170.499646 69.664449 171.0084 70.039503 171.383454 
C 70.414557 171.758507 70.92331 171.96924 71.453716 171.96924 
z
" clip-path="url(#pb60dcaa51b)" style="fill: #0173b2; fill-opacity: 0.2; stroke: #0173b2; stroke-opacity: 0.6; stroke-width: 0.75"/>
    <path d="M 68.759624 133.998045 
C 69.29003 133.998045 69.798784 133.787313 70.173837 133.412259 
C 70.548891 133.037205 70.759624 132.528452 70.759624 131.998045 
C 70.759624 131.467639 70.548891 130.958886 70.173837 130.583832 
C 69.798784 130.208778 69.29003 129.998045 68.759624 129.998045 
C 68.229218 129.998045 67.720464 130.208778 67.34541 130.583832 
C 66.970357 130.958886 66.759624 131.467639 66.759624 131.998045 
C 66.759624 132.528452 66.970357 133.037205 67.34541 133.412259 
C 67.720464 133.787313 68.229218 133.998045 68.759624 133.998045 
z
" clip-path="url(#pb60dcaa51b)" style="fill: #0173b2; fill-opacity: 0.2; stroke: #0173b2; stroke-opacity: 0.6; stroke-width: 0.75"/>
    <path d="M 73.743557 142.845702 
C 74.273964 142.845702 74.782717 142.63497 75.157771 142.259916 
C 75.532825 141.884862 75.743557 141.376109 75.743557 140.845702 
C 75.743557 140.315296 75.532825 139.806543 75.157771 139.431489 
C 74.782717 139.056435 74.273964 138.845702 73.743557 138.845702 
C 73.213151 138.845702 72.704398 139.056435 72.329344 139.431489 
C 71.95429 139.806543 71.743557 140.315296 71.743557 140.845702 
C 71.743557 141.376109 71.95429 141.884862 72.329344 142.259916 
C 72.704398 142.63497 73.213151 142.845702 73.743557 142.845702 
z
" clip-path="url(#pb60dcaa51b)" style="fill: #0173b2; fill-opacity: 0.2; stroke: #0173b2; stroke-opacity: 0.6; stroke-width: 0.75"/>
    <path d="M 70.109698 43.678213 
C 70.640104 43.678213 71.148858 43.467481 71.523912 43.092427 
C 71.898966 42.717373 72.109698 42.20862 72.109698 41.678213 
C 72.109698 41.147807 71.898966 40.639054 71.523912 40.264 
C 71.148858 39.888946 70.640104 39.678213 70.109698 39.678213 
C 69.579292 39.678213 69.070539 39.888946 68.695485 40.264 
C 68.320431 40.639054 68.109698 41.147807 68.109698 41.678213 
C 68.109698 42.20862 68.320431 42.717373 68.695485 43.092427 
C 69.070539 43.467481 69.579292 43.678213 70.109698 43.678213 
z
" clip-path="url(#pb60dcaa51b)" style="fill: #0173b2; fill-opacity: 0.2; stroke: #0173b2; stroke-opacity: 0.6; stroke-width: 0.75"/>
    <path d="M 72.925416 76.303949 
C 73.455823 76.303949 73.964576 76.093216 74.33963 75.718162 
C 74.714684 75.343108 74.925416 74.834355 74.925416 74.303949 
C 74.925416 73.773542 74.714684 73.264789 74.33963 72.889735 
C 73.964576 72.514681 73.455823 72.303949 72.925416 72.303949 
C 72.39501 72.303949 71.886257 72.514681 71.511203 72.889735 
C 71.136149 73.264789 70.925416 73.773542 70.925416 74.303949 
C 70.925416 74.834355 71.136149 75.343108 71.511203 75.718162 
C 71.886257 76.093216 72.39501 76.303949 72.925416 76.303949 
z
" clip-path="url(#pb60dcaa51b)" style="fill: #0173b2; fill-opacity: 0.2; stroke: #0173b2; stroke-opacity: 0.6; stroke-width: 0.75"/>
    <path d="M 71.295562 82.571039 
C 71.825969 82.571039 72.334722 82.360306 72.709776 81.985253 
C 73.08483 81.610199 73.295562 81.101445 73.295562 80.571039 
C 73.295562 80.040633 73.08483 79.531879 72.709776 79.156825 
C 72.334722 78.781772 71.825969 78.571039 71.295562 78.571039 
C 70.765156 78.571039 70.256403 78.781772 69.881349 79.156825 
C 69.506295 79.531879 69.295562 80.040633 69.295562 80.571039 
C 69.295562 81.101445 69.506295 81.610199 69.881349 81.985253 
C 70.256403 82.360306 70.765156 82.571039 71.295562 82.571039 
z
" clip-path="url(#pb60dcaa51b)" style="fill: #0173b2; fill-opacity: 0.2; stroke: #0173b2; stroke-opacity: 0.6; stroke-width: 0.75"/>
    <path d="M 108.712559 106.164791 
C 109.242965 106.164791 109.751718 105.954058 110.126772 105.579005 
C 110.501826 105.203951 110.712559 104.695197 110.712559 104.164791 
C 110.712559 103.634385 110.501826 103.125631 110.126772 102.750577 
C 109.751718 102.375524 109.242965 102.164791 108.712559 102.164791 
C 108.182153 102.164791 107.673399 102.375524 107.298345 102.750577 
C 106.923291 103.125631 106.712559 103.634385 106.712559 104.164791 
C 106.712559 104.695197 106.923291 105.203951 107.298345 105.579005 
C 107.673399 105.954058 108.182153 106.164791 108.712559 106.164791 
z
" clip-path="url(#pb60dcaa51b)" style="fill: #de8f05; fill-opacity: 0.2; stroke: #de8f05; stroke-opacity: 0.6; stroke-width: 0.75"/>
    <path d="M 111.564902 93.999263 
C 112.095308 93.999263 112.604061 93.78853 112.979115 93.413476 
C 113.354169 93.038422 113.564902 92.529669 113.564902 91.999263 
C 113.564902 91.468856 113.354169 90.960103 112.979115 90.585049 
C 112.604061 90.209995 112.095308 89.999263 111.564902 89.999263 
C 111.034495 89.999263 110.525742 90.209995 110.150688 90.585049 
C 109.775634 90.960103 109.564902 91.468856 109.564902 91.999263 
C 109.564902 92.529669 109.775634 93.038422 110.150688 93.413476 
C 110.525742 93.78853 111.034495 93.999263 111.564902 93.999263 
z
" clip-path="url(#pb60dcaa51b)" style="fill: #de8f05; fill-opacity: 0.2; stroke: #de8f05; stroke-opacity: 0.6; stroke-width: 0.75"/>
    <path d="M 109.728497 76.303949 
C 110.258903 76.303949 110.767656 76.093216 111.14271 75.718162 
C 111.517764 75.343108 111.728497 74.834355 111.728497 74.303949 
C 111.728497 73.773542 111.517764 73.264789 111.14271 72.889735 
C 110.767656 72.514681 110.258903 72.303949 109.728497 72.303949 
C 109.19809 72.303949 108.689337 72.514681 108.314283 72.889735 
C 107.939229 73.264789 107.728497 73.773542 107.728497 74.303949 
C 107.728497 74.834355 107.939229 75.343108 108.314283 75.718162 
C 108.689337 76.093216 109.19809 76.303949 109.728497 76.303949 
z
" clip-path="url(#pb60dcaa51b)" style="fill: #de8f05; fill-opacity: 0.2; stroke: #de8f05; stroke-opacity: 0.6; stroke-width: 0.75"/>
    <path d="M 109.09719 16.950916 
C 109.627597 16.950916 110.13635 16.740184 110.511404 16.36513 
C 110.886458 15.990076 111.09719 15.481322 111.09719 14.950916 
C 111.09719 14.42051 110.886458 13.911756 110.511404 13.536703 
C 110.13635 13.161649 109.627597 12.950916 109.09719 12.950916 
C 108.566784 12.950916 108.058031 13.161649 107.682977 13.536703 
C 107.307923 13.911756 107.09719 14.42051 107.09719 14.950916 
C 107.09719 15.481322 107.307923 15.990076 107.682977 16.36513 
C 108.058031 16.740184 108.566784 16.950916 109.09719 16.950916 
z
" clip-path="url(#pb60dcaa51b)" style="fill: #de8f05; fill-opacity: 0.2; stroke: #de8f05; stroke-opacity: 0.6; stroke-width: 0.75"/>
    <path d="M 108.327822 59.530266 
C 108.858228 59.530266 109.366981 59.319533 109.742035 58.944479 
C 110.117089 58.569425 110.327822 58.060672 110.327822 57.530266 
C 110.327822 56.999859 110.117089 56.491106 109.742035 56.116052 
C 109.366981 55.740998 108.858228 55.530266 108.327822 55.530266 
C 107.797415 55.530266 107.288662 55.740998 106.913608 56.116052 
C 106.538554 56.491106 106.327822 56.999859 106.327822 57.530266 
C 106.327822 58.060672 106.538554 58.569425 106.913608 58.944479 
C 107.288662 59.319533 107.797415 59.530266 108.327822 59.530266 
z
" clip-path="url(#pb60dcaa51b)" style="fill: #de8f05; fill-opacity: 0.2; stroke: #de8f05; stroke-opacity: 0.6; stroke-width: 0.75"/>
    <path d="M 112.07825 79.068841 
C 112.608656 79.068841 113.11741 78.858109 113.492463 78.483055 
C 113.867517 78.108001 114.07825 77.599248 114.07825 77.068841 
C 114.07825 76.538435 113.867517 76.029682 113.492463 75.654628 
C 113.11741 75.279574 112.608656 75.068841 112.07825 75.068841 
C 111.547844 75.068841 111.03909 75.279574 110.664036 75.654628 
C 110.288982 76.029682 110.07825 76.538435 110.07825 77.068841 
C 110.07825 77.599248 110.288982 78.108001 110.664036 78.483055 
C 111.03909 78.858109 111.547844 79.068841 112.07825 79.068841 
z
" clip-path="url(#pb60dcaa51b)" style="fill: #de8f05; fill-opacity: 0.2; stroke: #de8f05; stroke-opacity: 0.6; stroke-width: 0.75"/>
   </g>
   <g id="PathCollection_2">
    <path d="M 62.857 109.561031 
C 63.652609 109.561031 64.41574 109.244933 64.97832 108.682352 
C 65.540901 108.119771 65.857 107.356641 65.857 106.561031 
C 65.857 105.765422 65.540901 105.002292 64.97832 104.439711 
C 64.41574 103.87713 63.652609 103.561031 62.857 103.561031 
C 62.061391 103.561031 61.29826 103.87713 60.73568 104.439711 
C 60.173099 105.002292 59.857 105.765422 59.857 106.561031 
C 59.857 107.356641 60.173099 108.119771 60.73568 108.682352 
C 61.29826 109.244933 62.061391 109.561031 62.857 109.561031 
z
" clip-path="url(#pb60dcaa51b)" style="fill: #0173b2; stroke: #0173b2; stroke-width: 0.5"/>
    <path d="M 101.871375 73.003004 
C 102.666984 73.003004 103.430115 72.686905 103.992695 72.124325 
C 104.555276 71.561744 104.871375 70.798614 104.871375 70.003004 
C 104.871375 69.207395 104.555276 68.444265 103.992695 67.881684 
C 103.430115 67.319103 102.666984 67.003004 101.871375 67.003004 
C 101.075766 67.003004 100.312635 67.319103 99.750055 67.881684 
C 99.187474 68.444265 98.871375 69.207395 98.871375 70.003004 
C 98.871375 70.798614 99.187474 71.561744 99.750055 72.124325 
C 100.312635 72.686905 101.075766 73.003004 101.871375 73.003004 
z
" clip-path="url(#pb60dcaa51b)" style="fill: #de8f05; stroke: #de8f05; stroke-width: 0.5"/>
   </g>
   <g id="LineCollection_1">
    <path d="M 62.857 155.076721 
L 62.857 58.045342 
" clip-path="url(#pb60dcaa51b)" style="fill: none; stroke: #0173b2; stroke-width: 1.5; stroke-linecap: square"/>
    <path d="M 101.871375 101.325804 
L 101.871375 38.680205 
" clip-path="url(#pb60dcaa51b)" style="fill: none; stroke: #de8f05; stroke-width: 1.5; stroke-linecap: square"/>
   </g>
   <g id="patch_3">
    <path d="M 47.25125 177.720156 
L 47.25125 7.2 
" style="fill: none; stroke: #ffffff; stroke-width: 1.25; stroke-linejoin: miter; stroke-linecap: square"/>
   </g>
   <g id="patch_4">
    <path d="M 125.28 177.720156 
L 125.28 7.2 
" style="fill: none; stroke: #ffffff; stroke-width: 1.25; stroke-linejoin: miter; stroke-linecap: square"/>
   </g>
   <g id="patch_5">
    <path d="M 47.25125 177.720156 
L 125.28 177.720156 
" style="fill: none; stroke: #ffffff; stroke-width: 1.25; stroke-linejoin: miter; stroke-linecap: square"/>
   </g>
   <g id="patch_6">
    <path d="M 47.25125 7.2 
L 125.28 7.2 
" style="fill: none; stroke: #ffffff; stroke-width: 1.25; stroke-linejoin: miter; stroke-linecap: square"/>
   </g>
  </g>
  <g id="legend_1">
   <g id="patch_7">
    <path d="M 148.82 111.127031 
L 204.799688 111.127031 
Q 206.999687 111.127031 206.999687 108.927031 
L 206.999687 62.432969 
Q 206.999687 60.232969 204.799688 60.232969 
L 148.82 60.232969 
Q 146.62 60.232969 146.62 62.432969 
L 146.62 108.927031 
Q 146.62 111.127031 148.82 111.127031 
z
" style="fill: #eaeaf2; opacity: 0.8; stroke: #cccccc; stroke-linejoin: miter"/>
   </g>
   <g id="text_8">
    <!-- Tx -->
    <g style="fill: #262626" transform="translate(170.145156 73.222344) scale(0.12 -0.12)">
     <defs>
      <path id="ArialMT-78" d="M 47 0 
L 1259 1725 
L 138 3319 
L 841 3319 
L 1350 2541 
Q 1494 2319 1581 2169 
Q 1719 2375 1834 2534 
L 2394 3319 
L 3066 3319 
L 1919 1756 
L 3153 0 
L 2463 0 
L 1781 1031 
L 1600 1309 
L 728 0 
L 47 0 
z
" transform="scale(0.015625)"/>
     </defs>
     <use xlink:href="#ArialMT-54"/>
     <use xlink:href="#ArialMT-78" x="61.083984"/>
    </g>
   </g>
   <g id="PathCollection_3">
    <defs>
     <path id="m5f8d2f1399" d="M 0 2 
C 0.530406 2 1.03916 1.789267 1.414214 1.414214 
C 1.789267 1.03916 2 0.530406 2 0 
C 2 -0.530406 1.789267 -1.03916 1.414214 -1.414214 
C 1.03916 -1.789267 0.530406 -2 0 -2 
C -0.530406 -2 -1.03916 -1.789267 -1.414214 -1.414214 
C -1.789267 -1.03916 -2 -0.530406 -2 0 
C -2 0.530406 -1.789267 1.03916 -1.414214 1.414214 
C -1.03916 1.789267 -0.530406 2 0 2 
z
" style="stroke: #0173b2; stroke-opacity: 0.6; stroke-width: 0.75"/>
    </defs>
    <g>
     <use xlink:href="#m5f8d2f1399" x="162.02" y="86.093437" style="fill: #0173b2; fill-opacity: 0.2; stroke: #0173b2; stroke-opacity: 0.6; stroke-width: 0.75"/>
    </g>
   </g>
   <g id="PathCollection_4">
    <defs>
     <path id="m0f4f38c7eb" d="M 0 3 
C 0.795609 3 1.55874 2.683901 2.12132 2.12132 
C 2.683901 1.55874 3 0.795609 3 0 
C 3 -0.795609 2.683901 -1.55874 2.12132 -2.12132 
C 1.55874 -2.683901 0.795609 -3 0 -3 
C -0.795609 -3 -1.55874 -2.683901 -2.12132 -2.12132 
C -2.683901 -1.55874 -3 -0.795609 -3 0 
C -3 0.795609 -2.683901 1.55874 -2.12132 2.12132 
C -1.55874 2.683901 -0.795609 3 0 3 
z
" style="stroke: #0173b2; stroke-width: 0.5"/>
    </defs>
    <g>
     <use xlink:href="#m0f4f38c7eb" x="162.02" y="86.093437" style="fill: #0173b2; stroke: #0173b2; stroke-width: 0.5"/>
    </g>
   </g>
   <g id="text_9">
    <!-- FeS -->
    <g style="fill: #262626" transform="translate(181.82 88.980937) scale(0.11 -0.11)">
     <use xlink:href="#ArialMT-46"/>
     <use xlink:href="#ArialMT-65" x="61.083984"/>
     <use xlink:href="#ArialMT-53" x="116.699219"/>
    </g>
   </g>
   <g id="PathCollection_5">
    <defs>
     <path id="mf396f7fec7" d="M 0 2 
C 0.530406 2 1.03916 1.789267 1.414214 1.414214 
C 1.789267 1.03916 2 0.530406 2 0 
C 2 -0.530406 1.789267 -1.03916 1.414214 -1.414214 
C 1.03916 -1.789267 0.530406 -2 0 -2 
C -0.530406 -2 -1.03916 -1.789267 -1.414214 -1.414214 
C -1.789267 -1.03916 -2 -0.530406 -2 0 
C -2 0.530406 -1.789267 1.03916 -1.414214 1.414214 
C -1.03916 1.789267 -0.530406 2 0 2 
z
" style="stroke: #de8f05; stroke-opacity: 0.6; stroke-width: 0.75"/>
    </defs>
    <g>
     <use xlink:href="#mf396f7fec7" x="162.02" y="101.653281" style="fill: #de8f05; fill-opacity: 0.2; stroke: #de8f05; stroke-opacity: 0.6; stroke-width: 0.75"/>
    </g>
   </g>
   <g id="PathCollection_6">
    <defs>
     <path id="me8dfd7e290" d="M 0 3 
C 0.795609 3 1.55874 2.683901 2.12132 2.12132 
C 2.683901 1.55874 3 0.795609 3 0 
C 3 -0.795609 2.683901 -1.55874 2.12132 -2.12132 
C 1.55874 -2.683901 0.795609 -3 0 -3 
C -0.795609 -3 -1.55874 -2.683901 -2.12132 -2.12132 
C -2.683901 -1.55874 -3 -0.795609 -3 0 
C -3 0.795609 -2.683901 1.55874 -2.12132 2.12132 
C -1.55874 2.683901 -0.795609 3 0 3 
z
" style="stroke: #de8f05; stroke-width: 0.5"/>
    </defs>
    <g>
     <use xlink:href="#me8dfd7e290" x="162.02" y="101.653281" style="fill: #de8f05; stroke: #de8f05; stroke-width: 0.5"/>
    </g>
   </g>
   <g id="text_10">
    <!-- FeD -->
    <g style="fill: #262626" transform="translate(181.82 104.540781) scale(0.11 -0.11)">
     <use xlink:href="#ArialMT-46"/>
     <use xlink:href="#ArialMT-65" x="61.083984"/>
     <use xlink:href="#ArialMT-44" x="116.699219"/>
    </g>
   </g>
  </g>
 </g>
 <defs>
  <clipPath id="pb60dcaa51b">
   <rect x="47.25125" y="7.2" width="78.02875" height="170.520156"/>
  </clipPath>
 </defs>
</svg>
