<?xml version="1.0" encoding="utf-8" standalone="no"?>
<!DOCTYPE svg PUBLIC "-//W3C//DTD SVG 1.1//EN"
  "http://www.w3.org/Graphics/SVG/1.1/DTD/svg11.dtd">
<svg xmlns:xlink="http://www.w3.org/1999/xlink" width="349.559687pt" height="204.48pt" viewBox="0 0 349.559687 204.48" xmlns="http://www.w3.org/2000/svg" version="1.1">
 <metadata>
  <rdf:RDF xmlns:dc="http://purl.org/dc/elements/1.1/" xmlns:cc="http://creativecommons.org/ns#" xmlns:rdf="http://www.w3.org/1999/02/22-rdf-syntax-ns#">
   <cc:Work>
    <dc:type rdf:resource="http://purl.org/dc/dcmitype/StillImage"/>
    <dc:date>2023-06-02T17:23:02.396762</dc:date>
    <dc:format>image/svg+xml</dc:format>
    <dc:creator>
     <cc:Agent>
      <dc:title>Matplotlib v3.6.2, https://matplotlib.org/</dc:title>
     </cc:Agent>
    </dc:creator>
   </cc:Work>
  </rdf:RDF>
 </metadata>
 <defs>
  <style type="text/css">*{stroke-linejoin: round; stroke-linecap: butt}</style>
 </defs>
 <g id="figure_1">
  <g id="patch_1">
   <path d="M 0 204.48 
L 349.559687 204.48 
L 349.559687 0 
L 0 0 
z
" style="fill: #ffffff"/>
  </g>
  <g id="axes_1">
   <g id="patch_2">
    <path d="M 46.964375 177.720156 
L 140.775156 177.720156 
L 140.775156 21.789375 
L 46.964375 21.789375 
z
" style="fill: #eaeaf2"/>
   </g>
   <g id="matplotlib.axis_1">
    <g id="xtick_1">
     <g id="text_1">
      <!-- FeS -->
      <g style="fill: #262626" transform="translate(60.330586 195.09375) scale(0.11 -0.11)">
       <defs>
        <path id="ArialMT-46" d="M 525 0 
L 525 4581 
L 3616 4581 
L 3616 4041 
L 1131 4041 
L 1131 2622 
L 3281 2622 
L 3281 2081 
L 1131 2081 
L 1131 0 
L 525 0 
z
" transform="scale(0.015625)"/>
        <path id="ArialMT-65" d="M 2694 1069 
L 3275 997 
Q 3138 488 2766 206 
Q 2394 -75 1816 -75 
Q 1088 -75 661 373 
Q 234 822 234 1631 
Q 234 2469 665 2931 
Q 1097 3394 1784 3394 
Q 2450 3394 2872 2941 
Q 3294 2488 3294 1666 
Q 3294 1616 3291 1516 
L 816 1516 
Q 847 969 1125 678 
Q 1403 388 1819 388 
Q 2128 388 2347 550 
Q 2566 713 2694 1069 
z
M 847 1978 
L 2700 1978 
Q 2663 2397 2488 2606 
Q 2219 2931 1791 2931 
Q 1403 2931 1139 2672 
Q 875 2413 847 1978 
z
" transform="scale(0.015625)"/>
        <path id="ArialMT-53" d="M 288 1472 
L 859 1522 
Q 900 1178 1048 958 
Q 1197 738 1509 602 
Q 1822 466 2213 466 
Q 2559 466 2825 569 
Q 3091 672 3220 851 
Q 3350 1031 3350 1244 
Q 3350 1459 3225 1620 
Q 3100 1781 2813 1891 
Q 2628 1963 1997 2114 
Q 1366 2266 1113 2400 
Q 784 2572 623 2826 
Q 463 3081 463 3397 
Q 463 3744 659 4045 
Q 856 4347 1234 4503 
Q 1613 4659 2075 4659 
Q 2584 4659 2973 4495 
Q 3363 4331 3572 4012 
Q 3781 3694 3797 3291 
L 3216 3247 
Q 3169 3681 2898 3903 
Q 2628 4125 2100 4125 
Q 1550 4125 1298 3923 
Q 1047 3722 1047 3438 
Q 1047 3191 1225 3031 
Q 1400 2872 2139 2705 
Q 2878 2538 3153 2413 
Q 3553 2228 3743 1945 
Q 3934 1663 3934 1294 
Q 3934 928 3725 604 
Q 3516 281 3123 101 
Q 2731 -78 2241 -78 
Q 1619 -78 1198 103 
Q 778 284 539 648 
Q 300 1013 288 1472 
z
" transform="scale(0.015625)"/>
       </defs>
       <use xlink:href="#ArialMT-46"/>
       <use xlink:href="#ArialMT-65" x="61.083984"/>
       <use xlink:href="#ArialMT-53" x="116.699219"/>
      </g>
     </g>
    </g>
    <g id="xtick_2">
     <g id="text_2">
      <!-- FeD -->
      <g style="fill: #262626" transform="translate(106.932617 195.09375) scale(0.11 -0.11)">
       <defs>
        <path id="ArialMT-44" d="M 494 0 
L 494 4581 
L 2072 4581 
Q 2606 4581 2888 4516 
Q 3281 4425 3559 4188 
Q 3922 3881 4101 3404 
Q 4281 2928 4281 2316 
Q 4281 1794 4159 1391 
Q 4038 988 3847 723 
Q 3656 459 3429 307 
Q 3203 156 2883 78 
Q 2563 0 2147 0 
L 494 0 
z
M 1100 541 
L 2078 541 
Q 2531 541 2789 625 
Q 3047 709 3200 863 
Q 3416 1078 3536 1442 
Q 3656 1806 3656 2325 
Q 3656 3044 3420 3430 
Q 3184 3816 2847 3947 
Q 2603 4041 2063 4041 
L 1100 4041 
L 1100 541 
z
" transform="scale(0.015625)"/>
       </defs>
       <use xlink:href="#ArialMT-46"/>
       <use xlink:href="#ArialMT-65" x="61.083984"/>
       <use xlink:href="#ArialMT-44" x="116.699219"/>
      </g>
     </g>
    </g>
   </g>
   <g id="matplotlib.axis_2">
    <g id="ytick_1">
     <g id="line2d_1">
      <path d="M 46.964375 162.981227 
L 140.775156 162.981227 
" clip-path="url(#pf626b53d49)" style="fill: none; stroke: #ffffff; stroke-linecap: round"/>
     </g>
     <g id="text_3">
      <!-- 0.9 -->
      <g style="fill: #262626" transform="translate(22.174375 166.918023) scale(0.11 -0.11)">
       <defs>
        <path id="ArialMT-30" d="M 266 2259 
Q 266 3072 433 3567 
Q 600 4063 929 4331 
Q 1259 4600 1759 4600 
Q 2128 4600 2406 4451 
Q 2684 4303 2865 4023 
Q 3047 3744 3150 3342 
Q 3253 2941 3253 2259 
Q 3253 1453 3087 958 
Q 2922 463 2592 192 
Q 2263 -78 1759 -78 
Q 1097 -78 719 397 
Q 266 969 266 2259 
z
M 844 2259 
Q 844 1131 1108 757 
Q 1372 384 1759 384 
Q 2147 384 2411 759 
Q 2675 1134 2675 2259 
Q 2675 3391 2411 3762 
Q 2147 4134 1753 4134 
Q 1366 4134 1134 3806 
Q 844 3388 844 2259 
z
" transform="scale(0.015625)"/>
        <path id="ArialMT-2e" d="M 581 0 
L 581 641 
L 1222 641 
L 1222 0 
L 581 0 
z
" transform="scale(0.015625)"/>
        <path id="ArialMT-39" d="M 350 1059 
L 891 1109 
Q 959 728 1153 556 
Q 1347 384 1650 384 
Q 1909 384 2104 503 
Q 2300 622 2425 820 
Q 2550 1019 2634 1356 
Q 2719 1694 2719 2044 
Q 2719 2081 2716 2156 
Q 2547 1888 2255 1720 
Q 1963 1553 1622 1553 
Q 1053 1553 659 1965 
Q 266 2378 266 3053 
Q 266 3750 677 4175 
Q 1088 4600 1706 4600 
Q 2153 4600 2523 4359 
Q 2894 4119 3086 3673 
Q 3278 3228 3278 2384 
Q 3278 1506 3087 986 
Q 2897 466 2520 194 
Q 2144 -78 1638 -78 
Q 1100 -78 759 220 
Q 419 519 350 1059 
z
M 2653 3081 
Q 2653 3566 2395 3850 
Q 2138 4134 1775 4134 
Q 1400 4134 1122 3828 
Q 844 3522 844 3034 
Q 844 2597 1108 2323 
Q 1372 2050 1759 2050 
Q 2150 2050 2401 2323 
Q 2653 2597 2653 3081 
z
" transform="scale(0.015625)"/>
       </defs>
       <use xlink:href="#ArialMT-30"/>
       <use xlink:href="#ArialMT-2e" x="55.615234"/>
       <use xlink:href="#ArialMT-39" x="83.398438"/>
      </g>
     </g>
    </g>
    <g id="ytick_2">
     <g id="line2d_2">
      <path d="M 46.964375 135.158802 
L 140.775156 135.158802 
" clip-path="url(#pf626b53d49)" style="fill: none; stroke: #ffffff; stroke-linecap: round"/>
     </g>
     <g id="text_4">
      <!-- 1.0 -->
      <g style="fill: #262626" transform="translate(22.174375 139.095598) scale(0.11 -0.11)">
       <defs>
        <path id="ArialMT-31" d="M 2384 0 
L 1822 0 
L 1822 3584 
Q 1619 3391 1289 3197 
Q 959 3003 697 2906 
L 697 3450 
Q 1169 3672 1522 3987 
Q 1875 4303 2022 4600 
L 2384 4600 
L 2384 0 
z
" transform="scale(0.015625)"/>
       </defs>
       <use xlink:href="#ArialMT-31"/>
       <use xlink:href="#ArialMT-2e" x="55.615234"/>
       <use xlink:href="#ArialMT-30" x="83.398438"/>
      </g>
     </g>
    </g>
    <g id="ytick_3">
     <g id="line2d_3">
      <path d="M 46.964375 107.336376 
L 140.775156 107.336376 
" clip-path="url(#pf626b53d49)" style="fill: none; stroke: #ffffff; stroke-linecap: round"/>
     </g>
     <g id="text_5">
      <!-- 1.1 -->
      <g style="fill: #262626" transform="translate(22.174375 111.273173) scale(0.11 -0.11)">
       <use xlink:href="#ArialMT-31"/>
       <use xlink:href="#ArialMT-2e" x="55.615234"/>
       <use xlink:href="#ArialMT-31" x="83.398438"/>
      </g>
     </g>
    </g>
    <g id="ytick_4">
     <g id="line2d_4">
      <path d="M 46.964375 79.513951 
L 140.775156 79.513951 
" clip-path="url(#pf626b53d49)" style="fill: none; stroke: #ffffff; stroke-linecap: round"/>
     </g>
     <g id="text_6">
      <!-- 1.2 -->
      <g style="fill: #262626" transform="translate(22.174375 83.450748) scale(0.11 -0.11)">
       <defs>
        <path id="ArialMT-32" d="M 3222 541 
L 3222 0 
L 194 0 
Q 188 203 259 391 
Q 375 700 629 1000 
Q 884 1300 1366 1694 
Q 2113 2306 2375 2664 
Q 2638 3022 2638 3341 
Q 2638 3675 2398 3904 
Q 2159 4134 1775 4134 
Q 1369 4134 1125 3890 
Q 881 3647 878 3216 
L 300 3275 
Q 359 3922 746 4261 
Q 1134 4600 1788 4600 
Q 2447 4600 2831 4234 
Q 3216 3869 3216 3328 
Q 3216 3053 3103 2787 
Q 2991 2522 2730 2228 
Q 2469 1934 1863 1422 
Q 1356 997 1212 845 
Q 1069 694 975 541 
L 3222 541 
z
" transform="scale(0.015625)"/>
       </defs>
       <use xlink:href="#ArialMT-31"/>
       <use xlink:href="#ArialMT-2e" x="55.615234"/>
       <use xlink:href="#ArialMT-32" x="83.398438"/>
      </g>
     </g>
    </g>
    <g id="ytick_5">
     <g id="line2d_5">
      <path d="M 46.964375 51.691526 
L 140.775156 51.691526 
" clip-path="url(#pf626b53d49)" style="fill: none; stroke: #ffffff; stroke-linecap: round"/>
     </g>
     <g id="text_7">
      <!-- 1.3 -->
      <g style="fill: #262626" transform="translate(22.174375 55.628323) scale(0.11 -0.11)">
       <defs>
        <path id="ArialMT-33" d="M 269 1209 
L 831 1284 
Q 928 806 1161 595 
Q 1394 384 1728 384 
Q 2125 384 2398 659 
Q 2672 934 2672 1341 
Q 2672 1728 2419 1979 
Q 2166 2231 1775 2231 
Q 1616 2231 1378 2169 
L 1441 2663 
Q 1497 2656 1531 2656 
Q 1891 2656 2178 2843 
Q 2466 3031 2466 3422 
Q 2466 3731 2256 3934 
Q 2047 4138 1716 4138 
Q 1388 4138 1169 3931 
Q 950 3725 888 3313 
L 325 3413 
Q 428 3978 793 4289 
Q 1159 4600 1703 4600 
Q 2078 4600 2393 4439 
Q 2709 4278 2876 4000 
Q 3044 3722 3044 3409 
Q 3044 3113 2884 2869 
Q 2725 2625 2413 2481 
Q 2819 2388 3044 2092 
Q 3269 1797 3269 1353 
Q 3269 753 2831 336 
Q 2394 -81 1725 -81 
Q 1122 -81 723 278 
Q 325 638 269 1209 
z
" transform="scale(0.015625)"/>
       </defs>
       <use xlink:href="#ArialMT-31"/>
       <use xlink:href="#ArialMT-2e" x="55.615234"/>
       <use xlink:href="#ArialMT-33" x="83.398438"/>
      </g>
     </g>
    </g>
    <g id="ytick_6">
     <g id="line2d_6">
      <path d="M 46.964375 23.869101 
L 140.775156 23.869101 
" clip-path="url(#pf626b53d49)" style="fill: none; stroke: #ffffff; stroke-linecap: round"/>
     </g>
     <g id="text_8">
      <!-- 1.4 -->
      <g style="fill: #262626" transform="translate(22.174375 27.805898) scale(0.11 -0.11)">
       <defs>
        <path id="ArialMT-34" d="M 2069 0 
L 2069 1097 
L 81 1097 
L 81 1613 
L 2172 4581 
L 2631 4581 
L 2631 1613 
L 3250 1613 
L 3250 1097 
L 2631 1097 
L 2631 0 
L 2069 0 
z
M 2069 1613 
L 2069 3678 
L 634 1613 
L 2069 1613 
z
" transform="scale(0.015625)"/>
       </defs>
       <use xlink:href="#ArialMT-31"/>
       <use xlink:href="#ArialMT-2e" x="55.615234"/>
       <use xlink:href="#ArialMT-34" x="83.398438"/>
      </g>
     </g>
    </g>
    <g id="text_9">
     <!-- Abs -->
     <g style="fill: #262626" transform="translate(15.789375 110.093516) rotate(-90) scale(0.12 -0.12)">
      <defs>
       <path id="ArialMT-41" d="M -9 0 
L 1750 4581 
L 2403 4581 
L 4278 0 
L 3588 0 
L 3053 1388 
L 1138 1388 
L 634 0 
L -9 0 
z
M 1313 1881 
L 2866 1881 
L 2388 3150 
Q 2169 3728 2063 4100 
Q 1975 3659 1816 3225 
L 1313 1881 
z
" transform="scale(0.015625)"/>
       <path id="ArialMT-62" d="M 941 0 
L 419 0 
L 419 4581 
L 981 4581 
L 981 2947 
Q 1338 3394 1891 3394 
Q 2197 3394 2470 3270 
Q 2744 3147 2920 2923 
Q 3097 2700 3197 2384 
Q 3297 2069 3297 1709 
Q 3297 856 2875 390 
Q 2453 -75 1863 -75 
Q 1275 -75 941 416 
L 941 0 
z
M 934 1684 
Q 934 1088 1097 822 
Q 1363 388 1816 388 
Q 2184 388 2453 708 
Q 2722 1028 2722 1663 
Q 2722 2313 2464 2622 
Q 2206 2931 1841 2931 
Q 1472 2931 1203 2611 
Q 934 2291 934 1684 
z
" transform="scale(0.015625)"/>
       <path id="ArialMT-73" d="M 197 991 
L 753 1078 
Q 800 744 1014 566 
Q 1228 388 1613 388 
Q 2000 388 2187 545 
Q 2375 703 2375 916 
Q 2375 1106 2209 1216 
Q 2094 1291 1634 1406 
Q 1016 1563 777 1677 
Q 538 1791 414 1992 
Q 291 2194 291 2438 
Q 291 2659 392 2848 
Q 494 3038 669 3163 
Q 800 3259 1026 3326 
Q 1253 3394 1513 3394 
Q 1903 3394 2198 3281 
Q 2494 3169 2634 2976 
Q 2775 2784 2828 2463 
L 2278 2388 
Q 2241 2644 2061 2787 
Q 1881 2931 1553 2931 
Q 1166 2931 1000 2803 
Q 834 2675 834 2503 
Q 834 2394 903 2306 
Q 972 2216 1119 2156 
Q 1203 2125 1616 2013 
Q 2213 1853 2448 1751 
Q 2684 1650 2818 1456 
Q 2953 1263 2953 975 
Q 2953 694 2789 445 
Q 2625 197 2315 61 
Q 2006 -75 1616 -75 
Q 969 -75 630 194 
Q 291 463 197 991 
z
" transform="scale(0.015625)"/>
      </defs>
      <use xlink:href="#ArialMT-41"/>
      <use xlink:href="#ArialMT-62" x="66.699219"/>
      <use xlink:href="#ArialMT-73" x="122.314453"/>
     </g>
    </g>
   </g>
   <g id="PathCollection_1">
    <path d="M 75.870542 105.023901 
C 76.400948 105.023901 76.909702 104.813168 77.284756 104.438114 
C 77.65981 104.06306 77.870542 103.554307 77.870542 103.023901 
C 77.870542 102.493494 77.65981 101.984741 77.284756 101.609687 
C 76.909702 101.234633 76.400948 101.023901 75.870542 101.023901 
C 75.340136 101.023901 74.831383 101.234633 74.456329 101.609687 
C 74.081275 101.984741 73.870542 102.493494 73.870542 103.023901 
C 73.870542 103.554307 74.081275 104.06306 74.456329 104.438114 
C 74.831383 104.813168 75.340136 105.023901 75.870542 105.023901 
z
" clip-path="url(#pf626b53d49)" style="fill: #0173b2; fill-opacity: 0.2; stroke: #0173b2; stroke-opacity: 0.6; stroke-width: 0.75"/>
    <path d="M 73.103503 124.360486 
C 73.633909 124.360486 74.142662 124.149753 74.517716 123.7747 
C 74.89277 123.399646 75.103503 122.890892 75.103503 122.360486 
C 75.103503 121.83008 74.89277 121.321326 74.517716 120.946272 
C 74.142662 120.571219 73.633909 120.360486 73.103503 120.360486 
C 72.573096 120.360486 72.064343 120.571219 71.689289 120.946272 
C 71.314235 121.321326 71.103503 121.83008 71.103503 122.360486 
C 71.103503 122.890892 71.314235 123.399646 71.689289 123.7747 
C 72.064343 124.149753 72.573096 124.360486 73.103503 124.360486 
z
" clip-path="url(#pf626b53d49)" style="fill: #0173b2; fill-opacity: 0.2; stroke: #0173b2; stroke-opacity: 0.6; stroke-width: 0.75"/>
    <path d="M 75.431565 108.084367 
C 75.961971 108.084367 76.470724 107.873635 76.845778 107.498581 
C 77.220832 107.123527 77.431565 106.614774 77.431565 106.084367 
C 77.431565 105.553961 77.220832 105.045208 76.845778 104.670154 
C 76.470724 104.2951 75.961971 104.084367 75.431565 104.084367 
C 74.901158 104.084367 74.392405 104.2951 74.017351 104.670154 
C 73.642297 105.045208 73.431565 105.553961 73.431565 106.084367 
C 73.431565 106.614774 73.642297 107.123527 74.017351 107.498581 
C 74.392405 107.873635 74.901158 108.084367 75.431565 108.084367 
z
" clip-path="url(#pf626b53d49)" style="fill: #0173b2; fill-opacity: 0.2; stroke: #0173b2; stroke-opacity: 0.6; stroke-width: 0.75"/>
    <path d="M 73.224563 110.86661 
C 73.75497 110.86661 74.263723 110.655877 74.638777 110.280823 
C 75.013831 109.90577 75.224563 109.397016 75.224563 108.86661 
C 75.224563 108.336204 75.013831 107.82745 74.638777 107.452396 
C 74.263723 107.077342 73.75497 106.86661 73.224563 106.86661 
C 72.694157 106.86661 72.185404 107.077342 71.81035 107.452396 
C 71.435296 107.82745 71.224563 108.336204 71.224563 108.86661 
C 71.224563 109.397016 71.435296 109.90577 71.81035 110.280823 
C 72.185404 110.655877 72.694157 110.86661 73.224563 110.86661 
z
" clip-path="url(#pf626b53d49)" style="fill: #0173b2; fill-opacity: 0.2; stroke: #0173b2; stroke-opacity: 0.6; stroke-width: 0.75"/>
    <path d="M 73.236374 147.313987 
C 73.76678 147.313987 74.275534 147.103254 74.650588 146.7282 
C 75.025642 146.353146 75.236374 145.844393 75.236374 145.313987 
C 75.236374 144.78358 75.025642 144.274827 74.650588 143.899773 
C 74.275534 143.524719 73.76678 143.313987 73.236374 143.313987 
C 72.705968 143.313987 72.197214 143.524719 71.822161 143.899773 
C 71.447107 144.274827 71.236374 144.78358 71.236374 145.313987 
C 71.236374 145.844393 71.447107 146.353146 71.822161 146.7282 
C 72.197214 147.103254 72.705968 147.313987 73.236374 147.313987 
z
" clip-path="url(#pf626b53d49)" style="fill: #0173b2; fill-opacity: 0.2; stroke: #0173b2; stroke-opacity: 0.6; stroke-width: 0.75"/>
    <path d="M 76.086702 172.632393 
C 76.617109 172.632393 77.125862 172.421661 77.500916 172.046607 
C 77.87597 171.671553 78.086702 171.1628 78.086702 170.632393 
C 78.086702 170.101987 77.87597 169.593234 77.500916 169.21818 
C 77.125862 168.843126 76.617109 168.632393 76.086702 168.632393 
C 75.556296 168.632393 75.047543 168.843126 74.672489 169.21818 
C 74.297435 169.593234 74.086702 170.101987 74.086702 170.632393 
C 74.086702 171.1628 74.297435 171.671553 74.672489 172.046607 
C 75.047543 172.421661 75.556296 172.632393 76.086702 172.632393 
z
" clip-path="url(#pf626b53d49)" style="fill: #0173b2; fill-opacity: 0.2; stroke: #0173b2; stroke-opacity: 0.6; stroke-width: 0.75"/>
    <path d="M 123.200494 97.79007 
C 123.7309 97.79007 124.239654 97.579337 124.614707 97.204284 
C 124.989761 96.82923 125.200494 96.320476 125.200494 95.79007 
C 125.200494 95.259664 124.989761 94.75091 124.614707 94.375856 
C 124.239654 94.000803 123.7309 93.79007 123.200494 93.79007 
C 122.670088 93.79007 122.161334 94.000803 121.78628 94.375856 
C 121.411227 94.75091 121.200494 95.259664 121.200494 95.79007 
C 121.200494 96.320476 121.411227 96.82923 121.78628 97.204284 
C 122.161334 97.579337 122.670088 97.79007 123.200494 97.79007 
z
" clip-path="url(#pf626b53d49)" style="fill: #de8f05; fill-opacity: 0.2; stroke: #de8f05; stroke-opacity: 0.6; stroke-width: 0.75"/>
    <path d="M 121.863668 104.467452 
C 122.394074 104.467452 122.902828 104.256719 123.277881 103.881666 
C 123.652935 103.506612 123.863668 102.997858 123.863668 102.467452 
C 123.863668 101.937046 123.652935 101.428292 123.277881 101.053239 
C 122.902828 100.678185 122.394074 100.467452 121.863668 100.467452 
C 121.333262 100.467452 120.824508 100.678185 120.449454 101.053239 
C 120.0744 101.428292 119.863668 101.937046 119.863668 102.467452 
C 119.863668 102.997858 120.0744 103.506612 120.449454 103.881666 
C 120.824508 104.256719 121.333262 104.467452 121.863668 104.467452 
z
" clip-path="url(#pf626b53d49)" style="fill: #de8f05; fill-opacity: 0.2; stroke: #de8f05; stroke-opacity: 0.6; stroke-width: 0.75"/>
    <path d="M 122.805311 101.128761 
C 123.335717 101.128761 123.844471 100.918028 124.219525 100.542975 
C 124.594578 100.167921 124.805311 99.659167 124.805311 99.128761 
C 124.805311 98.598355 124.594578 98.089601 124.219525 97.714547 
C 123.844471 97.339494 123.335717 97.128761 122.805311 97.128761 
C 122.274905 97.128761 121.766151 97.339494 121.391098 97.714547 
C 121.016044 98.089601 120.805311 98.598355 120.805311 99.128761 
C 120.805311 99.659167 121.016044 100.167921 121.391098 100.542975 
C 121.766151 100.918028 122.274905 101.128761 122.805311 101.128761 
z
" clip-path="url(#pf626b53d49)" style="fill: #de8f05; fill-opacity: 0.2; stroke: #de8f05; stroke-opacity: 0.6; stroke-width: 0.75"/>
    <path d="M 125.389141 125.334271 
C 125.919547 125.334271 126.4283 125.123538 126.803354 124.748484 
C 127.178408 124.373431 127.389141 123.864677 127.389141 123.334271 
C 127.389141 122.803865 127.178408 122.295111 126.803354 121.920057 
C 126.4283 121.545003 125.919547 121.334271 125.389141 121.334271 
C 124.858734 121.334271 124.349981 121.545003 123.974927 121.920057 
C 123.599873 122.295111 123.389141 122.803865 123.389141 123.334271 
C 123.389141 123.864677 123.599873 124.373431 123.974927 124.748484 
C 124.349981 125.123538 124.858734 125.334271 125.389141 125.334271 
z
" clip-path="url(#pf626b53d49)" style="fill: #de8f05; fill-opacity: 0.2; stroke: #de8f05; stroke-opacity: 0.6; stroke-width: 0.75"/>
    <path d="M 123.959502 150.79179 
C 124.489908 150.79179 124.998662 150.581057 125.373716 150.206003 
C 125.748769 149.83095 125.959502 149.322196 125.959502 148.79179 
C 125.959502 148.261384 125.748769 147.75263 125.373716 147.377576 
C 124.998662 147.002522 124.489908 146.79179 123.959502 146.79179 
C 123.429096 146.79179 122.920342 147.002522 122.545288 147.377576 
C 122.170235 147.75263 121.959502 148.261384 121.959502 148.79179 
C 121.959502 149.322196 122.170235 149.83095 122.545288 150.206003 
C 122.920342 150.581057 123.429096 150.79179 123.959502 150.79179 
z
" clip-path="url(#pf626b53d49)" style="fill: #de8f05; fill-opacity: 0.2; stroke: #de8f05; stroke-opacity: 0.6; stroke-width: 0.75"/>
    <path d="M 119.19473 30.877138 
C 119.725136 30.877138 120.23389 30.666405 120.608943 30.291351 
C 120.983997 29.916298 121.19473 29.407544 121.19473 28.877138 
C 121.19473 28.346732 120.983997 27.837978 120.608943 27.462924 
C 120.23389 27.08787 119.725136 26.877138 119.19473 26.877138 
C 118.664324 26.877138 118.15557 27.08787 117.780516 27.462924 
C 117.405462 27.837978 117.19473 28.346732 117.19473 28.877138 
C 117.19473 29.407544 117.405462 29.916298 117.780516 30.291351 
C 118.15557 30.666405 118.664324 30.877138 119.19473 30.877138 
z
" clip-path="url(#pf626b53d49)" style="fill: #de8f05; fill-opacity: 0.2; stroke: #de8f05; stroke-opacity: 0.6; stroke-width: 0.75"/>
   </g>
   <g id="PathCollection_2">
    <path d="M 65.726531 129.046957 
C 66.522141 129.046957 67.285271 128.730858 67.847852 128.168278 
C 68.410432 127.605697 68.726531 126.842567 68.726531 126.046957 
C 68.726531 125.251348 68.410432 124.488218 67.847852 123.925637 
C 67.285271 123.363056 66.522141 123.046957 65.726531 123.046957 
C 64.930922 123.046957 64.167792 123.363056 63.605211 123.925637 
C 63.04263 124.488218 62.726531 125.251348 62.726531 126.046957 
C 62.726531 126.842567 63.04263 127.605697 63.605211 128.168278 
C 64.167792 128.730858 64.930922 129.046957 65.726531 129.046957 
z
" clip-path="url(#pf626b53d49)" style="fill: #0173b2; stroke: #0173b2; stroke-width: 0.5"/>
    <path d="M 112.631922 102.73158 
C 113.427531 102.73158 114.190661 102.415481 114.753242 101.852901 
C 115.315823 101.29032 115.631922 100.52719 115.631922 99.73158 
C 115.631922 98.935971 115.315823 98.172841 114.753242 97.61026 
C 114.190661 97.047679 113.427531 96.73158 112.631922 96.73158 
C 111.836313 96.73158 111.073182 97.047679 110.510602 97.61026 
C 109.948021 98.172841 109.631922 98.935971 109.631922 99.73158 
C 109.631922 100.52719 109.948021 101.29032 110.510602 101.852901 
C 111.073182 102.415481 111.836313 102.73158 112.631922 102.73158 
z
" clip-path="url(#pf626b53d49)" style="fill: #de8f05; stroke: #de8f05; stroke-width: 0.5"/>
   </g>
   <g id="LineCollection_1">
    <path d="M 65.726531 152.866354 
L 65.726531 99.227561 
" clip-path="url(#pf626b53d49)" style="fill: none; stroke: #0173b2; stroke-width: 1.5; stroke-linecap: square"/>
    <path d="M 112.631922 139.750893 
L 112.631922 59.712267 
" clip-path="url(#pf626b53d49)" style="fill: none; stroke: #de8f05; stroke-width: 1.5; stroke-linecap: square"/>
   </g>
   <g id="patch_3">
    <path d="M 46.964375 177.720156 
L 46.964375 21.789375 
" style="fill: none; stroke: #ffffff; stroke-width: 1.25; stroke-linejoin: miter; stroke-linecap: square"/>
   </g>
   <g id="patch_4">
    <path d="M 140.775156 177.720156 
L 140.775156 21.789375 
" style="fill: none; stroke: #ffffff; stroke-width: 1.25; stroke-linejoin: miter; stroke-linecap: square"/>
   </g>
   <g id="patch_5">
    <path d="M 46.964375 177.720156 
L 140.775156 177.720156 
" style="fill: none; stroke: #ffffff; stroke-width: 1.25; stroke-linejoin: miter; stroke-linecap: square"/>
   </g>
   <g id="patch_6">
    <path d="M 46.964375 21.789375 
L 140.775156 21.789375 
" style="fill: none; stroke: #ffffff; stroke-width: 1.25; stroke-linejoin: miter; stroke-linecap: square"/>
   </g>
   <g id="text_10">
    <!-- T3 -->
    <g style="fill: #262626" transform="translate(86.868516 15.789375) scale(0.12 -0.12)">
     <defs>
      <path id="ArialMT-54" d="M 1659 0 
L 1659 4041 
L 150 4041 
L 150 4581 
L 3781 4581 
L 3781 4041 
L 2266 4041 
L 2266 0 
L 1659 0 
z
" transform="scale(0.015625)"/>
     </defs>
     <use xlink:href="#ArialMT-54"/>
     <use xlink:href="#ArialMT-33" x="61.083984"/>
    </g>
   </g>
  </g>
  <g id="axes_2">
   <g id="patch_7">
    <path d="M 175.469219 177.720156 
L 269.28 177.720156 
L 269.28 21.789375 
L 175.469219 21.789375 
z
" style="fill: #eaeaf2"/>
   </g>
   <g id="matplotlib.axis_3">
    <g id="xtick_3">
     <g id="text_11">
      <!-- FeS -->
      <g style="fill: #262626" transform="translate(188.83543 195.09375) scale(0.11 -0.11)">
       <use xlink:href="#ArialMT-46"/>
       <use xlink:href="#ArialMT-65" x="61.083984"/>
       <use xlink:href="#ArialMT-53" x="116.699219"/>
      </g>
     </g>
    </g>
    <g id="xtick_4">
     <g id="text_12">
      <!-- FeD -->
      <g style="fill: #262626" transform="translate(235.437461 195.09375) scale(0.11 -0.11)">
       <use xlink:href="#ArialMT-46"/>
       <use xlink:href="#ArialMT-65" x="61.083984"/>
       <use xlink:href="#ArialMT-44" x="116.699219"/>
      </g>
     </g>
    </g>
   </g>
   <g id="matplotlib.axis_4">
    <g id="ytick_7">
     <g id="line2d_7">
      <path d="M 175.469219 157.792952 
L 269.28 157.792952 
" clip-path="url(#p28af53812b)" style="fill: none; stroke: #ffffff; stroke-linecap: round"/>
     </g>
     <g id="text_13">
      <!-- 5 -->
      <g style="fill: #262626" transform="translate(159.852187 161.729749) scale(0.11 -0.11)">
       <defs>
        <path id="ArialMT-35" d="M 266 1200 
L 856 1250 
Q 922 819 1161 601 
Q 1400 384 1738 384 
Q 2144 384 2425 690 
Q 2706 997 2706 1503 
Q 2706 1984 2436 2262 
Q 2166 2541 1728 2541 
Q 1456 2541 1237 2417 
Q 1019 2294 894 2097 
L 366 2166 
L 809 4519 
L 3088 4519 
L 3088 3981 
L 1259 3981 
L 1013 2750 
Q 1425 3038 1878 3038 
Q 2478 3038 2890 2622 
Q 3303 2206 3303 1553 
Q 3303 931 2941 478 
Q 2500 -78 1738 -78 
Q 1113 -78 717 272 
Q 322 622 266 1200 
z
" transform="scale(0.015625)"/>
       </defs>
       <use xlink:href="#ArialMT-35"/>
      </g>
     </g>
    </g>
    <g id="ytick_8">
     <g id="line2d_8">
      <path d="M 175.469219 131.72302 
L 269.28 131.72302 
" clip-path="url(#p28af53812b)" style="fill: none; stroke: #ffffff; stroke-linecap: round"/>
     </g>
     <g id="text_14">
      <!-- 6 -->
      <g style="fill: #262626" transform="translate(159.852187 135.659817) scale(0.11 -0.11)">
       <defs>
        <path id="ArialMT-36" d="M 3184 3459 
L 2625 3416 
Q 2550 3747 2413 3897 
Q 2184 4138 1850 4138 
Q 1581 4138 1378 3988 
Q 1113 3794 959 3422 
Q 806 3050 800 2363 
Q 1003 2672 1297 2822 
Q 1591 2972 1913 2972 
Q 2475 2972 2870 2558 
Q 3266 2144 3266 1488 
Q 3266 1056 3080 686 
Q 2894 316 2569 119 
Q 2244 -78 1831 -78 
Q 1128 -78 684 439 
Q 241 956 241 2144 
Q 241 3472 731 4075 
Q 1159 4600 1884 4600 
Q 2425 4600 2770 4297 
Q 3116 3994 3184 3459 
z
M 888 1484 
Q 888 1194 1011 928 
Q 1134 663 1356 523 
Q 1578 384 1822 384 
Q 2178 384 2434 671 
Q 2691 959 2691 1453 
Q 2691 1928 2437 2201 
Q 2184 2475 1800 2475 
Q 1419 2475 1153 2201 
Q 888 1928 888 1484 
z
" transform="scale(0.015625)"/>
       </defs>
       <use xlink:href="#ArialMT-36"/>
      </g>
     </g>
    </g>
    <g id="ytick_9">
     <g id="line2d_9">
      <path d="M 175.469219 105.653088 
L 269.28 105.653088 
" clip-path="url(#p28af53812b)" style="fill: none; stroke: #ffffff; stroke-linecap: round"/>
     </g>
     <g id="text_15">
      <!-- 7 -->
      <g style="fill: #262626" transform="translate(159.852187 109.589885) scale(0.11 -0.11)">
       <defs>
        <path id="ArialMT-37" d="M 303 3981 
L 303 4522 
L 3269 4522 
L 3269 4084 
Q 2831 3619 2401 2847 
Q 1972 2075 1738 1259 
Q 1569 684 1522 0 
L 944 0 
Q 953 541 1156 1306 
Q 1359 2072 1739 2783 
Q 2119 3494 2547 3981 
L 303 3981 
z
" transform="scale(0.015625)"/>
       </defs>
       <use xlink:href="#ArialMT-37"/>
      </g>
     </g>
    </g>
    <g id="ytick_10">
     <g id="line2d_10">
      <path d="M 175.469219 79.583156 
L 269.28 79.583156 
" clip-path="url(#p28af53812b)" style="fill: none; stroke: #ffffff; stroke-linecap: round"/>
     </g>
     <g id="text_16">
      <!-- 8 -->
      <g style="fill: #262626" transform="translate(159.852187 83.519953) scale(0.11 -0.11)">
       <defs>
        <path id="ArialMT-38" d="M 1131 2484 
Q 781 2613 612 2850 
Q 444 3088 444 3419 
Q 444 3919 803 4259 
Q 1163 4600 1759 4600 
Q 2359 4600 2725 4251 
Q 3091 3903 3091 3403 
Q 3091 3084 2923 2848 
Q 2756 2613 2416 2484 
Q 2838 2347 3058 2040 
Q 3278 1734 3278 1309 
Q 3278 722 2862 322 
Q 2447 -78 1769 -78 
Q 1091 -78 675 323 
Q 259 725 259 1325 
Q 259 1772 486 2073 
Q 713 2375 1131 2484 
z
M 1019 3438 
Q 1019 3113 1228 2906 
Q 1438 2700 1772 2700 
Q 2097 2700 2305 2904 
Q 2513 3109 2513 3406 
Q 2513 3716 2298 3927 
Q 2084 4138 1766 4138 
Q 1444 4138 1231 3931 
Q 1019 3725 1019 3438 
z
M 838 1322 
Q 838 1081 952 856 
Q 1066 631 1291 507 
Q 1516 384 1775 384 
Q 2178 384 2440 643 
Q 2703 903 2703 1303 
Q 2703 1709 2433 1975 
Q 2163 2241 1756 2241 
Q 1359 2241 1098 1978 
Q 838 1716 838 1322 
z
" transform="scale(0.015625)"/>
       </defs>
       <use xlink:href="#ArialMT-38"/>
      </g>
     </g>
    </g>
    <g id="ytick_11">
     <g id="line2d_11">
      <path d="M 175.469219 53.513224 
L 269.28 53.513224 
" clip-path="url(#p28af53812b)" style="fill: none; stroke: #ffffff; stroke-linecap: round"/>
     </g>
     <g id="text_17">
      <!-- 9 -->
      <g style="fill: #262626" transform="translate(159.852187 57.45002) scale(0.11 -0.11)">
       <use xlink:href="#ArialMT-39"/>
      </g>
     </g>
    </g>
    <g id="ytick_12">
     <g id="line2d_12">
      <path d="M 175.469219 27.443292 
L 269.28 27.443292 
" clip-path="url(#p28af53812b)" style="fill: none; stroke: #ffffff; stroke-linecap: round"/>
     </g>
     <g id="text_18">
      <!-- 10 -->
      <g style="fill: #262626" transform="translate(153.735156 31.380088) scale(0.11 -0.11)">
       <use xlink:href="#ArialMT-31"/>
       <use xlink:href="#ArialMT-30" x="55.615234"/>
      </g>
     </g>
    </g>
   </g>
   <g id="PathCollection_3">
    <path d="M 203.481102 68.847994 
C 204.011508 68.847994 204.520262 68.637261 204.895315 68.262207 
C 205.270369 67.887154 205.481102 67.3784 205.481102 66.847994 
C 205.481102 66.317588 205.270369 65.808834 204.895315 65.43378 
C 204.520262 65.058726 204.011508 64.847994 203.481102 64.847994 
C 202.950696 64.847994 202.441942 65.058726 202.066888 65.43378 
C 201.691834 65.808834 201.481102 66.317588 201.481102 66.847994 
C 201.481102 67.3784 201.691834 67.887154 202.066888 68.262207 
C 202.441942 68.637261 202.950696 68.847994 203.481102 68.847994 
z
" clip-path="url(#p28af53812b)" style="fill: #0173b2; fill-opacity: 0.2; stroke: #0173b2; stroke-opacity: 0.6; stroke-width: 0.75"/>
    <path d="M 200.899387 157.159889 
C 201.429793 157.159889 201.938546 156.949156 202.3136 156.574102 
C 202.688654 156.199049 202.899387 155.690295 202.899387 155.159889 
C 202.899387 154.629483 202.688654 154.120729 202.3136 153.745675 
C 201.938546 153.370621 201.429793 153.159889 200.899387 153.159889 
C 200.36898 153.159889 199.860227 153.370621 199.485173 153.745675 
C 199.110119 154.120729 198.899387 154.629483 198.899387 155.159889 
C 198.899387 155.690295 199.110119 156.199049 199.485173 156.574102 
C 199.860227 156.949156 200.36898 157.159889 200.899387 157.159889 
z
" clip-path="url(#p28af53812b)" style="fill: #0173b2; fill-opacity: 0.2; stroke: #0173b2; stroke-opacity: 0.6; stroke-width: 0.75"/>
    <path d="M 205.47291 125.641341 
C 206.003316 125.641341 206.51207 125.430608 206.887124 125.055554 
C 207.262178 124.680501 207.47291 124.171747 207.47291 123.641341 
C 207.47291 123.110935 207.262178 122.602181 206.887124 122.227127 
C 206.51207 121.852074 206.003316 121.641341 205.47291 121.641341 
C 204.942504 121.641341 204.43375 121.852074 204.058697 122.227127 
C 203.683643 122.602181 203.47291 123.110935 203.47291 123.641341 
C 203.47291 124.171747 203.683643 124.680501 204.058697 125.055554 
C 204.43375 125.430608 204.942504 125.641341 205.47291 125.641341 
z
" clip-path="url(#p28af53812b)" style="fill: #0173b2; fill-opacity: 0.2; stroke: #0173b2; stroke-opacity: 0.6; stroke-width: 0.75"/>
    <path d="M 207.139758 167.144673 
C 207.670164 167.144673 208.178918 166.93394 208.553972 166.558886 
C 208.929026 166.183833 209.139758 165.675079 209.139758 165.144673 
C 209.139758 164.614267 208.929026 164.105513 208.553972 163.730459 
C 208.178918 163.355405 207.670164 163.144673 207.139758 163.144673 
C 206.609352 163.144673 206.100598 163.355405 205.725545 163.730459 
C 205.350491 164.105513 205.139758 164.614267 205.139758 165.144673 
C 205.139758 165.675079 205.350491 166.183833 205.725545 166.558886 
C 206.100598 166.93394 206.609352 167.144673 207.139758 167.144673 
z
" clip-path="url(#p28af53812b)" style="fill: #0173b2; fill-opacity: 0.2; stroke: #0173b2; stroke-opacity: 0.6; stroke-width: 0.75"/>
    <path d="M 201.738681 35.830425 
C 202.269087 35.830425 202.777841 35.619692 203.152895 35.244638 
C 203.527949 34.869585 203.738681 34.360831 203.738681 33.830425 
C 203.738681 33.300019 203.527949 32.791265 203.152895 32.416211 
C 202.777841 32.041157 202.269087 31.830425 201.738681 31.830425 
C 201.208275 31.830425 200.699521 32.041157 200.324468 32.416211 
C 199.949414 32.791265 199.738681 33.300019 199.738681 33.830425 
C 199.738681 34.360831 199.949414 34.869585 200.324468 35.244638 
C 200.699521 35.619692 201.208275 35.830425 201.738681 35.830425 
z
" clip-path="url(#p28af53812b)" style="fill: #0173b2; fill-opacity: 0.2; stroke: #0173b2; stroke-opacity: 0.6; stroke-width: 0.75"/>
    <path d="M 204.71892 37.968159 
C 205.249326 37.968159 205.75808 37.757427 206.133133 37.382373 
C 206.508187 37.007319 206.71892 36.498566 206.71892 35.968159 
C 206.71892 35.437753 206.508187 34.929 206.133133 34.553946 
C 205.75808 34.178892 205.249326 33.968159 204.71892 33.968159 
C 204.188514 33.968159 203.67976 34.178892 203.304706 34.553946 
C 202.929652 34.929 202.71892 35.437753 202.71892 35.968159 
C 202.71892 36.498566 202.929652 37.007319 203.304706 37.382373 
C 203.67976 37.757427 204.188514 37.968159 204.71892 37.968159 
z
" clip-path="url(#p28af53812b)" style="fill: #0173b2; fill-opacity: 0.2; stroke: #0173b2; stroke-opacity: 0.6; stroke-width: 0.75"/>
    <path d="M 250.121614 172.632393 
C 250.65202 172.632393 251.160774 172.421661 251.535828 172.046607 
C 251.910881 171.671553 252.121614 171.1628 252.121614 170.632393 
C 252.121614 170.101987 251.910881 169.593234 251.535828 169.21818 
C 251.160774 168.843126 250.65202 168.632393 250.121614 168.632393 
C 249.591208 168.632393 249.082454 168.843126 248.7074 169.21818 
C 248.332347 169.593234 248.121614 170.101987 248.121614 170.632393 
C 248.121614 171.1628 248.332347 171.671553 248.7074 172.046607 
C 249.082454 172.421661 249.591208 172.632393 250.121614 172.632393 
z
" clip-path="url(#p28af53812b)" style="fill: #de8f05; fill-opacity: 0.2; stroke: #de8f05; stroke-opacity: 0.6; stroke-width: 0.75"/>
    <path d="M 249.831464 168.148365 
C 250.36187 168.148365 250.870624 167.937633 251.245678 167.562579 
C 251.620731 167.187525 251.831464 166.678771 251.831464 166.148365 
C 251.831464 165.617959 251.620731 165.109205 251.245678 164.734152 
C 250.870624 164.359098 250.36187 164.148365 249.831464 164.148365 
C 249.301058 164.148365 248.792304 164.359098 248.41725 164.734152 
C 248.042197 165.109205 247.831464 165.617959 247.831464 166.148365 
C 247.831464 166.678771 248.042197 167.187525 248.41725 167.562579 
C 248.792304 167.937633 249.301058 168.148365 249.831464 168.148365 
z
" clip-path="url(#p28af53812b)" style="fill: #de8f05; fill-opacity: 0.2; stroke: #de8f05; stroke-opacity: 0.6; stroke-width: 0.75"/>
    <path d="M 249.84269 118.276585 
C 250.373097 118.276585 250.88185 118.065852 251.256904 117.690799 
C 251.631958 117.315745 251.84269 116.806991 251.84269 116.276585 
C 251.84269 115.746179 251.631958 115.237425 251.256904 114.862372 
C 250.88185 114.487318 250.373097 114.276585 249.84269 114.276585 
C 249.312284 114.276585 248.803531 114.487318 248.428477 114.862372 
C 248.053423 115.237425 247.84269 115.746179 247.84269 116.276585 
C 247.84269 116.806991 248.053423 117.315745 248.428477 117.690799 
C 248.803531 118.065852 249.312284 118.276585 249.84269 118.276585 
z
" clip-path="url(#p28af53812b)" style="fill: #de8f05; fill-opacity: 0.2; stroke: #de8f05; stroke-opacity: 0.6; stroke-width: 0.75"/>
    <path d="M 248.598167 103.169059 
C 249.128573 103.169059 249.637327 102.958327 250.012381 102.583273 
C 250.387434 102.208219 250.598167 101.699466 250.598167 101.169059 
C 250.598167 100.638653 250.387434 100.1299 250.012381 99.754846 
C 249.637327 99.379792 249.128573 99.169059 248.598167 99.169059 
C 248.067761 99.169059 247.559007 99.379792 247.183954 99.754846 
C 246.8089 100.1299 246.598167 100.638653 246.598167 101.169059 
C 246.598167 101.699466 246.8089 102.208219 247.183954 102.583273 
C 247.559007 102.958327 248.067761 103.169059 248.598167 103.169059 
z
" clip-path="url(#p28af53812b)" style="fill: #de8f05; fill-opacity: 0.2; stroke: #de8f05; stroke-opacity: 0.6; stroke-width: 0.75"/>
    <path d="M 247.994832 30.877138 
C 248.525238 30.877138 249.033992 30.666405 249.409046 30.291351 
C 249.784099 29.916298 249.994832 29.407544 249.994832 28.877138 
C 249.994832 28.346732 249.784099 27.837978 249.409046 27.462924 
C 249.033992 27.08787 248.525238 26.877138 247.994832 26.877138 
C 247.464426 26.877138 246.955672 27.08787 246.580619 27.462924 
C 246.205565 27.837978 245.994832 28.346732 245.994832 28.877138 
C 245.994832 29.407544 246.205565 29.916298 246.580619 30.291351 
C 246.955672 30.666405 247.464426 30.877138 247.994832 30.877138 
z
" clip-path="url(#p28af53812b)" style="fill: #de8f05; fill-opacity: 0.2; stroke: #de8f05; stroke-opacity: 0.6; stroke-width: 0.75"/>
    <path d="M 252.453516 108.461256 
C 252.983923 108.461256 253.492676 108.250523 253.86773 107.875469 
C 254.242784 107.500415 254.453516 106.991662 254.453516 106.461256 
C 254.453516 105.930849 254.242784 105.422096 253.86773 105.047042 
C 253.492676 104.671988 252.983923 104.461256 252.453516 104.461256 
C 251.92311 104.461256 251.414357 104.671988 251.039303 105.047042 
C 250.664249 105.422096 250.453516 105.930849 250.453516 106.461256 
C 250.453516 106.991662 250.664249 107.500415 251.039303 107.875469 
C 251.414357 108.250523 251.92311 108.461256 252.453516 108.461256 
z
" clip-path="url(#p28af53812b)" style="fill: #de8f05; fill-opacity: 0.2; stroke: #de8f05; stroke-opacity: 0.6; stroke-width: 0.75"/>
   </g>
   <g id="PathCollection_4">
    <path d="M 194.231375 99.765413 
C 195.026984 99.765413 195.790115 99.449314 196.352695 98.886734 
C 196.915276 98.324153 197.231375 97.561023 197.231375 96.765413 
C 197.231375 95.969804 196.915276 95.206674 196.352695 94.644093 
C 195.790115 94.081512 195.026984 93.765413 194.231375 93.765413 
C 193.435766 93.765413 192.672635 94.081512 192.110055 94.644093 
C 191.547474 95.206674 191.231375 95.969804 191.231375 96.765413 
C 191.231375 97.561023 191.547474 98.324153 192.110055 98.886734 
C 192.672635 99.449314 193.435766 99.765413 194.231375 99.765413 
z
" clip-path="url(#p28af53812b)" style="fill: #0173b2; stroke: #0173b2; stroke-width: 0.5"/>
    <path d="M 241.136766 117.927466 
C 241.932375 117.927466 242.695505 117.611367 243.258086 117.048786 
C 243.820667 116.486206 244.136766 115.723075 244.136766 114.927466 
C 244.136766 114.131857 243.820667 113.368726 243.258086 112.806146 
C 242.695505 112.243565 241.932375 111.927466 241.136766 111.927466 
C 240.341156 111.927466 239.578026 112.243565 239.015445 112.806146 
C 238.452865 113.368726 238.136766 114.131857 238.136766 114.927466 
C 238.136766 115.723075 238.452865 116.486206 239.015445 117.048786 
C 239.578026 117.611367 240.341156 117.927466 241.136766 117.927466 
z
" clip-path="url(#p28af53812b)" style="fill: #de8f05; stroke: #de8f05; stroke-width: 0.5"/>
   </g>
   <g id="LineCollection_2">
    <path d="M 194.231375 155.689304 
L 194.231375 37.841523 
" clip-path="url(#p28af53812b)" style="fill: none; stroke: #0173b2; stroke-width: 1.5; stroke-linecap: square"/>
    <path d="M 241.136766 166.684725 
L 241.136766 63.170208 
" clip-path="url(#p28af53812b)" style="fill: none; stroke: #de8f05; stroke-width: 1.5; stroke-linecap: square"/>
   </g>
   <g id="patch_8">
    <path d="M 175.469219 177.720156 
L 175.469219 21.789375 
" style="fill: none; stroke: #ffffff; stroke-width: 1.25; stroke-linejoin: miter; stroke-linecap: square"/>
   </g>
   <g id="patch_9">
    <path d="M 269.28 177.720156 
L 269.28 21.789375 
" style="fill: none; stroke: #ffffff; stroke-width: 1.25; stroke-linejoin: miter; stroke-linecap: square"/>
   </g>
   <g id="patch_10">
    <path d="M 175.469219 177.720156 
L 269.28 177.720156 
" style="fill: none; stroke: #ffffff; stroke-width: 1.25; stroke-linejoin: miter; stroke-linecap: square"/>
   </g>
   <g id="patch_11">
    <path d="M 175.469219 21.789375 
L 269.28 21.789375 
" style="fill: none; stroke: #ffffff; stroke-width: 1.25; stroke-linejoin: miter; stroke-linecap: square"/>
   </g>
   <g id="text_19">
    <!-- T4 -->
    <g style="fill: #262626" transform="translate(215.373359 15.789375) scale(0.12 -0.12)">
     <use xlink:href="#ArialMT-54"/>
     <use xlink:href="#ArialMT-34" x="61.083984"/>
    </g>
   </g>
  </g>
  <g id="legend_1">
   <g id="patch_12">
    <path d="M 289.94 111.127031 
L 345.919688 111.127031 
Q 348.119687 111.127031 348.119687 108.927031 
L 348.119687 62.432969 
Q 348.119687 60.232969 345.919688 60.232969 
L 289.94 60.232969 
Q 287.74 60.232969 287.74 62.432969 
L 287.74 108.927031 
Q 287.74 111.127031 289.94 111.127031 
z
" style="fill: #eaeaf2; opacity: 0.8; stroke: #cccccc; stroke-linejoin: miter"/>
   </g>
   <g id="text_20">
    <!-- Tx -->
    <g style="fill: #262626" transform="translate(311.265156 73.222344) scale(0.12 -0.12)">
     <defs>
      <path id="ArialMT-78" d="M 47 0 
L 1259 1725 
L 138 3319 
L 841 3319 
L 1350 2541 
Q 1494 2319 1581 2169 
Q 1719 2375 1834 2534 
L 2394 3319 
L 3066 3319 
L 1919 1756 
L 3153 0 
L 2463 0 
L 1781 1031 
L 1600 1309 
L 728 0 
L 47 0 
z
" transform="scale(0.015625)"/>
     </defs>
     <use xlink:href="#ArialMT-54"/>
     <use xlink:href="#ArialMT-78" x="61.083984"/>
    </g>
   </g>
   <g id="PathCollection_5">
    <defs>
     <path id="mc5230babe7" d="M 0 2 
C 0.530406 2 1.03916 1.789267 1.414214 1.414214 
C 1.789267 1.03916 2 0.530406 2 0 
C 2 -0.530406 1.789267 -1.03916 1.414214 -1.414214 
C 1.03916 -1.789267 0.530406 -2 0 -2 
C -0.530406 -2 -1.03916 -1.789267 -1.414214 -1.414214 
C -1.789267 -1.03916 -2 -0.530406 -2 0 
C -2 0.530406 -1.789267 1.03916 -1.414214 1.414214 
C -1.03916 1.789267 -0.530406 2 0 2 
z
" style="stroke: #0173b2; stroke-opacity: 0.6; stroke-width: 0.75"/>
    </defs>
    <g>
     <use xlink:href="#mc5230babe7" x="303.14" y="86.093437" style="fill: #0173b2; fill-opacity: 0.2; stroke: #0173b2; stroke-opacity: 0.6; stroke-width: 0.75"/>
    </g>
   </g>
   <g id="PathCollection_6">
    <defs>
     <path id="m627ce1397e" d="M 0 3 
C 0.795609 3 1.55874 2.683901 2.12132 2.12132 
C 2.683901 1.55874 3 0.795609 3 0 
C 3 -0.795609 2.683901 -1.55874 2.12132 -2.12132 
C 1.55874 -2.683901 0.795609 -3 0 -3 
C -0.795609 -3 -1.55874 -2.683901 -2.12132 -2.12132 
C -2.683901 -1.55874 -3 -0.795609 -3 0 
C -3 0.795609 -2.683901 1.55874 -2.12132 2.12132 
C -1.55874 2.683901 -0.795609 3 0 3 
z
" style="stroke: #0173b2; stroke-width: 0.5"/>
    </defs>
    <g>
     <use xlink:href="#m627ce1397e" x="303.14" y="86.093437" style="fill: #0173b2; stroke: #0173b2; stroke-width: 0.5"/>
    </g>
   </g>
   <g id="text_21">
    <!-- FeS -->
    <g style="fill: #262626" transform="translate(322.94 88.980937) scale(0.11 -0.11)">
     <use xlink:href="#ArialMT-46"/>
     <use xlink:href="#ArialMT-65" x="61.083984"/>
     <use xlink:href="#ArialMT-53" x="116.699219"/>
    </g>
   </g>
   <g id="PathCollection_7">
    <defs>
     <path id="m3166116f6d" d="M 0 2 
C 0.530406 2 1.03916 1.789267 1.414214 1.414214 
C 1.789267 1.03916 2 0.530406 2 0 
C 2 -0.530406 1.789267 -1.03916 1.414214 -1.414214 
C 1.03916 -1.789267 0.530406 -2 0 -2 
C -0.530406 -2 -1.03916 -1.789267 -1.414214 -1.414214 
C -1.789267 -1.03916 -2 -0.530406 -2 0 
C -2 0.530406 -1.789267 1.03916 -1.414214 1.414214 
C -1.03916 1.789267 -0.530406 2 0 2 
z
" style="stroke: #de8f05; stroke-opacity: 0.6; stroke-width: 0.75"/>
    </defs>
    <g>
     <use xlink:href="#m3166116f6d" x="303.14" y="101.653281" style="fill: #de8f05; fill-opacity: 0.2; stroke: #de8f05; stroke-opacity: 0.6; stroke-width: 0.75"/>
    </g>
   </g>
   <g id="PathCollection_8">
    <defs>
     <path id="mb2ff8d592c" d="M 0 3 
C 0.795609 3 1.55874 2.683901 2.12132 2.12132 
C 2.683901 1.55874 3 0.795609 3 0 
C 3 -0.795609 2.683901 -1.55874 2.12132 -2.12132 
C 1.55874 -2.683901 0.795609 -3 0 -3 
C -0.795609 -3 -1.55874 -2.683901 -2.12132 -2.12132 
C -2.683901 -1.55874 -3 -0.795609 -3 0 
C -3 0.795609 -2.683901 1.55874 -2.12132 2.12132 
C -1.55874 2.683901 -0.795609 3 0 3 
z
" style="stroke: #de8f05; stroke-width: 0.5"/>
    </defs>
    <g>
     <use xlink:href="#mb2ff8d592c" x="303.14" y="101.653281" style="fill: #de8f05; stroke: #de8f05; stroke-width: 0.5"/>
    </g>
   </g>
   <g id="text_22">
    <!-- FeD -->
    <g style="fill: #262626" transform="translate(322.94 104.540781) scale(0.11 -0.11)">
     <use xlink:href="#ArialMT-46"/>
     <use xlink:href="#ArialMT-65" x="61.083984"/>
     <use xlink:href="#ArialMT-44" x="116.699219"/>
    </g>
   </g>
  </g>
 </g>
 <defs>
  <clipPath id="pf626b53d49">
   <rect x="46.964375" y="21.789375" width="93.810781" height="155.930781"/>
  </clipPath>
  <clipPath id="p28af53812b">
   <rect x="175.469219" y="21.789375" width="93.810781" height="155.930781"/>
  </clipPath>
 </defs>
</svg>
