<?xml version="1.0" encoding="utf-8" standalone="no"?>
<!DOCTYPE svg PUBLIC "-//W3C//DTD SVG 1.1//EN"
  "http://www.w3.org/Graphics/SVG/1.1/DTD/svg11.dtd">
<svg xmlns:xlink="http://www.w3.org/1999/xlink" width="208.439688pt" height="204.446901pt" viewBox="0 0 208.439688 204.446901" xmlns="http://www.w3.org/2000/svg" version="1.1">
 <metadata>
  <rdf:RDF xmlns:dc="http://purl.org/dc/elements/1.1/" xmlns:cc="http://creativecommons.org/ns#" xmlns:rdf="http://www.w3.org/1999/02/22-rdf-syntax-ns#">
   <cc:Work>
    <dc:type rdf:resource="http://purl.org/dc/dcmitype/StillImage"/>
    <dc:date>2023-06-05T13:15:42.280640</dc:date>
    <dc:format>image/svg+xml</dc:format>
    <dc:creator>
     <cc:Agent>
      <dc:title>Matplotlib v3.6.2, https://matplotlib.org/</dc:title>
     </cc:Agent>
    </dc:creator>
   </cc:Work>
  </rdf:RDF>
 </metadata>
 <defs>
  <style type="text/css">*{stroke-linejoin: round; stroke-linecap: butt}</style>
 </defs>
 <g id="figure_1">
  <g id="patch_1">
   <path d="M 0 204.446901 
L 208.439688 204.446901 
L 208.439688 0 
L 0 0 
z
" style="fill: #ffffff"/>
  </g>
  <g id="axes_1">
   <g id="patch_2">
    <path d="M 47.25125 177.687057 
L 125.28 177.687057 
L 125.28 8.885405 
L 47.25125 8.885405 
z
" style="fill: #eaeaf2"/>
   </g>
   <g id="matplotlib.axis_1">
    <g id="xtick_1">
     <g id="text_1">
      <!-- FeS -->
      <g style="fill: #262626" transform="translate(56.671953 195.060651) scale(0.11 -0.11)">
       <defs>
        <path id="ArialMT-46" d="M 525 0 
L 525 4581 
L 3616 4581 
L 3616 4041 
L 1131 4041 
L 1131 2622 
L 3281 2622 
L 3281 2081 
L 1131 2081 
L 1131 0 
L 525 0 
z
" transform="scale(0.015625)"/>
        <path id="ArialMT-65" d="M 2694 1069 
L 3275 997 
Q 3138 488 2766 206 
Q 2394 -75 1816 -75 
Q 1088 -75 661 373 
Q 234 822 234 1631 
Q 234 2469 665 2931 
Q 1097 3394 1784 3394 
Q 2450 3394 2872 2941 
Q 3294 2488 3294 1666 
Q 3294 1616 3291 1516 
L 816 1516 
Q 847 969 1125 678 
Q 1403 388 1819 388 
Q 2128 388 2347 550 
Q 2566 713 2694 1069 
z
M 847 1978 
L 2700 1978 
Q 2663 2397 2488 2606 
Q 2219 2931 1791 2931 
Q 1403 2931 1139 2672 
Q 875 2413 847 1978 
z
" transform="scale(0.015625)"/>
        <path id="ArialMT-53" d="M 288 1472 
L 859 1522 
Q 900 1178 1048 958 
Q 1197 738 1509 602 
Q 1822 466 2213 466 
Q 2559 466 2825 569 
Q 3091 672 3220 851 
Q 3350 1031 3350 1244 
Q 3350 1459 3225 1620 
Q 3100 1781 2813 1891 
Q 2628 1963 1997 2114 
Q 1366 2266 1113 2400 
Q 784 2572 623 2826 
Q 463 3081 463 3397 
Q 463 3744 659 4045 
Q 856 4347 1234 4503 
Q 1613 4659 2075 4659 
Q 2584 4659 2973 4495 
Q 3363 4331 3572 4012 
Q 3781 3694 3797 3291 
L 3216 3247 
Q 3169 3681 2898 3903 
Q 2628 4125 2100 4125 
Q 1550 4125 1298 3923 
Q 1047 3722 1047 3438 
Q 1047 3191 1225 3031 
Q 1400 2872 2139 2705 
Q 2878 2538 3153 2413 
Q 3553 2228 3743 1945 
Q 3934 1663 3934 1294 
Q 3934 928 3725 604 
Q 3516 281 3123 101 
Q 2731 -78 2241 -78 
Q 1619 -78 1198 103 
Q 778 284 539 648 
Q 300 1013 288 1472 
z
" transform="scale(0.015625)"/>
       </defs>
       <use xlink:href="#ArialMT-46"/>
       <use xlink:href="#ArialMT-65" x="61.083984"/>
       <use xlink:href="#ArialMT-53" x="116.699219"/>
      </g>
     </g>
    </g>
    <g id="xtick_2">
     <g id="text_2">
      <!-- FeD -->
      <g style="fill: #262626" transform="translate(95.382969 195.060651) scale(0.11 -0.11)">
       <defs>
        <path id="ArialMT-44" d="M 494 0 
L 494 4581 
L 2072 4581 
Q 2606 4581 2888 4516 
Q 3281 4425 3559 4188 
Q 3922 3881 4101 3404 
Q 4281 2928 4281 2316 
Q 4281 1794 4159 1391 
Q 4038 988 3847 723 
Q 3656 459 3429 307 
Q 3203 156 2883 78 
Q 2563 0 2147 0 
L 494 0 
z
M 1100 541 
L 2078 541 
Q 2531 541 2789 625 
Q 3047 709 3200 863 
Q 3416 1078 3536 1442 
Q 3656 1806 3656 2325 
Q 3656 3044 3420 3430 
Q 3184 3816 2847 3947 
Q 2603 4041 2063 4041 
L 1100 4041 
L 1100 541 
z
" transform="scale(0.015625)"/>
       </defs>
       <use xlink:href="#ArialMT-46"/>
       <use xlink:href="#ArialMT-65" x="61.083984"/>
       <use xlink:href="#ArialMT-44" x="116.699219"/>
      </g>
     </g>
    </g>
   </g>
   <g id="matplotlib.axis_2">
    <g id="ytick_1">
     <g id="line2d_1">
      <path d="M 47.25125 161.731544 
L 125.28 161.731544 
" clip-path="url(#ped5dfc0f97)" style="fill: none; stroke: #ffffff; stroke-linecap: round"/>
     </g>
     <g id="text_3">
      <!-- 0.9 -->
      <g style="fill: #262626" transform="translate(22.46125 165.668341) scale(0.11 -0.11)">
       <defs>
        <path id="ArialMT-30" d="M 266 2259 
Q 266 3072 433 3567 
Q 600 4063 929 4331 
Q 1259 4600 1759 4600 
Q 2128 4600 2406 4451 
Q 2684 4303 2865 4023 
Q 3047 3744 3150 3342 
Q 3253 2941 3253 2259 
Q 3253 1453 3087 958 
Q 2922 463 2592 192 
Q 2263 -78 1759 -78 
Q 1097 -78 719 397 
Q 266 969 266 2259 
z
M 844 2259 
Q 844 1131 1108 757 
Q 1372 384 1759 384 
Q 2147 384 2411 759 
Q 2675 1134 2675 2259 
Q 2675 3391 2411 3762 
Q 2147 4134 1753 4134 
Q 1366 4134 1134 3806 
Q 844 3388 844 2259 
z
" transform="scale(0.015625)"/>
        <path id="ArialMT-2e" d="M 581 0 
L 581 641 
L 1222 641 
L 1222 0 
L 581 0 
z
" transform="scale(0.015625)"/>
        <path id="ArialMT-39" d="M 350 1059 
L 891 1109 
Q 959 728 1153 556 
Q 1347 384 1650 384 
Q 1909 384 2104 503 
Q 2300 622 2425 820 
Q 2550 1019 2634 1356 
Q 2719 1694 2719 2044 
Q 2719 2081 2716 2156 
Q 2547 1888 2255 1720 
Q 1963 1553 1622 1553 
Q 1053 1553 659 1965 
Q 266 2378 266 3053 
Q 266 3750 677 4175 
Q 1088 4600 1706 4600 
Q 2153 4600 2523 4359 
Q 2894 4119 3086 3673 
Q 3278 3228 3278 2384 
Q 3278 1506 3087 986 
Q 2897 466 2520 194 
Q 2144 -78 1638 -78 
Q 1100 -78 759 220 
Q 419 519 350 1059 
z
M 2653 3081 
Q 2653 3566 2395 3850 
Q 2138 4134 1775 4134 
Q 1400 4134 1122 3828 
Q 844 3522 844 3034 
Q 844 2597 1108 2323 
Q 1372 2050 1759 2050 
Q 2150 2050 2401 2323 
Q 2653 2597 2653 3081 
z
" transform="scale(0.015625)"/>
       </defs>
       <use xlink:href="#ArialMT-30"/>
       <use xlink:href="#ArialMT-2e" x="55.615234"/>
       <use xlink:href="#ArialMT-39" x="83.398438"/>
      </g>
     </g>
    </g>
    <g id="ytick_2">
     <g id="line2d_2">
      <path d="M 47.25125 131.612594 
L 125.28 131.612594 
" clip-path="url(#ped5dfc0f97)" style="fill: none; stroke: #ffffff; stroke-linecap: round"/>
     </g>
     <g id="text_4">
      <!-- 1.0 -->
      <g style="fill: #262626" transform="translate(22.46125 135.549391) scale(0.11 -0.11)">
       <defs>
        <path id="ArialMT-31" d="M 2384 0 
L 1822 0 
L 1822 3584 
Q 1619 3391 1289 3197 
Q 959 3003 697 2906 
L 697 3450 
Q 1169 3672 1522 3987 
Q 1875 4303 2022 4600 
L 2384 4600 
L 2384 0 
z
" transform="scale(0.015625)"/>
       </defs>
       <use xlink:href="#ArialMT-31"/>
       <use xlink:href="#ArialMT-2e" x="55.615234"/>
       <use xlink:href="#ArialMT-30" x="83.398438"/>
      </g>
     </g>
    </g>
    <g id="ytick_3">
     <g id="line2d_3">
      <path d="M 47.25125 101.493645 
L 125.28 101.493645 
" clip-path="url(#ped5dfc0f97)" style="fill: none; stroke: #ffffff; stroke-linecap: round"/>
     </g>
     <g id="text_5">
      <!-- 1.1 -->
      <g style="fill: #262626" transform="translate(22.46125 105.430442) scale(0.11 -0.11)">
       <use xlink:href="#ArialMT-31"/>
       <use xlink:href="#ArialMT-2e" x="55.615234"/>
       <use xlink:href="#ArialMT-31" x="83.398438"/>
      </g>
     </g>
    </g>
    <g id="ytick_4">
     <g id="line2d_4">
      <path d="M 47.25125 71.374696 
L 125.28 71.374696 
" clip-path="url(#ped5dfc0f97)" style="fill: none; stroke: #ffffff; stroke-linecap: round"/>
     </g>
     <g id="text_6">
      <!-- 1.2 -->
      <g style="fill: #262626" transform="translate(22.46125 75.311493) scale(0.11 -0.11)">
       <defs>
        <path id="ArialMT-32" d="M 3222 541 
L 3222 0 
L 194 0 
Q 188 203 259 391 
Q 375 700 629 1000 
Q 884 1300 1366 1694 
Q 2113 2306 2375 2664 
Q 2638 3022 2638 3341 
Q 2638 3675 2398 3904 
Q 2159 4134 1775 4134 
Q 1369 4134 1125 3890 
Q 881 3647 878 3216 
L 300 3275 
Q 359 3922 746 4261 
Q 1134 4600 1788 4600 
Q 2447 4600 2831 4234 
Q 3216 3869 3216 3328 
Q 3216 3053 3103 2787 
Q 2991 2522 2730 2228 
Q 2469 1934 1863 1422 
Q 1356 997 1212 845 
Q 1069 694 975 541 
L 3222 541 
z
" transform="scale(0.015625)"/>
       </defs>
       <use xlink:href="#ArialMT-31"/>
       <use xlink:href="#ArialMT-2e" x="55.615234"/>
       <use xlink:href="#ArialMT-32" x="83.398438"/>
      </g>
     </g>
    </g>
    <g id="ytick_5">
     <g id="line2d_5">
      <path d="M 47.25125 41.255746 
L 125.28 41.255746 
" clip-path="url(#ped5dfc0f97)" style="fill: none; stroke: #ffffff; stroke-linecap: round"/>
     </g>
     <g id="text_7">
      <!-- 1.3 -->
      <g style="fill: #262626" transform="translate(22.46125 45.192543) scale(0.11 -0.11)">
       <defs>
        <path id="ArialMT-33" d="M 269 1209 
L 831 1284 
Q 928 806 1161 595 
Q 1394 384 1728 384 
Q 2125 384 2398 659 
Q 2672 934 2672 1341 
Q 2672 1728 2419 1979 
Q 2166 2231 1775 2231 
Q 1616 2231 1378 2169 
L 1441 2663 
Q 1497 2656 1531 2656 
Q 1891 2656 2178 2843 
Q 2466 3031 2466 3422 
Q 2466 3731 2256 3934 
Q 2047 4138 1716 4138 
Q 1388 4138 1169 3931 
Q 950 3725 888 3313 
L 325 3413 
Q 428 3978 793 4289 
Q 1159 4600 1703 4600 
Q 2078 4600 2393 4439 
Q 2709 4278 2876 4000 
Q 3044 3722 3044 3409 
Q 3044 3113 2884 2869 
Q 2725 2625 2413 2481 
Q 2819 2388 3044 2092 
Q 3269 1797 3269 1353 
Q 3269 753 2831 336 
Q 2394 -81 1725 -81 
Q 1122 -81 723 278 
Q 325 638 269 1209 
z
" transform="scale(0.015625)"/>
       </defs>
       <use xlink:href="#ArialMT-31"/>
       <use xlink:href="#ArialMT-2e" x="55.615234"/>
       <use xlink:href="#ArialMT-33" x="83.398438"/>
      </g>
     </g>
    </g>
    <g id="ytick_6">
     <g id="line2d_6">
      <path d="M 47.25125 11.136797 
L 125.28 11.136797 
" clip-path="url(#ped5dfc0f97)" style="fill: none; stroke: #ffffff; stroke-linecap: round"/>
     </g>
     <g id="text_8">
      <!-- 1.4 -->
      <g style="fill: #262626" transform="translate(22.46125 15.073594) scale(0.11 -0.11)">
       <defs>
        <path id="ArialMT-34" d="M 2069 0 
L 2069 1097 
L 81 1097 
L 81 1613 
L 2172 4581 
L 2631 4581 
L 2631 1613 
L 3250 1613 
L 3250 1097 
L 2631 1097 
L 2631 0 
L 2069 0 
z
M 2069 1613 
L 2069 3678 
L 634 1613 
L 2069 1613 
z
" transform="scale(0.015625)"/>
       </defs>
       <use xlink:href="#ArialMT-31"/>
       <use xlink:href="#ArialMT-2e" x="55.615234"/>
       <use xlink:href="#ArialMT-34" x="83.398438"/>
      </g>
     </g>
    </g>
    <g id="text_9">
     <!-- T3 ng/mL -->
     <g style="fill: #262626" transform="translate(15.935625 118.628731) rotate(-90) scale(0.12 -0.12)">
      <defs>
       <path id="ArialMT-54" d="M 1659 0 
L 1659 4041 
L 150 4041 
L 150 4581 
L 3781 4581 
L 3781 4041 
L 2266 4041 
L 2266 0 
L 1659 0 
z
" transform="scale(0.015625)"/>
       <path id="ArialMT-20" transform="scale(0.015625)"/>
       <path id="ArialMT-6e" d="M 422 0 
L 422 3319 
L 928 3319 
L 928 2847 
Q 1294 3394 1984 3394 
Q 2284 3394 2536 3286 
Q 2788 3178 2913 3003 
Q 3038 2828 3088 2588 
Q 3119 2431 3119 2041 
L 3119 0 
L 2556 0 
L 2556 2019 
Q 2556 2363 2490 2533 
Q 2425 2703 2258 2804 
Q 2091 2906 1866 2906 
Q 1506 2906 1245 2678 
Q 984 2450 984 1813 
L 984 0 
L 422 0 
z
" transform="scale(0.015625)"/>
       <path id="ArialMT-67" d="M 319 -275 
L 866 -356 
Q 900 -609 1056 -725 
Q 1266 -881 1628 -881 
Q 2019 -881 2231 -725 
Q 2444 -569 2519 -288 
Q 2563 -116 2559 434 
Q 2191 0 1641 0 
Q 956 0 581 494 
Q 206 988 206 1678 
Q 206 2153 378 2554 
Q 550 2956 876 3175 
Q 1203 3394 1644 3394 
Q 2231 3394 2613 2919 
L 2613 3319 
L 3131 3319 
L 3131 450 
Q 3131 -325 2973 -648 
Q 2816 -972 2473 -1159 
Q 2131 -1347 1631 -1347 
Q 1038 -1347 672 -1080 
Q 306 -813 319 -275 
z
M 784 1719 
Q 784 1066 1043 766 
Q 1303 466 1694 466 
Q 2081 466 2343 764 
Q 2606 1063 2606 1700 
Q 2606 2309 2336 2618 
Q 2066 2928 1684 2928 
Q 1309 2928 1046 2623 
Q 784 2319 784 1719 
z
" transform="scale(0.015625)"/>
       <path id="ArialMT-2f" d="M 0 -78 
L 1328 4659 
L 1778 4659 
L 453 -78 
L 0 -78 
z
" transform="scale(0.015625)"/>
       <path id="ArialMT-6d" d="M 422 0 
L 422 3319 
L 925 3319 
L 925 2853 
Q 1081 3097 1340 3245 
Q 1600 3394 1931 3394 
Q 2300 3394 2536 3241 
Q 2772 3088 2869 2813 
Q 3263 3394 3894 3394 
Q 4388 3394 4653 3120 
Q 4919 2847 4919 2278 
L 4919 0 
L 4359 0 
L 4359 2091 
Q 4359 2428 4304 2576 
Q 4250 2725 4106 2815 
Q 3963 2906 3769 2906 
Q 3419 2906 3187 2673 
Q 2956 2441 2956 1928 
L 2956 0 
L 2394 0 
L 2394 2156 
Q 2394 2531 2256 2718 
Q 2119 2906 1806 2906 
Q 1569 2906 1367 2781 
Q 1166 2656 1075 2415 
Q 984 2175 984 1722 
L 984 0 
L 422 0 
z
" transform="scale(0.015625)"/>
       <path id="ArialMT-4c" d="M 469 0 
L 469 4581 
L 1075 4581 
L 1075 541 
L 3331 541 
L 3331 0 
L 469 0 
z
" transform="scale(0.015625)"/>
      </defs>
      <use xlink:href="#ArialMT-54"/>
      <use xlink:href="#ArialMT-33" x="61.083984"/>
      <use xlink:href="#ArialMT-20" x="116.699219"/>
      <use xlink:href="#ArialMT-6e" x="144.482422"/>
      <use xlink:href="#ArialMT-67" x="200.097656"/>
      <use xlink:href="#ArialMT-2f" x="255.712891"/>
      <use xlink:href="#ArialMT-6d" x="283.496094"/>
      <use xlink:href="#ArialMT-4c" x="366.796875"/>
     </g>
    </g>
   </g>
   <g id="PathCollection_1">
    <path d="M 70.423799 98.825208 
C 70.954205 98.825208 71.462959 98.614475 71.838013 98.239421 
C 72.213067 97.864368 72.423799 97.355614 72.423799 96.825208 
C 72.423799 96.294802 72.213067 95.786048 71.838013 95.410994 
C 71.462959 95.03594 70.954205 94.825208 70.423799 94.825208 
C 69.893393 94.825208 69.384639 95.03594 69.009586 95.410994 
C 68.634532 95.786048 68.423799 96.294802 68.423799 96.825208 
C 68.423799 97.355614 68.634532 97.864368 69.009586 98.239421 
C 69.384639 98.614475 69.893393 98.825208 70.423799 98.825208 
z
" clip-path="url(#ped5dfc0f97)" style="fill: #0173b2; fill-opacity: 0.2; stroke: #0173b2; stroke-opacity: 0.6; stroke-width: 0.75"/>
    <path d="M 73.70722 119.757878 
C 74.237626 119.757878 74.74638 119.547145 75.121434 119.172091 
C 75.496487 118.797037 75.70722 118.288284 75.70722 117.757878 
C 75.70722 117.227471 75.496487 116.718718 75.121434 116.343664 
C 74.74638 115.96861 74.237626 115.757878 73.70722 115.757878 
C 73.176814 115.757878 72.66806 115.96861 72.293006 116.343664 
C 71.917953 116.718718 71.70722 117.227471 71.70722 117.757878 
C 71.70722 118.288284 71.917953 118.797037 72.293006 119.172091 
C 72.66806 119.547145 73.176814 119.757878 73.70722 119.757878 
z
" clip-path="url(#ped5dfc0f97)" style="fill: #0173b2; fill-opacity: 0.2; stroke: #0173b2; stroke-opacity: 0.6; stroke-width: 0.75"/>
    <path d="M 73.45452 102.138292 
C 73.984927 102.138292 74.49368 101.92756 74.868734 101.552506 
C 75.243788 101.177452 75.45452 100.668699 75.45452 100.138292 
C 75.45452 99.607886 75.243788 99.099133 74.868734 98.724079 
C 74.49368 98.349025 73.984927 98.138292 73.45452 98.138292 
C 72.924114 98.138292 72.415361 98.349025 72.040307 98.724079 
C 71.665253 99.099133 71.45452 99.607886 71.45452 100.138292 
C 71.45452 100.668699 71.665253 101.177452 72.040307 101.552506 
C 72.415361 101.92756 72.924114 102.138292 73.45452 102.138292 
z
" clip-path="url(#ped5dfc0f97)" style="fill: #0173b2; fill-opacity: 0.2; stroke: #0173b2; stroke-opacity: 0.6; stroke-width: 0.75"/>
    <path d="M 67.788304 105.150187 
C 68.31871 105.150187 68.827464 104.939455 69.202517 104.564401 
C 69.577571 104.189347 69.788304 103.680593 69.788304 103.150187 
C 69.788304 102.619781 69.577571 102.111027 69.202517 101.735974 
C 68.827464 101.36092 68.31871 101.150187 67.788304 101.150187 
C 67.257898 101.150187 66.749144 101.36092 66.37409 101.735974 
C 65.999037 102.111027 65.788304 102.619781 65.788304 103.150187 
C 65.788304 103.680593 65.999037 104.189347 66.37409 104.564401 
C 66.749144 104.939455 67.257898 105.150187 67.788304 105.150187 
z
" clip-path="url(#ped5dfc0f97)" style="fill: #0173b2; fill-opacity: 0.2; stroke: #0173b2; stroke-opacity: 0.6; stroke-width: 0.75"/>
    <path d="M 69.985861 144.606011 
C 70.516267 144.606011 71.025021 144.395278 71.400074 144.020224 
C 71.775128 143.645171 71.985861 143.136417 71.985861 142.606011 
C 71.985861 142.075605 71.775128 141.566851 71.400074 141.191797 
C 71.025021 140.816744 70.516267 140.606011 69.985861 140.606011 
C 69.455455 140.606011 68.946701 140.816744 68.571647 141.191797 
C 68.196593 141.566851 67.985861 142.075605 67.985861 142.606011 
C 67.985861 143.136417 68.196593 143.645171 68.571647 144.020224 
C 68.946701 144.395278 69.455455 144.606011 69.985861 144.606011 
z
" clip-path="url(#ped5dfc0f97)" style="fill: #0173b2; fill-opacity: 0.2; stroke: #0173b2; stroke-opacity: 0.6; stroke-width: 0.75"/>
    <path d="M 69.885421 172.014255 
C 70.415827 172.014255 70.924581 171.803522 71.299634 171.428468 
C 71.674688 171.053415 71.885421 170.544661 71.885421 170.014255 
C 71.885421 169.483849 71.674688 168.975095 71.299634 168.600041 
C 70.924581 168.224987 70.415827 168.014255 69.885421 168.014255 
C 69.355015 168.014255 68.846261 168.224987 68.471207 168.600041 
C 68.096153 168.975095 67.885421 169.483849 67.885421 170.014255 
C 67.885421 170.544661 68.096153 171.053415 68.471207 171.428468 
C 68.846261 171.803522 69.355015 172.014255 69.885421 172.014255 
z
" clip-path="url(#ped5dfc0f97)" style="fill: #0173b2; fill-opacity: 0.2; stroke: #0173b2; stroke-opacity: 0.6; stroke-width: 0.75"/>
    <path d="M 108.626047 90.994281 
C 109.156453 90.994281 109.665207 90.783548 110.040261 90.408495 
C 110.415314 90.033441 110.626047 89.524687 110.626047 88.994281 
C 110.626047 88.463875 110.415314 87.955121 110.040261 87.580067 
C 109.665207 87.205014 109.156453 86.994281 108.626047 86.994281 
C 108.095641 86.994281 107.586887 87.205014 107.211833 87.580067 
C 106.83678 87.955121 106.626047 88.463875 106.626047 88.994281 
C 106.626047 89.524687 106.83678 90.033441 107.211833 90.408495 
C 107.586887 90.783548 108.095641 90.994281 108.626047 90.994281 
z
" clip-path="url(#ped5dfc0f97)" style="fill: #de8f05; fill-opacity: 0.2; stroke: #de8f05; stroke-opacity: 0.6; stroke-width: 0.75"/>
    <path d="M 112.7807 98.222829 
C 113.311106 98.222829 113.81986 98.012096 114.194914 97.637042 
C 114.569967 97.261989 114.7807 96.753235 114.7807 96.222829 
C 114.7807 95.692423 114.569967 95.183669 114.194914 94.808615 
C 113.81986 94.433561 113.311106 94.222829 112.7807 94.222829 
C 112.250294 94.222829 111.74154 94.433561 111.366487 94.808615 
C 110.991433 95.183669 110.7807 95.692423 110.7807 96.222829 
C 110.7807 96.753235 110.991433 97.261989 111.366487 97.637042 
C 111.74154 98.012096 112.250294 98.222829 112.7807 98.222829 
z
" clip-path="url(#ped5dfc0f97)" style="fill: #de8f05; fill-opacity: 0.2; stroke: #de8f05; stroke-opacity: 0.6; stroke-width: 0.75"/>
    <path d="M 108.507557 94.608555 
C 109.037963 94.608555 109.546716 94.397822 109.92177 94.022769 
C 110.296824 93.647715 110.507557 93.138961 110.507557 92.608555 
C 110.507557 92.078149 110.296824 91.569395 109.92177 91.194341 
C 109.546716 90.819288 109.037963 90.608555 108.507557 90.608555 
C 107.97715 90.608555 107.468397 90.819288 107.093343 91.194341 
C 106.718289 91.569395 106.507557 92.078149 106.507557 92.608555 
C 106.507557 93.138961 106.718289 93.647715 107.093343 94.022769 
C 107.468397 94.397822 107.97715 94.608555 108.507557 94.608555 
z
" clip-path="url(#ped5dfc0f97)" style="fill: #de8f05; fill-opacity: 0.2; stroke: #de8f05; stroke-opacity: 0.6; stroke-width: 0.75"/>
    <path d="M 108.480403 120.812041 
C 109.01081 120.812041 109.519563 120.601308 109.894617 120.226254 
C 110.269671 119.851201 110.480403 119.342447 110.480403 118.812041 
C 110.480403 118.281635 110.269671 117.772881 109.894617 117.397827 
C 109.519563 117.022774 109.01081 116.812041 108.480403 116.812041 
C 107.949997 116.812041 107.441244 117.022774 107.06619 117.397827 
C 106.691136 117.772881 106.480403 118.281635 106.480403 118.812041 
C 106.480403 119.342447 106.691136 119.851201 107.06619 120.226254 
C 107.441244 120.601308 107.949997 120.812041 108.480403 120.812041 
z
" clip-path="url(#ped5dfc0f97)" style="fill: #de8f05; fill-opacity: 0.2; stroke: #de8f05; stroke-opacity: 0.6; stroke-width: 0.75"/>
    <path d="M 110.961676 148.37088 
C 111.492082 148.37088 112.000836 148.160147 112.375889 147.785093 
C 112.750943 147.410039 112.961676 146.901286 112.961676 146.37088 
C 112.961676 145.840473 112.750943 145.33172 112.375889 144.956666 
C 112.000836 144.581612 111.492082 144.37088 110.961676 144.37088 
C 110.43127 144.37088 109.922516 144.581612 109.547462 144.956666 
C 109.172409 145.33172 108.961676 145.840473 108.961676 146.37088 
C 108.961676 146.901286 109.172409 147.410039 109.547462 147.785093 
C 109.922516 148.160147 110.43127 148.37088 110.961676 148.37088 
z
" clip-path="url(#ped5dfc0f97)" style="fill: #de8f05; fill-opacity: 0.2; stroke: #de8f05; stroke-opacity: 0.6; stroke-width: 0.75"/>
    <path d="M 111.777184 18.558208 
C 112.30759 18.558208 112.816344 18.347475 113.191397 17.972421 
C 113.566451 17.597368 113.777184 17.088614 113.777184 16.558208 
C 113.777184 16.027802 113.566451 15.519048 113.191397 15.143994 
C 112.816344 14.76894 112.30759 14.558208 111.777184 14.558208 
C 111.246778 14.558208 110.738024 14.76894 110.36297 15.143994 
C 109.987916 15.519048 109.777184 16.027802 109.777184 16.558208 
C 109.777184 17.088614 109.987916 17.597368 110.36297 17.972421 
C 110.738024 18.347475 111.246778 18.558208 111.777184 18.558208 
z
" clip-path="url(#ped5dfc0f97)" style="fill: #de8f05; fill-opacity: 0.2; stroke: #de8f05; stroke-opacity: 0.6; stroke-width: 0.75"/>
   </g>
   <g id="PathCollection_2">
    <path d="M 62.857 124.748638 
C 63.652609 124.748638 64.41574 124.43254 64.97832 123.869959 
C 65.540901 123.307378 65.857 122.544248 65.857 121.748638 
C 65.857 120.953029 65.540901 120.189899 64.97832 119.627318 
C 64.41574 119.064737 63.652609 118.748638 62.857 118.748638 
C 62.061391 118.748638 61.29826 119.064737 60.73568 119.627318 
C 60.173099 120.189899 59.857 120.953029 59.857 121.748638 
C 59.857 122.544248 60.173099 123.307378 60.73568 123.869959 
C 61.29826 124.43254 62.061391 124.748638 62.857 124.748638 
z
" clip-path="url(#ped5dfc0f97)" style="fill: #0173b2; stroke: #0173b2; stroke-width: 0.5"/>
    <path d="M 101.871375 96.261132 
C 102.666984 96.261132 103.430115 95.945033 103.992695 95.382453 
C 104.555276 94.819872 104.871375 94.056741 104.871375 93.261132 
C 104.871375 92.465523 104.555276 91.702393 103.992695 91.139812 
C 103.430115 90.577231 102.666984 90.261132 101.871375 90.261132 
C 101.075766 90.261132 100.312635 90.577231 99.750055 91.139812 
C 99.187474 91.702393 98.871375 92.465523 98.871375 93.261132 
C 98.871375 94.056741 99.187474 94.819872 99.750055 95.382453 
C 100.312635 95.945033 101.075766 96.261132 101.871375 96.261132 
z
" clip-path="url(#ped5dfc0f97)" style="fill: #de8f05; stroke: #de8f05; stroke-width: 0.5"/>
   </g>
   <g id="LineCollection_1">
    <path d="M 62.857 150.781767 
L 62.857 92.71551 
" clip-path="url(#ped5dfc0f97)" style="fill: none; stroke: #0173b2; stroke-width: 1.5; stroke-linecap: square"/>
    <path d="M 101.871375 136.583728 
L 101.871375 49.938537 
" clip-path="url(#ped5dfc0f97)" style="fill: none; stroke: #de8f05; stroke-width: 1.5; stroke-linecap: square"/>
   </g>
   <g id="patch_3">
    <path d="M 47.25125 177.687057 
L 47.25125 8.885405 
" style="fill: none; stroke: #ffffff; stroke-width: 1.25; stroke-linejoin: miter; stroke-linecap: square"/>
   </g>
   <g id="patch_4">
    <path d="M 125.28 177.687057 
L 125.28 8.885405 
" style="fill: none; stroke: #ffffff; stroke-width: 1.25; stroke-linejoin: miter; stroke-linecap: square"/>
   </g>
   <g id="patch_5">
    <path d="M 47.25125 177.687057 
L 125.28 177.687057 
" style="fill: none; stroke: #ffffff; stroke-width: 1.25; stroke-linejoin: miter; stroke-linecap: square"/>
   </g>
   <g id="patch_6">
    <path d="M 47.25125 8.885405 
L 125.28 8.885405 
" style="fill: none; stroke: #ffffff; stroke-width: 1.25; stroke-linejoin: miter; stroke-linecap: square"/>
   </g>
  </g>
  <g id="legend_1">
   <g id="patch_7">
    <path d="M 148.82 111.093932 
L 204.799688 111.093932 
Q 206.999687 111.093932 206.999687 108.893932 
L 206.999687 62.39987 
Q 206.999687 60.19987 204.799688 60.19987 
L 148.82 60.19987 
Q 146.62 60.19987 146.62 62.39987 
L 146.62 108.893932 
Q 146.62 111.093932 148.82 111.093932 
z
" style="fill: #eaeaf2; opacity: 0.8; stroke: #cccccc; stroke-linejoin: miter"/>
   </g>
   <g id="text_10">
    <!-- Tx -->
    <g style="fill: #262626" transform="translate(170.145156 73.189245) scale(0.12 -0.12)">
     <defs>
      <path id="ArialMT-78" d="M 47 0 
L 1259 1725 
L 138 3319 
L 841 3319 
L 1350 2541 
Q 1494 2319 1581 2169 
Q 1719 2375 1834 2534 
L 2394 3319 
L 3066 3319 
L 1919 1756 
L 3153 0 
L 2463 0 
L 1781 1031 
L 1600 1309 
L 728 0 
L 47 0 
z
" transform="scale(0.015625)"/>
     </defs>
     <use xlink:href="#ArialMT-54"/>
     <use xlink:href="#ArialMT-78" x="61.083984"/>
    </g>
   </g>
   <g id="PathCollection_3">
    <defs>
     <path id="mbfcc201039" d="M 0 2 
C 0.530406 2 1.03916 1.789267 1.414214 1.414214 
C 1.789267 1.03916 2 0.530406 2 0 
C 2 -0.530406 1.789267 -1.03916 1.414214 -1.414214 
C 1.03916 -1.789267 0.530406 -2 0 -2 
C -0.530406 -2 -1.03916 -1.789267 -1.414214 -1.414214 
C -1.789267 -1.03916 -2 -0.530406 -2 0 
C -2 0.530406 -1.789267 1.03916 -1.414214 1.414214 
C -1.03916 1.789267 -0.530406 2 0 2 
z
" style="stroke: #0173b2; stroke-opacity: 0.6; stroke-width: 0.75"/>
    </defs>
    <g>
     <use xlink:href="#mbfcc201039" x="162.02" y="86.060338" style="fill: #0173b2; fill-opacity: 0.2; stroke: #0173b2; stroke-opacity: 0.6; stroke-width: 0.75"/>
    </g>
   </g>
   <g id="PathCollection_4">
    <defs>
     <path id="md2a7c6440a" d="M 0 3 
C 0.795609 3 1.55874 2.683901 2.12132 2.12132 
C 2.683901 1.55874 3 0.795609 3 0 
C 3 -0.795609 2.683901 -1.55874 2.12132 -2.12132 
C 1.55874 -2.683901 0.795609 -3 0 -3 
C -0.795609 -3 -1.55874 -2.683901 -2.12132 -2.12132 
C -2.683901 -1.55874 -3 -0.795609 -3 0 
C -3 0.795609 -2.683901 1.55874 -2.12132 2.12132 
C -1.55874 2.683901 -0.795609 3 0 3 
z
" style="stroke: #0173b2; stroke-width: 0.5"/>
    </defs>
    <g>
     <use xlink:href="#md2a7c6440a" x="162.02" y="86.060338" style="fill: #0173b2; stroke: #0173b2; stroke-width: 0.5"/>
    </g>
   </g>
   <g id="text_11">
    <!-- FeS -->
    <g style="fill: #262626" transform="translate(181.82 88.947838) scale(0.11 -0.11)">
     <use xlink:href="#ArialMT-46"/>
     <use xlink:href="#ArialMT-65" x="61.083984"/>
     <use xlink:href="#ArialMT-53" x="116.699219"/>
    </g>
   </g>
   <g id="PathCollection_5">
    <defs>
     <path id="m503f1da2e5" d="M 0 2 
C 0.530406 2 1.03916 1.789267 1.414214 1.414214 
C 1.789267 1.03916 2 0.530406 2 0 
C 2 -0.530406 1.789267 -1.03916 1.414214 -1.414214 
C 1.03916 -1.789267 0.530406 -2 0 -2 
C -0.530406 -2 -1.03916 -1.789267 -1.414214 -1.414214 
C -1.789267 -1.03916 -2 -0.530406 -2 0 
C -2 0.530406 -1.789267 1.03916 -1.414214 1.414214 
C -1.03916 1.789267 -0.530406 2 0 2 
z
" style="stroke: #de8f05; stroke-opacity: 0.6; stroke-width: 0.75"/>
    </defs>
    <g>
     <use xlink:href="#m503f1da2e5" x="162.02" y="101.620182" style="fill: #de8f05; fill-opacity: 0.2; stroke: #de8f05; stroke-opacity: 0.6; stroke-width: 0.75"/>
    </g>
   </g>
   <g id="PathCollection_6">
    <defs>
     <path id="m7a04016a3c" d="M 0 3 
C 0.795609 3 1.55874 2.683901 2.12132 2.12132 
C 2.683901 1.55874 3 0.795609 3 0 
C 3 -0.795609 2.683901 -1.55874 2.12132 -2.12132 
C 1.55874 -2.683901 0.795609 -3 0 -3 
C -0.795609 -3 -1.55874 -2.683901 -2.12132 -2.12132 
C -2.683901 -1.55874 -3 -0.795609 -3 0 
C -3 0.795609 -2.683901 1.55874 -2.12132 2.12132 
C -1.55874 2.683901 -0.795609 3 0 3 
z
" style="stroke: #de8f05; stroke-width: 0.5"/>
    </defs>
    <g>
     <use xlink:href="#m7a04016a3c" x="162.02" y="101.620182" style="fill: #de8f05; stroke: #de8f05; stroke-width: 0.5"/>
    </g>
   </g>
   <g id="text_12">
    <!-- FeD -->
    <g style="fill: #262626" transform="translate(181.82 104.507682) scale(0.11 -0.11)">
     <use xlink:href="#ArialMT-46"/>
     <use xlink:href="#ArialMT-65" x="61.083984"/>
     <use xlink:href="#ArialMT-44" x="116.699219"/>
    </g>
   </g>
  </g>
 </g>
 <defs>
  <clipPath id="ped5dfc0f97">
   <rect x="47.25125" y="8.885405" width="78.02875" height="168.801652"/>
  </clipPath>
 </defs>
</svg>
