<?xml version="1.0" encoding="utf-8" standalone="no"?>
<!DOCTYPE svg PUBLIC "-//W3C//DTD SVG 1.1//EN"
  "http://www.w3.org/Graphics/SVG/1.1/DTD/svg11.dtd">
<svg xmlns:xlink="http://www.w3.org/1999/xlink" width="396.447187pt" height="204.48pt" viewBox="0 0 396.447187 204.48" xmlns="http://www.w3.org/2000/svg" version="1.1">
 <metadata>
  <rdf:RDF xmlns:dc="http://purl.org/dc/elements/1.1/" xmlns:cc="http://creativecommons.org/ns#" xmlns:rdf="http://www.w3.org/1999/02/22-rdf-syntax-ns#">
   <cc:Work>
    <dc:type rdf:resource="http://purl.org/dc/dcmitype/StillImage"/>
    <dc:date>2023-06-02T17:19:24.216639</dc:date>
    <dc:format>image/svg+xml</dc:format>
    <dc:creator>
     <cc:Agent>
      <dc:title>Matplotlib v3.6.2, https://matplotlib.org/</dc:title>
     </cc:Agent>
    </dc:creator>
   </cc:Work>
  </rdf:RDF>
 </metadata>
 <defs>
  <style type="text/css">*{stroke-linejoin: round; stroke-linecap: butt}</style>
 </defs>
 <g id="figure_1">
  <g id="patch_1">
   <path d="M 0 204.48 
L 396.447187 204.48 
L 396.447187 0 
L 0 0 
z
" style="fill: #ffffff"/>
  </g>
  <g id="axes_1">
   <g id="patch_2">
    <path d="M 46.964375 177.720156 
L 136.492074 177.720156 
L 136.492074 21.789375 
L 46.964375 21.789375 
z
" style="fill: #eaeaf2"/>
   </g>
   <g id="matplotlib.axis_1">
    <g id="xtick_1">
     <g id="text_1">
      <!-- Iron-Sufficient -->
      <g style="fill: #262626" transform="translate(35.512706 195.09375) scale(0.11 -0.11)">
       <defs>
        <path id="ArialMT-49" d="M 597 0 
L 597 4581 
L 1203 4581 
L 1203 0 
L 597 0 
z
" transform="scale(0.015625)"/>
        <path id="ArialMT-72" d="M 416 0 
L 416 3319 
L 922 3319 
L 922 2816 
Q 1116 3169 1280 3281 
Q 1444 3394 1641 3394 
Q 1925 3394 2219 3213 
L 2025 2691 
Q 1819 2813 1613 2813 
Q 1428 2813 1281 2702 
Q 1134 2591 1072 2394 
Q 978 2094 978 1738 
L 978 0 
L 416 0 
z
" transform="scale(0.015625)"/>
        <path id="ArialMT-6f" d="M 213 1659 
Q 213 2581 725 3025 
Q 1153 3394 1769 3394 
Q 2453 3394 2887 2945 
Q 3322 2497 3322 1706 
Q 3322 1066 3130 698 
Q 2938 331 2570 128 
Q 2203 -75 1769 -75 
Q 1072 -75 642 372 
Q 213 819 213 1659 
z
M 791 1659 
Q 791 1022 1069 705 
Q 1347 388 1769 388 
Q 2188 388 2466 706 
Q 2744 1025 2744 1678 
Q 2744 2294 2464 2611 
Q 2184 2928 1769 2928 
Q 1347 2928 1069 2612 
Q 791 2297 791 1659 
z
" transform="scale(0.015625)"/>
        <path id="ArialMT-6e" d="M 422 0 
L 422 3319 
L 928 3319 
L 928 2847 
Q 1294 3394 1984 3394 
Q 2284 3394 2536 3286 
Q 2788 3178 2913 3003 
Q 3038 2828 3088 2588 
Q 3119 2431 3119 2041 
L 3119 0 
L 2556 0 
L 2556 2019 
Q 2556 2363 2490 2533 
Q 2425 2703 2258 2804 
Q 2091 2906 1866 2906 
Q 1506 2906 1245 2678 
Q 984 2450 984 1813 
L 984 0 
L 422 0 
z
" transform="scale(0.015625)"/>
        <path id="ArialMT-2d" d="M 203 1375 
L 203 1941 
L 1931 1941 
L 1931 1375 
L 203 1375 
z
" transform="scale(0.015625)"/>
        <path id="ArialMT-53" d="M 288 1472 
L 859 1522 
Q 900 1178 1048 958 
Q 1197 738 1509 602 
Q 1822 466 2213 466 
Q 2559 466 2825 569 
Q 3091 672 3220 851 
Q 3350 1031 3350 1244 
Q 3350 1459 3225 1620 
Q 3100 1781 2813 1891 
Q 2628 1963 1997 2114 
Q 1366 2266 1113 2400 
Q 784 2572 623 2826 
Q 463 3081 463 3397 
Q 463 3744 659 4045 
Q 856 4347 1234 4503 
Q 1613 4659 2075 4659 
Q 2584 4659 2973 4495 
Q 3363 4331 3572 4012 
Q 3781 3694 3797 3291 
L 3216 3247 
Q 3169 3681 2898 3903 
Q 2628 4125 2100 4125 
Q 1550 4125 1298 3923 
Q 1047 3722 1047 3438 
Q 1047 3191 1225 3031 
Q 1400 2872 2139 2705 
Q 2878 2538 3153 2413 
Q 3553 2228 3743 1945 
Q 3934 1663 3934 1294 
Q 3934 928 3725 604 
Q 3516 281 3123 101 
Q 2731 -78 2241 -78 
Q 1619 -78 1198 103 
Q 778 284 539 648 
Q 300 1013 288 1472 
z
" transform="scale(0.015625)"/>
        <path id="ArialMT-75" d="M 2597 0 
L 2597 488 
Q 2209 -75 1544 -75 
Q 1250 -75 995 37 
Q 741 150 617 320 
Q 494 491 444 738 
Q 409 903 409 1263 
L 409 3319 
L 972 3319 
L 972 1478 
Q 972 1038 1006 884 
Q 1059 663 1231 536 
Q 1403 409 1656 409 
Q 1909 409 2131 539 
Q 2353 669 2445 892 
Q 2538 1116 2538 1541 
L 2538 3319 
L 3100 3319 
L 3100 0 
L 2597 0 
z
" transform="scale(0.015625)"/>
        <path id="ArialMT-66" d="M 556 0 
L 556 2881 
L 59 2881 
L 59 3319 
L 556 3319 
L 556 3672 
Q 556 4006 616 4169 
Q 697 4388 901 4523 
Q 1106 4659 1475 4659 
Q 1713 4659 2000 4603 
L 1916 4113 
Q 1741 4144 1584 4144 
Q 1328 4144 1222 4034 
Q 1116 3925 1116 3625 
L 1116 3319 
L 1763 3319 
L 1763 2881 
L 1116 2881 
L 1116 0 
L 556 0 
z
" transform="scale(0.015625)"/>
        <path id="ArialMT-69" d="M 425 3934 
L 425 4581 
L 988 4581 
L 988 3934 
L 425 3934 
z
M 425 0 
L 425 3319 
L 988 3319 
L 988 0 
L 425 0 
z
" transform="scale(0.015625)"/>
        <path id="ArialMT-63" d="M 2588 1216 
L 3141 1144 
Q 3050 572 2676 248 
Q 2303 -75 1759 -75 
Q 1078 -75 664 370 
Q 250 816 250 1647 
Q 250 2184 428 2587 
Q 606 2991 970 3192 
Q 1334 3394 1763 3394 
Q 2303 3394 2647 3120 
Q 2991 2847 3088 2344 
L 2541 2259 
Q 2463 2594 2264 2762 
Q 2066 2931 1784 2931 
Q 1359 2931 1093 2626 
Q 828 2322 828 1663 
Q 828 994 1084 691 
Q 1341 388 1753 388 
Q 2084 388 2306 591 
Q 2528 794 2588 1216 
z
" transform="scale(0.015625)"/>
        <path id="ArialMT-65" d="M 2694 1069 
L 3275 997 
Q 3138 488 2766 206 
Q 2394 -75 1816 -75 
Q 1088 -75 661 373 
Q 234 822 234 1631 
Q 234 2469 665 2931 
Q 1097 3394 1784 3394 
Q 2450 3394 2872 2941 
Q 3294 2488 3294 1666 
Q 3294 1616 3291 1516 
L 816 1516 
Q 847 969 1125 678 
Q 1403 388 1819 388 
Q 2128 388 2347 550 
Q 2566 713 2694 1069 
z
M 847 1978 
L 2700 1978 
Q 2663 2397 2488 2606 
Q 2219 2931 1791 2931 
Q 1403 2931 1139 2672 
Q 875 2413 847 1978 
z
" transform="scale(0.015625)"/>
        <path id="ArialMT-74" d="M 1650 503 
L 1731 6 
Q 1494 -44 1306 -44 
Q 1000 -44 831 53 
Q 663 150 594 308 
Q 525 466 525 972 
L 525 2881 
L 113 2881 
L 113 3319 
L 525 3319 
L 525 4141 
L 1084 4478 
L 1084 3319 
L 1650 3319 
L 1650 2881 
L 1084 2881 
L 1084 941 
Q 1084 700 1114 631 
Q 1144 563 1211 522 
Q 1278 481 1403 481 
Q 1497 481 1650 503 
z
" transform="scale(0.015625)"/>
       </defs>
       <use xlink:href="#ArialMT-49"/>
       <use xlink:href="#ArialMT-72" x="27.783203"/>
       <use xlink:href="#ArialMT-6f" x="61.083984"/>
       <use xlink:href="#ArialMT-6e" x="116.699219"/>
       <use xlink:href="#ArialMT-2d" x="172.314453"/>
       <use xlink:href="#ArialMT-53" x="205.615234"/>
       <use xlink:href="#ArialMT-75" x="272.314453"/>
       <use xlink:href="#ArialMT-66" x="327.929688"/>
       <use xlink:href="#ArialMT-66" x="353.962891"/>
       <use xlink:href="#ArialMT-69" x="381.746094"/>
       <use xlink:href="#ArialMT-63" x="403.962891"/>
       <use xlink:href="#ArialMT-69" x="453.962891"/>
       <use xlink:href="#ArialMT-65" x="476.179688"/>
       <use xlink:href="#ArialMT-6e" x="531.794922"/>
       <use xlink:href="#ArialMT-74" x="587.410156"/>
      </g>
     </g>
    </g>
    <g id="xtick_2">
     <g id="text_2">
      <!-- Iron-Deficient -->
      <g style="fill: #262626" transform="translate(81.404915 195.09375) scale(0.11 -0.11)">
       <defs>
        <path id="ArialMT-44" d="M 494 0 
L 494 4581 
L 2072 4581 
Q 2606 4581 2888 4516 
Q 3281 4425 3559 4188 
Q 3922 3881 4101 3404 
Q 4281 2928 4281 2316 
Q 4281 1794 4159 1391 
Q 4038 988 3847 723 
Q 3656 459 3429 307 
Q 3203 156 2883 78 
Q 2563 0 2147 0 
L 494 0 
z
M 1100 541 
L 2078 541 
Q 2531 541 2789 625 
Q 3047 709 3200 863 
Q 3416 1078 3536 1442 
Q 3656 1806 3656 2325 
Q 3656 3044 3420 3430 
Q 3184 3816 2847 3947 
Q 2603 4041 2063 4041 
L 1100 4041 
L 1100 541 
z
" transform="scale(0.015625)"/>
       </defs>
       <use xlink:href="#ArialMT-49"/>
       <use xlink:href="#ArialMT-72" x="27.783203"/>
       <use xlink:href="#ArialMT-6f" x="61.083984"/>
       <use xlink:href="#ArialMT-6e" x="116.699219"/>
       <use xlink:href="#ArialMT-2d" x="172.314453"/>
       <use xlink:href="#ArialMT-44" x="205.615234"/>
       <use xlink:href="#ArialMT-65" x="277.832031"/>
       <use xlink:href="#ArialMT-66" x="333.447266"/>
       <use xlink:href="#ArialMT-69" x="361.230469"/>
       <use xlink:href="#ArialMT-63" x="383.447266"/>
       <use xlink:href="#ArialMT-69" x="433.447266"/>
       <use xlink:href="#ArialMT-65" x="455.664062"/>
       <use xlink:href="#ArialMT-6e" x="511.279297"/>
       <use xlink:href="#ArialMT-74" x="566.894531"/>
      </g>
     </g>
    </g>
   </g>
   <g id="matplotlib.axis_2">
    <g id="ytick_1">
     <g id="line2d_1">
      <path d="M 46.964375 148.720166 
L 136.492074 148.720166 
" clip-path="url(#ped4292d7d2)" style="fill: none; stroke: #ffffff; stroke-linecap: round"/>
     </g>
     <g id="text_3">
      <!-- 0.9 -->
      <g style="fill: #262626" transform="translate(22.174375 152.656963) scale(0.11 -0.11)">
       <defs>
        <path id="ArialMT-30" d="M 266 2259 
Q 266 3072 433 3567 
Q 600 4063 929 4331 
Q 1259 4600 1759 4600 
Q 2128 4600 2406 4451 
Q 2684 4303 2865 4023 
Q 3047 3744 3150 3342 
Q 3253 2941 3253 2259 
Q 3253 1453 3087 958 
Q 2922 463 2592 192 
Q 2263 -78 1759 -78 
Q 1097 -78 719 397 
Q 266 969 266 2259 
z
M 844 2259 
Q 844 1131 1108 757 
Q 1372 384 1759 384 
Q 2147 384 2411 759 
Q 2675 1134 2675 2259 
Q 2675 3391 2411 3762 
Q 2147 4134 1753 4134 
Q 1366 4134 1134 3806 
Q 844 3388 844 2259 
z
" transform="scale(0.015625)"/>
        <path id="ArialMT-2e" d="M 581 0 
L 581 641 
L 1222 641 
L 1222 0 
L 581 0 
z
" transform="scale(0.015625)"/>
        <path id="ArialMT-39" d="M 350 1059 
L 891 1109 
Q 959 728 1153 556 
Q 1347 384 1650 384 
Q 1909 384 2104 503 
Q 2300 622 2425 820 
Q 2550 1019 2634 1356 
Q 2719 1694 2719 2044 
Q 2719 2081 2716 2156 
Q 2547 1888 2255 1720 
Q 1963 1553 1622 1553 
Q 1053 1553 659 1965 
Q 266 2378 266 3053 
Q 266 3750 677 4175 
Q 1088 4600 1706 4600 
Q 2153 4600 2523 4359 
Q 2894 4119 3086 3673 
Q 3278 3228 3278 2384 
Q 3278 1506 3087 986 
Q 2897 466 2520 194 
Q 2144 -78 1638 -78 
Q 1100 -78 759 220 
Q 419 519 350 1059 
z
M 2653 3081 
Q 2653 3566 2395 3850 
Q 2138 4134 1775 4134 
Q 1400 4134 1122 3828 
Q 844 3522 844 3034 
Q 844 2597 1108 2323 
Q 1372 2050 1759 2050 
Q 2150 2050 2401 2323 
Q 2653 2597 2653 3081 
z
" transform="scale(0.015625)"/>
       </defs>
       <use xlink:href="#ArialMT-30"/>
       <use xlink:href="#ArialMT-2e" x="55.615234"/>
       <use xlink:href="#ArialMT-39" x="83.398438"/>
      </g>
     </g>
    </g>
    <g id="ytick_2">
     <g id="line2d_2">
      <path d="M 46.964375 115.009047 
L 136.492074 115.009047 
" clip-path="url(#ped4292d7d2)" style="fill: none; stroke: #ffffff; stroke-linecap: round"/>
     </g>
     <g id="text_4">
      <!-- 1.0 -->
      <g style="fill: #262626" transform="translate(22.174375 118.945844) scale(0.11 -0.11)">
       <defs>
        <path id="ArialMT-31" d="M 2384 0 
L 1822 0 
L 1822 3584 
Q 1619 3391 1289 3197 
Q 959 3003 697 2906 
L 697 3450 
Q 1169 3672 1522 3987 
Q 1875 4303 2022 4600 
L 2384 4600 
L 2384 0 
z
" transform="scale(0.015625)"/>
       </defs>
       <use xlink:href="#ArialMT-31"/>
       <use xlink:href="#ArialMT-2e" x="55.615234"/>
       <use xlink:href="#ArialMT-30" x="83.398438"/>
      </g>
     </g>
    </g>
    <g id="ytick_3">
     <g id="line2d_3">
      <path d="M 46.964375 81.297928 
L 136.492074 81.297928 
" clip-path="url(#ped4292d7d2)" style="fill: none; stroke: #ffffff; stroke-linecap: round"/>
     </g>
     <g id="text_5">
      <!-- 1.1 -->
      <g style="fill: #262626" transform="translate(22.174375 85.234725) scale(0.11 -0.11)">
       <use xlink:href="#ArialMT-31"/>
       <use xlink:href="#ArialMT-2e" x="55.615234"/>
       <use xlink:href="#ArialMT-31" x="83.398438"/>
      </g>
     </g>
    </g>
    <g id="ytick_4">
     <g id="line2d_4">
      <path d="M 46.964375 47.586809 
L 136.492074 47.586809 
" clip-path="url(#ped4292d7d2)" style="fill: none; stroke: #ffffff; stroke-linecap: round"/>
     </g>
     <g id="text_6">
      <!-- 1.2 -->
      <g style="fill: #262626" transform="translate(22.174375 51.523606) scale(0.11 -0.11)">
       <defs>
        <path id="ArialMT-32" d="M 3222 541 
L 3222 0 
L 194 0 
Q 188 203 259 391 
Q 375 700 629 1000 
Q 884 1300 1366 1694 
Q 2113 2306 2375 2664 
Q 2638 3022 2638 3341 
Q 2638 3675 2398 3904 
Q 2159 4134 1775 4134 
Q 1369 4134 1125 3890 
Q 881 3647 878 3216 
L 300 3275 
Q 359 3922 746 4261 
Q 1134 4600 1788 4600 
Q 2447 4600 2831 4234 
Q 3216 3869 3216 3328 
Q 3216 3053 3103 2787 
Q 2991 2522 2730 2228 
Q 2469 1934 1863 1422 
Q 1356 997 1212 845 
Q 1069 694 975 541 
L 3222 541 
z
" transform="scale(0.015625)"/>
       </defs>
       <use xlink:href="#ArialMT-31"/>
       <use xlink:href="#ArialMT-2e" x="55.615234"/>
       <use xlink:href="#ArialMT-32" x="83.398438"/>
      </g>
     </g>
    </g>
    <g id="text_7">
     <!-- Abs -->
     <g style="fill: #262626" transform="translate(15.789375 110.093516) rotate(-90) scale(0.12 -0.12)">
      <defs>
       <path id="ArialMT-41" d="M -9 0 
L 1750 4581 
L 2403 4581 
L 4278 0 
L 3588 0 
L 3053 1388 
L 1138 1388 
L 634 0 
L -9 0 
z
M 1313 1881 
L 2866 1881 
L 2388 3150 
Q 2169 3728 2063 4100 
Q 1975 3659 1816 3225 
L 1313 1881 
z
" transform="scale(0.015625)"/>
       <path id="ArialMT-62" d="M 941 0 
L 419 0 
L 419 4581 
L 981 4581 
L 981 2947 
Q 1338 3394 1891 3394 
Q 2197 3394 2470 3270 
Q 2744 3147 2920 2923 
Q 3097 2700 3197 2384 
Q 3297 2069 3297 1709 
Q 3297 856 2875 390 
Q 2453 -75 1863 -75 
Q 1275 -75 941 416 
L 941 0 
z
M 934 1684 
Q 934 1088 1097 822 
Q 1363 388 1816 388 
Q 2184 388 2453 708 
Q 2722 1028 2722 1663 
Q 2722 2313 2464 2622 
Q 2206 2931 1841 2931 
Q 1472 2931 1203 2611 
Q 934 2291 934 1684 
z
" transform="scale(0.015625)"/>
       <path id="ArialMT-73" d="M 197 991 
L 753 1078 
Q 800 744 1014 566 
Q 1228 388 1613 388 
Q 2000 388 2187 545 
Q 2375 703 2375 916 
Q 2375 1106 2209 1216 
Q 2094 1291 1634 1406 
Q 1016 1563 777 1677 
Q 538 1791 414 1992 
Q 291 2194 291 2438 
Q 291 2659 392 2848 
Q 494 3038 669 3163 
Q 800 3259 1026 3326 
Q 1253 3394 1513 3394 
Q 1903 3394 2198 3281 
Q 2494 3169 2634 2976 
Q 2775 2784 2828 2463 
L 2278 2388 
Q 2241 2644 2061 2787 
Q 1881 2931 1553 2931 
Q 1166 2931 1000 2803 
Q 834 2675 834 2503 
Q 834 2394 903 2306 
Q 972 2216 1119 2156 
Q 1203 2125 1616 2013 
Q 2213 1853 2448 1751 
Q 2684 1650 2818 1456 
Q 2953 1263 2953 975 
Q 2953 694 2789 445 
Q 2625 197 2315 61 
Q 2006 -75 1616 -75 
Q 969 -75 630 194 
Q 291 463 197 991 
z
" transform="scale(0.015625)"/>
      </defs>
      <use xlink:href="#ArialMT-41"/>
      <use xlink:href="#ArialMT-62" x="66.699219"/>
      <use xlink:href="#ArialMT-73" x="122.314453"/>
     </g>
    </g>
   </g>
   <g id="PathCollection_1">
    <path d="M 71.108957 172.632393 
C 71.639363 172.632393 72.148116 172.421661 72.52317 172.046607 
C 72.898224 171.671553 73.108957 171.1628 73.108957 170.632393 
C 73.108957 170.101987 72.898224 169.593234 72.52317 169.21818 
C 72.148116 168.843126 71.639363 168.632393 71.108957 168.632393 
C 70.578551 168.632393 70.069797 168.843126 69.694743 169.21818 
C 69.319689 169.593234 69.108957 170.101987 69.108957 170.632393 
C 69.108957 171.1628 69.319689 171.671553 69.694743 172.046607 
C 70.069797 172.421661 70.578551 172.632393 71.108957 172.632393 
z
" clip-path="url(#ped4292d7d2)" style="fill: #0173b2; fill-opacity: 0.2; stroke: #0173b2; stroke-opacity: 0.6; stroke-width: 0.75"/>
    <path d="M 74.182173 137.909941 
C 74.712579 137.909941 75.221332 137.699208 75.596386 137.324154 
C 75.97144 136.949101 76.182173 136.440347 76.182173 135.909941 
C 76.182173 135.379535 75.97144 134.870781 75.596386 134.495727 
C 75.221332 134.120673 74.712579 133.909941 74.182173 133.909941 
C 73.651766 133.909941 73.143013 134.120673 72.767959 134.495727 
C 72.392905 134.870781 72.182173 135.379535 72.182173 135.909941 
C 72.182173 136.440347 72.392905 136.949101 72.767959 137.324154 
C 73.143013 137.699208 73.651766 137.909941 74.182173 137.909941 
z
" clip-path="url(#ped4292d7d2)" style="fill: #0173b2; fill-opacity: 0.2; stroke: #0173b2; stroke-opacity: 0.6; stroke-width: 0.75"/>
    <path d="M 72.933213 146.000609 
C 73.463619 146.000609 73.972373 145.789877 74.347427 145.414823 
C 74.72248 145.039769 74.933213 144.531016 74.933213 144.000609 
C 74.933213 143.470203 74.72248 142.96145 74.347427 142.586396 
C 73.972373 142.211342 73.463619 142.000609 72.933213 142.000609 
C 72.402807 142.000609 71.894053 142.211342 71.519 142.586396 
C 71.143946 142.96145 70.933213 143.470203 70.933213 144.000609 
C 70.933213 144.531016 71.143946 145.039769 71.519 145.414823 
C 71.894053 145.789877 72.402807 146.000609 72.933213 146.000609 
z
" clip-path="url(#ped4292d7d2)" style="fill: #0173b2; fill-opacity: 0.2; stroke: #0173b2; stroke-opacity: 0.6; stroke-width: 0.75"/>
    <path d="M 73.187542 55.317699 
C 73.717948 55.317699 74.226702 55.106966 74.601755 54.731913 
C 74.976809 54.356859 75.187542 53.848105 75.187542 53.317699 
C 75.187542 52.787293 74.976809 52.278539 74.601755 51.903486 
C 74.226702 51.528432 73.717948 51.317699 73.187542 51.317699 
C 72.657136 51.317699 72.148382 51.528432 71.773328 51.903486 
C 71.398274 52.278539 71.187542 52.787293 71.187542 53.317699 
C 71.187542 53.848105 71.398274 54.356859 71.773328 54.731913 
C 72.148382 55.106966 72.657136 55.317699 73.187542 55.317699 
z
" clip-path="url(#ped4292d7d2)" style="fill: #0173b2; fill-opacity: 0.2; stroke: #0173b2; stroke-opacity: 0.6; stroke-width: 0.75"/>
    <path d="M 70.323899 85.152039 
C 70.854306 85.152039 71.363059 84.941307 71.738113 84.566253 
C 72.113167 84.191199 72.323899 83.682446 72.323899 83.152039 
C 72.323899 82.621633 72.113167 82.11288 71.738113 81.737826 
C 71.363059 81.362772 70.854306 81.152039 70.323899 81.152039 
C 69.793493 81.152039 69.28474 81.362772 68.909686 81.737826 
C 68.534632 82.11288 68.323899 82.621633 68.323899 83.152039 
C 68.323899 83.682446 68.534632 84.191199 68.909686 84.566253 
C 69.28474 84.941307 69.793493 85.152039 70.323899 85.152039 
z
" clip-path="url(#ped4292d7d2)" style="fill: #0173b2; fill-opacity: 0.2; stroke: #0173b2; stroke-opacity: 0.6; stroke-width: 0.75"/>
    <path d="M 74.299468 90.88293 
C 74.829874 90.88293 75.338628 90.672197 75.713681 90.297143 
C 76.088735 89.922089 76.299468 89.413336 76.299468 88.88293 
C 76.299468 88.352524 76.088735 87.84377 75.713681 87.468716 
C 75.338628 87.093662 74.829874 86.88293 74.299468 86.88293 
C 73.769062 86.88293 73.260308 87.093662 72.885254 87.468716 
C 72.5102 87.84377 72.299468 88.352524 72.299468 88.88293 
C 72.299468 89.413336 72.5102 89.922089 72.885254 90.297143 
C 73.260308 90.672197 73.769062 90.88293 74.299468 90.88293 
z
" clip-path="url(#ped4292d7d2)" style="fill: #0173b2; fill-opacity: 0.2; stroke: #0173b2; stroke-opacity: 0.6; stroke-width: 0.75"/>
    <path d="M 119.587615 112.458046 
C 120.118021 112.458046 120.626775 112.247313 121.001829 111.872259 
C 121.376883 111.497206 121.587615 110.988452 121.587615 110.458046 
C 121.587615 109.92764 121.376883 109.418886 121.001829 109.043832 
C 120.626775 108.668779 120.118021 108.458046 119.587615 108.458046 
C 119.057209 108.458046 118.548455 108.668779 118.173402 109.043832 
C 117.798348 109.418886 117.587615 109.92764 117.587615 110.458046 
C 117.587615 110.988452 117.798348 111.497206 118.173402 111.872259 
C 118.548455 112.247313 119.057209 112.458046 119.587615 112.458046 
z
" clip-path="url(#ped4292d7d2)" style="fill: #de8f05; fill-opacity: 0.2; stroke: #de8f05; stroke-opacity: 0.6; stroke-width: 0.75"/>
    <path d="M 116.552952 101.333377 
C 117.083358 101.333377 117.592112 101.122644 117.967165 100.74759 
C 118.342219 100.372536 118.552952 99.863783 118.552952 99.333377 
C 118.552952 98.80297 118.342219 98.294217 117.967165 97.919163 
C 117.592112 97.544109 117.083358 97.333377 116.552952 97.333377 
C 116.022546 97.333377 115.513792 97.544109 115.138738 97.919163 
C 114.763684 98.294217 114.552952 98.80297 114.552952 99.333377 
C 114.552952 99.863783 114.763684 100.372536 115.138738 100.74759 
C 115.513792 101.122644 116.022546 101.333377 116.552952 101.333377 
z
" clip-path="url(#ped4292d7d2)" style="fill: #de8f05; fill-opacity: 0.2; stroke: #de8f05; stroke-opacity: 0.6; stroke-width: 0.75"/>
    <path d="M 118.605056 85.152039 
C 119.135462 85.152039 119.644215 84.941307 120.019269 84.566253 
C 120.394323 84.191199 120.605056 83.682446 120.605056 83.152039 
C 120.605056 82.621633 120.394323 82.11288 120.019269 81.737826 
C 119.644215 81.362772 119.135462 81.152039 118.605056 81.152039 
C 118.074649 81.152039 117.565896 81.362772 117.190842 81.737826 
C 116.815788 82.11288 116.605056 82.621633 116.605056 83.152039 
C 116.605056 83.682446 116.815788 84.191199 117.190842 84.566253 
C 117.565896 84.941307 118.074649 85.152039 118.605056 85.152039 
z
" clip-path="url(#ped4292d7d2)" style="fill: #de8f05; fill-opacity: 0.2; stroke: #de8f05; stroke-opacity: 0.6; stroke-width: 0.75"/>
    <path d="M 120.362301 30.877138 
C 120.892707 30.877138 121.401461 30.666405 121.776514 30.291351 
C 122.151568 29.916298 122.362301 29.407544 122.362301 28.877138 
C 122.362301 28.346732 122.151568 27.837978 121.776514 27.462924 
C 121.401461 27.08787 120.892707 26.877138 120.362301 26.877138 
C 119.831895 26.877138 119.323141 27.08787 118.948087 27.462924 
C 118.573034 27.837978 118.362301 28.346732 118.362301 28.877138 
C 118.362301 29.407544 118.573034 29.916298 118.948087 30.291351 
C 119.323141 30.666405 119.831895 30.877138 120.362301 30.877138 
z
" clip-path="url(#ped4292d7d2)" style="fill: #de8f05; fill-opacity: 0.2; stroke: #de8f05; stroke-opacity: 0.6; stroke-width: 0.75"/>
    <path d="M 120.972963 69.81348 
C 121.50337 69.81348 122.012123 69.602748 122.387177 69.227694 
C 122.762231 68.85264 122.972963 68.343887 122.972963 67.81348 
C 122.972963 67.283074 122.762231 66.774321 122.387177 66.399267 
C 122.012123 66.024213 121.50337 65.81348 120.972963 65.81348 
C 120.442557 65.81348 119.933804 66.024213 119.55875 66.399267 
C 119.183696 66.774321 118.972963 67.283074 118.972963 67.81348 
C 118.972963 68.343887 119.183696 68.85264 119.55875 69.227694 
C 119.933804 69.602748 120.442557 69.81348 120.972963 69.81348 
z
" clip-path="url(#ped4292d7d2)" style="fill: #de8f05; fill-opacity: 0.2; stroke: #de8f05; stroke-opacity: 0.6; stroke-width: 0.75"/>
    <path d="M 121.456504 87.680373 
C 121.98691 87.680373 122.495663 87.469641 122.870717 87.094587 
C 123.245771 86.719533 123.456504 86.21078 123.456504 85.680373 
C 123.456504 85.149967 123.245771 84.641214 122.870717 84.26616 
C 122.495663 83.891106 121.98691 83.680373 121.456504 83.680373 
C 120.926097 83.680373 120.417344 83.891106 120.04229 84.26616 
C 119.667236 84.641214 119.456504 85.149967 119.456504 85.680373 
C 119.456504 86.21078 119.667236 86.719533 120.04229 87.094587 
C 120.417344 87.469641 120.926097 87.680373 121.456504 87.680373 
z
" clip-path="url(#ped4292d7d2)" style="fill: #de8f05; fill-opacity: 0.2; stroke: #de8f05; stroke-opacity: 0.6; stroke-width: 0.75"/>
   </g>
   <g id="PathCollection_2">
    <path d="M 64.869915 115.649269 
C 65.665524 115.649269 66.428654 115.33317 66.991235 114.770589 
C 67.553816 114.208008 67.869915 113.444878 67.869915 112.649269 
C 67.869915 111.853659 67.553816 111.090529 66.991235 110.527948 
C 66.428654 109.965368 65.665524 109.649269 64.869915 109.649269 
C 64.074305 109.649269 63.311175 109.965368 62.748594 110.527948 
C 62.186014 111.090529 61.869915 111.853659 61.869915 112.649269 
C 61.869915 113.444878 62.186014 114.208008 62.748594 114.770589 
C 63.311175 115.33317 64.074305 115.649269 64.869915 115.649269 
z
" clip-path="url(#ped4292d7d2)" style="fill: #0173b2; stroke: #0173b2; stroke-width: 0.5"/>
    <path d="M 109.633764 82.219076 
C 110.429374 82.219076 111.192504 81.902977 111.755085 81.340396 
C 112.317665 80.777815 112.633764 80.014685 112.633764 79.219076 
C 112.633764 78.423466 112.317665 77.660336 111.755085 77.097755 
C 111.192504 76.535175 110.429374 76.219076 109.633764 76.219076 
C 108.838155 76.219076 108.075025 76.535175 107.512444 77.097755 
C 106.949863 77.660336 106.633764 78.423466 106.633764 79.219076 
C 106.633764 80.014685 106.949863 80.777815 107.512444 81.340396 
C 108.075025 81.902977 108.838155 82.219076 109.633764 82.219076 
z
" clip-path="url(#ped4292d7d2)" style="fill: #de8f05; stroke: #de8f05; stroke-width: 0.5"/>
   </g>
   <g id="LineCollection_1">
    <path d="M 64.869915 157.014049 
L 64.869915 68.284488 
" clip-path="url(#ped4292d7d2)" style="fill: none; stroke: #0173b2; stroke-width: 1.5; stroke-linecap: square"/>
    <path d="M 109.633764 107.861957 
L 109.633764 50.576194 
" clip-path="url(#ped4292d7d2)" style="fill: none; stroke: #de8f05; stroke-width: 1.5; stroke-linecap: square"/>
   </g>
   <g id="patch_3">
    <path d="M 46.964375 177.720156 
L 46.964375 21.789375 
" style="fill: none; stroke: #ffffff; stroke-width: 1.25; stroke-linejoin: miter; stroke-linecap: square"/>
   </g>
   <g id="patch_4">
    <path d="M 136.492074 177.720156 
L 136.492074 21.789375 
" style="fill: none; stroke: #ffffff; stroke-width: 1.25; stroke-linejoin: miter; stroke-linecap: square"/>
   </g>
   <g id="patch_5">
    <path d="M 46.964375 177.720156 
L 136.492074 177.720156 
" style="fill: none; stroke: #ffffff; stroke-width: 1.25; stroke-linejoin: miter; stroke-linecap: square"/>
   </g>
   <g id="patch_6">
    <path d="M 46.964375 21.789375 
L 136.492074 21.789375 
" style="fill: none; stroke: #ffffff; stroke-width: 1.25; stroke-linejoin: miter; stroke-linecap: square"/>
   </g>
   <g id="text_8">
    <!-- T3 -->
    <g style="fill: #262626" transform="translate(84.726974 15.789375) scale(0.12 -0.12)">
     <defs>
      <path id="ArialMT-54" d="M 1659 0 
L 1659 4041 
L 150 4041 
L 150 4581 
L 3781 4581 
L 3781 4041 
L 2266 4041 
L 2266 0 
L 1659 0 
z
" transform="scale(0.015625)"/>
      <path id="ArialMT-33" d="M 269 1209 
L 831 1284 
Q 928 806 1161 595 
Q 1394 384 1728 384 
Q 2125 384 2398 659 
Q 2672 934 2672 1341 
Q 2672 1728 2419 1979 
Q 2166 2231 1775 2231 
Q 1616 2231 1378 2169 
L 1441 2663 
Q 1497 2656 1531 2656 
Q 1891 2656 2178 2843 
Q 2466 3031 2466 3422 
Q 2466 3731 2256 3934 
Q 2047 4138 1716 4138 
Q 1388 4138 1169 3931 
Q 950 3725 888 3313 
L 325 3413 
Q 428 3978 793 4289 
Q 1159 4600 1703 4600 
Q 2078 4600 2393 4439 
Q 2709 4278 2876 4000 
Q 3044 3722 3044 3409 
Q 3044 3113 2884 2869 
Q 2725 2625 2413 2481 
Q 2819 2388 3044 2092 
Q 3269 1797 3269 1353 
Q 3269 753 2831 336 
Q 2394 -81 1725 -81 
Q 1122 -81 723 278 
Q 325 638 269 1209 
z
" transform="scale(0.015625)"/>
     </defs>
     <use xlink:href="#ArialMT-54"/>
     <use xlink:href="#ArialMT-33" x="61.083984"/>
    </g>
   </g>
  </g>
  <g id="axes_2">
   <g id="patch_7">
    <path d="M 172.410703 177.720156 
L 261.938402 177.720156 
L 261.938402 21.789375 
L 172.410703 21.789375 
z
" style="fill: #eaeaf2"/>
   </g>
   <g id="matplotlib.axis_3">
    <g id="xtick_3">
     <g id="text_9">
      <!-- Iron-Sufficient -->
      <g style="fill: #262626" transform="translate(160.959034 195.09375) scale(0.11 -0.11)">
       <use xlink:href="#ArialMT-49"/>
       <use xlink:href="#ArialMT-72" x="27.783203"/>
       <use xlink:href="#ArialMT-6f" x="61.083984"/>
       <use xlink:href="#ArialMT-6e" x="116.699219"/>
       <use xlink:href="#ArialMT-2d" x="172.314453"/>
       <use xlink:href="#ArialMT-53" x="205.615234"/>
       <use xlink:href="#ArialMT-75" x="272.314453"/>
       <use xlink:href="#ArialMT-66" x="327.929688"/>
       <use xlink:href="#ArialMT-66" x="353.962891"/>
       <use xlink:href="#ArialMT-69" x="381.746094"/>
       <use xlink:href="#ArialMT-63" x="403.962891"/>
       <use xlink:href="#ArialMT-69" x="453.962891"/>
       <use xlink:href="#ArialMT-65" x="476.179688"/>
       <use xlink:href="#ArialMT-6e" x="531.794922"/>
       <use xlink:href="#ArialMT-74" x="587.410156"/>
      </g>
     </g>
    </g>
    <g id="xtick_4">
     <g id="text_10">
      <!-- Iron-Deficient -->
      <g style="fill: #262626" transform="translate(206.851243 195.09375) scale(0.11 -0.11)">
       <use xlink:href="#ArialMT-49"/>
       <use xlink:href="#ArialMT-72" x="27.783203"/>
       <use xlink:href="#ArialMT-6f" x="61.083984"/>
       <use xlink:href="#ArialMT-6e" x="116.699219"/>
       <use xlink:href="#ArialMT-2d" x="172.314453"/>
       <use xlink:href="#ArialMT-44" x="205.615234"/>
       <use xlink:href="#ArialMT-65" x="277.832031"/>
       <use xlink:href="#ArialMT-66" x="333.447266"/>
       <use xlink:href="#ArialMT-69" x="361.230469"/>
       <use xlink:href="#ArialMT-63" x="383.447266"/>
       <use xlink:href="#ArialMT-69" x="433.447266"/>
       <use xlink:href="#ArialMT-65" x="455.664062"/>
       <use xlink:href="#ArialMT-6e" x="511.279297"/>
       <use xlink:href="#ArialMT-74" x="566.894531"/>
      </g>
     </g>
    </g>
   </g>
   <g id="matplotlib.axis_4">
    <g id="ytick_5">
     <g id="line2d_5">
      <path d="M 172.410703 174.946602 
L 261.938402 174.946602 
" clip-path="url(#pe2c542dd06)" style="fill: none; stroke: #ffffff; stroke-linecap: round"/>
     </g>
     <g id="text_11">
      <!-- 1 -->
      <g style="fill: #262626" transform="translate(156.793672 178.883399) scale(0.11 -0.11)">
       <use xlink:href="#ArialMT-31"/>
      </g>
     </g>
    </g>
    <g id="ytick_6">
     <g id="line2d_6">
      <path d="M 172.410703 146.83199 
L 261.938402 146.83199 
" clip-path="url(#pe2c542dd06)" style="fill: none; stroke: #ffffff; stroke-linecap: round"/>
     </g>
     <g id="text_12">
      <!-- 2 -->
      <g style="fill: #262626" transform="translate(156.793672 150.768787) scale(0.11 -0.11)">
       <use xlink:href="#ArialMT-32"/>
      </g>
     </g>
    </g>
    <g id="ytick_7">
     <g id="line2d_7">
      <path d="M 172.410703 118.717379 
L 261.938402 118.717379 
" clip-path="url(#pe2c542dd06)" style="fill: none; stroke: #ffffff; stroke-linecap: round"/>
     </g>
     <g id="text_13">
      <!-- 3 -->
      <g style="fill: #262626" transform="translate(156.793672 122.654176) scale(0.11 -0.11)">
       <use xlink:href="#ArialMT-33"/>
      </g>
     </g>
    </g>
    <g id="ytick_8">
     <g id="line2d_8">
      <path d="M 172.410703 90.602767 
L 261.938402 90.602767 
" clip-path="url(#pe2c542dd06)" style="fill: none; stroke: #ffffff; stroke-linecap: round"/>
     </g>
     <g id="text_14">
      <!-- 4 -->
      <g style="fill: #262626" transform="translate(156.793672 94.539564) scale(0.11 -0.11)">
       <defs>
        <path id="ArialMT-34" d="M 2069 0 
L 2069 1097 
L 81 1097 
L 81 1613 
L 2172 4581 
L 2631 4581 
L 2631 1613 
L 3250 1613 
L 3250 1097 
L 2631 1097 
L 2631 0 
L 2069 0 
z
M 2069 1613 
L 2069 3678 
L 634 1613 
L 2069 1613 
z
" transform="scale(0.015625)"/>
       </defs>
       <use xlink:href="#ArialMT-34"/>
      </g>
     </g>
    </g>
    <g id="ytick_9">
     <g id="line2d_9">
      <path d="M 172.410703 62.488156 
L 261.938402 62.488156 
" clip-path="url(#pe2c542dd06)" style="fill: none; stroke: #ffffff; stroke-linecap: round"/>
     </g>
     <g id="text_15">
      <!-- 5 -->
      <g style="fill: #262626" transform="translate(156.793672 66.424953) scale(0.11 -0.11)">
       <defs>
        <path id="ArialMT-35" d="M 266 1200 
L 856 1250 
Q 922 819 1161 601 
Q 1400 384 1738 384 
Q 2144 384 2425 690 
Q 2706 997 2706 1503 
Q 2706 1984 2436 2262 
Q 2166 2541 1728 2541 
Q 1456 2541 1237 2417 
Q 1019 2294 894 2097 
L 366 2166 
L 809 4519 
L 3088 4519 
L 3088 3981 
L 1259 3981 
L 1013 2750 
Q 1425 3038 1878 3038 
Q 2478 3038 2890 2622 
Q 3303 2206 3303 1553 
Q 3303 931 2941 478 
Q 2500 -78 1738 -78 
Q 1113 -78 717 272 
Q 322 622 266 1200 
z
" transform="scale(0.015625)"/>
       </defs>
       <use xlink:href="#ArialMT-35"/>
      </g>
     </g>
    </g>
    <g id="ytick_10">
     <g id="line2d_10">
      <path d="M 172.410703 34.373544 
L 261.938402 34.373544 
" clip-path="url(#pe2c542dd06)" style="fill: none; stroke: #ffffff; stroke-linecap: round"/>
     </g>
     <g id="text_16">
      <!-- 6 -->
      <g style="fill: #262626" transform="translate(156.793672 38.310341) scale(0.11 -0.11)">
       <defs>
        <path id="ArialMT-36" d="M 3184 3459 
L 2625 3416 
Q 2550 3747 2413 3897 
Q 2184 4138 1850 4138 
Q 1581 4138 1378 3988 
Q 1113 3794 959 3422 
Q 806 3050 800 2363 
Q 1003 2672 1297 2822 
Q 1591 2972 1913 2972 
Q 2475 2972 2870 2558 
Q 3266 2144 3266 1488 
Q 3266 1056 3080 686 
Q 2894 316 2569 119 
Q 2244 -78 1831 -78 
Q 1128 -78 684 439 
Q 241 956 241 2144 
Q 241 3472 731 4075 
Q 1159 4600 1884 4600 
Q 2425 4600 2770 4297 
Q 3116 3994 3184 3459 
z
M 888 1484 
Q 888 1194 1011 928 
Q 1134 663 1356 523 
Q 1578 384 1822 384 
Q 2178 384 2434 671 
Q 2691 959 2691 1453 
Q 2691 1928 2437 2201 
Q 2184 2475 1800 2475 
Q 1419 2475 1153 2201 
Q 888 1928 888 1484 
z
" transform="scale(0.015625)"/>
       </defs>
       <use xlink:href="#ArialMT-36"/>
      </g>
     </g>
    </g>
   </g>
   <g id="PathCollection_3">
    <path d="M 196.671193 83.029742 
C 197.2016 83.029742 197.710353 82.81901 198.085407 82.443956 
C 198.460461 82.068902 198.671193 81.560148 198.671193 81.029742 
C 198.671193 80.499336 198.460461 79.990582 198.085407 79.615529 
C 197.710353 79.240475 197.2016 79.029742 196.671193 79.029742 
C 196.140787 79.029742 195.632034 79.240475 195.25698 79.615529 
C 194.881926 79.990582 194.671193 80.499336 194.671193 81.029742 
C 194.671193 81.560148 194.881926 82.068902 195.25698 82.443956 
C 195.632034 82.81901 196.140787 83.029742 196.671193 83.029742 
z
" clip-path="url(#pe2c542dd06)" style="fill: #0173b2; fill-opacity: 0.2; stroke: #0173b2; stroke-opacity: 0.6; stroke-width: 0.75"/>
    <path d="M 198.194284 76.183834 
C 198.72469 76.183834 199.233443 75.973102 199.608497 75.598048 
C 199.983551 75.222994 200.194284 74.71424 200.194284 74.183834 
C 200.194284 73.653428 199.983551 73.144674 199.608497 72.769621 
C 199.233443 72.394567 198.72469 72.183834 198.194284 72.183834 
C 197.663877 72.183834 197.155124 72.394567 196.78007 72.769621 
C 196.405016 73.144674 196.194284 73.653428 196.194284 74.183834 
C 196.194284 74.71424 196.405016 75.222994 196.78007 75.598048 
C 197.155124 75.973102 197.663877 76.183834 198.194284 76.183834 
z
" clip-path="url(#pe2c542dd06)" style="fill: #0173b2; fill-opacity: 0.2; stroke: #0173b2; stroke-opacity: 0.6; stroke-width: 0.75"/>
    <path d="M 196.529037 137.417458 
C 197.059443 137.417458 197.568197 137.206725 197.943251 136.831672 
C 198.318304 136.456618 198.529037 135.947864 198.529037 135.417458 
C 198.529037 134.887052 198.318304 134.378298 197.943251 134.003245 
C 197.568197 133.628191 197.059443 133.417458 196.529037 133.417458 
C 195.998631 133.417458 195.489877 133.628191 195.114823 134.003245 
C 194.73977 134.378298 194.529037 134.887052 194.529037 135.417458 
C 194.529037 135.947864 194.73977 136.456618 195.114823 136.831672 
C 195.489877 137.206725 195.998631 137.417458 196.529037 137.417458 
z
" clip-path="url(#pe2c542dd06)" style="fill: #0173b2; fill-opacity: 0.2; stroke: #0173b2; stroke-opacity: 0.6; stroke-width: 0.75"/>
    <path d="M 200.431996 101.810303 
C 200.962402 101.810303 201.471155 101.59957 201.846209 101.224516 
C 202.221263 100.849462 202.431996 100.340709 202.431996 99.810303 
C 202.431996 99.279896 202.221263 98.771143 201.846209 98.396089 
C 201.471155 98.021035 200.962402 97.810303 200.431996 97.810303 
C 199.901589 97.810303 199.392836 98.021035 199.017782 98.396089 
C 198.642728 98.771143 198.431996 99.279896 198.431996 99.810303 
C 198.431996 100.340709 198.642728 100.849462 199.017782 101.224516 
C 199.392836 101.59957 199.901589 101.810303 200.431996 101.810303 
z
" clip-path="url(#pe2c542dd06)" style="fill: #0173b2; fill-opacity: 0.2; stroke: #0173b2; stroke-opacity: 0.6; stroke-width: 0.75"/>
    <path d="M 198.190885 43.303796 
C 198.721291 43.303796 199.230044 43.093063 199.605098 42.71801 
C 199.980152 42.342956 200.190885 41.834202 200.190885 41.303796 
C 200.190885 40.77339 199.980152 40.264636 199.605098 39.889583 
C 199.230044 39.514529 198.721291 39.303796 198.190885 39.303796 
C 197.660478 39.303796 197.151725 39.514529 196.776671 39.889583 
C 196.401617 40.264636 196.190885 40.77339 196.190885 41.303796 
C 196.190885 41.834202 196.401617 42.342956 196.776671 42.71801 
C 197.151725 43.093063 197.660478 43.303796 198.190885 43.303796 
z
" clip-path="url(#pe2c542dd06)" style="fill: #0173b2; fill-opacity: 0.2; stroke: #0173b2; stroke-opacity: 0.6; stroke-width: 0.75"/>
    <path d="M 201.865377 30.877138 
C 202.395783 30.877138 202.904537 30.666405 203.279591 30.291351 
C 203.654645 29.916298 203.865377 29.407544 203.865377 28.877138 
C 203.865377 28.346732 203.654645 27.837978 203.279591 27.462924 
C 202.904537 27.08787 202.395783 26.877138 201.865377 26.877138 
C 201.334971 26.877138 200.826217 27.08787 200.451164 27.462924 
C 200.07611 27.837978 199.865377 28.346732 199.865377 28.877138 
C 199.865377 29.407544 200.07611 29.916298 200.451164 30.291351 
C 200.826217 30.666405 201.334971 30.877138 201.865377 30.877138 
z
" clip-path="url(#pe2c542dd06)" style="fill: #0173b2; fill-opacity: 0.2; stroke: #0173b2; stroke-opacity: 0.6; stroke-width: 0.75"/>
    <path d="M 243.273782 167.584436 
C 243.804188 167.584436 244.312942 167.373704 244.687996 166.99865 
C 245.063049 166.623596 245.273782 166.114842 245.273782 165.584436 
C 245.273782 165.05403 245.063049 164.545277 244.687996 164.170223 
C 244.312942 163.795169 243.804188 163.584436 243.273782 163.584436 
C 242.743376 163.584436 242.234622 163.795169 241.859568 164.170223 
C 241.484515 164.545277 241.273782 165.05403 241.273782 165.584436 
C 241.273782 166.114842 241.484515 166.623596 241.859568 166.99865 
C 242.234622 167.373704 242.743376 167.584436 243.273782 167.584436 
z
" clip-path="url(#pe2c542dd06)" style="fill: #de8f05; fill-opacity: 0.2; stroke: #de8f05; stroke-opacity: 0.6; stroke-width: 0.75"/>
    <path d="M 242.23027 158.503417 
C 242.760676 158.503417 243.269429 158.292684 243.644483 157.91763 
C 244.019537 157.542576 244.23027 157.033823 244.23027 156.503417 
C 244.23027 155.973011 244.019537 155.464257 243.644483 155.089203 
C 243.269429 154.714149 242.760676 154.503417 242.23027 154.503417 
C 241.699863 154.503417 241.19111 154.714149 240.816056 155.089203 
C 240.441002 155.464257 240.23027 155.973011 240.23027 156.503417 
C 240.23027 157.033823 240.441002 157.542576 240.816056 157.91763 
C 241.19111 158.292684 241.699863 158.503417 242.23027 158.503417 
z
" clip-path="url(#pe2c542dd06)" style="fill: #de8f05; fill-opacity: 0.2; stroke: #de8f05; stroke-opacity: 0.6; stroke-width: 0.75"/>
    <path d="M 240.514786 155.734128 
C 241.045192 155.734128 241.553945 155.523395 241.928999 155.148341 
C 242.304053 154.773287 242.514786 154.264534 242.514786 153.734128 
C 242.514786 153.203721 242.304053 152.694968 241.928999 152.319914 
C 241.553945 151.94486 241.045192 151.734128 240.514786 151.734128 
C 239.984379 151.734128 239.475626 151.94486 239.100572 152.319914 
C 238.725518 152.694968 238.514786 153.203721 238.514786 153.734128 
C 238.514786 154.264534 238.725518 154.773287 239.100572 155.148341 
C 239.475626 155.523395 239.984379 155.734128 240.514786 155.734128 
z
" clip-path="url(#pe2c542dd06)" style="fill: #de8f05; fill-opacity: 0.2; stroke: #de8f05; stroke-opacity: 0.6; stroke-width: 0.75"/>
    <path d="M 243.721275 122.488599 
C 244.251681 122.488599 244.760435 122.277867 245.135489 121.902813 
C 245.510543 121.527759 245.721275 121.019006 245.721275 120.488599 
C 245.721275 119.958193 245.510543 119.44944 245.135489 119.074386 
C 244.760435 118.699332 244.251681 118.488599 243.721275 118.488599 
C 243.190869 118.488599 242.682116 118.699332 242.307062 119.074386 
C 241.932008 119.44944 241.721275 119.958193 241.721275 120.488599 
C 241.721275 121.019006 241.932008 121.527759 242.307062 121.902813 
C 242.682116 122.277867 243.190869 122.488599 243.721275 122.488599 
z
" clip-path="url(#pe2c542dd06)" style="fill: #de8f05; fill-opacity: 0.2; stroke: #de8f05; stroke-opacity: 0.6; stroke-width: 0.75"/>
    <path d="M 240.970172 138.232782 
C 241.500578 138.232782 242.009332 138.022049 242.384386 137.646995 
C 242.759439 137.271942 242.970172 136.763188 242.970172 136.232782 
C 242.970172 135.702376 242.759439 135.193622 242.384386 134.818568 
C 242.009332 134.443514 241.500578 134.232782 240.970172 134.232782 
C 240.439766 134.232782 239.931012 134.443514 239.555959 134.818568 
C 239.180905 135.193622 238.970172 135.702376 238.970172 136.232782 
C 238.970172 136.763188 239.180905 137.271942 239.555959 137.646995 
C 239.931012 138.022049 240.439766 138.232782 240.970172 138.232782 
z
" clip-path="url(#pe2c542dd06)" style="fill: #de8f05; fill-opacity: 0.2; stroke: #de8f05; stroke-opacity: 0.6; stroke-width: 0.75"/>
    <path d="M 246.366135 63.363571 
C 246.896541 63.363571 247.405294 63.152839 247.780348 62.777785 
C 248.155402 62.402731 248.366135 61.893978 248.366135 61.363571 
C 248.366135 60.833165 248.155402 60.324412 247.780348 59.949358 
C 247.405294 59.574304 246.896541 59.363571 246.366135 59.363571 
C 245.835728 59.363571 245.326975 59.574304 244.951921 59.949358 
C 244.576867 60.324412 244.366135 60.833165 244.366135 61.363571 
C 244.366135 61.893978 244.576867 62.402731 244.951921 62.777785 
C 245.326975 63.152839 245.835728 63.363571 246.366135 63.363571 
z
" clip-path="url(#pe2c542dd06)" style="fill: #de8f05; fill-opacity: 0.2; stroke: #de8f05; stroke-opacity: 0.6; stroke-width: 0.75"/>
   </g>
   <g id="PathCollection_4">
    <path d="M 190.316243 79.770378 
C 191.111852 79.770378 191.874983 79.45428 192.437563 78.891699 
C 193.000144 78.329118 193.316243 77.565988 193.316243 76.770378 
C 193.316243 75.974769 193.000144 75.211639 192.437563 74.649058 
C 191.874983 74.086477 191.111852 73.770378 190.316243 73.770378 
C 189.520634 73.770378 188.757503 74.086477 188.194923 74.649058 
C 187.632342 75.211639 187.316243 75.974769 187.316243 76.770378 
C 187.316243 77.565988 187.632342 78.329118 188.194923 78.891699 
C 188.757503 79.45428 189.520634 79.770378 190.316243 79.770378 
z
" clip-path="url(#pe2c542dd06)" style="fill: #0173b2; stroke: #0173b2; stroke-width: 0.5"/>
    <path d="M 235.080092 135.317822 
C 235.875702 135.317822 236.638832 135.001723 237.201413 134.439143 
C 237.763993 133.876562 238.080092 133.113431 238.080092 132.317822 
C 238.080092 131.522213 237.763993 130.759083 237.201413 130.196502 
C 236.638832 129.633921 235.875702 129.317822 235.080092 129.317822 
C 234.284483 129.317822 233.521353 129.633921 232.958772 130.196502 
C 232.396191 130.759083 232.080092 131.522213 232.080092 132.317822 
C 232.080092 133.113431 232.396191 133.876562 232.958772 134.439143 
C 233.521353 135.001723 234.284483 135.317822 235.080092 135.317822 
z
" clip-path="url(#pe2c542dd06)" style="fill: #de8f05; stroke: #de8f05; stroke-width: 0.5"/>
   </g>
   <g id="LineCollection_2">
    <path d="M 190.316243 115.620839 
L 190.316243 37.919918 
" clip-path="url(#pe2c542dd06)" style="fill: none; stroke: #0173b2; stroke-width: 1.5; stroke-linecap: square"/>
    <path d="M 235.080092 170.632393 
L 235.080092 94.003251 
" clip-path="url(#pe2c542dd06)" style="fill: none; stroke: #de8f05; stroke-width: 1.5; stroke-linecap: square"/>
   </g>
   <g id="patch_8">
    <path d="M 172.410703 177.720156 
L 172.410703 21.789375 
" style="fill: none; stroke: #ffffff; stroke-width: 1.25; stroke-linejoin: miter; stroke-linecap: square"/>
   </g>
   <g id="patch_9">
    <path d="M 261.938402 177.720156 
L 261.938402 21.789375 
" style="fill: none; stroke: #ffffff; stroke-width: 1.25; stroke-linejoin: miter; stroke-linecap: square"/>
   </g>
   <g id="patch_10">
    <path d="M 172.410703 177.720156 
L 261.938402 177.720156 
" style="fill: none; stroke: #ffffff; stroke-width: 1.25; stroke-linejoin: miter; stroke-linecap: square"/>
   </g>
   <g id="patch_11">
    <path d="M 172.410703 21.789375 
L 261.938402 21.789375 
" style="fill: none; stroke: #ffffff; stroke-width: 1.25; stroke-linejoin: miter; stroke-linecap: square"/>
   </g>
   <g id="text_17">
    <!-- T4 -->
    <g style="fill: #262626" transform="translate(210.173303 15.789375) scale(0.12 -0.12)">
     <use xlink:href="#ArialMT-54"/>
     <use xlink:href="#ArialMT-34" x="61.083984"/>
    </g>
   </g>
  </g>
  <g id="legend_1">
   <g id="patch_12">
    <path d="M 289.94 111.127031 
L 392.807187 111.127031 
Q 395.007187 111.127031 395.007187 108.927031 
L 395.007187 62.432969 
Q 395.007187 60.232969 392.807187 60.232969 
L 289.94 60.232969 
Q 287.74 60.232969 287.74 62.432969 
L 287.74 108.927031 
Q 287.74 111.127031 289.94 111.127031 
z
" style="fill: #eaeaf2; opacity: 0.8; stroke: #cccccc; stroke-linejoin: miter"/>
   </g>
   <g id="text_18">
    <!-- Tx -->
    <g style="fill: #262626" transform="translate(334.708906 73.222344) scale(0.12 -0.12)">
     <defs>
      <path id="ArialMT-78" d="M 47 0 
L 1259 1725 
L 138 3319 
L 841 3319 
L 1350 2541 
Q 1494 2319 1581 2169 
Q 1719 2375 1834 2534 
L 2394 3319 
L 3066 3319 
L 1919 1756 
L 3153 0 
L 2463 0 
L 1781 1031 
L 1600 1309 
L 728 0 
L 47 0 
z
" transform="scale(0.015625)"/>
     </defs>
     <use xlink:href="#ArialMT-54"/>
     <use xlink:href="#ArialMT-78" x="61.083984"/>
    </g>
   </g>
   <g id="PathCollection_5">
    <defs>
     <path id="m335a63c4f7" d="M 0 2 
C 0.530406 2 1.03916 1.789267 1.414214 1.414214 
C 1.789267 1.03916 2 0.530406 2 0 
C 2 -0.530406 1.789267 -1.03916 1.414214 -1.414214 
C 1.03916 -1.789267 0.530406 -2 0 -2 
C -0.530406 -2 -1.03916 -1.789267 -1.414214 -1.414214 
C -1.789267 -1.03916 -2 -0.530406 -2 0 
C -2 0.530406 -1.789267 1.03916 -1.414214 1.414214 
C -1.03916 1.789267 -0.530406 2 0 2 
z
" style="stroke: #0173b2; stroke-opacity: 0.6; stroke-width: 0.75"/>
    </defs>
    <g>
     <use xlink:href="#m335a63c4f7" x="303.14" y="86.093437" style="fill: #0173b2; fill-opacity: 0.2; stroke: #0173b2; stroke-opacity: 0.6; stroke-width: 0.75"/>
    </g>
   </g>
   <g id="PathCollection_6">
    <defs>
     <path id="m2f6cdefe35" d="M 0 3 
C 0.795609 3 1.55874 2.683901 2.12132 2.12132 
C 2.683901 1.55874 3 0.795609 3 0 
C 3 -0.795609 2.683901 -1.55874 2.12132 -2.12132 
C 1.55874 -2.683901 0.795609 -3 0 -3 
C -0.795609 -3 -1.55874 -2.683901 -2.12132 -2.12132 
C -2.683901 -1.55874 -3 -0.795609 -3 0 
C -3 0.795609 -2.683901 1.55874 -2.12132 2.12132 
C -1.55874 2.683901 -0.795609 3 0 3 
z
" style="stroke: #0173b2; stroke-width: 0.5"/>
    </defs>
    <g>
     <use xlink:href="#m2f6cdefe35" x="303.14" y="86.093437" style="fill: #0173b2; stroke: #0173b2; stroke-width: 0.5"/>
    </g>
   </g>
   <g id="text_19">
    <!-- Iron-Sufficient -->
    <g style="fill: #262626" transform="translate(322.94 88.980937) scale(0.11 -0.11)">
     <use xlink:href="#ArialMT-49"/>
     <use xlink:href="#ArialMT-72" x="27.783203"/>
     <use xlink:href="#ArialMT-6f" x="61.083984"/>
     <use xlink:href="#ArialMT-6e" x="116.699219"/>
     <use xlink:href="#ArialMT-2d" x="172.314453"/>
     <use xlink:href="#ArialMT-53" x="205.615234"/>
     <use xlink:href="#ArialMT-75" x="272.314453"/>
     <use xlink:href="#ArialMT-66" x="327.929688"/>
     <use xlink:href="#ArialMT-66" x="353.962891"/>
     <use xlink:href="#ArialMT-69" x="381.746094"/>
     <use xlink:href="#ArialMT-63" x="403.962891"/>
     <use xlink:href="#ArialMT-69" x="453.962891"/>
     <use xlink:href="#ArialMT-65" x="476.179688"/>
     <use xlink:href="#ArialMT-6e" x="531.794922"/>
     <use xlink:href="#ArialMT-74" x="587.410156"/>
    </g>
   </g>
   <g id="PathCollection_7">
    <defs>
     <path id="m75b1d66f15" d="M 0 2 
C 0.530406 2 1.03916 1.789267 1.414214 1.414214 
C 1.789267 1.03916 2 0.530406 2 0 
C 2 -0.530406 1.789267 -1.03916 1.414214 -1.414214 
C 1.03916 -1.789267 0.530406 -2 0 -2 
C -0.530406 -2 -1.03916 -1.789267 -1.414214 -1.414214 
C -1.789267 -1.03916 -2 -0.530406 -2 0 
C -2 0.530406 -1.789267 1.03916 -1.414214 1.414214 
C -1.03916 1.789267 -0.530406 2 0 2 
z
" style="stroke: #de8f05; stroke-opacity: 0.6; stroke-width: 0.75"/>
    </defs>
    <g>
     <use xlink:href="#m75b1d66f15" x="303.14" y="101.653281" style="fill: #de8f05; fill-opacity: 0.2; stroke: #de8f05; stroke-opacity: 0.6; stroke-width: 0.75"/>
    </g>
   </g>
   <g id="PathCollection_8">
    <defs>
     <path id="mcd91b181e7" d="M 0 3 
C 0.795609 3 1.55874 2.683901 2.12132 2.12132 
C 2.683901 1.55874 3 0.795609 3 0 
C 3 -0.795609 2.683901 -1.55874 2.12132 -2.12132 
C 1.55874 -2.683901 0.795609 -3 0 -3 
C -0.795609 -3 -1.55874 -2.683901 -2.12132 -2.12132 
C -2.683901 -1.55874 -3 -0.795609 -3 0 
C -3 0.795609 -2.683901 1.55874 -2.12132 2.12132 
C -1.55874 2.683901 -0.795609 3 0 3 
z
" style="stroke: #de8f05; stroke-width: 0.5"/>
    </defs>
    <g>
     <use xlink:href="#mcd91b181e7" x="303.14" y="101.653281" style="fill: #de8f05; stroke: #de8f05; stroke-width: 0.5"/>
    </g>
   </g>
   <g id="text_20">
    <!-- Iron-Deficient -->
    <g style="fill: #262626" transform="translate(322.94 104.540781) scale(0.11 -0.11)">
     <use xlink:href="#ArialMT-49"/>
     <use xlink:href="#ArialMT-72" x="27.783203"/>
     <use xlink:href="#ArialMT-6f" x="61.083984"/>
     <use xlink:href="#ArialMT-6e" x="116.699219"/>
     <use xlink:href="#ArialMT-2d" x="172.314453"/>
     <use xlink:href="#ArialMT-44" x="205.615234"/>
     <use xlink:href="#ArialMT-65" x="277.832031"/>
     <use xlink:href="#ArialMT-66" x="333.447266"/>
     <use xlink:href="#ArialMT-69" x="361.230469"/>
     <use xlink:href="#ArialMT-63" x="383.447266"/>
     <use xlink:href="#ArialMT-69" x="433.447266"/>
     <use xlink:href="#ArialMT-65" x="455.664062"/>
     <use xlink:href="#ArialMT-6e" x="511.279297"/>
     <use xlink:href="#ArialMT-74" x="566.894531"/>
    </g>
   </g>
  </g>
 </g>
 <defs>
  <clipPath id="ped4292d7d2">
   <rect x="46.964375" y="21.789375" width="89.527699" height="155.930781"/>
  </clipPath>
  <clipPath id="pe2c542dd06">
   <rect x="172.410703" y="21.789375" width="89.527699" height="155.930781"/>
  </clipPath>
 </defs>
</svg>
