<?xml version="1.0" encoding="utf-8" standalone="no"?>
<!DOCTYPE svg PUBLIC "-//W3C//DTD SVG 1.1//EN"
  "http://www.w3.org/Graphics/SVG/1.1/DTD/svg11.dtd">
<svg xmlns:xlink="http://www.w3.org/1999/xlink" width="144pt" height="180pt" viewBox="0 0 144 180" xmlns="http://www.w3.org/2000/svg" version="1.1">
 <metadata>
  <rdf:RDF xmlns:dc="http://purl.org/dc/elements/1.1/" xmlns:cc="http://creativecommons.org/ns#" xmlns:rdf="http://www.w3.org/1999/02/22-rdf-syntax-ns#">
   <cc:Work>
    <dc:type rdf:resource="http://purl.org/dc/dcmitype/StillImage"/>
    <dc:date>2023-05-05T11:35:15.834731</dc:date>
    <dc:format>image/svg+xml</dc:format>
    <dc:creator>
     <cc:Agent>
      <dc:title>Matplotlib v3.6.2, https://matplotlib.org/</dc:title>
     </cc:Agent>
    </dc:creator>
   </cc:Work>
  </rdf:RDF>
 </metadata>
 <defs>
  <style type="text/css">*{stroke-linejoin: round; stroke-linecap: butt}</style>
 </defs>
 <g id="figure_1">
  <g id="patch_1">
   <path d="M 0 180 
L 144 180 
L 144 0 
L 0 0 
z
" style="fill: #ffffff"/>
  </g>
  <g id="axes_1">
   <g id="patch_2">
    <path d="M 43.792 153.284125 
L 133.632 153.284125 
L 133.632 23.3565 
L 43.792 23.3565 
z
" style="fill: #eaeaf2"/>
   </g>
   <g id="matplotlib.axis_1">
    <g id="xtick_1">
     <g id="line2d_1">
      <defs>
       <path id="mc5572b60a3" d="M 0 0 
L 0 4.8 
" style="stroke: #262626"/>
      </defs>
      <g>
       <use xlink:href="#mc5572b60a3" x="88.712" y="153.284125" style="fill: #262626; stroke: #262626"/>
      </g>
     </g>
     <g id="text_1">
      <!-- Tfr1 -->
      <g style="fill: #262626" transform="translate(80.890313 167.883) scale(0.088 -0.088)">
       <defs>
        <path id="ArialMT-54" d="M 1659 0 
L 1659 4041 
L 150 4041 
L 150 4581 
L 3781 4581 
L 3781 4041 
L 2266 4041 
L 2266 0 
L 1659 0 
z
" transform="scale(0.015625)"/>
        <path id="ArialMT-66" d="M 556 0 
L 556 2881 
L 59 2881 
L 59 3319 
L 556 3319 
L 556 3672 
Q 556 4006 616 4169 
Q 697 4388 901 4523 
Q 1106 4659 1475 4659 
Q 1713 4659 2000 4603 
L 1916 4113 
Q 1741 4144 1584 4144 
Q 1328 4144 1222 4034 
Q 1116 3925 1116 3625 
L 1116 3319 
L 1763 3319 
L 1763 2881 
L 1116 2881 
L 1116 0 
L 556 0 
z
" transform="scale(0.015625)"/>
        <path id="ArialMT-72" d="M 416 0 
L 416 3319 
L 922 3319 
L 922 2816 
Q 1116 3169 1280 3281 
Q 1444 3394 1641 3394 
Q 1925 3394 2219 3213 
L 2025 2691 
Q 1819 2813 1613 2813 
Q 1428 2813 1281 2702 
Q 1134 2591 1072 2394 
Q 978 2094 978 1738 
L 978 0 
L 416 0 
z
" transform="scale(0.015625)"/>
        <path id="ArialMT-31" d="M 2384 0 
L 1822 0 
L 1822 3584 
Q 1619 3391 1289 3197 
Q 959 3003 697 2906 
L 697 3450 
Q 1169 3672 1522 3987 
Q 1875 4303 2022 4600 
L 2384 4600 
L 2384 0 
z
" transform="scale(0.015625)"/>
       </defs>
       <use xlink:href="#ArialMT-54"/>
       <use xlink:href="#ArialMT-66" x="61.083984"/>
       <use xlink:href="#ArialMT-72" x="88.867188"/>
       <use xlink:href="#ArialMT-31" x="122.167969"/>
      </g>
     </g>
    </g>
   </g>
   <g id="matplotlib.axis_2">
    <g id="ytick_1">
     <g id="line2d_2">
      <path d="M 43.792 129.850159 
L 133.632 129.850159 
" clip-path="url(#p5d1ea968a4)" style="fill: none; stroke: #ffffff; stroke-width: 0.8; stroke-linecap: round"/>
     </g>
     <g id="line2d_3">
      <defs>
       <path id="mbea2adb46f" d="M 0 0 
L -4.8 0 
" style="stroke: #262626"/>
      </defs>
      <g>
       <use xlink:href="#mbea2adb46f" x="43.792" y="129.850159" style="fill: #262626; stroke: #262626"/>
      </g>
     </g>
     <g id="text_2">
      <!-- 0.8 -->
      <g style="fill: #262626" transform="translate(23.26 132.999596) scale(0.088 -0.088)">
       <defs>
        <path id="ArialMT-30" d="M 266 2259 
Q 266 3072 433 3567 
Q 600 4063 929 4331 
Q 1259 4600 1759 4600 
Q 2128 4600 2406 4451 
Q 2684 4303 2865 4023 
Q 3047 3744 3150 3342 
Q 3253 2941 3253 2259 
Q 3253 1453 3087 958 
Q 2922 463 2592 192 
Q 2263 -78 1759 -78 
Q 1097 -78 719 397 
Q 266 969 266 2259 
z
M 844 2259 
Q 844 1131 1108 757 
Q 1372 384 1759 384 
Q 2147 384 2411 759 
Q 2675 1134 2675 2259 
Q 2675 3391 2411 3762 
Q 2147 4134 1753 4134 
Q 1366 4134 1134 3806 
Q 844 3388 844 2259 
z
" transform="scale(0.015625)"/>
        <path id="ArialMT-2e" d="M 581 0 
L 581 641 
L 1222 641 
L 1222 0 
L 581 0 
z
" transform="scale(0.015625)"/>
        <path id="ArialMT-38" d="M 1131 2484 
Q 781 2613 612 2850 
Q 444 3088 444 3419 
Q 444 3919 803 4259 
Q 1163 4600 1759 4600 
Q 2359 4600 2725 4251 
Q 3091 3903 3091 3403 
Q 3091 3084 2923 2848 
Q 2756 2613 2416 2484 
Q 2838 2347 3058 2040 
Q 3278 1734 3278 1309 
Q 3278 722 2862 322 
Q 2447 -78 1769 -78 
Q 1091 -78 675 323 
Q 259 725 259 1325 
Q 259 1772 486 2073 
Q 713 2375 1131 2484 
z
M 1019 3438 
Q 1019 3113 1228 2906 
Q 1438 2700 1772 2700 
Q 2097 2700 2305 2904 
Q 2513 3109 2513 3406 
Q 2513 3716 2298 3927 
Q 2084 4138 1766 4138 
Q 1444 4138 1231 3931 
Q 1019 3725 1019 3438 
z
M 838 1322 
Q 838 1081 952 856 
Q 1066 631 1291 507 
Q 1516 384 1775 384 
Q 2178 384 2440 643 
Q 2703 903 2703 1303 
Q 2703 1709 2433 1975 
Q 2163 2241 1756 2241 
Q 1359 2241 1098 1978 
Q 838 1716 838 1322 
z
" transform="scale(0.015625)"/>
       </defs>
       <use xlink:href="#ArialMT-30"/>
       <use xlink:href="#ArialMT-2e" x="55.615234"/>
       <use xlink:href="#ArialMT-38" x="83.398438"/>
      </g>
     </g>
    </g>
    <g id="ytick_2">
     <g id="line2d_4">
      <path d="M 43.792 113.796726 
L 133.632 113.796726 
" clip-path="url(#p5d1ea968a4)" style="fill: none; stroke: #ffffff; stroke-width: 0.8; stroke-linecap: round"/>
     </g>
     <g id="line2d_5">
      <g>
       <use xlink:href="#mbea2adb46f" x="43.792" y="113.796726" style="fill: #262626; stroke: #262626"/>
      </g>
     </g>
     <g id="text_3">
      <!-- 1.0 -->
      <g style="fill: #262626" transform="translate(23.26 116.946164) scale(0.088 -0.088)">
       <use xlink:href="#ArialMT-31"/>
       <use xlink:href="#ArialMT-2e" x="55.615234"/>
       <use xlink:href="#ArialMT-30" x="83.398438"/>
      </g>
     </g>
    </g>
    <g id="ytick_3">
     <g id="line2d_6">
      <path d="M 43.792 100.680117 
L 133.632 100.680117 
" clip-path="url(#p5d1ea968a4)" style="fill: none; stroke: #ffffff; stroke-width: 0.8; stroke-linecap: round"/>
     </g>
     <g id="line2d_7">
      <g>
       <use xlink:href="#mbea2adb46f" x="43.792" y="100.680117" style="fill: #262626; stroke: #262626"/>
      </g>
     </g>
     <g id="text_4">
      <!-- 1.2 -->
      <g style="fill: #262626" transform="translate(23.26 103.829554) scale(0.088 -0.088)">
       <defs>
        <path id="ArialMT-32" d="M 3222 541 
L 3222 0 
L 194 0 
Q 188 203 259 391 
Q 375 700 629 1000 
Q 884 1300 1366 1694 
Q 2113 2306 2375 2664 
Q 2638 3022 2638 3341 
Q 2638 3675 2398 3904 
Q 2159 4134 1775 4134 
Q 1369 4134 1125 3890 
Q 881 3647 878 3216 
L 300 3275 
Q 359 3922 746 4261 
Q 1134 4600 1788 4600 
Q 2447 4600 2831 4234 
Q 3216 3869 3216 3328 
Q 3216 3053 3103 2787 
Q 2991 2522 2730 2228 
Q 2469 1934 1863 1422 
Q 1356 997 1212 845 
Q 1069 694 975 541 
L 3222 541 
z
" transform="scale(0.015625)"/>
       </defs>
       <use xlink:href="#ArialMT-31"/>
       <use xlink:href="#ArialMT-2e" x="55.615234"/>
       <use xlink:href="#ArialMT-32" x="83.398438"/>
      </g>
     </g>
    </g>
    <g id="ytick_4">
     <g id="line2d_8">
      <path d="M 43.792 84.626684 
L 133.632 84.626684 
" clip-path="url(#p5d1ea968a4)" style="fill: none; stroke: #ffffff; stroke-width: 0.8; stroke-linecap: round"/>
     </g>
     <g id="line2d_9">
      <g>
       <use xlink:href="#mbea2adb46f" x="43.792" y="84.626684" style="fill: #262626; stroke: #262626"/>
      </g>
     </g>
     <g id="text_5">
      <!-- 1.5 -->
      <g style="fill: #262626" transform="translate(23.26 87.776122) scale(0.088 -0.088)">
       <defs>
        <path id="ArialMT-35" d="M 266 1200 
L 856 1250 
Q 922 819 1161 601 
Q 1400 384 1738 384 
Q 2144 384 2425 690 
Q 2706 997 2706 1503 
Q 2706 1984 2436 2262 
Q 2166 2541 1728 2541 
Q 1456 2541 1237 2417 
Q 1019 2294 894 2097 
L 366 2166 
L 809 4519 
L 3088 4519 
L 3088 3981 
L 1259 3981 
L 1013 2750 
Q 1425 3038 1878 3038 
Q 2478 3038 2890 2622 
Q 3303 2206 3303 1553 
Q 3303 931 2941 478 
Q 2500 -78 1738 -78 
Q 1113 -78 717 272 
Q 322 622 266 1200 
z
" transform="scale(0.015625)"/>
       </defs>
       <use xlink:href="#ArialMT-31"/>
       <use xlink:href="#ArialMT-2e" x="55.615234"/>
       <use xlink:href="#ArialMT-35" x="83.398438"/>
      </g>
     </g>
    </g>
    <g id="ytick_5">
     <g id="line2d_10">
      <path d="M 43.792 63.93021 
L 133.632 63.93021 
" clip-path="url(#p5d1ea968a4)" style="fill: none; stroke: #ffffff; stroke-width: 0.8; stroke-linecap: round"/>
     </g>
     <g id="line2d_11">
      <g>
       <use xlink:href="#mbea2adb46f" x="43.792" y="63.93021" style="fill: #262626; stroke: #262626"/>
      </g>
     </g>
     <g id="text_6">
      <!-- 2.0 -->
      <g style="fill: #262626" transform="translate(23.26 67.079648) scale(0.088 -0.088)">
       <use xlink:href="#ArialMT-32"/>
       <use xlink:href="#ArialMT-2e" x="55.615234"/>
       <use xlink:href="#ArialMT-30" x="83.398438"/>
      </g>
     </g>
    </g>
    <g id="ytick_6">
     <g id="line2d_12">
      <path d="M 43.792 34.760168 
L 133.632 34.760168 
" clip-path="url(#p5d1ea968a4)" style="fill: none; stroke: #ffffff; stroke-width: 0.8; stroke-linecap: round"/>
     </g>
     <g id="line2d_13">
      <g>
       <use xlink:href="#mbea2adb46f" x="43.792" y="34.760168" style="fill: #262626; stroke: #262626"/>
      </g>
     </g>
     <g id="text_7">
      <!-- 3.0 -->
      <g style="fill: #262626" transform="translate(23.26 37.909605) scale(0.088 -0.088)">
       <defs>
        <path id="ArialMT-33" d="M 269 1209 
L 831 1284 
Q 928 806 1161 595 
Q 1394 384 1728 384 
Q 2125 384 2398 659 
Q 2672 934 2672 1341 
Q 2672 1728 2419 1979 
Q 2166 2231 1775 2231 
Q 1616 2231 1378 2169 
L 1441 2663 
Q 1497 2656 1531 2656 
Q 1891 2656 2178 2843 
Q 2466 3031 2466 3422 
Q 2466 3731 2256 3934 
Q 2047 4138 1716 4138 
Q 1388 4138 1169 3931 
Q 950 3725 888 3313 
L 325 3413 
Q 428 3978 793 4289 
Q 1159 4600 1703 4600 
Q 2078 4600 2393 4439 
Q 2709 4278 2876 4000 
Q 3044 3722 3044 3409 
Q 3044 3113 2884 2869 
Q 2725 2625 2413 2481 
Q 2819 2388 3044 2092 
Q 3269 1797 3269 1353 
Q 3269 753 2831 336 
Q 2394 -81 1725 -81 
Q 1122 -81 723 278 
Q 325 638 269 1209 
z
" transform="scale(0.015625)"/>
       </defs>
       <use xlink:href="#ArialMT-33"/>
       <use xlink:href="#ArialMT-2e" x="55.615234"/>
       <use xlink:href="#ArialMT-30" x="83.398438"/>
      </g>
     </g>
    </g>
    <g id="ytick_7">
     <g id="line2d_14">
      <defs>
       <path id="mb24ee19c29" d="M 0 0 
L -3.2 0 
" style="stroke: #262626; stroke-width: 0.8"/>
      </defs>
      <g>
       <use xlink:href="#mb24ee19c29" x="43.792" y="150.546633" style="fill: #262626; stroke: #262626; stroke-width: 0.8"/>
      </g>
     </g>
    </g>
    <g id="ytick_8">
     <g id="line2d_15">
      <g>
       <use xlink:href="#mb24ee19c29" x="43.792" y="139.456698" style="fill: #262626; stroke: #262626; stroke-width: 0.8"/>
      </g>
     </g>
    </g>
    <g id="ytick_9">
     <g id="line2d_16">
      <g>
       <use xlink:href="#mb24ee19c29" x="43.792" y="121.376591" style="fill: #262626; stroke: #262626; stroke-width: 0.8"/>
      </g>
     </g>
    </g>
    <g id="text_8">
     <!-- mRNA rel. to avg. ctl -->
     <g style="fill: #262626" transform="translate(17.2395 132.065562) rotate(-90) scale(0.096 -0.096)">
      <defs>
       <path id="ArialMT-6d" d="M 422 0 
L 422 3319 
L 925 3319 
L 925 2853 
Q 1081 3097 1340 3245 
Q 1600 3394 1931 3394 
Q 2300 3394 2536 3241 
Q 2772 3088 2869 2813 
Q 3263 3394 3894 3394 
Q 4388 3394 4653 3120 
Q 4919 2847 4919 2278 
L 4919 0 
L 4359 0 
L 4359 2091 
Q 4359 2428 4304 2576 
Q 4250 2725 4106 2815 
Q 3963 2906 3769 2906 
Q 3419 2906 3187 2673 
Q 2956 2441 2956 1928 
L 2956 0 
L 2394 0 
L 2394 2156 
Q 2394 2531 2256 2718 
Q 2119 2906 1806 2906 
Q 1569 2906 1367 2781 
Q 1166 2656 1075 2415 
Q 984 2175 984 1722 
L 984 0 
L 422 0 
z
" transform="scale(0.015625)"/>
       <path id="ArialMT-52" d="M 503 0 
L 503 4581 
L 2534 4581 
Q 3147 4581 3465 4457 
Q 3784 4334 3975 4021 
Q 4166 3709 4166 3331 
Q 4166 2844 3850 2509 
Q 3534 2175 2875 2084 
Q 3116 1969 3241 1856 
Q 3506 1613 3744 1247 
L 4541 0 
L 3778 0 
L 3172 953 
Q 2906 1366 2734 1584 
Q 2563 1803 2427 1890 
Q 2291 1978 2150 2013 
Q 2047 2034 1813 2034 
L 1109 2034 
L 1109 0 
L 503 0 
z
M 1109 2559 
L 2413 2559 
Q 2828 2559 3062 2645 
Q 3297 2731 3419 2920 
Q 3541 3109 3541 3331 
Q 3541 3656 3305 3865 
Q 3069 4075 2559 4075 
L 1109 4075 
L 1109 2559 
z
" transform="scale(0.015625)"/>
       <path id="ArialMT-4e" d="M 488 0 
L 488 4581 
L 1109 4581 
L 3516 984 
L 3516 4581 
L 4097 4581 
L 4097 0 
L 3475 0 
L 1069 3600 
L 1069 0 
L 488 0 
z
" transform="scale(0.015625)"/>
       <path id="ArialMT-41" d="M -9 0 
L 1750 4581 
L 2403 4581 
L 4278 0 
L 3588 0 
L 3053 1388 
L 1138 1388 
L 634 0 
L -9 0 
z
M 1313 1881 
L 2866 1881 
L 2388 3150 
Q 2169 3728 2063 4100 
Q 1975 3659 1816 3225 
L 1313 1881 
z
" transform="scale(0.015625)"/>
       <path id="ArialMT-20" transform="scale(0.015625)"/>
       <path id="ArialMT-65" d="M 2694 1069 
L 3275 997 
Q 3138 488 2766 206 
Q 2394 -75 1816 -75 
Q 1088 -75 661 373 
Q 234 822 234 1631 
Q 234 2469 665 2931 
Q 1097 3394 1784 3394 
Q 2450 3394 2872 2941 
Q 3294 2488 3294 1666 
Q 3294 1616 3291 1516 
L 816 1516 
Q 847 969 1125 678 
Q 1403 388 1819 388 
Q 2128 388 2347 550 
Q 2566 713 2694 1069 
z
M 847 1978 
L 2700 1978 
Q 2663 2397 2488 2606 
Q 2219 2931 1791 2931 
Q 1403 2931 1139 2672 
Q 875 2413 847 1978 
z
" transform="scale(0.015625)"/>
       <path id="ArialMT-6c" d="M 409 0 
L 409 4581 
L 972 4581 
L 972 0 
L 409 0 
z
" transform="scale(0.015625)"/>
       <path id="ArialMT-74" d="M 1650 503 
L 1731 6 
Q 1494 -44 1306 -44 
Q 1000 -44 831 53 
Q 663 150 594 308 
Q 525 466 525 972 
L 525 2881 
L 113 2881 
L 113 3319 
L 525 3319 
L 525 4141 
L 1084 4478 
L 1084 3319 
L 1650 3319 
L 1650 2881 
L 1084 2881 
L 1084 941 
Q 1084 700 1114 631 
Q 1144 563 1211 522 
Q 1278 481 1403 481 
Q 1497 481 1650 503 
z
" transform="scale(0.015625)"/>
       <path id="ArialMT-6f" d="M 213 1659 
Q 213 2581 725 3025 
Q 1153 3394 1769 3394 
Q 2453 3394 2887 2945 
Q 3322 2497 3322 1706 
Q 3322 1066 3130 698 
Q 2938 331 2570 128 
Q 2203 -75 1769 -75 
Q 1072 -75 642 372 
Q 213 819 213 1659 
z
M 791 1659 
Q 791 1022 1069 705 
Q 1347 388 1769 388 
Q 2188 388 2466 706 
Q 2744 1025 2744 1678 
Q 2744 2294 2464 2611 
Q 2184 2928 1769 2928 
Q 1347 2928 1069 2612 
Q 791 2297 791 1659 
z
" transform="scale(0.015625)"/>
       <path id="ArialMT-61" d="M 2588 409 
Q 2275 144 1986 34 
Q 1697 -75 1366 -75 
Q 819 -75 525 192 
Q 231 459 231 875 
Q 231 1119 342 1320 
Q 453 1522 633 1644 
Q 813 1766 1038 1828 
Q 1203 1872 1538 1913 
Q 2219 1994 2541 2106 
Q 2544 2222 2544 2253 
Q 2544 2597 2384 2738 
Q 2169 2928 1744 2928 
Q 1347 2928 1158 2789 
Q 969 2650 878 2297 
L 328 2372 
Q 403 2725 575 2942 
Q 747 3159 1072 3276 
Q 1397 3394 1825 3394 
Q 2250 3394 2515 3294 
Q 2781 3194 2906 3042 
Q 3031 2891 3081 2659 
Q 3109 2516 3109 2141 
L 3109 1391 
Q 3109 606 3145 398 
Q 3181 191 3288 0 
L 2700 0 
Q 2613 175 2588 409 
z
M 2541 1666 
Q 2234 1541 1622 1453 
Q 1275 1403 1131 1340 
Q 988 1278 909 1158 
Q 831 1038 831 891 
Q 831 666 1001 516 
Q 1172 366 1500 366 
Q 1825 366 2078 508 
Q 2331 650 2450 897 
Q 2541 1088 2541 1459 
L 2541 1666 
z
" transform="scale(0.015625)"/>
       <path id="ArialMT-76" d="M 1344 0 
L 81 3319 
L 675 3319 
L 1388 1331 
Q 1503 1009 1600 663 
Q 1675 925 1809 1294 
L 2547 3319 
L 3125 3319 
L 1869 0 
L 1344 0 
z
" transform="scale(0.015625)"/>
       <path id="ArialMT-67" d="M 319 -275 
L 866 -356 
Q 900 -609 1056 -725 
Q 1266 -881 1628 -881 
Q 2019 -881 2231 -725 
Q 2444 -569 2519 -288 
Q 2563 -116 2559 434 
Q 2191 0 1641 0 
Q 956 0 581 494 
Q 206 988 206 1678 
Q 206 2153 378 2554 
Q 550 2956 876 3175 
Q 1203 3394 1644 3394 
Q 2231 3394 2613 2919 
L 2613 3319 
L 3131 3319 
L 3131 450 
Q 3131 -325 2973 -648 
Q 2816 -972 2473 -1159 
Q 2131 -1347 1631 -1347 
Q 1038 -1347 672 -1080 
Q 306 -813 319 -275 
z
M 784 1719 
Q 784 1066 1043 766 
Q 1303 466 1694 466 
Q 2081 466 2343 764 
Q 2606 1063 2606 1700 
Q 2606 2309 2336 2618 
Q 2066 2928 1684 2928 
Q 1309 2928 1046 2623 
Q 784 2319 784 1719 
z
" transform="scale(0.015625)"/>
       <path id="ArialMT-63" d="M 2588 1216 
L 3141 1144 
Q 3050 572 2676 248 
Q 2303 -75 1759 -75 
Q 1078 -75 664 370 
Q 250 816 250 1647 
Q 250 2184 428 2587 
Q 606 2991 970 3192 
Q 1334 3394 1763 3394 
Q 2303 3394 2647 3120 
Q 2991 2847 3088 2344 
L 2541 2259 
Q 2463 2594 2264 2762 
Q 2066 2931 1784 2931 
Q 1359 2931 1093 2626 
Q 828 2322 828 1663 
Q 828 994 1084 691 
Q 1341 388 1753 388 
Q 2084 388 2306 591 
Q 2528 794 2588 1216 
z
" transform="scale(0.015625)"/>
      </defs>
      <use xlink:href="#ArialMT-6d"/>
      <use xlink:href="#ArialMT-52" x="83.300781"/>
      <use xlink:href="#ArialMT-4e" x="155.517578"/>
      <use xlink:href="#ArialMT-41" x="227.734375"/>
      <use xlink:href="#ArialMT-20" x="288.933594"/>
      <use xlink:href="#ArialMT-72" x="316.716797"/>
      <use xlink:href="#ArialMT-65" x="350.017578"/>
      <use xlink:href="#ArialMT-6c" x="405.632812"/>
      <use xlink:href="#ArialMT-2e" x="427.849609"/>
      <use xlink:href="#ArialMT-20" x="455.632812"/>
      <use xlink:href="#ArialMT-74" x="483.416016"/>
      <use xlink:href="#ArialMT-6f" x="511.199219"/>
      <use xlink:href="#ArialMT-20" x="566.814453"/>
      <use xlink:href="#ArialMT-61" x="594.597656"/>
      <use xlink:href="#ArialMT-76" x="650.212891"/>
      <use xlink:href="#ArialMT-67" x="700.212891"/>
      <use xlink:href="#ArialMT-2e" x="755.828125"/>
      <use xlink:href="#ArialMT-20" x="783.611328"/>
      <use xlink:href="#ArialMT-63" x="811.394531"/>
      <use xlink:href="#ArialMT-74" x="861.394531"/>
      <use xlink:href="#ArialMT-6c" x="889.177734"/>
     </g>
    </g>
   </g>
   <g id="PathCollection_1">
    <path d="M 61.665461 119.830361 
C 62.593672 119.830361 63.483991 119.461579 64.140335 118.805234 
C 64.796679 118.14889 65.165461 117.258572 65.165461 116.330361 
C 65.165461 115.40215 64.796679 114.511831 64.140335 113.855487 
C 63.483991 113.199143 62.593672 112.830361 61.665461 112.830361 
C 60.73725 112.830361 59.846931 113.199143 59.190587 113.855487 
C 58.534243 114.511831 58.165461 115.40215 58.165461 116.330361 
C 58.165461 117.258572 58.534243 118.14889 59.190587 118.805234 
C 59.846931 119.461579 60.73725 119.830361 61.665461 119.830361 
z
" clip-path="url(#p5d1ea968a4)" style="fill: #4c72b0; fill-opacity: 0.2; stroke: #4c72b0; stroke-width: 0.75"/>
    <path d="M 59.983967 106.080633 
C 60.912178 106.080633 61.802497 105.711851 62.458841 105.055507 
C 63.115185 104.399163 63.483967 103.508844 63.483967 102.580633 
C 63.483967 101.652423 63.115185 100.762104 62.458841 100.10576 
C 61.802497 99.449416 60.912178 99.080633 59.983967 99.080633 
C 59.055757 99.080633 58.165438 99.449416 57.509094 100.10576 
C 56.852749 100.762104 56.483967 101.652423 56.483967 102.580633 
C 56.483967 103.508844 56.852749 104.399163 57.509094 105.055507 
C 58.165438 105.711851 59.055757 106.080633 59.983967 106.080633 
z
" clip-path="url(#p5d1ea968a4)" style="fill: #4c72b0; fill-opacity: 0.2; stroke: #4c72b0; stroke-width: 0.75"/>
    <path d="M 62.746665 119.703335 
C 63.674876 119.703335 64.565195 119.334553 65.221539 118.678209 
C 65.877883 118.021865 66.246665 117.131546 66.246665 116.203335 
C 66.246665 115.275124 65.877883 114.384806 65.221539 113.728461 
C 64.565195 113.072117 63.674876 112.703335 62.746665 112.703335 
C 61.818455 112.703335 60.928136 113.072117 60.271792 113.728461 
C 59.615448 114.384806 59.246665 115.275124 59.246665 116.203335 
C 59.246665 117.131546 59.615448 118.021865 60.271792 118.678209 
C 60.928136 119.334553 61.818455 119.703335 62.746665 119.703335 
z
" clip-path="url(#p5d1ea968a4)" style="fill: #4c72b0; fill-opacity: 0.2; stroke: #4c72b0; stroke-width: 0.75"/>
    <path d="M 62.57381 124.973453 
C 63.502021 124.973453 64.392339 124.604671 65.048683 123.948327 
C 65.705028 123.291983 66.07381 122.401664 66.07381 121.473453 
C 66.07381 120.545242 65.705028 119.654924 65.048683 118.998579 
C 64.392339 118.342235 63.502021 117.973453 62.57381 117.973453 
C 61.645599 117.973453 60.75528 118.342235 60.098936 118.998579 
C 59.442592 119.654924 59.07381 120.545242 59.07381 121.473453 
C 59.07381 122.401664 59.442592 123.291983 60.098936 123.948327 
C 60.75528 124.604671 61.645599 124.973453 62.57381 124.973453 
z
" clip-path="url(#p5d1ea968a4)" style="fill: #4c72b0; fill-opacity: 0.2; stroke: #4c72b0; stroke-width: 0.75"/>
    <path d="M 59.978536 119.70794 
C 60.906747 119.70794 61.797065 119.339158 62.453409 118.682814 
C 63.109754 118.026469 63.478536 117.136151 63.478536 116.20794 
C 63.478536 115.279729 63.109754 114.38941 62.453409 113.733066 
C 61.797065 113.076722 60.906747 112.70794 59.978536 112.70794 
C 59.050325 112.70794 58.160006 113.076722 57.503662 113.733066 
C 56.847318 114.38941 56.478536 115.279729 56.478536 116.20794 
C 56.478536 117.136151 56.847318 118.026469 57.503662 118.682814 
C 58.160006 119.339158 59.050325 119.70794 59.978536 119.70794 
z
" clip-path="url(#p5d1ea968a4)" style="fill: #4c72b0; fill-opacity: 0.2; stroke: #4c72b0; stroke-width: 0.75"/>
    <path d="M 62.003834 121.9303 
C 62.932045 121.9303 63.822364 121.561518 64.478708 120.905174 
C 65.135052 120.248829 65.503834 119.358511 65.503834 118.4303 
C 65.503834 117.502089 65.135052 116.61177 64.478708 115.955426 
C 63.822364 115.299082 62.932045 114.9303 62.003834 114.9303 
C 61.075624 114.9303 60.185305 115.299082 59.528961 115.955426 
C 58.872616 116.61177 58.503834 117.502089 58.503834 118.4303 
C 58.503834 119.358511 58.872616 120.248829 59.528961 120.905174 
C 60.185305 121.561518 61.075624 121.9303 62.003834 121.9303 
z
" clip-path="url(#p5d1ea968a4)" style="fill: #4c72b0; fill-opacity: 0.2; stroke: #4c72b0; stroke-width: 0.75"/>
    <path d="M 59.60008 110.745511 
C 60.52829 110.745511 61.418609 110.376729 62.074953 109.720385 
C 62.731298 109.064041 63.10008 108.173722 63.10008 107.245511 
C 63.10008 106.3173 62.731298 105.426982 62.074953 104.770637 
C 61.418609 104.114293 60.52829 103.745511 59.60008 103.745511 
C 58.671869 103.745511 57.78155 104.114293 57.125206 104.770637 
C 56.468862 105.426982 56.10008 106.3173 56.10008 107.245511 
C 56.10008 108.173722 56.468862 109.064041 57.125206 109.720385 
C 57.78155 110.376729 58.671869 110.745511 59.60008 110.745511 
z
" clip-path="url(#p5d1ea968a4)" style="fill: #4c72b0; fill-opacity: 0.2; stroke: #4c72b0; stroke-width: 0.75"/>
    <path d="M 61.415566 103.479751 
C 62.343777 103.479751 63.234095 103.110969 63.890439 102.454625 
C 64.546784 101.798281 64.915566 100.907962 64.915566 99.979751 
C 64.915566 99.051541 64.546784 98.161222 63.890439 97.504878 
C 63.234095 96.848533 62.343777 96.479751 61.415566 96.479751 
C 60.487355 96.479751 59.597036 96.848533 58.940692 97.504878 
C 58.284348 98.161222 57.915566 99.051541 57.915566 99.979751 
C 57.915566 100.907962 58.284348 101.798281 58.940692 102.454625 
C 59.597036 103.110969 60.487355 103.479751 61.415566 103.479751 
z
" clip-path="url(#p5d1ea968a4)" style="fill: #4c72b0; fill-opacity: 0.2; stroke: #4c72b0; stroke-width: 0.75"/>
    <path d="M 63.247091 93.623535 
C 64.175302 93.623535 65.06562 93.254753 65.721964 92.598409 
C 66.378309 91.942064 66.747091 91.051746 66.747091 90.123535 
C 66.747091 89.195324 66.378309 88.305005 65.721964 87.648661 
C 65.06562 86.992317 64.175302 86.623535 63.247091 86.623535 
C 62.31888 86.623535 61.428561 86.992317 60.772217 87.648661 
C 60.115873 88.305005 59.747091 89.195324 59.747091 90.123535 
C 59.747091 91.051746 60.115873 91.942064 60.772217 92.598409 
C 61.428561 93.254753 62.31888 93.623535 63.247091 93.623535 
z
" clip-path="url(#p5d1ea968a4)" style="fill: #4c72b0; fill-opacity: 0.2; stroke: #4c72b0; stroke-width: 0.75"/>
    <path d="M 59.552116 150.878324 
C 60.480327 150.878324 61.370646 150.509542 62.02699 149.853198 
C 62.683334 149.196853 63.052116 148.306535 63.052116 147.378324 
C 63.052116 146.450113 62.683334 145.559794 62.02699 144.90345 
C 61.370646 144.247106 60.480327 143.878324 59.552116 143.878324 
C 58.623906 143.878324 57.733587 144.247106 57.077243 144.90345 
C 56.420898 145.559794 56.052116 146.450113 56.052116 147.378324 
C 56.052116 148.306535 56.420898 149.196853 57.077243 149.853198 
C 57.733587 150.509542 58.623906 150.878324 59.552116 150.878324 
z
" clip-path="url(#p5d1ea968a4)" style="fill: #4c72b0; fill-opacity: 0.2; stroke: #4c72b0; stroke-width: 0.75"/>
    <path d="M 63.256905 135.95173 
C 64.185115 135.95173 65.075434 135.582948 65.731778 134.926603 
C 66.388122 134.270259 66.756905 133.379941 66.756905 132.45173 
C 66.756905 131.523519 66.388122 130.6332 65.731778 129.976856 
C 65.075434 129.320512 64.185115 128.95173 63.256905 128.95173 
C 62.328694 128.95173 61.438375 129.320512 60.782031 129.976856 
C 60.125687 130.6332 59.756905 131.523519 59.756905 132.45173 
C 59.756905 133.379941 60.125687 134.270259 60.782031 134.926603 
C 61.438375 135.582948 62.328694 135.95173 63.256905 135.95173 
z
" clip-path="url(#p5d1ea968a4)" style="fill: #4c72b0; fill-opacity: 0.2; stroke: #4c72b0; stroke-width: 0.75"/>
    <path d="M 61.963856 115.673085 
C 62.892067 115.673085 63.782385 115.304303 64.438729 114.647959 
C 65.095074 113.991615 65.463856 113.101296 65.463856 112.173085 
C 65.463856 111.244874 65.095074 110.354555 64.438729 109.698211 
C 63.782385 109.041867 62.892067 108.673085 61.963856 108.673085 
C 61.035645 108.673085 60.145326 109.041867 59.488982 109.698211 
C 58.832638 110.354555 58.463856 111.244874 58.463856 112.173085 
C 58.463856 113.101296 58.832638 113.991615 59.488982 114.647959 
C 60.145326 115.304303 61.035645 115.673085 61.963856 115.673085 
z
" clip-path="url(#p5d1ea968a4)" style="fill: #4c72b0; fill-opacity: 0.2; stroke: #4c72b0; stroke-width: 0.75"/>
    <path d="M 59.609596 118.870565 
C 60.537807 118.870565 61.428126 118.501783 62.08447 117.845439 
C 62.740814 117.189095 63.109596 116.298776 63.109596 115.370565 
C 63.109596 114.442354 62.740814 113.552035 62.08447 112.895691 
C 61.428126 112.239347 60.537807 111.870565 59.609596 111.870565 
C 58.681386 111.870565 57.791067 112.239347 57.134723 112.895691 
C 56.478379 113.552035 56.109596 114.442354 56.109596 115.370565 
C 56.109596 116.298776 56.478379 117.189095 57.134723 117.845439 
C 57.791067 118.501783 58.681386 118.870565 59.609596 118.870565 
z
" clip-path="url(#p5d1ea968a4)" style="fill: #4c72b0; fill-opacity: 0.2; stroke: #4c72b0; stroke-width: 0.75"/>
    <path d="M 58.971369 117.38213 
C 59.89958 117.38213 60.789898 117.013348 61.446242 116.357003 
C 62.102587 115.700659 62.471369 114.810341 62.471369 113.88213 
C 62.471369 112.953919 62.102587 112.0636 61.446242 111.407256 
C 60.789898 110.750912 59.89958 110.38213 58.971369 110.38213 
C 58.043158 110.38213 57.152839 110.750912 56.496495 111.407256 
C 55.840151 112.0636 55.471369 112.953919 55.471369 113.88213 
C 55.471369 114.810341 55.840151 115.700659 56.496495 116.357003 
C 57.152839 117.013348 58.043158 117.38213 58.971369 117.38213 
z
" clip-path="url(#p5d1ea968a4)" style="fill: #4c72b0; fill-opacity: 0.2; stroke: #4c72b0; stroke-width: 0.75"/>
    <path d="M 59.026276 137.547085 
C 59.954487 137.547085 60.844805 137.178303 61.50115 136.521959 
C 62.157494 135.865615 62.526276 134.975296 62.526276 134.047085 
C 62.526276 133.118874 62.157494 132.228556 61.50115 131.572211 
C 60.844805 130.915867 59.954487 130.547085 59.026276 130.547085 
C 58.098065 130.547085 57.207746 130.915867 56.551402 131.572211 
C 55.895058 132.228556 55.526276 133.118874 55.526276 134.047085 
C 55.526276 134.975296 55.895058 135.865615 56.551402 136.521959 
C 57.207746 137.178303 58.098065 137.547085 59.026276 137.547085 
z
" clip-path="url(#p5d1ea968a4)" style="fill: #4c72b0; fill-opacity: 0.2; stroke: #4c72b0; stroke-width: 0.75"/>
    <path d="M 59.882918 88.810374 
C 60.811129 88.810374 61.701448 88.441592 62.357792 87.785248 
C 63.014136 87.128903 63.382918 86.238585 63.382918 85.310374 
C 63.382918 84.382163 63.014136 83.491844 62.357792 82.8355 
C 61.701448 82.179156 60.811129 81.810374 59.882918 81.810374 
C 58.954708 81.810374 58.064389 82.179156 57.408045 82.8355 
C 56.751701 83.491844 56.382918 84.382163 56.382918 85.310374 
C 56.382918 86.238585 56.751701 87.128903 57.408045 87.785248 
C 58.064389 88.441592 58.954708 88.810374 59.882918 88.810374 
z
" clip-path="url(#p5d1ea968a4)" style="fill: #4c72b0; fill-opacity: 0.2; stroke: #4c72b0; stroke-width: 0.75"/>
    <path d="M 60.484708 137.085549 
C 61.412919 137.085549 62.303238 136.716767 62.959582 136.060422 
C 63.615926 135.404078 63.984708 134.51376 63.984708 133.585549 
C 63.984708 132.657338 63.615926 131.767019 62.959582 131.110675 
C 62.303238 130.454331 61.412919 130.085549 60.484708 130.085549 
C 59.556497 130.085549 58.666178 130.454331 58.009834 131.110675 
C 57.35349 131.767019 56.984708 132.657338 56.984708 133.585549 
C 56.984708 134.51376 57.35349 135.404078 58.009834 136.060422 
C 58.666178 136.716767 59.556497 137.085549 60.484708 137.085549 
z
" clip-path="url(#p5d1ea968a4)" style="fill: #4c72b0; fill-opacity: 0.2; stroke: #4c72b0; stroke-width: 0.75"/>
    <path d="M 63.485895 116.340322 
C 64.414106 116.340322 65.304425 115.97154 65.960769 115.315196 
C 66.617113 114.658852 66.985895 113.768533 66.985895 112.840322 
C 66.985895 111.912111 66.617113 111.021793 65.960769 110.365448 
C 65.304425 109.709104 64.414106 109.340322 63.485895 109.340322 
C 62.557684 109.340322 61.667366 109.709104 61.011022 110.365448 
C 60.354677 111.021793 59.985895 111.912111 59.985895 112.840322 
C 59.985895 113.768533 60.354677 114.658852 61.011022 115.315196 
C 61.667366 115.97154 62.557684 116.340322 63.485895 116.340322 
z
" clip-path="url(#p5d1ea968a4)" style="fill: #4c72b0; fill-opacity: 0.2; stroke: #4c72b0; stroke-width: 0.75"/>
    <path d="M 62.902455 116.52882 
C 63.830666 116.52882 64.720984 116.160038 65.377328 115.503694 
C 66.033673 114.84735 66.402455 113.957031 66.402455 113.02882 
C 66.402455 112.100609 66.033673 111.210291 65.377328 110.553947 
C 64.720984 109.897602 63.830666 109.52882 62.902455 109.52882 
C 61.974244 109.52882 61.083925 109.897602 60.427581 110.553947 
C 59.771237 111.210291 59.402455 112.100609 59.402455 113.02882 
C 59.402455 113.957031 59.771237 114.84735 60.427581 115.503694 
C 61.083925 116.160038 61.974244 116.52882 62.902455 116.52882 
z
" clip-path="url(#p5d1ea968a4)" style="fill: #4c72b0; fill-opacity: 0.2; stroke: #4c72b0; stroke-width: 0.75"/>
    <path d="M 59.970401 119.052794 
C 60.898612 119.052794 61.78893 118.684012 62.445275 118.027667 
C 63.101619 117.371323 63.470401 116.481004 63.470401 115.552794 
C 63.470401 114.624583 63.101619 113.734264 62.445275 113.07792 
C 61.78893 112.421576 60.898612 112.052794 59.970401 112.052794 
C 59.04219 112.052794 58.151871 112.421576 57.495527 113.07792 
C 56.839183 113.734264 56.470401 114.624583 56.470401 115.552794 
C 56.470401 116.481004 56.839183 117.371323 57.495527 118.027667 
C 58.151871 118.684012 59.04219 119.052794 59.970401 119.052794 
z
" clip-path="url(#p5d1ea968a4)" style="fill: #4c72b0; fill-opacity: 0.2; stroke: #4c72b0; stroke-width: 0.75"/>
    <path d="M 84.968667 33.902917 
C 85.896878 33.902917 86.787196 33.534135 87.44354 32.877791 
C 88.099885 32.221447 88.468667 31.331128 88.468667 30.402917 
C 88.468667 29.474706 88.099885 28.584388 87.44354 27.928043 
C 86.787196 27.271699 85.896878 26.902917 84.968667 26.902917 
C 84.040456 26.902917 83.150137 27.271699 82.493793 27.928043 
C 81.837449 28.584388 81.468667 29.474706 81.468667 30.402917 
C 81.468667 31.331128 81.837449 32.221447 82.493793 32.877791 
C 83.150137 33.534135 84.040456 33.902917 84.968667 33.902917 
z
" clip-path="url(#p5d1ea968a4)" style="fill: #dd8452; fill-opacity: 0.2; stroke: #dd8452; stroke-width: 0.75"/>
    <path d="M 85.081899 36.641971 
C 86.01011 36.641971 86.900429 36.273189 87.556773 35.616844 
C 88.213117 34.9605 88.581899 34.070182 88.581899 33.141971 
C 88.581899 32.21376 88.213117 31.323441 87.556773 30.667097 
C 86.900429 30.010753 86.01011 29.641971 85.081899 29.641971 
C 84.153689 29.641971 83.26337 30.010753 82.607026 30.667097 
C 81.950682 31.323441 81.581899 32.21376 81.581899 33.141971 
C 81.581899 34.070182 81.950682 34.9605 82.607026 35.616844 
C 83.26337 36.273189 84.153689 36.641971 85.081899 36.641971 
z
" clip-path="url(#p5d1ea968a4)" style="fill: #dd8452; fill-opacity: 0.2; stroke: #dd8452; stroke-width: 0.75"/>
    <path d="M 86.533387 32.762301 
C 87.461598 32.762301 88.351917 32.393519 89.008261 31.737175 
C 89.664605 31.080831 90.033387 30.190512 90.033387 29.262301 
C 90.033387 28.33409 89.664605 27.443772 89.008261 26.787427 
C 88.351917 26.131083 87.461598 25.762301 86.533387 25.762301 
C 85.605176 25.762301 84.714858 26.131083 84.058514 26.787427 
C 83.402169 27.443772 83.033387 28.33409 83.033387 29.262301 
C 83.033387 30.190512 83.402169 31.080831 84.058514 31.737175 
C 84.714858 32.393519 85.605176 32.762301 86.533387 32.762301 
z
" clip-path="url(#p5d1ea968a4)" style="fill: #dd8452; fill-opacity: 0.2; stroke: #dd8452; stroke-width: 0.75"/>
    <path d="M 86.223414 38.222491 
C 87.151625 38.222491 88.041944 37.853709 88.698288 37.197365 
C 89.354632 36.541021 89.723414 35.650702 89.723414 34.722491 
C 89.723414 33.794281 89.354632 32.903962 88.698288 32.247618 
C 88.041944 31.591274 87.151625 31.222491 86.223414 31.222491 
C 85.295203 31.222491 84.404885 31.591274 83.74854 32.247618 
C 83.092196 32.903962 82.723414 33.794281 82.723414 34.722491 
C 82.723414 35.650702 83.092196 36.541021 83.74854 37.197365 
C 84.404885 37.853709 85.295203 38.222491 86.223414 38.222491 
z
" clip-path="url(#p5d1ea968a4)" style="fill: #dd8452; fill-opacity: 0.2; stroke: #dd8452; stroke-width: 0.75"/>
    <path d="M 86.003398 94.417061 
C 86.931609 94.417061 87.821928 94.048279 88.478272 93.391934 
C 89.134616 92.73559 89.503398 91.845271 89.503398 90.917061 
C 89.503398 89.98885 89.134616 89.098531 88.478272 88.442187 
C 87.821928 87.785843 86.931609 87.417061 86.003398 87.417061 
C 85.075188 87.417061 84.184869 87.785843 83.528525 88.442187 
C 82.872181 89.098531 82.503398 89.98885 82.503398 90.917061 
C 82.503398 91.845271 82.872181 92.73559 83.528525 93.391934 
C 84.184869 94.048279 85.075188 94.417061 86.003398 94.417061 
z
" clip-path="url(#p5d1ea968a4)" style="fill: #dd8452; fill-opacity: 0.2; stroke: #dd8452; stroke-width: 0.75"/>
    <path d="M 85.533321 64.785679 
C 86.461532 64.785679 87.351851 64.416897 88.008195 63.760552 
C 88.664539 63.104208 89.033321 62.213889 89.033321 61.285679 
C 89.033321 60.357468 88.664539 59.467149 88.008195 58.810805 
C 87.351851 58.154461 86.461532 57.785679 85.533321 57.785679 
C 84.60511 57.785679 83.714792 58.154461 83.058447 58.810805 
C 82.402103 59.467149 82.033321 60.357468 82.033321 61.285679 
C 82.033321 62.213889 82.402103 63.104208 83.058447 63.760552 
C 83.714792 64.416897 84.60511 64.785679 85.533321 64.785679 
z
" clip-path="url(#p5d1ea968a4)" style="fill: #dd8452; fill-opacity: 0.2; stroke: #dd8452; stroke-width: 0.75"/>
    <path d="M 83.989015 108.380533 
C 84.917226 108.380533 85.807545 108.011751 86.463889 107.355407 
C 87.120233 106.699062 87.489015 105.808744 87.489015 104.880533 
C 87.489015 103.952322 87.120233 103.062003 86.463889 102.405659 
C 85.807545 101.749315 84.917226 101.380533 83.989015 101.380533 
C 83.060804 101.380533 82.170486 101.749315 81.514141 102.405659 
C 80.857797 103.062003 80.489015 103.952322 80.489015 104.880533 
C 80.489015 105.808744 80.857797 106.699062 81.514141 107.355407 
C 82.170486 108.011751 83.060804 108.380533 83.989015 108.380533 
z
" clip-path="url(#p5d1ea968a4)" style="fill: #dd8452; fill-opacity: 0.2; stroke: #dd8452; stroke-width: 0.75"/>
    <path d="M 83.239056 94.4769 
C 84.167267 94.4769 85.057586 94.108118 85.71393 93.451774 
C 86.370274 92.79543 86.739056 91.905111 86.739056 90.9769 
C 86.739056 90.04869 86.370274 89.158371 85.71393 88.502027 
C 85.057586 87.845683 84.167267 87.4769 83.239056 87.4769 
C 82.310845 87.4769 81.420526 87.845683 80.764182 88.502027 
C 80.107838 89.158371 79.739056 90.04869 79.739056 90.9769 
C 79.739056 91.905111 80.107838 92.79543 80.764182 93.451774 
C 81.420526 94.108118 82.310845 94.4769 83.239056 94.4769 
z
" clip-path="url(#p5d1ea968a4)" style="fill: #dd8452; fill-opacity: 0.2; stroke: #dd8452; stroke-width: 0.75"/>
    <path d="M 86.162439 101.757249 
C 87.09065 101.757249 87.980968 101.388467 88.637313 100.732123 
C 89.293657 100.075779 89.662439 99.18546 89.662439 98.257249 
C 89.662439 97.329038 89.293657 96.43872 88.637313 95.782375 
C 87.980968 95.126031 87.09065 94.757249 86.162439 94.757249 
C 85.234228 94.757249 84.343909 95.126031 83.687565 95.782375 
C 83.031221 96.43872 82.662439 97.329038 82.662439 98.257249 
C 82.662439 99.18546 83.031221 100.075779 83.687565 100.732123 
C 84.343909 101.388467 85.234228 101.757249 86.162439 101.757249 
z
" clip-path="url(#p5d1ea968a4)" style="fill: #dd8452; fill-opacity: 0.2; stroke: #dd8452; stroke-width: 0.75"/>
    <path d="M 83.16871 91.222994 
C 84.096921 91.222994 84.98724 90.854212 85.643584 90.197868 
C 86.299928 89.541524 86.66871 88.651205 86.66871 87.722994 
C 86.66871 86.794783 86.299928 85.904464 85.643584 85.24812 
C 84.98724 84.591776 84.096921 84.222994 83.16871 84.222994 
C 82.240499 84.222994 81.35018 84.591776 80.693836 85.24812 
C 80.037492 85.904464 79.66871 86.794783 79.66871 87.722994 
C 79.66871 88.651205 80.037492 89.541524 80.693836 90.197868 
C 81.35018 90.854212 82.240499 91.222994 83.16871 91.222994 
z
" clip-path="url(#p5d1ea968a4)" style="fill: #dd8452; fill-opacity: 0.2; stroke: #dd8452; stroke-width: 0.75"/>
    <path d="M 85.453788 92.752574 
C 86.381999 92.752574 87.272318 92.383791 87.928662 91.727447 
C 88.585006 91.071103 88.953788 90.180784 88.953788 89.252574 
C 88.953788 88.324363 88.585006 87.434044 87.928662 86.7777 
C 87.272318 86.121356 86.381999 85.752574 85.453788 85.752574 
C 84.525577 85.752574 83.635259 86.121356 82.978914 86.7777 
C 82.32257 87.434044 81.953788 88.324363 81.953788 89.252574 
C 81.953788 90.180784 82.32257 91.071103 82.978914 91.727447 
C 83.635259 92.383791 84.525577 92.752574 85.453788 92.752574 
z
" clip-path="url(#p5d1ea968a4)" style="fill: #dd8452; fill-opacity: 0.2; stroke: #dd8452; stroke-width: 0.75"/>
    <path d="M 83.342445 86.147093 
C 84.270656 86.147093 85.160974 85.778311 85.817318 85.121967 
C 86.473663 84.465623 86.842445 83.575304 86.842445 82.647093 
C 86.842445 81.718883 86.473663 80.828564 85.817318 80.17222 
C 85.160974 79.515876 84.270656 79.147093 83.342445 79.147093 
C 82.414234 79.147093 81.523915 79.515876 80.867571 80.17222 
C 80.211227 80.828564 79.842445 81.718883 79.842445 82.647093 
C 79.842445 83.575304 80.211227 84.465623 80.867571 85.121967 
C 81.523915 85.778311 82.414234 86.147093 83.342445 86.147093 
z
" clip-path="url(#p5d1ea968a4)" style="fill: #dd8452; fill-opacity: 0.2; stroke: #dd8452; stroke-width: 0.75"/>
    <path d="M 85.289897 93.703055 
C 86.218108 93.703055 87.108427 93.334273 87.764771 92.677929 
C 88.421115 92.021585 88.789897 91.131266 88.789897 90.203055 
C 88.789897 89.274844 88.421115 88.384526 87.764771 87.728181 
C 87.108427 87.071837 86.218108 86.703055 85.289897 86.703055 
C 84.361686 86.703055 83.471368 87.071837 82.815024 87.728181 
C 82.158679 88.384526 81.789897 89.274844 81.789897 90.203055 
C 81.789897 91.131266 82.158679 92.021585 82.815024 92.677929 
C 83.471368 93.334273 84.361686 93.703055 85.289897 93.703055 
z
" clip-path="url(#p5d1ea968a4)" style="fill: #dd8452; fill-opacity: 0.2; stroke: #dd8452; stroke-width: 0.75"/>
    <path d="M 84.982391 101.457362 
C 85.910602 101.457362 86.800921 101.08858 87.457265 100.432235 
C 88.113609 99.775891 88.482391 98.885573 88.482391 97.957362 
C 88.482391 97.029151 88.113609 96.138832 87.457265 95.482488 
C 86.800921 94.826144 85.910602 94.457362 84.982391 94.457362 
C 84.054181 94.457362 83.163862 94.826144 82.507518 95.482488 
C 81.851174 96.138832 81.482391 97.029151 81.482391 97.957362 
C 81.482391 98.885573 81.851174 99.775891 82.507518 100.432235 
C 83.163862 101.08858 84.054181 101.457362 84.982391 101.457362 
z
" clip-path="url(#p5d1ea968a4)" style="fill: #dd8452; fill-opacity: 0.2; stroke: #dd8452; stroke-width: 0.75"/>
    <path d="M 85.672674 64.754414 
C 86.600885 64.754414 87.491204 64.385632 88.147548 63.729288 
C 88.803892 63.072944 89.172674 62.182625 89.172674 61.254414 
C 89.172674 60.326204 88.803892 59.435885 88.147548 58.779541 
C 87.491204 58.123197 86.600885 57.754414 85.672674 57.754414 
C 84.744464 57.754414 83.854145 58.123197 83.197801 58.779541 
C 82.541457 59.435885 82.172674 60.326204 82.172674 61.254414 
C 82.172674 62.182625 82.541457 63.072944 83.197801 63.729288 
C 83.854145 64.385632 84.744464 64.754414 85.672674 64.754414 
z
" clip-path="url(#p5d1ea968a4)" style="fill: #dd8452; fill-opacity: 0.2; stroke: #dd8452; stroke-width: 0.75"/>
    <path d="M 84.559901 56.673303 
C 85.488112 56.673303 86.37843 56.30452 87.034775 55.648176 
C 87.691119 54.991832 88.059901 54.101513 88.059901 53.173303 
C 88.059901 52.245092 87.691119 51.354773 87.034775 50.698429 
C 86.37843 50.042085 85.488112 49.673303 84.559901 49.673303 
C 83.63169 49.673303 82.741371 50.042085 82.085027 50.698429 
C 81.428683 51.354773 81.059901 52.245092 81.059901 53.173303 
C 81.059901 54.101513 81.428683 54.991832 82.085027 55.648176 
C 82.741371 56.30452 83.63169 56.673303 84.559901 56.673303 
z
" clip-path="url(#p5d1ea968a4)" style="fill: #dd8452; fill-opacity: 0.2; stroke: #dd8452; stroke-width: 0.75"/>
    <path d="M 108.01454 123.314918 
C 108.942751 123.314918 109.83307 122.946135 110.489414 122.289791 
C 111.145758 121.633447 111.51454 120.743128 111.51454 119.814918 
C 111.51454 118.886707 111.145758 117.996388 110.489414 117.340044 
C 109.83307 116.6837 108.942751 116.314918 108.01454 116.314918 
C 107.08633 116.314918 106.196011 116.6837 105.539667 117.340044 
C 104.883322 117.996388 104.51454 118.886707 104.51454 119.814918 
C 104.51454 120.743128 104.883322 121.633447 105.539667 122.289791 
C 106.196011 122.946135 107.08633 123.314918 108.01454 123.314918 
z
" clip-path="url(#p5d1ea968a4)" style="fill: #55a868; fill-opacity: 0.2; stroke: #55a868; stroke-width: 0.75"/>
    <path d="M 110.406235 126.251072 
C 111.334445 126.251072 112.224764 125.88229 112.881108 125.225946 
C 113.537452 124.569602 113.906235 123.679283 113.906235 122.751072 
C 113.906235 121.822861 113.537452 120.932543 112.881108 120.276199 
C 112.224764 119.619854 111.334445 119.251072 110.406235 119.251072 
C 109.478024 119.251072 108.587705 119.619854 107.931361 120.276199 
C 107.275017 120.932543 106.906235 121.822861 106.906235 122.751072 
C 106.906235 123.679283 107.275017 124.569602 107.931361 125.225946 
C 108.587705 125.88229 109.478024 126.251072 110.406235 126.251072 
z
" clip-path="url(#p5d1ea968a4)" style="fill: #55a868; fill-opacity: 0.2; stroke: #55a868; stroke-width: 0.75"/>
    <path d="M 108.838545 108.470458 
C 109.766756 108.470458 110.657074 108.101676 111.313419 107.445332 
C 111.969763 106.788988 112.338545 105.898669 112.338545 104.970458 
C 112.338545 104.042247 111.969763 103.151928 111.313419 102.495584 
C 110.657074 101.83924 109.766756 101.470458 108.838545 101.470458 
C 107.910334 101.470458 107.020015 101.83924 106.363671 102.495584 
C 105.707327 103.151928 105.338545 104.042247 105.338545 104.970458 
C 105.338545 105.898669 105.707327 106.788988 106.363671 107.445332 
C 107.020015 108.101676 107.910334 108.470458 108.838545 108.470458 
z
" clip-path="url(#p5d1ea968a4)" style="fill: #55a868; fill-opacity: 0.2; stroke: #55a868; stroke-width: 0.75"/>
    <path d="M 106.966114 107.421824 
C 107.894324 107.421824 108.784643 107.053042 109.440987 106.396698 
C 110.097331 105.740354 110.466114 104.850035 110.466114 103.921824 
C 110.466114 102.993613 110.097331 102.103295 109.440987 101.446951 
C 108.784643 100.790606 107.894324 100.421824 106.966114 100.421824 
C 106.037903 100.421824 105.147584 100.790606 104.49124 101.446951 
C 103.834896 102.103295 103.466114 102.993613 103.466114 103.921824 
C 103.466114 104.850035 103.834896 105.740354 104.49124 106.396698 
C 105.147584 107.053042 106.037903 107.421824 106.966114 107.421824 
z
" clip-path="url(#p5d1ea968a4)" style="fill: #55a868; fill-opacity: 0.2; stroke: #55a868; stroke-width: 0.75"/>
    <path d="M 106.914401 99.840069 
C 107.842612 99.840069 108.732931 99.471287 109.389275 98.814943 
C 110.045619 98.158598 110.414401 97.26828 110.414401 96.340069 
C 110.414401 95.411858 110.045619 94.521539 109.389275 93.865195 
C 108.732931 93.208851 107.842612 92.840069 106.914401 92.840069 
C 105.98619 92.840069 105.095871 93.208851 104.439527 93.865195 
C 103.783183 94.521539 103.414401 95.411858 103.414401 96.340069 
C 103.414401 97.26828 103.783183 98.158598 104.439527 98.814943 
C 105.095871 99.471287 105.98619 99.840069 106.914401 99.840069 
z
" clip-path="url(#p5d1ea968a4)" style="fill: #55a868; fill-opacity: 0.2; stroke: #55a868; stroke-width: 0.75"/>
    <path d="M 111.086538 118.845044 
C 112.014749 118.845044 112.905068 118.476262 113.561412 117.819918 
C 114.217756 117.163574 114.586538 116.273255 114.586538 115.345044 
C 114.586538 114.416833 114.217756 113.526515 113.561412 112.87017 
C 112.905068 112.213826 112.014749 111.845044 111.086538 111.845044 
C 110.158327 111.845044 109.268009 112.213826 108.611665 112.87017 
C 107.95532 113.526515 107.586538 114.416833 107.586538 115.345044 
C 107.586538 116.273255 107.95532 117.163574 108.611665 117.819918 
C 109.268009 118.476262 110.158327 118.845044 111.086538 118.845044 
z
" clip-path="url(#p5d1ea968a4)" style="fill: #55a868; fill-opacity: 0.2; stroke: #55a868; stroke-width: 0.75"/>
    <path d="M 108.655689 115.394937 
C 109.5839 115.394937 110.474219 115.026155 111.130563 114.369811 
C 111.786907 113.713467 112.155689 112.823148 112.155689 111.894937 
C 112.155689 110.966727 111.786907 110.076408 111.130563 109.420064 
C 110.474219 108.76372 109.5839 108.394937 108.655689 108.394937 
C 107.727478 108.394937 106.83716 108.76372 106.180815 109.420064 
C 105.524471 110.076408 105.155689 110.966727 105.155689 111.894937 
C 105.155689 112.823148 105.524471 113.713467 106.180815 114.369811 
C 106.83716 115.026155 107.727478 115.394937 108.655689 115.394937 
z
" clip-path="url(#p5d1ea968a4)" style="fill: #55a868; fill-opacity: 0.2; stroke: #55a868; stroke-width: 0.75"/>
    <path d="M 110.656007 100.503852 
C 111.584218 100.503852 112.474537 100.13507 113.130881 99.478725 
C 113.787225 98.822381 114.156007 97.932062 114.156007 97.003852 
C 114.156007 96.075641 113.787225 95.185322 113.130881 94.528978 
C 112.474537 93.872634 111.584218 93.503852 110.656007 93.503852 
C 109.727796 93.503852 108.837478 93.872634 108.181134 94.528978 
C 107.524789 95.185322 107.156007 96.075641 107.156007 97.003852 
C 107.156007 97.932062 107.524789 98.822381 108.181134 99.478725 
C 108.837478 100.13507 109.727796 100.503852 110.656007 100.503852 
z
" clip-path="url(#p5d1ea968a4)" style="fill: #55a868; fill-opacity: 0.2; stroke: #55a868; stroke-width: 0.75"/>
    <path d="M 110.533749 112.543259 
C 111.46196 112.543259 112.352279 112.174477 113.008623 111.518133 
C 113.664967 110.861789 114.033749 109.97147 114.033749 109.043259 
C 114.033749 108.115049 113.664967 107.22473 113.008623 106.568386 
C 112.352279 105.912042 111.46196 105.543259 110.533749 105.543259 
C 109.605538 105.543259 108.71522 105.912042 108.058875 106.568386 
C 107.402531 107.22473 107.033749 108.115049 107.033749 109.043259 
C 107.033749 109.97147 107.402531 110.861789 108.058875 111.518133 
C 108.71522 112.174477 109.605538 112.543259 110.533749 112.543259 
z
" clip-path="url(#p5d1ea968a4)" style="fill: #55a868; fill-opacity: 0.2; stroke: #55a868; stroke-width: 0.75"/>
    <path d="M 110.455847 124.767922 
C 111.384058 124.767922 112.274377 124.39914 112.930721 123.742796 
C 113.587065 123.086452 113.955847 122.196133 113.955847 121.267922 
C 113.955847 120.339711 113.587065 119.449393 112.930721 118.793048 
C 112.274377 118.136704 111.384058 117.767922 110.455847 117.767922 
C 109.527636 117.767922 108.637318 118.136704 107.980973 118.793048 
C 107.324629 119.449393 106.955847 120.339711 106.955847 121.267922 
C 106.955847 122.196133 107.324629 123.086452 107.980973 123.742796 
C 108.637318 124.39914 109.527636 124.767922 110.455847 124.767922 
z
" clip-path="url(#p5d1ea968a4)" style="fill: #55a868; fill-opacity: 0.2; stroke: #55a868; stroke-width: 0.75"/>
    <path d="M 108.492141 142.423556 
C 109.420351 142.423556 110.31067 142.054774 110.967014 141.39843 
C 111.623358 140.742085 111.992141 139.851767 111.992141 138.923556 
C 111.992141 137.995345 111.623358 137.105026 110.967014 136.448682 
C 110.31067 135.792338 109.420351 135.423556 108.492141 135.423556 
C 107.56393 135.423556 106.673611 135.792338 106.017267 136.448682 
C 105.360923 137.105026 104.992141 137.995345 104.992141 138.923556 
C 104.992141 139.851767 105.360923 140.742085 106.017267 141.39843 
C 106.673611 142.054774 107.56393 142.423556 108.492141 142.423556 
z
" clip-path="url(#p5d1ea968a4)" style="fill: #55a868; fill-opacity: 0.2; stroke: #55a868; stroke-width: 0.75"/>
    <path d="M 109.838318 129.568062 
C 110.766529 129.568062 111.656848 129.19928 112.313192 128.542936 
C 112.969536 127.886592 113.338318 126.996273 113.338318 126.068062 
C 113.338318 125.139852 112.969536 124.249533 112.313192 123.593189 
C 111.656848 122.936844 110.766529 122.568062 109.838318 122.568062 
C 108.910107 122.568062 108.019789 122.936844 107.363444 123.593189 
C 106.7071 124.249533 106.338318 125.139852 106.338318 126.068062 
C 106.338318 126.996273 106.7071 127.886592 107.363444 128.542936 
C 108.019789 129.19928 108.910107 129.568062 109.838318 129.568062 
z
" clip-path="url(#p5d1ea968a4)" style="fill: #55a868; fill-opacity: 0.2; stroke: #55a868; stroke-width: 0.75"/>
    <path d="M 111.241782 131.222091 
C 112.169993 131.222091 113.060312 130.853309 113.716656 130.196965 
C 114.373 129.540621 114.741782 128.650302 114.741782 127.722091 
C 114.741782 126.79388 114.373 125.903561 113.716656 125.247217 
C 113.060312 124.590873 112.169993 124.222091 111.241782 124.222091 
C 110.313572 124.222091 109.423253 124.590873 108.766909 125.247217 
C 108.110565 125.903561 107.741782 126.79388 107.741782 127.722091 
C 107.741782 128.650302 108.110565 129.540621 108.766909 130.196965 
C 109.423253 130.853309 110.313572 131.222091 111.241782 131.222091 
z
" clip-path="url(#p5d1ea968a4)" style="fill: #55a868; fill-opacity: 0.2; stroke: #55a868; stroke-width: 0.75"/>
    <path d="M 108.912786 95.222436 
C 109.840996 95.222436 110.731315 94.853654 111.387659 94.197309 
C 112.044004 93.540965 112.412786 92.650647 112.412786 91.722436 
C 112.412786 90.794225 112.044004 89.903906 111.387659 89.247562 
C 110.731315 88.591218 109.840996 88.222436 108.912786 88.222436 
C 107.984575 88.222436 107.094256 88.591218 106.437912 89.247562 
C 105.781568 89.903906 105.412786 90.794225 105.412786 91.722436 
C 105.412786 92.650647 105.781568 93.540965 106.437912 94.197309 
C 107.094256 94.853654 107.984575 95.222436 108.912786 95.222436 
z
" clip-path="url(#p5d1ea968a4)" style="fill: #55a868; fill-opacity: 0.2; stroke: #55a868; stroke-width: 0.75"/>
    <path d="M 111.035973 87.542809 
C 111.964183 87.542809 112.854502 87.174027 113.510846 86.517682 
C 114.167191 85.861338 114.535973 84.97102 114.535973 84.042809 
C 114.535973 83.114598 114.167191 82.224279 113.510846 81.567935 
C 112.854502 80.911591 111.964183 80.542809 111.035973 80.542809 
C 110.107762 80.542809 109.217443 80.911591 108.561099 81.567935 
C 107.904755 82.224279 107.535973 83.114598 107.535973 84.042809 
C 107.535973 84.97102 107.904755 85.861338 108.561099 86.517682 
C 109.217443 87.174027 110.107762 87.542809 111.035973 87.542809 
z
" clip-path="url(#p5d1ea968a4)" style="fill: #55a868; fill-opacity: 0.2; stroke: #55a868; stroke-width: 0.75"/>
   </g>
   <g id="LineCollection_1">
    <path d="M 52.776 115.20978 
L 76.733333 115.20978 
" clip-path="url(#p5d1ea968a4)" style="fill: none; stroke: #4c72b0; stroke-opacity: 0.8; stroke-width: 1.2; stroke-linecap: square"/>
    <path d="M 76.733333 71.003619 
L 100.690667 71.003619 
" clip-path="url(#p5d1ea968a4)" style="fill: none; stroke: #dd8452; stroke-opacity: 0.8; stroke-width: 1.2; stroke-linecap: square"/>
    <path d="M 100.690667 111.388821 
L 124.648 111.388821 
" clip-path="url(#p5d1ea968a4)" style="fill: none; stroke: #55a868; stroke-opacity: 0.8; stroke-width: 1.2; stroke-linecap: square"/>
   </g>
   <g id="LineCollection_2">
    <path d="M 68.348267 129.858525 
L 68.348267 100.561035 
" clip-path="url(#p5d1ea968a4)" style="fill: none; stroke: #4c72b0; stroke-width: 1.2; stroke-linecap: square"/>
    <path d="M 92.3056 98.300899 
L 92.3056 43.706338 
" clip-path="url(#p5d1ea968a4)" style="fill: none; stroke: #dd8452; stroke-width: 1.2; stroke-linecap: square"/>
    <path d="M 116.262933 126.56502 
L 116.262933 96.212621 
" clip-path="url(#p5d1ea968a4)" style="fill: none; stroke: #55a868; stroke-width: 1.2; stroke-linecap: square"/>
   </g>
   <g id="patch_3">
    <path d="M 43.792 153.284125 
L 43.792 23.3565 
" style="fill: none; stroke: #262626; stroke-linejoin: miter; stroke-linecap: square"/>
   </g>
   <g id="patch_4">
    <path d="M 43.792 153.284125 
L 133.632 153.284125 
" style="fill: none; stroke: #262626; stroke-linejoin: miter; stroke-linecap: square"/>
   </g>
   <g id="text_9">
    <!-- 11 DIV | 11 DIV -->
    <g style="fill: #262626" transform="translate(56.15825 17.3565) scale(0.096 -0.096)">
     <defs>
      <path id="ArialMT-44" d="M 494 0 
L 494 4581 
L 2072 4581 
Q 2606 4581 2888 4516 
Q 3281 4425 3559 4188 
Q 3922 3881 4101 3404 
Q 4281 2928 4281 2316 
Q 4281 1794 4159 1391 
Q 4038 988 3847 723 
Q 3656 459 3429 307 
Q 3203 156 2883 78 
Q 2563 0 2147 0 
L 494 0 
z
M 1100 541 
L 2078 541 
Q 2531 541 2789 625 
Q 3047 709 3200 863 
Q 3416 1078 3536 1442 
Q 3656 1806 3656 2325 
Q 3656 3044 3420 3430 
Q 3184 3816 2847 3947 
Q 2603 4041 2063 4041 
L 1100 4041 
L 1100 541 
z
" transform="scale(0.015625)"/>
      <path id="ArialMT-49" d="M 597 0 
L 597 4581 
L 1203 4581 
L 1203 0 
L 597 0 
z
" transform="scale(0.015625)"/>
      <path id="ArialMT-56" d="M 1803 0 
L 28 4581 
L 684 4581 
L 1875 1253 
Q 2019 853 2116 503 
Q 2222 878 2363 1253 
L 3600 4581 
L 4219 4581 
L 2425 0 
L 1803 0 
z
" transform="scale(0.015625)"/>
      <path id="ArialMT-7c" d="M 588 -1347 
L 588 4659 
L 1078 4659 
L 1078 -1347 
L 588 -1347 
z
" transform="scale(0.015625)"/>
     </defs>
     <use xlink:href="#ArialMT-31"/>
     <use xlink:href="#ArialMT-31" x="48.240234"/>
     <use xlink:href="#ArialMT-20" x="103.855469"/>
     <use xlink:href="#ArialMT-44" x="131.638672"/>
     <use xlink:href="#ArialMT-49" x="203.855469"/>
     <use xlink:href="#ArialMT-56" x="231.638672"/>
     <use xlink:href="#ArialMT-20" x="298.337891"/>
     <use xlink:href="#ArialMT-7c" x="326.121094"/>
     <use xlink:href="#ArialMT-20" x="352.097656"/>
     <use xlink:href="#ArialMT-31" x="379.880859"/>
     <use xlink:href="#ArialMT-31" x="428.121094"/>
     <use xlink:href="#ArialMT-20" x="483.736328"/>
     <use xlink:href="#ArialMT-44" x="511.519531"/>
     <use xlink:href="#ArialMT-49" x="583.736328"/>
     <use xlink:href="#ArialMT-56" x="611.519531"/>
    </g>
   </g>
  </g>
  <g id="legend_1">
   <g id="patch_5">
    <path d="M 147.28 107.581562 
L 190.602125 107.581562 
Q 192.362125 107.581562 192.362125 105.821562 
L 192.362125 56.178437 
Q 192.362125 54.418437 190.602125 54.418437 
L 147.28 54.418437 
Q 145.52 54.418437 145.52 56.178437 
L 145.52 105.821562 
Q 145.52 107.581562 147.28 107.581562 
z
" style="fill: #eaeaf2; opacity: 0.8; stroke: #cccccc; stroke-width: 0.8; stroke-linejoin: miter"/>
   </g>
   <g id="text_10">
    <!-- tx -->
    <g style="fill: #262626" transform="translate(165.207563 64.809937) scale(0.096 -0.096)">
     <defs>
      <path id="ArialMT-78" d="M 47 0 
L 1259 1725 
L 138 3319 
L 841 3319 
L 1350 2541 
Q 1494 2319 1581 2169 
Q 1719 2375 1834 2534 
L 2394 3319 
L 3066 3319 
L 1919 1756 
L 3153 0 
L 2463 0 
L 1781 1031 
L 1600 1309 
L 728 0 
L 47 0 
z
" transform="scale(0.015625)"/>
     </defs>
     <use xlink:href="#ArialMT-74"/>
     <use xlink:href="#ArialMT-78" x="27.783203"/>
    </g>
   </g>
   <g id="line2d_17">
    <path style="fill: none; stroke: #4c72b0; stroke-width: 1.2; stroke-linecap: square"/>
   </g>
   <g id="line2d_18">
    <path style="fill: none; stroke: #4c72b0; stroke-width: 1.2; stroke-linecap: square"/>
   </g>
   <g id="text_11">
    <!-- ctl -->
    <g style="fill: #262626" transform="translate(173.68 77.416812) scale(0.088 -0.088)">
     <use xlink:href="#ArialMT-63"/>
     <use xlink:href="#ArialMT-74" x="50"/>
     <use xlink:href="#ArialMT-6c" x="77.783203"/>
    </g>
   </g>
   <g id="line2d_19">
    <path style="fill: none; stroke: #dd8452; stroke-width: 1.2; stroke-linecap: square"/>
   </g>
   <g id="line2d_20">
    <path style="fill: none; stroke: #dd8452; stroke-width: 1.2; stroke-linecap: square"/>
   </g>
   <g id="text_12">
    <!-- dfo -->
    <g style="fill: #262626" transform="translate(173.68 89.864687) scale(0.088 -0.088)">
     <defs>
      <path id="ArialMT-64" d="M 2575 0 
L 2575 419 
Q 2259 -75 1647 -75 
Q 1250 -75 917 144 
Q 584 363 401 755 
Q 219 1147 219 1656 
Q 219 2153 384 2558 
Q 550 2963 881 3178 
Q 1213 3394 1622 3394 
Q 1922 3394 2156 3267 
Q 2391 3141 2538 2938 
L 2538 4581 
L 3097 4581 
L 3097 0 
L 2575 0 
z
M 797 1656 
Q 797 1019 1065 703 
Q 1334 388 1700 388 
Q 2069 388 2326 689 
Q 2584 991 2584 1609 
Q 2584 2291 2321 2609 
Q 2059 2928 1675 2928 
Q 1300 2928 1048 2622 
Q 797 2316 797 1656 
z
" transform="scale(0.015625)"/>
     </defs>
     <use xlink:href="#ArialMT-64"/>
     <use xlink:href="#ArialMT-66" x="55.615234"/>
     <use xlink:href="#ArialMT-6f" x="83.398438"/>
    </g>
   </g>
   <g id="line2d_21">
    <path style="fill: none; stroke: #55a868; stroke-width: 1.2; stroke-linecap: square"/>
   </g>
   <g id="line2d_22">
    <path style="fill: none; stroke: #55a868; stroke-width: 1.2; stroke-linecap: square"/>
   </g>
   <g id="text_13">
    <!-- dfor -->
    <g style="fill: #262626" transform="translate(173.68 102.312562) scale(0.088 -0.088)">
     <use xlink:href="#ArialMT-64"/>
     <use xlink:href="#ArialMT-66" x="55.615234"/>
     <use xlink:href="#ArialMT-6f" x="83.398438"/>
     <use xlink:href="#ArialMT-72" x="139.013672"/>
    </g>
   </g>
  </g>
 </g>
 <defs>
  <clipPath id="p5d1ea968a4">
   <rect x="43.792" y="23.3565" width="89.84" height="129.927625"/>
  </clipPath>
 </defs>
</svg>
