<?xml version="1.0" encoding="UTF-8" standalone="no"?>
<svg
   width="403.775625pt"
   height="243.261094pt"
   viewBox="0 0 403.775625 243.261094"
   version="1.1"
   id="svg33146"
   sodipodi:docname="18DIV-biplot.svg"
   inkscape:version="1.2.1 (9c6d41e410, 2022-07-14)"
   xmlns:inkscape="http://www.inkscape.org/namespaces/inkscape"
   xmlns:sodipodi="http://sodipodi.sourceforge.net/DTD/sodipodi-0.dtd"
   xmlns:xlink="http://www.w3.org/1999/xlink"
   xmlns="http://www.w3.org/2000/svg"
   xmlns:svg="http://www.w3.org/2000/svg"
   xmlns:rdf="http://www.w3.org/1999/02/22-rdf-syntax-ns#"
   xmlns:cc="http://creativecommons.org/ns#"
   xmlns:dc="http://purl.org/dc/elements/1.1/">
  <sodipodi:namedview
     id="namedview33148"
     pagecolor="#ffffff"
     bordercolor="#000000"
     borderopacity="0.25"
     inkscape:showpageshadow="2"
     inkscape:pageopacity="0.0"
     inkscape:pagecheckerboard="0"
     inkscape:deskcolor="#d1d1d1"
     inkscape:document-units="pt"
     showgrid="false"
     inkscape:zoom="3.9639246"
     inkscape:cx="352.93305"
     inkscape:cy="157.67202"
     inkscape:window-width="3840"
     inkscape:window-height="2054"
     inkscape:window-x="3829"
     inkscape:window-y="-11"
     inkscape:window-maximized="1"
     inkscape:current-layer="figure_1" />
  <metadata
     id="metadata32858">
    <rdf:RDF>
      <cc:Work>
        <dc:type
           rdf:resource="http://purl.org/dc/dcmitype/StillImage" />
        <dc:date>2023-06-08T13:48:36.227639</dc:date>
        <dc:format>image/svg+xml</dc:format>
        <dc:creator>
          <cc:Agent>
            <dc:title>Matplotlib v3.6.2, https://matplotlib.org/</dc:title>
          </cc:Agent>
        </dc:creator>
      </cc:Work>
    </rdf:RDF>
  </metadata>
  <defs
     id="defs32862">
    <style
       type="text/css"
       id="style32860">*{stroke-linejoin: round; stroke-linecap: butt}</style>
  </defs>
  <g
     id="figure_1">
    <g
       id="patch_1">
      <path
         d="M 0,243.26109 H 403.77562 V 0 H 0 Z"
         style="fill:#ffffff"
         id="path32864" />
    </g>
    <g
       id="axes_1">
      <g
         id="patch_2">
        <path
           d="M 53.675938,201.24 H 304.77594 V 7.2 H 53.675938 Z"
           style="fill:#eaeaf2"
           id="path32867" />
      </g>
      <g
         id="matplotlib.axis_1">
        <g
           id="xtick_1">
          <g
             id="line2d_1">
            <path
               d="M 61.946984,201.24 V 7.2"
               clip-path="url(#pc108812e81)"
               style="fill:none;stroke:#ffffff;stroke-linecap:round"
               id="path32870" />
          </g>
          <g
             id="text_1">
            <text
               style="font-style:normal;font-variant:normal;font-weight:normal;font-stretch:normal;font-size:11px;line-height:normal;font-family:Arial, 'DejaVu Sans', 'Liberation Sans', 'Bitstream Vera Sans', sans-serif;text-anchor:middle;fill:#262626"
               x="61.946983"
               y="218.61359"
               id="text32873">−0.6</text>
          </g>
        </g>
        <g
           id="xtick_2">
          <g
             id="line2d_2">
            <path
               d="M 100.62701,201.24 V 7.2"
               clip-path="url(#pc108812e81)"
               style="fill:none;stroke:#ffffff;stroke-linecap:round"
               id="path32877" />
          </g>
          <g
             id="text_2">
            <text
               style="font-style:normal;font-variant:normal;font-weight:normal;font-stretch:normal;font-size:11px;line-height:normal;font-family:Arial, 'DejaVu Sans', 'Liberation Sans', 'Bitstream Vera Sans', sans-serif;text-anchor:middle;fill:#262626"
               x="100.62701"
               y="218.61359"
               id="text32880">−0.4</text>
          </g>
        </g>
        <g
           id="xtick_3">
          <g
             id="line2d_3">
            <path
               d="M 139.30704,201.24 V 7.2"
               clip-path="url(#pc108812e81)"
               style="fill:none;stroke:#ffffff;stroke-linecap:round"
               id="path32884" />
          </g>
          <g
             id="text_3">
            <text
               style="font-style:normal;font-variant:normal;font-weight:normal;font-stretch:normal;font-size:11px;line-height:normal;font-family:Arial, 'DejaVu Sans', 'Liberation Sans', 'Bitstream Vera Sans', sans-serif;text-anchor:middle;fill:#262626"
               x="139.30704"
               y="218.61359"
               id="text32887">−0.2</text>
          </g>
        </g>
        <g
           id="xtick_4">
          <g
             id="line2d_4">
            <path
               d="M 177.98707,201.24 V 7.2"
               clip-path="url(#pc108812e81)"
               style="fill:none;stroke:#ffffff;stroke-linecap:round"
               id="path32891" />
          </g>
          <g
             id="text_4">
            <text
               style="font-style:normal;font-variant:normal;font-weight:normal;font-stretch:normal;font-size:11px;line-height:normal;font-family:Arial, 'DejaVu Sans', 'Liberation Sans', 'Bitstream Vera Sans', sans-serif;text-anchor:middle;fill:#262626"
               x="177.98708"
               y="218.61359"
               id="text32894">0.0</text>
          </g>
        </g>
        <g
           id="xtick_5">
          <g
             id="line2d_5">
            <path
               d="M 216.6671,201.24 V 7.2"
               clip-path="url(#pc108812e81)"
               style="fill:none;stroke:#ffffff;stroke-linecap:round"
               id="path32898" />
          </g>
          <g
             id="text_5">
            <text
               style="font-style:normal;font-variant:normal;font-weight:normal;font-stretch:normal;font-size:11px;line-height:normal;font-family:Arial, 'DejaVu Sans', 'Liberation Sans', 'Bitstream Vera Sans', sans-serif;text-anchor:middle;fill:#262626"
               x="216.6671"
               y="218.61359"
               id="text32901">0.2</text>
          </g>
        </g>
        <g
           id="xtick_6">
          <g
             id="line2d_6">
            <path
               d="M 255.34713,201.24 V 7.2"
               clip-path="url(#pc108812e81)"
               style="fill:none;stroke:#ffffff;stroke-linecap:round"
               id="path32905" />
          </g>
          <g
             id="text_6">
            <text
               style="font-style:normal;font-variant:normal;font-weight:normal;font-stretch:normal;font-size:11px;line-height:normal;font-family:Arial, 'DejaVu Sans', 'Liberation Sans', 'Bitstream Vera Sans', sans-serif;text-anchor:middle;fill:#262626"
               x="255.34712"
               y="218.61359"
               id="text32908">0.4</text>
          </g>
        </g>
        <g
           id="xtick_7">
          <g
             id="line2d_7">
            <path
               d="M 294.02715,201.24 V 7.2"
               clip-path="url(#pc108812e81)"
               style="fill:none;stroke:#ffffff;stroke-linecap:round"
               id="path32912" />
          </g>
          <g
             id="text_7">
            <text
               style="font-style:normal;font-variant:normal;font-weight:normal;font-stretch:normal;font-size:11px;line-height:normal;font-family:Arial, 'DejaVu Sans', 'Liberation Sans', 'Bitstream Vera Sans', sans-serif;text-anchor:middle;fill:#262626"
               x="294.02716"
               y="218.61359"
               id="text32915">0.6</text>
          </g>
        </g>
        <g
           id="text_8">
          <text
             style="font-style:normal;font-variant:normal;font-weight:normal;font-stretch:normal;font-size:12px;line-height:normal;font-family:Arial, 'DejaVu Sans', 'Liberation Sans', 'Bitstream Vera Sans', sans-serif;text-anchor:middle;fill:#262626"
             x="179.22594"
             y="233.53546"
             id="text32919">PC1 (64.55%)</text>
        </g>
      </g>
      <g
         id="matplotlib.axis_2">
        <g
           id="ytick_1">
          <g
             id="line2d_8">
            <path
               d="M 53.675938,172.18033 H 304.77594"
               clip-path="url(#pc108812e81)"
               style="fill:none;stroke:#ffffff;stroke-linecap:round"
               id="path32923" />
          </g>
          <g
             id="text_9">
            <text
               style="font-style:normal;font-variant:normal;font-weight:normal;font-stretch:normal;font-size:11px;line-height:normal;font-family:Arial, 'DejaVu Sans', 'Liberation Sans', 'Bitstream Vera Sans', sans-serif;text-anchor:end;fill:#262626"
               x="44.175938"
               y="176.11713"
               id="text32926">−0.2</text>
          </g>
        </g>
        <g
           id="ytick_2">
          <g
             id="line2d_9">
            <path
               d="M 53.675938,136.30425 H 304.77594"
               clip-path="url(#pc108812e81)"
               style="fill:none;stroke:#ffffff;stroke-linecap:round"
               id="path32930" />
          </g>
          <g
             id="text_10">
            <text
               style="font-style:normal;font-variant:normal;font-weight:normal;font-stretch:normal;font-size:11px;line-height:normal;font-family:Arial, 'DejaVu Sans', 'Liberation Sans', 'Bitstream Vera Sans', sans-serif;text-anchor:end;fill:#262626"
               x="44.175938"
               y="140.24106"
               id="text32933">0.0</text>
          </g>
        </g>
        <g
           id="ytick_3">
          <g
             id="line2d_10">
            <path
               d="M 53.675938,100.42818 H 304.77594"
               clip-path="url(#pc108812e81)"
               style="fill:none;stroke:#ffffff;stroke-linecap:round"
               id="path32937" />
          </g>
          <g
             id="text_11">
            <text
               style="font-style:normal;font-variant:normal;font-weight:normal;font-stretch:normal;font-size:11px;line-height:normal;font-family:Arial, 'DejaVu Sans', 'Liberation Sans', 'Bitstream Vera Sans', sans-serif;text-anchor:end;fill:#262626"
               x="44.175938"
               y="104.36497"
               id="text32940">0.2</text>
          </g>
        </g>
        <g
           id="ytick_4">
          <g
             id="line2d_11">
            <path
               d="M 53.675938,64.552098 H 304.77594"
               clip-path="url(#pc108812e81)"
               style="fill:none;stroke:#ffffff;stroke-linecap:round"
               id="path32944" />
          </g>
          <g
             id="text_12">
            <text
               style="font-style:normal;font-variant:normal;font-weight:normal;font-stretch:normal;font-size:11px;line-height:normal;font-family:Arial, 'DejaVu Sans', 'Liberation Sans', 'Bitstream Vera Sans', sans-serif;text-anchor:end;fill:#262626"
               x="44.175938"
               y="68.488892"
               id="text32947">0.4</text>
          </g>
        </g>
        <g
           id="ytick_5">
          <g
             id="line2d_12">
            <path
               d="M 53.675938,28.676019 H 304.77594"
               clip-path="url(#pc108812e81)"
               style="fill:none;stroke:#ffffff;stroke-linecap:round"
               id="path32951" />
          </g>
          <g
             id="text_13">
            <text
               style="font-style:normal;font-variant:normal;font-weight:normal;font-stretch:normal;font-size:11px;line-height:normal;font-family:Arial, 'DejaVu Sans', 'Liberation Sans', 'Bitstream Vera Sans', sans-serif;text-anchor:end;fill:#262626"
               x="44.175938"
               y="32.612816"
               id="text32954">0.6</text>
          </g>
        </g>
        <g
           id="text_14">
          <text
             style="font-style:normal;font-variant:normal;font-weight:normal;font-stretch:normal;font-size:12px;line-height:normal;font-family:Arial, 'DejaVu Sans', 'Liberation Sans', 'Bitstream Vera Sans', sans-serif;text-anchor:middle;fill:#262626"
             x="15.935625"
             y="104.22"
             transform="rotate(-90,15.935625,104.22)"
             id="text32958">PC2 (18.0%)</text>
        </g>
      </g>
      <g
         id="PathCollection_1">
        <path
           d="m 102.37482,148.47746 c 1.32601,0 2.59789,-0.52683 3.53553,-1.46447 0.93763,-0.93763 1.46447,-2.20952 1.46447,-3.53553 0,-1.32602 -0.52684,-2.5979 -1.46447,-3.53554 -0.93764,-0.93763 -2.20952,-1.46446 -3.53553,-1.46446 -1.32602,0 -2.597903,0.52683 -3.535538,1.46446 -0.937634,0.93764 -1.464466,2.20952 -1.464466,3.53554 0,1.32601 0.526832,2.5979 1.464466,3.53553 0.937635,0.93764 2.209518,1.46447 3.535538,1.46447 z"
           clip-path="url(#pc108812e81)"
           style="fill:#0173b2;fill-opacity:0.2;stroke:#0173b2;stroke-width:0.75"
           id="path32962" />
        <path
           d="m 123.01177,145.54308 c 1.32602,0 2.5979,-0.52684 3.53553,-1.46447 0.93764,-0.93763 1.46447,-2.20952 1.46447,-3.53553 0,-1.32602 -0.52683,-2.5979 -1.46447,-3.53554 -0.93763,-0.93763 -2.20951,-1.46446 -3.53553,-1.46446 -1.32601,0 -2.5979,0.52683 -3.53553,1.46446 -0.93764,0.93764 -1.46447,2.20952 -1.46447,3.53554 0,1.32601 0.52683,2.5979 1.46447,3.53553 0.93763,0.93763 2.20952,1.46447 3.53553,1.46447 z"
           clip-path="url(#pc108812e81)"
           style="fill:#0173b2;fill-opacity:0.2;stroke:#0173b2;stroke-width:0.75"
           id="path32964" />
        <path
           d="m 118.0233,144.67464 c 1.32602,0 2.5979,-0.52683 3.53554,-1.46447 0.93763,-0.93763 1.46446,-2.20952 1.46446,-3.53553 0,-1.32602 -0.52683,-2.5979 -1.46446,-3.53554 -0.93764,-0.93763 -2.20952,-1.46446 -3.53554,-1.46446 -1.32602,0 -2.5979,0.52683 -3.53553,1.46446 -0.93764,0.93764 -1.46447,2.20952 -1.46447,3.53554 0,1.32601 0.52683,2.5979 1.46447,3.53553 0.93763,0.93764 2.20951,1.46447 3.53553,1.46447 z"
           clip-path="url(#pc108812e81)"
           style="fill:#0173b2;fill-opacity:0.2;stroke:#0173b2;stroke-width:0.75"
           id="path32966" />
        <path
           d="m 121.66388,160.18688 c 1.32601,0 2.5979,-0.52683 3.53553,-1.46447 0.93763,-0.93763 1.46447,-2.20952 1.46447,-3.53553 0,-1.32602 -0.52684,-2.5979 -1.46447,-3.53554 -0.93763,-0.93763 -2.20952,-1.46446 -3.53553,-1.46446 -1.32602,0 -2.5979,0.52683 -3.53554,1.46446 -0.93763,0.93764 -1.46446,2.20952 -1.46446,3.53554 0,1.32601 0.52683,2.5979 1.46446,3.53553 0.93764,0.93764 2.20952,1.46447 3.53554,1.46447 z"
           clip-path="url(#pc108812e81)"
           style="fill:#0173b2;fill-opacity:0.2;stroke:#0173b2;stroke-width:0.75"
           id="path32968" />
        <path
           d="m 118.69419,152.26512 c 1.32601,0 2.5979,-0.52683 3.53553,-1.46447 0.93764,-0.93763 1.46447,-2.20952 1.46447,-3.53553 0,-1.32602 -0.52683,-2.5979 -1.46447,-3.53554 -0.93763,-0.93763 -2.20952,-1.46446 -3.53553,-1.46446 -1.32602,0 -2.5979,0.52683 -3.53554,1.46446 -0.93763,0.93764 -1.46446,2.20952 -1.46446,3.53554 0,1.32601 0.52683,2.5979 1.46446,3.53553 0.93764,0.93764 2.20952,1.46447 3.53554,1.46447 z"
           clip-path="url(#pc108812e81)"
           style="fill:#0173b2;fill-opacity:0.2;stroke:#0173b2;stroke-width:0.75"
           id="path32970" />
        <path
           d="m 113.42714,168.11892 c 1.32601,0 2.5979,-0.52683 3.53553,-1.46446 0.93764,-0.93764 1.46447,-2.20952 1.46447,-3.53554 0,-1.32601 -0.52683,-2.59789 -1.46447,-3.53553 -0.93763,-0.93763 -2.20952,-1.46447 -3.53553,-1.46447 -1.32602,0 -2.5979,0.52684 -3.53554,1.46447 -0.93763,0.93764 -1.46446,2.20952 -1.46446,3.53553 0,1.32602 0.52683,2.5979 1.46446,3.53554 0.93764,0.93763 2.20952,1.46446 3.53554,1.46446 z"
           clip-path="url(#pc108812e81)"
           style="fill:#0173b2;fill-opacity:0.2;stroke:#0173b2;stroke-width:0.75"
           id="path32972" />
        <path
           d="m 115.84656,162.68735 c 1.32602,0 2.5979,-0.52683 3.53554,-1.46447 0.93763,-0.93763 1.46446,-2.20952 1.46446,-3.53553 0,-1.32602 -0.52683,-2.5979 -1.46446,-3.53554 -0.93764,-0.93763 -2.20952,-1.46446 -3.53554,-1.46446 -1.32601,0 -2.5979,0.52683 -3.53553,1.46446 -0.93763,0.93764 -1.46447,2.20952 -1.46447,3.53554 0,1.32601 0.52684,2.5979 1.46447,3.53553 0.93763,0.93764 2.20952,1.46447 3.53553,1.46447 z"
           clip-path="url(#pc108812e81)"
           style="fill:#0173b2;fill-opacity:0.2;stroke:#0173b2;stroke-width:0.75"
           id="path32974" />
        <path
           d="m 122.67934,133.14316 c 1.32601,0 2.5979,-0.52683 3.53553,-1.46446 0.93764,-0.93764 1.46447,-2.20952 1.46447,-3.53554 0,-1.32601 -0.52683,-2.5979 -1.46447,-3.53553 -0.93763,-0.93764 -2.20952,-1.46447 -3.53553,-1.46447 -1.32602,0 -2.5979,0.52683 -3.53554,1.46447 -0.93763,0.93763 -1.46446,2.20952 -1.46446,3.53553 0,1.32602 0.52683,2.5979 1.46446,3.53554 0.93764,0.93763 2.20952,1.46446 3.53554,1.46446 z"
           clip-path="url(#pc108812e81)"
           style="fill:#0173b2;fill-opacity:0.2;stroke:#0173b2;stroke-width:0.75"
           id="path32976" />
        <path
           d="m 116.27326,141.35761 c 1.32601,0 2.5979,-0.52683 3.53553,-1.46446 0.93764,-0.93764 1.46447,-2.20952 1.46447,-3.53554 0,-1.32601 -0.52683,-2.5979 -1.46447,-3.53553 -0.93763,-0.93764 -2.20952,-1.46447 -3.53553,-1.46447 -1.32602,0 -2.5979,0.52683 -3.53554,1.46447 -0.93763,0.93763 -1.46446,2.20952 -1.46446,3.53553 0,1.32602 0.52683,2.5979 1.46446,3.53554 0.93764,0.93763 2.20952,1.46446 3.53554,1.46446 z"
           clip-path="url(#pc108812e81)"
           style="fill:#0173b2;fill-opacity:0.2;stroke:#0173b2;stroke-width:0.75"
           id="path32978" />
        <path
           d="m 110.1976,154.91306 c 1.32602,0 2.5979,-0.52683 3.53554,-1.46446 0.93763,-0.93764 1.46446,-2.20952 1.46446,-3.53554 0,-1.32601 -0.52683,-2.5979 -1.46446,-3.53553 -0.93764,-0.93764 -2.20952,-1.46447 -3.53554,-1.46447 -1.32601,0 -2.5979,0.52683 -3.53553,1.46447 -0.93764,0.93763 -1.46447,2.20952 -1.46447,3.53553 0,1.32602 0.52683,2.5979 1.46447,3.53554 0.93763,0.93763 2.20952,1.46446 3.53553,1.46446 z"
           clip-path="url(#pc108812e81)"
           style="fill:#0173b2;fill-opacity:0.2;stroke:#0173b2;stroke-width:0.75"
           id="path32980" />
        <path
           d="m 112.61642,164.5637 c 1.32601,0 2.5979,-0.52683 3.53553,-1.46447 0.93764,-0.93763 1.46447,-2.20951 1.46447,-3.53553 0,-1.32601 -0.52683,-2.5979 -1.46447,-3.53553 -0.93763,-0.93764 -2.20952,-1.46447 -3.53553,-1.46447 -1.32602,0 -2.5979,0.52683 -3.53554,1.46447 -0.93763,0.93763 -1.46446,2.20952 -1.46446,3.53553 0,1.32602 0.52683,2.5979 1.46446,3.53553 0.93764,0.93764 2.20952,1.46447 3.53554,1.46447 z"
           clip-path="url(#pc108812e81)"
           style="fill:#0173b2;fill-opacity:0.2;stroke:#0173b2;stroke-width:0.75"
           id="path32982" />
        <path
           d="m 125.57204,142.99342 c 1.32601,0 2.59789,-0.52683 3.53553,-1.46446 0.93763,-0.93764 1.46447,-2.20952 1.46447,-3.53554 0,-1.32601 -0.52684,-2.59789 -1.46447,-3.53553 -0.93764,-0.93763 -2.20952,-1.46447 -3.53553,-1.46447 -1.32602,0 -2.5979,0.52684 -3.53554,1.46447 -0.93763,0.93764 -1.46446,2.20952 -1.46446,3.53553 0,1.32602 0.52683,2.5979 1.46446,3.53554 0.93764,0.93763 2.20952,1.46446 3.53554,1.46446 z"
           clip-path="url(#pc108812e81)"
           style="fill:#0173b2;fill-opacity:0.2;stroke:#0173b2;stroke-width:0.75"
           id="path32984" />
        <path
           d="m 116.01359,142.38673 c 1.32602,0 2.5979,-0.52683 3.53554,-1.46447 0.93763,-0.93763 1.46446,-2.20952 1.46446,-3.53553 0,-1.32602 -0.52683,-2.5979 -1.46446,-3.53554 -0.93764,-0.93763 -2.20952,-1.46446 -3.53554,-1.46446 -1.32601,0 -2.5979,0.52683 -3.53553,1.46446 -0.93764,0.93764 -1.46447,2.20952 -1.46447,3.53554 0,1.32601 0.52683,2.5979 1.46447,3.53553 0.93763,0.93764 2.20952,1.46447 3.53553,1.46447 z"
           clip-path="url(#pc108812e81)"
           style="fill:#0173b2;fill-opacity:0.2;stroke:#0173b2;stroke-width:0.75"
           id="path32986" />
        <path
           d="m 265.66333,157.05043 -5,10 h 10 z"
           clip-path="url(#pc108812e81)"
           style="fill:#de8f05;fill-opacity:0.2;stroke:#de8f05;stroke-width:0.75"
           id="path32988" />
        <path
           d="m 267.99583,165.42078 -5,10 h 10 z"
           clip-path="url(#pc108812e81)"
           style="fill:#de8f05;fill-opacity:0.2;stroke:#de8f05;stroke-width:0.75"
           id="path32990" />
        <path
           d="m 282.07257,159.25166 -5,10 h 10 z"
           clip-path="url(#pc108812e81)"
           style="fill:#de8f05;fill-opacity:0.2;stroke:#de8f05;stroke-width:0.75"
           id="path32992" />
        <path
           d="m 291.8062,173.05883 -5,10 h 10 z"
           clip-path="url(#pc108812e81)"
           style="fill:#de8f05;fill-opacity:0.2;stroke:#de8f05;stroke-width:0.75"
           id="path32994" />
        <path
           d="m 293.3623,179.45319 -5,10 h 10 z"
           clip-path="url(#pc108812e81)"
           style="fill:#de8f05;fill-opacity:0.2;stroke:#de8f05;stroke-width:0.75"
           id="path32996" />
        <path
           d="m 193.3382,96.125799 -5,10.000001 h 10 z"
           clip-path="url(#pc108812e81)"
           style="fill:#de8f05;fill-opacity:0.2;stroke:#de8f05;stroke-width:0.75"
           id="path32998" />
        <path
           d="m 212.23241,131.94885 -5,10 h 10 z"
           clip-path="url(#pc108812e81)"
           style="fill:#de8f05;fill-opacity:0.2;stroke:#de8f05;stroke-width:0.75"
           id="path33000" />
        <path
           d="m 222.59114,144.43833 -5,10 h 10 z"
           clip-path="url(#pc108812e81)"
           style="fill:#de8f05;fill-opacity:0.2;stroke:#de8f05;stroke-width:0.75"
           id="path33002" />
        <path
           d="m 217.86553,88.47657 -5,10 h 10 z"
           clip-path="url(#pc108812e81)"
           style="fill:#de8f05;fill-opacity:0.2;stroke:#de8f05;stroke-width:0.75"
           id="path33004" />
        <path
           d="m 228.84833,75.462067 -5,10 h 10 z"
           clip-path="url(#pc108812e81)"
           style="fill:#de8f05;fill-opacity:0.2;stroke:#de8f05;stroke-width:0.75"
           id="path33006" />
        <path
           d="m 201.10879,80.549027 -5,10 h 10 z"
           clip-path="url(#pc108812e81)"
           style="fill:#de8f05;fill-opacity:0.2;stroke:#de8f05;stroke-width:0.75"
           id="path33008" />
        <path
           d="m 222.24671,81.116301 -5,10 h 10 z"
           clip-path="url(#pc108812e81)"
           style="fill:#de8f05;fill-opacity:0.2;stroke:#de8f05;stroke-width:0.75"
           id="path33010" />
        <path
           d="m 212.13858,50.247664 -5,10 h 10 z"
           clip-path="url(#pc108812e81)"
           style="fill:#de8f05;fill-opacity:0.2;stroke:#de8f05;stroke-width:0.75"
           id="path33012" />
      </g>
      <g
         id="line2d_13">
        <path
           d="M 280.32852,76.063271 177.98707,136.30425"
           clip-path="url(#pc108812e81)"
           style="fill:none;stroke:#9a5b8e;stroke-width:1.5;stroke-linecap:round"
           id="path33015" />
      </g>
      <g
         id="line2d_14">
        <path
           d="m 210.65234,126.52874 -32.66527,9.77551"
           clip-path="url(#pc108812e81)"
           style="fill:none;stroke:#9a5b8e;stroke-width:1.5;stroke-linecap:round"
           id="path33018" />
      </g>
      <g
         id="line2d_15">
        <path
           d="M 228.75184,189.09504 177.98707,136.30425"
           clip-path="url(#pc108812e81)"
           style="fill:none;stroke:#9a5b8e;stroke-width:1.5;stroke-linecap:round"
           id="path33021" />
      </g>
      <g
         id="line2d_16">
        <path
           d="M 224.42846,91.891397 177.98707,136.30425"
           clip-path="url(#pc108812e81)"
           style="fill:none;stroke:#9a5b8e;stroke-width:1.5;stroke-linecap:round"
           id="path33024" />
      </g>
      <g
         id="line2d_17">
        <path
           d="m 65.089574,130.47817 112.897496,5.82608"
           clip-path="url(#pc108812e81)"
           style="fill:none;stroke:#9a5b8e;stroke-width:1.5;stroke-linecap:round"
           id="path33027" />
      </g>
      <g
         id="line2d_18">
        <path
           d="m 222.9249,119.53274 -44.93783,16.77151"
           clip-path="url(#pc108812e81)"
           style="fill:none;stroke:#9a5b8e;stroke-width:1.5;stroke-linecap:round"
           id="path33030" />
      </g>
      <g
         id="line2d_19">
        <path
           d="m 176.3538,60.403569 1.63327,75.900681"
           clip-path="url(#pc108812e81)"
           style="fill:none;stroke:#9a5b8e;stroke-width:1.5;stroke-linecap:round"
           id="path33033" />
      </g>
      <g
         id="line2d_20">
        <path
           d="m 109.99385,16.02 67.99322,120.28425"
           clip-path="url(#pc108812e81)"
           style="fill:none;stroke:#9a5b8e;stroke-width:1.5;stroke-linecap:round"
           id="path33036" />
      </g>
      <g
         id="line2d_21">
        <path
           d="m 136.29821,192.42 41.68886,-56.11575"
           clip-path="url(#pc108812e81)"
           style="fill:none;stroke:#9a5b8e;stroke-width:1.5;stroke-linecap:round"
           id="path33039" />
      </g>
      <g
         id="patch_3">
        <path
           d="M 53.675938,201.24 V 7.2"
           style="fill:none;stroke:#ffffff;stroke-width:1.25;stroke-linecap:square;stroke-linejoin:miter"
           id="path33042" />
      </g>
      <g
         id="patch_4">
        <path
           d="M 304.77594,201.24 V 7.2"
           style="fill:none;stroke:#ffffff;stroke-width:1.25;stroke-linecap:square;stroke-linejoin:miter"
           id="path33045" />
      </g>
      <g
         id="patch_5">
        <path
           d="M 53.675938,201.24 H 304.77594"
           style="fill:none;stroke:#ffffff;stroke-width:1.25;stroke-linecap:square;stroke-linejoin:miter"
           id="path33048" />
      </g>
      <g
         id="patch_6">
        <path
           d="M 53.675938,7.2 H 304.77594"
           style="fill:none;stroke:#ffffff;stroke-width:1.25;stroke-linecap:square;stroke-linejoin:miter"
           id="path33051" />
      </g>
      <g
         id="text_15">
        <g
           clip-path="url(#pc108812e81)"
           id="g33056">
          <text
             style="font-style:italic;font-variant:normal;font-weight:normal;font-stretch:normal;font-size:12px;line-height:normal;font-family:Arial, 'DejaVu Sans', 'Liberation Sans', 'Bitstream Vera Sans', sans-serif;text-anchor:middle"
             x="280.32852"
             y="69.678268"
             id="text33054">Tfr1</text>
        </g>
      </g>
      <g
         id="text_16">
        <g
           clip-path="url(#pc108812e81)"
           id="g33061">
          <text
             style="font-style:italic;font-variant:normal;font-weight:normal;font-stretch:normal;font-size:12px;line-height:normal;font-family:Arial, 'DejaVu Sans', 'Liberation Sans', 'Bitstream Vera Sans', sans-serif;text-anchor:middle"
             x="210.65234"
             y="120.14374"
             id="text33059">Slc16a2</text>
        </g>
      </g>
      <g
         id="text_17">
        <g
           clip-path="url(#pc108812e81)"
           id="g33066">
          <text
             style="font-style:italic;font-variant:normal;font-weight:normal;font-stretch:normal;font-size:12px;line-height:normal;font-family:Arial, 'DejaVu Sans', 'Liberation Sans', 'Bitstream Vera Sans', sans-serif;text-anchor:middle"
             x="228.75183"
             y="182.71004"
             id="text33064">Slco1c1</text>
        </g>
      </g>
      <g
         id="text_18">
        <g
           clip-path="url(#pc108812e81)"
           id="g33071">
          <text
             style="font-style:italic;font-variant:normal;font-weight:normal;font-stretch:normal;font-size:12px;line-height:normal;font-family:Arial, 'DejaVu Sans', 'Liberation Sans', 'Bitstream Vera Sans', sans-serif;text-anchor:middle"
             x="224.42845"
             y="85.506393"
             id="text33069">Dio2</text>
        </g>
      </g>
      <g
         id="text_19">
        <g
           clip-path="url(#pc108812e81)"
           id="g33076">
          <text
             style="font-style:italic;font-variant:normal;font-weight:normal;font-stretch:normal;font-size:12px;line-height:normal;font-family:Arial, 'DejaVu Sans', 'Liberation Sans', 'Bitstream Vera Sans', sans-serif;text-anchor:middle"
             x="65.089577"
             y="123.95255"
             id="text33074">Crym</text>
        </g>
      </g>
      <g
         id="text_20">
        <g
           clip-path="url(#pc108812e81)"
           id="g33081">
          <text
             style="font-style:italic;font-variant:normal;font-weight:normal;font-stretch:normal;font-size:12px;line-height:normal;font-family:Arial, 'DejaVu Sans', 'Liberation Sans', 'Bitstream Vera Sans', sans-serif;text-anchor:middle"
             x="222.92491"
             y="113.14774"
             id="text33079">Hr</text>
        </g>
      </g>
      <g
         id="text_21">
        <g
           clip-path="url(#pc108812e81)"
           id="g33086">
          <text
             style="font-style:italic;font-variant:normal;font-weight:normal;font-stretch:normal;font-size:12px;line-height:normal;font-family:Arial, 'DejaVu Sans', 'Liberation Sans', 'Bitstream Vera Sans', sans-serif;text-anchor:middle"
             x="176.35381"
             y="54.01857"
             id="text33084">Klf9</text>
        </g>
      </g>
      <g
         id="text_22">
        <g
           clip-path="url(#pc108812e81)"
           id="g33091">
          <text
             style="font-style:italic;font-variant:normal;font-weight:normal;font-stretch:normal;font-size:12px;line-height:normal;font-family:Arial, 'DejaVu Sans', 'Liberation Sans', 'Bitstream Vera Sans', sans-serif;text-anchor:middle"
             x="109.99385"
             y="9.5299997"
             id="text33089">Nrgn</text>
        </g>
      </g>
      <g
         id="text_23">
        <g
           clip-path="url(#pc108812e81)"
           id="g33096">
          <text
             style="font-style:italic;font-variant:normal;font-weight:normal;font-stretch:normal;font-size:12px;line-height:normal;font-family:Arial, 'DejaVu Sans', 'Liberation Sans', 'Bitstream Vera Sans', sans-serif;text-anchor:middle"
             x="136.29822"
             y="186.035"
             id="text33094">Pvalb</text>
        </g>
      </g>
    </g>
    <g
       id="legend_1"
       transform="translate(-79.839038,-77.388719)">
      <g
         id="patch_7">
        <path
           d="m 325.1152,125.39178 h 56.18929 q 2.20824,0 2.20824,-1.31278 V 87.050472 q 0,-1.312775 -2.20824,-1.312775 H 325.1152 q -2.20824,0 -2.20824,1.312775 V 124.079 q 0,1.31278 2.20824,1.31278 z"
           style="opacity:0.8;fill:#eaeaf2;stroke:#cccccc;stroke-width:0.773919;stroke-linejoin:miter"
           id="path33100" />
      </g>
      <g
         id="text_24" />
      <g
         id="PathCollection_2">
        <defs
           id="defs33107">
          <path
             id="mfc172a0c78"
             d="M 0,5 C 1.326016,5 2.597899,4.473168 3.535534,3.535534 4.473168,2.597899 5,1.326016 5,0 5,-1.326016 4.473168,-2.597899 3.535534,-3.535534 2.597899,-4.473168 1.326016,-5 0,-5 -1.326016,-5 -2.597899,-4.473168 -3.535534,-3.535534 -4.473168,-2.597899 -5,-1.326016 -5,0 -5,1.326016 -4.473168,2.597899 -3.535534,3.535534 -2.597899,4.473168 -1.326016,5 0,5 Z"
             style="stroke:#0173b2;stroke-width:0.75" />
        </defs>
        <g
           id="g33111">
          <use
             xlink:href="#mfc172a0c78"
             x="338.42001"
             y="97.294609"
             style="fill:#0173b2;fill-opacity:0.2;stroke:#0173b2;stroke-width:0.75"
             id="use33109" />
        </g>
      </g>
      <g
         id="text_25">
        <text
           style="font-style:normal;font-variant:normal;font-weight:normal;font-stretch:normal;font-size:11px;line-height:normal;font-family:Arial, 'DejaVu Sans', 'Liberation Sans', 'Bitstream Vera Sans', sans-serif;text-anchor:start;fill:#262626"
           x="358.22"
           y="100.18211"
           id="text33114">FeS</text>
      </g>
      <g
         id="PathCollection_3">
        <defs
           id="defs33118">
          <path
             id="m98d679fd18"
             d="M 0,-5 -5,5 H 5 Z"
             style="stroke:#de8f05;stroke-width:0.75" />
        </defs>
        <g
           id="g33122">
          <use
             xlink:href="#m98d679fd18"
             x="338.42001"
             y="112.85445"
             style="fill:#de8f05;fill-opacity:0.2;stroke:#de8f05;stroke-width:0.75"
             id="use33120" />
        </g>
      </g>
      <g
         id="text_26">
        <text
           style="font-style:normal;font-variant:normal;font-weight:normal;font-stretch:normal;font-size:11px;line-height:normal;font-family:Arial, 'DejaVu Sans', 'Liberation Sans', 'Bitstream Vera Sans', sans-serif;text-anchor:start;fill:#262626"
           x="358.22"
           y="115.74195"
           id="text33125">FeD</text>
      </g>
      <g
         id="PathCollection_4">
        <defs
           id="defs33129">
          <path
             id="m697eb823e0"
             d="M -5,5 H 5 V -5 H -5 Z"
             style="stroke:#029e73;stroke-width:0.75" />
        </defs>
        <g
           id="g33133" />
      </g>
      <g
         id="text_27" />
    </g>
  </g>
  <defs
     id="defs33144">
    <clipPath
       id="pc108812e81">
      <rect
         x="53.675938"
         y="7.2"
         width="251.1"
         height="194.04"
         id="rect33141" />
    </clipPath>
  </defs>
</svg>
