<?xml version="1.0" encoding="utf-8" standalone="no"?>
<!DOCTYPE svg PUBLIC "-//W3C//DTD SVG 1.1//EN"
  "http://www.w3.org/Graphics/SVG/1.1/DTD/svg11.dtd">
<svg xmlns:xlink="http://www.w3.org/1999/xlink" width="420.119687pt" height="204.48pt" viewBox="0 0 420.119687 204.48" xmlns="http://www.w3.org/2000/svg" version="1.1">
 <metadata>
  <rdf:RDF xmlns:dc="http://purl.org/dc/elements/1.1/" xmlns:cc="http://creativecommons.org/ns#" xmlns:rdf="http://www.w3.org/1999/02/22-rdf-syntax-ns#">
   <cc:Work>
    <dc:type rdf:resource="http://purl.org/dc/dcmitype/StillImage"/>
    <dc:date>2023-06-08T16:23:12.882266</dc:date>
    <dc:format>image/svg+xml</dc:format>
    <dc:creator>
     <cc:Agent>
      <dc:title>Matplotlib v3.6.2, https://matplotlib.org/</dc:title>
     </cc:Agent>
    </dc:creator>
   </cc:Work>
  </rdf:RDF>
 </metadata>
 <defs>
  <style type="text/css">*{stroke-linejoin: round; stroke-linecap: butt}</style>
 </defs>
 <g id="figure_1">
  <g id="patch_1">
   <path d="M 0 204.48 
L 420.119687 204.48 
L 420.119687 0 
L 0 0 
z
" style="fill: #ffffff"/>
  </g>
  <g id="axes_1">
   <g id="patch_2">
    <path d="M 46.964375 177.720156 
L 132.429583 177.720156 
L 132.429583 21.789375 
L 46.964375 21.789375 
z
" style="fill: #eaeaf2"/>
   </g>
   <g id="matplotlib.axis_1">
    <g id="xtick_1">
     <g id="text_1">
      <text style="fill: #262626; font: 11px 'Arial', 'DejaVu Sans', 'Liberation Sans', 'Bitstream Vera Sans', sans-serif; text-anchor: middle" x="68.330677" y="195.09375" transform="rotate(-0 68.330677 195.09375)">FeS</text>
     </g>
    </g>
    <g id="xtick_2">
     <g id="text_2">
      <text style="fill: #262626; font: 11px 'Arial', 'DejaVu Sans', 'Liberation Sans', 'Bitstream Vera Sans', sans-serif; text-anchor: middle" x="111.063281" y="195.09375" transform="rotate(-0 111.063281 195.09375)">FeD</text>
     </g>
    </g>
   </g>
   <g id="matplotlib.axis_2">
    <g id="ytick_1">
     <g id="line2d_1">
      <path d="M 46.964375 174.434794 
L 132.429583 174.434794 
" clip-path="url(#pf1c87482e2)" style="fill: none; stroke: #ffffff; stroke-opacity: 0.8; stroke-linecap: round"/>
     </g>
     <g id="line2d_2">
      <defs>
       <path id="m8ee94f9fa7" d="M 0 0 
L -6 0 
" style="stroke: #808080; stroke-width: 1.25"/>
      </defs>
      <g>
       <use xlink:href="#m8ee94f9fa7" x="46.964375" y="174.434794" style="fill: #808080; stroke: #808080; stroke-width: 1.25"/>
      </g>
     </g>
     <g id="text_3">
      <text style="fill: #262626; font: 11px 'Arial', 'DejaVu Sans', 'Liberation Sans', 'Bitstream Vera Sans', sans-serif; text-anchor: end" x="37.464375" y="178.371591" transform="rotate(-0 37.464375 178.371591)">0.6</text>
     </g>
    </g>
    <g id="ytick_2">
     <g id="line2d_3">
      <path d="M 46.964375 149.596217 
L 132.429583 149.596217 
" clip-path="url(#pf1c87482e2)" style="fill: none; stroke: #ffffff; stroke-opacity: 0.8; stroke-linecap: round"/>
     </g>
     <g id="line2d_4">
      <g>
       <use xlink:href="#m8ee94f9fa7" x="46.964375" y="149.596217" style="fill: #808080; stroke: #808080; stroke-width: 1.25"/>
      </g>
     </g>
     <g id="text_4">
      <text style="fill: #262626; font: 11px 'Arial', 'DejaVu Sans', 'Liberation Sans', 'Bitstream Vera Sans', sans-serif; text-anchor: end" x="37.464375" y="153.533014" transform="rotate(-0 37.464375 153.533014)">0.8</text>
     </g>
    </g>
    <g id="ytick_3">
     <g id="line2d_5">
      <path d="M 46.964375 130.329919 
L 132.429583 130.329919 
" clip-path="url(#pf1c87482e2)" style="fill: none; stroke: #ffffff; stroke-opacity: 0.8; stroke-linecap: round"/>
     </g>
     <g id="line2d_6">
      <g>
       <use xlink:href="#m8ee94f9fa7" x="46.964375" y="130.329919" style="fill: #808080; stroke: #808080; stroke-width: 1.25"/>
      </g>
     </g>
     <g id="text_5">
      <text style="fill: #262626; font: 11px 'Arial', 'DejaVu Sans', 'Liberation Sans', 'Bitstream Vera Sans', sans-serif; text-anchor: end" x="37.464375" y="134.266716" transform="rotate(-0 37.464375 134.266716)">1.0</text>
     </g>
    </g>
    <g id="ytick_4">
     <g id="line2d_7">
      <path d="M 46.964375 95.32191 
L 132.429583 95.32191 
" clip-path="url(#pf1c87482e2)" style="fill: none; stroke: #ffffff; stroke-opacity: 0.8; stroke-linecap: round"/>
     </g>
     <g id="line2d_8">
      <g>
       <use xlink:href="#m8ee94f9fa7" x="46.964375" y="95.32191" style="fill: #808080; stroke: #808080; stroke-width: 1.25"/>
      </g>
     </g>
     <g id="text_6">
      <text style="fill: #262626; font: 11px 'Arial', 'DejaVu Sans', 'Liberation Sans', 'Bitstream Vera Sans', sans-serif; text-anchor: end" x="37.464375" y="99.258707" transform="rotate(-0 37.464375 99.258707)">1.5</text>
     </g>
    </g>
    <g id="ytick_5">
     <g id="line2d_9">
      <path d="M 46.964375 70.483333 
L 132.429583 70.483333 
" clip-path="url(#pf1c87482e2)" style="fill: none; stroke: #ffffff; stroke-opacity: 0.8; stroke-linecap: round"/>
     </g>
     <g id="line2d_10">
      <g>
       <use xlink:href="#m8ee94f9fa7" x="46.964375" y="70.483333" style="fill: #808080; stroke: #808080; stroke-width: 1.25"/>
      </g>
     </g>
     <g id="text_7">
      <text style="fill: #262626; font: 11px 'Arial', 'DejaVu Sans', 'Liberation Sans', 'Bitstream Vera Sans', sans-serif; text-anchor: end" x="37.464375" y="74.42013" transform="rotate(-0 37.464375 74.42013)">2.0</text>
     </g>
    </g>
    <g id="ytick_6">
     <g id="line2d_11">
      <path d="M 46.964375 35.475324 
L 132.429583 35.475324 
" clip-path="url(#pf1c87482e2)" style="fill: none; stroke: #ffffff; stroke-opacity: 0.8; stroke-linecap: round"/>
     </g>
     <g id="line2d_12">
      <g>
       <use xlink:href="#m8ee94f9fa7" x="46.964375" y="35.475324" style="fill: #808080; stroke: #808080; stroke-width: 1.25"/>
      </g>
     </g>
     <g id="text_8">
      <text style="fill: #262626; font: 11px 'Arial', 'DejaVu Sans', 'Liberation Sans', 'Bitstream Vera Sans', sans-serif; text-anchor: end" x="37.464375" y="39.412121" transform="rotate(-0 37.464375 39.412121)">3.0</text>
     </g>
    </g>
    <g id="ytick_7">
     <g id="line2d_13">
      <defs>
       <path id="m8dcef6ef0d" d="M 0 0 
L -4 0 
" style="stroke: #808080"/>
      </defs>
      <g>
       <use xlink:href="#m8dcef6ef0d" x="46.964375" y="161.125367" style="fill: #808080; stroke: #808080"/>
      </g>
     </g>
    </g>
    <g id="ytick_8">
     <g id="line2d_14">
      <g>
       <use xlink:href="#m8dcef6ef0d" x="46.964375" y="139.426785" style="fill: #808080; stroke: #808080"/>
      </g>
     </g>
    </g>
    <g id="text_9">
     <text style="fill: #262626; font: 12px 'Arial', 'DejaVu Sans', 'Liberation Sans', 'Bitstream Vera Sans', sans-serif; text-anchor: middle" x="15.789375" y="99.754766" transform="rotate(-90 15.789375 99.754766)">Relative mRNA level</text>
    </g>
   </g>
   <g id="PathCollection_1">
    <path d="M 69.766737 142.623151 
C 70.297143 142.623151 70.805897 142.412418 71.18095 142.037365 
C 71.556004 141.662311 71.766737 141.153557 71.766737 140.623151 
C 71.766737 140.092745 71.556004 139.583991 71.18095 139.208937 
C 70.805897 138.833884 70.297143 138.623151 69.766737 138.623151 
C 69.236331 138.623151 68.727577 138.833884 68.352523 139.208937 
C 67.977469 139.583991 67.766737 140.092745 67.766737 140.623151 
C 67.766737 141.153557 67.977469 141.662311 68.352523 142.037365 
C 68.727577 142.412418 69.236331 142.623151 69.766737 142.623151 
z
" clip-path="url(#pf1c87482e2)" style="fill: #0173b2; fill-opacity: 0.2; stroke: #0173b2; stroke-opacity: 0.6; stroke-width: 0.75"/>
    <path d="M 75.357225 130.653834 
C 75.887631 130.653834 76.396384 130.443101 76.771438 130.068047 
C 77.146492 129.692993 77.357225 129.18424 77.357225 128.653834 
C 77.357225 128.123428 77.146492 127.614674 76.771438 127.23962 
C 76.396384 126.864566 75.887631 126.653834 75.357225 126.653834 
C 74.826818 126.653834 74.318065 126.864566 73.943011 127.23962 
C 73.567957 127.614674 73.357225 128.123428 73.357225 128.653834 
C 73.357225 129.18424 73.567957 129.692993 73.943011 130.068047 
C 74.318065 130.443101 74.826818 130.653834 75.357225 130.653834 
z
" clip-path="url(#pf1c87482e2)" style="fill: #0173b2; fill-opacity: 0.2; stroke: #0173b2; stroke-opacity: 0.6; stroke-width: 0.75"/>
    <path d="M 74.433333 124.669175 
C 74.963739 124.669175 75.472492 124.458442 75.847546 124.083389 
C 76.2226 123.708335 76.433333 123.199581 76.433333 122.669175 
C 76.433333 122.138769 76.2226 121.630015 75.847546 121.254962 
C 75.472492 120.879908 74.963739 120.669175 74.433333 120.669175 
C 73.902926 120.669175 73.394173 120.879908 73.019119 121.254962 
C 72.644065 121.630015 72.433333 122.138769 72.433333 122.669175 
C 72.433333 123.199581 72.644065 123.708335 73.019119 124.083389 
C 73.394173 124.458442 73.902926 124.669175 74.433333 124.669175 
z
" clip-path="url(#pf1c87482e2)" style="fill: #0173b2; fill-opacity: 0.2; stroke: #0173b2; stroke-opacity: 0.6; stroke-width: 0.75"/>
    <path d="M 72.928641 133.54546 
C 73.459047 133.54546 73.9678 133.334727 74.342854 132.959673 
C 74.717908 132.584619 74.928641 132.075866 74.928641 131.54546 
C 74.928641 131.015053 74.717908 130.5063 74.342854 130.131246 
C 73.9678 129.756192 73.459047 129.54546 72.928641 129.54546 
C 72.398234 129.54546 71.889481 129.756192 71.514427 130.131246 
C 71.139373 130.5063 70.928641 131.015053 70.928641 131.54546 
C 70.928641 132.075866 71.139373 132.584619 71.514427 132.959673 
C 71.889481 133.334727 72.398234 133.54546 72.928641 133.54546 
z
" clip-path="url(#pf1c87482e2)" style="fill: #0173b2; fill-opacity: 0.2; stroke: #0173b2; stroke-opacity: 0.6; stroke-width: 0.75"/>
    <path d="M 72.816188 141.325516 
C 73.346594 141.325516 73.855348 141.114783 74.230402 140.739729 
C 74.605455 140.364676 74.816188 139.855922 74.816188 139.325516 
C 74.816188 138.79511 74.605455 138.286356 74.230402 137.911302 
C 73.855348 137.536249 73.346594 137.325516 72.816188 137.325516 
C 72.285782 137.325516 71.777028 137.536249 71.401975 137.911302 
C 71.026921 138.286356 70.816188 138.79511 70.816188 139.325516 
C 70.816188 139.855922 71.026921 140.364676 71.401975 140.739729 
C 71.777028 141.114783 72.285782 141.325516 72.816188 141.325516 
z
" clip-path="url(#pf1c87482e2)" style="fill: #0173b2; fill-opacity: 0.2; stroke: #0173b2; stroke-opacity: 0.6; stroke-width: 0.75"/>
    <path d="M 74.358821 129.356199 
C 74.889227 129.356199 75.39798 129.145466 75.773034 128.770412 
C 76.148088 128.395358 76.358821 127.886605 76.358821 127.356199 
C 76.358821 126.825792 76.148088 126.317039 75.773034 125.941985 
C 75.39798 125.566931 74.889227 125.356199 74.358821 125.356199 
C 73.828414 125.356199 73.319661 125.566931 72.944607 125.941985 
C 72.569553 126.317039 72.358821 126.825792 72.358821 127.356199 
C 72.358821 127.886605 72.569553 128.395358 72.944607 128.770412 
C 73.319661 129.145466 73.828414 129.356199 74.358821 129.356199 
z
" clip-path="url(#pf1c87482e2)" style="fill: #0173b2; fill-opacity: 0.2; stroke: #0173b2; stroke-opacity: 0.6; stroke-width: 0.75"/>
    <path d="M 71.228072 126.962335 
C 71.758479 126.962335 72.267232 126.751603 72.642286 126.376549 
C 73.01734 126.001495 73.228072 125.492741 73.228072 124.962335 
C 73.228072 124.431929 73.01734 123.923175 72.642286 123.548122 
C 72.267232 123.173068 71.758479 122.962335 71.228072 122.962335 
C 70.697666 122.962335 70.188913 123.173068 69.813859 123.548122 
C 69.438805 123.923175 69.228072 124.431929 69.228072 124.962335 
C 69.228072 125.492741 69.438805 126.001495 69.813859 126.376549 
C 70.188913 126.751603 70.697666 126.962335 71.228072 126.962335 
z
" clip-path="url(#pf1c87482e2)" style="fill: #0173b2; fill-opacity: 0.2; stroke: #0173b2; stroke-opacity: 0.6; stroke-width: 0.75"/>
    <path d="M 73.48408 131.151596 
C 74.014486 131.151596 74.523239 130.940864 74.898293 130.56581 
C 75.273347 130.190756 75.48408 129.682002 75.48408 129.151596 
C 75.48408 128.62119 75.273347 128.112436 74.898293 127.737383 
C 74.523239 127.362329 74.014486 127.151596 73.48408 127.151596 
C 72.953673 127.151596 72.44492 127.362329 72.069866 127.737383 
C 71.694812 128.112436 71.48408 128.62119 71.48408 129.151596 
C 71.48408 129.682002 71.694812 130.190756 72.069866 130.56581 
C 72.44492 130.940864 72.953673 131.151596 73.48408 131.151596 
z
" clip-path="url(#pf1c87482e2)" style="fill: #0173b2; fill-opacity: 0.2; stroke: #0173b2; stroke-opacity: 0.6; stroke-width: 0.75"/>
    <path d="M 71.204856 130.759694 
C 71.735262 130.759694 72.244016 130.548961 72.61907 130.173908 
C 72.994123 129.798854 73.204856 129.2901 73.204856 128.759694 
C 73.204856 128.229288 72.994123 127.720534 72.61907 127.34548 
C 72.244016 126.970427 71.735262 126.759694 71.204856 126.759694 
C 70.67445 126.759694 70.165696 126.970427 69.790643 127.34548 
C 69.415589 127.720534 69.204856 128.229288 69.204856 128.759694 
C 69.204856 129.2901 69.415589 129.798854 69.790643 130.173908 
C 70.165696 130.548961 70.67445 130.759694 71.204856 130.759694 
z
" clip-path="url(#pf1c87482e2)" style="fill: #0173b2; fill-opacity: 0.2; stroke: #0173b2; stroke-opacity: 0.6; stroke-width: 0.75"/>
    <path d="M 72.837561 132.126291 
C 73.367967 132.126291 73.87672 131.915558 74.251774 131.540504 
C 74.626828 131.165451 74.837561 130.656697 74.837561 130.126291 
C 74.837561 129.595885 74.626828 129.087131 74.251774 128.712077 
C 73.87672 128.337023 73.367967 128.126291 72.837561 128.126291 
C 72.307154 128.126291 71.798401 128.337023 71.423347 128.712077 
C 71.048293 129.087131 70.837561 129.595885 70.837561 130.126291 
C 70.837561 130.656697 71.048293 131.165451 71.423347 131.540504 
C 71.798401 131.915558 72.307154 132.126291 72.837561 132.126291 
z
" clip-path="url(#pf1c87482e2)" style="fill: #0173b2; fill-opacity: 0.2; stroke: #0173b2; stroke-opacity: 0.6; stroke-width: 0.75"/>
    <path d="M 71.36073 132.792144 
C 71.891136 132.792144 72.39989 132.581411 72.774944 132.206357 
C 73.149998 131.831304 73.36073 131.32255 73.36073 130.792144 
C 73.36073 130.261738 73.149998 129.752984 72.774944 129.37793 
C 72.39989 129.002877 71.891136 128.792144 71.36073 128.792144 
C 70.830324 128.792144 70.32157 129.002877 69.946517 129.37793 
C 69.571463 129.752984 69.36073 130.261738 69.36073 130.792144 
C 69.36073 131.32255 69.571463 131.831304 69.946517 132.206357 
C 70.32157 132.581411 70.830324 132.792144 71.36073 132.792144 
z
" clip-path="url(#pf1c87482e2)" style="fill: #0173b2; fill-opacity: 0.2; stroke: #0173b2; stroke-opacity: 0.6; stroke-width: 0.75"/>
    <path d="M 75.693731 133.667699 
C 76.224137 133.667699 76.732891 133.456967 77.107945 133.081913 
C 77.482998 132.706859 77.693731 132.198106 77.693731 131.667699 
C 77.693731 131.137293 77.482998 130.62854 77.107945 130.253486 
C 76.732891 129.878432 76.224137 129.667699 75.693731 129.667699 
C 75.163325 129.667699 74.654571 129.878432 74.279517 130.253486 
C 73.904464 130.62854 73.693731 131.137293 73.693731 131.667699 
C 73.693731 132.198106 73.904464 132.706859 74.279517 133.081913 
C 74.654571 133.456967 75.163325 133.667699 75.693731 133.667699 
z
" clip-path="url(#pf1c87482e2)" style="fill: #0173b2; fill-opacity: 0.2; stroke: #0173b2; stroke-opacity: 0.6; stroke-width: 0.75"/>
    <path d="M 116.211734 95.533609 
L 114.211734 99.533609 
L 118.211734 99.533609 
z
" clip-path="url(#pf1c87482e2)" style="fill: #de8f05; fill-opacity: 0.2; stroke: #de8f05; stroke-opacity: 0.6; stroke-width: 0.75"/>
    <path d="M 117.016041 102.116733 
L 115.016041 106.116733 
L 119.016041 106.116733 
z
" clip-path="url(#pf1c87482e2)" style="fill: #de8f05; fill-opacity: 0.2; stroke: #de8f05; stroke-opacity: 0.6; stroke-width: 0.75"/>
    <path d="M 116.384189 71.494271 
L 114.384189 75.494271 
L 118.384189 75.494271 
z
" clip-path="url(#pf1c87482e2)" style="fill: #de8f05; fill-opacity: 0.2; stroke: #de8f05; stroke-opacity: 0.6; stroke-width: 0.75"/>
    <path d="M 118.197703 75.683532 
L 116.197703 79.683532 
L 120.197703 79.683532 
z
" clip-path="url(#pf1c87482e2)" style="fill: #de8f05; fill-opacity: 0.2; stroke: #de8f05; stroke-opacity: 0.6; stroke-width: 0.75"/>
    <path d="M 116.189371 74.4866 
L 114.189371 78.4866 
L 118.189371 78.4866 
z
" clip-path="url(#pf1c87482e2)" style="fill: #de8f05; fill-opacity: 0.2; stroke: #de8f05; stroke-opacity: 0.6; stroke-width: 0.75"/>
    <path d="M 117.322382 69.100407 
L 115.322382 73.100407 
L 119.322382 73.100407 
z
" clip-path="url(#pf1c87482e2)" style="fill: #de8f05; fill-opacity: 0.2; stroke: #de8f05; stroke-opacity: 0.6; stroke-width: 0.75"/>
    <path d="M 113.560404 29.60166 
L 111.560404 33.60166 
L 115.560404 33.60166 
z
" clip-path="url(#pf1c87482e2)" style="fill: #de8f05; fill-opacity: 0.2; stroke: #de8f05; stroke-opacity: 0.6; stroke-width: 0.75"/>
    <path d="M 114.253392 96.740407 
L 112.253392 100.740407 
L 116.253392 100.740407 
z
" clip-path="url(#pf1c87482e2)" style="fill: #de8f05; fill-opacity: 0.2; stroke: #de8f05; stroke-opacity: 0.6; stroke-width: 0.75"/>
    <path d="M 113.845888 100.18763 
L 111.845888 104.18763 
L 115.845888 104.18763 
z
" clip-path="url(#pf1c87482e2)" style="fill: #de8f05; fill-opacity: 0.2; stroke: #de8f05; stroke-opacity: 0.6; stroke-width: 0.75"/>
    <path d="M 115.268579 100.33593 
L 113.268579 104.33593 
L 117.268579 104.33593 
z
" clip-path="url(#pf1c87482e2)" style="fill: #de8f05; fill-opacity: 0.2; stroke: #de8f05; stroke-opacity: 0.6; stroke-width: 0.75"/>
    <path d="M 112.798178 83.677932 
L 110.798178 87.677932 
L 114.798178 87.677932 
z
" clip-path="url(#pf1c87482e2)" style="fill: #de8f05; fill-opacity: 0.2; stroke: #de8f05; stroke-opacity: 0.6; stroke-width: 0.75"/>
    <path d="M 116.021887 94.608073 
L 114.021887 98.608073 
L 118.021887 98.608073 
z
" clip-path="url(#pf1c87482e2)" style="fill: #de8f05; fill-opacity: 0.2; stroke: #de8f05; stroke-opacity: 0.6; stroke-width: 0.75"/>
   </g>
   <g id="PathCollection_2">
    <path d="M 64.057417 133.469424 
C 64.853026 133.469424 65.616156 133.153326 66.178737 132.590745 
C 66.741318 132.028164 67.057417 131.265034 67.057417 130.469424 
C 67.057417 129.673815 66.741318 128.910685 66.178737 128.348104 
C 65.616156 127.785523 64.853026 127.469424 64.057417 127.469424 
C 63.261807 127.469424 62.498677 127.785523 61.936096 128.348104 
C 61.373516 128.910685 61.057417 129.673815 61.057417 130.469424 
C 61.057417 131.265034 61.373516 132.028164 61.936096 132.590745 
C 62.498677 133.153326 63.261807 133.469424 64.057417 133.469424 
z
" clip-path="url(#pf1c87482e2)" style="fill: #0173b2; stroke: #0173b2; stroke-width: 0.5"/>
    <path d="M 106.790021 81.797232 
L 103.790021 87.797232 
L 109.790021 87.797232 
z
" clip-path="url(#pf1c87482e2)" style="fill: #de8f05; stroke: #de8f05; stroke-width: 0.5"/>
   </g>
   <g id="LineCollection_1">
    <path d="M 64.057417 135.631915 
L 64.057417 125.306934 
" clip-path="url(#pf1c87482e2)" style="fill: none; stroke: #0173b2; stroke-width: 1.5; stroke-linecap: round"/>
    <path d="M 106.790021 105.566471 
L 106.790021 64.027993 
" clip-path="url(#pf1c87482e2)" style="fill: none; stroke: #de8f05; stroke-width: 1.5; stroke-linecap: round"/>
   </g>
   <g id="patch_3">
    <path d="M 46.964375 177.720156 
L 46.964375 21.789375 
" style="fill: none; stroke: #ffffff; stroke-width: 1.25; stroke-linejoin: miter; stroke-linecap: square"/>
   </g>
   <g id="patch_4">
    <path d="M 132.429583 177.720156 
L 132.429583 21.789375 
" style="fill: none; stroke: #ffffff; stroke-width: 1.25; stroke-linejoin: miter; stroke-linecap: square"/>
   </g>
   <g id="patch_5">
    <path d="M 46.964375 177.720156 
L 132.429583 177.720156 
" style="fill: none; stroke: #ffffff; stroke-width: 1.25; stroke-linejoin: miter; stroke-linecap: square"/>
   </g>
   <g id="patch_6">
    <path d="M 46.964375 21.789375 
L 132.429583 21.789375 
" style="fill: none; stroke: #ffffff; stroke-width: 1.25; stroke-linejoin: miter; stroke-linecap: square"/>
   </g>
   <g id="text_10">
    <text style="fill: #262626; font: 12px 'Arial', 'DejaVu Sans', 'Liberation Sans', 'Bitstream Vera Sans', sans-serif; text-anchor: middle" x="89.696979" y="15.789375" transform="rotate(-0 89.696979 15.789375)">11</text>
   </g>
  </g>
  <g id="axes_2">
   <g id="patch_7">
    <path d="M 151.389583 177.720156 
L 236.854792 177.720156 
L 236.854792 21.789375 
L 151.389583 21.789375 
z
" style="fill: #eaeaf2"/>
   </g>
   <g id="matplotlib.axis_3">
    <g id="xtick_3">
     <g id="text_11">
      <text style="fill: #262626; font: 11px 'Arial', 'DejaVu Sans', 'Liberation Sans', 'Bitstream Vera Sans', sans-serif; text-anchor: middle" x="172.755885" y="195.09375" transform="rotate(-0 172.755885 195.09375)">FeS</text>
     </g>
    </g>
    <g id="xtick_4">
     <g id="text_12">
      <text style="fill: #262626; font: 11px 'Arial', 'DejaVu Sans', 'Liberation Sans', 'Bitstream Vera Sans', sans-serif; text-anchor: middle" x="215.48849" y="195.09375" transform="rotate(-0 215.48849 195.09375)">FeD</text>
     </g>
    </g>
   </g>
   <g id="matplotlib.axis_4">
    <g id="ytick_9">
     <g id="line2d_15">
      <path d="M 151.389583 174.434794 
L 236.854792 174.434794 
" clip-path="url(#pb0d839ea00)" style="fill: none; stroke: #ffffff; stroke-opacity: 0.8; stroke-linecap: round"/>
     </g>
     <g id="line2d_16">
      <g>
       <use xlink:href="#m8ee94f9fa7" x="151.389583" y="174.434794" style="fill: #808080; stroke: #808080; stroke-width: 1.25"/>
      </g>
     </g>
    </g>
    <g id="ytick_10">
     <g id="line2d_17">
      <path d="M 151.389583 149.596217 
L 236.854792 149.596217 
" clip-path="url(#pb0d839ea00)" style="fill: none; stroke: #ffffff; stroke-opacity: 0.8; stroke-linecap: round"/>
     </g>
     <g id="line2d_18">
      <g>
       <use xlink:href="#m8ee94f9fa7" x="151.389583" y="149.596217" style="fill: #808080; stroke: #808080; stroke-width: 1.25"/>
      </g>
     </g>
    </g>
    <g id="ytick_11">
     <g id="line2d_19">
      <path d="M 151.389583 130.329919 
L 236.854792 130.329919 
" clip-path="url(#pb0d839ea00)" style="fill: none; stroke: #ffffff; stroke-opacity: 0.8; stroke-linecap: round"/>
     </g>
     <g id="line2d_20">
      <g>
       <use xlink:href="#m8ee94f9fa7" x="151.389583" y="130.329919" style="fill: #808080; stroke: #808080; stroke-width: 1.25"/>
      </g>
     </g>
    </g>
    <g id="ytick_12">
     <g id="line2d_21">
      <path d="M 151.389583 95.32191 
L 236.854792 95.32191 
" clip-path="url(#pb0d839ea00)" style="fill: none; stroke: #ffffff; stroke-opacity: 0.8; stroke-linecap: round"/>
     </g>
     <g id="line2d_22">
      <g>
       <use xlink:href="#m8ee94f9fa7" x="151.389583" y="95.32191" style="fill: #808080; stroke: #808080; stroke-width: 1.25"/>
      </g>
     </g>
    </g>
    <g id="ytick_13">
     <g id="line2d_23">
      <path d="M 151.389583 70.483333 
L 236.854792 70.483333 
" clip-path="url(#pb0d839ea00)" style="fill: none; stroke: #ffffff; stroke-opacity: 0.8; stroke-linecap: round"/>
     </g>
     <g id="line2d_24">
      <g>
       <use xlink:href="#m8ee94f9fa7" x="151.389583" y="70.483333" style="fill: #808080; stroke: #808080; stroke-width: 1.25"/>
      </g>
     </g>
    </g>
    <g id="ytick_14">
     <g id="line2d_25">
      <path d="M 151.389583 35.475324 
L 236.854792 35.475324 
" clip-path="url(#pb0d839ea00)" style="fill: none; stroke: #ffffff; stroke-opacity: 0.8; stroke-linecap: round"/>
     </g>
     <g id="line2d_26">
      <g>
       <use xlink:href="#m8ee94f9fa7" x="151.389583" y="35.475324" style="fill: #808080; stroke: #808080; stroke-width: 1.25"/>
      </g>
     </g>
    </g>
    <g id="ytick_15">
     <g id="line2d_27">
      <g>
       <use xlink:href="#m8dcef6ef0d" x="151.389583" y="161.125367" style="fill: #808080; stroke: #808080"/>
      </g>
     </g>
    </g>
    <g id="ytick_16">
     <g id="line2d_28">
      <g>
       <use xlink:href="#m8dcef6ef0d" x="151.389583" y="139.426785" style="fill: #808080; stroke: #808080"/>
      </g>
     </g>
    </g>
   </g>
   <g id="PathCollection_3">
    <path d="M 179.726425 139.008239 
C 180.256831 139.008239 180.765584 138.797506 181.140638 138.422452 
C 181.515692 138.047399 181.726425 137.538645 181.726425 137.008239 
C 181.726425 136.477833 181.515692 135.969079 181.140638 135.594025 
C 180.765584 135.218972 180.256831 135.008239 179.726425 135.008239 
C 179.196019 135.008239 178.687265 135.218972 178.312211 135.594025 
C 177.937157 135.969079 177.726425 136.477833 177.726425 137.008239 
C 177.726425 137.538645 177.937157 138.047399 178.312211 138.422452 
C 178.687265 138.797506 179.196019 139.008239 179.726425 139.008239 
z
" clip-path="url(#pb0d839ea00)" style="fill: #0173b2; fill-opacity: 0.2; stroke: #0173b2; stroke-opacity: 0.6; stroke-width: 0.75"/>
    <path d="M 178.190757 122.251195 
C 178.721163 122.251195 179.229916 122.040462 179.60497 121.665408 
C 179.980024 121.290354 180.190757 120.781601 180.190757 120.251195 
C 180.190757 119.720789 179.980024 119.212035 179.60497 118.836981 
C 179.229916 118.461927 178.721163 118.251195 178.190757 118.251195 
C 177.660351 118.251195 177.151597 118.461927 176.776543 118.836981 
C 176.401489 119.212035 176.190757 119.720789 176.190757 120.251195 
C 176.190757 120.781601 176.401489 121.290354 176.776543 121.665408 
C 177.151597 122.040462 177.660351 122.251195 178.190757 122.251195 
z
" clip-path="url(#pb0d839ea00)" style="fill: #0173b2; fill-opacity: 0.2; stroke: #0173b2; stroke-opacity: 0.6; stroke-width: 0.75"/>
    <path d="M 178.675738 137.811307 
C 179.206145 137.811307 179.714898 137.600575 180.089952 137.225521 
C 180.465006 136.850467 180.675738 136.341713 180.675738 135.811307 
C 180.675738 135.280901 180.465006 134.772147 180.089952 134.397094 
C 179.714898 134.02204 179.206145 133.811307 178.675738 133.811307 
C 178.145332 133.811307 177.636579 134.02204 177.261525 134.397094 
C 176.886471 134.772147 176.675738 135.280901 176.675738 135.811307 
C 176.675738 136.341713 176.886471 136.850467 177.261525 137.225521 
C 177.636579 137.600575 178.145332 137.811307 178.675738 137.811307 
z
" clip-path="url(#pb0d839ea00)" style="fill: #0173b2; fill-opacity: 0.2; stroke: #0173b2; stroke-opacity: 0.6; stroke-width: 0.75"/>
    <path d="M 179.343562 133.622046 
C 179.873968 133.622046 180.382722 133.411314 180.757775 133.03626 
C 181.132829 132.661206 181.343562 132.152452 181.343562 131.622046 
C 181.343562 131.09164 181.132829 130.582886 180.757775 130.207833 
C 180.382722 129.832779 179.873968 129.622046 179.343562 129.622046 
C 178.813156 129.622046 178.304402 129.832779 177.929348 130.207833 
C 177.554295 130.582886 177.343562 131.09164 177.343562 131.622046 
C 177.343562 132.152452 177.554295 132.661206 177.929348 133.03626 
C 178.304402 133.411314 178.813156 133.622046 179.343562 133.622046 
z
" clip-path="url(#pb0d839ea00)" style="fill: #0173b2; fill-opacity: 0.2; stroke: #0173b2; stroke-opacity: 0.6; stroke-width: 0.75"/>
    <path d="M 178.950049 130.031251 
C 179.480456 130.031251 179.989209 129.820518 180.364263 129.445465 
C 180.739317 129.070411 180.950049 128.561657 180.950049 128.031251 
C 180.950049 127.500845 180.739317 126.992091 180.364263 126.617037 
C 179.989209 126.241984 179.480456 126.031251 178.950049 126.031251 
C 178.419643 126.031251 177.91089 126.241984 177.535836 126.617037 
C 177.160782 126.992091 176.950049 127.500845 176.950049 128.031251 
C 176.950049 128.561657 177.160782 129.070411 177.535836 129.445465 
C 177.91089 129.820518 178.419643 130.031251 178.950049 130.031251 
z
" clip-path="url(#pb0d839ea00)" style="fill: #0173b2; fill-opacity: 0.2; stroke: #0173b2; stroke-opacity: 0.6; stroke-width: 0.75"/>
    <path d="M 178.33701 135.713959 
C 178.867416 135.713959 179.376169 135.503226 179.751223 135.128172 
C 180.126277 134.753119 180.33701 134.244365 180.33701 133.713959 
C 180.33701 133.183553 180.126277 132.674799 179.751223 132.299745 
C 179.376169 131.924692 178.867416 131.713959 178.33701 131.713959 
C 177.806603 131.713959 177.29785 131.924692 176.922796 132.299745 
C 176.547742 132.674799 176.33701 133.183553 176.33701 133.713959 
C 176.33701 134.244365 176.547742 134.753119 176.922796 135.128172 
C 177.29785 135.503226 177.806603 135.713959 178.33701 135.713959 
z
" clip-path="url(#pb0d839ea00)" style="fill: #0173b2; fill-opacity: 0.2; stroke: #0173b2; stroke-opacity: 0.6; stroke-width: 0.75"/>
    <path d="M 175.309499 126.138505 
C 175.839905 126.138505 176.348659 125.927772 176.723713 125.552719 
C 177.098767 125.177665 177.309499 124.668911 177.309499 124.138505 
C 177.309499 123.608099 177.098767 123.099345 176.723713 122.724292 
C 176.348659 122.349238 175.839905 122.138505 175.309499 122.138505 
C 174.779093 122.138505 174.270339 122.349238 173.895286 122.724292 
C 173.520232 123.099345 173.309499 123.608099 173.309499 124.138505 
C 173.309499 124.668911 173.520232 125.177665 173.895286 125.552719 
C 174.270339 125.927772 174.779093 126.138505 175.309499 126.138505 
z
" clip-path="url(#pb0d839ea00)" style="fill: #0173b2; fill-opacity: 0.2; stroke: #0173b2; stroke-opacity: 0.6; stroke-width: 0.75"/>
    <path d="M 177.878344 141.698618 
C 178.40875 141.698618 178.917504 141.487885 179.292558 141.112831 
C 179.667611 140.737777 179.878344 140.229024 179.878344 139.698618 
C 179.878344 139.168211 179.667611 138.659458 179.292558 138.284404 
C 178.917504 137.90935 178.40875 137.698618 177.878344 137.698618 
C 177.347938 137.698618 176.839184 137.90935 176.46413 138.284404 
C 176.089077 138.659458 175.878344 139.168211 175.878344 139.698618 
C 175.878344 140.229024 176.089077 140.737777 176.46413 141.112831 
C 176.839184 141.487885 177.347938 141.698618 177.878344 141.698618 
z
" clip-path="url(#pb0d839ea00)" style="fill: #0173b2; fill-opacity: 0.2; stroke: #0173b2; stroke-opacity: 0.6; stroke-width: 0.75"/>
    <path d="M 177.733211 126.736971 
C 178.263618 126.736971 178.772371 126.526238 179.147425 126.151185 
C 179.522479 125.776131 179.733211 125.267377 179.733211 124.736971 
C 179.733211 124.206565 179.522479 123.697811 179.147425 123.322757 
C 178.772371 122.947704 178.263618 122.736971 177.733211 122.736971 
C 177.202805 122.736971 176.694052 122.947704 176.318998 123.322757 
C 175.943944 123.697811 175.733211 124.206565 175.733211 124.736971 
C 175.733211 125.267377 175.943944 125.776131 176.318998 126.151185 
C 176.694052 126.526238 177.202805 126.736971 177.733211 126.736971 
z
" clip-path="url(#pb0d839ea00)" style="fill: #0173b2; fill-opacity: 0.2; stroke: #0173b2; stroke-opacity: 0.6; stroke-width: 0.75"/>
    <path d="M 179.643887 130.817986 
C 180.174293 130.817986 180.683047 130.607253 181.058101 130.2322 
C 181.433155 129.857146 181.643887 129.348392 181.643887 128.817986 
C 181.643887 128.28758 181.433155 127.778826 181.058101 127.403773 
C 180.683047 127.028719 180.174293 126.817986 179.643887 126.817986 
C 179.113481 126.817986 178.604727 127.028719 178.229674 127.403773 
C 177.85462 127.778826 177.643887 128.28758 177.643887 128.817986 
C 177.643887 129.348392 177.85462 129.857146 178.229674 130.2322 
C 178.604727 130.607253 179.113481 130.817986 179.643887 130.817986 
z
" clip-path="url(#pb0d839ea00)" style="fill: #0173b2; fill-opacity: 0.2; stroke: #0173b2; stroke-opacity: 0.6; stroke-width: 0.75"/>
    <path d="M 179.129848 133.521197 
C 179.660254 133.521197 180.169007 133.310464 180.544061 132.93541 
C 180.919115 132.560356 181.129848 132.051603 181.129848 131.521197 
C 181.129848 130.99079 180.919115 130.482037 180.544061 130.106983 
C 180.169007 129.731929 179.660254 129.521197 179.129848 129.521197 
C 178.599441 129.521197 178.090688 129.731929 177.715634 130.106983 
C 177.34058 130.482037 177.129848 130.99079 177.129848 131.521197 
C 177.129848 132.051603 177.34058 132.560356 177.715634 132.93541 
C 178.090688 133.310464 178.599441 133.521197 179.129848 133.521197 
z
" clip-path="url(#pb0d839ea00)" style="fill: #0173b2; fill-opacity: 0.2; stroke: #0173b2; stroke-opacity: 0.6; stroke-width: 0.75"/>
    <path d="M 174.740746 136.689355 
C 175.271152 136.689355 175.779905 136.478622 176.154959 136.103569 
C 176.530013 135.728515 176.740746 135.219761 176.740746 134.689355 
C 176.740746 134.158949 176.530013 133.650195 176.154959 133.275142 
C 175.779905 132.900088 175.271152 132.689355 174.740746 132.689355 
C 174.210339 132.689355 173.701586 132.900088 173.326532 133.275142 
C 172.951478 133.650195 172.740746 134.158949 172.740746 134.689355 
C 172.740746 135.219761 172.951478 135.728515 173.326532 136.103569 
C 173.701586 136.478622 174.210339 136.689355 174.740746 136.689355 
z
" clip-path="url(#pb0d839ea00)" style="fill: #0173b2; fill-opacity: 0.2; stroke: #0173b2; stroke-opacity: 0.6; stroke-width: 0.75"/>
    <path d="M 178.923512 128.506771 
C 179.453918 128.506771 179.962672 128.296038 180.337726 127.920984 
C 180.712779 127.54593 180.923512 127.037177 180.923512 126.506771 
C 180.923512 125.976365 180.712779 125.467611 180.337726 125.092557 
C 179.962672 124.717503 179.453918 124.506771 178.923512 124.506771 
C 178.393106 124.506771 177.884352 124.717503 177.509298 125.092557 
C 177.134245 125.467611 176.923512 125.976365 176.923512 126.506771 
C 176.923512 127.037177 177.134245 127.54593 177.509298 127.920984 
C 177.884352 128.296038 178.393106 128.506771 178.923512 128.506771 
z
" clip-path="url(#pb0d839ea00)" style="fill: #0173b2; fill-opacity: 0.2; stroke: #0173b2; stroke-opacity: 0.6; stroke-width: 0.75"/>
    <path d="M 221.664924 53.018416 
L 219.664924 57.018416 
L 223.664924 57.018416 
z
" clip-path="url(#pb0d839ea00)" style="fill: #de8f05; fill-opacity: 0.2; stroke: #de8f05; stroke-opacity: 0.6; stroke-width: 0.75"/>
    <path d="M 218.442277 53.616882 
L 216.442277 57.616882 
L 220.442277 57.616882 
z
" clip-path="url(#pb0d839ea00)" style="fill: #de8f05; fill-opacity: 0.2; stroke: #de8f05; stroke-opacity: 0.6; stroke-width: 0.75"/>
    <path d="M 221.998754 39.852167 
L 219.998754 43.852167 
L 223.998754 43.852167 
z
" clip-path="url(#pb0d839ea00)" style="fill: #de8f05; fill-opacity: 0.2; stroke: #de8f05; stroke-opacity: 0.6; stroke-width: 0.75"/>
    <path d="M 219.961518 47.033757 
L 217.961518 51.033757 
L 221.961518 51.033757 
z
" clip-path="url(#pb0d839ea00)" style="fill: #de8f05; fill-opacity: 0.2; stroke: #de8f05; stroke-opacity: 0.6; stroke-width: 0.75"/>
    <path d="M 217.322049 50.624552 
L 215.322049 54.624552 
L 219.322049 54.624552 
z
" clip-path="url(#pb0d839ea00)" style="fill: #de8f05; fill-opacity: 0.2; stroke: #de8f05; stroke-opacity: 0.6; stroke-width: 0.75"/>
    <path d="M 223.098859 88.624417 
L 221.098859 92.624417 
L 225.098859 92.624417 
z
" clip-path="url(#pb0d839ea00)" style="fill: #de8f05; fill-opacity: 0.2; stroke: #de8f05; stroke-opacity: 0.6; stroke-width: 0.75"/>
    <path d="M 217.28512 83.83669 
L 215.28512 87.83669 
L 219.28512 87.83669 
z
" clip-path="url(#pb0d839ea00)" style="fill: #de8f05; fill-opacity: 0.2; stroke: #de8f05; stroke-opacity: 0.6; stroke-width: 0.75"/>
    <path d="M 221.297343 76.056634 
L 219.297343 80.056634 
L 223.297343 80.056634 
z
" clip-path="url(#pb0d839ea00)" style="fill: #de8f05; fill-opacity: 0.2; stroke: #de8f05; stroke-opacity: 0.6; stroke-width: 0.75"/>
    <path d="M 219.057641 38.563602 
L 217.057641 42.563602 
L 221.057641 42.563602 
z
" clip-path="url(#pb0d839ea00)" style="fill: #de8f05; fill-opacity: 0.2; stroke: #de8f05; stroke-opacity: 0.6; stroke-width: 0.75"/>
    <path d="M 219.699194 38.535893 
L 217.699194 42.535893 
L 221.699194 42.535893 
z
" clip-path="url(#pb0d839ea00)" style="fill: #de8f05; fill-opacity: 0.2; stroke: #de8f05; stroke-opacity: 0.6; stroke-width: 0.75"/>
    <path d="M 217.701084 51.685444 
L 215.701084 55.685444 
L 219.701084 55.685444 
z
" clip-path="url(#pb0d839ea00)" style="fill: #de8f05; fill-opacity: 0.2; stroke: #de8f05; stroke-opacity: 0.6; stroke-width: 0.75"/>
    <path d="M 221.689616 49.395415 
L 219.689616 53.395415 
L 223.689616 53.395415 
z
" clip-path="url(#pb0d839ea00)" style="fill: #de8f05; fill-opacity: 0.2; stroke: #de8f05; stroke-opacity: 0.6; stroke-width: 0.75"/>
    <path d="M 218.216684 42.907626 
L 216.216684 46.907626 
L 220.216684 46.907626 
z
" clip-path="url(#pb0d839ea00)" style="fill: #de8f05; fill-opacity: 0.2; stroke: #de8f05; stroke-opacity: 0.6; stroke-width: 0.75"/>
   </g>
   <g id="PathCollection_4">
    <path d="M 168.482625 133.503646 
C 169.278234 133.503646 170.041365 133.187547 170.603945 132.624966 
C 171.166526 132.062386 171.482625 131.299255 171.482625 130.503646 
C 171.482625 129.708037 171.166526 128.944906 170.603945 128.382326 
C 170.041365 127.819745 169.278234 127.503646 168.482625 127.503646 
C 167.687016 127.503646 166.923885 127.819745 166.361305 128.382326 
C 165.798724 128.944906 165.482625 129.708037 165.482625 130.503646 
C 165.482625 131.299255 165.798724 132.062386 166.361305 132.624966 
C 166.923885 133.187547 167.687016 133.503646 168.482625 133.503646 
z
" clip-path="url(#pb0d839ea00)" style="fill: #0173b2; stroke: #0173b2; stroke-width: 0.5"/>
    <path d="M 211.215229 53.903961 
L 208.215229 59.903961 
L 214.215229 59.903961 
z
" clip-path="url(#pb0d839ea00)" style="fill: #de8f05; stroke: #de8f05; stroke-width: 0.5"/>
   </g>
   <g id="LineCollection_2">
    <path d="M 168.482625 136.196862 
L 168.482625 124.81043 
" clip-path="url(#pb0d839ea00)" style="fill: none; stroke: #0173b2; stroke-width: 1.5; stroke-linecap: round"/>
    <path d="M 211.215229 73.867562 
L 211.215229 39.94036 
" clip-path="url(#pb0d839ea00)" style="fill: none; stroke: #de8f05; stroke-width: 1.5; stroke-linecap: round"/>
   </g>
   <g id="patch_8">
    <path d="M 151.389583 177.720156 
L 151.389583 21.789375 
" style="fill: none; stroke: #ffffff; stroke-width: 1.25; stroke-linejoin: miter; stroke-linecap: square"/>
   </g>
   <g id="patch_9">
    <path d="M 236.854792 177.720156 
L 236.854792 21.789375 
" style="fill: none; stroke: #ffffff; stroke-width: 1.25; stroke-linejoin: miter; stroke-linecap: square"/>
   </g>
   <g id="patch_10">
    <path d="M 151.389583 177.720156 
L 236.854792 177.720156 
" style="fill: none; stroke: #ffffff; stroke-width: 1.25; stroke-linejoin: miter; stroke-linecap: square"/>
   </g>
   <g id="patch_11">
    <path d="M 151.389583 21.789375 
L 236.854792 21.789375 
" style="fill: none; stroke: #ffffff; stroke-width: 1.25; stroke-linejoin: miter; stroke-linecap: square"/>
   </g>
   <g id="text_13">
    <text style="fill: #262626; font: 12px 'Arial', 'DejaVu Sans', 'Liberation Sans', 'Bitstream Vera Sans', sans-serif; text-anchor: middle" x="194.122187" y="15.789375" transform="rotate(-0 194.122187 15.789375)">18</text>
   </g>
  </g>
  <g id="axes_3">
   <g id="patch_12">
    <path d="M 255.814792 177.720156 
L 341.28 177.720156 
L 341.28 21.789375 
L 255.814792 21.789375 
z
" style="fill: #eaeaf2"/>
   </g>
   <g id="matplotlib.axis_5">
    <g id="xtick_5">
     <g id="text_14">
      <text style="fill: #262626; font: 11px 'Arial', 'DejaVu Sans', 'Liberation Sans', 'Bitstream Vera Sans', sans-serif; text-anchor: middle" x="270.058993" y="195.09375" transform="rotate(-0 270.058993 195.09375)">FeS</text>
     </g>
    </g>
    <g id="xtick_6">
     <g id="text_15">
      <text style="fill: #262626; font: 11px 'Arial', 'DejaVu Sans', 'Liberation Sans', 'Bitstream Vera Sans', sans-serif; text-anchor: middle" x="298.547396" y="195.09375" transform="rotate(-0 298.547396 195.09375)">FeD</text>
     </g>
    </g>
    <g id="xtick_7">
     <g id="text_16">
      <text style="fill: #262626; font: 11px 'Arial', 'DejaVu Sans', 'Liberation Sans', 'Bitstream Vera Sans', sans-serif; text-anchor: middle" x="327.035799" y="195.09375" transform="rotate(-0 327.035799 195.09375)">FeR</text>
     </g>
    </g>
   </g>
   <g id="matplotlib.axis_6">
    <g id="ytick_17">
     <g id="line2d_29">
      <path d="M 255.814792 174.434794 
L 341.28 174.434794 
" clip-path="url(#p3639040a55)" style="fill: none; stroke: #ffffff; stroke-opacity: 0.8; stroke-linecap: round"/>
     </g>
     <g id="line2d_30">
      <g>
       <use xlink:href="#m8ee94f9fa7" x="255.814792" y="174.434794" style="fill: #808080; stroke: #808080; stroke-width: 1.25"/>
      </g>
     </g>
    </g>
    <g id="ytick_18">
     <g id="line2d_31">
      <path d="M 255.814792 149.596217 
L 341.28 149.596217 
" clip-path="url(#p3639040a55)" style="fill: none; stroke: #ffffff; stroke-opacity: 0.8; stroke-linecap: round"/>
     </g>
     <g id="line2d_32">
      <g>
       <use xlink:href="#m8ee94f9fa7" x="255.814792" y="149.596217" style="fill: #808080; stroke: #808080; stroke-width: 1.25"/>
      </g>
     </g>
    </g>
    <g id="ytick_19">
     <g id="line2d_33">
      <path d="M 255.814792 130.329919 
L 341.28 130.329919 
" clip-path="url(#p3639040a55)" style="fill: none; stroke: #ffffff; stroke-opacity: 0.8; stroke-linecap: round"/>
     </g>
     <g id="line2d_34">
      <g>
       <use xlink:href="#m8ee94f9fa7" x="255.814792" y="130.329919" style="fill: #808080; stroke: #808080; stroke-width: 1.25"/>
      </g>
     </g>
    </g>
    <g id="ytick_20">
     <g id="line2d_35">
      <path d="M 255.814792 95.32191 
L 341.28 95.32191 
" clip-path="url(#p3639040a55)" style="fill: none; stroke: #ffffff; stroke-opacity: 0.8; stroke-linecap: round"/>
     </g>
     <g id="line2d_36">
      <g>
       <use xlink:href="#m8ee94f9fa7" x="255.814792" y="95.32191" style="fill: #808080; stroke: #808080; stroke-width: 1.25"/>
      </g>
     </g>
    </g>
    <g id="ytick_21">
     <g id="line2d_37">
      <path d="M 255.814792 70.483333 
L 341.28 70.483333 
" clip-path="url(#p3639040a55)" style="fill: none; stroke: #ffffff; stroke-opacity: 0.8; stroke-linecap: round"/>
     </g>
     <g id="line2d_38">
      <g>
       <use xlink:href="#m8ee94f9fa7" x="255.814792" y="70.483333" style="fill: #808080; stroke: #808080; stroke-width: 1.25"/>
      </g>
     </g>
    </g>
    <g id="ytick_22">
     <g id="line2d_39">
      <path d="M 255.814792 35.475324 
L 341.28 35.475324 
" clip-path="url(#p3639040a55)" style="fill: none; stroke: #ffffff; stroke-opacity: 0.8; stroke-linecap: round"/>
     </g>
     <g id="line2d_40">
      <g>
       <use xlink:href="#m8ee94f9fa7" x="255.814792" y="35.475324" style="fill: #808080; stroke: #808080; stroke-width: 1.25"/>
      </g>
     </g>
    </g>
    <g id="ytick_23">
     <g id="line2d_41">
      <g>
       <use xlink:href="#m8dcef6ef0d" x="255.814792" y="161.125367" style="fill: #808080; stroke: #808080"/>
      </g>
     </g>
    </g>
    <g id="ytick_24">
     <g id="line2d_42">
      <g>
       <use xlink:href="#m8dcef6ef0d" x="255.814792" y="139.426785" style="fill: #808080; stroke: #808080"/>
      </g>
     </g>
    </g>
   </g>
   <g id="PathCollection_5">
    <path d="M 273.672776 135.370624 
C 274.203183 135.370624 274.711936 135.159892 275.08699 134.784838 
C 275.462044 134.409784 275.672776 133.901031 275.672776 133.370624 
C 275.672776 132.840218 275.462044 132.331465 275.08699 131.956411 
C 274.711936 131.581357 274.203183 131.370624 273.672776 131.370624 
C 273.14237 131.370624 272.633617 131.581357 272.258563 131.956411 
C 271.883509 132.331465 271.672776 132.840218 271.672776 133.370624 
C 271.672776 133.901031 271.883509 134.409784 272.258563 134.784838 
C 272.633617 135.159892 273.14237 135.370624 273.672776 135.370624 
z
" clip-path="url(#p3639040a55)" style="fill: #0173b2; fill-opacity: 0.2; stroke: #0173b2; stroke-opacity: 0.6; stroke-width: 0.75"/>
    <path d="M 272.727775 118.869086 
C 273.258182 118.869086 273.766935 118.658353 274.141989 118.2833 
C 274.517043 117.908246 274.727775 117.399492 274.727775 116.869086 
C 274.727775 116.33868 274.517043 115.829926 274.141989 115.454872 
C 273.766935 115.079819 273.258182 114.869086 272.727775 114.869086 
C 272.197369 114.869086 271.688616 115.079819 271.313562 115.454872 
C 270.938508 115.829926 270.727775 116.33868 270.727775 116.869086 
C 270.727775 117.399492 270.938508 117.908246 271.313562 118.2833 
C 271.688616 118.658353 272.197369 118.869086 272.727775 118.869086 
z
" clip-path="url(#p3639040a55)" style="fill: #0173b2; fill-opacity: 0.2; stroke: #0173b2; stroke-opacity: 0.6; stroke-width: 0.75"/>
    <path d="M 270.827873 135.218177 
C 271.358279 135.218177 271.867033 135.007444 272.242086 134.63239 
C 272.61714 134.257336 272.827873 133.748583 272.827873 133.218177 
C 272.827873 132.68777 272.61714 132.179017 272.242086 131.803963 
C 271.867033 131.428909 271.358279 131.218177 270.827873 131.218177 
C 270.297467 131.218177 269.788713 131.428909 269.413659 131.803963 
C 269.038605 132.179017 268.827873 132.68777 268.827873 133.218177 
C 268.827873 133.748583 269.038605 134.257336 269.413659 134.63239 
C 269.788713 135.007444 270.297467 135.218177 270.827873 135.218177 
z
" clip-path="url(#p3639040a55)" style="fill: #0173b2; fill-opacity: 0.2; stroke: #0173b2; stroke-opacity: 0.6; stroke-width: 0.75"/>
    <path d="M 274.436075 141.543033 
C 274.966481 141.543033 275.475235 141.332301 275.850288 140.957247 
C 276.225342 140.582193 276.436075 140.07344 276.436075 139.543033 
C 276.436075 139.012627 276.225342 138.503874 275.850288 138.12882 
C 275.475235 137.753766 274.966481 137.543033 274.436075 137.543033 
C 273.905669 137.543033 273.396915 137.753766 273.021861 138.12882 
C 272.646807 138.503874 272.436075 139.012627 272.436075 139.543033 
C 272.436075 140.07344 272.646807 140.582193 273.021861 140.957247 
C 273.396915 141.332301 273.905669 141.543033 274.436075 141.543033 
z
" clip-path="url(#p3639040a55)" style="fill: #0173b2; fill-opacity: 0.2; stroke: #0173b2; stroke-opacity: 0.6; stroke-width: 0.75"/>
    <path d="M 271.587314 135.223703 
C 272.117721 135.223703 272.626474 135.01297 273.001528 134.637916 
C 273.376582 134.262862 273.587314 133.754109 273.587314 133.223703 
C 273.587314 132.693297 273.376582 132.184543 273.001528 131.809489 
C 272.626474 131.434435 272.117721 131.223703 271.587314 131.223703 
C 271.056908 131.223703 270.548155 131.434435 270.173101 131.809489 
C 269.798047 132.184543 269.587314 132.693297 269.587314 133.223703 
C 269.587314 133.754109 269.798047 134.262862 270.173101 134.637916 
C 270.548155 135.01297 271.056908 135.223703 271.587314 135.223703 
z
" clip-path="url(#p3639040a55)" style="fill: #0173b2; fill-opacity: 0.2; stroke: #0173b2; stroke-opacity: 0.6; stroke-width: 0.75"/>
    <path d="M 272.648612 137.890836 
C 273.179018 137.890836 273.687772 137.680104 274.062826 137.30505 
C 274.43788 136.929996 274.648612 136.421243 274.648612 135.890836 
C 274.648612 135.36043 274.43788 134.851677 274.062826 134.476623 
C 273.687772 134.101569 273.179018 133.890836 272.648612 133.890836 
C 272.118206 133.890836 271.609452 134.101569 271.234399 134.476623 
C 270.859345 134.851677 270.648612 135.36043 270.648612 135.890836 
C 270.648612 136.421243 270.859345 136.929996 271.234399 137.30505 
C 271.609452 137.680104 272.118206 137.890836 272.648612 137.890836 
z
" clip-path="url(#p3639040a55)" style="fill: #0173b2; fill-opacity: 0.2; stroke: #0173b2; stroke-opacity: 0.6; stroke-width: 0.75"/>
    <path d="M 271.275024 124.467572 
C 271.80543 124.467572 272.314184 124.25684 272.689238 123.881786 
C 273.064292 123.506732 273.275024 122.997978 273.275024 122.467572 
C 273.275024 121.937166 273.064292 121.428412 272.689238 121.053359 
C 272.314184 120.678305 271.80543 120.467572 271.275024 120.467572 
C 270.744618 120.467572 270.235865 120.678305 269.860811 121.053359 
C 269.485757 121.428412 269.275024 121.937166 269.275024 122.467572 
C 269.275024 122.997978 269.485757 123.506732 269.860811 123.881786 
C 270.235865 124.25684 270.744618 124.467572 271.275024 124.467572 
z
" clip-path="url(#p3639040a55)" style="fill: #0173b2; fill-opacity: 0.2; stroke: #0173b2; stroke-opacity: 0.6; stroke-width: 0.75"/>
    <path d="M 273.454227 115.747675 
C 273.984633 115.747675 274.493387 115.536942 274.868441 115.161888 
C 275.243494 114.786834 275.454227 114.278081 275.454227 113.747675 
C 275.454227 113.217268 275.243494 112.708515 274.868441 112.333461 
C 274.493387 111.958407 273.984633 111.747675 273.454227 111.747675 
C 272.923821 111.747675 272.415067 111.958407 272.040013 112.333461 
C 271.66496 112.708515 271.454227 113.217268 271.454227 113.747675 
C 271.454227 114.278081 271.66496 114.786834 272.040013 115.161888 
C 272.415067 115.536942 272.923821 115.747675 273.454227 115.747675 
z
" clip-path="url(#p3639040a55)" style="fill: #0173b2; fill-opacity: 0.2; stroke: #0173b2; stroke-opacity: 0.6; stroke-width: 0.75"/>
    <path d="M 271.605399 103.918877 
C 272.135806 103.918877 272.644559 103.708144 273.019613 103.333091 
C 273.394667 102.958037 273.605399 102.449283 273.605399 101.918877 
C 273.605399 101.388471 273.394667 100.879717 273.019613 100.504663 
C 272.644559 100.12961 272.135806 99.918877 271.605399 99.918877 
C 271.074993 99.918877 270.56624 100.12961 270.191186 100.504663 
C 269.816132 100.879717 269.605399 101.388471 269.605399 101.918877 
C 269.605399 102.449283 269.816132 102.958037 270.191186 103.333091 
C 270.56624 103.708144 271.074993 103.918877 271.605399 103.918877 
z
" clip-path="url(#p3639040a55)" style="fill: #0173b2; fill-opacity: 0.2; stroke: #0173b2; stroke-opacity: 0.6; stroke-width: 0.75"/>
    <path d="M 270.885041 172.632393 
C 271.415447 172.632393 271.924201 172.421661 272.299254 172.046607 
C 272.674308 171.671553 272.885041 171.1628 272.885041 170.632393 
C 272.885041 170.101987 272.674308 169.593234 272.299254 169.21818 
C 271.924201 168.843126 271.415447 168.632393 270.885041 168.632393 
C 270.354635 168.632393 269.845881 168.843126 269.470827 169.21818 
C 269.095773 169.593234 268.885041 170.101987 268.885041 170.632393 
C 268.885041 171.1628 269.095773 171.671553 269.470827 172.046607 
C 269.845881 172.421661 270.354635 172.632393 270.885041 172.632393 
z
" clip-path="url(#p3639040a55)" style="fill: #0173b2; fill-opacity: 0.2; stroke: #0173b2; stroke-opacity: 0.6; stroke-width: 0.75"/>
    <path d="M 271.794034 154.718455 
C 272.324441 154.718455 272.833194 154.507722 273.208248 154.132668 
C 273.583302 153.757615 273.794034 153.248861 273.794034 152.718455 
C 273.794034 152.188049 273.583302 151.679295 273.208248 151.304241 
C 272.833194 150.929188 272.324441 150.718455 271.794034 150.718455 
C 271.263628 150.718455 270.754875 150.929188 270.379821 151.304241 
C 270.004767 151.679295 269.794034 152.188049 269.794034 152.718455 
C 269.794034 153.248861 270.004767 153.757615 270.379821 154.132668 
C 270.754875 154.507722 271.263628 154.718455 271.794034 154.718455 
z
" clip-path="url(#p3639040a55)" style="fill: #0173b2; fill-opacity: 0.2; stroke: #0173b2; stroke-opacity: 0.6; stroke-width: 0.75"/>
    <path d="M 274.130905 130.381329 
C 274.661311 130.381329 275.170064 130.170597 275.545118 129.795543 
C 275.920172 129.420489 276.130905 128.911736 276.130905 128.381329 
C 276.130905 127.850923 275.920172 127.34217 275.545118 126.967116 
C 275.170064 126.592062 274.661311 126.381329 274.130905 126.381329 
C 273.600498 126.381329 273.091745 126.592062 272.716691 126.967116 
C 272.341637 127.34217 272.130905 127.850923 272.130905 128.381329 
C 272.130905 128.911736 272.341637 129.420489 272.716691 129.795543 
C 273.091745 130.170597 273.600498 130.381329 274.130905 130.381329 
z
" clip-path="url(#p3639040a55)" style="fill: #0173b2; fill-opacity: 0.2; stroke: #0173b2; stroke-opacity: 0.6; stroke-width: 0.75"/>
    <path d="M 271.909109 134.218739 
C 272.439515 134.218739 272.948268 134.008007 273.323322 133.632953 
C 273.698376 133.257899 273.909109 132.749146 273.909109 132.218739 
C 273.909109 131.688333 273.698376 131.17958 273.323322 130.804526 
C 272.948268 130.429472 272.439515 130.218739 271.909109 130.218739 
C 271.378702 130.218739 270.869949 130.429472 270.494895 130.804526 
C 270.119841 131.17958 269.909109 131.688333 269.909109 132.218739 
C 269.909109 132.749146 270.119841 133.257899 270.494895 133.632953 
C 270.869949 134.008007 271.378702 134.218739 271.909109 134.218739 
z
" clip-path="url(#p3639040a55)" style="fill: #0173b2; fill-opacity: 0.2; stroke: #0173b2; stroke-opacity: 0.6; stroke-width: 0.75"/>
    <path d="M 274.149487 132.432415 
C 274.679894 132.432415 275.188647 132.221682 275.563701 131.846629 
C 275.938755 131.471575 276.149487 130.962821 276.149487 130.432415 
C 276.149487 129.902009 275.938755 129.393255 275.563701 129.018201 
C 275.188647 128.643148 274.679894 128.432415 274.149487 128.432415 
C 273.619081 128.432415 273.110328 128.643148 272.735274 129.018201 
C 272.36022 129.393255 272.149487 129.902009 272.149487 130.432415 
C 272.149487 130.962821 272.36022 131.471575 272.735274 131.846629 
C 273.110328 132.221682 273.619081 132.432415 274.149487 132.432415 
z
" clip-path="url(#p3639040a55)" style="fill: #0173b2; fill-opacity: 0.2; stroke: #0173b2; stroke-opacity: 0.6; stroke-width: 0.75"/>
    <path d="M 270.660407 156.633098 
C 271.190814 156.633098 271.699567 156.422365 272.074621 156.047312 
C 272.449675 155.672258 272.660407 155.163504 272.660407 154.633098 
C 272.660407 154.102692 272.449675 153.593938 272.074621 153.218884 
C 271.699567 152.843831 271.190814 152.633098 270.660407 152.633098 
C 270.130001 152.633098 269.621248 152.843831 269.246194 153.218884 
C 268.87114 153.593938 268.660407 154.102692 268.660407 154.633098 
C 268.660407 155.163504 268.87114 155.672258 269.246194 156.047312 
C 269.621248 156.422365 270.130001 156.633098 270.660407 156.633098 
z
" clip-path="url(#p3639040a55)" style="fill: #0173b2; fill-opacity: 0.2; stroke: #0173b2; stroke-opacity: 0.6; stroke-width: 0.75"/>
    <path d="M 273.6455 98.142431 
C 274.175906 98.142431 274.68466 97.931698 275.059714 97.556644 
C 275.434768 97.181591 275.6455 96.672837 275.6455 96.142431 
C 275.6455 95.612025 275.434768 95.103271 275.059714 94.728217 
C 274.68466 94.353164 274.175906 94.142431 273.6455 94.142431 
C 273.115094 94.142431 272.606341 94.353164 272.231287 94.728217 
C 271.856233 95.103271 271.6455 95.612025 271.6455 96.142431 
C 271.6455 96.672837 271.856233 97.181591 272.231287 97.556644 
C 272.606341 97.931698 273.115094 98.142431 273.6455 98.142431 
z
" clip-path="url(#p3639040a55)" style="fill: #0173b2; fill-opacity: 0.2; stroke: #0173b2; stroke-opacity: 0.6; stroke-width: 0.75"/>
    <path d="M 271.088285 156.079192 
C 271.618691 156.079192 272.127444 155.868459 272.502498 155.493405 
C 272.877552 155.118351 273.088285 154.609598 273.088285 154.079192 
C 273.088285 153.548785 272.877552 153.040032 272.502498 152.664978 
C 272.127444 152.289924 271.618691 152.079192 271.088285 152.079192 
C 270.557879 152.079192 270.049125 152.289924 269.674071 152.664978 
C 269.299017 153.040032 269.088285 153.548785 269.088285 154.079192 
C 269.088285 154.609598 269.299017 155.118351 269.674071 155.493405 
C 270.049125 155.868459 270.557879 156.079192 271.088285 156.079192 
z
" clip-path="url(#p3639040a55)" style="fill: #0173b2; fill-opacity: 0.2; stroke: #0173b2; stroke-opacity: 0.6; stroke-width: 0.75"/>
    <path d="M 271.768813 131.182105 
C 272.299219 131.182105 272.807973 130.971372 273.183027 130.596318 
C 273.558081 130.221264 273.768813 129.712511 273.768813 129.182105 
C 273.768813 128.651698 273.558081 128.142945 273.183027 127.767891 
C 272.807973 127.392837 272.299219 127.182105 271.768813 127.182105 
C 271.238407 127.182105 270.729653 127.392837 270.3546 127.767891 
C 269.979546 128.142945 269.768813 128.651698 269.768813 129.182105 
C 269.768813 129.712511 269.979546 130.221264 270.3546 130.596318 
C 270.729653 130.971372 271.238407 131.182105 271.768813 131.182105 
z
" clip-path="url(#p3639040a55)" style="fill: #0173b2; fill-opacity: 0.2; stroke: #0173b2; stroke-opacity: 0.6; stroke-width: 0.75"/>
    <path d="M 273.622826 131.408328 
C 274.153232 131.408328 274.661986 131.197595 275.03704 130.822541 
C 275.412093 130.447488 275.622826 129.938734 275.622826 129.408328 
C 275.622826 128.877922 275.412093 128.369168 275.03704 127.994114 
C 274.661986 127.619061 274.153232 127.408328 273.622826 127.408328 
C 273.09242 127.408328 272.583666 127.619061 272.208612 127.994114 
C 271.833559 128.369168 271.622826 128.877922 271.622826 129.408328 
C 271.622826 129.938734 271.833559 130.447488 272.208612 130.822541 
C 272.583666 131.197595 273.09242 131.408328 273.622826 131.408328 
z
" clip-path="url(#p3639040a55)" style="fill: #0173b2; fill-opacity: 0.2; stroke: #0173b2; stroke-opacity: 0.6; stroke-width: 0.75"/>
    <path d="M 270.87334 134.437438 
C 271.403746 134.437438 271.912499 134.226706 272.287553 133.851652 
C 272.662607 133.476598 272.87334 132.967845 272.87334 132.437438 
C 272.87334 131.907032 272.662607 131.398279 272.287553 131.023225 
C 271.912499 130.648171 271.403746 130.437438 270.87334 130.437438 
C 270.342933 130.437438 269.83418 130.648171 269.459126 131.023225 
C 269.084072 131.398279 268.87334 131.907032 268.87334 132.437438 
C 268.87334 132.967845 269.084072 133.476598 269.459126 133.851652 
C 269.83418 134.226706 270.342933 134.437438 270.87334 134.437438 
z
" clip-path="url(#p3639040a55)" style="fill: #0173b2; fill-opacity: 0.2; stroke: #0173b2; stroke-opacity: 0.6; stroke-width: 0.75"/>
    <path d="M 301.034477 28.246032 
L 299.034477 32.246032 
L 303.034477 32.246032 
z
" clip-path="url(#p3639040a55)" style="fill: #de8f05; fill-opacity: 0.2; stroke: #de8f05; stroke-opacity: 0.6; stroke-width: 0.75"/>
    <path d="M 300.425829 31.533268 
L 298.425829 35.533268 
L 302.425829 35.533268 
z
" clip-path="url(#p3639040a55)" style="fill: #de8f05; fill-opacity: 0.2; stroke: #de8f05; stroke-opacity: 0.6; stroke-width: 0.75"/>
    <path d="M 302.111181 26.877138 
L 300.111181 30.877138 
L 304.111181 30.877138 
z
" clip-path="url(#p3639040a55)" style="fill: #de8f05; fill-opacity: 0.2; stroke: #de8f05; stroke-opacity: 0.6; stroke-width: 0.75"/>
    <path d="M 300.212328 33.430107 
L 298.212328 37.430107 
L 302.212328 37.430107 
z
" clip-path="url(#p3639040a55)" style="fill: #de8f05; fill-opacity: 0.2; stroke: #de8f05; stroke-opacity: 0.6; stroke-width: 0.75"/>
    <path d="M 302.1616 100.871216 
L 300.1616 104.871216 
L 304.1616 104.871216 
z
" clip-path="url(#p3639040a55)" style="fill: #de8f05; fill-opacity: 0.2; stroke: #de8f05; stroke-opacity: 0.6; stroke-width: 0.75"/>
    <path d="M 299.747489 65.309536 
L 297.747489 69.309536 
L 301.747489 69.309536 
z
" clip-path="url(#p3639040a55)" style="fill: #de8f05; fill-opacity: 0.2; stroke: #de8f05; stroke-opacity: 0.6; stroke-width: 0.75"/>
    <path d="M 301.868002 117.629277 
L 299.868002 121.629277 
L 303.868002 121.629277 
z
" clip-path="url(#p3639040a55)" style="fill: #de8f05; fill-opacity: 0.2; stroke: #de8f05; stroke-opacity: 0.6; stroke-width: 0.75"/>
    <path d="M 299.318252 100.943032 
L 297.318252 104.943032 
L 301.318252 104.943032 
z
" clip-path="url(#p3639040a55)" style="fill: #de8f05; fill-opacity: 0.2; stroke: #de8f05; stroke-opacity: 0.6; stroke-width: 0.75"/>
    <path d="M 300.061887 109.680438 
L 298.061887 113.680438 
L 302.061887 113.680438 
z
" clip-path="url(#p3639040a55)" style="fill: #de8f05; fill-opacity: 0.2; stroke: #de8f05; stroke-opacity: 0.6; stroke-width: 0.75"/>
    <path d="M 302.151706 97.037902 
L 300.151706 101.037902 
L 304.151706 101.037902 
z
" clip-path="url(#p3639040a55)" style="fill: #de8f05; fill-opacity: 0.2; stroke: #de8f05; stroke-opacity: 0.6; stroke-width: 0.75"/>
    <path d="M 301.015529 98.873605 
L 299.015529 102.873605 
L 303.015529 102.873605 
z
" clip-path="url(#p3639040a55)" style="fill: #de8f05; fill-opacity: 0.2; stroke: #de8f05; stroke-opacity: 0.6; stroke-width: 0.75"/>
    <path d="M 299.279655 90.946133 
L 297.279655 94.946133 
L 301.279655 94.946133 
z
" clip-path="url(#p3639040a55)" style="fill: #de8f05; fill-opacity: 0.2; stroke: #de8f05; stroke-opacity: 0.6; stroke-width: 0.75"/>
    <path d="M 303.480777 100.014312 
L 301.480777 104.014312 
L 305.480777 104.014312 
z
" clip-path="url(#p3639040a55)" style="fill: #de8f05; fill-opacity: 0.2; stroke: #de8f05; stroke-opacity: 0.6; stroke-width: 0.75"/>
    <path d="M 302.25294 109.320532 
L 300.25294 113.320532 
L 304.25294 113.320532 
z
" clip-path="url(#p3639040a55)" style="fill: #de8f05; fill-opacity: 0.2; stroke: #de8f05; stroke-opacity: 0.6; stroke-width: 0.75"/>
    <path d="M 302.520923 65.272015 
L 300.520923 69.272015 
L 304.520923 69.272015 
z
" clip-path="url(#p3639040a55)" style="fill: #de8f05; fill-opacity: 0.2; stroke: #de8f05; stroke-opacity: 0.6; stroke-width: 0.75"/>
    <path d="M 301.875554 55.573584 
L 299.875554 59.573584 
L 303.875554 59.573584 
z
" clip-path="url(#p3639040a55)" style="fill: #de8f05; fill-opacity: 0.2; stroke: #de8f05; stroke-opacity: 0.6; stroke-width: 0.75"/>
    <path d="M 327.364916 139.552565 
L 331.364916 139.552565 
L 331.364916 135.552565 
L 327.364916 135.552565 
z
" clip-path="url(#p3639040a55)" style="fill: #029e73; fill-opacity: 0.2; stroke: #029e73; stroke-opacity: 0.6; stroke-width: 0.75"/>
    <path d="M 330.116761 143.07635 
L 334.116761 143.07635 
L 334.116761 139.07635 
L 330.116761 139.07635 
z
" clip-path="url(#p3639040a55)" style="fill: #029e73; fill-opacity: 0.2; stroke: #029e73; stroke-opacity: 0.6; stroke-width: 0.75"/>
    <path d="M 326.730699 121.7372 
L 330.730699 121.7372 
L 330.730699 117.7372 
L 326.730699 117.7372 
z
" clip-path="url(#p3639040a55)" style="fill: #029e73; fill-opacity: 0.2; stroke: #029e73; stroke-opacity: 0.6; stroke-width: 0.75"/>
    <path d="M 327.880145 120.478697 
L 331.880145 120.478697 
L 331.880145 116.478697 
L 327.880145 116.478697 
z
" clip-path="url(#p3639040a55)" style="fill: #029e73; fill-opacity: 0.2; stroke: #029e73; stroke-opacity: 0.6; stroke-width: 0.75"/>
    <path d="M 327.952539 111.379561 
L 331.952539 111.379561 
L 331.952539 107.379561 
L 327.952539 107.379561 
z
" clip-path="url(#p3639040a55)" style="fill: #029e73; fill-opacity: 0.2; stroke: #029e73; stroke-opacity: 0.6; stroke-width: 0.75"/>
    <path d="M 327.945262 134.188111 
L 331.945262 134.188111 
L 331.945262 130.188111 
L 327.945262 130.188111 
z
" clip-path="url(#p3639040a55)" style="fill: #029e73; fill-opacity: 0.2; stroke: #029e73; stroke-opacity: 0.6; stroke-width: 0.75"/>
    <path d="M 328.675135 130.047515 
L 332.675135 130.047515 
L 332.675135 126.047515 
L 328.675135 126.047515 
z
" clip-path="url(#p3639040a55)" style="fill: #029e73; fill-opacity: 0.2; stroke: #029e73; stroke-opacity: 0.6; stroke-width: 0.75"/>
    <path d="M 327.579071 112.176191 
L 331.579071 112.176191 
L 331.579071 108.176191 
L 327.579071 108.176191 
z
" clip-path="url(#p3639040a55)" style="fill: #029e73; fill-opacity: 0.2; stroke: #029e73; stroke-opacity: 0.6; stroke-width: 0.75"/>
    <path d="M 329.449834 126.625114 
L 333.449834 126.625114 
L 333.449834 122.625114 
L 329.449834 122.625114 
z
" clip-path="url(#p3639040a55)" style="fill: #029e73; fill-opacity: 0.2; stroke: #029e73; stroke-opacity: 0.6; stroke-width: 0.75"/>
    <path d="M 329.805539 141.296368 
L 333.805539 141.296368 
L 333.805539 137.296368 
L 329.805539 137.296368 
z
" clip-path="url(#p3639040a55)" style="fill: #029e73; fill-opacity: 0.2; stroke: #029e73; stroke-opacity: 0.6; stroke-width: 0.75"/>
    <path d="M 326.706134 162.485525 
L 330.706134 162.485525 
L 330.706134 158.485525 
L 326.706134 158.485525 
z
" clip-path="url(#p3639040a55)" style="fill: #029e73; fill-opacity: 0.2; stroke: #029e73; stroke-opacity: 0.6; stroke-width: 0.75"/>
    <path d="M 329.282517 147.057188 
L 333.282517 147.057188 
L 333.282517 143.057188 
L 329.282517 143.057188 
z
" clip-path="url(#p3639040a55)" style="fill: #029e73; fill-opacity: 0.2; stroke: #029e73; stroke-opacity: 0.6; stroke-width: 0.75"/>
    <path d="M 329.71251 149.042247 
L 333.71251 149.042247 
L 333.71251 145.042247 
L 329.71251 145.042247 
z
" clip-path="url(#p3639040a55)" style="fill: #029e73; fill-opacity: 0.2; stroke: #029e73; stroke-opacity: 0.6; stroke-width: 0.75"/>
    <path d="M 327.60987 105.837775 
L 331.60987 105.837775 
L 331.60987 101.837775 
L 327.60987 101.837775 
z
" clip-path="url(#p3639040a55)" style="fill: #029e73; fill-opacity: 0.2; stroke: #029e73; stroke-opacity: 0.6; stroke-width: 0.75"/>
    <path d="M 327.277579 96.621181 
L 331.277579 96.621181 
L 331.277579 92.621181 
L 327.277579 92.621181 
z
" clip-path="url(#p3639040a55)" style="fill: #029e73; fill-opacity: 0.2; stroke: #029e73; stroke-opacity: 0.6; stroke-width: 0.75"/>
   </g>
   <g id="PathCollection_6">
    <path d="M 267.210153 135.025775 
C 268.005762 135.025775 268.768892 134.709676 269.331473 134.147096 
C 269.894054 133.584515 270.210153 132.821385 270.210153 132.025775 
C 270.210153 131.230166 269.894054 130.467036 269.331473 129.904455 
C 268.768892 129.341874 268.005762 129.025775 267.210153 129.025775 
C 266.414543 129.025775 265.651413 129.341874 265.088832 129.904455 
C 264.526252 130.467036 264.210153 131.230166 264.210153 132.025775 
C 264.210153 132.821385 264.526252 133.584515 265.088832 134.147096 
C 265.651413 134.709676 266.414543 135.025775 267.210153 135.025775 
z
" clip-path="url(#p3639040a55)" style="fill: #0173b2; stroke: #0173b2; stroke-width: 0.5"/>
    <path d="M 295.698556 75.972383 
L 292.698556 81.972383 
L 298.698556 81.972383 
z
" clip-path="url(#p3639040a55)" style="fill: #de8f05; stroke: #de8f05; stroke-width: 0.5"/>
    <path d="M 321.186958 130.440106 
L 327.186958 130.440106 
L 327.186958 124.440106 
L 321.186958 124.440106 
z
" clip-path="url(#p3639040a55)" style="fill: #029e73; stroke: #029e73; stroke-width: 0.5"/>
   </g>
   <g id="LineCollection_3">
    <path d="M 267.210153 149.606257 
L 267.210153 114.445293 
" clip-path="url(#p3639040a55)" style="fill: none; stroke: #0173b2; stroke-width: 1.5; stroke-linecap: round"/>
    <path d="M 295.698556 111.732823 
L 295.698556 46.211943 
" clip-path="url(#p3639040a55)" style="fill: none; stroke: #de8f05; stroke-width: 1.5; stroke-linecap: round"/>
    <path d="M 324.186958 145.653604 
L 324.186958 109.226607 
" clip-path="url(#p3639040a55)" style="fill: none; stroke: #029e73; stroke-width: 1.5; stroke-linecap: round"/>
   </g>
   <g id="patch_13">
    <path d="M 255.814792 177.720156 
L 255.814792 21.789375 
" style="fill: none; stroke: #ffffff; stroke-width: 1.25; stroke-linejoin: miter; stroke-linecap: square"/>
   </g>
   <g id="patch_14">
    <path d="M 341.28 177.720156 
L 341.28 21.789375 
" style="fill: none; stroke: #ffffff; stroke-width: 1.25; stroke-linejoin: miter; stroke-linecap: square"/>
   </g>
   <g id="patch_15">
    <path d="M 255.814792 177.720156 
L 341.28 177.720156 
" style="fill: none; stroke: #ffffff; stroke-width: 1.25; stroke-linejoin: miter; stroke-linecap: square"/>
   </g>
   <g id="patch_16">
    <path d="M 255.814792 21.789375 
L 341.28 21.789375 
" style="fill: none; stroke: #ffffff; stroke-width: 1.25; stroke-linejoin: miter; stroke-linecap: square"/>
   </g>
   <g id="text_17">
    <text style="fill: #262626; font: 12px 'Arial', 'DejaVu Sans', 'Liberation Sans', 'Bitstream Vera Sans', sans-serif; text-anchor: middle" x="298.547396" y="15.789375" transform="rotate(-0 298.547396 15.789375)">21</text>
   </g>
  </g>
  <g id="legend_1">
   <g id="patch_17">
    <path d="M 360.5 118.906953 
L 416.479688 118.906953 
Q 418.679688 118.906953 418.679688 116.706953 
L 418.679688 54.653047 
Q 418.679688 52.453047 416.479688 52.453047 
L 360.5 52.453047 
Q 358.3 52.453047 358.3 54.653047 
L 358.3 116.706953 
Q 358.3 118.906953 360.5 118.906953 
z
" style="fill: #eaeaf2; opacity: 0.8; stroke: #cccccc; stroke-linejoin: miter"/>
   </g>
   <g id="text_18">
    <text style="fill: #262626; font: 12px 'Arial', 'DejaVu Sans', 'Liberation Sans', 'Bitstream Vera Sans', sans-serif; text-anchor: start" x="383.822969" y="65.442422" transform="rotate(-0 383.822969 65.442422)">tx</text>
   </g>
   <g id="PathCollection_7">
    <defs>
     <path id="m51c38443d5" d="M 0 2 
C 0.530406 2 1.03916 1.789267 1.414214 1.414214 
C 1.789267 1.03916 2 0.530406 2 0 
C 2 -0.530406 1.789267 -1.03916 1.414214 -1.414214 
C 1.03916 -1.789267 0.530406 -2 0 -2 
C -0.530406 -2 -1.03916 -1.789267 -1.414214 -1.414214 
C -1.789267 -1.03916 -2 -0.530406 -2 0 
C -2 0.530406 -1.789267 1.03916 -1.414214 1.414214 
C -1.03916 1.789267 -0.530406 2 0 2 
z
" style="stroke: #0173b2; stroke-opacity: 0.6; stroke-width: 0.75"/>
    </defs>
    <g>
     <use xlink:href="#m51c38443d5" x="373.7" y="78.313516" style="fill: #0173b2; fill-opacity: 0.2; stroke: #0173b2; stroke-opacity: 0.6; stroke-width: 0.75"/>
    </g>
   </g>
   <g id="PathCollection_8">
    <defs>
     <path id="m1f06b29361" d="M 0 3 
C 0.795609 3 1.55874 2.683901 2.12132 2.12132 
C 2.683901 1.55874 3 0.795609 3 0 
C 3 -0.795609 2.683901 -1.55874 2.12132 -2.12132 
C 1.55874 -2.683901 0.795609 -3 0 -3 
C -0.795609 -3 -1.55874 -2.683901 -2.12132 -2.12132 
C -2.683901 -1.55874 -3 -0.795609 -3 0 
C -3 0.795609 -2.683901 1.55874 -2.12132 2.12132 
C -1.55874 2.683901 -0.795609 3 0 3 
z
" style="stroke: #0173b2; stroke-width: 0.5"/>
    </defs>
    <g>
     <use xlink:href="#m1f06b29361" x="373.7" y="78.313516" style="fill: #0173b2; stroke: #0173b2; stroke-width: 0.5"/>
    </g>
   </g>
   <g id="text_19">
    <text style="fill: #262626; font: 11px 'Arial', 'DejaVu Sans', 'Liberation Sans', 'Bitstream Vera Sans', sans-serif; text-anchor: start" x="393.5" y="81.201016" transform="rotate(-0 393.5 81.201016)">FeS</text>
   </g>
   <g id="PathCollection_9">
    <defs>
     <path id="mdaf110914a" d="M 0 -2 
L -2 2 
L 2 2 
z
" style="stroke: #de8f05; stroke-opacity: 0.6; stroke-width: 0.75"/>
    </defs>
    <g>
     <use xlink:href="#mdaf110914a" x="373.7" y="93.873359" style="fill: #de8f05; fill-opacity: 0.2; stroke: #de8f05; stroke-opacity: 0.6; stroke-width: 0.75"/>
    </g>
   </g>
   <g id="PathCollection_10">
    <defs>
     <path id="me7e4ca201a" d="M 0 -3 
L -3 3 
L 3 3 
z
" style="stroke: #de8f05; stroke-width: 0.5"/>
    </defs>
    <g>
     <use xlink:href="#me7e4ca201a" x="373.7" y="93.873359" style="fill: #de8f05; stroke: #de8f05; stroke-width: 0.5"/>
    </g>
   </g>
   <g id="text_20">
    <text style="fill: #262626; font: 11px 'Arial', 'DejaVu Sans', 'Liberation Sans', 'Bitstream Vera Sans', sans-serif; text-anchor: start" x="393.5" y="96.760859" transform="rotate(-0 393.5 96.760859)">FeD</text>
   </g>
   <g id="PathCollection_11">
    <defs>
     <path id="m924c8734cf" d="M -2 2 
L 2 2 
L 2 -2 
L -2 -2 
z
" style="stroke: #029e73; stroke-opacity: 0.6; stroke-width: 0.75"/>
    </defs>
    <g>
     <use xlink:href="#m924c8734cf" x="373.7" y="109.433203" style="fill: #029e73; fill-opacity: 0.2; stroke: #029e73; stroke-opacity: 0.6; stroke-width: 0.75"/>
    </g>
   </g>
   <g id="PathCollection_12">
    <defs>
     <path id="mb2c9065100" d="M -3 3 
L 3 3 
L 3 -3 
L -3 -3 
z
" style="stroke: #029e73; stroke-width: 0.5"/>
    </defs>
    <g>
     <use xlink:href="#mb2c9065100" x="373.7" y="109.433203" style="fill: #029e73; stroke: #029e73; stroke-width: 0.5"/>
    </g>
   </g>
   <g id="text_21">
    <text style="fill: #262626; font: 11px 'Arial', 'DejaVu Sans', 'Liberation Sans', 'Bitstream Vera Sans', sans-serif; text-anchor: start" x="393.5" y="112.320703" transform="rotate(-0 393.5 112.320703)">FeR</text>
   </g>
  </g>
 </g>
 <defs>
  <clipPath id="pf1c87482e2">
   <rect x="46.964375" y="21.789375" width="85.465208" height="155.930781"/>
  </clipPath>
  <clipPath id="pb0d839ea00">
   <rect x="151.389583" y="21.789375" width="85.465208" height="155.930781"/>
  </clipPath>
  <clipPath id="p3639040a55">
   <rect x="255.814792" y="21.789375" width="85.465208" height="155.930781"/>
  </clipPath>
 </defs>
</svg>
