<?xml version="1.0" encoding="utf-8" standalone="no"?>
<!DOCTYPE svg PUBLIC "-//W3C//DTD SVG 1.1//EN"
  "http://www.w3.org/Graphics/SVG/1.1/DTD/svg11.dtd">
<svg xmlns:xlink="http://www.w3.org/1999/xlink" width="420.119687pt" height="204.48pt" viewBox="0 0 420.119687 204.48" xmlns="http://www.w3.org/2000/svg" version="1.1">
 <metadata>
  <rdf:RDF xmlns:dc="http://purl.org/dc/elements/1.1/" xmlns:cc="http://creativecommons.org/ns#" xmlns:rdf="http://www.w3.org/1999/02/22-rdf-syntax-ns#">
   <cc:Work>
    <dc:type rdf:resource="http://purl.org/dc/dcmitype/StillImage"/>
    <dc:date>2023-06-08T11:39:57.047392</dc:date>
    <dc:format>image/svg+xml</dc:format>
    <dc:creator>
     <cc:Agent>
      <dc:title>Matplotlib v3.6.2, https://matplotlib.org/</dc:title>
     </cc:Agent>
    </dc:creator>
   </cc:Work>
  </rdf:RDF>
 </metadata>
 <defs>
  <style type="text/css">*{stroke-linejoin: round; stroke-linecap: butt}</style>
 </defs>
 <g id="figure_1">
  <g id="patch_1">
   <path d="M 0 204.48 
L 420.119687 204.48 
L 420.119687 0 
L 0 0 
z
" style="fill: #ffffff"/>
  </g>
  <g id="axes_1">
   <g id="patch_2">
    <path d="M 46.964375 177.720156 
L 132.429583 177.720156 
L 132.429583 21.789375 
L 46.964375 21.789375 
z
" style="fill: #eaeaf2"/>
   </g>
   <g id="matplotlib.axis_1">
    <g id="xtick_1">
     <g id="text_1">
      <text style="fill: #262626; font: 11px 'Arial', 'DejaVu Sans', 'Liberation Sans', 'Bitstream Vera Sans', sans-serif; text-anchor: middle" x="68.330677" y="195.09375" transform="rotate(-0 68.330677 195.09375)">FeS</text>
     </g>
    </g>
    <g id="xtick_2">
     <g id="text_2">
      <text style="fill: #262626; font: 11px 'Arial', 'DejaVu Sans', 'Liberation Sans', 'Bitstream Vera Sans', sans-serif; text-anchor: middle" x="111.063281" y="195.09375" transform="rotate(-0 111.063281 195.09375)">FeD</text>
     </g>
    </g>
   </g>
   <g id="matplotlib.axis_2">
    <g id="ytick_1">
     <g id="line2d_1">
      <path d="M 46.964375 174.434794 
L 132.429583 174.434794 
" clip-path="url(#p0901db9db1)" style="fill: none; stroke: #ffffff; stroke-opacity: 0.8; stroke-linecap: round"/>
     </g>
     <g id="line2d_2">
      <defs>
       <path id="m8c79d5b240" d="M 0 0 
L -6 0 
" style="stroke: #808080; stroke-width: 1.25"/>
      </defs>
      <g>
       <use xlink:href="#m8c79d5b240" x="46.964375" y="174.434794" style="fill: #808080; stroke: #808080; stroke-width: 1.25"/>
      </g>
     </g>
     <g id="text_3">
      <text style="fill: #262626; font: 11px 'Arial', 'DejaVu Sans', 'Liberation Sans', 'Bitstream Vera Sans', sans-serif; text-anchor: end" x="37.464375" y="178.371591" transform="rotate(-0 37.464375 178.371591)">0.6</text>
     </g>
    </g>
    <g id="ytick_2">
     <g id="line2d_3">
      <path d="M 46.964375 149.596217 
L 132.429583 149.596217 
" clip-path="url(#p0901db9db1)" style="fill: none; stroke: #ffffff; stroke-opacity: 0.8; stroke-linecap: round"/>
     </g>
     <g id="line2d_4">
      <g>
       <use xlink:href="#m8c79d5b240" x="46.964375" y="149.596217" style="fill: #808080; stroke: #808080; stroke-width: 1.25"/>
      </g>
     </g>
     <g id="text_4">
      <text style="fill: #262626; font: 11px 'Arial', 'DejaVu Sans', 'Liberation Sans', 'Bitstream Vera Sans', sans-serif; text-anchor: end" x="37.464375" y="153.533014" transform="rotate(-0 37.464375 153.533014)">0.8</text>
     </g>
    </g>
    <g id="ytick_3">
     <g id="line2d_5">
      <path d="M 46.964375 130.329919 
L 132.429583 130.329919 
" clip-path="url(#p0901db9db1)" style="fill: none; stroke: #ffffff; stroke-opacity: 0.8; stroke-linecap: round"/>
     </g>
     <g id="line2d_6">
      <g>
       <use xlink:href="#m8c79d5b240" x="46.964375" y="130.329919" style="fill: #808080; stroke: #808080; stroke-width: 1.25"/>
      </g>
     </g>
     <g id="text_5">
      <text style="fill: #262626; font: 11px 'Arial', 'DejaVu Sans', 'Liberation Sans', 'Bitstream Vera Sans', sans-serif; text-anchor: end" x="37.464375" y="134.266716" transform="rotate(-0 37.464375 134.266716)">1.0</text>
     </g>
    </g>
    <g id="ytick_4">
     <g id="line2d_7">
      <path d="M 46.964375 95.32191 
L 132.429583 95.32191 
" clip-path="url(#p0901db9db1)" style="fill: none; stroke: #ffffff; stroke-opacity: 0.8; stroke-linecap: round"/>
     </g>
     <g id="line2d_8">
      <g>
       <use xlink:href="#m8c79d5b240" x="46.964375" y="95.32191" style="fill: #808080; stroke: #808080; stroke-width: 1.25"/>
      </g>
     </g>
     <g id="text_6">
      <text style="fill: #262626; font: 11px 'Arial', 'DejaVu Sans', 'Liberation Sans', 'Bitstream Vera Sans', sans-serif; text-anchor: end" x="37.464375" y="99.258707" transform="rotate(-0 37.464375 99.258707)">1.5</text>
     </g>
    </g>
    <g id="ytick_5">
     <g id="line2d_9">
      <path d="M 46.964375 70.483333 
L 132.429583 70.483333 
" clip-path="url(#p0901db9db1)" style="fill: none; stroke: #ffffff; stroke-opacity: 0.8; stroke-linecap: round"/>
     </g>
     <g id="line2d_10">
      <g>
       <use xlink:href="#m8c79d5b240" x="46.964375" y="70.483333" style="fill: #808080; stroke: #808080; stroke-width: 1.25"/>
      </g>
     </g>
     <g id="text_7">
      <text style="fill: #262626; font: 11px 'Arial', 'DejaVu Sans', 'Liberation Sans', 'Bitstream Vera Sans', sans-serif; text-anchor: end" x="37.464375" y="74.42013" transform="rotate(-0 37.464375 74.42013)">2.0</text>
     </g>
    </g>
    <g id="ytick_6">
     <g id="line2d_11">
      <path d="M 46.964375 35.475324 
L 132.429583 35.475324 
" clip-path="url(#p0901db9db1)" style="fill: none; stroke: #ffffff; stroke-opacity: 0.8; stroke-linecap: round"/>
     </g>
     <g id="line2d_12">
      <g>
       <use xlink:href="#m8c79d5b240" x="46.964375" y="35.475324" style="fill: #808080; stroke: #808080; stroke-width: 1.25"/>
      </g>
     </g>
     <g id="text_8">
      <text style="fill: #262626; font: 11px 'Arial', 'DejaVu Sans', 'Liberation Sans', 'Bitstream Vera Sans', sans-serif; text-anchor: end" x="37.464375" y="39.412121" transform="rotate(-0 37.464375 39.412121)">3.0</text>
     </g>
    </g>
    <g id="ytick_7">
     <g id="line2d_13">
      <defs>
       <path id="m3881b85d81" d="M 0 0 
L -4 0 
" style="stroke: #808080"/>
      </defs>
      <g>
       <use xlink:href="#m3881b85d81" x="46.964375" y="161.125367" style="fill: #808080; stroke: #808080"/>
      </g>
     </g>
    </g>
    <g id="ytick_8">
     <g id="line2d_14">
      <g>
       <use xlink:href="#m3881b85d81" x="46.964375" y="139.426785" style="fill: #808080; stroke: #808080"/>
      </g>
     </g>
    </g>
    <g id="text_9">
     <text style="fill: #262626; font: 12px 'Arial', 'DejaVu Sans', 'Liberation Sans', 'Bitstream Vera Sans', sans-serif; text-anchor: middle" x="15.789375" y="99.754766" transform="rotate(-90 15.789375 99.754766)">Relative mRNA level</text>
    </g>
   </g>
   <g id="PathCollection_1">
    <path d="M 75.964168 142.623151 
C 76.494574 142.623151 77.003328 142.412418 77.378381 142.037365 
C 77.753435 141.662311 77.964168 141.153557 77.964168 140.623151 
C 77.964168 140.092745 77.753435 139.583991 77.378381 139.208937 
C 77.003328 138.833884 76.494574 138.623151 75.964168 138.623151 
C 75.433762 138.623151 74.925008 138.833884 74.549954 139.208937 
C 74.1749 139.583991 73.964168 140.092745 73.964168 140.623151 
C 73.964168 141.153557 74.1749 141.662311 74.549954 142.037365 
C 74.925008 142.412418 75.433762 142.623151 75.964168 142.623151 
z
" clip-path="url(#p0901db9db1)" style="fill: #0173b2; fill-opacity: 0.2; stroke: #0173b2; stroke-opacity: 0.6; stroke-width: 0.75"/>
    <path d="M 72.575579 130.653834 
C 73.105985 130.653834 73.614739 130.443101 73.989792 130.068047 
C 74.364846 129.692993 74.575579 129.18424 74.575579 128.653834 
C 74.575579 128.123428 74.364846 127.614674 73.989792 127.23962 
C 73.614739 126.864566 73.105985 126.653834 72.575579 126.653834 
C 72.045173 126.653834 71.536419 126.864566 71.161365 127.23962 
C 70.786311 127.614674 70.575579 128.123428 70.575579 128.653834 
C 70.575579 129.18424 70.786311 129.692993 71.161365 130.068047 
C 71.536419 130.443101 72.045173 130.653834 72.575579 130.653834 
z
" clip-path="url(#p0901db9db1)" style="fill: #0173b2; fill-opacity: 0.2; stroke: #0173b2; stroke-opacity: 0.6; stroke-width: 0.75"/>
    <path d="M 70.778235 124.669175 
C 71.308642 124.669175 71.817395 124.458442 72.192449 124.083389 
C 72.567503 123.708335 72.778235 123.199581 72.778235 122.669175 
C 72.778235 122.138769 72.567503 121.630015 72.192449 121.254962 
C 71.817395 120.879908 71.308642 120.669175 70.778235 120.669175 
C 70.247829 120.669175 69.739076 120.879908 69.364022 121.254962 
C 68.988968 121.630015 68.778235 122.138769 68.778235 122.669175 
C 68.778235 123.199581 68.988968 123.708335 69.364022 124.083389 
C 69.739076 124.458442 70.247829 124.669175 70.778235 124.669175 
z
" clip-path="url(#p0901db9db1)" style="fill: #0173b2; fill-opacity: 0.2; stroke: #0173b2; stroke-opacity: 0.6; stroke-width: 0.75"/>
    <path d="M 71.785558 133.54546 
C 72.315964 133.54546 72.824718 133.334727 73.199772 132.959673 
C 73.574826 132.584619 73.785558 132.075866 73.785558 131.54546 
C 73.785558 131.015053 73.574826 130.5063 73.199772 130.131246 
C 72.824718 129.756192 72.315964 129.54546 71.785558 129.54546 
C 71.255152 129.54546 70.746399 129.756192 70.371345 130.131246 
C 69.996291 130.5063 69.785558 131.015053 69.785558 131.54546 
C 69.785558 132.075866 69.996291 132.584619 70.371345 132.959673 
C 70.746399 133.334727 71.255152 133.54546 71.785558 133.54546 
z
" clip-path="url(#p0901db9db1)" style="fill: #0173b2; fill-opacity: 0.2; stroke: #0173b2; stroke-opacity: 0.6; stroke-width: 0.75"/>
    <path d="M 73.675784 141.325516 
C 74.20619 141.325516 74.714944 141.114783 75.089998 140.739729 
C 75.465051 140.364676 75.675784 139.855922 75.675784 139.325516 
C 75.675784 138.79511 75.465051 138.286356 75.089998 137.911302 
C 74.714944 137.536249 74.20619 137.325516 73.675784 137.325516 
C 73.145378 137.325516 72.636624 137.536249 72.261571 137.911302 
C 71.886517 138.286356 71.675784 138.79511 71.675784 139.325516 
C 71.675784 139.855922 71.886517 140.364676 72.261571 140.739729 
C 72.636624 141.114783 73.145378 141.325516 73.675784 141.325516 
z
" clip-path="url(#p0901db9db1)" style="fill: #0173b2; fill-opacity: 0.2; stroke: #0173b2; stroke-opacity: 0.6; stroke-width: 0.75"/>
    <path d="M 74.008211 129.356199 
C 74.538617 129.356199 75.047371 129.145466 75.422425 128.770412 
C 75.797478 128.395358 76.008211 127.886605 76.008211 127.356199 
C 76.008211 126.825792 75.797478 126.317039 75.422425 125.941985 
C 75.047371 125.566931 74.538617 125.356199 74.008211 125.356199 
C 73.477805 125.356199 72.969051 125.566931 72.593998 125.941985 
C 72.218944 126.317039 72.008211 126.825792 72.008211 127.356199 
C 72.008211 127.886605 72.218944 128.395358 72.593998 128.770412 
C 72.969051 129.145466 73.477805 129.356199 74.008211 129.356199 
z
" clip-path="url(#p0901db9db1)" style="fill: #0173b2; fill-opacity: 0.2; stroke: #0173b2; stroke-opacity: 0.6; stroke-width: 0.75"/>
    <path d="M 73.094799 126.962335 
C 73.625205 126.962335 74.133958 126.751603 74.509012 126.376549 
C 74.884066 126.001495 75.094799 125.492741 75.094799 124.962335 
C 75.094799 124.431929 74.884066 123.923175 74.509012 123.548122 
C 74.133958 123.173068 73.625205 122.962335 73.094799 122.962335 
C 72.564392 122.962335 72.055639 123.173068 71.680585 123.548122 
C 71.305531 123.923175 71.094799 124.431929 71.094799 124.962335 
C 71.094799 125.492741 71.305531 126.001495 71.680585 126.376549 
C 72.055639 126.751603 72.564392 126.962335 73.094799 126.962335 
z
" clip-path="url(#p0901db9db1)" style="fill: #0173b2; fill-opacity: 0.2; stroke: #0173b2; stroke-opacity: 0.6; stroke-width: 0.75"/>
    <path d="M 73.947924 131.151596 
C 74.478331 131.151596 74.987084 130.940864 75.362138 130.56581 
C 75.737192 130.190756 75.947924 129.682002 75.947924 129.151596 
C 75.947924 128.62119 75.737192 128.112436 75.362138 127.737383 
C 74.987084 127.362329 74.478331 127.151596 73.947924 127.151596 
C 73.417518 127.151596 72.908765 127.362329 72.533711 127.737383 
C 72.158657 128.112436 71.947924 128.62119 71.947924 129.151596 
C 71.947924 129.682002 72.158657 130.190756 72.533711 130.56581 
C 72.908765 130.940864 73.417518 131.151596 73.947924 131.151596 
z
" clip-path="url(#p0901db9db1)" style="fill: #0173b2; fill-opacity: 0.2; stroke: #0173b2; stroke-opacity: 0.6; stroke-width: 0.75"/>
    <path d="M 73.545969 130.759694 
C 74.076375 130.759694 74.585129 130.548961 74.960183 130.173908 
C 75.335237 129.798854 75.545969 129.2901 75.545969 128.759694 
C 75.545969 128.229288 75.335237 127.720534 74.960183 127.34548 
C 74.585129 126.970427 74.076375 126.759694 73.545969 126.759694 
C 73.015563 126.759694 72.50681 126.970427 72.131756 127.34548 
C 71.756702 127.720534 71.545969 128.229288 71.545969 128.759694 
C 71.545969 129.2901 71.756702 129.798854 72.131756 130.173908 
C 72.50681 130.548961 73.015563 130.759694 73.545969 130.759694 
z
" clip-path="url(#p0901db9db1)" style="fill: #0173b2; fill-opacity: 0.2; stroke: #0173b2; stroke-opacity: 0.6; stroke-width: 0.75"/>
    <path d="M 70.757297 132.126291 
C 71.287703 132.126291 71.796456 131.915558 72.17151 131.540504 
C 72.546564 131.165451 72.757297 130.656697 72.757297 130.126291 
C 72.757297 129.595885 72.546564 129.087131 72.17151 128.712077 
C 71.796456 128.337023 71.287703 128.126291 70.757297 128.126291 
C 70.22689 128.126291 69.718137 128.337023 69.343083 128.712077 
C 68.968029 129.087131 68.757297 129.595885 68.757297 130.126291 
C 68.757297 130.656697 68.968029 131.165451 69.343083 131.540504 
C 69.718137 131.915558 70.22689 132.126291 70.757297 132.126291 
z
" clip-path="url(#p0901db9db1)" style="fill: #0173b2; fill-opacity: 0.2; stroke: #0173b2; stroke-opacity: 0.6; stroke-width: 0.75"/>
    <path d="M 72.395754 132.792144 
C 72.92616 132.792144 73.434914 132.581411 73.809968 132.206357 
C 74.185021 131.831304 74.395754 131.32255 74.395754 130.792144 
C 74.395754 130.261738 74.185021 129.752984 73.809968 129.37793 
C 73.434914 129.002877 72.92616 128.792144 72.395754 128.792144 
C 71.865348 128.792144 71.356594 129.002877 70.981541 129.37793 
C 70.606487 129.752984 70.395754 130.261738 70.395754 130.792144 
C 70.395754 131.32255 70.606487 131.831304 70.981541 132.206357 
C 71.356594 132.581411 71.865348 132.792144 72.395754 132.792144 
z
" clip-path="url(#p0901db9db1)" style="fill: #0173b2; fill-opacity: 0.2; stroke: #0173b2; stroke-opacity: 0.6; stroke-width: 0.75"/>
    <path d="M 74.446554 133.667699 
C 74.976961 133.667699 75.485714 133.456967 75.860768 133.081913 
C 76.235822 132.706859 76.446554 132.198106 76.446554 131.667699 
C 76.446554 131.137293 76.235822 130.62854 75.860768 130.253486 
C 75.485714 129.878432 74.976961 129.667699 74.446554 129.667699 
C 73.916148 129.667699 73.407395 129.878432 73.032341 130.253486 
C 72.657287 130.62854 72.446554 131.137293 72.446554 131.667699 
C 72.446554 132.198106 72.657287 132.706859 73.032341 133.081913 
C 73.407395 133.456967 73.916148 133.667699 74.446554 133.667699 
z
" clip-path="url(#p0901db9db1)" style="fill: #0173b2; fill-opacity: 0.2; stroke: #0173b2; stroke-opacity: 0.6; stroke-width: 0.75"/>
    <path d="M 113.349939 95.533609 
L 111.349939 99.533609 
L 115.349939 99.533609 
z
" clip-path="url(#p0901db9db1)" style="fill: #de8f05; fill-opacity: 0.2; stroke: #de8f05; stroke-opacity: 0.6; stroke-width: 0.75"/>
    <path d="M 112.826914 102.116733 
L 110.826914 106.116733 
L 114.826914 106.116733 
z
" clip-path="url(#p0901db9db1)" style="fill: #de8f05; fill-opacity: 0.2; stroke: #de8f05; stroke-opacity: 0.6; stroke-width: 0.75"/>
    <path d="M 113.887656 71.494271 
L 111.887656 75.494271 
L 115.887656 75.494271 
z
" clip-path="url(#p0901db9db1)" style="fill: #de8f05; fill-opacity: 0.2; stroke: #de8f05; stroke-opacity: 0.6; stroke-width: 0.75"/>
    <path d="M 112.289975 75.683532 
L 110.289975 79.683532 
L 114.289975 79.683532 
z
" clip-path="url(#p0901db9db1)" style="fill: #de8f05; fill-opacity: 0.2; stroke: #de8f05; stroke-opacity: 0.6; stroke-width: 0.75"/>
    <path d="M 116.037724 74.4866 
L 114.037724 78.4866 
L 118.037724 78.4866 
z
" clip-path="url(#p0901db9db1)" style="fill: #de8f05; fill-opacity: 0.2; stroke: #de8f05; stroke-opacity: 0.6; stroke-width: 0.75"/>
    <path d="M 116.017949 69.100407 
L 114.017949 73.100407 
L 118.017949 73.100407 
z
" clip-path="url(#p0901db9db1)" style="fill: #de8f05; fill-opacity: 0.2; stroke: #de8f05; stroke-opacity: 0.6; stroke-width: 0.75"/>
    <path d="M 113.29489 29.60166 
L 111.29489 33.60166 
L 115.29489 33.60166 
z
" clip-path="url(#p0901db9db1)" style="fill: #de8f05; fill-opacity: 0.2; stroke: #de8f05; stroke-opacity: 0.6; stroke-width: 0.75"/>
    <path d="M 115.310062 96.740407 
L 113.310062 100.740407 
L 117.310062 100.740407 
z
" clip-path="url(#p0901db9db1)" style="fill: #de8f05; fill-opacity: 0.2; stroke: #de8f05; stroke-opacity: 0.6; stroke-width: 0.75"/>
    <path d="M 115.421721 100.18763 
L 113.421721 104.18763 
L 117.421721 104.18763 
z
" clip-path="url(#p0901db9db1)" style="fill: #de8f05; fill-opacity: 0.2; stroke: #de8f05; stroke-opacity: 0.6; stroke-width: 0.75"/>
    <path d="M 112.60681 100.33593 
L 110.60681 104.33593 
L 114.60681 104.33593 
z
" clip-path="url(#p0901db9db1)" style="fill: #de8f05; fill-opacity: 0.2; stroke: #de8f05; stroke-opacity: 0.6; stroke-width: 0.75"/>
    <path d="M 117.037739 83.677932 
L 115.037739 87.677932 
L 119.037739 87.677932 
z
" clip-path="url(#p0901db9db1)" style="fill: #de8f05; fill-opacity: 0.2; stroke: #de8f05; stroke-opacity: 0.6; stroke-width: 0.75"/>
    <path d="M 113.68643 94.608073 
L 111.68643 98.608073 
L 115.68643 98.608073 
z
" clip-path="url(#p0901db9db1)" style="fill: #de8f05; fill-opacity: 0.2; stroke: #de8f05; stroke-opacity: 0.6; stroke-width: 0.75"/>
   </g>
   <g id="PathCollection_2">
    <path d="M 64.057417 133.469424 
C 64.853026 133.469424 65.616156 133.153326 66.178737 132.590745 
C 66.741318 132.028164 67.057417 131.265034 67.057417 130.469424 
C 67.057417 129.673815 66.741318 128.910685 66.178737 128.348104 
C 65.616156 127.785523 64.853026 127.469424 64.057417 127.469424 
C 63.261807 127.469424 62.498677 127.785523 61.936096 128.348104 
C 61.373516 128.910685 61.057417 129.673815 61.057417 130.469424 
C 61.057417 131.265034 61.373516 132.028164 61.936096 132.590745 
C 62.498677 133.153326 63.261807 133.469424 64.057417 133.469424 
z
" clip-path="url(#p0901db9db1)" style="fill: #0173b2; stroke: #0173b2; stroke-width: 0.5"/>
    <path d="M 106.790021 81.797232 
L 103.790021 87.797232 
L 109.790021 87.797232 
z
" clip-path="url(#p0901db9db1)" style="fill: #de8f05; stroke: #de8f05; stroke-width: 0.5"/>
   </g>
   <g id="LineCollection_1">
    <path d="M 64.057417 135.631915 
L 64.057417 125.306934 
" clip-path="url(#p0901db9db1)" style="fill: none; stroke: #0173b2; stroke-width: 1.5; stroke-linecap: round"/>
    <path d="M 106.790021 105.566471 
L 106.790021 64.027993 
" clip-path="url(#p0901db9db1)" style="fill: none; stroke: #de8f05; stroke-width: 1.5; stroke-linecap: round"/>
   </g>
   <g id="patch_3">
    <path d="M 46.964375 177.720156 
L 46.964375 21.789375 
" style="fill: none; stroke: #ffffff; stroke-width: 1.25; stroke-linejoin: miter; stroke-linecap: square"/>
   </g>
   <g id="patch_4">
    <path d="M 132.429583 177.720156 
L 132.429583 21.789375 
" style="fill: none; stroke: #ffffff; stroke-width: 1.25; stroke-linejoin: miter; stroke-linecap: square"/>
   </g>
   <g id="patch_5">
    <path d="M 46.964375 177.720156 
L 132.429583 177.720156 
" style="fill: none; stroke: #ffffff; stroke-width: 1.25; stroke-linejoin: miter; stroke-linecap: square"/>
   </g>
   <g id="patch_6">
    <path d="M 46.964375 21.789375 
L 132.429583 21.789375 
" style="fill: none; stroke: #ffffff; stroke-width: 1.25; stroke-linejoin: miter; stroke-linecap: square"/>
   </g>
   <g id="text_10">
    <text style="fill: #262626; font: 12px 'Arial', 'DejaVu Sans', 'Liberation Sans', 'Bitstream Vera Sans', sans-serif; text-anchor: middle" x="89.696979" y="15.789375" transform="rotate(-0 89.696979 15.789375)">11</text>
   </g>
  </g>
  <g id="axes_2">
   <g id="patch_7">
    <path d="M 151.389583 177.720156 
L 236.854792 177.720156 
L 236.854792 21.789375 
L 151.389583 21.789375 
z
" style="fill: #eaeaf2"/>
   </g>
   <g id="matplotlib.axis_3">
    <g id="xtick_3">
     <g id="text_11">
      <text style="fill: #262626; font: 11px 'Arial', 'DejaVu Sans', 'Liberation Sans', 'Bitstream Vera Sans', sans-serif; text-anchor: middle" x="172.755885" y="195.09375" transform="rotate(-0 172.755885 195.09375)">FeS</text>
     </g>
    </g>
    <g id="xtick_4">
     <g id="text_12">
      <text style="fill: #262626; font: 11px 'Arial', 'DejaVu Sans', 'Liberation Sans', 'Bitstream Vera Sans', sans-serif; text-anchor: middle" x="215.48849" y="195.09375" transform="rotate(-0 215.48849 195.09375)">FeD</text>
     </g>
    </g>
   </g>
   <g id="matplotlib.axis_4">
    <g id="ytick_9">
     <g id="line2d_15">
      <path d="M 151.389583 174.434794 
L 236.854792 174.434794 
" clip-path="url(#pa40b3b4106)" style="fill: none; stroke: #ffffff; stroke-opacity: 0.8; stroke-linecap: round"/>
     </g>
     <g id="line2d_16">
      <g>
       <use xlink:href="#m8c79d5b240" x="151.389583" y="174.434794" style="fill: #808080; stroke: #808080; stroke-width: 1.25"/>
      </g>
     </g>
    </g>
    <g id="ytick_10">
     <g id="line2d_17">
      <path d="M 151.389583 149.596217 
L 236.854792 149.596217 
" clip-path="url(#pa40b3b4106)" style="fill: none; stroke: #ffffff; stroke-opacity: 0.8; stroke-linecap: round"/>
     </g>
     <g id="line2d_18">
      <g>
       <use xlink:href="#m8c79d5b240" x="151.389583" y="149.596217" style="fill: #808080; stroke: #808080; stroke-width: 1.25"/>
      </g>
     </g>
    </g>
    <g id="ytick_11">
     <g id="line2d_19">
      <path d="M 151.389583 130.329919 
L 236.854792 130.329919 
" clip-path="url(#pa40b3b4106)" style="fill: none; stroke: #ffffff; stroke-opacity: 0.8; stroke-linecap: round"/>
     </g>
     <g id="line2d_20">
      <g>
       <use xlink:href="#m8c79d5b240" x="151.389583" y="130.329919" style="fill: #808080; stroke: #808080; stroke-width: 1.25"/>
      </g>
     </g>
    </g>
    <g id="ytick_12">
     <g id="line2d_21">
      <path d="M 151.389583 95.32191 
L 236.854792 95.32191 
" clip-path="url(#pa40b3b4106)" style="fill: none; stroke: #ffffff; stroke-opacity: 0.8; stroke-linecap: round"/>
     </g>
     <g id="line2d_22">
      <g>
       <use xlink:href="#m8c79d5b240" x="151.389583" y="95.32191" style="fill: #808080; stroke: #808080; stroke-width: 1.25"/>
      </g>
     </g>
    </g>
    <g id="ytick_13">
     <g id="line2d_23">
      <path d="M 151.389583 70.483333 
L 236.854792 70.483333 
" clip-path="url(#pa40b3b4106)" style="fill: none; stroke: #ffffff; stroke-opacity: 0.8; stroke-linecap: round"/>
     </g>
     <g id="line2d_24">
      <g>
       <use xlink:href="#m8c79d5b240" x="151.389583" y="70.483333" style="fill: #808080; stroke: #808080; stroke-width: 1.25"/>
      </g>
     </g>
    </g>
    <g id="ytick_14">
     <g id="line2d_25">
      <path d="M 151.389583 35.475324 
L 236.854792 35.475324 
" clip-path="url(#pa40b3b4106)" style="fill: none; stroke: #ffffff; stroke-opacity: 0.8; stroke-linecap: round"/>
     </g>
     <g id="line2d_26">
      <g>
       <use xlink:href="#m8c79d5b240" x="151.389583" y="35.475324" style="fill: #808080; stroke: #808080; stroke-width: 1.25"/>
      </g>
     </g>
    </g>
    <g id="ytick_15">
     <g id="line2d_27">
      <g>
       <use xlink:href="#m3881b85d81" x="151.389583" y="161.125367" style="fill: #808080; stroke: #808080"/>
      </g>
     </g>
    </g>
    <g id="ytick_16">
     <g id="line2d_28">
      <g>
       <use xlink:href="#m3881b85d81" x="151.389583" y="139.426785" style="fill: #808080; stroke: #808080"/>
      </g>
     </g>
    </g>
   </g>
   <g id="PathCollection_3">
    <path d="M 180.218853 139.008239 
C 180.749259 139.008239 181.258013 138.797506 181.633067 138.422452 
C 182.00812 138.047399 182.218853 137.538645 182.218853 137.008239 
C 182.218853 136.477833 182.00812 135.969079 181.633067 135.594025 
C 181.258013 135.218972 180.749259 135.008239 180.218853 135.008239 
C 179.688447 135.008239 179.179693 135.218972 178.80464 135.594025 
C 178.429586 135.969079 178.218853 136.477833 178.218853 137.008239 
C 178.218853 137.538645 178.429586 138.047399 178.80464 138.422452 
C 179.179693 138.797506 179.688447 139.008239 180.218853 139.008239 
z
" clip-path="url(#pa40b3b4106)" style="fill: #0173b2; fill-opacity: 0.2; stroke: #0173b2; stroke-opacity: 0.6; stroke-width: 0.75"/>
    <path d="M 176.256919 122.251195 
C 176.787325 122.251195 177.296079 122.040462 177.671132 121.665408 
C 178.046186 121.290354 178.256919 120.781601 178.256919 120.251195 
C 178.256919 119.720789 178.046186 119.212035 177.671132 118.836981 
C 177.296079 118.461927 176.787325 118.251195 176.256919 118.251195 
C 175.726513 118.251195 175.217759 118.461927 174.842705 118.836981 
C 174.467652 119.212035 174.256919 119.720789 174.256919 120.251195 
C 174.256919 120.781601 174.467652 121.290354 174.842705 121.665408 
C 175.217759 122.040462 175.726513 122.251195 176.256919 122.251195 
z
" clip-path="url(#pa40b3b4106)" style="fill: #0173b2; fill-opacity: 0.2; stroke: #0173b2; stroke-opacity: 0.6; stroke-width: 0.75"/>
    <path d="M 180.327299 137.811307 
C 180.857705 137.811307 181.366459 137.600575 181.741512 137.225521 
C 182.116566 136.850467 182.327299 136.341713 182.327299 135.811307 
C 182.327299 135.280901 182.116566 134.772147 181.741512 134.397094 
C 181.366459 134.02204 180.857705 133.811307 180.327299 133.811307 
C 179.796893 133.811307 179.288139 134.02204 178.913085 134.397094 
C 178.538031 134.772147 178.327299 135.280901 178.327299 135.811307 
C 178.327299 136.341713 178.538031 136.850467 178.913085 137.225521 
C 179.288139 137.600575 179.796893 137.811307 180.327299 137.811307 
z
" clip-path="url(#pa40b3b4106)" style="fill: #0173b2; fill-opacity: 0.2; stroke: #0173b2; stroke-opacity: 0.6; stroke-width: 0.75"/>
    <path d="M 176.008335 133.622046 
C 176.538741 133.622046 177.047494 133.411314 177.422548 133.03626 
C 177.797602 132.661206 178.008335 132.152452 178.008335 131.622046 
C 178.008335 131.09164 177.797602 130.582886 177.422548 130.207833 
C 177.047494 129.832779 176.538741 129.622046 176.008335 129.622046 
C 175.477928 129.622046 174.969175 129.832779 174.594121 130.207833 
C 174.219067 130.582886 174.008335 131.09164 174.008335 131.622046 
C 174.008335 132.152452 174.219067 132.661206 174.594121 133.03626 
C 174.969175 133.411314 175.477928 133.622046 176.008335 133.622046 
z
" clip-path="url(#pa40b3b4106)" style="fill: #0173b2; fill-opacity: 0.2; stroke: #0173b2; stroke-opacity: 0.6; stroke-width: 0.75"/>
    <path d="M 174.214597 130.031251 
C 174.745003 130.031251 175.253757 129.820518 175.628811 129.445465 
C 176.003864 129.070411 176.214597 128.561657 176.214597 128.031251 
C 176.214597 127.500845 176.003864 126.992091 175.628811 126.617037 
C 175.253757 126.241984 174.745003 126.031251 174.214597 126.031251 
C 173.684191 126.031251 173.175437 126.241984 172.800383 126.617037 
C 172.42533 126.992091 172.214597 127.500845 172.214597 128.031251 
C 172.214597 128.561657 172.42533 129.070411 172.800383 129.445465 
C 173.175437 129.820518 173.684191 130.031251 174.214597 130.031251 
z
" clip-path="url(#pa40b3b4106)" style="fill: #0173b2; fill-opacity: 0.2; stroke: #0173b2; stroke-opacity: 0.6; stroke-width: 0.75"/>
    <path d="M 177.410934 135.713959 
C 177.94134 135.713959 178.450093 135.503226 178.825147 135.128172 
C 179.200201 134.753119 179.410934 134.244365 179.410934 133.713959 
C 179.410934 133.183553 179.200201 132.674799 178.825147 132.299745 
C 178.450093 131.924692 177.94134 131.713959 177.410934 131.713959 
C 176.880527 131.713959 176.371774 131.924692 175.99672 132.299745 
C 175.621666 132.674799 175.410934 133.183553 175.410934 133.713959 
C 175.410934 134.244365 175.621666 134.753119 175.99672 135.128172 
C 176.371774 135.503226 176.880527 135.713959 177.410934 135.713959 
z
" clip-path="url(#pa40b3b4106)" style="fill: #0173b2; fill-opacity: 0.2; stroke: #0173b2; stroke-opacity: 0.6; stroke-width: 0.75"/>
    <path d="M 179.39702 126.138505 
C 179.927426 126.138505 180.43618 125.927772 180.811234 125.552719 
C 181.186288 125.177665 181.39702 124.668911 181.39702 124.138505 
C 181.39702 123.608099 181.186288 123.099345 180.811234 122.724292 
C 180.43618 122.349238 179.927426 122.138505 179.39702 122.138505 
C 178.866614 122.138505 178.35786 122.349238 177.982807 122.724292 
C 177.607753 123.099345 177.39702 123.608099 177.39702 124.138505 
C 177.39702 124.668911 177.607753 125.177665 177.982807 125.552719 
C 178.35786 125.927772 178.866614 126.138505 179.39702 126.138505 
z
" clip-path="url(#pa40b3b4106)" style="fill: #0173b2; fill-opacity: 0.2; stroke: #0173b2; stroke-opacity: 0.6; stroke-width: 0.75"/>
    <path d="M 178.909447 141.698618 
C 179.439853 141.698618 179.948607 141.487885 180.323661 141.112831 
C 180.698715 140.737777 180.909447 140.229024 180.909447 139.698618 
C 180.909447 139.168211 180.698715 138.659458 180.323661 138.284404 
C 179.948607 137.90935 179.439853 137.698618 178.909447 137.698618 
C 178.379041 137.698618 177.870288 137.90935 177.495234 138.284404 
C 177.12018 138.659458 176.909447 139.168211 176.909447 139.698618 
C 176.909447 140.229024 177.12018 140.737777 177.495234 141.112831 
C 177.870288 141.487885 178.379041 141.698618 178.909447 141.698618 
z
" clip-path="url(#pa40b3b4106)" style="fill: #0173b2; fill-opacity: 0.2; stroke: #0173b2; stroke-opacity: 0.6; stroke-width: 0.75"/>
    <path d="M 176.88857 126.736971 
C 177.418976 126.736971 177.92773 126.526238 178.302784 126.151185 
C 178.677837 125.776131 178.88857 125.267377 178.88857 124.736971 
C 178.88857 124.206565 178.677837 123.697811 178.302784 123.322757 
C 177.92773 122.947704 177.418976 122.736971 176.88857 122.736971 
C 176.358164 122.736971 175.84941 122.947704 175.474356 123.322757 
C 175.099303 123.697811 174.88857 124.206565 174.88857 124.736971 
C 174.88857 125.267377 175.099303 125.776131 175.474356 126.151185 
C 175.84941 126.526238 176.358164 126.736971 176.88857 126.736971 
z
" clip-path="url(#pa40b3b4106)" style="fill: #0173b2; fill-opacity: 0.2; stroke: #0173b2; stroke-opacity: 0.6; stroke-width: 0.75"/>
    <path d="M 175.255445 130.817986 
C 175.785852 130.817986 176.294605 130.607253 176.669659 130.2322 
C 177.044713 129.857146 177.255445 129.348392 177.255445 128.817986 
C 177.255445 128.28758 177.044713 127.778826 176.669659 127.403773 
C 176.294605 127.028719 175.785852 126.817986 175.255445 126.817986 
C 174.725039 126.817986 174.216286 127.028719 173.841232 127.403773 
C 173.466178 127.778826 173.255445 128.28758 173.255445 128.817986 
C 173.255445 129.348392 173.466178 129.857146 173.841232 130.2322 
C 174.216286 130.607253 174.725039 130.817986 175.255445 130.817986 
z
" clip-path="url(#pa40b3b4106)" style="fill: #0173b2; fill-opacity: 0.2; stroke: #0173b2; stroke-opacity: 0.6; stroke-width: 0.75"/>
    <path d="M 176.64929 133.521197 
C 177.179696 133.521197 177.688449 133.310464 178.063503 132.93541 
C 178.438557 132.560356 178.64929 132.051603 178.64929 131.521197 
C 178.64929 130.99079 178.438557 130.482037 178.063503 130.106983 
C 177.688449 129.731929 177.179696 129.521197 176.64929 129.521197 
C 176.118883 129.521197 175.61013 129.731929 175.235076 130.106983 
C 174.860022 130.482037 174.64929 130.99079 174.64929 131.521197 
C 174.64929 132.051603 174.860022 132.560356 175.235076 132.93541 
C 175.61013 133.310464 176.118883 133.521197 176.64929 133.521197 
z
" clip-path="url(#pa40b3b4106)" style="fill: #0173b2; fill-opacity: 0.2; stroke: #0173b2; stroke-opacity: 0.6; stroke-width: 0.75"/>
    <path d="M 174.242349 136.689355 
C 174.772755 136.689355 175.281509 136.478622 175.656562 136.103569 
C 176.031616 135.728515 176.242349 135.219761 176.242349 134.689355 
C 176.242349 134.158949 176.031616 133.650195 175.656562 133.275142 
C 175.281509 132.900088 174.772755 132.689355 174.242349 132.689355 
C 173.711943 132.689355 173.203189 132.900088 172.828135 133.275142 
C 172.453081 133.650195 172.242349 134.158949 172.242349 134.689355 
C 172.242349 135.219761 172.453081 135.728515 172.828135 136.103569 
C 173.203189 136.478622 173.711943 136.689355 174.242349 136.689355 
z
" clip-path="url(#pa40b3b4106)" style="fill: #0173b2; fill-opacity: 0.2; stroke: #0173b2; stroke-opacity: 0.6; stroke-width: 0.75"/>
    <path d="M 179.00988 128.506771 
C 179.540286 128.506771 180.04904 128.296038 180.424094 127.920984 
C 180.799148 127.54593 181.00988 127.037177 181.00988 126.506771 
C 181.00988 125.976365 180.799148 125.467611 180.424094 125.092557 
C 180.04904 124.717503 179.540286 124.506771 179.00988 124.506771 
C 178.479474 124.506771 177.970721 124.717503 177.595667 125.092557 
C 177.220613 125.467611 177.00988 125.976365 177.00988 126.506771 
C 177.00988 127.037177 177.220613 127.54593 177.595667 127.920984 
C 177.970721 128.296038 178.479474 128.506771 179.00988 128.506771 
z
" clip-path="url(#pa40b3b4106)" style="fill: #0173b2; fill-opacity: 0.2; stroke: #0173b2; stroke-opacity: 0.6; stroke-width: 0.75"/>
    <path d="M 218.051749 53.018416 
L 216.051749 57.018416 
L 220.051749 57.018416 
z
" clip-path="url(#pa40b3b4106)" style="fill: #de8f05; fill-opacity: 0.2; stroke: #de8f05; stroke-opacity: 0.6; stroke-width: 0.75"/>
    <path d="M 219.234576 53.616882 
L 217.234576 57.616882 
L 221.234576 57.616882 
z
" clip-path="url(#pa40b3b4106)" style="fill: #de8f05; fill-opacity: 0.2; stroke: #de8f05; stroke-opacity: 0.6; stroke-width: 0.75"/>
    <path d="M 219.098113 39.852167 
L 217.098113 43.852167 
L 221.098113 43.852167 
z
" clip-path="url(#pa40b3b4106)" style="fill: #de8f05; fill-opacity: 0.2; stroke: #de8f05; stroke-opacity: 0.6; stroke-width: 0.75"/>
    <path d="M 221.816053 47.033757 
L 219.816053 51.033757 
L 223.816053 51.033757 
z
" clip-path="url(#pa40b3b4106)" style="fill: #de8f05; fill-opacity: 0.2; stroke: #de8f05; stroke-opacity: 0.6; stroke-width: 0.75"/>
    <path d="M 220.934412 50.624552 
L 218.934412 54.624552 
L 222.934412 54.624552 
z
" clip-path="url(#pa40b3b4106)" style="fill: #de8f05; fill-opacity: 0.2; stroke: #de8f05; stroke-opacity: 0.6; stroke-width: 0.75"/>
    <path d="M 218.645856 88.624417 
L 216.645856 92.624417 
L 220.645856 92.624417 
z
" clip-path="url(#pa40b3b4106)" style="fill: #de8f05; fill-opacity: 0.2; stroke: #de8f05; stroke-opacity: 0.6; stroke-width: 0.75"/>
    <path d="M 222.62459 83.83669 
L 220.62459 87.83669 
L 224.62459 87.83669 
z
" clip-path="url(#pa40b3b4106)" style="fill: #de8f05; fill-opacity: 0.2; stroke: #de8f05; stroke-opacity: 0.6; stroke-width: 0.75"/>
    <path d="M 221.048106 76.056634 
L 219.048106 80.056634 
L 223.048106 80.056634 
z
" clip-path="url(#pa40b3b4106)" style="fill: #de8f05; fill-opacity: 0.2; stroke: #de8f05; stroke-opacity: 0.6; stroke-width: 0.75"/>
    <path d="M 221.187079 38.563602 
L 219.187079 42.563602 
L 223.187079 42.563602 
z
" clip-path="url(#pa40b3b4106)" style="fill: #de8f05; fill-opacity: 0.2; stroke: #de8f05; stroke-opacity: 0.6; stroke-width: 0.75"/>
    <path d="M 222.455066 38.535893 
L 220.455066 42.535893 
L 224.455066 42.535893 
z
" clip-path="url(#pa40b3b4106)" style="fill: #de8f05; fill-opacity: 0.2; stroke: #de8f05; stroke-opacity: 0.6; stroke-width: 0.75"/>
    <path d="M 218.743457 51.685444 
L 216.743457 55.685444 
L 220.743457 55.685444 
z
" clip-path="url(#pa40b3b4106)" style="fill: #de8f05; fill-opacity: 0.2; stroke: #de8f05; stroke-opacity: 0.6; stroke-width: 0.75"/>
    <path d="M 218.564786 49.395415 
L 216.564786 53.395415 
L 220.564786 53.395415 
z
" clip-path="url(#pa40b3b4106)" style="fill: #de8f05; fill-opacity: 0.2; stroke: #de8f05; stroke-opacity: 0.6; stroke-width: 0.75"/>
    <path d="M 217.966129 42.907626 
L 215.966129 46.907626 
L 219.966129 46.907626 
z
" clip-path="url(#pa40b3b4106)" style="fill: #de8f05; fill-opacity: 0.2; stroke: #de8f05; stroke-opacity: 0.6; stroke-width: 0.75"/>
   </g>
   <g id="PathCollection_4">
    <path d="M 168.482625 133.503646 
C 169.278234 133.503646 170.041365 133.187547 170.603945 132.624966 
C 171.166526 132.062386 171.482625 131.299255 171.482625 130.503646 
C 171.482625 129.708037 171.166526 128.944906 170.603945 128.382326 
C 170.041365 127.819745 169.278234 127.503646 168.482625 127.503646 
C 167.687016 127.503646 166.923885 127.819745 166.361305 128.382326 
C 165.798724 128.944906 165.482625 129.708037 165.482625 130.503646 
C 165.482625 131.299255 165.798724 132.062386 166.361305 132.624966 
C 166.923885 133.187547 167.687016 133.503646 168.482625 133.503646 
z
" clip-path="url(#pa40b3b4106)" style="fill: #0173b2; stroke: #0173b2; stroke-width: 0.5"/>
    <path d="M 211.215229 53.903961 
L 208.215229 59.903961 
L 214.215229 59.903961 
z
" clip-path="url(#pa40b3b4106)" style="fill: #de8f05; stroke: #de8f05; stroke-width: 0.5"/>
   </g>
   <g id="LineCollection_2">
    <path d="M 168.482625 136.196862 
L 168.482625 124.81043 
" clip-path="url(#pa40b3b4106)" style="fill: none; stroke: #0173b2; stroke-width: 1.5; stroke-linecap: round"/>
    <path d="M 211.215229 73.867562 
L 211.215229 39.94036 
" clip-path="url(#pa40b3b4106)" style="fill: none; stroke: #de8f05; stroke-width: 1.5; stroke-linecap: round"/>
   </g>
   <g id="patch_8">
    <path d="M 151.389583 177.720156 
L 151.389583 21.789375 
" style="fill: none; stroke: #ffffff; stroke-width: 1.25; stroke-linejoin: miter; stroke-linecap: square"/>
   </g>
   <g id="patch_9">
    <path d="M 236.854792 177.720156 
L 236.854792 21.789375 
" style="fill: none; stroke: #ffffff; stroke-width: 1.25; stroke-linejoin: miter; stroke-linecap: square"/>
   </g>
   <g id="patch_10">
    <path d="M 151.389583 177.720156 
L 236.854792 177.720156 
" style="fill: none; stroke: #ffffff; stroke-width: 1.25; stroke-linejoin: miter; stroke-linecap: square"/>
   </g>
   <g id="patch_11">
    <path d="M 151.389583 21.789375 
L 236.854792 21.789375 
" style="fill: none; stroke: #ffffff; stroke-width: 1.25; stroke-linejoin: miter; stroke-linecap: square"/>
   </g>
   <g id="text_13">
    <text style="fill: #262626; font: 12px 'Arial', 'DejaVu Sans', 'Liberation Sans', 'Bitstream Vera Sans', sans-serif; text-anchor: middle" x="194.122187" y="15.789375" transform="rotate(-0 194.122187 15.789375)">18</text>
   </g>
  </g>
  <g id="axes_3">
   <g id="patch_12">
    <path d="M 255.814792 177.720156 
L 341.28 177.720156 
L 341.28 21.789375 
L 255.814792 21.789375 
z
" style="fill: #eaeaf2"/>
   </g>
   <g id="matplotlib.axis_5">
    <g id="xtick_5">
     <g id="text_14">
      <text style="fill: #262626; font: 11px 'Arial', 'DejaVu Sans', 'Liberation Sans', 'Bitstream Vera Sans', sans-serif; text-anchor: middle" x="270.058993" y="195.09375" transform="rotate(-0 270.058993 195.09375)">FeS</text>
     </g>
    </g>
    <g id="xtick_6">
     <g id="text_15">
      <text style="fill: #262626; font: 11px 'Arial', 'DejaVu Sans', 'Liberation Sans', 'Bitstream Vera Sans', sans-serif; text-anchor: middle" x="298.547396" y="195.09375" transform="rotate(-0 298.547396 195.09375)">FeD</text>
     </g>
    </g>
    <g id="xtick_7">
     <g id="text_16">
      <text style="fill: #262626; font: 11px 'Arial', 'DejaVu Sans', 'Liberation Sans', 'Bitstream Vera Sans', sans-serif; text-anchor: middle" x="327.035799" y="195.09375" transform="rotate(-0 327.035799 195.09375)">FeR</text>
     </g>
    </g>
   </g>
   <g id="matplotlib.axis_6">
    <g id="ytick_17">
     <g id="line2d_29">
      <path d="M 255.814792 174.434794 
L 341.28 174.434794 
" clip-path="url(#p41e5ec2adb)" style="fill: none; stroke: #ffffff; stroke-opacity: 0.8; stroke-linecap: round"/>
     </g>
     <g id="line2d_30">
      <g>
       <use xlink:href="#m8c79d5b240" x="255.814792" y="174.434794" style="fill: #808080; stroke: #808080; stroke-width: 1.25"/>
      </g>
     </g>
    </g>
    <g id="ytick_18">
     <g id="line2d_31">
      <path d="M 255.814792 149.596217 
L 341.28 149.596217 
" clip-path="url(#p41e5ec2adb)" style="fill: none; stroke: #ffffff; stroke-opacity: 0.8; stroke-linecap: round"/>
     </g>
     <g id="line2d_32">
      <g>
       <use xlink:href="#m8c79d5b240" x="255.814792" y="149.596217" style="fill: #808080; stroke: #808080; stroke-width: 1.25"/>
      </g>
     </g>
    </g>
    <g id="ytick_19">
     <g id="line2d_33">
      <path d="M 255.814792 130.329919 
L 341.28 130.329919 
" clip-path="url(#p41e5ec2adb)" style="fill: none; stroke: #ffffff; stroke-opacity: 0.8; stroke-linecap: round"/>
     </g>
     <g id="line2d_34">
      <g>
       <use xlink:href="#m8c79d5b240" x="255.814792" y="130.329919" style="fill: #808080; stroke: #808080; stroke-width: 1.25"/>
      </g>
     </g>
    </g>
    <g id="ytick_20">
     <g id="line2d_35">
      <path d="M 255.814792 95.32191 
L 341.28 95.32191 
" clip-path="url(#p41e5ec2adb)" style="fill: none; stroke: #ffffff; stroke-opacity: 0.8; stroke-linecap: round"/>
     </g>
     <g id="line2d_36">
      <g>
       <use xlink:href="#m8c79d5b240" x="255.814792" y="95.32191" style="fill: #808080; stroke: #808080; stroke-width: 1.25"/>
      </g>
     </g>
    </g>
    <g id="ytick_21">
     <g id="line2d_37">
      <path d="M 255.814792 70.483333 
L 341.28 70.483333 
" clip-path="url(#p41e5ec2adb)" style="fill: none; stroke: #ffffff; stroke-opacity: 0.8; stroke-linecap: round"/>
     </g>
     <g id="line2d_38">
      <g>
       <use xlink:href="#m8c79d5b240" x="255.814792" y="70.483333" style="fill: #808080; stroke: #808080; stroke-width: 1.25"/>
      </g>
     </g>
    </g>
    <g id="ytick_22">
     <g id="line2d_39">
      <path d="M 255.814792 35.475324 
L 341.28 35.475324 
" clip-path="url(#p41e5ec2adb)" style="fill: none; stroke: #ffffff; stroke-opacity: 0.8; stroke-linecap: round"/>
     </g>
     <g id="line2d_40">
      <g>
       <use xlink:href="#m8c79d5b240" x="255.814792" y="35.475324" style="fill: #808080; stroke: #808080; stroke-width: 1.25"/>
      </g>
     </g>
    </g>
    <g id="ytick_23">
     <g id="line2d_41">
      <g>
       <use xlink:href="#m3881b85d81" x="255.814792" y="161.125367" style="fill: #808080; stroke: #808080"/>
      </g>
     </g>
    </g>
    <g id="ytick_24">
     <g id="line2d_42">
      <g>
       <use xlink:href="#m3881b85d81" x="255.814792" y="139.426785" style="fill: #808080; stroke: #808080"/>
      </g>
     </g>
    </g>
   </g>
   <g id="PathCollection_5">
    <path d="M 274.275375 135.370624 
C 274.805782 135.370624 275.314535 135.159892 275.689589 134.784838 
C 276.064643 134.409784 276.275375 133.901031 276.275375 133.370624 
C 276.275375 132.840218 276.064643 132.331465 275.689589 131.956411 
C 275.314535 131.581357 274.805782 131.370624 274.275375 131.370624 
C 273.744969 131.370624 273.236216 131.581357 272.861162 131.956411 
C 272.486108 132.331465 272.275375 132.840218 272.275375 133.370624 
C 272.275375 133.901031 272.486108 134.409784 272.861162 134.784838 
C 273.236216 135.159892 273.744969 135.370624 274.275375 135.370624 
z
" clip-path="url(#p41e5ec2adb)" style="fill: #0173b2; fill-opacity: 0.2; stroke: #0173b2; stroke-opacity: 0.6; stroke-width: 0.75"/>
    <path d="M 272.736549 118.869086 
C 273.266955 118.869086 273.775709 118.658353 274.150763 118.2833 
C 274.525816 117.908246 274.736549 117.399492 274.736549 116.869086 
C 274.736549 116.33868 274.525816 115.829926 274.150763 115.454872 
C 273.775709 115.079819 273.266955 114.869086 272.736549 114.869086 
C 272.206143 114.869086 271.697389 115.079819 271.322335 115.454872 
C 270.947282 115.829926 270.736549 116.33868 270.736549 116.869086 
C 270.736549 117.399492 270.947282 117.908246 271.322335 118.2833 
C 271.697389 118.658353 272.206143 118.869086 272.736549 118.869086 
z
" clip-path="url(#p41e5ec2adb)" style="fill: #0173b2; fill-opacity: 0.2; stroke: #0173b2; stroke-opacity: 0.6; stroke-width: 0.75"/>
    <path d="M 274.774675 135.218177 
C 275.305081 135.218177 275.813835 135.007444 276.188889 134.63239 
C 276.563942 134.257336 276.774675 133.748583 276.774675 133.218177 
C 276.774675 132.68777 276.563942 132.179017 276.188889 131.803963 
C 275.813835 131.428909 275.305081 131.218177 274.774675 131.218177 
C 274.244269 131.218177 273.735515 131.428909 273.360461 131.803963 
C 272.985408 132.179017 272.774675 132.68777 272.774675 133.218177 
C 272.774675 133.748583 272.985408 134.257336 273.360461 134.63239 
C 273.735515 135.007444 274.244269 135.218177 274.774675 135.218177 
z
" clip-path="url(#p41e5ec2adb)" style="fill: #0173b2; fill-opacity: 0.2; stroke: #0173b2; stroke-opacity: 0.6; stroke-width: 0.75"/>
    <path d="M 271.950379 141.543033 
C 272.480785 141.543033 272.989539 141.332301 273.364593 140.957247 
C 273.739647 140.582193 273.950379 140.07344 273.950379 139.543033 
C 273.950379 139.012627 273.739647 138.503874 273.364593 138.12882 
C 272.989539 137.753766 272.480785 137.543033 271.950379 137.543033 
C 271.419973 137.543033 270.91122 137.753766 270.536166 138.12882 
C 270.161112 138.503874 269.950379 139.012627 269.950379 139.543033 
C 269.950379 140.07344 270.161112 140.582193 270.536166 140.957247 
C 270.91122 141.332301 271.419973 141.543033 271.950379 141.543033 
z
" clip-path="url(#p41e5ec2adb)" style="fill: #0173b2; fill-opacity: 0.2; stroke: #0173b2; stroke-opacity: 0.6; stroke-width: 0.75"/>
    <path d="M 272.777356 135.223703 
C 273.307762 135.223703 273.816516 135.01297 274.191569 134.637916 
C 274.566623 134.262862 274.777356 133.754109 274.777356 133.223703 
C 274.777356 132.693297 274.566623 132.184543 274.191569 131.809489 
C 273.816516 131.434435 273.307762 131.223703 272.777356 131.223703 
C 272.24695 131.223703 271.738196 131.434435 271.363142 131.809489 
C 270.988088 132.184543 270.777356 132.693297 270.777356 133.223703 
C 270.777356 133.754109 270.988088 134.262862 271.363142 134.637916 
C 271.738196 135.01297 272.24695 135.223703 272.777356 135.223703 
z
" clip-path="url(#p41e5ec2adb)" style="fill: #0173b2; fill-opacity: 0.2; stroke: #0173b2; stroke-opacity: 0.6; stroke-width: 0.75"/>
    <path d="M 274.340831 137.890836 
C 274.871237 137.890836 275.379991 137.680104 275.755045 137.30505 
C 276.130099 136.929996 276.340831 136.421243 276.340831 135.890836 
C 276.340831 135.36043 276.130099 134.851677 275.755045 134.476623 
C 275.379991 134.101569 274.871237 133.890836 274.340831 133.890836 
C 273.810425 133.890836 273.301671 134.101569 272.926618 134.476623 
C 272.551564 134.851677 272.340831 135.36043 272.340831 135.890836 
C 272.340831 136.421243 272.551564 136.929996 272.926618 137.30505 
C 273.301671 137.680104 273.810425 137.890836 274.340831 137.890836 
z
" clip-path="url(#p41e5ec2adb)" style="fill: #0173b2; fill-opacity: 0.2; stroke: #0173b2; stroke-opacity: 0.6; stroke-width: 0.75"/>
    <path d="M 274.572049 124.467572 
C 275.102455 124.467572 275.611209 124.25684 275.986262 123.881786 
C 276.361316 123.506732 276.572049 122.997978 276.572049 122.467572 
C 276.572049 121.937166 276.361316 121.428412 275.986262 121.053359 
C 275.611209 120.678305 275.102455 120.467572 274.572049 120.467572 
C 274.041643 120.467572 273.532889 120.678305 273.157835 121.053359 
C 272.782781 121.428412 272.572049 121.937166 272.572049 122.467572 
C 272.572049 122.997978 272.782781 123.506732 273.157835 123.881786 
C 273.532889 124.25684 274.041643 124.467572 274.572049 124.467572 
z
" clip-path="url(#p41e5ec2adb)" style="fill: #0173b2; fill-opacity: 0.2; stroke: #0173b2; stroke-opacity: 0.6; stroke-width: 0.75"/>
    <path d="M 274.139851 115.747675 
C 274.670257 115.747675 275.179011 115.536942 275.554065 115.161888 
C 275.929118 114.786834 276.139851 114.278081 276.139851 113.747675 
C 276.139851 113.217268 275.929118 112.708515 275.554065 112.333461 
C 275.179011 111.958407 274.670257 111.747675 274.139851 111.747675 
C 273.609445 111.747675 273.100691 111.958407 272.725637 112.333461 
C 272.350584 112.708515 272.139851 113.217268 272.139851 113.747675 
C 272.139851 114.278081 272.350584 114.786834 272.725637 115.161888 
C 273.100691 115.536942 273.609445 115.747675 274.139851 115.747675 
z
" clip-path="url(#p41e5ec2adb)" style="fill: #0173b2; fill-opacity: 0.2; stroke: #0173b2; stroke-opacity: 0.6; stroke-width: 0.75"/>
    <path d="M 271.455644 103.918877 
C 271.98605 103.918877 272.494804 103.708144 272.869858 103.333091 
C 273.244911 102.958037 273.455644 102.449283 273.455644 101.918877 
C 273.455644 101.388471 273.244911 100.879717 272.869858 100.504663 
C 272.494804 100.12961 271.98605 99.918877 271.455644 99.918877 
C 270.925238 99.918877 270.416484 100.12961 270.041431 100.504663 
C 269.666377 100.879717 269.455644 101.388471 269.455644 101.918877 
C 269.455644 102.449283 269.666377 102.958037 270.041431 103.333091 
C 270.416484 103.708144 270.925238 103.918877 271.455644 103.918877 
z
" clip-path="url(#p41e5ec2adb)" style="fill: #0173b2; fill-opacity: 0.2; stroke: #0173b2; stroke-opacity: 0.6; stroke-width: 0.75"/>
    <path d="M 274.307903 172.632393 
C 274.838309 172.632393 275.347063 172.421661 275.722117 172.046607 
C 276.09717 171.671553 276.307903 171.1628 276.307903 170.632393 
C 276.307903 170.101987 276.09717 169.593234 275.722117 169.21818 
C 275.347063 168.843126 274.838309 168.632393 274.307903 168.632393 
C 273.777497 168.632393 273.268743 168.843126 272.89369 169.21818 
C 272.518636 169.593234 272.307903 170.101987 272.307903 170.632393 
C 272.307903 171.1628 272.518636 171.671553 272.89369 172.046607 
C 273.268743 172.421661 273.777497 172.632393 274.307903 172.632393 
z
" clip-path="url(#p41e5ec2adb)" style="fill: #0173b2; fill-opacity: 0.2; stroke: #0173b2; stroke-opacity: 0.6; stroke-width: 0.75"/>
    <path d="M 271.948406 154.718455 
C 272.478812 154.718455 272.987566 154.507722 273.36262 154.132668 
C 273.737673 153.757615 273.948406 153.248861 273.948406 152.718455 
C 273.948406 152.188049 273.737673 151.679295 273.36262 151.304241 
C 272.987566 150.929188 272.478812 150.718455 271.948406 150.718455 
C 271.418 150.718455 270.909246 150.929188 270.534193 151.304241 
C 270.159139 151.679295 269.948406 152.188049 269.948406 152.718455 
C 269.948406 153.248861 270.159139 153.757615 270.534193 154.132668 
C 270.909246 154.507722 271.418 154.718455 271.948406 154.718455 
z
" clip-path="url(#p41e5ec2adb)" style="fill: #0173b2; fill-opacity: 0.2; stroke: #0173b2; stroke-opacity: 0.6; stroke-width: 0.75"/>
    <path d="M 272.954221 130.381329 
C 273.484627 130.381329 273.993381 130.170597 274.368434 129.795543 
C 274.743488 129.420489 274.954221 128.911736 274.954221 128.381329 
C 274.954221 127.850923 274.743488 127.34217 274.368434 126.967116 
C 273.993381 126.592062 273.484627 126.381329 272.954221 126.381329 
C 272.423815 126.381329 271.915061 126.592062 271.540007 126.967116 
C 271.164953 127.34217 270.954221 127.850923 270.954221 128.381329 
C 270.954221 128.911736 271.164953 129.420489 271.540007 129.795543 
C 271.915061 130.170597 272.423815 130.381329 272.954221 130.381329 
z
" clip-path="url(#p41e5ec2adb)" style="fill: #0173b2; fill-opacity: 0.2; stroke: #0173b2; stroke-opacity: 0.6; stroke-width: 0.75"/>
    <path d="M 270.861682 134.218739 
C 271.392088 134.218739 271.900841 134.008007 272.275895 133.632953 
C 272.650949 133.257899 272.861682 132.749146 272.861682 132.218739 
C 272.861682 131.688333 272.650949 131.17958 272.275895 130.804526 
C 271.900841 130.429472 271.392088 130.218739 270.861682 130.218739 
C 270.331276 130.218739 269.822522 130.429472 269.447468 130.804526 
C 269.072414 131.17958 268.861682 131.688333 268.861682 132.218739 
C 268.861682 132.749146 269.072414 133.257899 269.447468 133.632953 
C 269.822522 134.008007 270.331276 134.218739 270.861682 134.218739 
z
" clip-path="url(#p41e5ec2adb)" style="fill: #0173b2; fill-opacity: 0.2; stroke: #0173b2; stroke-opacity: 0.6; stroke-width: 0.75"/>
    <path d="M 274.868337 132.432415 
C 275.398744 132.432415 275.907497 132.221682 276.282551 131.846629 
C 276.657605 131.471575 276.868337 130.962821 276.868337 130.432415 
C 276.868337 129.902009 276.657605 129.393255 276.282551 129.018201 
C 275.907497 128.643148 275.398744 128.432415 274.868337 128.432415 
C 274.337931 128.432415 273.829178 128.643148 273.454124 129.018201 
C 273.07907 129.393255 272.868337 129.902009 272.868337 130.432415 
C 272.868337 130.962821 273.07907 131.471575 273.454124 131.846629 
C 273.829178 132.221682 274.337931 132.432415 274.868337 132.432415 
z
" clip-path="url(#p41e5ec2adb)" style="fill: #0173b2; fill-opacity: 0.2; stroke: #0173b2; stroke-opacity: 0.6; stroke-width: 0.75"/>
    <path d="M 274.16115 156.633098 
C 274.691556 156.633098 275.200309 156.422365 275.575363 156.047312 
C 275.950417 155.672258 276.16115 155.163504 276.16115 154.633098 
C 276.16115 154.102692 275.950417 153.593938 275.575363 153.218884 
C 275.200309 152.843831 274.691556 152.633098 274.16115 152.633098 
C 273.630743 152.633098 273.12199 152.843831 272.746936 153.218884 
C 272.371882 153.593938 272.16115 154.102692 272.16115 154.633098 
C 272.16115 155.163504 272.371882 155.672258 272.746936 156.047312 
C 273.12199 156.422365 273.630743 156.633098 274.16115 156.633098 
z
" clip-path="url(#p41e5ec2adb)" style="fill: #0173b2; fill-opacity: 0.2; stroke: #0173b2; stroke-opacity: 0.6; stroke-width: 0.75"/>
    <path d="M 272.345488 98.142431 
C 272.875895 98.142431 273.384648 97.931698 273.759702 97.556644 
C 274.134756 97.181591 274.345488 96.672837 274.345488 96.142431 
C 274.345488 95.612025 274.134756 95.103271 273.759702 94.728217 
C 273.384648 94.353164 272.875895 94.142431 272.345488 94.142431 
C 271.815082 94.142431 271.306329 94.353164 270.931275 94.728217 
C 270.556221 95.103271 270.345488 95.612025 270.345488 96.142431 
C 270.345488 96.672837 270.556221 97.181591 270.931275 97.556644 
C 271.306329 97.931698 271.815082 98.142431 272.345488 98.142431 
z
" clip-path="url(#p41e5ec2adb)" style="fill: #0173b2; fill-opacity: 0.2; stroke: #0173b2; stroke-opacity: 0.6; stroke-width: 0.75"/>
    <path d="M 274.162572 156.079192 
C 274.692978 156.079192 275.201732 155.868459 275.576786 155.493405 
C 275.951839 155.118351 276.162572 154.609598 276.162572 154.079192 
C 276.162572 153.548785 275.951839 153.040032 275.576786 152.664978 
C 275.201732 152.289924 274.692978 152.079192 274.162572 152.079192 
C 273.632166 152.079192 273.123412 152.289924 272.748358 152.664978 
C 272.373305 153.040032 272.162572 153.548785 272.162572 154.079192 
C 272.162572 154.609598 272.373305 155.118351 272.748358 155.493405 
C 273.123412 155.868459 273.632166 156.079192 274.162572 156.079192 
z
" clip-path="url(#p41e5ec2adb)" style="fill: #0173b2; fill-opacity: 0.2; stroke: #0173b2; stroke-opacity: 0.6; stroke-width: 0.75"/>
    <path d="M 271.605439 131.182105 
C 272.135845 131.182105 272.644598 130.971372 273.019652 130.596318 
C 273.394706 130.221264 273.605439 129.712511 273.605439 129.182105 
C 273.605439 128.651698 273.394706 128.142945 273.019652 127.767891 
C 272.644598 127.392837 272.135845 127.182105 271.605439 127.182105 
C 271.075032 127.182105 270.566279 127.392837 270.191225 127.767891 
C 269.816171 128.142945 269.605439 128.651698 269.605439 129.182105 
C 269.605439 129.712511 269.816171 130.221264 270.191225 130.596318 
C 270.566279 130.971372 271.075032 131.182105 271.605439 131.182105 
z
" clip-path="url(#p41e5ec2adb)" style="fill: #0173b2; fill-opacity: 0.2; stroke: #0173b2; stroke-opacity: 0.6; stroke-width: 0.75"/>
    <path d="M 274.514998 131.408328 
C 275.045404 131.408328 275.554158 131.197595 275.929212 130.822541 
C 276.304265 130.447488 276.514998 129.938734 276.514998 129.408328 
C 276.514998 128.877922 276.304265 128.369168 275.929212 127.994114 
C 275.554158 127.619061 275.045404 127.408328 274.514998 127.408328 
C 273.984592 127.408328 273.475838 127.619061 273.100784 127.994114 
C 272.725731 128.369168 272.514998 128.877922 272.514998 129.408328 
C 272.514998 129.938734 272.725731 130.447488 273.100784 130.822541 
C 273.475838 131.197595 273.984592 131.408328 274.514998 131.408328 
z
" clip-path="url(#p41e5ec2adb)" style="fill: #0173b2; fill-opacity: 0.2; stroke: #0173b2; stroke-opacity: 0.6; stroke-width: 0.75"/>
    <path d="M 271.609138 134.437438 
C 272.139544 134.437438 272.648297 134.226706 273.023351 133.851652 
C 273.398405 133.476598 273.609138 132.967845 273.609138 132.437438 
C 273.609138 131.907032 273.398405 131.398279 273.023351 131.023225 
C 272.648297 130.648171 272.139544 130.437438 271.609138 130.437438 
C 271.078731 130.437438 270.569978 130.648171 270.194924 131.023225 
C 269.81987 131.398279 269.609138 131.907032 269.609138 132.437438 
C 269.609138 132.967845 269.81987 133.476598 270.194924 133.851652 
C 270.569978 134.226706 271.078731 134.437438 271.609138 134.437438 
z
" clip-path="url(#p41e5ec2adb)" style="fill: #0173b2; fill-opacity: 0.2; stroke: #0173b2; stroke-opacity: 0.6; stroke-width: 0.75"/>
    <path d="M 302.967827 28.246032 
L 300.967827 32.246032 
L 304.967827 32.246032 
z
" clip-path="url(#p41e5ec2adb)" style="fill: #de8f05; fill-opacity: 0.2; stroke: #de8f05; stroke-opacity: 0.6; stroke-width: 0.75"/>
    <path d="M 300.578129 31.533268 
L 298.578129 35.533268 
L 302.578129 35.533268 
z
" clip-path="url(#p41e5ec2adb)" style="fill: #de8f05; fill-opacity: 0.2; stroke: #de8f05; stroke-opacity: 0.6; stroke-width: 0.75"/>
    <path d="M 300.237067 26.877138 
L 298.237067 30.877138 
L 302.237067 30.877138 
z
" clip-path="url(#p41e5ec2adb)" style="fill: #de8f05; fill-opacity: 0.2; stroke: #de8f05; stroke-opacity: 0.6; stroke-width: 0.75"/>
    <path d="M 301.95146 33.430107 
L 299.95146 37.430107 
L 303.95146 37.430107 
z
" clip-path="url(#p41e5ec2adb)" style="fill: #de8f05; fill-opacity: 0.2; stroke: #de8f05; stroke-opacity: 0.6; stroke-width: 0.75"/>
    <path d="M 301.932881 100.871216 
L 299.932881 104.871216 
L 303.932881 104.871216 
z
" clip-path="url(#p41e5ec2adb)" style="fill: #de8f05; fill-opacity: 0.2; stroke: #de8f05; stroke-opacity: 0.6; stroke-width: 0.75"/>
    <path d="M 303.02816 65.309536 
L 301.02816 69.309536 
L 305.02816 69.309536 
z
" clip-path="url(#p41e5ec2adb)" style="fill: #de8f05; fill-opacity: 0.2; stroke: #de8f05; stroke-opacity: 0.6; stroke-width: 0.75"/>
    <path d="M 299.505047 117.629277 
L 297.505047 121.629277 
L 301.505047 121.629277 
z
" clip-path="url(#p41e5ec2adb)" style="fill: #de8f05; fill-opacity: 0.2; stroke: #de8f05; stroke-opacity: 0.6; stroke-width: 0.75"/>
    <path d="M 299.42406 100.943032 
L 297.42406 104.943032 
L 301.42406 104.943032 
z
" clip-path="url(#p41e5ec2adb)" style="fill: #de8f05; fill-opacity: 0.2; stroke: #de8f05; stroke-opacity: 0.6; stroke-width: 0.75"/>
    <path d="M 300.5645 109.680438 
L 298.5645 113.680438 
L 302.5645 113.680438 
z
" clip-path="url(#p41e5ec2adb)" style="fill: #de8f05; fill-opacity: 0.2; stroke: #de8f05; stroke-opacity: 0.6; stroke-width: 0.75"/>
    <path d="M 300.685764 97.037902 
L 298.685764 101.037902 
L 302.685764 101.037902 
z
" clip-path="url(#p41e5ec2adb)" style="fill: #de8f05; fill-opacity: 0.2; stroke: #de8f05; stroke-opacity: 0.6; stroke-width: 0.75"/>
    <path d="M 301.786371 98.873605 
L 299.786371 102.873605 
L 303.786371 102.873605 
z
" clip-path="url(#p41e5ec2adb)" style="fill: #de8f05; fill-opacity: 0.2; stroke: #de8f05; stroke-opacity: 0.6; stroke-width: 0.75"/>
    <path d="M 299.946743 90.946133 
L 297.946743 94.946133 
L 301.946743 94.946133 
z
" clip-path="url(#p41e5ec2adb)" style="fill: #de8f05; fill-opacity: 0.2; stroke: #de8f05; stroke-opacity: 0.6; stroke-width: 0.75"/>
    <path d="M 299.117765 100.014312 
L 297.117765 104.014312 
L 301.117765 104.014312 
z
" clip-path="url(#p41e5ec2adb)" style="fill: #de8f05; fill-opacity: 0.2; stroke: #de8f05; stroke-opacity: 0.6; stroke-width: 0.75"/>
    <path d="M 303.204425 109.320532 
L 301.204425 113.320532 
L 305.204425 113.320532 
z
" clip-path="url(#p41e5ec2adb)" style="fill: #de8f05; fill-opacity: 0.2; stroke: #de8f05; stroke-opacity: 0.6; stroke-width: 0.75"/>
    <path d="M 299.900187 65.272015 
L 297.900187 69.272015 
L 301.900187 69.272015 
z
" clip-path="url(#p41e5ec2adb)" style="fill: #de8f05; fill-opacity: 0.2; stroke: #de8f05; stroke-opacity: 0.6; stroke-width: 0.75"/>
    <path d="M 303.421329 55.573584 
L 301.421329 59.573584 
L 305.421329 59.573584 
z
" clip-path="url(#p41e5ec2adb)" style="fill: #de8f05; fill-opacity: 0.2; stroke: #de8f05; stroke-opacity: 0.6; stroke-width: 0.75"/>
    <path d="M 325.62777 139.552565 
L 329.62777 139.552565 
L 329.62777 135.552565 
L 325.62777 135.552565 
z
" clip-path="url(#p41e5ec2adb)" style="fill: #029e73; fill-opacity: 0.2; stroke: #029e73; stroke-opacity: 0.6; stroke-width: 0.75"/>
    <path d="M 328.444389 143.07635 
L 332.444389 143.07635 
L 332.444389 139.07635 
L 328.444389 139.07635 
z
" clip-path="url(#p41e5ec2adb)" style="fill: #029e73; fill-opacity: 0.2; stroke: #029e73; stroke-opacity: 0.6; stroke-width: 0.75"/>
    <path d="M 326.557796 121.7372 
L 330.557796 121.7372 
L 330.557796 117.7372 
L 326.557796 117.7372 
z
" clip-path="url(#p41e5ec2adb)" style="fill: #029e73; fill-opacity: 0.2; stroke: #029e73; stroke-opacity: 0.6; stroke-width: 0.75"/>
    <path d="M 326.562852 120.478697 
L 330.562852 120.478697 
L 330.562852 116.478697 
L 326.562852 116.478697 
z
" clip-path="url(#p41e5ec2adb)" style="fill: #029e73; fill-opacity: 0.2; stroke: #029e73; stroke-opacity: 0.6; stroke-width: 0.75"/>
    <path d="M 330.132133 111.379561 
L 334.132133 111.379561 
L 334.132133 107.379561 
L 330.132133 107.379561 
z
" clip-path="url(#p41e5ec2adb)" style="fill: #029e73; fill-opacity: 0.2; stroke: #029e73; stroke-opacity: 0.6; stroke-width: 0.75"/>
    <path d="M 326.77843 134.188111 
L 330.77843 134.188111 
L 330.77843 130.188111 
L 326.77843 130.188111 
z
" clip-path="url(#p41e5ec2adb)" style="fill: #029e73; fill-opacity: 0.2; stroke: #029e73; stroke-opacity: 0.6; stroke-width: 0.75"/>
    <path d="M 328.226009 130.047515 
L 332.226009 130.047515 
L 332.226009 126.047515 
L 328.226009 126.047515 
z
" clip-path="url(#p41e5ec2adb)" style="fill: #029e73; fill-opacity: 0.2; stroke: #029e73; stroke-opacity: 0.6; stroke-width: 0.75"/>
    <path d="M 327.569927 112.176191 
L 331.569927 112.176191 
L 331.569927 108.176191 
L 327.569927 108.176191 
z
" clip-path="url(#p41e5ec2adb)" style="fill: #029e73; fill-opacity: 0.2; stroke: #029e73; stroke-opacity: 0.6; stroke-width: 0.75"/>
    <path d="M 329.657766 126.625114 
L 333.657766 126.625114 
L 333.657766 122.625114 
L 329.657766 122.625114 
z
" clip-path="url(#p41e5ec2adb)" style="fill: #029e73; fill-opacity: 0.2; stroke: #029e73; stroke-opacity: 0.6; stroke-width: 0.75"/>
    <path d="M 327.111778 141.296368 
L 331.111778 141.296368 
L 331.111778 137.296368 
L 327.111778 137.296368 
z
" clip-path="url(#p41e5ec2adb)" style="fill: #029e73; fill-opacity: 0.2; stroke: #029e73; stroke-opacity: 0.6; stroke-width: 0.75"/>
    <path d="M 328.758175 162.485525 
L 332.758175 162.485525 
L 332.758175 158.485525 
L 328.758175 158.485525 
z
" clip-path="url(#p41e5ec2adb)" style="fill: #029e73; fill-opacity: 0.2; stroke: #029e73; stroke-opacity: 0.6; stroke-width: 0.75"/>
    <path d="M 328.830842 147.057188 
L 332.830842 147.057188 
L 332.830842 143.057188 
L 328.830842 143.057188 
z
" clip-path="url(#p41e5ec2adb)" style="fill: #029e73; fill-opacity: 0.2; stroke: #029e73; stroke-opacity: 0.6; stroke-width: 0.75"/>
    <path d="M 328.457162 149.042247 
L 332.457162 149.042247 
L 332.457162 145.042247 
L 328.457162 145.042247 
z
" clip-path="url(#p41e5ec2adb)" style="fill: #029e73; fill-opacity: 0.2; stroke: #029e73; stroke-opacity: 0.6; stroke-width: 0.75"/>
    <path d="M 325.933432 105.837775 
L 329.933432 105.837775 
L 329.933432 101.837775 
L 325.933432 101.837775 
z
" clip-path="url(#p41e5ec2adb)" style="fill: #029e73; fill-opacity: 0.2; stroke: #029e73; stroke-opacity: 0.6; stroke-width: 0.75"/>
    <path d="M 327.750514 96.621181 
L 331.750514 96.621181 
L 331.750514 92.621181 
L 327.750514 92.621181 
z
" clip-path="url(#p41e5ec2adb)" style="fill: #029e73; fill-opacity: 0.2; stroke: #029e73; stroke-opacity: 0.6; stroke-width: 0.75"/>
   </g>
   <g id="PathCollection_6">
    <path d="M 267.210153 135.025775 
C 268.005762 135.025775 268.768892 134.709676 269.331473 134.147096 
C 269.894054 133.584515 270.210153 132.821385 270.210153 132.025775 
C 270.210153 131.230166 269.894054 130.467036 269.331473 129.904455 
C 268.768892 129.341874 268.005762 129.025775 267.210153 129.025775 
C 266.414543 129.025775 265.651413 129.341874 265.088832 129.904455 
C 264.526252 130.467036 264.210153 131.230166 264.210153 132.025775 
C 264.210153 132.821385 264.526252 133.584515 265.088832 134.147096 
C 265.651413 134.709676 266.414543 135.025775 267.210153 135.025775 
z
" clip-path="url(#p41e5ec2adb)" style="fill: #0173b2; stroke: #0173b2; stroke-width: 0.5"/>
    <path d="M 295.698556 75.972383 
L 292.698556 81.972383 
L 298.698556 81.972383 
z
" clip-path="url(#p41e5ec2adb)" style="fill: #de8f05; stroke: #de8f05; stroke-width: 0.5"/>
    <path d="M 321.186958 130.440106 
L 327.186958 130.440106 
L 327.186958 124.440106 
L 321.186958 124.440106 
z
" clip-path="url(#p41e5ec2adb)" style="fill: #029e73; stroke: #029e73; stroke-width: 0.5"/>
   </g>
   <g id="LineCollection_3">
    <path d="M 267.210153 149.606257 
L 267.210153 114.445293 
" clip-path="url(#p41e5ec2adb)" style="fill: none; stroke: #0173b2; stroke-width: 1.5; stroke-linecap: round"/>
    <path d="M 295.698556 111.732823 
L 295.698556 46.211943 
" clip-path="url(#p41e5ec2adb)" style="fill: none; stroke: #de8f05; stroke-width: 1.5; stroke-linecap: round"/>
    <path d="M 324.186958 145.653604 
L 324.186958 109.226607 
" clip-path="url(#p41e5ec2adb)" style="fill: none; stroke: #029e73; stroke-width: 1.5; stroke-linecap: round"/>
   </g>
   <g id="patch_13">
    <path d="M 255.814792 177.720156 
L 255.814792 21.789375 
" style="fill: none; stroke: #ffffff; stroke-width: 1.25; stroke-linejoin: miter; stroke-linecap: square"/>
   </g>
   <g id="patch_14">
    <path d="M 341.28 177.720156 
L 341.28 21.789375 
" style="fill: none; stroke: #ffffff; stroke-width: 1.25; stroke-linejoin: miter; stroke-linecap: square"/>
   </g>
   <g id="patch_15">
    <path d="M 255.814792 177.720156 
L 341.28 177.720156 
" style="fill: none; stroke: #ffffff; stroke-width: 1.25; stroke-linejoin: miter; stroke-linecap: square"/>
   </g>
   <g id="patch_16">
    <path d="M 255.814792 21.789375 
L 341.28 21.789375 
" style="fill: none; stroke: #ffffff; stroke-width: 1.25; stroke-linejoin: miter; stroke-linecap: square"/>
   </g>
   <g id="text_17">
    <text style="fill: #262626; font: 12px 'Arial', 'DejaVu Sans', 'Liberation Sans', 'Bitstream Vera Sans', sans-serif; text-anchor: middle" x="298.547396" y="15.789375" transform="rotate(-0 298.547396 15.789375)">21</text>
   </g>
  </g>
  <g id="legend_1">
   <g id="patch_17">
    <path d="M 360.5 118.906953 
L 416.479688 118.906953 
Q 418.679688 118.906953 418.679688 116.706953 
L 418.679688 54.653047 
Q 418.679688 52.453047 416.479688 52.453047 
L 360.5 52.453047 
Q 358.3 52.453047 358.3 54.653047 
L 358.3 116.706953 
Q 358.3 118.906953 360.5 118.906953 
z
" style="fill: #eaeaf2; opacity: 0.8; stroke: #cccccc; stroke-linejoin: miter"/>
   </g>
   <g id="text_18">
    <text style="fill: #262626; font: 12px 'Arial', 'DejaVu Sans', 'Liberation Sans', 'Bitstream Vera Sans', sans-serif; text-anchor: start" x="383.822969" y="65.442422" transform="rotate(-0 383.822969 65.442422)">tx</text>
   </g>
   <g id="PathCollection_7">
    <defs>
     <path id="m97336e11ce" d="M 0 2 
C 0.530406 2 1.03916 1.789267 1.414214 1.414214 
C 1.789267 1.03916 2 0.530406 2 0 
C 2 -0.530406 1.789267 -1.03916 1.414214 -1.414214 
C 1.03916 -1.789267 0.530406 -2 0 -2 
C -0.530406 -2 -1.03916 -1.789267 -1.414214 -1.414214 
C -1.789267 -1.03916 -2 -0.530406 -2 0 
C -2 0.530406 -1.789267 1.03916 -1.414214 1.414214 
C -1.03916 1.789267 -0.530406 2 0 2 
z
" style="stroke: #0173b2; stroke-opacity: 0.6; stroke-width: 0.75"/>
    </defs>
    <g>
     <use xlink:href="#m97336e11ce" x="373.7" y="78.313516" style="fill: #0173b2; fill-opacity: 0.2; stroke: #0173b2; stroke-opacity: 0.6; stroke-width: 0.75"/>
    </g>
   </g>
   <g id="PathCollection_8">
    <defs>
     <path id="mcd1a64b65a" d="M 0 3 
C 0.795609 3 1.55874 2.683901 2.12132 2.12132 
C 2.683901 1.55874 3 0.795609 3 0 
C 3 -0.795609 2.683901 -1.55874 2.12132 -2.12132 
C 1.55874 -2.683901 0.795609 -3 0 -3 
C -0.795609 -3 -1.55874 -2.683901 -2.12132 -2.12132 
C -2.683901 -1.55874 -3 -0.795609 -3 0 
C -3 0.795609 -2.683901 1.55874 -2.12132 2.12132 
C -1.55874 2.683901 -0.795609 3 0 3 
z
" style="stroke: #0173b2; stroke-width: 0.5"/>
    </defs>
    <g>
     <use xlink:href="#mcd1a64b65a" x="373.7" y="78.313516" style="fill: #0173b2; stroke: #0173b2; stroke-width: 0.5"/>
    </g>
   </g>
   <g id="text_19">
    <text style="fill: #262626; font: 11px 'Arial', 'DejaVu Sans', 'Liberation Sans', 'Bitstream Vera Sans', sans-serif; text-anchor: start" x="393.5" y="81.201016" transform="rotate(-0 393.5 81.201016)">FeS</text>
   </g>
   <g id="PathCollection_9">
    <defs>
     <path id="m5cd45856ba" d="M 0 -2 
L -2 2 
L 2 2 
z
" style="stroke: #de8f05; stroke-opacity: 0.6; stroke-width: 0.75"/>
    </defs>
    <g>
     <use xlink:href="#m5cd45856ba" x="373.7" y="93.873359" style="fill: #de8f05; fill-opacity: 0.2; stroke: #de8f05; stroke-opacity: 0.6; stroke-width: 0.75"/>
    </g>
   </g>
   <g id="PathCollection_10">
    <defs>
     <path id="m6bdd98285c" d="M 0 -3 
L -3 3 
L 3 3 
z
" style="stroke: #de8f05; stroke-width: 0.5"/>
    </defs>
    <g>
     <use xlink:href="#m6bdd98285c" x="373.7" y="93.873359" style="fill: #de8f05; stroke: #de8f05; stroke-width: 0.5"/>
    </g>
   </g>
   <g id="text_20">
    <text style="fill: #262626; font: 11px 'Arial', 'DejaVu Sans', 'Liberation Sans', 'Bitstream Vera Sans', sans-serif; text-anchor: start" x="393.5" y="96.760859" transform="rotate(-0 393.5 96.760859)">FeD</text>
   </g>
   <g id="PathCollection_11">
    <defs>
     <path id="m8dd400b42a" d="M -2 2 
L 2 2 
L 2 -2 
L -2 -2 
z
" style="stroke: #029e73; stroke-opacity: 0.6; stroke-width: 0.75"/>
    </defs>
    <g>
     <use xlink:href="#m8dd400b42a" x="373.7" y="109.433203" style="fill: #029e73; fill-opacity: 0.2; stroke: #029e73; stroke-opacity: 0.6; stroke-width: 0.75"/>
    </g>
   </g>
   <g id="PathCollection_12">
    <defs>
     <path id="m1b70241c5f" d="M -3 3 
L 3 3 
L 3 -3 
L -3 -3 
z
" style="stroke: #029e73; stroke-width: 0.5"/>
    </defs>
    <g>
     <use xlink:href="#m1b70241c5f" x="373.7" y="109.433203" style="fill: #029e73; stroke: #029e73; stroke-width: 0.5"/>
    </g>
   </g>
   <g id="text_21">
    <text style="fill: #262626; font: 11px 'Arial', 'DejaVu Sans', 'Liberation Sans', 'Bitstream Vera Sans', sans-serif; text-anchor: start" x="393.5" y="112.320703" transform="rotate(-0 393.5 112.320703)">FeR</text>
   </g>
  </g>
 </g>
 <defs>
  <clipPath id="p0901db9db1">
   <rect x="46.964375" y="21.789375" width="85.465208" height="155.930781"/>
  </clipPath>
  <clipPath id="pa40b3b4106">
   <rect x="151.389583" y="21.789375" width="85.465208" height="155.930781"/>
  </clipPath>
  <clipPath id="p41e5ec2adb">
   <rect x="255.814792" y="21.789375" width="85.465208" height="155.930781"/>
  </clipPath>
 </defs>
</svg>
