<?xml version="1.0" encoding="utf-8" standalone="no"?>
<!DOCTYPE svg PUBLIC "-//W3C//DTD SVG 1.1//EN"
  "http://www.w3.org/Graphics/SVG/1.1/DTD/svg11.dtd">
<svg xmlns:xlink="http://www.w3.org/1999/xlink" width="278.999687pt" height="204.48pt" viewBox="0 0 278.999687 204.48" xmlns="http://www.w3.org/2000/svg" version="1.1">
 <metadata>
  <rdf:RDF xmlns:dc="http://purl.org/dc/elements/1.1/" xmlns:cc="http://creativecommons.org/ns#" xmlns:rdf="http://www.w3.org/1999/02/22-rdf-syntax-ns#">
   <cc:Work>
    <dc:type rdf:resource="http://purl.org/dc/dcmitype/StillImage"/>
    <dc:date>2023-06-07T18:41:51.519157</dc:date>
    <dc:format>image/svg+xml</dc:format>
    <dc:creator>
     <cc:Agent>
      <dc:title>Matplotlib v3.6.2, https://matplotlib.org/</dc:title>
     </cc:Agent>
    </dc:creator>
   </cc:Work>
  </rdf:RDF>
 </metadata>
 <defs>
  <style type="text/css">*{stroke-linejoin: round; stroke-linecap: butt}</style>
 </defs>
 <g id="figure_1">
  <g id="patch_1">
   <path d="M 0 204.48 
L 278.999687 204.48 
L 278.999687 0 
L 0 0 
z
" style="fill: #ffffff"/>
  </g>
  <g id="axes_1">
   <g id="patch_2">
    <path d="M 53.081406 177.720156 
L 197.28 177.720156 
L 197.28 21.789375 
L 53.081406 21.789375 
z
" style="fill: #eaeaf2"/>
   </g>
   <g id="matplotlib.axis_1">
    <g id="xtick_1">
     <g id="text_1">
      <text style="fill: #262626; font: 11px 'Arial', 'DejaVu Sans', 'Liberation Sans', 'Bitstream Vera Sans', sans-serif; text-anchor: middle" x="77.114505" y="195.09375" transform="rotate(-0 77.114505 195.09375)">FeS</text>
     </g>
    </g>
    <g id="xtick_2">
     <g id="text_2">
      <text style="fill: #262626; font: 11px 'Arial', 'DejaVu Sans', 'Liberation Sans', 'Bitstream Vera Sans', sans-serif; text-anchor: middle" x="125.180703" y="195.09375" transform="rotate(-0 125.180703 195.09375)">FeD</text>
     </g>
    </g>
    <g id="xtick_3">
     <g id="text_3">
      <text style="fill: #262626; font: 11px 'Arial', 'DejaVu Sans', 'Liberation Sans', 'Bitstream Vera Sans', sans-serif; text-anchor: middle" x="173.246901" y="195.09375" transform="rotate(-0 173.246901 195.09375)">FeR</text>
     </g>
    </g>
   </g>
   <g id="matplotlib.axis_2">
    <g id="ytick_1">
     <g id="line2d_1">
      <path d="M 53.081406 174.434794 
L 197.28 174.434794 
" clip-path="url(#pf57bff6805)" style="fill: none; stroke: #ffffff; stroke-opacity: 0.8; stroke-linecap: round"/>
     </g>
     <g id="line2d_2">
      <defs>
       <path id="m28f0e975e8" d="M 0 0 
L -6 0 
" style="stroke: #808080; stroke-width: 1.25"/>
      </defs>
      <g>
       <use xlink:href="#m28f0e975e8" x="53.081406" y="174.434794" style="fill: #808080; stroke: #808080; stroke-width: 1.25"/>
      </g>
     </g>
     <g id="text_4">
      <text style="fill: #262626; font: 11px 'Arial', 'DejaVu Sans', 'Liberation Sans', 'Bitstream Vera Sans', sans-serif; text-anchor: end" x="43.581406" y="178.371591" transform="rotate(-0 43.581406 178.371591)">0.60</text>
     </g>
    </g>
    <g id="ytick_2">
     <g id="line2d_3">
      <path d="M 53.081406 149.596217 
L 197.28 149.596217 
" clip-path="url(#pf57bff6805)" style="fill: none; stroke: #ffffff; stroke-opacity: 0.8; stroke-linecap: round"/>
     </g>
     <g id="line2d_4">
      <g>
       <use xlink:href="#m28f0e975e8" x="53.081406" y="149.596217" style="fill: #808080; stroke: #808080; stroke-width: 1.25"/>
      </g>
     </g>
     <g id="text_5">
      <text style="fill: #262626; font: 11px 'Arial', 'DejaVu Sans', 'Liberation Sans', 'Bitstream Vera Sans', sans-serif; text-anchor: end" x="43.581406" y="153.533014" transform="rotate(-0 43.581406 153.533014)">0.80</text>
     </g>
    </g>
    <g id="ytick_3">
     <g id="line2d_5">
      <path d="M 53.081406 130.329919 
L 197.28 130.329919 
" clip-path="url(#pf57bff6805)" style="fill: none; stroke: #ffffff; stroke-opacity: 0.8; stroke-linecap: round"/>
     </g>
     <g id="line2d_6">
      <g>
       <use xlink:href="#m28f0e975e8" x="53.081406" y="130.329919" style="fill: #808080; stroke: #808080; stroke-width: 1.25"/>
      </g>
     </g>
     <g id="text_6">
      <text style="fill: #262626; font: 11px 'Arial', 'DejaVu Sans', 'Liberation Sans', 'Bitstream Vera Sans', sans-serif; text-anchor: end" x="43.581406" y="134.266716" transform="rotate(-0 43.581406 134.266716)">1.00</text>
     </g>
    </g>
    <g id="ytick_4">
     <g id="line2d_7">
      <path d="M 53.081406 95.32191 
L 197.28 95.32191 
" clip-path="url(#pf57bff6805)" style="fill: none; stroke: #ffffff; stroke-opacity: 0.8; stroke-linecap: round"/>
     </g>
     <g id="line2d_8">
      <g>
       <use xlink:href="#m28f0e975e8" x="53.081406" y="95.32191" style="fill: #808080; stroke: #808080; stroke-width: 1.25"/>
      </g>
     </g>
     <g id="text_7">
      <text style="fill: #262626; font: 11px 'Arial', 'DejaVu Sans', 'Liberation Sans', 'Bitstream Vera Sans', sans-serif; text-anchor: end" x="43.581406" y="99.258707" transform="rotate(-0 43.581406 99.258707)">1.50</text>
     </g>
    </g>
    <g id="ytick_5">
     <g id="line2d_9">
      <path d="M 53.081406 70.483333 
L 197.28 70.483333 
" clip-path="url(#pf57bff6805)" style="fill: none; stroke: #ffffff; stroke-opacity: 0.8; stroke-linecap: round"/>
     </g>
     <g id="line2d_10">
      <g>
       <use xlink:href="#m28f0e975e8" x="53.081406" y="70.483333" style="fill: #808080; stroke: #808080; stroke-width: 1.25"/>
      </g>
     </g>
     <g id="text_8">
      <text style="fill: #262626; font: 11px 'Arial', 'DejaVu Sans', 'Liberation Sans', 'Bitstream Vera Sans', sans-serif; text-anchor: end" x="43.581406" y="74.42013" transform="rotate(-0 43.581406 74.42013)">2.00</text>
     </g>
    </g>
    <g id="ytick_6">
     <g id="line2d_11">
      <path d="M 53.081406 35.475324 
L 197.28 35.475324 
" clip-path="url(#pf57bff6805)" style="fill: none; stroke: #ffffff; stroke-opacity: 0.8; stroke-linecap: round"/>
     </g>
     <g id="line2d_12">
      <g>
       <use xlink:href="#m28f0e975e8" x="53.081406" y="35.475324" style="fill: #808080; stroke: #808080; stroke-width: 1.25"/>
      </g>
     </g>
     <g id="text_9">
      <text style="fill: #262626; font: 11px 'Arial', 'DejaVu Sans', 'Liberation Sans', 'Bitstream Vera Sans', sans-serif; text-anchor: end" x="43.581406" y="39.412121" transform="rotate(-0 43.581406 39.412121)">3.00</text>
     </g>
    </g>
    <g id="ytick_7">
     <g id="line2d_13">
      <defs>
       <path id="m4e78c097d8" d="M 0 0 
L -4 0 
" style="stroke: #808080"/>
      </defs>
      <g>
       <use xlink:href="#m4e78c097d8" x="53.081406" y="161.125367" style="fill: #808080; stroke: #808080"/>
      </g>
     </g>
    </g>
    <g id="ytick_8">
     <g id="line2d_14">
      <g>
       <use xlink:href="#m4e78c097d8" x="53.081406" y="139.426785" style="fill: #808080; stroke: #808080"/>
      </g>
     </g>
    </g>
    <g id="text_10">
     <text style="fill: #262626; font: 12px 'Arial', 'DejaVu Sans', 'Liberation Sans', 'Bitstream Vera Sans', sans-serif; text-anchor: middle" x="15.789375" y="99.754766" transform="rotate(-90 15.789375 99.754766)">Relative mRNA level</text>
    </g>
   </g>
   <g id="PathCollection_1">
    <path d="M 82.83941 142.623151 
C 83.369816 142.623151 83.878569 142.412418 84.253623 142.037365 
C 84.628677 141.662311 84.83941 141.153557 84.83941 140.623151 
C 84.83941 140.092745 84.628677 139.583991 84.253623 139.208937 
C 83.878569 138.833884 83.369816 138.623151 82.83941 138.623151 
C 82.309003 138.623151 81.80025 138.833884 81.425196 139.208937 
C 81.050142 139.583991 80.83941 140.092745 80.83941 140.623151 
C 80.83941 141.153557 81.050142 141.662311 81.425196 142.037365 
C 81.80025 142.412418 82.309003 142.623151 82.83941 142.623151 
z
" clip-path="url(#pf57bff6805)" style="fill: #0173b2; fill-opacity: 0.2; stroke: #0173b2; stroke-opacity: 0.6; stroke-width: 0.75"/>
    <path d="M 82.841258 130.653834 
C 83.371664 130.653834 83.880418 130.443101 84.255472 130.068047 
C 84.630525 129.692993 84.841258 129.18424 84.841258 128.653834 
C 84.841258 128.123428 84.630525 127.614674 84.255472 127.23962 
C 83.880418 126.864566 83.371664 126.653834 82.841258 126.653834 
C 82.310852 126.653834 81.802098 126.864566 81.427045 127.23962 
C 81.051991 127.614674 80.841258 128.123428 80.841258 128.653834 
C 80.841258 129.18424 81.051991 129.692993 81.427045 130.068047 
C 81.802098 130.443101 82.310852 130.653834 82.841258 130.653834 
z
" clip-path="url(#pf57bff6805)" style="fill: #0173b2; fill-opacity: 0.2; stroke: #0173b2; stroke-opacity: 0.6; stroke-width: 0.75"/>
    <path d="M 84.611887 124.669175 
C 85.142293 124.669175 85.651046 124.458442 86.0261 124.083389 
C 86.401154 123.708335 86.611887 123.199581 86.611887 122.669175 
C 86.611887 122.138769 86.401154 121.630015 86.0261 121.254962 
C 85.651046 120.879908 85.142293 120.669175 84.611887 120.669175 
C 84.08148 120.669175 83.572727 120.879908 83.197673 121.254962 
C 82.822619 121.630015 82.611887 122.138769 82.611887 122.669175 
C 82.611887 123.199581 82.822619 123.708335 83.197673 124.083389 
C 83.572727 124.458442 84.08148 124.669175 84.611887 124.669175 
z
" clip-path="url(#pf57bff6805)" style="fill: #0173b2; fill-opacity: 0.2; stroke: #0173b2; stroke-opacity: 0.6; stroke-width: 0.75"/>
    <path d="M 82.557451 133.54546 
C 83.087857 133.54546 83.596611 133.334727 83.971665 132.959673 
C 84.346719 132.584619 84.557451 132.075866 84.557451 131.54546 
C 84.557451 131.015053 84.346719 130.5063 83.971665 130.131246 
C 83.596611 129.756192 83.087857 129.54546 82.557451 129.54546 
C 82.027045 129.54546 81.518291 129.756192 81.143238 130.131246 
C 80.768184 130.5063 80.557451 131.015053 80.557451 131.54546 
C 80.557451 132.075866 80.768184 132.584619 81.143238 132.959673 
C 81.518291 133.334727 82.027045 133.54546 82.557451 133.54546 
z
" clip-path="url(#pf57bff6805)" style="fill: #0173b2; fill-opacity: 0.2; stroke: #0173b2; stroke-opacity: 0.6; stroke-width: 0.75"/>
    <path d="M 80.652777 141.325516 
C 81.183183 141.325516 81.691936 141.114783 82.06699 140.739729 
C 82.442044 140.364676 82.652777 139.855922 82.652777 139.325516 
C 82.652777 138.79511 82.442044 138.286356 82.06699 137.911302 
C 81.691936 137.536249 81.183183 137.325516 80.652777 137.325516 
C 80.12237 137.325516 79.613617 137.536249 79.238563 137.911302 
C 78.863509 138.286356 78.652777 138.79511 78.652777 139.325516 
C 78.652777 139.855922 78.863509 140.364676 79.238563 140.739729 
C 79.613617 141.114783 80.12237 141.325516 80.652777 141.325516 
z
" clip-path="url(#pf57bff6805)" style="fill: #0173b2; fill-opacity: 0.2; stroke: #0173b2; stroke-opacity: 0.6; stroke-width: 0.75"/>
    <path d="M 85.560758 129.356199 
C 86.091164 129.356199 86.599918 129.145466 86.974971 128.770412 
C 87.350025 128.395358 87.560758 127.886605 87.560758 127.356199 
C 87.560758 126.825792 87.350025 126.317039 86.974971 125.941985 
C 86.599918 125.566931 86.091164 125.356199 85.560758 125.356199 
C 85.030352 125.356199 84.521598 125.566931 84.146544 125.941985 
C 83.771491 126.317039 83.560758 126.825792 83.560758 127.356199 
C 83.560758 127.886605 83.771491 128.395358 84.146544 128.770412 
C 84.521598 129.145466 85.030352 129.356199 85.560758 129.356199 
z
" clip-path="url(#pf57bff6805)" style="fill: #0173b2; fill-opacity: 0.2; stroke: #0173b2; stroke-opacity: 0.6; stroke-width: 0.75"/>
    <path d="M 83.025392 126.962335 
C 83.555798 126.962335 84.064551 126.751603 84.439605 126.376549 
C 84.814659 126.001495 85.025392 125.492741 85.025392 124.962335 
C 85.025392 124.431929 84.814659 123.923175 84.439605 123.548122 
C 84.064551 123.173068 83.555798 122.962335 83.025392 122.962335 
C 82.494985 122.962335 81.986232 123.173068 81.611178 123.548122 
C 81.236124 123.923175 81.025392 124.431929 81.025392 124.962335 
C 81.025392 125.492741 81.236124 126.001495 81.611178 126.376549 
C 81.986232 126.751603 82.494985 126.962335 83.025392 126.962335 
z
" clip-path="url(#pf57bff6805)" style="fill: #0173b2; fill-opacity: 0.2; stroke: #0173b2; stroke-opacity: 0.6; stroke-width: 0.75"/>
    <path d="M 79.067088 131.151596 
C 79.597494 131.151596 80.106248 130.940864 80.481302 130.56581 
C 80.856355 130.190756 81.067088 129.682002 81.067088 129.151596 
C 81.067088 128.62119 80.856355 128.112436 80.481302 127.737383 
C 80.106248 127.362329 79.597494 127.151596 79.067088 127.151596 
C 78.536682 127.151596 78.027928 127.362329 77.652874 127.737383 
C 77.277821 128.112436 77.067088 128.62119 77.067088 129.151596 
C 77.067088 129.682002 77.277821 130.190756 77.652874 130.56581 
C 78.027928 130.940864 78.536682 131.151596 79.067088 131.151596 
z
" clip-path="url(#pf57bff6805)" style="fill: #0173b2; fill-opacity: 0.2; stroke: #0173b2; stroke-opacity: 0.6; stroke-width: 0.75"/>
    <path d="M 83.972378 130.759694 
C 84.502785 130.759694 85.011538 130.548961 85.386592 130.173908 
C 85.761646 129.798854 85.972378 129.2901 85.972378 128.759694 
C 85.972378 128.229288 85.761646 127.720534 85.386592 127.34548 
C 85.011538 126.970427 84.502785 126.759694 83.972378 126.759694 
C 83.441972 126.759694 82.933219 126.970427 82.558165 127.34548 
C 82.183111 127.720534 81.972378 128.229288 81.972378 128.759694 
C 81.972378 129.2901 82.183111 129.798854 82.558165 130.173908 
C 82.933219 130.548961 83.441972 130.759694 83.972378 130.759694 
z
" clip-path="url(#pf57bff6805)" style="fill: #0173b2; fill-opacity: 0.2; stroke: #0173b2; stroke-opacity: 0.6; stroke-width: 0.75"/>
    <path d="M 80.067707 132.126291 
C 80.598113 132.126291 81.106867 131.915558 81.48192 131.540504 
C 81.856974 131.165451 82.067707 130.656697 82.067707 130.126291 
C 82.067707 129.595885 81.856974 129.087131 81.48192 128.712077 
C 81.106867 128.337023 80.598113 128.126291 80.067707 128.126291 
C 79.537301 128.126291 79.028547 128.337023 78.653493 128.712077 
C 78.27844 129.087131 78.067707 129.595885 78.067707 130.126291 
C 78.067707 130.656697 78.27844 131.165451 78.653493 131.540504 
C 79.028547 131.915558 79.537301 132.126291 80.067707 132.126291 
z
" clip-path="url(#pf57bff6805)" style="fill: #0173b2; fill-opacity: 0.2; stroke: #0173b2; stroke-opacity: 0.6; stroke-width: 0.75"/>
    <path d="M 81.242444 132.792144 
C 81.772851 132.792144 82.281604 132.581411 82.656658 132.206357 
C 83.031712 131.831304 83.242444 131.32255 83.242444 130.792144 
C 83.242444 130.261738 83.031712 129.752984 82.656658 129.37793 
C 82.281604 129.002877 81.772851 128.792144 81.242444 128.792144 
C 80.712038 128.792144 80.203285 129.002877 79.828231 129.37793 
C 79.453177 129.752984 79.242444 130.261738 79.242444 130.792144 
C 79.242444 131.32255 79.453177 131.831304 79.828231 132.206357 
C 80.203285 132.581411 80.712038 132.792144 81.242444 132.792144 
z
" clip-path="url(#pf57bff6805)" style="fill: #0173b2; fill-opacity: 0.2; stroke: #0173b2; stroke-opacity: 0.6; stroke-width: 0.75"/>
    <path d="M 81.27048 133.667699 
C 81.800886 133.667699 82.30964 133.456967 82.684693 133.081913 
C 83.059747 132.706859 83.27048 132.198106 83.27048 131.667699 
C 83.27048 131.137293 83.059747 130.62854 82.684693 130.253486 
C 82.30964 129.878432 81.800886 129.667699 81.27048 129.667699 
C 80.740074 129.667699 80.23132 129.878432 79.856266 130.253486 
C 79.481213 130.62854 79.27048 131.137293 79.27048 131.667699 
C 79.27048 132.198106 79.481213 132.706859 79.856266 133.081913 
C 80.23132 133.456967 80.740074 133.667699 81.27048 133.667699 
z
" clip-path="url(#pf57bff6805)" style="fill: #0173b2; fill-opacity: 0.2; stroke: #0173b2; stroke-opacity: 0.6; stroke-width: 0.75"/>
    <path d="M 128.872447 99.533609 
C 129.402853 99.533609 129.911607 99.322876 130.286661 98.947822 
C 130.661715 98.572769 130.872447 98.064015 130.872447 97.533609 
C 130.872447 97.003203 130.661715 96.494449 130.286661 96.119395 
C 129.911607 95.744341 129.402853 95.533609 128.872447 95.533609 
C 128.342041 95.533609 127.833287 95.744341 127.458234 96.119395 
C 127.08318 96.494449 126.872447 97.003203 126.872447 97.533609 
C 126.872447 98.064015 127.08318 98.572769 127.458234 98.947822 
C 127.833287 99.322876 128.342041 99.533609 128.872447 99.533609 
z
" clip-path="url(#pf57bff6805)" style="fill: #de8f05; fill-opacity: 0.2; stroke: #de8f05; stroke-opacity: 0.6; stroke-width: 0.75"/>
    <path d="M 126.408978 106.116733 
C 126.939384 106.116733 127.448138 105.906001 127.823191 105.530947 
C 128.198245 105.155893 128.408978 104.64714 128.408978 104.116733 
C 128.408978 103.586327 128.198245 103.077574 127.823191 102.70252 
C 127.448138 102.327466 126.939384 102.116733 126.408978 102.116733 
C 125.878572 102.116733 125.369818 102.327466 124.994764 102.70252 
C 124.61971 103.077574 124.408978 103.586327 124.408978 104.116733 
C 124.408978 104.64714 124.61971 105.155893 124.994764 105.530947 
C 125.369818 105.906001 125.878572 106.116733 126.408978 106.116733 
z
" clip-path="url(#pf57bff6805)" style="fill: #de8f05; fill-opacity: 0.2; stroke: #de8f05; stroke-opacity: 0.6; stroke-width: 0.75"/>
    <path d="M 131.635766 75.494271 
C 132.166172 75.494271 132.674926 75.283538 133.04998 74.908484 
C 133.425034 74.533431 133.635766 74.024677 133.635766 73.494271 
C 133.635766 72.963865 133.425034 72.455111 133.04998 72.080057 
C 132.674926 71.705004 132.166172 71.494271 131.635766 71.494271 
C 131.10536 71.494271 130.596606 71.705004 130.221553 72.080057 
C 129.846499 72.455111 129.635766 72.963865 129.635766 73.494271 
C 129.635766 74.024677 129.846499 74.533431 130.221553 74.908484 
C 130.596606 75.283538 131.10536 75.494271 131.635766 75.494271 
z
" clip-path="url(#pf57bff6805)" style="fill: #de8f05; fill-opacity: 0.2; stroke: #de8f05; stroke-opacity: 0.6; stroke-width: 0.75"/>
    <path d="M 128.361818 79.683532 
C 128.892225 79.683532 129.400978 79.472799 129.776032 79.097746 
C 130.151086 78.722692 130.361818 78.213938 130.361818 77.683532 
C 130.361818 77.153126 130.151086 76.644372 129.776032 76.269318 
C 129.400978 75.894265 128.892225 75.683532 128.361818 75.683532 
C 127.831412 75.683532 127.322659 75.894265 126.947605 76.269318 
C 126.572551 76.644372 126.361818 77.153126 126.361818 77.683532 
C 126.361818 78.213938 126.572551 78.722692 126.947605 79.097746 
C 127.322659 79.472799 127.831412 79.683532 128.361818 79.683532 
z
" clip-path="url(#pf57bff6805)" style="fill: #de8f05; fill-opacity: 0.2; stroke: #de8f05; stroke-opacity: 0.6; stroke-width: 0.75"/>
    <path d="M 132.975081 78.4866 
C 133.505487 78.4866 134.014241 78.275868 134.389294 77.900814 
C 134.764348 77.52576 134.975081 77.017006 134.975081 76.4866 
C 134.975081 75.956194 134.764348 75.44744 134.389294 75.072387 
C 134.014241 74.697333 133.505487 74.4866 132.975081 74.4866 
C 132.444675 74.4866 131.935921 74.697333 131.560867 75.072387 
C 131.185814 75.44744 130.975081 75.956194 130.975081 76.4866 
C 130.975081 77.017006 131.185814 77.52576 131.560867 77.900814 
C 131.935921 78.275868 132.444675 78.4866 132.975081 78.4866 
z
" clip-path="url(#pf57bff6805)" style="fill: #de8f05; fill-opacity: 0.2; stroke: #de8f05; stroke-opacity: 0.6; stroke-width: 0.75"/>
    <path d="M 131.582033 73.100407 
C 132.112439 73.100407 132.621192 72.889675 132.996246 72.514621 
C 133.3713 72.139567 133.582033 71.630814 133.582033 71.100407 
C 133.582033 70.570001 133.3713 70.061248 132.996246 69.686194 
C 132.621192 69.31114 132.112439 69.100407 131.582033 69.100407 
C 131.051626 69.100407 130.542873 69.31114 130.167819 69.686194 
C 129.792765 70.061248 129.582033 70.570001 129.582033 71.100407 
C 129.582033 71.630814 129.792765 72.139567 130.167819 72.514621 
C 130.542873 72.889675 131.051626 73.100407 131.582033 73.100407 
z
" clip-path="url(#pf57bff6805)" style="fill: #de8f05; fill-opacity: 0.2; stroke: #de8f05; stroke-opacity: 0.6; stroke-width: 0.75"/>
    <path d="M 128.990926 33.60166 
C 129.521333 33.60166 130.030086 33.390928 130.40514 33.015874 
C 130.780194 32.64082 130.990926 32.132067 130.990926 31.60166 
C 130.990926 31.071254 130.780194 30.562501 130.40514 30.187447 
C 130.030086 29.812393 129.521333 29.60166 128.990926 29.60166 
C 128.46052 29.60166 127.951767 29.812393 127.576713 30.187447 
C 127.201659 30.562501 126.990926 31.071254 126.990926 31.60166 
C 126.990926 32.132067 127.201659 32.64082 127.576713 33.015874 
C 127.951767 33.390928 128.46052 33.60166 128.990926 33.60166 
z
" clip-path="url(#pf57bff6805)" style="fill: #de8f05; fill-opacity: 0.2; stroke: #de8f05; stroke-opacity: 0.6; stroke-width: 0.75"/>
    <path d="M 132.558803 100.740407 
C 133.089209 100.740407 133.597963 100.529674 133.973017 100.15462 
C 134.348071 99.779567 134.558803 99.270813 134.558803 98.740407 
C 134.558803 98.210001 134.348071 97.701247 133.973017 97.326193 
C 133.597963 96.95114 133.089209 96.740407 132.558803 96.740407 
C 132.028397 96.740407 131.519644 96.95114 131.14459 97.326193 
C 130.769536 97.701247 130.558803 98.210001 130.558803 98.740407 
C 130.558803 99.270813 130.769536 99.779567 131.14459 100.15462 
C 131.519644 100.529674 132.028397 100.740407 132.558803 100.740407 
z
" clip-path="url(#pf57bff6805)" style="fill: #de8f05; fill-opacity: 0.2; stroke: #de8f05; stroke-opacity: 0.6; stroke-width: 0.75"/>
    <path d="M 129.116313 104.18763 
C 129.646719 104.18763 130.155473 103.976898 130.530527 103.601844 
C 130.90558 103.22679 131.116313 102.718036 131.116313 102.18763 
C 131.116313 101.657224 130.90558 101.14847 130.530527 100.773417 
C 130.155473 100.398363 129.646719 100.18763 129.116313 100.18763 
C 128.585907 100.18763 128.077153 100.398363 127.702099 100.773417 
C 127.327046 101.14847 127.116313 101.657224 127.116313 102.18763 
C 127.116313 102.718036 127.327046 103.22679 127.702099 103.601844 
C 128.077153 103.976898 128.585907 104.18763 129.116313 104.18763 
z
" clip-path="url(#pf57bff6805)" style="fill: #de8f05; fill-opacity: 0.2; stroke: #de8f05; stroke-opacity: 0.6; stroke-width: 0.75"/>
    <path d="M 132.122181 104.33593 
C 132.652588 104.33593 133.161341 104.125197 133.536395 103.750144 
C 133.911449 103.37509 134.122181 102.866336 134.122181 102.33593 
C 134.122181 101.805524 133.911449 101.29677 133.536395 100.921716 
C 133.161341 100.546663 132.652588 100.33593 132.122181 100.33593 
C 131.591775 100.33593 131.083022 100.546663 130.707968 100.921716 
C 130.332914 101.29677 130.122181 101.805524 130.122181 102.33593 
C 130.122181 102.866336 130.332914 103.37509 130.707968 103.750144 
C 131.083022 104.125197 131.591775 104.33593 132.122181 104.33593 
z
" clip-path="url(#pf57bff6805)" style="fill: #de8f05; fill-opacity: 0.2; stroke: #de8f05; stroke-opacity: 0.6; stroke-width: 0.75"/>
    <path d="M 129.435359 87.677932 
C 129.965765 87.677932 130.474519 87.467199 130.849572 87.092145 
C 131.224626 86.717092 131.435359 86.208338 131.435359 85.677932 
C 131.435359 85.147526 131.224626 84.638772 130.849572 84.263718 
C 130.474519 83.888665 129.965765 83.677932 129.435359 83.677932 
C 128.904953 83.677932 128.396199 83.888665 128.021145 84.263718 
C 127.646091 84.638772 127.435359 85.147526 127.435359 85.677932 
C 127.435359 86.208338 127.646091 86.717092 128.021145 87.092145 
C 128.396199 87.467199 128.904953 87.677932 129.435359 87.677932 
z
" clip-path="url(#pf57bff6805)" style="fill: #de8f05; fill-opacity: 0.2; stroke: #de8f05; stroke-opacity: 0.6; stroke-width: 0.75"/>
    <path d="M 126.682936 98.608073 
C 127.213342 98.608073 127.722096 98.39734 128.09715 98.022287 
C 128.472204 97.647233 128.682936 97.138479 128.682936 96.608073 
C 128.682936 96.077667 128.472204 95.568913 128.09715 95.19386 
C 127.722096 94.818806 127.213342 94.608073 126.682936 94.608073 
C 126.15253 94.608073 125.643776 94.818806 125.268723 95.19386 
C 124.893669 95.568913 124.682936 96.077667 124.682936 96.608073 
C 124.682936 97.138479 124.893669 97.647233 125.268723 98.022287 
C 125.643776 98.39734 126.15253 98.608073 126.682936 98.608073 
z
" clip-path="url(#pf57bff6805)" style="fill: #de8f05; fill-opacity: 0.2; stroke: #de8f05; stroke-opacity: 0.6; stroke-width: 0.75"/>
    <path d="M 79.236745 139.008239 
C 79.767151 139.008239 80.275905 138.797506 80.650959 138.422452 
C 81.026013 138.047399 81.236745 137.538645 81.236745 137.008239 
C 81.236745 136.477833 81.026013 135.969079 80.650959 135.594025 
C 80.275905 135.218972 79.767151 135.008239 79.236745 135.008239 
C 78.706339 135.008239 78.197585 135.218972 77.822532 135.594025 
C 77.447478 135.969079 77.236745 136.477833 77.236745 137.008239 
C 77.236745 137.538645 77.447478 138.047399 77.822532 138.422452 
C 78.197585 138.797506 78.706339 139.008239 79.236745 139.008239 
z
" clip-path="url(#pf57bff6805)" style="fill: #0173b2; fill-opacity: 0.2; stroke: #0173b2; stroke-opacity: 0.6; stroke-width: 0.75"/>
    <path d="M 82.528174 122.251195 
C 83.05858 122.251195 83.567334 122.040462 83.942387 121.665408 
C 84.317441 121.290354 84.528174 120.781601 84.528174 120.251195 
C 84.528174 119.720789 84.317441 119.212035 83.942387 118.836981 
C 83.567334 118.461927 83.05858 118.251195 82.528174 118.251195 
C 81.997768 118.251195 81.489014 118.461927 81.11396 118.836981 
C 80.738907 119.212035 80.528174 119.720789 80.528174 120.251195 
C 80.528174 120.781601 80.738907 121.290354 81.11396 121.665408 
C 81.489014 122.040462 81.997768 122.251195 82.528174 122.251195 
z
" clip-path="url(#pf57bff6805)" style="fill: #0173b2; fill-opacity: 0.2; stroke: #0173b2; stroke-opacity: 0.6; stroke-width: 0.75"/>
    <path d="M 85.516236 137.811307 
C 86.046642 137.811307 86.555396 137.600575 86.93045 137.225521 
C 87.305503 136.850467 87.516236 136.341713 87.516236 135.811307 
C 87.516236 135.280901 87.305503 134.772147 86.93045 134.397094 
C 86.555396 134.02204 86.046642 133.811307 85.516236 133.811307 
C 84.98583 133.811307 84.477076 134.02204 84.102022 134.397094 
C 83.726969 134.772147 83.516236 135.280901 83.516236 135.811307 
C 83.516236 136.341713 83.726969 136.850467 84.102022 137.225521 
C 84.477076 137.600575 84.98583 137.811307 85.516236 137.811307 
z
" clip-path="url(#pf57bff6805)" style="fill: #0173b2; fill-opacity: 0.2; stroke: #0173b2; stroke-opacity: 0.6; stroke-width: 0.75"/>
    <path d="M 81.581441 133.622046 
C 82.111847 133.622046 82.620601 133.411314 82.995655 133.03626 
C 83.370708 132.661206 83.581441 132.152452 83.581441 131.622046 
C 83.581441 131.09164 83.370708 130.582886 82.995655 130.207833 
C 82.620601 129.832779 82.111847 129.622046 81.581441 129.622046 
C 81.051035 129.622046 80.542281 129.832779 80.167227 130.207833 
C 79.792174 130.582886 79.581441 131.09164 79.581441 131.622046 
C 79.581441 132.152452 79.792174 132.661206 80.167227 133.03626 
C 80.542281 133.411314 81.051035 133.622046 81.581441 133.622046 
z
" clip-path="url(#pf57bff6805)" style="fill: #0173b2; fill-opacity: 0.2; stroke: #0173b2; stroke-opacity: 0.6; stroke-width: 0.75"/>
    <path d="M 79.722676 130.031251 
C 80.253082 130.031251 80.761835 129.820518 81.136889 129.445465 
C 81.511943 129.070411 81.722676 128.561657 81.722676 128.031251 
C 81.722676 127.500845 81.511943 126.992091 81.136889 126.617037 
C 80.761835 126.241984 80.253082 126.031251 79.722676 126.031251 
C 79.192269 126.031251 78.683516 126.241984 78.308462 126.617037 
C 77.933408 126.992091 77.722676 127.500845 77.722676 128.031251 
C 77.722676 128.561657 77.933408 129.070411 78.308462 129.445465 
C 78.683516 129.820518 79.192269 130.031251 79.722676 130.031251 
z
" clip-path="url(#pf57bff6805)" style="fill: #0173b2; fill-opacity: 0.2; stroke: #0173b2; stroke-opacity: 0.6; stroke-width: 0.75"/>
    <path d="M 79.191827 135.713959 
C 79.722234 135.713959 80.230987 135.503226 80.606041 135.128172 
C 80.981095 134.753119 81.191827 134.244365 81.191827 133.713959 
C 81.191827 133.183553 80.981095 132.674799 80.606041 132.299745 
C 80.230987 131.924692 79.722234 131.713959 79.191827 131.713959 
C 78.661421 131.713959 78.152668 131.924692 77.777614 132.299745 
C 77.40256 132.674799 77.191827 133.183553 77.191827 133.713959 
C 77.191827 134.244365 77.40256 134.753119 77.777614 135.128172 
C 78.152668 135.503226 78.661421 135.713959 79.191827 135.713959 
z
" clip-path="url(#pf57bff6805)" style="fill: #0173b2; fill-opacity: 0.2; stroke: #0173b2; stroke-opacity: 0.6; stroke-width: 0.75"/>
    <path d="M 83.545756 126.138505 
C 84.076162 126.138505 84.584915 125.927772 84.959969 125.552719 
C 85.335023 125.177665 85.545756 124.668911 85.545756 124.138505 
C 85.545756 123.608099 85.335023 123.099345 84.959969 122.724292 
C 84.584915 122.349238 84.076162 122.138505 83.545756 122.138505 
C 83.01535 122.138505 82.506596 122.349238 82.131542 122.724292 
C 81.756488 123.099345 81.545756 123.608099 81.545756 124.138505 
C 81.545756 124.668911 81.756488 125.177665 82.131542 125.552719 
C 82.506596 125.927772 83.01535 126.138505 83.545756 126.138505 
z
" clip-path="url(#pf57bff6805)" style="fill: #0173b2; fill-opacity: 0.2; stroke: #0173b2; stroke-opacity: 0.6; stroke-width: 0.75"/>
    <path d="M 78.993192 141.698618 
C 79.523598 141.698618 80.032351 141.487885 80.407405 141.112831 
C 80.782459 140.737777 80.993192 140.229024 80.993192 139.698618 
C 80.993192 139.168211 80.782459 138.659458 80.407405 138.284404 
C 80.032351 137.90935 79.523598 137.698618 78.993192 137.698618 
C 78.462786 137.698618 77.954032 137.90935 77.578978 138.284404 
C 77.203924 138.659458 76.993192 139.168211 76.993192 139.698618 
C 76.993192 140.229024 77.203924 140.737777 77.578978 141.112831 
C 77.954032 141.487885 78.462786 141.698618 78.993192 141.698618 
z
" clip-path="url(#pf57bff6805)" style="fill: #0173b2; fill-opacity: 0.2; stroke: #0173b2; stroke-opacity: 0.6; stroke-width: 0.75"/>
    <path d="M 85.131526 126.736971 
C 85.661932 126.736971 86.170685 126.526238 86.545739 126.151185 
C 86.920793 125.776131 87.131526 125.267377 87.131526 124.736971 
C 87.131526 124.206565 86.920793 123.697811 86.545739 123.322757 
C 86.170685 122.947704 85.661932 122.736971 85.131526 122.736971 
C 84.60112 122.736971 84.092366 122.947704 83.717312 123.322757 
C 83.342258 123.697811 83.131526 124.206565 83.131526 124.736971 
C 83.131526 125.267377 83.342258 125.776131 83.717312 126.151185 
C 84.092366 126.526238 84.60112 126.736971 85.131526 126.736971 
z
" clip-path="url(#pf57bff6805)" style="fill: #0173b2; fill-opacity: 0.2; stroke: #0173b2; stroke-opacity: 0.6; stroke-width: 0.75"/>
    <path d="M 82.397837 130.817986 
C 82.928243 130.817986 83.436997 130.607253 83.812051 130.2322 
C 84.187105 129.857146 84.397837 129.348392 84.397837 128.817986 
C 84.397837 128.28758 84.187105 127.778826 83.812051 127.403773 
C 83.436997 127.028719 82.928243 126.817986 82.397837 126.817986 
C 81.867431 126.817986 81.358677 127.028719 80.983624 127.403773 
C 80.60857 127.778826 80.397837 128.28758 80.397837 128.817986 
C 80.397837 129.348392 80.60857 129.857146 80.983624 130.2322 
C 81.358677 130.607253 81.867431 130.817986 82.397837 130.817986 
z
" clip-path="url(#pf57bff6805)" style="fill: #0173b2; fill-opacity: 0.2; stroke: #0173b2; stroke-opacity: 0.6; stroke-width: 0.75"/>
    <path d="M 79.015713 133.521197 
C 79.546119 133.521197 80.054873 133.310464 80.429926 132.93541 
C 80.80498 132.560356 81.015713 132.051603 81.015713 131.521197 
C 81.015713 130.99079 80.80498 130.482037 80.429926 130.106983 
C 80.054873 129.731929 79.546119 129.521197 79.015713 129.521197 
C 78.485307 129.521197 77.976553 129.731929 77.601499 130.106983 
C 77.226445 130.482037 77.015713 130.99079 77.015713 131.521197 
C 77.015713 132.051603 77.226445 132.560356 77.601499 132.93541 
C 77.976553 133.310464 78.485307 133.521197 79.015713 133.521197 
z
" clip-path="url(#pf57bff6805)" style="fill: #0173b2; fill-opacity: 0.2; stroke: #0173b2; stroke-opacity: 0.6; stroke-width: 0.75"/>
    <path d="M 83.23831 136.689355 
C 83.768716 136.689355 84.27747 136.478622 84.652523 136.103569 
C 85.027577 135.728515 85.23831 135.219761 85.23831 134.689355 
C 85.23831 134.158949 85.027577 133.650195 84.652523 133.275142 
C 84.27747 132.900088 83.768716 132.689355 83.23831 132.689355 
C 82.707904 132.689355 82.19915 132.900088 81.824096 133.275142 
C 81.449042 133.650195 81.23831 134.158949 81.23831 134.689355 
C 81.23831 135.219761 81.449042 135.728515 81.824096 136.103569 
C 82.19915 136.478622 82.707904 136.689355 83.23831 136.689355 
z
" clip-path="url(#pf57bff6805)" style="fill: #0173b2; fill-opacity: 0.2; stroke: #0173b2; stroke-opacity: 0.6; stroke-width: 0.75"/>
    <path d="M 85.363855 128.506771 
C 85.894261 128.506771 86.403014 128.296038 86.778068 127.920984 
C 87.153122 127.54593 87.363855 127.037177 87.363855 126.506771 
C 87.363855 125.976365 87.153122 125.467611 86.778068 125.092557 
C 86.403014 124.717503 85.894261 124.506771 85.363855 124.506771 
C 84.833448 124.506771 84.324695 124.717503 83.949641 125.092557 
C 83.574587 125.467611 83.363855 125.976365 83.363855 126.506771 
C 83.363855 127.037177 83.574587 127.54593 83.949641 127.920984 
C 84.324695 128.296038 84.833448 128.506771 85.363855 128.506771 
z
" clip-path="url(#pf57bff6805)" style="fill: #0173b2; fill-opacity: 0.2; stroke: #0173b2; stroke-opacity: 0.6; stroke-width: 0.75"/>
    <path d="M 129.479505 57.018416 
C 130.009911 57.018416 130.518665 56.807683 130.893719 56.432629 
C 131.268772 56.057575 131.479505 55.548822 131.479505 55.018416 
C 131.479505 54.488009 131.268772 53.979256 130.893719 53.604202 
C 130.518665 53.229148 130.009911 53.018416 129.479505 53.018416 
C 128.949099 53.018416 128.440345 53.229148 128.065291 53.604202 
C 127.690238 53.979256 127.479505 54.488009 127.479505 55.018416 
C 127.479505 55.548822 127.690238 56.057575 128.065291 56.432629 
C 128.440345 56.807683 128.949099 57.018416 129.479505 57.018416 
z
" clip-path="url(#pf57bff6805)" style="fill: #de8f05; fill-opacity: 0.2; stroke: #de8f05; stroke-opacity: 0.6; stroke-width: 0.75"/>
    <path d="M 128.314209 57.616882 
C 128.844615 57.616882 129.353368 57.406149 129.728422 57.031095 
C 130.103476 56.656041 130.314209 56.147288 130.314209 55.616882 
C 130.314209 55.086475 130.103476 54.577722 129.728422 54.202668 
C 129.353368 53.827614 128.844615 53.616882 128.314209 53.616882 
C 127.783803 53.616882 127.275049 53.827614 126.899995 54.202668 
C 126.524941 54.577722 126.314209 55.086475 126.314209 55.616882 
C 126.314209 56.147288 126.524941 56.656041 126.899995 57.031095 
C 127.275049 57.406149 127.783803 57.616882 128.314209 57.616882 
z
" clip-path="url(#pf57bff6805)" style="fill: #de8f05; fill-opacity: 0.2; stroke: #de8f05; stroke-opacity: 0.6; stroke-width: 0.75"/>
    <path d="M 129.934131 43.852167 
C 130.464538 43.852167 130.973291 43.641434 131.348345 43.26638 
C 131.723399 42.891326 131.934131 42.382573 131.934131 41.852167 
C 131.934131 41.32176 131.723399 40.813007 131.348345 40.437953 
C 130.973291 40.062899 130.464538 39.852167 129.934131 39.852167 
C 129.403725 39.852167 128.894972 40.062899 128.519918 40.437953 
C 128.144864 40.813007 127.934131 41.32176 127.934131 41.852167 
C 127.934131 42.382573 128.144864 42.891326 128.519918 43.26638 
C 128.894972 43.641434 129.403725 43.852167 129.934131 43.852167 
z
" clip-path="url(#pf57bff6805)" style="fill: #de8f05; fill-opacity: 0.2; stroke: #de8f05; stroke-opacity: 0.6; stroke-width: 0.75"/>
    <path d="M 129.851311 51.033757 
C 130.381717 51.033757 130.890471 50.823024 131.265525 50.447971 
C 131.640578 50.072917 131.851311 49.564163 131.851311 49.033757 
C 131.851311 48.503351 131.640578 47.994597 131.265525 47.619543 
C 130.890471 47.24449 130.381717 47.033757 129.851311 47.033757 
C 129.320905 47.033757 128.812151 47.24449 128.437097 47.619543 
C 128.062044 47.994597 127.851311 48.503351 127.851311 49.033757 
C 127.851311 49.564163 128.062044 50.072917 128.437097 50.447971 
C 128.812151 50.823024 129.320905 51.033757 129.851311 51.033757 
z
" clip-path="url(#pf57bff6805)" style="fill: #de8f05; fill-opacity: 0.2; stroke: #de8f05; stroke-opacity: 0.6; stroke-width: 0.75"/>
    <path d="M 126.346383 54.624552 
C 126.876789 54.624552 127.385543 54.41382 127.760597 54.038766 
C 128.135651 53.663712 128.346383 53.154958 128.346383 52.624552 
C 128.346383 52.094146 128.135651 51.585392 127.760597 51.210339 
C 127.385543 50.835285 126.876789 50.624552 126.346383 50.624552 
C 125.815977 50.624552 125.307224 50.835285 124.93217 51.210339 
C 124.557116 51.585392 124.346383 52.094146 124.346383 52.624552 
C 124.346383 53.154958 124.557116 53.663712 124.93217 54.038766 
C 125.307224 54.41382 125.815977 54.624552 126.346383 54.624552 
z
" clip-path="url(#pf57bff6805)" style="fill: #de8f05; fill-opacity: 0.2; stroke: #de8f05; stroke-opacity: 0.6; stroke-width: 0.75"/>
    <path d="M 128.515025 92.624417 
C 129.045431 92.624417 129.554185 92.413684 129.929239 92.03863 
C 130.304293 91.663576 130.515025 91.154823 130.515025 90.624417 
C 130.515025 90.094011 130.304293 89.585257 129.929239 89.210203 
C 129.554185 88.835149 129.045431 88.624417 128.515025 88.624417 
C 127.984619 88.624417 127.475865 88.835149 127.100812 89.210203 
C 126.725758 89.585257 126.515025 90.094011 126.515025 90.624417 
C 126.515025 91.154823 126.725758 91.663576 127.100812 92.03863 
C 127.475865 92.413684 127.984619 92.624417 128.515025 92.624417 
z
" clip-path="url(#pf57bff6805)" style="fill: #de8f05; fill-opacity: 0.2; stroke: #de8f05; stroke-opacity: 0.6; stroke-width: 0.75"/>
    <path d="M 132.902565 87.83669 
C 133.432972 87.83669 133.941725 87.625957 134.316779 87.250903 
C 134.691833 86.87585 134.902565 86.367096 134.902565 85.83669 
C 134.902565 85.306284 134.691833 84.79753 134.316779 84.422476 
C 133.941725 84.047422 133.432972 83.83669 132.902565 83.83669 
C 132.372159 83.83669 131.863406 84.047422 131.488352 84.422476 
C 131.113298 84.79753 130.902565 85.306284 130.902565 85.83669 
C 130.902565 86.367096 131.113298 86.87585 131.488352 87.250903 
C 131.863406 87.625957 132.372159 87.83669 132.902565 87.83669 
z
" clip-path="url(#pf57bff6805)" style="fill: #de8f05; fill-opacity: 0.2; stroke: #de8f05; stroke-opacity: 0.6; stroke-width: 0.75"/>
    <path d="M 130.101863 80.056634 
C 130.632269 80.056634 131.141023 79.845901 131.516076 79.470847 
C 131.89113 79.095793 132.101863 78.58704 132.101863 78.056634 
C 132.101863 77.526227 131.89113 77.017474 131.516076 76.64242 
C 131.141023 76.267366 130.632269 76.056634 130.101863 76.056634 
C 129.571457 76.056634 129.062703 76.267366 128.687649 76.64242 
C 128.312595 77.017474 128.101863 77.526227 128.101863 78.056634 
C 128.101863 78.58704 128.312595 79.095793 128.687649 79.470847 
C 129.062703 79.845901 129.571457 80.056634 130.101863 80.056634 
z
" clip-path="url(#pf57bff6805)" style="fill: #de8f05; fill-opacity: 0.2; stroke: #de8f05; stroke-opacity: 0.6; stroke-width: 0.75"/>
    <path d="M 130.965206 42.563602 
C 131.495612 42.563602 132.004366 42.352869 132.37942 41.977815 
C 132.754474 41.602761 132.965206 41.094008 132.965206 40.563602 
C 132.965206 40.033195 132.754474 39.524442 132.37942 39.149388 
C 132.004366 38.774334 131.495612 38.563602 130.965206 38.563602 
C 130.4348 38.563602 129.926046 38.774334 129.550993 39.149388 
C 129.175939 39.524442 128.965206 40.033195 128.965206 40.563602 
C 128.965206 41.094008 129.175939 41.602761 129.550993 41.977815 
C 129.926046 42.352869 130.4348 42.563602 130.965206 42.563602 
z
" clip-path="url(#pf57bff6805)" style="fill: #de8f05; fill-opacity: 0.2; stroke: #de8f05; stroke-opacity: 0.6; stroke-width: 0.75"/>
    <path d="M 133.478636 42.535893 
C 134.009042 42.535893 134.517796 42.32516 134.89285 41.950106 
C 135.267903 41.575052 135.478636 41.066299 135.478636 40.535893 
C 135.478636 40.005486 135.267903 39.496733 134.89285 39.121679 
C 134.517796 38.746625 134.009042 38.535893 133.478636 38.535893 
C 132.94823 38.535893 132.439476 38.746625 132.064422 39.121679 
C 131.689369 39.496733 131.478636 40.005486 131.478636 40.535893 
C 131.478636 41.066299 131.689369 41.575052 132.064422 41.950106 
C 132.439476 42.32516 132.94823 42.535893 133.478636 42.535893 
z
" clip-path="url(#pf57bff6805)" style="fill: #de8f05; fill-opacity: 0.2; stroke: #de8f05; stroke-opacity: 0.6; stroke-width: 0.75"/>
    <path d="M 131.41041 55.685444 
C 131.940816 55.685444 132.44957 55.474712 132.824624 55.099658 
C 133.199678 54.724604 133.41041 54.215851 133.41041 53.685444 
C 133.41041 53.155038 133.199678 52.646285 132.824624 52.271231 
C 132.44957 51.896177 131.940816 51.685444 131.41041 51.685444 
C 130.880004 51.685444 130.37125 51.896177 129.996197 52.271231 
C 129.621143 52.646285 129.41041 53.155038 129.41041 53.685444 
C 129.41041 54.215851 129.621143 54.724604 129.996197 55.099658 
C 130.37125 55.474712 130.880004 55.685444 131.41041 55.685444 
z
" clip-path="url(#pf57bff6805)" style="fill: #de8f05; fill-opacity: 0.2; stroke: #de8f05; stroke-opacity: 0.6; stroke-width: 0.75"/>
    <path d="M 127.285283 53.395415 
C 127.81569 53.395415 128.324443 53.184682 128.699497 52.809628 
C 129.074551 52.434575 129.285283 51.925821 129.285283 51.395415 
C 129.285283 50.865009 129.074551 50.356255 128.699497 49.981201 
C 128.324443 49.606147 127.81569 49.395415 127.285283 49.395415 
C 126.754877 49.395415 126.246124 49.606147 125.87107 49.981201 
C 125.496016 50.356255 125.285283 50.865009 125.285283 51.395415 
C 125.285283 51.925821 125.496016 52.434575 125.87107 52.809628 
C 126.246124 53.184682 126.754877 53.395415 127.285283 53.395415 
z
" clip-path="url(#pf57bff6805)" style="fill: #de8f05; fill-opacity: 0.2; stroke: #de8f05; stroke-opacity: 0.6; stroke-width: 0.75"/>
    <path d="M 128.568673 46.907626 
C 129.09908 46.907626 129.607833 46.696893 129.982887 46.32184 
C 130.357941 45.946786 130.568673 45.438032 130.568673 44.907626 
C 130.568673 44.37722 130.357941 43.868466 129.982887 43.493412 
C 129.607833 43.118359 129.09908 42.907626 128.568673 42.907626 
C 128.038267 42.907626 127.529514 43.118359 127.15446 43.493412 
C 126.779406 43.868466 126.568673 44.37722 126.568673 44.907626 
C 126.568673 45.438032 126.779406 45.946786 127.15446 46.32184 
C 127.529514 46.696893 128.038267 46.907626 128.568673 46.907626 
z
" clip-path="url(#pf57bff6805)" style="fill: #de8f05; fill-opacity: 0.2; stroke: #de8f05; stroke-opacity: 0.6; stroke-width: 0.75"/>
    <path d="M 80.767679 135.370624 
C 81.298085 135.370624 81.806839 135.159892 82.181893 134.784838 
C 82.556947 134.409784 82.767679 133.901031 82.767679 133.370624 
C 82.767679 132.840218 82.556947 132.331465 82.181893 131.956411 
C 81.806839 131.581357 81.298085 131.370624 80.767679 131.370624 
C 80.237273 131.370624 79.728519 131.581357 79.353466 131.956411 
C 78.978412 132.331465 78.767679 132.840218 78.767679 133.370624 
C 78.767679 133.901031 78.978412 134.409784 79.353466 134.784838 
C 79.728519 135.159892 80.237273 135.370624 80.767679 135.370624 
z
" clip-path="url(#pf57bff6805)" style="fill: #0173b2; fill-opacity: 0.2; stroke: #0173b2; stroke-opacity: 0.6; stroke-width: 0.75"/>
    <path d="M 78.681379 118.869086 
C 79.211785 118.869086 79.720538 118.658353 80.095592 118.2833 
C 80.470646 117.908246 80.681379 117.399492 80.681379 116.869086 
C 80.681379 116.33868 80.470646 115.829926 80.095592 115.454872 
C 79.720538 115.079819 79.211785 114.869086 78.681379 114.869086 
C 78.150972 114.869086 77.642219 115.079819 77.267165 115.454872 
C 76.892111 115.829926 76.681379 116.33868 76.681379 116.869086 
C 76.681379 117.399492 76.892111 117.908246 77.267165 118.2833 
C 77.642219 118.658353 78.150972 118.869086 78.681379 118.869086 
z
" clip-path="url(#pf57bff6805)" style="fill: #0173b2; fill-opacity: 0.2; stroke: #0173b2; stroke-opacity: 0.6; stroke-width: 0.75"/>
    <path d="M 80.697958 135.218177 
C 81.228364 135.218177 81.737118 135.007444 82.112172 134.63239 
C 82.487226 134.257336 82.697958 133.748583 82.697958 133.218177 
C 82.697958 132.68777 82.487226 132.179017 82.112172 131.803963 
C 81.737118 131.428909 81.228364 131.218177 80.697958 131.218177 
C 80.167552 131.218177 79.658798 131.428909 79.283745 131.803963 
C 78.908691 132.179017 78.697958 132.68777 78.697958 133.218177 
C 78.697958 133.748583 78.908691 134.257336 79.283745 134.63239 
C 79.658798 135.007444 80.167552 135.218177 80.697958 135.218177 
z
" clip-path="url(#pf57bff6805)" style="fill: #0173b2; fill-opacity: 0.2; stroke: #0173b2; stroke-opacity: 0.6; stroke-width: 0.75"/>
    <path d="M 79.096936 141.543033 
C 79.627343 141.543033 80.136096 141.332301 80.51115 140.957247 
C 80.886204 140.582193 81.096936 140.07344 81.096936 139.543033 
C 81.096936 139.012627 80.886204 138.503874 80.51115 138.12882 
C 80.136096 137.753766 79.627343 137.543033 79.096936 137.543033 
C 78.56653 137.543033 78.057777 137.753766 77.682723 138.12882 
C 77.307669 138.503874 77.096936 139.012627 77.096936 139.543033 
C 77.096936 140.07344 77.307669 140.582193 77.682723 140.957247 
C 78.057777 141.332301 78.56653 141.543033 79.096936 141.543033 
z
" clip-path="url(#pf57bff6805)" style="fill: #0173b2; fill-opacity: 0.2; stroke: #0173b2; stroke-opacity: 0.6; stroke-width: 0.75"/>
    <path d="M 79.878106 135.223703 
C 80.408513 135.223703 80.917266 135.01297 81.29232 134.637916 
C 81.667374 134.262862 81.878106 133.754109 81.878106 133.223703 
C 81.878106 132.693297 81.667374 132.184543 81.29232 131.809489 
C 80.917266 131.434435 80.408513 131.223703 79.878106 131.223703 
C 79.3477 131.223703 78.838947 131.434435 78.463893 131.809489 
C 78.088839 132.184543 77.878106 132.693297 77.878106 133.223703 
C 77.878106 133.754109 78.088839 134.262862 78.463893 134.637916 
C 78.838947 135.01297 79.3477 135.223703 79.878106 135.223703 
z
" clip-path="url(#pf57bff6805)" style="fill: #0173b2; fill-opacity: 0.2; stroke: #0173b2; stroke-opacity: 0.6; stroke-width: 0.75"/>
    <path d="M 83.918071 137.890836 
C 84.448477 137.890836 84.95723 137.680104 85.332284 137.30505 
C 85.707338 136.929996 85.918071 136.421243 85.918071 135.890836 
C 85.918071 135.36043 85.707338 134.851677 85.332284 134.476623 
C 84.95723 134.101569 84.448477 133.890836 83.918071 133.890836 
C 83.387665 133.890836 82.878911 134.101569 82.503857 134.476623 
C 82.128803 134.851677 81.918071 135.36043 81.918071 135.890836 
C 81.918071 136.421243 82.128803 136.929996 82.503857 137.30505 
C 82.878911 137.680104 83.387665 137.890836 83.918071 137.890836 
z
" clip-path="url(#pf57bff6805)" style="fill: #0173b2; fill-opacity: 0.2; stroke: #0173b2; stroke-opacity: 0.6; stroke-width: 0.75"/>
    <path d="M 80.893059 124.467572 
C 81.423465 124.467572 81.932218 124.25684 82.307272 123.881786 
C 82.682326 123.506732 82.893059 122.997978 82.893059 122.467572 
C 82.893059 121.937166 82.682326 121.428412 82.307272 121.053359 
C 81.932218 120.678305 81.423465 120.467572 80.893059 120.467572 
C 80.362653 120.467572 79.853899 120.678305 79.478845 121.053359 
C 79.103791 121.428412 78.893059 121.937166 78.893059 122.467572 
C 78.893059 122.997978 79.103791 123.506732 79.478845 123.881786 
C 79.853899 124.25684 80.362653 124.467572 80.893059 124.467572 
z
" clip-path="url(#pf57bff6805)" style="fill: #0173b2; fill-opacity: 0.2; stroke: #0173b2; stroke-opacity: 0.6; stroke-width: 0.75"/>
    <path d="M 79.239062 115.747675 
C 79.769468 115.747675 80.278222 115.536942 80.653276 115.161888 
C 81.028329 114.786834 81.239062 114.278081 81.239062 113.747675 
C 81.239062 113.217268 81.028329 112.708515 80.653276 112.333461 
C 80.278222 111.958407 79.769468 111.747675 79.239062 111.747675 
C 78.708656 111.747675 78.199902 111.958407 77.824849 112.333461 
C 77.449795 112.708515 77.239062 113.217268 77.239062 113.747675 
C 77.239062 114.278081 77.449795 114.786834 77.824849 115.161888 
C 78.199902 115.536942 78.708656 115.747675 79.239062 115.747675 
z
" clip-path="url(#pf57bff6805)" style="fill: #0173b2; fill-opacity: 0.2; stroke: #0173b2; stroke-opacity: 0.6; stroke-width: 0.75"/>
    <path d="M 79.540344 103.918877 
C 80.070751 103.918877 80.579504 103.708144 80.954558 103.333091 
C 81.329612 102.958037 81.540344 102.449283 81.540344 101.918877 
C 81.540344 101.388471 81.329612 100.879717 80.954558 100.504663 
C 80.579504 100.12961 80.070751 99.918877 79.540344 99.918877 
C 79.009938 99.918877 78.501185 100.12961 78.126131 100.504663 
C 77.751077 100.879717 77.540344 101.388471 77.540344 101.918877 
C 77.540344 102.449283 77.751077 102.958037 78.126131 103.333091 
C 78.501185 103.708144 79.009938 103.918877 79.540344 103.918877 
z
" clip-path="url(#pf57bff6805)" style="fill: #0173b2; fill-opacity: 0.2; stroke: #0173b2; stroke-opacity: 0.6; stroke-width: 0.75"/>
    <path d="M 83.911507 172.632393 
C 84.441913 172.632393 84.950667 172.421661 85.32572 172.046607 
C 85.700774 171.671553 85.911507 171.1628 85.911507 170.632393 
C 85.911507 170.101987 85.700774 169.593234 85.32572 169.21818 
C 84.950667 168.843126 84.441913 168.632393 83.911507 168.632393 
C 83.381101 168.632393 82.872347 168.843126 82.497293 169.21818 
C 82.122239 169.593234 81.911507 170.101987 81.911507 170.632393 
C 81.911507 171.1628 82.122239 171.671553 82.497293 172.046607 
C 82.872347 172.421661 83.381101 172.632393 83.911507 172.632393 
z
" clip-path="url(#pf57bff6805)" style="fill: #0173b2; fill-opacity: 0.2; stroke: #0173b2; stroke-opacity: 0.6; stroke-width: 0.75"/>
    <path d="M 80.922585 154.718455 
C 81.452991 154.718455 81.961744 154.507722 82.336798 154.132668 
C 82.711852 153.757615 82.922585 153.248861 82.922585 152.718455 
C 82.922585 152.188049 82.711852 151.679295 82.336798 151.304241 
C 81.961744 150.929188 81.452991 150.718455 80.922585 150.718455 
C 80.392178 150.718455 79.883425 150.929188 79.508371 151.304241 
C 79.133317 151.679295 78.922585 152.188049 78.922585 152.718455 
C 78.922585 153.248861 79.133317 153.757615 79.508371 154.132668 
C 79.883425 154.507722 80.392178 154.718455 80.922585 154.718455 
z
" clip-path="url(#pf57bff6805)" style="fill: #0173b2; fill-opacity: 0.2; stroke: #0173b2; stroke-opacity: 0.6; stroke-width: 0.75"/>
    <path d="M 79.136096 130.381329 
C 79.666502 130.381329 80.175256 130.170597 80.550309 129.795543 
C 80.925363 129.420489 81.136096 128.911736 81.136096 128.381329 
C 81.136096 127.850923 80.925363 127.34217 80.550309 126.967116 
C 80.175256 126.592062 79.666502 126.381329 79.136096 126.381329 
C 78.60569 126.381329 78.096936 126.592062 77.721882 126.967116 
C 77.346828 127.34217 77.136096 127.850923 77.136096 128.381329 
C 77.136096 128.911736 77.346828 129.420489 77.721882 129.795543 
C 78.096936 130.170597 78.60569 130.381329 79.136096 130.381329 
z
" clip-path="url(#pf57bff6805)" style="fill: #0173b2; fill-opacity: 0.2; stroke: #0173b2; stroke-opacity: 0.6; stroke-width: 0.75"/>
    <path d="M 78.156486 134.218739 
C 78.686892 134.218739 79.195646 134.008007 79.5707 133.632953 
C 79.945754 133.257899 80.156486 132.749146 80.156486 132.218739 
C 80.156486 131.688333 79.945754 131.17958 79.5707 130.804526 
C 79.195646 130.429472 78.686892 130.218739 78.156486 130.218739 
C 77.62608 130.218739 77.117326 130.429472 76.742273 130.804526 
C 76.367219 131.17958 76.156486 131.688333 76.156486 132.218739 
C 76.156486 132.749146 76.367219 133.257899 76.742273 133.632953 
C 77.117326 134.008007 77.62608 134.218739 78.156486 134.218739 
z
" clip-path="url(#pf57bff6805)" style="fill: #0173b2; fill-opacity: 0.2; stroke: #0173b2; stroke-opacity: 0.6; stroke-width: 0.75"/>
    <path d="M 83.047946 132.432415 
C 83.578352 132.432415 84.087106 132.221682 84.462159 131.846629 
C 84.837213 131.471575 85.047946 130.962821 85.047946 130.432415 
C 85.047946 129.902009 84.837213 129.393255 84.462159 129.018201 
C 84.087106 128.643148 83.578352 128.432415 83.047946 128.432415 
C 82.51754 128.432415 82.008786 128.643148 81.633732 129.018201 
C 81.258678 129.393255 81.047946 129.902009 81.047946 130.432415 
C 81.047946 130.962821 81.258678 131.471575 81.633732 131.846629 
C 82.008786 132.221682 82.51754 132.432415 83.047946 132.432415 
z
" clip-path="url(#pf57bff6805)" style="fill: #0173b2; fill-opacity: 0.2; stroke: #0173b2; stroke-opacity: 0.6; stroke-width: 0.75"/>
    <path d="M 81.169312 156.633098 
C 81.699718 156.633098 82.208472 156.422365 82.583525 156.047312 
C 82.958579 155.672258 83.169312 155.163504 83.169312 154.633098 
C 83.169312 154.102692 82.958579 153.593938 82.583525 153.218884 
C 82.208472 152.843831 81.699718 152.633098 81.169312 152.633098 
C 80.638906 152.633098 80.130152 152.843831 79.755098 153.218884 
C 79.380044 153.593938 79.169312 154.102692 79.169312 154.633098 
C 79.169312 155.163504 79.380044 155.672258 79.755098 156.047312 
C 80.130152 156.422365 80.638906 156.633098 81.169312 156.633098 
z
" clip-path="url(#pf57bff6805)" style="fill: #0173b2; fill-opacity: 0.2; stroke: #0173b2; stroke-opacity: 0.6; stroke-width: 0.75"/>
    <path d="M 84.658616 98.142431 
C 85.189022 98.142431 85.697776 97.931698 86.072829 97.556644 
C 86.447883 97.181591 86.658616 96.672837 86.658616 96.142431 
C 86.658616 95.612025 86.447883 95.103271 86.072829 94.728217 
C 85.697776 94.353164 85.189022 94.142431 84.658616 94.142431 
C 84.12821 94.142431 83.619456 94.353164 83.244402 94.728217 
C 82.869349 95.103271 82.658616 95.612025 82.658616 96.142431 
C 82.658616 96.672837 82.869349 97.181591 83.244402 97.556644 
C 83.619456 97.931698 84.12821 98.142431 84.658616 98.142431 
z
" clip-path="url(#pf57bff6805)" style="fill: #0173b2; fill-opacity: 0.2; stroke: #0173b2; stroke-opacity: 0.6; stroke-width: 0.75"/>
    <path d="M 85.214398 156.079192 
C 85.744805 156.079192 86.253558 155.868459 86.628612 155.493405 
C 87.003666 155.118351 87.214398 154.609598 87.214398 154.079192 
C 87.214398 153.548785 87.003666 153.040032 86.628612 152.664978 
C 86.253558 152.289924 85.744805 152.079192 85.214398 152.079192 
C 84.683992 152.079192 84.175239 152.289924 83.800185 152.664978 
C 83.425131 153.040032 83.214398 153.548785 83.214398 154.079192 
C 83.214398 154.609598 83.425131 155.118351 83.800185 155.493405 
C 84.175239 155.868459 84.683992 156.079192 85.214398 156.079192 
z
" clip-path="url(#pf57bff6805)" style="fill: #0173b2; fill-opacity: 0.2; stroke: #0173b2; stroke-opacity: 0.6; stroke-width: 0.75"/>
    <path d="M 81.797663 131.182105 
C 82.32807 131.182105 82.836823 130.971372 83.211877 130.596318 
C 83.586931 130.221264 83.797663 129.712511 83.797663 129.182105 
C 83.797663 128.651698 83.586931 128.142945 83.211877 127.767891 
C 82.836823 127.392837 82.32807 127.182105 81.797663 127.182105 
C 81.267257 127.182105 80.758504 127.392837 80.38345 127.767891 
C 80.008396 128.142945 79.797663 128.651698 79.797663 129.182105 
C 79.797663 129.712511 80.008396 130.221264 80.38345 130.596318 
C 80.758504 130.971372 81.267257 131.182105 81.797663 131.182105 
z
" clip-path="url(#pf57bff6805)" style="fill: #0173b2; fill-opacity: 0.2; stroke: #0173b2; stroke-opacity: 0.6; stroke-width: 0.75"/>
    <path d="M 78.994029 131.408328 
C 79.524436 131.408328 80.033189 131.197595 80.408243 130.822541 
C 80.783297 130.447488 80.994029 129.938734 80.994029 129.408328 
C 80.994029 128.877922 80.783297 128.369168 80.408243 127.994114 
C 80.033189 127.619061 79.524436 127.408328 78.994029 127.408328 
C 78.463623 127.408328 77.95487 127.619061 77.579816 127.994114 
C 77.204762 128.369168 76.994029 128.877922 76.994029 129.408328 
C 76.994029 129.938734 77.204762 130.447488 77.579816 130.822541 
C 77.95487 131.197595 78.463623 131.408328 78.994029 131.408328 
z
" clip-path="url(#pf57bff6805)" style="fill: #0173b2; fill-opacity: 0.2; stroke: #0173b2; stroke-opacity: 0.6; stroke-width: 0.75"/>
    <path d="M 80.435386 134.437438 
C 80.965792 134.437438 81.474546 134.226706 81.849599 133.851652 
C 82.224653 133.476598 82.435386 132.967845 82.435386 132.437438 
C 82.435386 131.907032 82.224653 131.398279 81.849599 131.023225 
C 81.474546 130.648171 80.965792 130.437438 80.435386 130.437438 
C 79.90498 130.437438 79.396226 130.648171 79.021172 131.023225 
C 78.646118 131.398279 78.435386 131.907032 78.435386 132.437438 
C 78.435386 132.967845 78.646118 133.476598 79.021172 133.851652 
C 79.396226 134.226706 79.90498 134.437438 80.435386 134.437438 
z
" clip-path="url(#pf57bff6805)" style="fill: #0173b2; fill-opacity: 0.2; stroke: #0173b2; stroke-opacity: 0.6; stroke-width: 0.75"/>
    <path d="M 127.214163 32.246032 
C 127.744569 32.246032 128.253322 32.035299 128.628376 31.660245 
C 129.00343 31.285192 129.214163 30.776438 129.214163 30.246032 
C 129.214163 29.715626 129.00343 29.206872 128.628376 28.831818 
C 128.253322 28.456764 127.744569 28.246032 127.214163 28.246032 
C 126.683757 28.246032 126.175003 28.456764 125.799949 28.831818 
C 125.424895 29.206872 125.214163 29.715626 125.214163 30.246032 
C 125.214163 30.776438 125.424895 31.285192 125.799949 31.660245 
C 126.175003 32.035299 126.683757 32.246032 127.214163 32.246032 
z
" clip-path="url(#pf57bff6805)" style="fill: #de8f05; fill-opacity: 0.2; stroke: #de8f05; stroke-opacity: 0.6; stroke-width: 0.75"/>
    <path d="M 133.747995 35.533268 
C 134.278401 35.533268 134.787155 35.322535 135.162209 34.947481 
C 135.537262 34.572428 135.747995 34.063674 135.747995 33.533268 
C 135.747995 33.002862 135.537262 32.494108 135.162209 32.119054 
C 134.787155 31.744 134.278401 31.533268 133.747995 31.533268 
C 133.217589 31.533268 132.708835 31.744 132.333782 32.119054 
C 131.958728 32.494108 131.747995 33.002862 131.747995 33.533268 
C 131.747995 34.063674 131.958728 34.572428 132.333782 34.947481 
C 132.708835 35.322535 133.217589 35.533268 133.747995 35.533268 
z
" clip-path="url(#pf57bff6805)" style="fill: #de8f05; fill-opacity: 0.2; stroke: #de8f05; stroke-opacity: 0.6; stroke-width: 0.75"/>
    <path d="M 133.78438 30.877138 
C 134.314786 30.877138 134.82354 30.666405 135.198593 30.291351 
C 135.573647 29.916298 135.78438 29.407544 135.78438 28.877138 
C 135.78438 28.346732 135.573647 27.837978 135.198593 27.462924 
C 134.82354 27.08787 134.314786 26.877138 133.78438 26.877138 
C 133.253974 26.877138 132.74522 27.08787 132.370166 27.462924 
C 131.995113 27.837978 131.78438 28.346732 131.78438 28.877138 
C 131.78438 29.407544 131.995113 29.916298 132.370166 30.291351 
C 132.74522 30.666405 133.253974 30.877138 133.78438 30.877138 
z
" clip-path="url(#pf57bff6805)" style="fill: #de8f05; fill-opacity: 0.2; stroke: #de8f05; stroke-opacity: 0.6; stroke-width: 0.75"/>
    <path d="M 129.025291 37.430107 
C 129.555697 37.430107 130.064451 37.219374 130.439505 36.844321 
C 130.814558 36.469267 131.025291 35.960513 131.025291 35.430107 
C 131.025291 34.899701 130.814558 34.390947 130.439505 34.015894 
C 130.064451 33.64084 129.555697 33.430107 129.025291 33.430107 
C 128.494885 33.430107 127.986131 33.64084 127.611077 34.015894 
C 127.236024 34.390947 127.025291 34.899701 127.025291 35.430107 
C 127.025291 35.960513 127.236024 36.469267 127.611077 36.844321 
C 127.986131 37.219374 128.494885 37.430107 129.025291 37.430107 
z
" clip-path="url(#pf57bff6805)" style="fill: #de8f05; fill-opacity: 0.2; stroke: #de8f05; stroke-opacity: 0.6; stroke-width: 0.75"/>
    <path d="M 131.56866 104.871216 
C 132.099066 104.871216 132.60782 104.660483 132.982874 104.285429 
C 133.357927 103.910375 133.56866 103.401622 133.56866 102.871216 
C 133.56866 102.34081 133.357927 101.832056 132.982874 101.457002 
C 132.60782 101.081948 132.099066 100.871216 131.56866 100.871216 
C 131.038254 100.871216 130.5295 101.081948 130.154446 101.457002 
C 129.779393 101.832056 129.56866 102.34081 129.56866 102.871216 
C 129.56866 103.401622 129.779393 103.910375 130.154446 104.285429 
C 130.5295 104.660483 131.038254 104.871216 131.56866 104.871216 
z
" clip-path="url(#pf57bff6805)" style="fill: #de8f05; fill-opacity: 0.2; stroke: #de8f05; stroke-opacity: 0.6; stroke-width: 0.75"/>
    <path d="M 130.226522 69.309536 
C 130.756928 69.309536 131.265681 69.098804 131.640735 68.72375 
C 132.015789 68.348696 132.226522 67.839943 132.226522 67.309536 
C 132.226522 66.77913 132.015789 66.270377 131.640735 65.895323 
C 131.265681 65.520269 130.756928 65.309536 130.226522 65.309536 
C 129.696115 65.309536 129.187362 65.520269 128.812308 65.895323 
C 128.437254 66.270377 128.226522 66.77913 128.226522 67.309536 
C 128.226522 67.839943 128.437254 68.348696 128.812308 68.72375 
C 129.187362 69.098804 129.696115 69.309536 130.226522 69.309536 
z
" clip-path="url(#pf57bff6805)" style="fill: #de8f05; fill-opacity: 0.2; stroke: #de8f05; stroke-opacity: 0.6; stroke-width: 0.75"/>
    <path d="M 129.336379 121.629277 
C 129.866785 121.629277 130.375539 121.418545 130.750592 121.043491 
C 131.125646 120.668437 131.336379 120.159684 131.336379 119.629277 
C 131.336379 119.098871 131.125646 118.590118 130.750592 118.215064 
C 130.375539 117.84001 129.866785 117.629277 129.336379 117.629277 
C 128.805973 117.629277 128.297219 117.84001 127.922165 118.215064 
C 127.547111 118.590118 127.336379 119.098871 127.336379 119.629277 
C 127.336379 120.159684 127.547111 120.668437 127.922165 121.043491 
C 128.297219 121.418545 128.805973 121.629277 129.336379 121.629277 
z
" clip-path="url(#pf57bff6805)" style="fill: #de8f05; fill-opacity: 0.2; stroke: #de8f05; stroke-opacity: 0.6; stroke-width: 0.75"/>
    <path d="M 129.740364 104.943032 
C 130.27077 104.943032 130.779523 104.732299 131.154577 104.357245 
C 131.529631 103.982191 131.740364 103.473438 131.740364 102.943032 
C 131.740364 102.412625 131.529631 101.903872 131.154577 101.528818 
C 130.779523 101.153764 130.27077 100.943032 129.740364 100.943032 
C 129.209957 100.943032 128.701204 101.153764 128.32615 101.528818 
C 127.951096 101.903872 127.740364 102.412625 127.740364 102.943032 
C 127.740364 103.473438 127.951096 103.982191 128.32615 104.357245 
C 128.701204 104.732299 129.209957 104.943032 129.740364 104.943032 
z
" clip-path="url(#pf57bff6805)" style="fill: #de8f05; fill-opacity: 0.2; stroke: #de8f05; stroke-opacity: 0.6; stroke-width: 0.75"/>
    <path d="M 129.632058 113.680438 
C 130.162465 113.680438 130.671218 113.469705 131.046272 113.094652 
C 131.421326 112.719598 131.632058 112.210844 131.632058 111.680438 
C 131.632058 111.150032 131.421326 110.641278 131.046272 110.266225 
C 130.671218 109.891171 130.162465 109.680438 129.632058 109.680438 
C 129.101652 109.680438 128.592899 109.891171 128.217845 110.266225 
C 127.842791 110.641278 127.632058 111.150032 127.632058 111.680438 
C 127.632058 112.210844 127.842791 112.719598 128.217845 113.094652 
C 128.592899 113.469705 129.101652 113.680438 129.632058 113.680438 
z
" clip-path="url(#pf57bff6805)" style="fill: #de8f05; fill-opacity: 0.2; stroke: #de8f05; stroke-opacity: 0.6; stroke-width: 0.75"/>
    <path d="M 127.895745 101.037902 
C 128.426151 101.037902 128.934905 100.82717 129.309959 100.452116 
C 129.685013 100.077062 129.895745 99.568309 129.895745 99.037902 
C 129.895745 98.507496 129.685013 97.998743 129.309959 97.623689 
C 128.934905 97.248635 128.426151 97.037902 127.895745 97.037902 
C 127.365339 97.037902 126.856586 97.248635 126.481532 97.623689 
C 126.106478 97.998743 125.895745 98.507496 125.895745 99.037902 
C 125.895745 99.568309 126.106478 100.077062 126.481532 100.452116 
C 126.856586 100.82717 127.365339 101.037902 127.895745 101.037902 
z
" clip-path="url(#pf57bff6805)" style="fill: #de8f05; fill-opacity: 0.2; stroke: #de8f05; stroke-opacity: 0.6; stroke-width: 0.75"/>
    <path d="M 126.459162 102.873605 
C 126.989568 102.873605 127.498322 102.662873 127.873376 102.287819 
C 128.24843 101.912765 128.459162 101.404012 128.459162 100.873605 
C 128.459162 100.343199 128.24843 99.834446 127.873376 99.459392 
C 127.498322 99.084338 126.989568 98.873605 126.459162 98.873605 
C 125.928756 98.873605 125.420002 99.084338 125.044949 99.459392 
C 124.669895 99.834446 124.459162 100.343199 124.459162 100.873605 
C 124.459162 101.404012 124.669895 101.912765 125.044949 102.287819 
C 125.420002 102.662873 125.928756 102.873605 126.459162 102.873605 
z
" clip-path="url(#pf57bff6805)" style="fill: #de8f05; fill-opacity: 0.2; stroke: #de8f05; stroke-opacity: 0.6; stroke-width: 0.75"/>
    <path d="M 129.600763 94.946133 
C 130.131169 94.946133 130.639923 94.7354 131.014977 94.360346 
C 131.390031 93.985293 131.600763 93.476539 131.600763 92.946133 
C 131.600763 92.415727 131.390031 91.906973 131.014977 91.531919 
C 130.639923 91.156866 130.131169 90.946133 129.600763 90.946133 
C 129.070357 90.946133 128.561604 91.156866 128.18655 91.531919 
C 127.811496 91.906973 127.600763 92.415727 127.600763 92.946133 
C 127.600763 93.476539 127.811496 93.985293 128.18655 94.360346 
C 128.561604 94.7354 129.070357 94.946133 129.600763 94.946133 
z
" clip-path="url(#pf57bff6805)" style="fill: #de8f05; fill-opacity: 0.2; stroke: #de8f05; stroke-opacity: 0.6; stroke-width: 0.75"/>
    <path d="M 131.471868 104.014312 
C 132.002274 104.014312 132.511028 103.80358 132.886082 103.428526 
C 133.261136 103.053472 133.471868 102.544718 133.471868 102.014312 
C 133.471868 101.483906 133.261136 100.975153 132.886082 100.600099 
C 132.511028 100.225045 132.002274 100.014312 131.471868 100.014312 
C 130.941462 100.014312 130.432708 100.225045 130.057655 100.600099 
C 129.682601 100.975153 129.471868 101.483906 129.471868 102.014312 
C 129.471868 102.544718 129.682601 103.053472 130.057655 103.428526 
C 130.432708 103.80358 130.941462 104.014312 131.471868 104.014312 
z
" clip-path="url(#pf57bff6805)" style="fill: #de8f05; fill-opacity: 0.2; stroke: #de8f05; stroke-opacity: 0.6; stroke-width: 0.75"/>
    <path d="M 127.704195 113.320532 
C 128.234602 113.320532 128.743355 113.1098 129.118409 112.734746 
C 129.493463 112.359692 129.704195 111.850939 129.704195 111.320532 
C 129.704195 110.790126 129.493463 110.281373 129.118409 109.906319 
C 128.743355 109.531265 128.234602 109.320532 127.704195 109.320532 
C 127.173789 109.320532 126.665036 109.531265 126.289982 109.906319 
C 125.914928 110.281373 125.704195 110.790126 125.704195 111.320532 
C 125.704195 111.850939 125.914928 112.359692 126.289982 112.734746 
C 126.665036 113.1098 127.173789 113.320532 127.704195 113.320532 
z
" clip-path="url(#pf57bff6805)" style="fill: #de8f05; fill-opacity: 0.2; stroke: #de8f05; stroke-opacity: 0.6; stroke-width: 0.75"/>
    <path d="M 128.688578 69.272015 
C 129.218984 69.272015 129.727737 69.061282 130.102791 68.686229 
C 130.477845 68.311175 130.688578 67.802421 130.688578 67.272015 
C 130.688578 66.741609 130.477845 66.232855 130.102791 65.857802 
C 129.727737 65.482748 129.218984 65.272015 128.688578 65.272015 
C 128.158171 65.272015 127.649418 65.482748 127.274364 65.857802 
C 126.89931 66.232855 126.688578 66.741609 126.688578 67.272015 
C 126.688578 67.802421 126.89931 68.311175 127.274364 68.686229 
C 127.649418 69.061282 128.158171 69.272015 128.688578 69.272015 
z
" clip-path="url(#pf57bff6805)" style="fill: #de8f05; fill-opacity: 0.2; stroke: #de8f05; stroke-opacity: 0.6; stroke-width: 0.75"/>
    <path d="M 132.9344 59.573584 
C 133.464806 59.573584 133.97356 59.362852 134.348614 58.987798 
C 134.723668 58.612744 134.9344 58.10399 134.9344 57.573584 
C 134.9344 57.043178 134.723668 56.534424 134.348614 56.159371 
C 133.97356 55.784317 133.464806 55.573584 132.9344 55.573584 
C 132.403994 55.573584 131.89524 55.784317 131.520187 56.159371 
C 131.145133 56.534424 130.9344 57.043178 130.9344 57.573584 
C 130.9344 58.10399 131.145133 58.612744 131.520187 58.987798 
C 131.89524 59.362852 132.403994 59.573584 132.9344 59.573584 
z
" clip-path="url(#pf57bff6805)" style="fill: #de8f05; fill-opacity: 0.2; stroke: #de8f05; stroke-opacity: 0.6; stroke-width: 0.75"/>
    <path d="M 180.78545 139.552565 
C 181.315856 139.552565 181.82461 139.341833 182.199664 138.966779 
C 182.574717 138.591725 182.78545 138.082972 182.78545 137.552565 
C 182.78545 137.022159 182.574717 136.513406 182.199664 136.138352 
C 181.82461 135.763298 181.315856 135.552565 180.78545 135.552565 
C 180.255044 135.552565 179.74629 135.763298 179.371236 136.138352 
C 178.996183 136.513406 178.78545 137.022159 178.78545 137.552565 
C 178.78545 138.082972 178.996183 138.591725 179.371236 138.966779 
C 179.74629 139.341833 180.255044 139.552565 180.78545 139.552565 
z
" clip-path="url(#pf57bff6805)" style="fill: #029e73; fill-opacity: 0.2; stroke: #029e73; stroke-opacity: 0.6; stroke-width: 0.75"/>
    <path d="M 177.456872 143.07635 
C 177.987279 143.07635 178.496032 142.865617 178.871086 142.490563 
C 179.24614 142.115509 179.456872 141.606756 179.456872 141.07635 
C 179.456872 140.545943 179.24614 140.03719 178.871086 139.662136 
C 178.496032 139.287082 177.987279 139.07635 177.456872 139.07635 
C 176.926466 139.07635 176.417713 139.287082 176.042659 139.662136 
C 175.667605 140.03719 175.456872 140.545943 175.456872 141.07635 
C 175.456872 141.606756 175.667605 142.115509 176.042659 142.490563 
C 176.417713 142.865617 176.926466 143.07635 177.456872 143.07635 
z
" clip-path="url(#pf57bff6805)" style="fill: #029e73; fill-opacity: 0.2; stroke: #029e73; stroke-opacity: 0.6; stroke-width: 0.75"/>
    <path d="M 179.355924 121.7372 
C 179.88633 121.7372 180.395083 121.526467 180.770137 121.151413 
C 181.145191 120.776359 181.355924 120.267606 181.355924 119.7372 
C 181.355924 119.206793 181.145191 118.69804 180.770137 118.322986 
C 180.395083 117.947932 179.88633 117.7372 179.355924 117.7372 
C 178.825518 117.7372 178.316764 117.947932 177.94171 118.322986 
C 177.566656 118.69804 177.355924 119.206793 177.355924 119.7372 
C 177.355924 120.267606 177.566656 120.776359 177.94171 121.151413 
C 178.316764 121.526467 178.825518 121.7372 179.355924 121.7372 
z
" clip-path="url(#pf57bff6805)" style="fill: #029e73; fill-opacity: 0.2; stroke: #029e73; stroke-opacity: 0.6; stroke-width: 0.75"/>
    <path d="M 176.886065 120.478697 
C 177.416471 120.478697 177.925224 120.267964 178.300278 119.89291 
C 178.675332 119.517857 178.886065 119.009103 178.886065 118.478697 
C 178.886065 117.948291 178.675332 117.439537 178.300278 117.064483 
C 177.925224 116.68943 177.416471 116.478697 176.886065 116.478697 
C 176.355658 116.478697 175.846905 116.68943 175.471851 117.064483 
C 175.096797 117.439537 174.886065 117.948291 174.886065 118.478697 
C 174.886065 119.009103 175.096797 119.517857 175.471851 119.89291 
C 175.846905 120.267964 176.355658 120.478697 176.886065 120.478697 
z
" clip-path="url(#pf57bff6805)" style="fill: #029e73; fill-opacity: 0.2; stroke: #029e73; stroke-opacity: 0.6; stroke-width: 0.75"/>
    <path d="M 177.140633 111.379561 
C 177.671039 111.379561 178.179792 111.168829 178.554846 110.793775 
C 178.9299 110.418721 179.140633 109.909968 179.140633 109.379561 
C 179.140633 108.849155 178.9299 108.340402 178.554846 107.965348 
C 178.179792 107.590294 177.671039 107.379561 177.140633 107.379561 
C 176.610226 107.379561 176.101473 107.590294 175.726419 107.965348 
C 175.351365 108.340402 175.140633 108.849155 175.140633 109.379561 
C 175.140633 109.909968 175.351365 110.418721 175.726419 110.793775 
C 176.101473 111.168829 176.610226 111.379561 177.140633 111.379561 
z
" clip-path="url(#pf57bff6805)" style="fill: #029e73; fill-opacity: 0.2; stroke: #029e73; stroke-opacity: 0.6; stroke-width: 0.75"/>
    <path d="M 174.725576 134.188111 
C 175.255983 134.188111 175.764736 133.977378 176.13979 133.602324 
C 176.514844 133.227271 176.725576 132.718517 176.725576 132.188111 
C 176.725576 131.657705 176.514844 131.148951 176.13979 130.773897 
C 175.764736 130.398843 175.255983 130.188111 174.725576 130.188111 
C 174.19517 130.188111 173.686417 130.398843 173.311363 130.773897 
C 172.936309 131.148951 172.725576 131.657705 172.725576 132.188111 
C 172.725576 132.718517 172.936309 133.227271 173.311363 133.602324 
C 173.686417 133.977378 174.19517 134.188111 174.725576 134.188111 
z
" clip-path="url(#pf57bff6805)" style="fill: #029e73; fill-opacity: 0.2; stroke: #029e73; stroke-opacity: 0.6; stroke-width: 0.75"/>
    <path d="M 177.257744 130.047515 
C 177.78815 130.047515 178.296904 129.836782 178.671958 129.461728 
C 179.047012 129.086674 179.257744 128.577921 179.257744 128.047515 
C 179.257744 127.517108 179.047012 127.008355 178.671958 126.633301 
C 178.296904 126.258247 177.78815 126.047515 177.257744 126.047515 
C 176.727338 126.047515 176.218584 126.258247 175.843531 126.633301 
C 175.468477 127.008355 175.257744 127.517108 175.257744 128.047515 
C 175.257744 128.577921 175.468477 129.086674 175.843531 129.461728 
C 176.218584 129.836782 176.727338 130.047515 177.257744 130.047515 
z
" clip-path="url(#pf57bff6805)" style="fill: #029e73; fill-opacity: 0.2; stroke: #029e73; stroke-opacity: 0.6; stroke-width: 0.75"/>
    <path d="M 174.282461 112.176191 
C 174.812867 112.176191 175.321621 111.965458 175.696675 111.590404 
C 176.071728 111.215351 176.282461 110.706597 176.282461 110.176191 
C 176.282461 109.645785 176.071728 109.137031 175.696675 108.761977 
C 175.321621 108.386924 174.812867 108.176191 174.282461 108.176191 
C 173.752055 108.176191 173.243301 108.386924 172.868247 108.761977 
C 172.493194 109.137031 172.282461 109.645785 172.282461 110.176191 
C 172.282461 110.706597 172.493194 111.215351 172.868247 111.590404 
C 173.243301 111.965458 173.752055 112.176191 174.282461 112.176191 
z
" clip-path="url(#pf57bff6805)" style="fill: #029e73; fill-opacity: 0.2; stroke: #029e73; stroke-opacity: 0.6; stroke-width: 0.75"/>
    <path d="M 181.175391 126.625114 
C 181.705797 126.625114 182.214551 126.414382 182.589604 126.039328 
C 182.964658 125.664274 183.175391 125.15552 183.175391 124.625114 
C 183.175391 124.094708 182.964658 123.585954 182.589604 123.210901 
C 182.214551 122.835847 181.705797 122.625114 181.175391 122.625114 
C 180.644985 122.625114 180.136231 122.835847 179.761177 123.210901 
C 179.386123 123.585954 179.175391 124.094708 179.175391 124.625114 
C 179.175391 125.15552 179.386123 125.664274 179.761177 126.039328 
C 180.136231 126.414382 180.644985 126.625114 181.175391 126.625114 
z
" clip-path="url(#pf57bff6805)" style="fill: #029e73; fill-opacity: 0.2; stroke: #029e73; stroke-opacity: 0.6; stroke-width: 0.75"/>
    <path d="M 180.054973 141.296368 
C 180.58538 141.296368 181.094133 141.085636 181.469187 140.710582 
C 181.844241 140.335528 182.054973 139.826774 182.054973 139.296368 
C 182.054973 138.765962 181.844241 138.257208 181.469187 137.882155 
C 181.094133 137.507101 180.58538 137.296368 180.054973 137.296368 
C 179.524567 137.296368 179.015814 137.507101 178.64076 137.882155 
C 178.265706 138.257208 178.054973 138.765962 178.054973 139.296368 
C 178.054973 139.826774 178.265706 140.335528 178.64076 140.710582 
C 179.015814 141.085636 179.524567 141.296368 180.054973 141.296368 
z
" clip-path="url(#pf57bff6805)" style="fill: #029e73; fill-opacity: 0.2; stroke: #029e73; stroke-opacity: 0.6; stroke-width: 0.75"/>
    <path d="M 181.176087 162.485525 
C 181.706493 162.485525 182.215247 162.274792 182.5903 161.899738 
C 182.965354 161.524684 183.176087 161.015931 183.176087 160.485525 
C 183.176087 159.955118 182.965354 159.446365 182.5903 159.071311 
C 182.215247 158.696257 181.706493 158.485525 181.176087 158.485525 
C 180.645681 158.485525 180.136927 158.696257 179.761873 159.071311 
C 179.386819 159.446365 179.176087 159.955118 179.176087 160.485525 
C 179.176087 161.015931 179.386819 161.524684 179.761873 161.899738 
C 180.136927 162.274792 180.645681 162.485525 181.176087 162.485525 
z
" clip-path="url(#pf57bff6805)" style="fill: #029e73; fill-opacity: 0.2; stroke: #029e73; stroke-opacity: 0.6; stroke-width: 0.75"/>
    <path d="M 178.77525 147.057188 
C 179.305657 147.057188 179.81441 146.846455 180.189464 146.471401 
C 180.564518 146.096348 180.77525 145.587594 180.77525 145.057188 
C 180.77525 144.526782 180.564518 144.018028 180.189464 143.642974 
C 179.81441 143.26792 179.305657 143.057188 178.77525 143.057188 
C 178.244844 143.057188 177.736091 143.26792 177.361037 143.642974 
C 176.985983 144.018028 176.77525 144.526782 176.77525 145.057188 
C 176.77525 145.587594 176.985983 146.096348 177.361037 146.471401 
C 177.736091 146.846455 178.244844 147.057188 178.77525 147.057188 
z
" clip-path="url(#pf57bff6805)" style="fill: #029e73; fill-opacity: 0.2; stroke: #029e73; stroke-opacity: 0.6; stroke-width: 0.75"/>
    <path d="M 177.591465 149.042247 
C 178.121872 149.042247 178.630625 148.831514 179.005679 148.45646 
C 179.380733 148.081406 179.591465 147.572653 179.591465 147.042247 
C 179.591465 146.51184 179.380733 146.003087 179.005679 145.628033 
C 178.630625 145.252979 178.121872 145.042247 177.591465 145.042247 
C 177.061059 145.042247 176.552306 145.252979 176.177252 145.628033 
C 175.802198 146.003087 175.591465 146.51184 175.591465 147.042247 
C 175.591465 147.572653 175.802198 148.081406 176.177252 148.45646 
C 176.552306 148.831514 177.061059 149.042247 177.591465 149.042247 
z
" clip-path="url(#pf57bff6805)" style="fill: #029e73; fill-opacity: 0.2; stroke: #029e73; stroke-opacity: 0.6; stroke-width: 0.75"/>
    <path d="M 175.298061 105.837775 
C 175.828468 105.837775 176.337221 105.627042 176.712275 105.251989 
C 177.087329 104.876935 177.298061 104.368181 177.298061 103.837775 
C 177.298061 103.307369 177.087329 102.798615 176.712275 102.423562 
C 176.337221 102.048508 175.828468 101.837775 175.298061 101.837775 
C 174.767655 101.837775 174.258902 102.048508 173.883848 102.423562 
C 173.508794 102.798615 173.298061 103.307369 173.298061 103.837775 
C 173.298061 104.368181 173.508794 104.876935 173.883848 105.251989 
C 174.258902 105.627042 174.767655 105.837775 175.298061 105.837775 
z
" clip-path="url(#pf57bff6805)" style="fill: #029e73; fill-opacity: 0.2; stroke: #029e73; stroke-opacity: 0.6; stroke-width: 0.75"/>
    <path d="M 181.002374 96.621181 
C 181.53278 96.621181 182.041533 96.410448 182.416587 96.035394 
C 182.791641 95.66034 183.002374 95.151587 183.002374 94.621181 
C 183.002374 94.090774 182.791641 93.582021 182.416587 93.206967 
C 182.041533 92.831913 181.53278 92.621181 181.002374 92.621181 
C 180.471967 92.621181 179.963214 92.831913 179.58816 93.206967 
C 179.213106 93.582021 179.002374 94.090774 179.002374 94.621181 
C 179.002374 95.151587 179.213106 95.66034 179.58816 96.035394 
C 179.963214 96.410448 180.471967 96.621181 181.002374 96.621181 
z
" clip-path="url(#pf57bff6805)" style="fill: #029e73; fill-opacity: 0.2; stroke: #029e73; stroke-opacity: 0.6; stroke-width: 0.75"/>
   </g>
   <g id="PathCollection_2">
    <path d="M 72.307885 134.171022 
C 73.103495 134.171022 73.866625 133.854923 74.429206 133.292343 
C 74.991786 132.729762 75.307885 131.966632 75.307885 131.171022 
C 75.307885 130.375413 74.991786 129.612283 74.429206 129.049702 
C 73.866625 128.487121 73.103495 128.171022 72.307885 128.171022 
C 71.512276 128.171022 70.749146 128.487121 70.186565 129.049702 
C 69.623984 129.612283 69.307885 130.375413 69.307885 131.171022 
C 69.307885 131.966632 69.623984 132.729762 70.186565 133.292343 
C 70.749146 133.854923 71.512276 134.171022 72.307885 134.171022 
z
" clip-path="url(#pf57bff6805)" style="fill: #0173b2; stroke: #0173b2; stroke-width: 0.5"/>
    <path d="M 120.374083 76.679912 
C 121.169693 76.679912 121.932823 76.363813 122.495404 75.801233 
C 123.057984 75.238652 123.374083 74.475522 123.374083 73.679912 
C 123.374083 72.884303 123.057984 72.121173 122.495404 71.558592 
C 121.932823 70.996011 121.169693 70.679912 120.374083 70.679912 
C 119.578474 70.679912 118.815344 70.996011 118.252763 71.558592 
C 117.690182 72.121173 117.374083 72.884303 117.374083 73.679912 
C 117.374083 74.475522 117.690182 75.238652 118.252763 75.801233 
C 118.815344 76.363813 119.578474 76.679912 120.374083 76.679912 
z
" clip-path="url(#pf57bff6805)" style="fill: #de8f05; stroke: #de8f05; stroke-width: 0.5"/>
    <path d="M 168.440281 130.440106 
C 169.235891 130.440106 169.999021 130.124007 170.561602 129.561426 
C 171.124182 128.998845 171.440281 128.235715 171.440281 127.440106 
C 171.440281 126.644496 171.124182 125.881366 170.561602 125.318785 
C 169.999021 124.756205 169.235891 124.440106 168.440281 124.440106 
C 167.644672 124.440106 166.881542 124.756205 166.318961 125.318785 
C 165.75638 125.881366 165.440281 126.644496 165.440281 127.440106 
C 165.440281 128.235715 165.75638 128.998845 166.318961 129.561426 
C 166.881542 130.124007 167.644672 130.440106 168.440281 130.440106 
z
" clip-path="url(#pf57bff6805)" style="fill: #029e73; stroke: #029e73; stroke-width: 0.5"/>
   </g>
   <g id="LineCollection_1">
    <path d="M 72.307885 143.400662 
L 72.307885 118.941383 
" clip-path="url(#pf57bff6805)" style="fill: none; stroke: #0173b2; stroke-width: 1.5; stroke-linecap: round"/>
    <path d="M 120.374083 101.014305 
L 120.374083 46.34552 
" clip-path="url(#pf57bff6805)" style="fill: none; stroke: #de8f05; stroke-width: 1.5; stroke-linecap: round"/>
    <path d="M 168.440281 145.653604 
L 168.440281 109.226607 
" clip-path="url(#pf57bff6805)" style="fill: none; stroke: #029e73; stroke-width: 1.5; stroke-linecap: round"/>
   </g>
   <g id="patch_3">
    <path d="M 53.081406 177.720156 
L 53.081406 21.789375 
" style="fill: none; stroke: #ffffff; stroke-width: 1.25; stroke-linejoin: miter; stroke-linecap: square"/>
   </g>
   <g id="patch_4">
    <path d="M 197.28 177.720156 
L 197.28 21.789375 
" style="fill: none; stroke: #ffffff; stroke-width: 1.25; stroke-linejoin: miter; stroke-linecap: square"/>
   </g>
   <g id="patch_5">
    <path d="M 53.081406 177.720156 
L 197.28 177.720156 
" style="fill: none; stroke: #ffffff; stroke-width: 1.25; stroke-linejoin: miter; stroke-linecap: square"/>
   </g>
   <g id="patch_6">
    <path d="M 53.081406 21.789375 
L 197.28 21.789375 
" style="fill: none; stroke: #ffffff; stroke-width: 1.25; stroke-linejoin: miter; stroke-linecap: square"/>
   </g>
   <g id="text_11">
    <text style="fill: #262626; font: 12px 'Arial', 'DejaVu Sans', 'Liberation Sans', 'Bitstream Vera Sans', sans-serif; text-anchor: middle" x="125.180703" y="15.789375" transform="rotate(-0 125.180703 15.789375)">Tfr1</text>
   </g>
  </g>
  <g id="legend_1">
   <g id="patch_7">
    <path d="M 219.38 118.906953 
L 275.359688 118.906953 
Q 277.559687 118.906953 277.559687 116.706953 
L 277.559687 54.653047 
Q 277.559687 52.453047 275.359688 52.453047 
L 219.38 52.453047 
Q 217.18 52.453047 217.18 54.653047 
L 217.18 116.706953 
Q 217.18 118.906953 219.38 118.906953 
z
" style="fill: #eaeaf2; opacity: 0.8; stroke: #cccccc; stroke-linejoin: miter"/>
   </g>
   <g id="text_12">
    <text style="fill: #262626; font: 12px 'Arial', 'DejaVu Sans', 'Liberation Sans', 'Bitstream Vera Sans', sans-serif; text-anchor: start" x="242.702969" y="65.442422" transform="rotate(-0 242.702969 65.442422)">tx</text>
   </g>
   <g id="PathCollection_3">
    <defs>
     <path id="mfd277cb34c" d="M 0 2 
C 0.530406 2 1.03916 1.789267 1.414214 1.414214 
C 1.789267 1.03916 2 0.530406 2 0 
C 2 -0.530406 1.789267 -1.03916 1.414214 -1.414214 
C 1.03916 -1.789267 0.530406 -2 0 -2 
C -0.530406 -2 -1.03916 -1.789267 -1.414214 -1.414214 
C -1.789267 -1.03916 -2 -0.530406 -2 0 
C -2 0.530406 -1.789267 1.03916 -1.414214 1.414214 
C -1.03916 1.789267 -0.530406 2 0 2 
z
" style="stroke: #0173b2; stroke-opacity: 0.6; stroke-width: 0.75"/>
    </defs>
    <g>
     <use xlink:href="#mfd277cb34c" x="232.58" y="78.313516" style="fill: #0173b2; fill-opacity: 0.2; stroke: #0173b2; stroke-opacity: 0.6; stroke-width: 0.75"/>
    </g>
   </g>
   <g id="PathCollection_4">
    <defs>
     <path id="madabe13989" d="M 0 3 
C 0.795609 3 1.55874 2.683901 2.12132 2.12132 
C 2.683901 1.55874 3 0.795609 3 0 
C 3 -0.795609 2.683901 -1.55874 2.12132 -2.12132 
C 1.55874 -2.683901 0.795609 -3 0 -3 
C -0.795609 -3 -1.55874 -2.683901 -2.12132 -2.12132 
C -2.683901 -1.55874 -3 -0.795609 -3 0 
C -3 0.795609 -2.683901 1.55874 -2.12132 2.12132 
C -1.55874 2.683901 -0.795609 3 0 3 
z
" style="stroke: #0173b2; stroke-width: 0.5"/>
    </defs>
    <g>
     <use xlink:href="#madabe13989" x="232.58" y="78.313516" style="fill: #0173b2; stroke: #0173b2; stroke-width: 0.5"/>
    </g>
   </g>
   <g id="text_13">
    <text style="fill: #262626; font: 11px 'Arial', 'DejaVu Sans', 'Liberation Sans', 'Bitstream Vera Sans', sans-serif; text-anchor: start" x="252.38" y="81.201016" transform="rotate(-0 252.38 81.201016)">FeS</text>
   </g>
   <g id="PathCollection_5">
    <defs>
     <path id="mb5dee30e8b" d="M 0 2 
C 0.530406 2 1.03916 1.789267 1.414214 1.414214 
C 1.789267 1.03916 2 0.530406 2 0 
C 2 -0.530406 1.789267 -1.03916 1.414214 -1.414214 
C 1.03916 -1.789267 0.530406 -2 0 -2 
C -0.530406 -2 -1.03916 -1.789267 -1.414214 -1.414214 
C -1.789267 -1.03916 -2 -0.530406 -2 0 
C -2 0.530406 -1.789267 1.03916 -1.414214 1.414214 
C -1.03916 1.789267 -0.530406 2 0 2 
z
" style="stroke: #de8f05; stroke-opacity: 0.6; stroke-width: 0.75"/>
    </defs>
    <g>
     <use xlink:href="#mb5dee30e8b" x="232.58" y="93.873359" style="fill: #de8f05; fill-opacity: 0.2; stroke: #de8f05; stroke-opacity: 0.6; stroke-width: 0.75"/>
    </g>
   </g>
   <g id="PathCollection_6">
    <defs>
     <path id="med3b477d08" d="M 0 3 
C 0.795609 3 1.55874 2.683901 2.12132 2.12132 
C 2.683901 1.55874 3 0.795609 3 0 
C 3 -0.795609 2.683901 -1.55874 2.12132 -2.12132 
C 1.55874 -2.683901 0.795609 -3 0 -3 
C -0.795609 -3 -1.55874 -2.683901 -2.12132 -2.12132 
C -2.683901 -1.55874 -3 -0.795609 -3 0 
C -3 0.795609 -2.683901 1.55874 -2.12132 2.12132 
C -1.55874 2.683901 -0.795609 3 0 3 
z
" style="stroke: #de8f05; stroke-width: 0.5"/>
    </defs>
    <g>
     <use xlink:href="#med3b477d08" x="232.58" y="93.873359" style="fill: #de8f05; stroke: #de8f05; stroke-width: 0.5"/>
    </g>
   </g>
   <g id="text_14">
    <text style="fill: #262626; font: 11px 'Arial', 'DejaVu Sans', 'Liberation Sans', 'Bitstream Vera Sans', sans-serif; text-anchor: start" x="252.38" y="96.760859" transform="rotate(-0 252.38 96.760859)">FeD</text>
   </g>
   <g id="PathCollection_7">
    <defs>
     <path id="mc1d906e625" d="M 0 2 
C 0.530406 2 1.03916 1.789267 1.414214 1.414214 
C 1.789267 1.03916 2 0.530406 2 0 
C 2 -0.530406 1.789267 -1.03916 1.414214 -1.414214 
C 1.03916 -1.789267 0.530406 -2 0 -2 
C -0.530406 -2 -1.03916 -1.789267 -1.414214 -1.414214 
C -1.789267 -1.03916 -2 -0.530406 -2 0 
C -2 0.530406 -1.789267 1.03916 -1.414214 1.414214 
C -1.03916 1.789267 -0.530406 2 0 2 
z
" style="stroke: #029e73; stroke-opacity: 0.6; stroke-width: 0.75"/>
    </defs>
    <g>
     <use xlink:href="#mc1d906e625" x="232.58" y="109.433203" style="fill: #029e73; fill-opacity: 0.2; stroke: #029e73; stroke-opacity: 0.6; stroke-width: 0.75"/>
    </g>
   </g>
   <g id="PathCollection_8">
    <defs>
     <path id="m69f8b9b21b" d="M 0 3 
C 0.795609 3 1.55874 2.683901 2.12132 2.12132 
C 2.683901 1.55874 3 0.795609 3 0 
C 3 -0.795609 2.683901 -1.55874 2.12132 -2.12132 
C 1.55874 -2.683901 0.795609 -3 0 -3 
C -0.795609 -3 -1.55874 -2.683901 -2.12132 -2.12132 
C -2.683901 -1.55874 -3 -0.795609 -3 0 
C -3 0.795609 -2.683901 1.55874 -2.12132 2.12132 
C -1.55874 2.683901 -0.795609 3 0 3 
z
" style="stroke: #029e73; stroke-width: 0.5"/>
    </defs>
    <g>
     <use xlink:href="#m69f8b9b21b" x="232.58" y="109.433203" style="fill: #029e73; stroke: #029e73; stroke-width: 0.5"/>
    </g>
   </g>
   <g id="text_15">
    <text style="fill: #262626; font: 11px 'Arial', 'DejaVu Sans', 'Liberation Sans', 'Bitstream Vera Sans', sans-serif; text-anchor: start" x="252.38" y="112.320703" transform="rotate(-0 252.38 112.320703)">FeR</text>
   </g>
  </g>
 </g>
 <defs>
  <clipPath id="pf57bff6805">
   <rect x="53.081406" y="21.789375" width="144.198594" height="155.930781"/>
  </clipPath>
 </defs>
</svg>
