<?xml version="1.0" encoding="utf-8" standalone="no"?>
<!DOCTYPE svg PUBLIC "-//W3C//DTD SVG 1.1//EN"
  "http://www.w3.org/Graphics/SVG/1.1/DTD/svg11.dtd">
<svg xmlns:xlink="http://www.w3.org/1999/xlink" width="144pt" height="180pt" viewBox="0 0 144 180" xmlns="http://www.w3.org/2000/svg" version="1.1">
 <metadata>
  <rdf:RDF xmlns:dc="http://purl.org/dc/elements/1.1/" xmlns:cc="http://creativecommons.org/ns#" xmlns:rdf="http://www.w3.org/1999/02/22-rdf-syntax-ns#">
   <cc:Work>
    <dc:type rdf:resource="http://purl.org/dc/dcmitype/StillImage"/>
    <dc:date>2023-05-03T13:09:10.893463</dc:date>
    <dc:format>image/svg+xml</dc:format>
    <dc:creator>
     <cc:Agent>
      <dc:title>Matplotlib v3.6.2, https://matplotlib.org/</dc:title>
     </cc:Agent>
    </dc:creator>
   </cc:Work>
  </rdf:RDF>
 </metadata>
 <defs>
  <style type="text/css">*{stroke-linejoin: round; stroke-linecap: butt}</style>
 </defs>
 <g id="figure_1">
  <g id="patch_1">
   <path d="M 0 180 
L 144 180 
L 144 0 
L 0 0 
z
" style="fill: #ffffff"/>
  </g>
  <g id="axes_1">
   <g id="patch_2">
    <path d="M 43.792 153.284125 
L 133.632 153.284125 
L 133.632 23.3565 
L 43.792 23.3565 
z
" style="fill: #eaeaf2"/>
   </g>
   <g id="matplotlib.axis_1">
    <g id="xtick_1">
     <g id="line2d_1">
      <defs>
       <path id="m2f5e99642d" d="M 0 0 
L 0 4.8 
" style="stroke: #262626"/>
      </defs>
      <g>
       <use xlink:href="#m2f5e99642d" x="88.712" y="153.284125" style="fill: #262626; stroke: #262626"/>
      </g>
     </g>
     <g id="text_1">
      <!-- Tfr1 -->
      <g style="fill: #262626" transform="translate(80.890313 167.883) scale(0.088 -0.088)">
       <defs>
        <path id="ArialMT-54" d="M 1659 0 
L 1659 4041 
L 150 4041 
L 150 4581 
L 3781 4581 
L 3781 4041 
L 2266 4041 
L 2266 0 
L 1659 0 
z
" transform="scale(0.015625)"/>
        <path id="ArialMT-66" d="M 556 0 
L 556 2881 
L 59 2881 
L 59 3319 
L 556 3319 
L 556 3672 
Q 556 4006 616 4169 
Q 697 4388 901 4523 
Q 1106 4659 1475 4659 
Q 1713 4659 2000 4603 
L 1916 4113 
Q 1741 4144 1584 4144 
Q 1328 4144 1222 4034 
Q 1116 3925 1116 3625 
L 1116 3319 
L 1763 3319 
L 1763 2881 
L 1116 2881 
L 1116 0 
L 556 0 
z
" transform="scale(0.015625)"/>
        <path id="ArialMT-72" d="M 416 0 
L 416 3319 
L 922 3319 
L 922 2816 
Q 1116 3169 1280 3281 
Q 1444 3394 1641 3394 
Q 1925 3394 2219 3213 
L 2025 2691 
Q 1819 2813 1613 2813 
Q 1428 2813 1281 2702 
Q 1134 2591 1072 2394 
Q 978 2094 978 1738 
L 978 0 
L 416 0 
z
" transform="scale(0.015625)"/>
        <path id="ArialMT-31" d="M 2384 0 
L 1822 0 
L 1822 3584 
Q 1619 3391 1289 3197 
Q 959 3003 697 2906 
L 697 3450 
Q 1169 3672 1522 3987 
Q 1875 4303 2022 4600 
L 2384 4600 
L 2384 0 
z
" transform="scale(0.015625)"/>
       </defs>
       <use xlink:href="#ArialMT-54"/>
       <use xlink:href="#ArialMT-66" x="61.083984"/>
       <use xlink:href="#ArialMT-72" x="88.867188"/>
       <use xlink:href="#ArialMT-31" x="122.167969"/>
      </g>
     </g>
    </g>
   </g>
   <g id="matplotlib.axis_2">
    <g id="ytick_1">
     <g id="line2d_2">
      <path d="M 43.792 136.226435 
L 133.632 136.226435 
" clip-path="url(#pa6bf86e4b5)" style="fill: none; stroke: #ffffff; stroke-width: 0.8; stroke-linecap: round"/>
     </g>
     <g id="line2d_3">
      <defs>
       <path id="me5019d1ec5" d="M 0 0 
L -4.8 0 
" style="stroke: #262626"/>
      </defs>
      <g>
       <use xlink:href="#me5019d1ec5" x="43.792" y="136.226435" style="fill: #262626; stroke: #262626"/>
      </g>
     </g>
     <g id="text_2">
      <!-- 1.0 -->
      <g style="fill: #262626" transform="translate(23.26 139.375872) scale(0.088 -0.088)">
       <defs>
        <path id="ArialMT-2e" d="M 581 0 
L 581 641 
L 1222 641 
L 1222 0 
L 581 0 
z
" transform="scale(0.015625)"/>
        <path id="ArialMT-30" d="M 266 2259 
Q 266 3072 433 3567 
Q 600 4063 929 4331 
Q 1259 4600 1759 4600 
Q 2128 4600 2406 4451 
Q 2684 4303 2865 4023 
Q 3047 3744 3150 3342 
Q 3253 2941 3253 2259 
Q 3253 1453 3087 958 
Q 2922 463 2592 192 
Q 2263 -78 1759 -78 
Q 1097 -78 719 397 
Q 266 969 266 2259 
z
M 844 2259 
Q 844 1131 1108 757 
Q 1372 384 1759 384 
Q 2147 384 2411 759 
Q 2675 1134 2675 2259 
Q 2675 3391 2411 3762 
Q 2147 4134 1753 4134 
Q 1366 4134 1134 3806 
Q 844 3388 844 2259 
z
" transform="scale(0.015625)"/>
       </defs>
       <use xlink:href="#ArialMT-31"/>
       <use xlink:href="#ArialMT-2e" x="55.615234"/>
       <use xlink:href="#ArialMT-30" x="83.398438"/>
      </g>
     </g>
    </g>
    <g id="ytick_2">
     <g id="line2d_4">
      <path d="M 43.792 119.171556 
L 133.632 119.171556 
" clip-path="url(#pa6bf86e4b5)" style="fill: none; stroke: #ffffff; stroke-width: 0.8; stroke-linecap: round"/>
     </g>
     <g id="line2d_5">
      <g>
       <use xlink:href="#me5019d1ec5" x="43.792" y="119.171556" style="fill: #262626; stroke: #262626"/>
      </g>
     </g>
     <g id="text_3">
      <!-- 1.2 -->
      <g style="fill: #262626" transform="translate(23.26 122.320993) scale(0.088 -0.088)">
       <defs>
        <path id="ArialMT-32" d="M 3222 541 
L 3222 0 
L 194 0 
Q 188 203 259 391 
Q 375 700 629 1000 
Q 884 1300 1366 1694 
Q 2113 2306 2375 2664 
Q 2638 3022 2638 3341 
Q 2638 3675 2398 3904 
Q 2159 4134 1775 4134 
Q 1369 4134 1125 3890 
Q 881 3647 878 3216 
L 300 3275 
Q 359 3922 746 4261 
Q 1134 4600 1788 4600 
Q 2447 4600 2831 4234 
Q 3216 3869 3216 3328 
Q 3216 3053 3103 2787 
Q 2991 2522 2730 2228 
Q 2469 1934 1863 1422 
Q 1356 997 1212 845 
Q 1069 694 975 541 
L 3222 541 
z
" transform="scale(0.015625)"/>
       </defs>
       <use xlink:href="#ArialMT-31"/>
       <use xlink:href="#ArialMT-2e" x="55.615234"/>
       <use xlink:href="#ArialMT-32" x="83.398438"/>
      </g>
     </g>
    </g>
    <g id="ytick_3">
     <g id="line2d_6">
      <path d="M 43.792 98.298071 
L 133.632 98.298071 
" clip-path="url(#pa6bf86e4b5)" style="fill: none; stroke: #ffffff; stroke-width: 0.8; stroke-linecap: round"/>
     </g>
     <g id="line2d_7">
      <g>
       <use xlink:href="#me5019d1ec5" x="43.792" y="98.298071" style="fill: #262626; stroke: #262626"/>
      </g>
     </g>
     <g id="text_4">
      <!-- 1.5 -->
      <g style="fill: #262626" transform="translate(23.26 101.447508) scale(0.088 -0.088)">
       <defs>
        <path id="ArialMT-35" d="M 266 1200 
L 856 1250 
Q 922 819 1161 601 
Q 1400 384 1738 384 
Q 2144 384 2425 690 
Q 2706 997 2706 1503 
Q 2706 1984 2436 2262 
Q 2166 2541 1728 2541 
Q 1456 2541 1237 2417 
Q 1019 2294 894 2097 
L 366 2166 
L 809 4519 
L 3088 4519 
L 3088 3981 
L 1259 3981 
L 1013 2750 
Q 1425 3038 1878 3038 
Q 2478 3038 2890 2622 
Q 3303 2206 3303 1553 
Q 3303 931 2941 478 
Q 2500 -78 1738 -78 
Q 1113 -78 717 272 
Q 322 622 266 1200 
z
" transform="scale(0.015625)"/>
       </defs>
       <use xlink:href="#ArialMT-31"/>
       <use xlink:href="#ArialMT-2e" x="55.615234"/>
       <use xlink:href="#ArialMT-35" x="83.398438"/>
      </g>
     </g>
    </g>
    <g id="ytick_4">
     <g id="line2d_8">
      <path d="M 43.792 71.387468 
L 133.632 71.387468 
" clip-path="url(#pa6bf86e4b5)" style="fill: none; stroke: #ffffff; stroke-width: 0.8; stroke-linecap: round"/>
     </g>
     <g id="line2d_9">
      <g>
       <use xlink:href="#me5019d1ec5" x="43.792" y="71.387468" style="fill: #262626; stroke: #262626"/>
      </g>
     </g>
     <g id="text_5">
      <!-- 2.0 -->
      <g style="fill: #262626" transform="translate(23.26 74.536906) scale(0.088 -0.088)">
       <use xlink:href="#ArialMT-32"/>
       <use xlink:href="#ArialMT-2e" x="55.615234"/>
       <use xlink:href="#ArialMT-30" x="83.398438"/>
      </g>
     </g>
    </g>
    <g id="ytick_5">
     <g id="line2d_10">
      <path d="M 43.792 33.459104 
L 133.632 33.459104 
" clip-path="url(#pa6bf86e4b5)" style="fill: none; stroke: #ffffff; stroke-width: 0.8; stroke-linecap: round"/>
     </g>
     <g id="line2d_11">
      <g>
       <use xlink:href="#me5019d1ec5" x="43.792" y="33.459104" style="fill: #262626; stroke: #262626"/>
      </g>
     </g>
     <g id="text_6">
      <!-- 3.0 -->
      <g style="fill: #262626" transform="translate(23.26 36.608542) scale(0.088 -0.088)">
       <defs>
        <path id="ArialMT-33" d="M 269 1209 
L 831 1284 
Q 928 806 1161 595 
Q 1394 384 1728 384 
Q 2125 384 2398 659 
Q 2672 934 2672 1341 
Q 2672 1728 2419 1979 
Q 2166 2231 1775 2231 
Q 1616 2231 1378 2169 
L 1441 2663 
Q 1497 2656 1531 2656 
Q 1891 2656 2178 2843 
Q 2466 3031 2466 3422 
Q 2466 3731 2256 3934 
Q 2047 4138 1716 4138 
Q 1388 4138 1169 3931 
Q 950 3725 888 3313 
L 325 3413 
Q 428 3978 793 4289 
Q 1159 4600 1703 4600 
Q 2078 4600 2393 4439 
Q 2709 4278 2876 4000 
Q 3044 3722 3044 3409 
Q 3044 3113 2884 2869 
Q 2725 2625 2413 2481 
Q 2819 2388 3044 2092 
Q 3269 1797 3269 1353 
Q 3269 753 2831 336 
Q 2394 -81 1725 -81 
Q 1122 -81 723 278 
Q 325 638 269 1209 
z
" transform="scale(0.015625)"/>
       </defs>
       <use xlink:href="#ArialMT-33"/>
       <use xlink:href="#ArialMT-2e" x="55.615234"/>
       <use xlink:href="#ArialMT-30" x="83.398438"/>
      </g>
     </g>
    </g>
    <g id="ytick_6">
     <g id="line2d_12">
      <defs>
       <path id="mbf34a4c6f4" d="M 0 0 
L -3.2 0 
" style="stroke: #262626; stroke-width: 0.8"/>
      </defs>
      <g>
       <use xlink:href="#mbf34a4c6f4" x="43.792" y="146.082158" style="fill: #262626; stroke: #262626; stroke-width: 0.8"/>
      </g>
     </g>
    </g>
    <g id="text_7">
     <!-- mRNA rel. to avg. ctl -->
     <g style="fill: #262626" transform="translate(17.2395 132.065562) rotate(-90) scale(0.096 -0.096)">
      <defs>
       <path id="ArialMT-6d" d="M 422 0 
L 422 3319 
L 925 3319 
L 925 2853 
Q 1081 3097 1340 3245 
Q 1600 3394 1931 3394 
Q 2300 3394 2536 3241 
Q 2772 3088 2869 2813 
Q 3263 3394 3894 3394 
Q 4388 3394 4653 3120 
Q 4919 2847 4919 2278 
L 4919 0 
L 4359 0 
L 4359 2091 
Q 4359 2428 4304 2576 
Q 4250 2725 4106 2815 
Q 3963 2906 3769 2906 
Q 3419 2906 3187 2673 
Q 2956 2441 2956 1928 
L 2956 0 
L 2394 0 
L 2394 2156 
Q 2394 2531 2256 2718 
Q 2119 2906 1806 2906 
Q 1569 2906 1367 2781 
Q 1166 2656 1075 2415 
Q 984 2175 984 1722 
L 984 0 
L 422 0 
z
" transform="scale(0.015625)"/>
       <path id="ArialMT-52" d="M 503 0 
L 503 4581 
L 2534 4581 
Q 3147 4581 3465 4457 
Q 3784 4334 3975 4021 
Q 4166 3709 4166 3331 
Q 4166 2844 3850 2509 
Q 3534 2175 2875 2084 
Q 3116 1969 3241 1856 
Q 3506 1613 3744 1247 
L 4541 0 
L 3778 0 
L 3172 953 
Q 2906 1366 2734 1584 
Q 2563 1803 2427 1890 
Q 2291 1978 2150 2013 
Q 2047 2034 1813 2034 
L 1109 2034 
L 1109 0 
L 503 0 
z
M 1109 2559 
L 2413 2559 
Q 2828 2559 3062 2645 
Q 3297 2731 3419 2920 
Q 3541 3109 3541 3331 
Q 3541 3656 3305 3865 
Q 3069 4075 2559 4075 
L 1109 4075 
L 1109 2559 
z
" transform="scale(0.015625)"/>
       <path id="ArialMT-4e" d="M 488 0 
L 488 4581 
L 1109 4581 
L 3516 984 
L 3516 4581 
L 4097 4581 
L 4097 0 
L 3475 0 
L 1069 3600 
L 1069 0 
L 488 0 
z
" transform="scale(0.015625)"/>
       <path id="ArialMT-41" d="M -9 0 
L 1750 4581 
L 2403 4581 
L 4278 0 
L 3588 0 
L 3053 1388 
L 1138 1388 
L 634 0 
L -9 0 
z
M 1313 1881 
L 2866 1881 
L 2388 3150 
Q 2169 3728 2063 4100 
Q 1975 3659 1816 3225 
L 1313 1881 
z
" transform="scale(0.015625)"/>
       <path id="ArialMT-20" transform="scale(0.015625)"/>
       <path id="ArialMT-65" d="M 2694 1069 
L 3275 997 
Q 3138 488 2766 206 
Q 2394 -75 1816 -75 
Q 1088 -75 661 373 
Q 234 822 234 1631 
Q 234 2469 665 2931 
Q 1097 3394 1784 3394 
Q 2450 3394 2872 2941 
Q 3294 2488 3294 1666 
Q 3294 1616 3291 1516 
L 816 1516 
Q 847 969 1125 678 
Q 1403 388 1819 388 
Q 2128 388 2347 550 
Q 2566 713 2694 1069 
z
M 847 1978 
L 2700 1978 
Q 2663 2397 2488 2606 
Q 2219 2931 1791 2931 
Q 1403 2931 1139 2672 
Q 875 2413 847 1978 
z
" transform="scale(0.015625)"/>
       <path id="ArialMT-6c" d="M 409 0 
L 409 4581 
L 972 4581 
L 972 0 
L 409 0 
z
" transform="scale(0.015625)"/>
       <path id="ArialMT-74" d="M 1650 503 
L 1731 6 
Q 1494 -44 1306 -44 
Q 1000 -44 831 53 
Q 663 150 594 308 
Q 525 466 525 972 
L 525 2881 
L 113 2881 
L 113 3319 
L 525 3319 
L 525 4141 
L 1084 4478 
L 1084 3319 
L 1650 3319 
L 1650 2881 
L 1084 2881 
L 1084 941 
Q 1084 700 1114 631 
Q 1144 563 1211 522 
Q 1278 481 1403 481 
Q 1497 481 1650 503 
z
" transform="scale(0.015625)"/>
       <path id="ArialMT-6f" d="M 213 1659 
Q 213 2581 725 3025 
Q 1153 3394 1769 3394 
Q 2453 3394 2887 2945 
Q 3322 2497 3322 1706 
Q 3322 1066 3130 698 
Q 2938 331 2570 128 
Q 2203 -75 1769 -75 
Q 1072 -75 642 372 
Q 213 819 213 1659 
z
M 791 1659 
Q 791 1022 1069 705 
Q 1347 388 1769 388 
Q 2188 388 2466 706 
Q 2744 1025 2744 1678 
Q 2744 2294 2464 2611 
Q 2184 2928 1769 2928 
Q 1347 2928 1069 2612 
Q 791 2297 791 1659 
z
" transform="scale(0.015625)"/>
       <path id="ArialMT-61" d="M 2588 409 
Q 2275 144 1986 34 
Q 1697 -75 1366 -75 
Q 819 -75 525 192 
Q 231 459 231 875 
Q 231 1119 342 1320 
Q 453 1522 633 1644 
Q 813 1766 1038 1828 
Q 1203 1872 1538 1913 
Q 2219 1994 2541 2106 
Q 2544 2222 2544 2253 
Q 2544 2597 2384 2738 
Q 2169 2928 1744 2928 
Q 1347 2928 1158 2789 
Q 969 2650 878 2297 
L 328 2372 
Q 403 2725 575 2942 
Q 747 3159 1072 3276 
Q 1397 3394 1825 3394 
Q 2250 3394 2515 3294 
Q 2781 3194 2906 3042 
Q 3031 2891 3081 2659 
Q 3109 2516 3109 2141 
L 3109 1391 
Q 3109 606 3145 398 
Q 3181 191 3288 0 
L 2700 0 
Q 2613 175 2588 409 
z
M 2541 1666 
Q 2234 1541 1622 1453 
Q 1275 1403 1131 1340 
Q 988 1278 909 1158 
Q 831 1038 831 891 
Q 831 666 1001 516 
Q 1172 366 1500 366 
Q 1825 366 2078 508 
Q 2331 650 2450 897 
Q 2541 1088 2541 1459 
L 2541 1666 
z
" transform="scale(0.015625)"/>
       <path id="ArialMT-76" d="M 1344 0 
L 81 3319 
L 675 3319 
L 1388 1331 
Q 1503 1009 1600 663 
Q 1675 925 1809 1294 
L 2547 3319 
L 3125 3319 
L 1869 0 
L 1344 0 
z
" transform="scale(0.015625)"/>
       <path id="ArialMT-67" d="M 319 -275 
L 866 -356 
Q 900 -609 1056 -725 
Q 1266 -881 1628 -881 
Q 2019 -881 2231 -725 
Q 2444 -569 2519 -288 
Q 2563 -116 2559 434 
Q 2191 0 1641 0 
Q 956 0 581 494 
Q 206 988 206 1678 
Q 206 2153 378 2554 
Q 550 2956 876 3175 
Q 1203 3394 1644 3394 
Q 2231 3394 2613 2919 
L 2613 3319 
L 3131 3319 
L 3131 450 
Q 3131 -325 2973 -648 
Q 2816 -972 2473 -1159 
Q 2131 -1347 1631 -1347 
Q 1038 -1347 672 -1080 
Q 306 -813 319 -275 
z
M 784 1719 
Q 784 1066 1043 766 
Q 1303 466 1694 466 
Q 2081 466 2343 764 
Q 2606 1063 2606 1700 
Q 2606 2309 2336 2618 
Q 2066 2928 1684 2928 
Q 1309 2928 1046 2623 
Q 784 2319 784 1719 
z
" transform="scale(0.015625)"/>
       <path id="ArialMT-63" d="M 2588 1216 
L 3141 1144 
Q 3050 572 2676 248 
Q 2303 -75 1759 -75 
Q 1078 -75 664 370 
Q 250 816 250 1647 
Q 250 2184 428 2587 
Q 606 2991 970 3192 
Q 1334 3394 1763 3394 
Q 2303 3394 2647 3120 
Q 2991 2847 3088 2344 
L 2541 2259 
Q 2463 2594 2264 2762 
Q 2066 2931 1784 2931 
Q 1359 2931 1093 2626 
Q 828 2322 828 1663 
Q 828 994 1084 691 
Q 1341 388 1753 388 
Q 2084 388 2306 591 
Q 2528 794 2588 1216 
z
" transform="scale(0.015625)"/>
      </defs>
      <use xlink:href="#ArialMT-6d"/>
      <use xlink:href="#ArialMT-52" x="83.300781"/>
      <use xlink:href="#ArialMT-4e" x="155.517578"/>
      <use xlink:href="#ArialMT-41" x="227.734375"/>
      <use xlink:href="#ArialMT-20" x="288.933594"/>
      <use xlink:href="#ArialMT-72" x="316.716797"/>
      <use xlink:href="#ArialMT-65" x="350.017578"/>
      <use xlink:href="#ArialMT-6c" x="405.632812"/>
      <use xlink:href="#ArialMT-2e" x="427.849609"/>
      <use xlink:href="#ArialMT-20" x="455.632812"/>
      <use xlink:href="#ArialMT-74" x="483.416016"/>
      <use xlink:href="#ArialMT-6f" x="511.199219"/>
      <use xlink:href="#ArialMT-20" x="566.814453"/>
      <use xlink:href="#ArialMT-61" x="594.597656"/>
      <use xlink:href="#ArialMT-76" x="650.212891"/>
      <use xlink:href="#ArialMT-67" x="700.212891"/>
      <use xlink:href="#ArialMT-2e" x="755.828125"/>
      <use xlink:href="#ArialMT-20" x="783.611328"/>
      <use xlink:href="#ArialMT-63" x="811.394531"/>
      <use xlink:href="#ArialMT-74" x="861.394531"/>
      <use xlink:href="#ArialMT-6c" x="889.177734"/>
     </g>
    </g>
   </g>
   <g id="PathCollection_1">
    <path d="M 63.62608 150.878324 
C 64.554291 150.878324 65.44461 150.509542 66.100954 149.853198 
C 66.757298 149.196853 67.12608 148.306535 67.12608 147.378324 
C 67.12608 146.450113 66.757298 145.559794 66.100954 144.90345 
C 65.44461 144.247106 64.554291 143.878324 63.62608 143.878324 
C 62.69787 143.878324 61.807551 144.247106 61.151207 144.90345 
C 60.494863 145.559794 60.12608 146.450113 60.12608 147.378324 
C 60.12608 148.306535 60.494863 149.196853 61.151207 149.853198 
C 61.807551 150.509542 62.69787 150.878324 63.62608 150.878324 
z
" clip-path="url(#pa6bf86e4b5)" style="fill: #4c72b0; fill-opacity: 0.2; stroke: #4c72b0; stroke-width: 0.75"/>
    <path d="M 69.260871 137.910531 
C 70.189081 137.910531 71.0794 137.541749 71.735744 136.885404 
C 72.392088 136.22906 72.760871 135.338741 72.760871 134.410531 
C 72.760871 133.48232 72.392088 132.592001 71.735744 131.935657 
C 71.0794 131.279313 70.189081 130.910531 69.260871 130.910531 
C 68.33266 130.910531 67.442341 131.279313 66.785997 131.935657 
C 66.129653 132.592001 65.760871 133.48232 65.760871 134.410531 
C 65.760871 135.338741 66.129653 136.22906 66.785997 136.885404 
C 67.442341 137.541749 68.33266 137.910531 69.260871 137.910531 
z
" clip-path="url(#pa6bf86e4b5)" style="fill: #4c72b0; fill-opacity: 0.2; stroke: #4c72b0; stroke-width: 0.75"/>
    <path d="M 66.630965 131.426634 
C 67.559175 131.426634 68.449494 131.057852 69.105838 130.401508 
C 69.762182 129.745164 70.130965 128.854845 70.130965 127.926634 
C 70.130965 126.998423 69.762182 126.108104 69.105838 125.45176 
C 68.449494 124.795416 67.559175 124.426634 66.630965 124.426634 
C 65.702754 124.426634 64.812435 124.795416 64.156091 125.45176 
C 63.499747 126.108104 63.130965 126.998423 63.130965 127.926634 
C 63.130965 128.854845 63.499747 129.745164 64.156091 130.401508 
C 64.812435 131.057852 65.702754 131.426634 66.630965 131.426634 
z
" clip-path="url(#pa6bf86e4b5)" style="fill: #4c72b0; fill-opacity: 0.2; stroke: #4c72b0; stroke-width: 0.75"/>
    <path d="M 70.618005 141.043375 
C 71.546216 141.043375 72.436535 140.674593 73.092879 140.018249 
C 73.749223 139.361904 74.118005 138.471586 74.118005 137.543375 
C 74.118005 136.615164 73.749223 135.724845 73.092879 135.068501 
C 72.436535 134.412157 71.546216 134.043375 70.618005 134.043375 
C 69.689794 134.043375 68.799475 134.412157 68.143131 135.068501 
C 67.486787 135.724845 67.118005 136.615164 67.118005 137.543375 
C 67.118005 138.471586 67.486787 139.361904 68.143131 140.018249 
C 68.799475 140.674593 69.689794 141.043375 70.618005 141.043375 
z
" clip-path="url(#pa6bf86e4b5)" style="fill: #4c72b0; fill-opacity: 0.2; stroke: #4c72b0; stroke-width: 0.75"/>
    <path d="M 69.378023 149.472441 
C 70.306234 149.472441 71.196553 149.103658 71.852897 148.447314 
C 72.509241 147.79097 72.878023 146.900651 72.878023 145.972441 
C 72.878023 145.04423 72.509241 144.153911 71.852897 143.497567 
C 71.196553 142.841223 70.306234 142.472441 69.378023 142.472441 
C 68.449812 142.472441 67.559494 142.841223 66.90315 143.497567 
C 66.246805 144.153911 65.878023 145.04423 65.878023 145.972441 
C 65.878023 146.900651 66.246805 147.79097 66.90315 148.447314 
C 67.559494 149.103658 68.449812 149.472441 69.378023 149.472441 
z
" clip-path="url(#pa6bf86e4b5)" style="fill: #4c72b0; fill-opacity: 0.2; stroke: #4c72b0; stroke-width: 0.75"/>
    <path d="M 67.505238 136.504647 
C 68.433449 136.504647 69.323768 136.135865 69.980112 135.479521 
C 70.636456 134.823177 71.005238 133.932858 71.005238 133.004647 
C 71.005238 132.076436 70.636456 131.186118 69.980112 130.529774 
C 69.323768 129.873429 68.433449 129.504647 67.505238 129.504647 
C 66.577027 129.504647 65.686709 129.873429 65.030365 130.529774 
C 64.37402 131.186118 64.005238 132.076436 64.005238 133.004647 
C 64.005238 133.932858 64.37402 134.823177 65.030365 135.479521 
C 65.686709 136.135865 66.577027 136.504647 67.505238 136.504647 
z
" clip-path="url(#pa6bf86e4b5)" style="fill: #4c72b0; fill-opacity: 0.2; stroke: #4c72b0; stroke-width: 0.75"/>
    <path d="M 63.81693 133.911089 
C 64.745141 133.911089 65.63546 133.542307 66.291804 132.885962 
C 66.948148 132.229618 67.31693 131.339299 67.31693 130.411089 
C 67.31693 129.482878 66.948148 128.592559 66.291804 127.936215 
C 65.63546 127.279871 64.745141 126.911089 63.81693 126.911089 
C 62.888719 126.911089 61.998401 127.279871 61.342057 127.936215 
C 60.685712 128.592559 60.31693 129.482878 60.31693 130.411089 
C 60.31693 131.339299 60.685712 132.229618 61.342057 132.885962 
C 61.998401 133.542307 62.888719 133.911089 63.81693 133.911089 
z
" clip-path="url(#pa6bf86e4b5)" style="fill: #4c72b0; fill-opacity: 0.2; stroke: #4c72b0; stroke-width: 0.75"/>
    <path d="M 69.250747 138.449816 
C 70.178957 138.449816 71.069276 138.081034 71.72562 137.42469 
C 72.381965 136.768346 72.750747 135.878027 72.750747 134.949816 
C 72.750747 134.021605 72.381965 133.131287 71.72562 132.474943 
C 71.069276 131.818598 70.178957 131.449816 69.250747 131.449816 
C 68.322536 131.449816 67.432217 131.818598 66.775873 132.474943 
C 66.119529 133.131287 65.750747 134.021605 65.750747 134.949816 
C 65.750747 135.878027 66.119529 136.768346 66.775873 137.42469 
C 67.432217 138.081034 68.322536 138.449816 69.250747 138.449816 
z
" clip-path="url(#pa6bf86e4b5)" style="fill: #4c72b0; fill-opacity: 0.2; stroke: #4c72b0; stroke-width: 0.75"/>
    <path d="M 67.199475 138.025222 
C 68.127686 138.025222 69.018005 137.65644 69.674349 137.000095 
C 70.330693 136.343751 70.699475 135.453433 70.699475 134.525222 
C 70.699475 133.597011 70.330693 132.706692 69.674349 132.050348 
C 69.018005 131.394004 68.127686 131.025222 67.199475 131.025222 
C 66.271264 131.025222 65.380946 131.394004 64.724601 132.050348 
C 64.068257 132.706692 63.699475 133.597011 63.699475 134.525222 
C 63.699475 135.453433 64.068257 136.343751 64.724601 137.000095 
C 65.380946 137.65644 66.271264 138.025222 67.199475 138.025222 
z
" clip-path="url(#pa6bf86e4b5)" style="fill: #4c72b0; fill-opacity: 0.2; stroke: #4c72b0; stroke-width: 0.75"/>
    <path d="M 67.790084 139.50582 
C 68.718295 139.50582 69.608614 139.137037 70.264958 138.480693 
C 70.921302 137.824349 71.290084 136.93403 71.290084 136.00582 
C 71.290084 135.077609 70.921302 134.18729 70.264958 133.530946 
C 69.608614 132.874602 68.718295 132.50582 67.790084 132.50582 
C 66.861874 132.50582 65.971555 132.874602 65.315211 133.530946 
C 64.658866 134.18729 64.290084 135.077609 64.290084 136.00582 
C 64.290084 136.93403 64.658866 137.824349 65.315211 138.480693 
C 65.971555 139.137037 66.861874 139.50582 67.790084 139.50582 
z
" clip-path="url(#pa6bf86e4b5)" style="fill: #4c72b0; fill-opacity: 0.2; stroke: #4c72b0; stroke-width: 0.75"/>
    <path d="M 63.90758 140.227218 
C 64.83579 140.227218 65.726109 139.858436 66.382453 139.202092 
C 67.038798 138.545747 67.40758 137.655429 67.40758 136.727218 
C 67.40758 135.799007 67.038798 134.908688 66.382453 134.252344 
C 65.726109 133.596 64.83579 133.227218 63.90758 133.227218 
C 62.979369 133.227218 62.08905 133.596 61.432706 134.252344 
C 60.776362 134.908688 60.40758 135.799007 60.40758 136.727218 
C 60.40758 137.655429 60.776362 138.545747 61.432706 139.202092 
C 62.08905 139.858436 62.979369 140.227218 63.90758 140.227218 
z
" clip-path="url(#pa6bf86e4b5)" style="fill: #4c72b0; fill-opacity: 0.2; stroke: #4c72b0; stroke-width: 0.75"/>
    <path d="M 64.473841 141.175812 
C 65.402051 141.175812 66.29237 140.80703 66.948714 140.150686 
C 67.605058 139.494341 67.973841 138.604023 67.973841 137.675812 
C 67.973841 136.747601 67.605058 135.857282 66.948714 135.200938 
C 66.29237 134.544594 65.402051 134.175812 64.473841 134.175812 
C 63.54563 134.175812 62.655311 134.544594 61.998967 135.200938 
C 61.342623 135.857282 60.973841 136.747601 60.973841 137.675812 
C 60.973841 138.604023 61.342623 139.494341 61.998967 140.150686 
C 62.655311 140.80703 63.54563 141.175812 64.473841 141.175812 
z
" clip-path="url(#pa6bf86e4b5)" style="fill: #4c72b0; fill-opacity: 0.2; stroke: #4c72b0; stroke-width: 0.75"/>
    <path d="M 103.574579 104.194268 
C 104.50279 104.194268 105.393109 103.825486 106.049453 103.169142 
C 106.705797 102.512798 107.074579 101.622479 107.074579 100.694268 
C 107.074579 99.766057 106.705797 98.875739 106.049453 98.219394 
C 105.393109 97.56305 104.50279 97.194268 103.574579 97.194268 
C 102.646368 97.194268 101.75605 97.56305 101.099706 98.219394 
C 100.443361 98.875739 100.074579 99.766057 100.074579 100.694268 
C 100.074579 101.622479 100.443361 102.512798 101.099706 103.169142 
C 101.75605 103.825486 102.646368 104.194268 103.574579 104.194268 
z
" clip-path="url(#pa6bf86e4b5)" style="fill: #dd8452; fill-opacity: 0.2; stroke: #dd8452; stroke-width: 0.75"/>
    <path d="M 105.870373 111.326554 
C 106.798583 111.326554 107.688902 110.957772 108.345246 110.301428 
C 109.001591 109.645084 109.370373 108.754765 109.370373 107.826554 
C 109.370373 106.898344 109.001591 106.008025 108.345246 105.351681 
C 107.688902 104.695336 106.798583 104.326554 105.870373 104.326554 
C 104.942162 104.326554 104.051843 104.695336 103.395499 105.351681 
C 102.739155 106.008025 102.370373 106.898344 102.370373 107.826554 
C 102.370373 108.754765 102.739155 109.645084 103.395499 110.301428 
C 104.051843 110.957772 104.942162 111.326554 105.870373 111.326554 
z
" clip-path="url(#pa6bf86e4b5)" style="fill: #dd8452; fill-opacity: 0.2; stroke: #dd8452; stroke-width: 0.75"/>
    <path d="M 101.749379 78.149578 
C 102.67759 78.149578 103.567908 77.780795 104.224253 77.124451 
C 104.880597 76.468107 105.249379 75.577788 105.249379 74.649578 
C 105.249379 73.721367 104.880597 72.831048 104.224253 72.174704 
C 103.567908 71.51836 102.67759 71.149578 101.749379 71.149578 
C 100.821168 71.149578 99.930849 71.51836 99.274505 72.174704 
C 98.618161 72.831048 98.249379 73.721367 98.249379 74.649578 
C 98.249379 75.577788 98.618161 76.468107 99.274505 77.124451 
C 99.930849 77.780795 100.821168 78.149578 101.749379 78.149578 
z
" clip-path="url(#pa6bf86e4b5)" style="fill: #dd8452; fill-opacity: 0.2; stroke: #dd8452; stroke-width: 0.75"/>
    <path d="M 103.197471 82.688305 
C 104.125682 82.688305 105.016001 82.319523 105.672345 81.663179 
C 106.328689 81.006835 106.697471 80.116516 106.697471 79.188305 
C 106.697471 78.260094 106.328689 77.369776 105.672345 76.713431 
C 105.016001 76.057087 104.125682 75.688305 103.197471 75.688305 
C 102.269261 75.688305 101.378942 76.057087 100.722598 76.713431 
C 100.066254 77.369776 99.697471 78.260094 99.697471 79.188305 
C 99.697471 80.116516 100.066254 81.006835 100.722598 81.663179 
C 101.378942 82.319523 102.269261 82.688305 103.197471 82.688305 
z
" clip-path="url(#pa6bf86e4b5)" style="fill: #dd8452; fill-opacity: 0.2; stroke: #dd8452; stroke-width: 0.75"/>
    <path d="M 106.110374 81.391526 
C 107.038585 81.391526 107.928904 81.022744 108.585248 80.3664 
C 109.241592 79.710055 109.610374 78.819737 109.610374 77.891526 
C 109.610374 76.963315 109.241592 76.072996 108.585248 75.416652 
C 107.928904 74.760308 107.038585 74.391526 106.110374 74.391526 
C 105.182163 74.391526 104.291845 74.760308 103.6355 75.416652 
C 102.979156 76.072996 102.610374 76.963315 102.610374 77.891526 
C 102.610374 78.819737 102.979156 79.710055 103.6355 80.3664 
C 104.291845 81.022744 105.182163 81.391526 106.110374 81.391526 
z
" clip-path="url(#pa6bf86e4b5)" style="fill: #dd8452; fill-opacity: 0.2; stroke: #dd8452; stroke-width: 0.75"/>
    <path d="M 100.13478 75.556019 
C 101.062991 75.556019 101.953309 75.187237 102.609653 74.530893 
C 103.265998 73.874548 103.63478 72.98423 103.63478 72.056019 
C 103.63478 71.127808 103.265998 70.237489 102.609653 69.581145 
C 101.953309 68.924801 101.062991 68.556019 100.13478 68.556019 
C 99.206569 68.556019 98.31625 68.924801 97.659906 69.581145 
C 97.003562 70.237489 96.63478 71.127808 96.63478 72.056019 
C 96.63478 72.98423 97.003562 73.874548 97.659906 74.530893 
C 98.31625 75.187237 99.206569 75.556019 100.13478 75.556019 
z
" clip-path="url(#pa6bf86e4b5)" style="fill: #dd8452; fill-opacity: 0.2; stroke: #dd8452; stroke-width: 0.75"/>
    <path d="M 105.884188 32.762301 
C 106.812399 32.762301 107.702717 32.393519 108.359061 31.737175 
C 109.015406 31.080831 109.384188 30.190512 109.384188 29.262301 
C 109.384188 28.33409 109.015406 27.443772 108.359061 26.787427 
C 107.702717 26.131083 106.812399 25.762301 105.884188 25.762301 
C 104.955977 25.762301 104.065658 26.131083 103.409314 26.787427 
C 102.75297 27.443772 102.384188 28.33409 102.384188 29.262301 
C 102.384188 30.190512 102.75297 31.080831 103.409314 31.737175 
C 104.065658 32.393519 104.955977 32.762301 105.884188 32.762301 
z
" clip-path="url(#pa6bf86e4b5)" style="fill: #dd8452; fill-opacity: 0.2; stroke: #dd8452; stroke-width: 0.75"/>
    <path d="M 99.615106 105.501737 
C 100.543317 105.501737 101.433636 105.132955 102.08998 104.476611 
C 102.746324 103.820266 103.115106 102.929948 103.115106 102.001737 
C 103.115106 101.073526 102.746324 100.183207 102.08998 99.526863 
C 101.433636 98.870519 100.543317 98.501737 99.615106 98.501737 
C 98.686895 98.501737 97.796577 98.870519 97.140233 99.526863 
C 96.483888 100.183207 96.115106 101.073526 96.115106 102.001737 
C 96.115106 102.929948 96.483888 103.820266 97.140233 104.476611 
C 97.796577 105.132955 98.686895 105.501737 99.615106 105.501737 
z
" clip-path="url(#pa6bf86e4b5)" style="fill: #dd8452; fill-opacity: 0.2; stroke: #dd8452; stroke-width: 0.75"/>
    <path d="M 104.074919 109.236526 
C 105.00313 109.236526 105.893449 108.867744 106.549793 108.2114 
C 107.206137 107.555056 107.574919 106.664737 107.574919 105.736526 
C 107.574919 104.808315 107.206137 103.917997 106.549793 103.261652 
C 105.893449 102.605308 105.00313 102.236526 104.074919 102.236526 
C 103.146708 102.236526 102.256389 102.605308 101.600045 103.261652 
C 100.943701 103.917997 100.574919 104.808315 100.574919 105.736526 
C 100.574919 106.664737 100.943701 107.555056 101.600045 108.2114 
C 102.256389 108.867744 103.146708 109.236526 104.074919 109.236526 
z
" clip-path="url(#pa6bf86e4b5)" style="fill: #dd8452; fill-opacity: 0.2; stroke: #dd8452; stroke-width: 0.75"/>
    <path d="M 100.915305 109.397197 
C 101.843516 109.397197 102.733835 109.028415 103.390179 108.372071 
C 104.046523 107.715727 104.415305 106.825408 104.415305 105.897197 
C 104.415305 104.968986 104.046523 104.078668 103.390179 103.422323 
C 102.733835 102.765979 101.843516 102.397197 100.915305 102.397197 
C 99.987095 102.397197 99.096776 102.765979 98.440432 103.422323 
C 97.784087 104.078668 97.415305 104.968986 97.415305 105.897197 
C 97.415305 106.825408 97.784087 107.715727 98.440432 108.372071 
C 99.096776 109.028415 99.987095 109.397197 100.915305 109.397197 
z
" clip-path="url(#pa6bf86e4b5)" style="fill: #dd8452; fill-opacity: 0.2; stroke: #dd8452; stroke-width: 0.75"/>
    <path d="M 101.458205 91.349595 
C 102.386416 91.349595 103.276735 90.980813 103.933079 90.324469 
C 104.589423 89.668125 104.958205 88.777806 104.958205 87.849595 
C 104.958205 86.921384 104.589423 86.031065 103.933079 85.374721 
C 103.276735 84.718377 102.386416 84.349595 101.458205 84.349595 
C 100.529994 84.349595 99.639675 84.718377 98.983331 85.374721 
C 98.326987 86.031065 97.958205 86.921384 97.958205 87.849595 
C 97.958205 88.777806 98.326987 89.668125 98.983331 90.324469 
C 99.639675 90.980813 100.529994 91.349595 101.458205 91.349595 
z
" clip-path="url(#pa6bf86e4b5)" style="fill: #dd8452; fill-opacity: 0.2; stroke: #dd8452; stroke-width: 0.75"/>
    <path d="M 103.82186 103.191524 
C 104.750071 103.191524 105.640389 102.822742 106.296733 102.166398 
C 106.953078 101.510054 107.32186 100.619735 107.32186 99.691524 
C 107.32186 98.763314 106.953078 97.872995 106.296733 97.216651 
C 105.640389 96.560307 104.750071 96.191524 103.82186 96.191524 
C 102.893649 96.191524 102.00333 96.560307 101.346986 97.216651 
C 100.690642 97.872995 100.32186 98.763314 100.32186 99.691524 
C 100.32186 100.619735 100.690642 101.510054 101.346986 102.166398 
C 102.00333 102.822742 102.893649 103.191524 103.82186 103.191524 
z
" clip-path="url(#pa6bf86e4b5)" style="fill: #dd8452; fill-opacity: 0.2; stroke: #dd8452; stroke-width: 0.75"/>
   </g>
   <g id="LineCollection_1">
    <path d="M 52.776 136.377577 
L 88.712 136.377577 
" clip-path="url(#pa6bf86e4b5)" style="fill: none; stroke: #4c72b0; stroke-opacity: 0.8; stroke-width: 1.2; stroke-linecap: square"/>
    <path d="M 88.712 86.895428 
L 124.648 86.895428 
" clip-path="url(#pa6bf86e4b5)" style="fill: none; stroke: #dd8452; stroke-opacity: 0.8; stroke-width: 1.2; stroke-linecap: square"/>
   </g>
   <g id="LineCollection_2">
    <path d="M 74.3376 141.970721 
L 74.3376 130.784433 
" clip-path="url(#pa6bf86e4b5)" style="fill: none; stroke: #4c72b0; stroke-width: 1.2; stroke-linecap: square"/>
    <path d="M 110.2736 109.397229 
L 110.2736 64.393627 
" clip-path="url(#pa6bf86e4b5)" style="fill: none; stroke: #dd8452; stroke-width: 1.2; stroke-linecap: square"/>
   </g>
   <g id="patch_3">
    <path d="M 43.792 153.284125 
L 43.792 23.3565 
" style="fill: none; stroke: #262626; stroke-linejoin: miter; stroke-linecap: square"/>
   </g>
   <g id="patch_4">
    <path d="M 43.792 153.284125 
L 133.632 153.284125 
" style="fill: none; stroke: #262626; stroke-linejoin: miter; stroke-linecap: square"/>
   </g>
   <g id="text_8">
    <!-- 11DIV | 11DIV -->
    <g style="fill: #262626" transform="translate(58.82525 17.3565) scale(0.096 -0.096)">
     <defs>
      <path id="ArialMT-44" d="M 494 0 
L 494 4581 
L 2072 4581 
Q 2606 4581 2888 4516 
Q 3281 4425 3559 4188 
Q 3922 3881 4101 3404 
Q 4281 2928 4281 2316 
Q 4281 1794 4159 1391 
Q 4038 988 3847 723 
Q 3656 459 3429 307 
Q 3203 156 2883 78 
Q 2563 0 2147 0 
L 494 0 
z
M 1100 541 
L 2078 541 
Q 2531 541 2789 625 
Q 3047 709 3200 863 
Q 3416 1078 3536 1442 
Q 3656 1806 3656 2325 
Q 3656 3044 3420 3430 
Q 3184 3816 2847 3947 
Q 2603 4041 2063 4041 
L 1100 4041 
L 1100 541 
z
" transform="scale(0.015625)"/>
      <path id="ArialMT-49" d="M 597 0 
L 597 4581 
L 1203 4581 
L 1203 0 
L 597 0 
z
" transform="scale(0.015625)"/>
      <path id="ArialMT-56" d="M 1803 0 
L 28 4581 
L 684 4581 
L 1875 1253 
Q 2019 853 2116 503 
Q 2222 878 2363 1253 
L 3600 4581 
L 4219 4581 
L 2425 0 
L 1803 0 
z
" transform="scale(0.015625)"/>
      <path id="ArialMT-7c" d="M 588 -1347 
L 588 4659 
L 1078 4659 
L 1078 -1347 
L 588 -1347 
z
" transform="scale(0.015625)"/>
     </defs>
     <use xlink:href="#ArialMT-31"/>
     <use xlink:href="#ArialMT-31" x="48.240234"/>
     <use xlink:href="#ArialMT-44" x="103.855469"/>
     <use xlink:href="#ArialMT-49" x="176.072266"/>
     <use xlink:href="#ArialMT-56" x="203.855469"/>
     <use xlink:href="#ArialMT-20" x="270.554688"/>
     <use xlink:href="#ArialMT-7c" x="298.337891"/>
     <use xlink:href="#ArialMT-20" x="324.314453"/>
     <use xlink:href="#ArialMT-31" x="352.097656"/>
     <use xlink:href="#ArialMT-31" x="400.337891"/>
     <use xlink:href="#ArialMT-44" x="455.953125"/>
     <use xlink:href="#ArialMT-49" x="528.169922"/>
     <use xlink:href="#ArialMT-56" x="555.953125"/>
    </g>
   </g>
  </g>
  <g id="legend_1">
   <g id="patch_5">
    <path d="M 147.28 101.357625 
L 187.672 101.357625 
Q 189.432 101.357625 189.432 99.597625 
L 189.432 62.402375 
Q 189.432 60.642375 187.672 60.642375 
L 147.28 60.642375 
Q 145.52 60.642375 145.52 62.402375 
L 145.52 99.597625 
Q 145.52 101.357625 147.28 101.357625 
z
" style="fill: #eaeaf2; opacity: 0.8; stroke: #cccccc; stroke-width: 0.8; stroke-linejoin: miter"/>
   </g>
   <g id="text_9">
    <!-- tx -->
    <g style="fill: #262626" transform="translate(163.7425 71.033875) scale(0.096 -0.096)">
     <defs>
      <path id="ArialMT-78" d="M 47 0 
L 1259 1725 
L 138 3319 
L 841 3319 
L 1350 2541 
Q 1494 2319 1581 2169 
Q 1719 2375 1834 2534 
L 2394 3319 
L 3066 3319 
L 1919 1756 
L 3153 0 
L 2463 0 
L 1781 1031 
L 1600 1309 
L 728 0 
L 47 0 
z
" transform="scale(0.015625)"/>
     </defs>
     <use xlink:href="#ArialMT-74"/>
     <use xlink:href="#ArialMT-78" x="27.783203"/>
    </g>
   </g>
   <g id="line2d_13">
    <path style="fill: none; stroke: #4c72b0; stroke-width: 1.2; stroke-linecap: square"/>
   </g>
   <g id="line2d_14">
    <path style="fill: none; stroke: #4c72b0; stroke-width: 1.2; stroke-linecap: square"/>
   </g>
   <g id="text_10">
    <!-- ctl -->
    <g style="fill: #262626" transform="translate(173.68 83.64075) scale(0.088 -0.088)">
     <use xlink:href="#ArialMT-63"/>
     <use xlink:href="#ArialMT-74" x="50"/>
     <use xlink:href="#ArialMT-6c" x="77.783203"/>
    </g>
   </g>
   <g id="line2d_15">
    <path style="fill: none; stroke: #dd8452; stroke-width: 1.2; stroke-linecap: square"/>
   </g>
   <g id="line2d_16">
    <path style="fill: none; stroke: #dd8452; stroke-width: 1.2; stroke-linecap: square"/>
   </g>
   <g id="text_11">
    <!-- dfo -->
    <g style="fill: #262626" transform="translate(173.68 96.088625) scale(0.088 -0.088)">
     <defs>
      <path id="ArialMT-64" d="M 2575 0 
L 2575 419 
Q 2259 -75 1647 -75 
Q 1250 -75 917 144 
Q 584 363 401 755 
Q 219 1147 219 1656 
Q 219 2153 384 2558 
Q 550 2963 881 3178 
Q 1213 3394 1622 3394 
Q 1922 3394 2156 3267 
Q 2391 3141 2538 2938 
L 2538 4581 
L 3097 4581 
L 3097 0 
L 2575 0 
z
M 797 1656 
Q 797 1019 1065 703 
Q 1334 388 1700 388 
Q 2069 388 2326 689 
Q 2584 991 2584 1609 
Q 2584 2291 2321 2609 
Q 2059 2928 1675 2928 
Q 1300 2928 1048 2622 
Q 797 2316 797 1656 
z
" transform="scale(0.015625)"/>
     </defs>
     <use xlink:href="#ArialMT-64"/>
     <use xlink:href="#ArialMT-66" x="55.615234"/>
     <use xlink:href="#ArialMT-6f" x="83.398438"/>
    </g>
   </g>
  </g>
 </g>
 <defs>
  <clipPath id="pa6bf86e4b5">
   <rect x="43.792" y="23.3565" width="89.84" height="129.927625"/>
  </clipPath>
 </defs>
</svg>
