<?xml version="1.0" encoding="utf-8" standalone="no"?>
<!DOCTYPE svg PUBLIC "-//W3C//DTD SVG 1.1//EN"
  "http://www.w3.org/Graphics/SVG/1.1/DTD/svg11.dtd">
<svg xmlns:xlink="http://www.w3.org/1999/xlink" width="539.422594pt" height="315.046219pt" viewBox="0 0 539.422594 315.046219" xmlns="http://www.w3.org/2000/svg" version="1.1">
 <metadata>
  <rdf:RDF xmlns:dc="http://purl.org/dc/elements/1.1/" xmlns:cc="http://creativecommons.org/ns#" xmlns:rdf="http://www.w3.org/1999/02/22-rdf-syntax-ns#">
   <cc:Work>
    <dc:type rdf:resource="http://purl.org/dc/dcmitype/StillImage"/>
    <dc:date>2023-06-07T10:21:56.151951</dc:date>
    <dc:format>image/svg+xml</dc:format>
    <dc:creator>
     <cc:Agent>
      <dc:title>Matplotlib v3.6.2, https://matplotlib.org/</dc:title>
     </cc:Agent>
    </dc:creator>
   </cc:Work>
  </rdf:RDF>
 </metadata>
 <defs>
  <style type="text/css">*{stroke-linejoin: round; stroke-linecap: butt}</style>
 </defs>
 <g id="figure_1">
  <g id="patch_1">
   <path d="M 0 315.046219 
L 539.422594 315.046219 
L 539.422594 0 
L 0 0 
z
" style="fill: #ffffff"/>
  </g>
  <g id="axes_1">
   <g id="patch_2">
    <path d="M 53.389063 273.312 
L 410.509063 273.312 
L 410.509063 7.2 
L 53.389063 7.2 
z
" style="fill: #eaeaf2"/>
   </g>
   <g id="matplotlib.axis_1">
    <g id="xtick_1">
     <g id="line2d_1">
      <path d="M 104.04073 273.312 
L 104.04073 7.2 
" clip-path="url(#p4251190d17)" style="fill: none; stroke: #ffffff; stroke-linecap: round"/>
     </g>
     <g id="text_1">
      <!-- −0.4 -->
      <g style="fill: #262626" transform="translate(93.183386 290.685594) scale(0.11 -0.11)">
       <defs>
        <path id="ArialMT-2212" d="M 3381 1997 
L 356 1997 
L 356 2522 
L 3381 2522 
L 3381 1997 
z
" transform="scale(0.015625)"/>
        <path id="ArialMT-30" d="M 266 2259 
Q 266 3072 433 3567 
Q 600 4063 929 4331 
Q 1259 4600 1759 4600 
Q 2128 4600 2406 4451 
Q 2684 4303 2865 4023 
Q 3047 3744 3150 3342 
Q 3253 2941 3253 2259 
Q 3253 1453 3087 958 
Q 2922 463 2592 192 
Q 2263 -78 1759 -78 
Q 1097 -78 719 397 
Q 266 969 266 2259 
z
M 844 2259 
Q 844 1131 1108 757 
Q 1372 384 1759 384 
Q 2147 384 2411 759 
Q 2675 1134 2675 2259 
Q 2675 3391 2411 3762 
Q 2147 4134 1753 4134 
Q 1366 4134 1134 3806 
Q 844 3388 844 2259 
z
" transform="scale(0.015625)"/>
        <path id="ArialMT-2e" d="M 581 0 
L 581 641 
L 1222 641 
L 1222 0 
L 581 0 
z
" transform="scale(0.015625)"/>
        <path id="ArialMT-34" d="M 2069 0 
L 2069 1097 
L 81 1097 
L 81 1613 
L 2172 4581 
L 2631 4581 
L 2631 1613 
L 3250 1613 
L 3250 1097 
L 2631 1097 
L 2631 0 
L 2069 0 
z
M 2069 1613 
L 2069 3678 
L 634 1613 
L 2069 1613 
z
" transform="scale(0.015625)"/>
       </defs>
       <use xlink:href="#ArialMT-2212"/>
       <use xlink:href="#ArialMT-30" x="58.398438"/>
       <use xlink:href="#ArialMT-2e" x="114.013672"/>
       <use xlink:href="#ArialMT-34" x="141.796875"/>
      </g>
     </g>
    </g>
    <g id="xtick_2">
     <g id="line2d_2">
      <path d="M 177.457118 273.312 
L 177.457118 7.2 
" clip-path="url(#p4251190d17)" style="fill: none; stroke: #ffffff; stroke-linecap: round"/>
     </g>
     <g id="text_2">
      <!-- −0.2 -->
      <g style="fill: #262626" transform="translate(166.599775 290.685594) scale(0.11 -0.11)">
       <defs>
        <path id="ArialMT-32" d="M 3222 541 
L 3222 0 
L 194 0 
Q 188 203 259 391 
Q 375 700 629 1000 
Q 884 1300 1366 1694 
Q 2113 2306 2375 2664 
Q 2638 3022 2638 3341 
Q 2638 3675 2398 3904 
Q 2159 4134 1775 4134 
Q 1369 4134 1125 3890 
Q 881 3647 878 3216 
L 300 3275 
Q 359 3922 746 4261 
Q 1134 4600 1788 4600 
Q 2447 4600 2831 4234 
Q 3216 3869 3216 3328 
Q 3216 3053 3103 2787 
Q 2991 2522 2730 2228 
Q 2469 1934 1863 1422 
Q 1356 997 1212 845 
Q 1069 694 975 541 
L 3222 541 
z
" transform="scale(0.015625)"/>
       </defs>
       <use xlink:href="#ArialMT-2212"/>
       <use xlink:href="#ArialMT-30" x="58.398438"/>
       <use xlink:href="#ArialMT-2e" x="114.013672"/>
       <use xlink:href="#ArialMT-32" x="141.796875"/>
      </g>
     </g>
    </g>
    <g id="xtick_3">
     <g id="line2d_3">
      <path d="M 250.873507 273.312 
L 250.873507 7.2 
" clip-path="url(#p4251190d17)" style="fill: none; stroke: #ffffff; stroke-linecap: round"/>
     </g>
     <g id="text_3">
      <!-- 0.0 -->
      <g style="fill: #262626" transform="translate(243.228507 290.685594) scale(0.11 -0.11)">
       <use xlink:href="#ArialMT-30"/>
       <use xlink:href="#ArialMT-2e" x="55.615234"/>
       <use xlink:href="#ArialMT-30" x="83.398438"/>
      </g>
     </g>
    </g>
    <g id="xtick_4">
     <g id="line2d_4">
      <path d="M 324.289896 273.312 
L 324.289896 7.2 
" clip-path="url(#p4251190d17)" style="fill: none; stroke: #ffffff; stroke-linecap: round"/>
     </g>
     <g id="text_4">
      <!-- 0.2 -->
      <g style="fill: #262626" transform="translate(316.644896 290.685594) scale(0.11 -0.11)">
       <use xlink:href="#ArialMT-30"/>
       <use xlink:href="#ArialMT-2e" x="55.615234"/>
       <use xlink:href="#ArialMT-32" x="83.398438"/>
      </g>
     </g>
    </g>
    <g id="xtick_5">
     <g id="line2d_5">
      <path d="M 397.706285 273.312 
L 397.706285 7.2 
" clip-path="url(#p4251190d17)" style="fill: none; stroke: #ffffff; stroke-linecap: round"/>
     </g>
     <g id="text_5">
      <!-- 0.4 -->
      <g style="fill: #262626" transform="translate(390.061285 290.685594) scale(0.11 -0.11)">
       <use xlink:href="#ArialMT-30"/>
       <use xlink:href="#ArialMT-2e" x="55.615234"/>
       <use xlink:href="#ArialMT-34" x="83.398438"/>
      </g>
     </g>
    </g>
    <g id="text_6">
     <!-- PC1 -->
     <g style="fill: #262626" transform="translate(220.277187 305.461219) scale(0.12 -0.12)">
      <defs>
       <path id="ArialMT-50" d="M 494 0 
L 494 4581 
L 2222 4581 
Q 2678 4581 2919 4538 
Q 3256 4481 3484 4323 
Q 3713 4166 3852 3881 
Q 3991 3597 3991 3256 
Q 3991 2672 3619 2267 
Q 3247 1863 2275 1863 
L 1100 1863 
L 1100 0 
L 494 0 
z
M 1100 2403 
L 2284 2403 
Q 2872 2403 3119 2622 
Q 3366 2841 3366 3238 
Q 3366 3525 3220 3729 
Q 3075 3934 2838 4000 
Q 2684 4041 2272 4041 
L 1100 4041 
L 1100 2403 
z
" transform="scale(0.015625)"/>
       <path id="ArialMT-43" d="M 3763 1606 
L 4369 1453 
Q 4178 706 3683 314 
Q 3188 -78 2472 -78 
Q 1731 -78 1267 223 
Q 803 525 561 1097 
Q 319 1669 319 2325 
Q 319 3041 592 3573 
Q 866 4106 1370 4382 
Q 1875 4659 2481 4659 
Q 3169 4659 3637 4309 
Q 4106 3959 4291 3325 
L 3694 3184 
Q 3534 3684 3231 3912 
Q 2928 4141 2469 4141 
Q 1941 4141 1586 3887 
Q 1231 3634 1087 3207 
Q 944 2781 944 2328 
Q 944 1744 1114 1308 
Q 1284 872 1643 656 
Q 2003 441 2422 441 
Q 2931 441 3284 734 
Q 3638 1028 3763 1606 
z
" transform="scale(0.015625)"/>
       <path id="ArialMT-31" d="M 2384 0 
L 1822 0 
L 1822 3584 
Q 1619 3391 1289 3197 
Q 959 3003 697 2906 
L 697 3450 
Q 1169 3672 1522 3987 
Q 1875 4303 2022 4600 
L 2384 4600 
L 2384 0 
z
" transform="scale(0.015625)"/>
      </defs>
      <use xlink:href="#ArialMT-50"/>
      <use xlink:href="#ArialMT-43" x="66.699219"/>
      <use xlink:href="#ArialMT-31" x="138.916016"/>
     </g>
    </g>
   </g>
   <g id="matplotlib.axis_2">
    <g id="ytick_1">
     <g id="line2d_6">
      <path d="M 53.389063 262.664715 
L 410.509063 262.664715 
" clip-path="url(#p4251190d17)" style="fill: none; stroke: #ffffff; stroke-linecap: round"/>
     </g>
     <g id="text_7">
      <!-- −0.4 -->
      <g style="fill: #262626" transform="translate(22.174375 266.601512) scale(0.11 -0.11)">
       <use xlink:href="#ArialMT-2212"/>
       <use xlink:href="#ArialMT-30" x="58.398438"/>
       <use xlink:href="#ArialMT-2e" x="114.013672"/>
       <use xlink:href="#ArialMT-34" x="141.796875"/>
      </g>
     </g>
    </g>
    <g id="ytick_2">
     <g id="line2d_7">
      <path d="M 53.389063 210.437705 
L 410.509063 210.437705 
" clip-path="url(#p4251190d17)" style="fill: none; stroke: #ffffff; stroke-linecap: round"/>
     </g>
     <g id="text_8">
      <!-- −0.2 -->
      <g style="fill: #262626" transform="translate(22.174375 214.374502) scale(0.11 -0.11)">
       <use xlink:href="#ArialMT-2212"/>
       <use xlink:href="#ArialMT-30" x="58.398438"/>
       <use xlink:href="#ArialMT-2e" x="114.013672"/>
       <use xlink:href="#ArialMT-32" x="141.796875"/>
      </g>
     </g>
    </g>
    <g id="ytick_3">
     <g id="line2d_8">
      <path d="M 53.389063 158.210695 
L 410.509063 158.210695 
" clip-path="url(#p4251190d17)" style="fill: none; stroke: #ffffff; stroke-linecap: round"/>
     </g>
     <g id="text_9">
      <!-- 0.0 -->
      <g style="fill: #262626" transform="translate(28.599063 162.147492) scale(0.11 -0.11)">
       <use xlink:href="#ArialMT-30"/>
       <use xlink:href="#ArialMT-2e" x="55.615234"/>
       <use xlink:href="#ArialMT-30" x="83.398438"/>
      </g>
     </g>
    </g>
    <g id="ytick_4">
     <g id="line2d_9">
      <path d="M 53.389063 105.983684 
L 410.509063 105.983684 
" clip-path="url(#p4251190d17)" style="fill: none; stroke: #ffffff; stroke-linecap: round"/>
     </g>
     <g id="text_10">
      <!-- 0.2 -->
      <g style="fill: #262626" transform="translate(28.599063 109.920481) scale(0.11 -0.11)">
       <use xlink:href="#ArialMT-30"/>
       <use xlink:href="#ArialMT-2e" x="55.615234"/>
       <use xlink:href="#ArialMT-32" x="83.398438"/>
      </g>
     </g>
    </g>
    <g id="ytick_5">
     <g id="line2d_10">
      <path d="M 53.389063 53.756674 
L 410.509063 53.756674 
" clip-path="url(#p4251190d17)" style="fill: none; stroke: #ffffff; stroke-linecap: round"/>
     </g>
     <g id="text_11">
      <!-- 0.4 -->
      <g style="fill: #262626" transform="translate(28.599063 57.693471) scale(0.11 -0.11)">
       <use xlink:href="#ArialMT-30"/>
       <use xlink:href="#ArialMT-2e" x="55.615234"/>
       <use xlink:href="#ArialMT-34" x="83.398438"/>
      </g>
     </g>
    </g>
    <g id="text_12">
     <!-- PC2 -->
     <g style="fill: #262626" transform="translate(15.789375 151.927875) rotate(-90) scale(0.12 -0.12)">
      <use xlink:href="#ArialMT-50"/>
      <use xlink:href="#ArialMT-43" x="66.699219"/>
      <use xlink:href="#ArialMT-32" x="138.916016"/>
     </g>
    </g>
   </g>
   <g id="PathCollection_1">
    <path d="M 164.095798 212.169323 
C 165.421813 212.169323 166.693697 211.642492 167.631332 210.704857 
C 168.568966 209.767223 169.095798 208.495339 169.095798 207.169323 
C 169.095798 205.843308 168.568966 204.571424 167.631332 203.633789 
C 166.693697 202.696155 165.421813 202.169323 164.095798 202.169323 
C 162.769782 202.169323 161.497899 202.696155 160.560264 203.633789 
C 159.62263 204.571424 159.095798 205.843308 159.095798 207.169323 
C 159.095798 208.495339 159.62263 209.767223 160.560264 210.704857 
C 161.497899 211.642492 162.769782 212.169323 164.095798 212.169323 
z
" clip-path="url(#p4251190d17)" style="fill: #0173b2; fill-opacity: 0.2; stroke: #0173b2; stroke-width: 0.75"/>
    <path d="M 201.056842 170.330658 
C 202.382857 170.330658 203.654741 169.803826 204.592376 168.866192 
C 205.53001 167.928557 206.056842 166.656673 206.056842 165.330658 
C 206.056842 164.004642 205.53001 162.732758 204.592376 161.795124 
C 203.654741 160.857489 202.382857 160.330658 201.056842 160.330658 
C 199.730826 160.330658 198.458943 160.857489 197.521308 161.795124 
C 196.583673 162.732758 196.056842 164.004642 196.056842 165.330658 
C 196.056842 166.656673 196.583673 167.928557 197.521308 168.866192 
C 198.458943 169.803826 199.730826 170.330658 201.056842 170.330658 
z
" clip-path="url(#p4251190d17)" style="fill: #0173b2; fill-opacity: 0.2; stroke: #0173b2; stroke-width: 0.75"/>
    <path d="M 133.467665 129.542024 
C 134.793681 129.542024 136.065565 129.015192 137.003199 128.077558 
C 137.940834 127.139923 138.467665 125.868039 138.467665 124.542024 
C 138.467665 123.216008 137.940834 121.944124 137.003199 121.00649 
C 136.065565 120.068855 134.793681 119.542024 133.467665 119.542024 
C 132.14165 119.542024 130.869766 120.068855 129.932132 121.00649 
C 128.994497 121.944124 128.467665 123.216008 128.467665 124.542024 
C 128.467665 125.868039 128.994497 127.139923 129.932132 128.077558 
C 130.869766 129.015192 132.14165 129.542024 133.467665 129.542024 
z
" clip-path="url(#p4251190d17)" style="fill: #0173b2; fill-opacity: 0.2; stroke: #0173b2; stroke-width: 0.75"/>
    <path d="M 159.845832 190.043358 
C 161.171848 190.043358 162.443732 189.516527 163.381366 188.578892 
C 164.319001 187.641258 164.845832 186.369374 164.845832 185.043358 
C 164.845832 183.717343 164.319001 182.445459 163.381366 181.507824 
C 162.443732 180.57019 161.171848 180.043358 159.845832 180.043358 
C 158.519817 180.043358 157.247933 180.57019 156.310299 181.507824 
C 155.372664 182.445459 154.845832 183.717343 154.845832 185.043358 
C 154.845832 186.369374 155.372664 187.641258 156.310299 188.578892 
C 157.247933 189.516527 158.519817 190.043358 159.845832 190.043358 
z
" clip-path="url(#p4251190d17)" style="fill: #0173b2; fill-opacity: 0.2; stroke: #0173b2; stroke-width: 0.75"/>
    <path d="M 138.625275 167.644124 
C 139.95129 167.644124 141.223174 167.117293 142.160809 166.179658 
C 143.098443 165.242023 143.625275 163.97014 143.625275 162.644124 
C 143.625275 161.318109 143.098443 160.046225 142.160809 159.10859 
C 141.223174 158.170956 139.95129 157.644124 138.625275 157.644124 
C 137.299259 157.644124 136.027375 158.170956 135.089741 159.10859 
C 134.152106 160.046225 133.625275 161.318109 133.625275 162.644124 
C 133.625275 163.97014 134.152106 165.242023 135.089741 166.179658 
C 136.027375 167.117293 137.299259 167.644124 138.625275 167.644124 
z
" clip-path="url(#p4251190d17)" style="fill: #0173b2; fill-opacity: 0.2; stroke: #0173b2; stroke-width: 0.75"/>
    <path d="M 177.433024 178.102348 
C 178.759039 178.102348 180.030923 177.575517 180.968558 176.637882 
C 181.906192 175.700248 182.433024 174.428364 182.433024 173.102348 
C 182.433024 171.776333 181.906192 170.504449 180.968558 169.566814 
C 180.030923 168.62918 178.759039 168.102348 177.433024 168.102348 
C 176.107008 168.102348 174.835124 168.62918 173.89749 169.566814 
C 172.959855 170.504449 172.433024 171.776333 172.433024 173.102348 
C 172.433024 174.428364 172.959855 175.700248 173.89749 176.637882 
C 174.835124 177.575517 176.107008 178.102348 177.433024 178.102348 
z
" clip-path="url(#p4251190d17)" style="fill: #0173b2; fill-opacity: 0.2; stroke: #0173b2; stroke-width: 0.75"/>
    <path d="M 182.422663 189.995524 
C 183.748679 189.995524 185.020562 189.468693 185.958197 188.531058 
C 186.895832 187.593423 187.422663 186.32154 187.422663 184.995524 
C 187.422663 183.669509 186.895832 182.397625 185.958197 181.45999 
C 185.020562 180.522356 183.748679 179.995524 182.422663 179.995524 
C 181.096648 179.995524 179.824764 180.522356 178.887129 181.45999 
C 177.949495 182.397625 177.422663 183.669509 177.422663 184.995524 
C 177.422663 186.32154 177.949495 187.593423 178.887129 188.531058 
C 179.824764 189.468693 181.096648 189.995524 182.422663 189.995524 
z
" clip-path="url(#p4251190d17)" style="fill: #0173b2; fill-opacity: 0.2; stroke: #0173b2; stroke-width: 0.75"/>
    <path d="M 162.021868 131.576211 
C 163.347884 131.576211 164.619768 131.049379 165.557402 130.111745 
C 166.495037 129.17411 167.021868 127.902226 167.021868 126.576211 
C 167.021868 125.250195 166.495037 123.978312 165.557402 123.040677 
C 164.619768 122.103042 163.347884 121.576211 162.021868 121.576211 
C 160.695853 121.576211 159.423969 122.103042 158.486334 123.040677 
C 157.5487 123.978312 157.021868 125.250195 157.021868 126.576211 
C 157.021868 127.902226 157.5487 129.17411 158.486334 130.111745 
C 159.423969 131.049379 160.695853 131.576211 162.021868 131.576211 
z
" clip-path="url(#p4251190d17)" style="fill: #0173b2; fill-opacity: 0.2; stroke: #0173b2; stroke-width: 0.75"/>
    <path d="M 187.52376 172.495008 
C 188.849775 172.495008 190.121659 171.968176 191.059294 171.030542 
C 191.996928 170.092907 192.52376 168.821023 192.52376 167.495008 
C 192.52376 166.168992 191.996928 164.897108 191.059294 163.959474 
C 190.121659 163.021839 188.849775 162.495008 187.52376 162.495008 
C 186.197744 162.495008 184.92586 163.021839 183.988226 163.959474 
C 183.050591 164.897108 182.52376 166.168992 182.52376 167.495008 
C 182.52376 168.821023 183.050591 170.092907 183.988226 171.030542 
C 184.92586 171.968176 186.197744 172.495008 187.52376 172.495008 
z
" clip-path="url(#p4251190d17)" style="fill: #0173b2; fill-opacity: 0.2; stroke: #0173b2; stroke-width: 0.75"/>
    <path d="M 226.130781 155.24919 
C 227.456796 155.24919 228.72868 154.722358 229.666315 153.784724 
C 230.603949 152.847089 231.130781 151.575205 231.130781 150.24919 
C 231.130781 148.923174 230.603949 147.651291 229.666315 146.713656 
C 228.72868 145.776021 227.456796 145.24919 226.130781 145.24919 
C 224.804765 145.24919 223.532881 145.776021 222.595247 146.713656 
C 221.657612 147.651291 221.130781 148.923174 221.130781 150.24919 
C 221.130781 151.575205 221.657612 152.847089 222.595247 153.784724 
C 223.532881 154.722358 224.804765 155.24919 226.130781 155.24919 
z
" clip-path="url(#p4251190d17)" style="fill: #0173b2; fill-opacity: 0.2; stroke: #0173b2; stroke-width: 0.75"/>
    <path d="M 125.116753 171.187297 
C 126.442768 171.187297 127.714652 170.660466 128.652287 169.722831 
C 129.589921 168.785197 130.116753 167.513313 130.116753 166.187297 
C 130.116753 164.861282 129.589921 163.589398 128.652287 162.651764 
C 127.714652 161.714129 126.442768 161.187297 125.116753 161.187297 
C 123.790737 161.187297 122.518853 161.714129 121.581219 162.651764 
C 120.643584 163.589398 120.116753 164.861282 120.116753 166.187297 
C 120.116753 167.513313 120.643584 168.785197 121.581219 169.722831 
C 122.518853 170.660466 123.790737 171.187297 125.116753 171.187297 
z
" clip-path="url(#p4251190d17)" style="fill: #0173b2; fill-opacity: 0.2; stroke: #0173b2; stroke-width: 0.75"/>
    <path d="M 134.718108 175.770955 
C 136.044124 175.770955 137.316008 175.244123 138.253642 174.306489 
C 139.191277 173.368854 139.718108 172.09697 139.718108 170.770955 
C 139.718108 169.444939 139.191277 168.173056 138.253642 167.235421 
C 137.316008 166.297786 136.044124 165.770955 134.718108 165.770955 
C 133.392093 165.770955 132.120209 166.297786 131.182574 167.235421 
C 130.24494 168.173056 129.718108 169.444939 129.718108 170.770955 
C 129.718108 172.09697 130.24494 173.368854 131.182574 174.306489 
C 132.120209 175.244123 133.392093 175.770955 134.718108 175.770955 
z
" clip-path="url(#p4251190d17)" style="fill: #0173b2; fill-opacity: 0.2; stroke: #0173b2; stroke-width: 0.75"/>
    <path d="M 319.875392 188.620128 
L 322.375392 186.120128 
L 324.875392 188.620128 
L 327.375392 186.120128 
L 324.875392 183.620128 
L 327.375392 181.120128 
L 324.875392 178.620128 
L 322.375392 181.120128 
L 319.875392 178.620128 
L 317.375392 181.120128 
L 319.875392 183.620128 
L 317.375392 186.120128 
z
" clip-path="url(#p4251190d17)" style="fill: #de8f05; fill-opacity: 0.2; stroke: #de8f05; stroke-width: 0.75"/>
    <path d="M 376.25163 240.730462 
L 378.75163 238.230462 
L 381.25163 240.730462 
L 383.75163 238.230462 
L 381.25163 235.730462 
L 383.75163 233.230462 
L 381.25163 230.730462 
L 378.75163 233.230462 
L 376.25163 230.730462 
L 373.75163 233.230462 
L 376.25163 235.730462 
L 373.75163 238.230462 
z
" clip-path="url(#p4251190d17)" style="fill: #de8f05; fill-opacity: 0.2; stroke: #de8f05; stroke-width: 0.75"/>
    <path d="M 349.50438 57.247806 
L 352.00438 54.747806 
L 354.50438 57.247806 
L 357.00438 54.747806 
L 354.50438 52.247806 
L 357.00438 49.747806 
L 354.50438 47.247806 
L 352.00438 49.747806 
L 349.50438 47.247806 
L 347.00438 49.747806 
L 349.50438 52.247806 
L 347.00438 54.747806 
z
" clip-path="url(#p4251190d17)" style="fill: #de8f05; fill-opacity: 0.2; stroke: #de8f05; stroke-width: 0.75"/>
    <path d="M 363.695404 111.845095 
L 366.195404 109.345095 
L 368.695404 111.845095 
L 371.195404 109.345095 
L 368.695404 106.845095 
L 371.195404 104.345095 
L 368.695404 101.845095 
L 366.195404 104.345095 
L 363.695404 101.845095 
L 361.195404 104.345095 
L 363.695404 106.845095 
L 361.195404 109.345095 
z
" clip-path="url(#p4251190d17)" style="fill: #de8f05; fill-opacity: 0.2; stroke: #de8f05; stroke-width: 0.75"/>
    <path d="M 324.269845 94.067067 
L 326.769845 91.567067 
L 329.269845 94.067067 
L 331.769845 91.567067 
L 329.269845 89.067067 
L 331.769845 86.567067 
L 329.269845 84.067067 
L 326.769845 86.567067 
L 324.269845 84.067067 
L 321.769845 86.567067 
L 324.269845 89.067067 
L 321.769845 91.567067 
z
" clip-path="url(#p4251190d17)" style="fill: #de8f05; fill-opacity: 0.2; stroke: #de8f05; stroke-width: 0.75"/>
    <path d="M 320.827631 84.911956 
L 323.327631 82.411956 
L 325.827631 84.911956 
L 328.327631 82.411956 
L 325.827631 79.911956 
L 328.327631 77.411956 
L 325.827631 74.911956 
L 323.327631 77.411956 
L 320.827631 74.911956 
L 318.327631 77.411956 
L 320.827631 79.911956 
L 318.327631 82.411956 
z
" clip-path="url(#p4251190d17)" style="fill: #de8f05; fill-opacity: 0.2; stroke: #de8f05; stroke-width: 0.75"/>
    <path d="M 251.01764 44.993726 
L 253.51764 42.493726 
L 256.01764 44.993726 
L 258.51764 42.493726 
L 256.01764 39.993726 
L 258.51764 37.493726 
L 256.01764 34.993726 
L 253.51764 37.493726 
L 251.01764 34.993726 
L 248.51764 37.493726 
L 251.01764 39.993726 
L 248.51764 42.493726 
z
" clip-path="url(#p4251190d17)" style="fill: #de8f05; fill-opacity: 0.2; stroke: #de8f05; stroke-width: 0.75"/>
    <path d="M 354.228775 234.22575 
L 356.728775 231.72575 
L 359.228775 234.22575 
L 361.728775 231.72575 
L 359.228775 229.22575 
L 361.728775 226.72575 
L 359.228775 224.22575 
L 356.728775 226.72575 
L 354.228775 224.22575 
L 351.728775 226.72575 
L 354.228775 229.22575 
L 351.728775 231.72575 
z
" clip-path="url(#p4251190d17)" style="fill: #de8f05; fill-opacity: 0.2; stroke: #de8f05; stroke-width: 0.75"/>
    <path d="M 314.553203 227.771654 
L 317.053203 225.271654 
L 319.553203 227.771654 
L 322.053203 225.271654 
L 319.553203 222.771654 
L 322.053203 220.271654 
L 319.553203 217.771654 
L 317.053203 220.271654 
L 314.553203 217.771654 
L 312.053203 220.271654 
L 314.553203 222.771654 
L 312.053203 225.271654 
z
" clip-path="url(#p4251190d17)" style="fill: #de8f05; fill-opacity: 0.2; stroke: #de8f05; stroke-width: 0.75"/>
    <path d="M 354.080422 195.27309 
L 356.580422 192.77309 
L 359.080422 195.27309 
L 361.580422 192.77309 
L 359.080422 190.27309 
L 361.580422 187.77309 
L 359.080422 185.27309 
L 356.580422 187.77309 
L 354.080422 185.27309 
L 351.580422 187.77309 
L 354.080422 190.27309 
L 351.580422 192.77309 
z
" clip-path="url(#p4251190d17)" style="fill: #de8f05; fill-opacity: 0.2; stroke: #de8f05; stroke-width: 0.75"/>
    <path d="M 278.425148 181.396343 
L 280.925148 178.896343 
L 283.425148 181.396343 
L 285.925148 178.896343 
L 283.425148 176.396343 
L 285.925148 173.896343 
L 283.425148 171.396343 
L 280.925148 173.896343 
L 278.425148 171.396343 
L 275.925148 173.896343 
L 278.425148 176.396343 
L 275.925148 178.896343 
z
" clip-path="url(#p4251190d17)" style="fill: #de8f05; fill-opacity: 0.2; stroke: #de8f05; stroke-width: 0.75"/>
    <path d="M 391.776335 211.867577 
L 394.276335 209.367577 
L 396.776335 211.867577 
L 399.276335 209.367577 
L 396.776335 206.867577 
L 399.276335 204.367577 
L 396.776335 201.867577 
L 394.276335 204.367577 
L 391.776335 201.867577 
L 389.276335 204.367577 
L 391.776335 206.867577 
L 389.276335 209.367577 
z
" clip-path="url(#p4251190d17)" style="fill: #de8f05; fill-opacity: 0.2; stroke: #de8f05; stroke-width: 0.75"/>
   </g>
   <g id="line2d_11">
    <path d="M 389.07452 57.059022 
L 250.873507 158.210695 
" clip-path="url(#p4251190d17)" style="fill: none; stroke: #9589a6; stroke-width: 1.5; stroke-linecap: round"/>
   </g>
   <g id="line2d_12">
    <path d="M 220.694494 94.831368 
L 250.873507 158.210695 
" clip-path="url(#p4251190d17)" style="fill: none; stroke: #9589a6; stroke-width: 1.5; stroke-linecap: round"/>
   </g>
   <g id="line2d_13">
    <path d="M 239.821688 78.789665 
L 250.873507 158.210695 
" clip-path="url(#p4251190d17)" style="fill: none; stroke: #9589a6; stroke-width: 1.5; stroke-linecap: round"/>
   </g>
   <g id="line2d_14">
    <path d="M 239.621543 19.296 
L 250.873507 158.210695 
" clip-path="url(#p4251190d17)" style="fill: none; stroke: #9589a6; stroke-width: 1.5; stroke-linecap: round"/>
   </g>
   <g id="line2d_15">
    <path d="M 79.700078 261.216 
L 250.873507 158.210695 
" clip-path="url(#p4251190d17)" style="fill: none; stroke: #9589a6; stroke-width: 1.5; stroke-linecap: round"/>
   </g>
   <g id="line2d_16">
    <path d="M 117.297677 43.730264 
L 250.873507 158.210695 
" clip-path="url(#p4251190d17)" style="fill: none; stroke: #9589a6; stroke-width: 1.5; stroke-linecap: round"/>
   </g>
   <g id="line2d_17">
    <path d="M 106.166514 100.684895 
L 250.873507 158.210695 
" clip-path="url(#p4251190d17)" style="fill: none; stroke: #9589a6; stroke-width: 1.5; stroke-linecap: round"/>
   </g>
   <g id="line2d_18">
    <path d="M 69.62179 126.668061 
L 250.873507 158.210695 
" clip-path="url(#p4251190d17)" style="fill: none; stroke: #9589a6; stroke-width: 1.5; stroke-linecap: round"/>
   </g>
   <g id="line2d_19">
    <path d="M 134.447705 176.040602 
L 250.873507 158.210695 
" clip-path="url(#p4251190d17)" style="fill: none; stroke: #9589a6; stroke-width: 1.5; stroke-linecap: round"/>
   </g>
   <g id="patch_3">
    <path d="M 53.389063 273.312 
L 53.389063 7.2 
" style="fill: none; stroke: #ffffff; stroke-width: 1.25; stroke-linejoin: miter; stroke-linecap: square"/>
   </g>
   <g id="patch_4">
    <path d="M 410.509063 273.312 
L 410.509063 7.2 
" style="fill: none; stroke: #ffffff; stroke-width: 1.25; stroke-linejoin: miter; stroke-linecap: square"/>
   </g>
   <g id="patch_5">
    <path d="M 53.389062 273.312 
L 410.509063 273.312 
" style="fill: none; stroke: #ffffff; stroke-width: 1.25; stroke-linejoin: miter; stroke-linecap: square"/>
   </g>
   <g id="patch_6">
    <path d="M 53.389062 7.2 
L 410.509063 7.2 
" style="fill: none; stroke: #ffffff; stroke-width: 1.25; stroke-linejoin: miter; stroke-linecap: square"/>
   </g>
   <g id="text_13">
    <g clip-path="url(#p4251190d17)">
     <!-- Tfr1 -->
     <g transform="translate(378.408582 50.674022) scale(0.12 -0.12)">
      <defs>
       <path id="Arial-ItalicMT-54" d="M 1453 0 
L 2300 4059 
L 797 4059 
L 906 4581 
L 4513 4581 
L 4403 4059 
L 2913 4059 
L 2066 0 
L 1453 0 
z
" transform="scale(0.015625)"/>
       <path id="Arial-ItalicMT-66" d="M 291 0 
L 894 2881 
L 388 2881 
L 478 3319 
L 984 3319 
L 1081 3791 
Q 1156 4144 1236 4300 
Q 1316 4456 1495 4557 
Q 1675 4659 1984 4659 
Q 2200 4659 2609 4569 
L 2506 4075 
Q 2219 4150 2025 4150 
Q 1859 4150 1773 4067 
Q 1688 3984 1625 3675 
L 1550 3319 
L 2181 3319 
L 2091 2881 
L 1459 2881 
L 856 0 
L 291 0 
z
" transform="scale(0.015625)"/>
       <path id="Arial-ItalicMT-72" d="M 213 0 
L 906 3319 
L 1406 3319 
L 1266 2641 
Q 1522 3025 1767 3209 
Q 2013 3394 2269 3394 
Q 2438 3394 2684 3272 
L 2453 2747 
Q 2306 2853 2131 2853 
Q 1834 2853 1521 2522 
Q 1209 2191 1031 1331 
L 750 0 
L 213 0 
z
" transform="scale(0.015625)"/>
       <path id="Arial-ItalicMT-31" d="M 1541 0 
L 2266 3459 
Q 1797 3091 947 2869 
L 1053 3381 
Q 1475 3550 1886 3822 
Q 2297 4094 2503 4297 
Q 2628 4422 2741 4600 
L 3069 4600 
L 2109 0 
L 1541 0 
z
" transform="scale(0.015625)"/>
      </defs>
      <use xlink:href="#Arial-ItalicMT-54"/>
      <use xlink:href="#Arial-ItalicMT-66" x="61.083984"/>
      <use xlink:href="#Arial-ItalicMT-72" x="88.867188"/>
      <use xlink:href="#Arial-ItalicMT-31" x="122.167969"/>
     </g>
    </g>
   </g>
   <g id="text_14">
    <g clip-path="url(#p4251190d17)">
     <!-- Slc16a2 -->
     <g transform="translate(199.012932 88.446368) scale(0.12 -0.12)">
      <defs>
       <path id="Arial-ItalicMT-53" d="M 450 1481 
L 1050 1538 
L 1044 1378 
Q 1044 1113 1166 892 
Q 1288 672 1569 551 
Q 1850 431 2238 431 
Q 2788 431 3077 672 
Q 3366 913 3366 1222 
Q 3366 1438 3213 1616 
Q 3056 1791 2359 2091 
Q 1819 2325 1622 2450 
Q 1313 2653 1166 2892 
Q 1019 3131 1019 3438 
Q 1019 3791 1212 4075 
Q 1406 4359 1779 4509 
Q 2153 4659 2622 4659 
Q 3181 4659 3565 4471 
Q 3950 4284 4123 3971 
Q 4297 3659 4297 3375 
Q 4297 3347 4294 3281 
L 3703 3234 
Q 3703 3428 3669 3538 
Q 3606 3728 3475 3859 
Q 3344 3991 3114 4070 
Q 2884 4150 2600 4150 
Q 2100 4150 1822 3925 
Q 1609 3753 1609 3469 
Q 1609 3300 1696 3167 
Q 1784 3034 2013 2906 
Q 2175 2816 2784 2547 
Q 3278 2328 3466 2203 
Q 3716 2038 3850 1802 
Q 3984 1566 3984 1266 
Q 3984 894 3757 580 
Q 3531 266 3131 94 
Q 2731 -78 2216 -78 
Q 1438 -78 945 261 
Q 453 600 450 1481 
z
" transform="scale(0.015625)"/>
       <path id="Arial-ItalicMT-6c" d="M 169 0 
L 1125 4581 
L 1691 4581 
L 734 0 
L 169 0 
z
" transform="scale(0.015625)"/>
       <path id="Arial-ItalicMT-63" d="M 2503 1209 
L 3069 1150 
Q 2856 528 2464 226 
Q 2072 -75 1572 -75 
Q 1031 -75 695 275 
Q 359 625 359 1253 
Q 359 1797 575 2322 
Q 791 2847 1192 3120 
Q 1594 3394 2109 3394 
Q 2644 3394 2956 3092 
Q 3269 2791 3269 2294 
L 2713 2256 
Q 2709 2572 2529 2750 
Q 2350 2928 2056 2928 
Q 1716 2928 1466 2712 
Q 1216 2497 1073 2058 
Q 931 1619 931 1213 
Q 931 788 1118 575 
Q 1306 363 1581 363 
Q 1856 363 2107 572 
Q 2359 781 2503 1209 
z
" transform="scale(0.015625)"/>
       <path id="Arial-ItalicMT-36" d="M 1288 2656 
Q 1525 2853 1761 2951 
Q 1997 3050 2228 3050 
Q 2750 3050 3090 2694 
Q 3431 2338 3431 1734 
Q 3431 956 2925 400 
Q 2488 -78 1863 -78 
Q 1294 -78 914 339 
Q 534 756 534 1528 
Q 534 2219 778 2956 
Q 966 3522 1242 3889 
Q 1519 4256 1830 4428 
Q 2141 4600 2531 4600 
Q 3000 4600 3297 4308 
Q 3594 4016 3634 3472 
L 3109 3422 
Q 3066 3794 2898 3959 
Q 2731 4125 2491 4125 
Q 2238 4125 1981 3928 
Q 1725 3731 1540 3345 
Q 1356 2959 1288 2656 
z
M 1091 1288 
Q 1091 900 1331 636 
Q 1572 372 1875 372 
Q 2088 372 2325 533 
Q 2563 694 2728 1022 
Q 2894 1350 2894 1675 
Q 2894 2094 2664 2345 
Q 2434 2597 2109 2597 
Q 1734 2597 1412 2230 
Q 1091 1863 1091 1288 
z
" transform="scale(0.015625)"/>
       <path id="Arial-ItalicMT-61" d="M 2450 413 
Q 2156 159 1884 42 
Q 1613 -75 1303 -75 
Q 844 -75 562 195 
Q 281 466 281 888 
Q 281 1166 407 1380 
Q 534 1594 743 1723 
Q 953 1853 1256 1909 
Q 1447 1947 1980 1969 
Q 2513 1991 2744 2081 
Q 2809 2313 2809 2466 
Q 2809 2663 2666 2775 
Q 2469 2931 2091 2931 
Q 1734 2931 1507 2773 
Q 1281 2616 1178 2325 
L 606 2375 
Q 781 2869 1161 3131 
Q 1541 3394 2119 3394 
Q 2734 3394 3094 3100 
Q 3369 2881 3369 2531 
Q 3369 2266 3291 1916 
L 3106 1091 
Q 3019 697 3019 450 
Q 3019 294 3088 0 
L 2516 0 
Q 2469 163 2450 413 
z
M 2659 1681 
Q 2541 1634 2405 1609 
Q 2269 1584 1950 1556 
Q 1456 1513 1253 1445 
Q 1050 1378 947 1231 
Q 844 1084 844 906 
Q 844 669 1008 516 
Q 1172 363 1475 363 
Q 1756 363 2015 511 
Q 2275 659 2425 925 
Q 2575 1191 2659 1681 
z
" transform="scale(0.015625)"/>
       <path id="Arial-ItalicMT-32" d="M 375 0 
Q 463 409 617 686 
Q 772 963 1028 1211 
Q 1284 1459 2016 2044 
Q 2459 2397 2622 2566 
Q 2856 2809 2963 3044 
Q 3034 3203 3034 3391 
Q 3034 3706 2811 3926 
Q 2588 4147 2263 4147 
Q 1941 4147 1700 3923 
Q 1459 3700 1356 3206 
L 803 3288 
Q 884 3897 1276 4248 
Q 1669 4600 2253 4600 
Q 2644 4600 2961 4437 
Q 3278 4275 3437 3981 
Q 3597 3688 3597 3375 
Q 3597 2919 3272 2497 
Q 3072 2234 2097 1463 
Q 1678 1131 1473 918 
Q 1269 706 1166 519 
L 3216 519 
L 3106 0 
L 375 0 
z
" transform="scale(0.015625)"/>
      </defs>
      <use xlink:href="#Arial-ItalicMT-53"/>
      <use xlink:href="#Arial-ItalicMT-6c" x="66.699219"/>
      <use xlink:href="#Arial-ItalicMT-63" x="88.916016"/>
      <use xlink:href="#Arial-ItalicMT-31" x="138.916016"/>
      <use xlink:href="#Arial-ItalicMT-36" x="194.53125"/>
      <use xlink:href="#Arial-ItalicMT-61" x="250.146484"/>
      <use xlink:href="#Arial-ItalicMT-32" x="305.761719"/>
     </g>
    </g>
   </g>
   <g id="text_15">
    <g clip-path="url(#p4251190d17)">
     <!-- Slco1c1 -->
     <g transform="translate(218.476688 72.404665) scale(0.12 -0.12)">
      <defs>
       <path id="Arial-ItalicMT-6f" d="M 313 1259 
Q 313 2231 884 2869 
Q 1356 3394 2122 3394 
Q 2722 3394 3089 3019 
Q 3456 2644 3456 2006 
Q 3456 1434 3225 942 
Q 2994 450 2567 187 
Q 2141 -75 1669 -75 
Q 1281 -75 964 90 
Q 647 256 480 559 
Q 313 863 313 1259 
z
M 878 1316 
Q 878 847 1103 605 
Q 1328 363 1675 363 
Q 1856 363 2034 436 
Q 2213 509 2366 659 
Q 2519 809 2626 1001 
Q 2734 1194 2800 1416 
Q 2897 1725 2897 2009 
Q 2897 2459 2670 2707 
Q 2444 2956 2100 2956 
Q 1834 2956 1615 2829 
Q 1397 2703 1220 2459 
Q 1044 2216 961 1892 
Q 878 1569 878 1316 
z
" transform="scale(0.015625)"/>
      </defs>
      <use xlink:href="#Arial-ItalicMT-53"/>
      <use xlink:href="#Arial-ItalicMT-6c" x="66.699219"/>
      <use xlink:href="#Arial-ItalicMT-63" x="88.916016"/>
      <use xlink:href="#Arial-ItalicMT-6f" x="138.916016"/>
      <use xlink:href="#Arial-ItalicMT-31" x="194.53125"/>
      <use xlink:href="#Arial-ItalicMT-63" x="250.146484"/>
      <use xlink:href="#Arial-ItalicMT-31" x="300.146484"/>
     </g>
    </g>
   </g>
   <g id="text_16">
    <g clip-path="url(#p4251190d17)">
     <!-- Dio2 -->
     <g transform="translate(227.282168 12.911) scale(0.12 -0.12)">
      <defs>
       <path id="Arial-ItalicMT-44" d="M 284 0 
L 1241 4581 
L 2622 4581 
Q 3119 4581 3381 4509 
Q 3756 4413 4022 4164 
Q 4288 3916 4422 3544 
Q 4556 3172 4556 2709 
Q 4556 2156 4389 1701 
Q 4222 1247 3951 901 
Q 3681 556 3386 361 
Q 3091 166 2688 72 
Q 2381 0 1934 0 
L 284 0 
z
M 1006 519 
L 1731 519 
Q 2222 519 2603 609 
Q 2841 666 3009 775 
Q 3231 916 3413 1147 
Q 3650 1453 3792 1845 
Q 3934 2238 3934 2738 
Q 3934 3294 3740 3592 
Q 3547 3891 3247 3988 
Q 3025 4059 2556 4059 
L 1747 4059 
L 1006 519 
z
" transform="scale(0.015625)"/>
       <path id="Arial-ItalicMT-69" d="M 1016 3941 
L 1150 4581 
L 1713 4581 
L 1578 3941 
L 1016 3941 
z
M 191 0 
L 884 3319 
L 1450 3319 
L 756 0 
L 191 0 
z
" transform="scale(0.015625)"/>
      </defs>
      <use xlink:href="#Arial-ItalicMT-44"/>
      <use xlink:href="#Arial-ItalicMT-69" x="72.216797"/>
      <use xlink:href="#Arial-ItalicMT-6f" x="94.433594"/>
      <use xlink:href="#Arial-ItalicMT-32" x="150.048828"/>
     </g>
    </g>
   </g>
   <g id="text_17">
    <g clip-path="url(#p4251190d17)">
     <!-- Crym -->
     <g transform="translate(65.371328 254.690375) scale(0.12 -0.12)">
      <defs>
       <path id="Arial-ItalicMT-43" d="M 3859 1613 
L 4466 1528 
Q 4178 734 3628 328 
Q 3078 -78 2394 -78 
Q 1559 -78 1070 431 
Q 581 941 581 1891 
Q 581 3128 1325 3938 
Q 1988 4659 2972 4659 
Q 3700 4659 4151 4268 
Q 4603 3878 4675 3219 
L 4103 3166 
Q 4013 3663 3730 3908 
Q 3447 4153 3000 4153 
Q 2159 4153 1641 3406 
Q 1191 2763 1191 1878 
Q 1191 1172 1537 800 
Q 1884 428 2441 428 
Q 2916 428 3300 737 
Q 3684 1047 3859 1613 
z
" transform="scale(0.015625)"/>
       <path id="Arial-ItalicMT-79" d="M 0 -1281 
L 34 -750 
Q 209 -800 375 -800 
Q 547 -800 653 -722 
Q 791 -619 953 -334 
L 1134 -9 
L 581 3319 
L 1138 3319 
L 1388 1641 
Q 1463 1144 1516 647 
L 3000 3319 
L 3591 3319 
L 1475 -441 
Q 1169 -991 931 -1169 
Q 694 -1347 384 -1347 
Q 188 -1347 0 -1281 
z
" transform="scale(0.015625)"/>
       <path id="Arial-ItalicMT-6d" d="M 209 0 
L 903 3319 
L 1469 3319 
L 1353 2772 
Q 1669 3125 1917 3259 
Q 2166 3394 2456 3394 
Q 2766 3394 2973 3230 
Q 3181 3066 3247 2772 
Q 3500 3084 3779 3239 
Q 4059 3394 4369 3394 
Q 4784 3394 4992 3197 
Q 5200 3000 5200 2644 
Q 5200 2491 5128 2138 
L 4681 0 
L 4116 0 
L 4572 2194 
Q 4631 2463 4631 2578 
Q 4631 2741 4528 2834 
Q 4425 2928 4238 2928 
Q 3984 2928 3721 2775 
Q 3459 2622 3314 2373 
Q 3169 2125 3059 1609 
L 2722 0 
L 2156 0 
L 2625 2241 
Q 2675 2469 2675 2566 
Q 2675 2728 2573 2828 
Q 2472 2928 2309 2928 
Q 2069 2928 1805 2775 
Q 1541 2622 1375 2348 
Q 1209 2075 1103 1569 
L 775 0 
L 209 0 
z
" transform="scale(0.015625)"/>
      </defs>
      <use xlink:href="#Arial-ItalicMT-43"/>
      <use xlink:href="#Arial-ItalicMT-72" x="72.216797"/>
      <use xlink:href="#Arial-ItalicMT-79" x="105.517578"/>
      <use xlink:href="#Arial-ItalicMT-6d" x="155.517578"/>
     </g>
    </g>
   </g>
   <g id="text_18">
    <g clip-path="url(#p4251190d17)">
     <!-- Hr -->
     <g transform="translate(110.96674 37.345264) scale(0.12 -0.12)">
      <defs>
       <path id="Arial-ItalicMT-48" d="M 269 0 
L 1228 4581 
L 1838 4581 
L 1441 2678 
L 3816 2678 
L 4213 4581 
L 4825 4581 
L 3869 0 
L 3256 0 
L 3706 2159 
L 1334 2159 
L 881 0 
L 269 0 
z
" transform="scale(0.015625)"/>
      </defs>
      <use xlink:href="#Arial-ItalicMT-48"/>
      <use xlink:href="#Arial-ItalicMT-72" x="72.216797"/>
     </g>
    </g>
   </g>
   <g id="text_19">
    <g clip-path="url(#p4251190d17)">
     <!-- Klf9 -->
     <g transform="translate(95.827764 94.299895) scale(0.12 -0.12)">
      <defs>
       <path id="Arial-ItalicMT-4b" d="M 284 0 
L 1241 4581 
L 1853 4581 
L 1394 2375 
L 3881 4581 
L 4744 4581 
L 2616 2716 
L 4175 0 
L 3491 0 
L 2169 2322 
L 1209 1488 
L 897 0 
L 284 0 
z
" transform="scale(0.015625)"/>
       <path id="Arial-ItalicMT-39" d="M 431 1050 
L 963 1103 
Q 1016 719 1181 556 
Q 1347 394 1575 394 
Q 1900 394 2178 675 
Q 2588 1088 2781 1859 
Q 2497 1647 2276 1556 
Q 2056 1466 1825 1466 
Q 1406 1466 1075 1747 
Q 638 2113 638 2797 
Q 638 3572 1144 4125 
Q 1578 4600 2209 4600 
Q 2778 4600 3153 4179 
Q 3528 3759 3528 2991 
Q 3528 2244 3278 1516 
Q 2981 659 2475 253 
Q 2063 -78 1547 -78 
Q 1072 -78 770 217 
Q 469 513 431 1050 
z
M 1184 2863 
Q 1184 2431 1414 2175 
Q 1644 1919 1959 1919 
Q 2194 1919 2425 2078 
Q 2656 2238 2822 2555 
Q 2988 2872 2988 3206 
Q 2988 3469 2878 3694 
Q 2769 3919 2580 4033 
Q 2391 4147 2197 4147 
Q 2009 4147 1828 4047 
Q 1647 3947 1492 3753 
Q 1338 3559 1261 3307 
Q 1184 3056 1184 2863 
z
" transform="scale(0.015625)"/>
      </defs>
      <use xlink:href="#Arial-ItalicMT-4b"/>
      <use xlink:href="#Arial-ItalicMT-6c" x="66.699219"/>
      <use xlink:href="#Arial-ItalicMT-66" x="88.916016"/>
      <use xlink:href="#Arial-ItalicMT-39" x="116.699219"/>
     </g>
    </g>
   </g>
   <g id="text_20">
    <g clip-path="url(#p4251190d17)">
     <!-- Nrgn -->
     <g transform="translate(56.617727 120.178061) scale(0.12 -0.12)">
      <defs>
       <path id="Arial-ItalicMT-4e" d="M 313 0 
L 1272 4581 
L 1866 4581 
L 2638 2863 
Q 2991 2075 3197 1538 
Q 3316 1225 3472 694 
Q 3556 1272 3684 1888 
L 4247 4581 
L 4844 4581 
L 3888 0 
L 3281 0 
L 2144 2647 
Q 1841 3347 1672 3881 
Q 1625 3434 1491 2784 
L 909 0 
L 313 0 
z
" transform="scale(0.015625)"/>
       <path id="Arial-ItalicMT-67" d="M 181 -300 
L 753 -353 
Q 747 -547 800 -644 
Q 853 -741 969 -794 
Q 1122 -863 1366 -863 
Q 1878 -863 2103 -597 
Q 2250 -419 2375 178 
L 2431 447 
Q 1991 0 1494 0 
Q 991 0 652 370 
Q 313 741 313 1419 
Q 313 1978 580 2447 
Q 847 2916 1215 3155 
Q 1584 3394 1975 3394 
Q 2628 3394 2981 2775 
L 3094 3319 
L 3613 3319 
L 2944 116 
Q 2834 -413 2656 -708 
Q 2478 -1003 2161 -1165 
Q 1844 -1328 1428 -1328 
Q 1028 -1328 739 -1225 
Q 450 -1122 308 -923 
Q 166 -725 166 -469 
Q 166 -391 181 -300 
z
M 888 1469 
Q 888 1128 953 956 
Q 1047 716 1220 589 
Q 1394 463 1606 463 
Q 1884 463 2159 658 
Q 2434 853 2604 1262 
Q 2775 1672 2775 2044 
Q 2775 2453 2548 2695 
Q 2322 2938 1988 2938 
Q 1781 2938 1587 2827 
Q 1394 2716 1226 2489 
Q 1059 2263 973 1947 
Q 888 1631 888 1469 
z
" transform="scale(0.015625)"/>
       <path id="Arial-ItalicMT-6e" d="M 213 0 
L 906 3319 
L 1419 3319 
L 1297 2741 
Q 1631 3081 1922 3237 
Q 2213 3394 2516 3394 
Q 2919 3394 3148 3175 
Q 3378 2956 3378 2591 
Q 3378 2406 3297 2009 
L 2875 0 
L 2309 0 
L 2750 2103 
Q 2816 2409 2816 2556 
Q 2816 2722 2702 2825 
Q 2588 2928 2372 2928 
Q 1938 2928 1598 2615 
Q 1259 2303 1100 1544 
L 778 0 
L 213 0 
z
" transform="scale(0.015625)"/>
      </defs>
      <use xlink:href="#Arial-ItalicMT-4e"/>
      <use xlink:href="#Arial-ItalicMT-72" x="72.216797"/>
      <use xlink:href="#Arial-ItalicMT-67" x="105.517578"/>
      <use xlink:href="#Arial-ItalicMT-6e" x="161.132812"/>
     </g>
    </g>
   </g>
   <g id="text_21">
    <g clip-path="url(#p4251190d17)">
     <!-- Pvalb -->
     <g transform="translate(119.439267 169.655602) scale(0.12 -0.12)">
      <defs>
       <path id="Arial-ItalicMT-50" d="M 275 0 
L 1234 4581 
L 3147 4581 
Q 3644 4581 3892 4467 
Q 4141 4353 4303 4076 
Q 4466 3800 4466 3456 
Q 4466 3172 4350 2878 
Q 4234 2584 4057 2393 
Q 3881 2203 3700 2106 
Q 3519 2009 3313 1963 
Q 2872 1859 2422 1859 
L 1275 1859 
L 888 0 
L 275 0 
z
M 1384 2378 
L 2394 2378 
Q 2981 2378 3256 2504 
Q 3531 2631 3697 2890 
Q 3863 3150 3863 3441 
Q 3863 3666 3775 3808 
Q 3688 3950 3528 4017 
Q 3369 4084 2916 4084 
L 1741 4084 
L 1384 2378 
z
" transform="scale(0.015625)"/>
       <path id="Arial-ItalicMT-76" d="M 1050 0 
L 506 3319 
L 1056 3319 
L 1341 1491 
Q 1388 1191 1456 513 
Q 1619 866 1872 1322 
L 2981 3319 
L 3578 3319 
L 1678 0 
L 1050 0 
z
" transform="scale(0.015625)"/>
       <path id="Arial-ItalicMT-62" d="M 213 0 
L 1169 4581 
L 1734 4581 
L 1394 2944 
Q 1663 3191 1881 3292 
Q 2100 3394 2338 3394 
Q 2803 3394 3114 3047 
Q 3425 2700 3425 2038 
Q 3425 1597 3300 1231 
Q 3175 866 2990 617 
Q 2806 369 2609 220 
Q 2413 72 2206 -1 
Q 2000 -75 1809 -75 
Q 1481 -75 1231 98 
Q 981 272 841 628 
L 709 0 
L 213 0 
z
M 1050 1363 
L 1047 1256 
Q 1047 831 1250 609 
Q 1453 388 1756 388 
Q 2053 388 2301 595 
Q 2550 803 2709 1243 
Q 2869 1684 2869 2056 
Q 2869 2475 2667 2706 
Q 2466 2938 2169 2938 
Q 1863 2938 1606 2702 
Q 1350 2466 1178 1975 
Q 1050 1609 1050 1363 
z
" transform="scale(0.015625)"/>
      </defs>
      <use xlink:href="#Arial-ItalicMT-50"/>
      <use xlink:href="#Arial-ItalicMT-76" x="66.699219"/>
      <use xlink:href="#Arial-ItalicMT-61" x="116.699219"/>
      <use xlink:href="#Arial-ItalicMT-6c" x="172.314453"/>
      <use xlink:href="#Arial-ItalicMT-62" x="194.53125"/>
     </g>
    </g>
   </g>
  </g>
  <g id="legend_1">
   <g id="patch_7">
    <path d="M 459.284 150.41325 
L 515.263687 150.41325 
Q 517.463687 150.41325 517.463687 148.21325 
L 517.463687 101.719187 
Q 517.463687 99.519187 515.263687 99.519187 
L 459.284 99.519187 
Q 457.084 99.519187 457.084 101.719187 
L 457.084 148.21325 
Q 457.084 150.41325 459.284 150.41325 
z
" style="fill: #eaeaf2; opacity: 0.8; stroke: #cccccc; stroke-linejoin: miter"/>
   </g>
   <g id="text_22">
    <!-- tx -->
    <g style="fill: #262626" transform="translate(482.606969 112.508563) scale(0.12 -0.12)">
     <defs>
      <path id="ArialMT-74" d="M 1650 503 
L 1731 6 
Q 1494 -44 1306 -44 
Q 1000 -44 831 53 
Q 663 150 594 308 
Q 525 466 525 972 
L 525 2881 
L 113 2881 
L 113 3319 
L 525 3319 
L 525 4141 
L 1084 4478 
L 1084 3319 
L 1650 3319 
L 1650 2881 
L 1084 2881 
L 1084 941 
Q 1084 700 1114 631 
Q 1144 563 1211 522 
Q 1278 481 1403 481 
Q 1497 481 1650 503 
z
" transform="scale(0.015625)"/>
      <path id="ArialMT-78" d="M 47 0 
L 1259 1725 
L 138 3319 
L 841 3319 
L 1350 2541 
Q 1494 2319 1581 2169 
Q 1719 2375 1834 2534 
L 2394 3319 
L 3066 3319 
L 1919 1756 
L 3153 0 
L 2463 0 
L 1781 1031 
L 1600 1309 
L 728 0 
L 47 0 
z
" transform="scale(0.015625)"/>
     </defs>
     <use xlink:href="#ArialMT-74"/>
     <use xlink:href="#ArialMT-78" x="27.783203"/>
    </g>
   </g>
   <g id="PathCollection_2">
    <defs>
     <path id="m5b071aadcf" d="M 0 5 
C 1.326016 5 2.597899 4.473168 3.535534 3.535534 
C 4.473168 2.597899 5 1.326016 5 0 
C 5 -1.326016 4.473168 -2.597899 3.535534 -3.535534 
C 2.597899 -4.473168 1.326016 -5 0 -5 
C -1.326016 -5 -2.597899 -4.473168 -3.535534 -3.535534 
C -4.473168 -2.597899 -5 -1.326016 -5 0 
C -5 1.326016 -4.473168 2.597899 -3.535534 3.535534 
C -2.597899 4.473168 -1.326016 5 0 5 
z
" style="stroke: #0173b2; stroke-width: 0.75"/>
    </defs>
    <g>
     <use xlink:href="#m5b071aadcf" x="472.484" y="125.379656" style="fill: #0173b2; fill-opacity: 0.2; stroke: #0173b2; stroke-width: 0.75"/>
    </g>
   </g>
   <g id="text_23">
    <!-- FeS -->
    <g style="fill: #262626" transform="translate(492.284 128.267156) scale(0.11 -0.11)">
     <defs>
      <path id="ArialMT-46" d="M 525 0 
L 525 4581 
L 3616 4581 
L 3616 4041 
L 1131 4041 
L 1131 2622 
L 3281 2622 
L 3281 2081 
L 1131 2081 
L 1131 0 
L 525 0 
z
" transform="scale(0.015625)"/>
      <path id="ArialMT-65" d="M 2694 1069 
L 3275 997 
Q 3138 488 2766 206 
Q 2394 -75 1816 -75 
Q 1088 -75 661 373 
Q 234 822 234 1631 
Q 234 2469 665 2931 
Q 1097 3394 1784 3394 
Q 2450 3394 2872 2941 
Q 3294 2488 3294 1666 
Q 3294 1616 3291 1516 
L 816 1516 
Q 847 969 1125 678 
Q 1403 388 1819 388 
Q 2128 388 2347 550 
Q 2566 713 2694 1069 
z
M 847 1978 
L 2700 1978 
Q 2663 2397 2488 2606 
Q 2219 2931 1791 2931 
Q 1403 2931 1139 2672 
Q 875 2413 847 1978 
z
" transform="scale(0.015625)"/>
      <path id="ArialMT-53" d="M 288 1472 
L 859 1522 
Q 900 1178 1048 958 
Q 1197 738 1509 602 
Q 1822 466 2213 466 
Q 2559 466 2825 569 
Q 3091 672 3220 851 
Q 3350 1031 3350 1244 
Q 3350 1459 3225 1620 
Q 3100 1781 2813 1891 
Q 2628 1963 1997 2114 
Q 1366 2266 1113 2400 
Q 784 2572 623 2826 
Q 463 3081 463 3397 
Q 463 3744 659 4045 
Q 856 4347 1234 4503 
Q 1613 4659 2075 4659 
Q 2584 4659 2973 4495 
Q 3363 4331 3572 4012 
Q 3781 3694 3797 3291 
L 3216 3247 
Q 3169 3681 2898 3903 
Q 2628 4125 2100 4125 
Q 1550 4125 1298 3923 
Q 1047 3722 1047 3438 
Q 1047 3191 1225 3031 
Q 1400 2872 2139 2705 
Q 2878 2538 3153 2413 
Q 3553 2228 3743 1945 
Q 3934 1663 3934 1294 
Q 3934 928 3725 604 
Q 3516 281 3123 101 
Q 2731 -78 2241 -78 
Q 1619 -78 1198 103 
Q 778 284 539 648 
Q 300 1013 288 1472 
z
" transform="scale(0.015625)"/>
     </defs>
     <use xlink:href="#ArialMT-46"/>
     <use xlink:href="#ArialMT-65" x="61.083984"/>
     <use xlink:href="#ArialMT-53" x="116.699219"/>
    </g>
   </g>
   <g id="PathCollection_3">
    <defs>
     <path id="m0bc25d5962" d="M -2.5 5 
L 0 2.5 
L 2.5 5 
L 5 2.5 
L 2.5 0 
L 5 -2.5 
L 2.5 -5 
L 0 -2.5 
L -2.5 -5 
L -5 -2.5 
L -2.5 0 
L -5 2.5 
z
" style="stroke: #de8f05; stroke-width: 0.75"/>
    </defs>
    <g>
     <use xlink:href="#m0bc25d5962" x="472.484" y="140.9395" style="fill: #de8f05; fill-opacity: 0.2; stroke: #de8f05; stroke-width: 0.75"/>
    </g>
   </g>
   <g id="text_24">
    <!-- FeD -->
    <g style="fill: #262626" transform="translate(492.284 143.827) scale(0.11 -0.11)">
     <defs>
      <path id="ArialMT-44" d="M 494 0 
L 494 4581 
L 2072 4581 
Q 2606 4581 2888 4516 
Q 3281 4425 3559 4188 
Q 3922 3881 4101 3404 
Q 4281 2928 4281 2316 
Q 4281 1794 4159 1391 
Q 4038 988 3847 723 
Q 3656 459 3429 307 
Q 3203 156 2883 78 
Q 2563 0 2147 0 
L 494 0 
z
M 1100 541 
L 2078 541 
Q 2531 541 2789 625 
Q 3047 709 3200 863 
Q 3416 1078 3536 1442 
Q 3656 1806 3656 2325 
Q 3656 3044 3420 3430 
Q 3184 3816 2847 3947 
Q 2603 4041 2063 4041 
L 1100 4041 
L 1100 541 
z
" transform="scale(0.015625)"/>
     </defs>
     <use xlink:href="#ArialMT-46"/>
     <use xlink:href="#ArialMT-65" x="61.083984"/>
     <use xlink:href="#ArialMT-44" x="116.699219"/>
    </g>
   </g>
  </g>
  <g id="legend_2">
   <g id="patch_8">
    <path d="M 459.284 205.068641 
L 534.233531 205.068641 
Q 536.433531 205.068641 536.433531 202.868641 
L 536.433531 47.063797 
Q 536.433531 44.863797 534.233531 44.863797 
L 459.284 44.863797 
Q 457.084 44.863797 457.084 47.063797 
L 457.084 202.868641 
Q 457.084 205.068641 459.284 205.068641 
z
" style="fill: #eaeaf2; opacity: 0.8; stroke: #cccccc; stroke-linejoin: miter"/>
   </g>
   <g id="text_25">
    <!-- variable -->
    <g style="fill: #262626" transform="translate(475.748453 57.853172) scale(0.12 -0.12)">
     <defs>
      <path id="ArialMT-76" d="M 1344 0 
L 81 3319 
L 675 3319 
L 1388 1331 
Q 1503 1009 1600 663 
Q 1675 925 1809 1294 
L 2547 3319 
L 3125 3319 
L 1869 0 
L 1344 0 
z
" transform="scale(0.015625)"/>
      <path id="ArialMT-61" d="M 2588 409 
Q 2275 144 1986 34 
Q 1697 -75 1366 -75 
Q 819 -75 525 192 
Q 231 459 231 875 
Q 231 1119 342 1320 
Q 453 1522 633 1644 
Q 813 1766 1038 1828 
Q 1203 1872 1538 1913 
Q 2219 1994 2541 2106 
Q 2544 2222 2544 2253 
Q 2544 2597 2384 2738 
Q 2169 2928 1744 2928 
Q 1347 2928 1158 2789 
Q 969 2650 878 2297 
L 328 2372 
Q 403 2725 575 2942 
Q 747 3159 1072 3276 
Q 1397 3394 1825 3394 
Q 2250 3394 2515 3294 
Q 2781 3194 2906 3042 
Q 3031 2891 3081 2659 
Q 3109 2516 3109 2141 
L 3109 1391 
Q 3109 606 3145 398 
Q 3181 191 3288 0 
L 2700 0 
Q 2613 175 2588 409 
z
M 2541 1666 
Q 2234 1541 1622 1453 
Q 1275 1403 1131 1340 
Q 988 1278 909 1158 
Q 831 1038 831 891 
Q 831 666 1001 516 
Q 1172 366 1500 366 
Q 1825 366 2078 508 
Q 2331 650 2450 897 
Q 2541 1088 2541 1459 
L 2541 1666 
z
" transform="scale(0.015625)"/>
      <path id="ArialMT-72" d="M 416 0 
L 416 3319 
L 922 3319 
L 922 2816 
Q 1116 3169 1280 3281 
Q 1444 3394 1641 3394 
Q 1925 3394 2219 3213 
L 2025 2691 
Q 1819 2813 1613 2813 
Q 1428 2813 1281 2702 
Q 1134 2591 1072 2394 
Q 978 2094 978 1738 
L 978 0 
L 416 0 
z
" transform="scale(0.015625)"/>
      <path id="ArialMT-69" d="M 425 3934 
L 425 4581 
L 988 4581 
L 988 3934 
L 425 3934 
z
M 425 0 
L 425 3319 
L 988 3319 
L 988 0 
L 425 0 
z
" transform="scale(0.015625)"/>
      <path id="ArialMT-62" d="M 941 0 
L 419 0 
L 419 4581 
L 981 4581 
L 981 2947 
Q 1338 3394 1891 3394 
Q 2197 3394 2470 3270 
Q 2744 3147 2920 2923 
Q 3097 2700 3197 2384 
Q 3297 2069 3297 1709 
Q 3297 856 2875 390 
Q 2453 -75 1863 -75 
Q 1275 -75 941 416 
L 941 0 
z
M 934 1684 
Q 934 1088 1097 822 
Q 1363 388 1816 388 
Q 2184 388 2453 708 
Q 2722 1028 2722 1663 
Q 2722 2313 2464 2622 
Q 2206 2931 1841 2931 
Q 1472 2931 1203 2611 
Q 934 2291 934 1684 
z
" transform="scale(0.015625)"/>
      <path id="ArialMT-6c" d="M 409 0 
L 409 4581 
L 972 4581 
L 972 0 
L 409 0 
z
" transform="scale(0.015625)"/>
     </defs>
     <use xlink:href="#ArialMT-76"/>
     <use xlink:href="#ArialMT-61" x="50"/>
     <use xlink:href="#ArialMT-72" x="105.615234"/>
     <use xlink:href="#ArialMT-69" x="138.916016"/>
     <use xlink:href="#ArialMT-61" x="161.132812"/>
     <use xlink:href="#ArialMT-62" x="216.748047"/>
     <use xlink:href="#ArialMT-6c" x="272.363281"/>
     <use xlink:href="#ArialMT-65" x="294.580078"/>
    </g>
   </g>
   <g id="line2d_20">
    <path d="M 461.484 69.761766 
L 472.484 69.761766 
L 483.484 69.761766 
" style="fill: none; stroke: #9589a6; stroke-width: 1.5; stroke-linecap: round"/>
   </g>
   <g id="text_26">
    <!-- Tfr1 -->
    <g style="fill: #262626" transform="translate(492.284 73.611766) scale(0.11 -0.11)">
     <defs>
      <path id="ArialMT-54" d="M 1659 0 
L 1659 4041 
L 150 4041 
L 150 4581 
L 3781 4581 
L 3781 4041 
L 2266 4041 
L 2266 0 
L 1659 0 
z
" transform="scale(0.015625)"/>
      <path id="ArialMT-66" d="M 556 0 
L 556 2881 
L 59 2881 
L 59 3319 
L 556 3319 
L 556 3672 
Q 556 4006 616 4169 
Q 697 4388 901 4523 
Q 1106 4659 1475 4659 
Q 1713 4659 2000 4603 
L 1916 4113 
Q 1741 4144 1584 4144 
Q 1328 4144 1222 4034 
Q 1116 3925 1116 3625 
L 1116 3319 
L 1763 3319 
L 1763 2881 
L 1116 2881 
L 1116 0 
L 556 0 
z
" transform="scale(0.015625)"/>
     </defs>
     <use xlink:href="#ArialMT-54"/>
     <use xlink:href="#ArialMT-66" x="61.083984"/>
     <use xlink:href="#ArialMT-72" x="88.867188"/>
     <use xlink:href="#ArialMT-31" x="122.167969"/>
    </g>
   </g>
   <g id="line2d_21">
    <path d="M 461.484 85.321609 
L 472.484 85.321609 
L 483.484 85.321609 
" style="fill: none; stroke: #9589a6; stroke-width: 1.5; stroke-linecap: round"/>
   </g>
   <g id="text_27">
    <!-- Slc16a2 -->
    <g style="fill: #262626" transform="translate(492.284 89.171609) scale(0.11 -0.11)">
     <defs>
      <path id="ArialMT-63" d="M 2588 1216 
L 3141 1144 
Q 3050 572 2676 248 
Q 2303 -75 1759 -75 
Q 1078 -75 664 370 
Q 250 816 250 1647 
Q 250 2184 428 2587 
Q 606 2991 970 3192 
Q 1334 3394 1763 3394 
Q 2303 3394 2647 3120 
Q 2991 2847 3088 2344 
L 2541 2259 
Q 2463 2594 2264 2762 
Q 2066 2931 1784 2931 
Q 1359 2931 1093 2626 
Q 828 2322 828 1663 
Q 828 994 1084 691 
Q 1341 388 1753 388 
Q 2084 388 2306 591 
Q 2528 794 2588 1216 
z
" transform="scale(0.015625)"/>
      <path id="ArialMT-36" d="M 3184 3459 
L 2625 3416 
Q 2550 3747 2413 3897 
Q 2184 4138 1850 4138 
Q 1581 4138 1378 3988 
Q 1113 3794 959 3422 
Q 806 3050 800 2363 
Q 1003 2672 1297 2822 
Q 1591 2972 1913 2972 
Q 2475 2972 2870 2558 
Q 3266 2144 3266 1488 
Q 3266 1056 3080 686 
Q 2894 316 2569 119 
Q 2244 -78 1831 -78 
Q 1128 -78 684 439 
Q 241 956 241 2144 
Q 241 3472 731 4075 
Q 1159 4600 1884 4600 
Q 2425 4600 2770 4297 
Q 3116 3994 3184 3459 
z
M 888 1484 
Q 888 1194 1011 928 
Q 1134 663 1356 523 
Q 1578 384 1822 384 
Q 2178 384 2434 671 
Q 2691 959 2691 1453 
Q 2691 1928 2437 2201 
Q 2184 2475 1800 2475 
Q 1419 2475 1153 2201 
Q 888 1928 888 1484 
z
" transform="scale(0.015625)"/>
     </defs>
     <use xlink:href="#ArialMT-53"/>
     <use xlink:href="#ArialMT-6c" x="66.699219"/>
     <use xlink:href="#ArialMT-63" x="88.916016"/>
     <use xlink:href="#ArialMT-31" x="138.916016"/>
     <use xlink:href="#ArialMT-36" x="194.53125"/>
     <use xlink:href="#ArialMT-61" x="250.146484"/>
     <use xlink:href="#ArialMT-32" x="305.761719"/>
    </g>
   </g>
   <g id="line2d_22">
    <path d="M 461.484 100.881453 
L 472.484 100.881453 
L 483.484 100.881453 
" style="fill: none; stroke: #9589a6; stroke-width: 1.5; stroke-linecap: round"/>
   </g>
   <g id="text_28">
    <!-- Slco1c1 -->
    <g style="fill: #262626" transform="translate(492.284 104.731453) scale(0.11 -0.11)">
     <defs>
      <path id="ArialMT-6f" d="M 213 1659 
Q 213 2581 725 3025 
Q 1153 3394 1769 3394 
Q 2453 3394 2887 2945 
Q 3322 2497 3322 1706 
Q 3322 1066 3130 698 
Q 2938 331 2570 128 
Q 2203 -75 1769 -75 
Q 1072 -75 642 372 
Q 213 819 213 1659 
z
M 791 1659 
Q 791 1022 1069 705 
Q 1347 388 1769 388 
Q 2188 388 2466 706 
Q 2744 1025 2744 1678 
Q 2744 2294 2464 2611 
Q 2184 2928 1769 2928 
Q 1347 2928 1069 2612 
Q 791 2297 791 1659 
z
" transform="scale(0.015625)"/>
     </defs>
     <use xlink:href="#ArialMT-53"/>
     <use xlink:href="#ArialMT-6c" x="66.699219"/>
     <use xlink:href="#ArialMT-63" x="88.916016"/>
     <use xlink:href="#ArialMT-6f" x="138.916016"/>
     <use xlink:href="#ArialMT-31" x="194.53125"/>
     <use xlink:href="#ArialMT-63" x="250.146484"/>
     <use xlink:href="#ArialMT-31" x="300.146484"/>
    </g>
   </g>
   <g id="line2d_23">
    <path d="M 461.484 116.441297 
L 472.484 116.441297 
L 483.484 116.441297 
" style="fill: none; stroke: #9589a6; stroke-width: 1.5; stroke-linecap: round"/>
   </g>
   <g id="text_29">
    <!-- Dio2 -->
    <g style="fill: #262626" transform="translate(492.284 120.291297) scale(0.11 -0.11)">
     <use xlink:href="#ArialMT-44"/>
     <use xlink:href="#ArialMT-69" x="72.216797"/>
     <use xlink:href="#ArialMT-6f" x="94.433594"/>
     <use xlink:href="#ArialMT-32" x="150.048828"/>
    </g>
   </g>
   <g id="line2d_24">
    <path d="M 461.484 132.135203 
L 472.484 132.135203 
L 483.484 132.135203 
" style="fill: none; stroke: #9589a6; stroke-width: 1.5; stroke-linecap: round"/>
   </g>
   <g id="text_30">
    <!-- Crym -->
    <g style="fill: #262626" transform="translate(492.284 135.985203) scale(0.11 -0.11)">
     <defs>
      <path id="ArialMT-79" d="M 397 -1278 
L 334 -750 
Q 519 -800 656 -800 
Q 844 -800 956 -737 
Q 1069 -675 1141 -563 
Q 1194 -478 1313 -144 
Q 1328 -97 1363 -6 
L 103 3319 
L 709 3319 
L 1400 1397 
Q 1534 1031 1641 628 
Q 1738 1016 1872 1384 
L 2581 3319 
L 3144 3319 
L 1881 -56 
Q 1678 -603 1566 -809 
Q 1416 -1088 1222 -1217 
Q 1028 -1347 759 -1347 
Q 597 -1347 397 -1278 
z
" transform="scale(0.015625)"/>
      <path id="ArialMT-6d" d="M 422 0 
L 422 3319 
L 925 3319 
L 925 2853 
Q 1081 3097 1340 3245 
Q 1600 3394 1931 3394 
Q 2300 3394 2536 3241 
Q 2772 3088 2869 2813 
Q 3263 3394 3894 3394 
Q 4388 3394 4653 3120 
Q 4919 2847 4919 2278 
L 4919 0 
L 4359 0 
L 4359 2091 
Q 4359 2428 4304 2576 
Q 4250 2725 4106 2815 
Q 3963 2906 3769 2906 
Q 3419 2906 3187 2673 
Q 2956 2441 2956 1928 
L 2956 0 
L 2394 0 
L 2394 2156 
Q 2394 2531 2256 2718 
Q 2119 2906 1806 2906 
Q 1569 2906 1367 2781 
Q 1166 2656 1075 2415 
Q 984 2175 984 1722 
L 984 0 
L 422 0 
z
" transform="scale(0.015625)"/>
     </defs>
     <use xlink:href="#ArialMT-43"/>
     <use xlink:href="#ArialMT-72" x="72.216797"/>
     <use xlink:href="#ArialMT-79" x="105.517578"/>
     <use xlink:href="#ArialMT-6d" x="155.517578"/>
    </g>
   </g>
   <g id="line2d_25">
    <path d="M 461.484 147.823953 
L 472.484 147.823953 
L 483.484 147.823953 
" style="fill: none; stroke: #9589a6; stroke-width: 1.5; stroke-linecap: round"/>
   </g>
   <g id="text_31">
    <!-- Hr -->
    <g style="fill: #262626" transform="translate(492.284 151.673953) scale(0.11 -0.11)">
     <defs>
      <path id="ArialMT-48" d="M 513 0 
L 513 4581 
L 1119 4581 
L 1119 2700 
L 3500 2700 
L 3500 4581 
L 4106 4581 
L 4106 0 
L 3500 0 
L 3500 2159 
L 1119 2159 
L 1119 0 
L 513 0 
z
" transform="scale(0.015625)"/>
     </defs>
     <use xlink:href="#ArialMT-48"/>
     <use xlink:href="#ArialMT-72" x="72.216797"/>
    </g>
   </g>
   <g id="line2d_26">
    <path d="M 461.484 163.383797 
L 472.484 163.383797 
L 483.484 163.383797 
" style="fill: none; stroke: #9589a6; stroke-width: 1.5; stroke-linecap: round"/>
   </g>
   <g id="text_32">
    <!-- Klf9 -->
    <g style="fill: #262626" transform="translate(492.284 167.233797) scale(0.11 -0.11)">
     <defs>
      <path id="ArialMT-4b" d="M 469 0 
L 469 4581 
L 1075 4581 
L 1075 2309 
L 3350 4581 
L 4172 4581 
L 2250 2725 
L 4256 0 
L 3456 0 
L 1825 2319 
L 1075 1588 
L 1075 0 
L 469 0 
z
" transform="scale(0.015625)"/>
      <path id="ArialMT-39" d="M 350 1059 
L 891 1109 
Q 959 728 1153 556 
Q 1347 384 1650 384 
Q 1909 384 2104 503 
Q 2300 622 2425 820 
Q 2550 1019 2634 1356 
Q 2719 1694 2719 2044 
Q 2719 2081 2716 2156 
Q 2547 1888 2255 1720 
Q 1963 1553 1622 1553 
Q 1053 1553 659 1965 
Q 266 2378 266 3053 
Q 266 3750 677 4175 
Q 1088 4600 1706 4600 
Q 2153 4600 2523 4359 
Q 2894 4119 3086 3673 
Q 3278 3228 3278 2384 
Q 3278 1506 3087 986 
Q 2897 466 2520 194 
Q 2144 -78 1638 -78 
Q 1100 -78 759 220 
Q 419 519 350 1059 
z
M 2653 3081 
Q 2653 3566 2395 3850 
Q 2138 4134 1775 4134 
Q 1400 4134 1122 3828 
Q 844 3522 844 3034 
Q 844 2597 1108 2323 
Q 1372 2050 1759 2050 
Q 2150 2050 2401 2323 
Q 2653 2597 2653 3081 
z
" transform="scale(0.015625)"/>
     </defs>
     <use xlink:href="#ArialMT-4b"/>
     <use xlink:href="#ArialMT-6c" x="66.699219"/>
     <use xlink:href="#ArialMT-66" x="88.916016"/>
     <use xlink:href="#ArialMT-39" x="116.699219"/>
    </g>
   </g>
   <g id="line2d_27">
    <path d="M 461.484 178.943641 
L 472.484 178.943641 
L 483.484 178.943641 
" style="fill: none; stroke: #9589a6; stroke-width: 1.5; stroke-linecap: round"/>
   </g>
   <g id="text_33">
    <!-- Nrgn -->
    <g style="fill: #262626" transform="translate(492.284 182.793641) scale(0.11 -0.11)">
     <defs>
      <path id="ArialMT-4e" d="M 488 0 
L 488 4581 
L 1109 4581 
L 3516 984 
L 3516 4581 
L 4097 4581 
L 4097 0 
L 3475 0 
L 1069 3600 
L 1069 0 
L 488 0 
z
" transform="scale(0.015625)"/>
      <path id="ArialMT-67" d="M 319 -275 
L 866 -356 
Q 900 -609 1056 -725 
Q 1266 -881 1628 -881 
Q 2019 -881 2231 -725 
Q 2444 -569 2519 -288 
Q 2563 -116 2559 434 
Q 2191 0 1641 0 
Q 956 0 581 494 
Q 206 988 206 1678 
Q 206 2153 378 2554 
Q 550 2956 876 3175 
Q 1203 3394 1644 3394 
Q 2231 3394 2613 2919 
L 2613 3319 
L 3131 3319 
L 3131 450 
Q 3131 -325 2973 -648 
Q 2816 -972 2473 -1159 
Q 2131 -1347 1631 -1347 
Q 1038 -1347 672 -1080 
Q 306 -813 319 -275 
z
M 784 1719 
Q 784 1066 1043 766 
Q 1303 466 1694 466 
Q 2081 466 2343 764 
Q 2606 1063 2606 1700 
Q 2606 2309 2336 2618 
Q 2066 2928 1684 2928 
Q 1309 2928 1046 2623 
Q 784 2319 784 1719 
z
" transform="scale(0.015625)"/>
      <path id="ArialMT-6e" d="M 422 0 
L 422 3319 
L 928 3319 
L 928 2847 
Q 1294 3394 1984 3394 
Q 2284 3394 2536 3286 
Q 2788 3178 2913 3003 
Q 3038 2828 3088 2588 
Q 3119 2431 3119 2041 
L 3119 0 
L 2556 0 
L 2556 2019 
Q 2556 2363 2490 2533 
Q 2425 2703 2258 2804 
Q 2091 2906 1866 2906 
Q 1506 2906 1245 2678 
Q 984 2450 984 1813 
L 984 0 
L 422 0 
z
" transform="scale(0.015625)"/>
     </defs>
     <use xlink:href="#ArialMT-4e"/>
     <use xlink:href="#ArialMT-72" x="72.216797"/>
     <use xlink:href="#ArialMT-67" x="105.517578"/>
     <use xlink:href="#ArialMT-6e" x="161.132812"/>
    </g>
   </g>
   <g id="line2d_28">
    <path d="M 461.484 194.632391 
L 472.484 194.632391 
L 483.484 194.632391 
" style="fill: none; stroke: #9589a6; stroke-width: 1.5; stroke-linecap: round"/>
   </g>
   <g id="text_34">
    <!-- Pvalb -->
    <g style="fill: #262626" transform="translate(492.284 198.482391) scale(0.11 -0.11)">
     <use xlink:href="#ArialMT-50"/>
     <use xlink:href="#ArialMT-76" x="66.699219"/>
     <use xlink:href="#ArialMT-61" x="116.699219"/>
     <use xlink:href="#ArialMT-6c" x="172.314453"/>
     <use xlink:href="#ArialMT-62" x="194.53125"/>
    </g>
   </g>
  </g>
 </g>
 <defs>
  <clipPath id="p4251190d17">
   <rect x="53.389063" y="7.2" width="357.12" height="266.112"/>
  </clipPath>
 </defs>
</svg>
