<?xml version="1.0" encoding="utf-8" standalone="no"?>
<!DOCTYPE svg PUBLIC "-//W3C//DTD SVG 1.1//EN"
  "http://www.w3.org/Graphics/SVG/1.1/DTD/svg11.dtd">
<svg xmlns:xlink="http://www.w3.org/1999/xlink" width="420.119687pt" height="204.48pt" viewBox="0 0 420.119687 204.48" xmlns="http://www.w3.org/2000/svg" version="1.1">
 <metadata>
  <rdf:RDF xmlns:dc="http://purl.org/dc/elements/1.1/" xmlns:cc="http://creativecommons.org/ns#" xmlns:rdf="http://www.w3.org/1999/02/22-rdf-syntax-ns#">
   <cc:Work>
    <dc:type rdf:resource="http://purl.org/dc/dcmitype/StillImage"/>
    <dc:date>2023-06-05T17:19:52.352904</dc:date>
    <dc:format>image/svg+xml</dc:format>
    <dc:creator>
     <cc:Agent>
      <dc:title>Matplotlib v3.6.2, https://matplotlib.org/</dc:title>
     </cc:Agent>
    </dc:creator>
   </cc:Work>
  </rdf:RDF>
 </metadata>
 <defs>
  <style type="text/css">*{stroke-linejoin: round; stroke-linecap: butt}</style>
 </defs>
 <g id="figure_1">
  <g id="patch_1">
   <path d="M 0 204.48 
L 420.119687 204.48 
L 420.119687 0 
L 0 0 
z
" style="fill: #ffffff"/>
  </g>
  <g id="axes_1">
   <g id="patch_2">
    <path d="M 53.081406 177.720156 
L 136.507604 177.720156 
L 136.507604 21.789375 
L 53.081406 21.789375 
z
" style="fill: #eaeaf2"/>
   </g>
   <g id="matplotlib.axis_1">
    <g id="xtick_1">
     <g id="text_1">
      <!-- FeS -->
      <g style="fill: #262626" transform="translate(63.851471 195.09375) scale(0.11 -0.11)">
       <defs>
        <path id="ArialMT-46" d="M 525 0 
L 525 4581 
L 3616 4581 
L 3616 4041 
L 1131 4041 
L 1131 2622 
L 3281 2622 
L 3281 2081 
L 1131 2081 
L 1131 0 
L 525 0 
z
" transform="scale(0.015625)"/>
        <path id="ArialMT-65" d="M 2694 1069 
L 3275 997 
Q 3138 488 2766 206 
Q 2394 -75 1816 -75 
Q 1088 -75 661 373 
Q 234 822 234 1631 
Q 234 2469 665 2931 
Q 1097 3394 1784 3394 
Q 2450 3394 2872 2941 
Q 3294 2488 3294 1666 
Q 3294 1616 3291 1516 
L 816 1516 
Q 847 969 1125 678 
Q 1403 388 1819 388 
Q 2128 388 2347 550 
Q 2566 713 2694 1069 
z
M 847 1978 
L 2700 1978 
Q 2663 2397 2488 2606 
Q 2219 2931 1791 2931 
Q 1403 2931 1139 2672 
Q 875 2413 847 1978 
z
" transform="scale(0.015625)"/>
        <path id="ArialMT-53" d="M 288 1472 
L 859 1522 
Q 900 1178 1048 958 
Q 1197 738 1509 602 
Q 1822 466 2213 466 
Q 2559 466 2825 569 
Q 3091 672 3220 851 
Q 3350 1031 3350 1244 
Q 3350 1459 3225 1620 
Q 3100 1781 2813 1891 
Q 2628 1963 1997 2114 
Q 1366 2266 1113 2400 
Q 784 2572 623 2826 
Q 463 3081 463 3397 
Q 463 3744 659 4045 
Q 856 4347 1234 4503 
Q 1613 4659 2075 4659 
Q 2584 4659 2973 4495 
Q 3363 4331 3572 4012 
Q 3781 3694 3797 3291 
L 3216 3247 
Q 3169 3681 2898 3903 
Q 2628 4125 2100 4125 
Q 1550 4125 1298 3923 
Q 1047 3722 1047 3438 
Q 1047 3191 1225 3031 
Q 1400 2872 2139 2705 
Q 2878 2538 3153 2413 
Q 3553 2228 3743 1945 
Q 3934 1663 3934 1294 
Q 3934 928 3725 604 
Q 3516 281 3123 101 
Q 2731 -78 2241 -78 
Q 1619 -78 1198 103 
Q 778 284 539 648 
Q 300 1013 288 1472 
z
" transform="scale(0.015625)"/>
       </defs>
       <use xlink:href="#ArialMT-46"/>
       <use xlink:href="#ArialMT-65" x="61.083984"/>
       <use xlink:href="#ArialMT-53" x="116.699219"/>
      </g>
     </g>
    </g>
    <g id="xtick_2">
     <g id="text_2">
      <!-- FeD -->
      <g style="fill: #262626" transform="translate(105.261211 195.09375) scale(0.11 -0.11)">
       <defs>
        <path id="ArialMT-44" d="M 494 0 
L 494 4581 
L 2072 4581 
Q 2606 4581 2888 4516 
Q 3281 4425 3559 4188 
Q 3922 3881 4101 3404 
Q 4281 2928 4281 2316 
Q 4281 1794 4159 1391 
Q 4038 988 3847 723 
Q 3656 459 3429 307 
Q 3203 156 2883 78 
Q 2563 0 2147 0 
L 494 0 
z
M 1100 541 
L 2078 541 
Q 2531 541 2789 625 
Q 3047 709 3200 863 
Q 3416 1078 3536 1442 
Q 3656 1806 3656 2325 
Q 3656 3044 3420 3430 
Q 3184 3816 2847 3947 
Q 2603 4041 2063 4041 
L 1100 4041 
L 1100 541 
z
" transform="scale(0.015625)"/>
       </defs>
       <use xlink:href="#ArialMT-46"/>
       <use xlink:href="#ArialMT-65" x="61.083984"/>
       <use xlink:href="#ArialMT-44" x="116.699219"/>
      </g>
     </g>
    </g>
   </g>
   <g id="matplotlib.axis_2">
    <g id="ytick_1">
     <g id="line2d_1">
      <path d="M 53.081406 174.434794 
L 136.507604 174.434794 
" clip-path="url(#p80cf46df99)" style="fill: none; stroke: #ffffff; stroke-linecap: round"/>
     </g>
     <g id="line2d_2">
      <defs>
       <path id="m738684a376" d="M 0 0 
L -6 0 
" style="stroke: #808080; stroke-width: 1.25"/>
      </defs>
      <g>
       <use xlink:href="#m738684a376" x="53.081406" y="174.434794" style="fill: #808080; stroke: #808080; stroke-width: 1.25"/>
      </g>
     </g>
     <g id="text_3">
      <!-- 0.60 -->
      <g style="fill: #262626" transform="translate(22.174375 178.371591) scale(0.11 -0.11)">
       <defs>
        <path id="ArialMT-30" d="M 266 2259 
Q 266 3072 433 3567 
Q 600 4063 929 4331 
Q 1259 4600 1759 4600 
Q 2128 4600 2406 4451 
Q 2684 4303 2865 4023 
Q 3047 3744 3150 3342 
Q 3253 2941 3253 2259 
Q 3253 1453 3087 958 
Q 2922 463 2592 192 
Q 2263 -78 1759 -78 
Q 1097 -78 719 397 
Q 266 969 266 2259 
z
M 844 2259 
Q 844 1131 1108 757 
Q 1372 384 1759 384 
Q 2147 384 2411 759 
Q 2675 1134 2675 2259 
Q 2675 3391 2411 3762 
Q 2147 4134 1753 4134 
Q 1366 4134 1134 3806 
Q 844 3388 844 2259 
z
" transform="scale(0.015625)"/>
        <path id="ArialMT-2e" d="M 581 0 
L 581 641 
L 1222 641 
L 1222 0 
L 581 0 
z
" transform="scale(0.015625)"/>
        <path id="ArialMT-36" d="M 3184 3459 
L 2625 3416 
Q 2550 3747 2413 3897 
Q 2184 4138 1850 4138 
Q 1581 4138 1378 3988 
Q 1113 3794 959 3422 
Q 806 3050 800 2363 
Q 1003 2672 1297 2822 
Q 1591 2972 1913 2972 
Q 2475 2972 2870 2558 
Q 3266 2144 3266 1488 
Q 3266 1056 3080 686 
Q 2894 316 2569 119 
Q 2244 -78 1831 -78 
Q 1128 -78 684 439 
Q 241 956 241 2144 
Q 241 3472 731 4075 
Q 1159 4600 1884 4600 
Q 2425 4600 2770 4297 
Q 3116 3994 3184 3459 
z
M 888 1484 
Q 888 1194 1011 928 
Q 1134 663 1356 523 
Q 1578 384 1822 384 
Q 2178 384 2434 671 
Q 2691 959 2691 1453 
Q 2691 1928 2437 2201 
Q 2184 2475 1800 2475 
Q 1419 2475 1153 2201 
Q 888 1928 888 1484 
z
" transform="scale(0.015625)"/>
       </defs>
       <use xlink:href="#ArialMT-30"/>
       <use xlink:href="#ArialMT-2e" x="55.615234"/>
       <use xlink:href="#ArialMT-36" x="83.398438"/>
       <use xlink:href="#ArialMT-30" x="139.013672"/>
      </g>
     </g>
    </g>
    <g id="ytick_2">
     <g id="line2d_3">
      <path d="M 53.081406 149.596217 
L 136.507604 149.596217 
" clip-path="url(#p80cf46df99)" style="fill: none; stroke: #ffffff; stroke-linecap: round"/>
     </g>
     <g id="line2d_4">
      <g>
       <use xlink:href="#m738684a376" x="53.081406" y="149.596217" style="fill: #808080; stroke: #808080; stroke-width: 1.25"/>
      </g>
     </g>
     <g id="text_4">
      <!-- 0.80 -->
      <g style="fill: #262626" transform="translate(22.174375 153.533014) scale(0.11 -0.11)">
       <defs>
        <path id="ArialMT-38" d="M 1131 2484 
Q 781 2613 612 2850 
Q 444 3088 444 3419 
Q 444 3919 803 4259 
Q 1163 4600 1759 4600 
Q 2359 4600 2725 4251 
Q 3091 3903 3091 3403 
Q 3091 3084 2923 2848 
Q 2756 2613 2416 2484 
Q 2838 2347 3058 2040 
Q 3278 1734 3278 1309 
Q 3278 722 2862 322 
Q 2447 -78 1769 -78 
Q 1091 -78 675 323 
Q 259 725 259 1325 
Q 259 1772 486 2073 
Q 713 2375 1131 2484 
z
M 1019 3438 
Q 1019 3113 1228 2906 
Q 1438 2700 1772 2700 
Q 2097 2700 2305 2904 
Q 2513 3109 2513 3406 
Q 2513 3716 2298 3927 
Q 2084 4138 1766 4138 
Q 1444 4138 1231 3931 
Q 1019 3725 1019 3438 
z
M 838 1322 
Q 838 1081 952 856 
Q 1066 631 1291 507 
Q 1516 384 1775 384 
Q 2178 384 2440 643 
Q 2703 903 2703 1303 
Q 2703 1709 2433 1975 
Q 2163 2241 1756 2241 
Q 1359 2241 1098 1978 
Q 838 1716 838 1322 
z
" transform="scale(0.015625)"/>
       </defs>
       <use xlink:href="#ArialMT-30"/>
       <use xlink:href="#ArialMT-2e" x="55.615234"/>
       <use xlink:href="#ArialMT-38" x="83.398438"/>
       <use xlink:href="#ArialMT-30" x="139.013672"/>
      </g>
     </g>
    </g>
    <g id="ytick_3">
     <g id="line2d_5">
      <path d="M 53.081406 130.329919 
L 136.507604 130.329919 
" clip-path="url(#p80cf46df99)" style="fill: none; stroke: #ffffff; stroke-linecap: round"/>
     </g>
     <g id="line2d_6">
      <g>
       <use xlink:href="#m738684a376" x="53.081406" y="130.329919" style="fill: #808080; stroke: #808080; stroke-width: 1.25"/>
      </g>
     </g>
     <g id="text_5">
      <!-- 1.00 -->
      <g style="fill: #262626" transform="translate(22.174375 134.266716) scale(0.11 -0.11)">
       <defs>
        <path id="ArialMT-31" d="M 2384 0 
L 1822 0 
L 1822 3584 
Q 1619 3391 1289 3197 
Q 959 3003 697 2906 
L 697 3450 
Q 1169 3672 1522 3987 
Q 1875 4303 2022 4600 
L 2384 4600 
L 2384 0 
z
" transform="scale(0.015625)"/>
       </defs>
       <use xlink:href="#ArialMT-31"/>
       <use xlink:href="#ArialMT-2e" x="55.615234"/>
       <use xlink:href="#ArialMT-30" x="83.398438"/>
       <use xlink:href="#ArialMT-30" x="139.013672"/>
      </g>
     </g>
    </g>
    <g id="ytick_4">
     <g id="line2d_7">
      <path d="M 53.081406 95.32191 
L 136.507604 95.32191 
" clip-path="url(#p80cf46df99)" style="fill: none; stroke: #ffffff; stroke-linecap: round"/>
     </g>
     <g id="line2d_8">
      <g>
       <use xlink:href="#m738684a376" x="53.081406" y="95.32191" style="fill: #808080; stroke: #808080; stroke-width: 1.25"/>
      </g>
     </g>
     <g id="text_6">
      <!-- 1.50 -->
      <g style="fill: #262626" transform="translate(22.174375 99.258707) scale(0.11 -0.11)">
       <defs>
        <path id="ArialMT-35" d="M 266 1200 
L 856 1250 
Q 922 819 1161 601 
Q 1400 384 1738 384 
Q 2144 384 2425 690 
Q 2706 997 2706 1503 
Q 2706 1984 2436 2262 
Q 2166 2541 1728 2541 
Q 1456 2541 1237 2417 
Q 1019 2294 894 2097 
L 366 2166 
L 809 4519 
L 3088 4519 
L 3088 3981 
L 1259 3981 
L 1013 2750 
Q 1425 3038 1878 3038 
Q 2478 3038 2890 2622 
Q 3303 2206 3303 1553 
Q 3303 931 2941 478 
Q 2500 -78 1738 -78 
Q 1113 -78 717 272 
Q 322 622 266 1200 
z
" transform="scale(0.015625)"/>
       </defs>
       <use xlink:href="#ArialMT-31"/>
       <use xlink:href="#ArialMT-2e" x="55.615234"/>
       <use xlink:href="#ArialMT-35" x="83.398438"/>
       <use xlink:href="#ArialMT-30" x="139.013672"/>
      </g>
     </g>
    </g>
    <g id="ytick_5">
     <g id="line2d_9">
      <path d="M 53.081406 70.483333 
L 136.507604 70.483333 
" clip-path="url(#p80cf46df99)" style="fill: none; stroke: #ffffff; stroke-linecap: round"/>
     </g>
     <g id="line2d_10">
      <g>
       <use xlink:href="#m738684a376" x="53.081406" y="70.483333" style="fill: #808080; stroke: #808080; stroke-width: 1.25"/>
      </g>
     </g>
     <g id="text_7">
      <!-- 2.00 -->
      <g style="fill: #262626" transform="translate(22.174375 74.42013) scale(0.11 -0.11)">
       <defs>
        <path id="ArialMT-32" d="M 3222 541 
L 3222 0 
L 194 0 
Q 188 203 259 391 
Q 375 700 629 1000 
Q 884 1300 1366 1694 
Q 2113 2306 2375 2664 
Q 2638 3022 2638 3341 
Q 2638 3675 2398 3904 
Q 2159 4134 1775 4134 
Q 1369 4134 1125 3890 
Q 881 3647 878 3216 
L 300 3275 
Q 359 3922 746 4261 
Q 1134 4600 1788 4600 
Q 2447 4600 2831 4234 
Q 3216 3869 3216 3328 
Q 3216 3053 3103 2787 
Q 2991 2522 2730 2228 
Q 2469 1934 1863 1422 
Q 1356 997 1212 845 
Q 1069 694 975 541 
L 3222 541 
z
" transform="scale(0.015625)"/>
       </defs>
       <use xlink:href="#ArialMT-32"/>
       <use xlink:href="#ArialMT-2e" x="55.615234"/>
       <use xlink:href="#ArialMT-30" x="83.398438"/>
       <use xlink:href="#ArialMT-30" x="139.013672"/>
      </g>
     </g>
    </g>
    <g id="ytick_6">
     <g id="line2d_11">
      <path d="M 53.081406 35.475324 
L 136.507604 35.475324 
" clip-path="url(#p80cf46df99)" style="fill: none; stroke: #ffffff; stroke-linecap: round"/>
     </g>
     <g id="line2d_12">
      <g>
       <use xlink:href="#m738684a376" x="53.081406" y="35.475324" style="fill: #808080; stroke: #808080; stroke-width: 1.25"/>
      </g>
     </g>
     <g id="text_8">
      <!-- 3.00 -->
      <g style="fill: #262626" transform="translate(22.174375 39.412121) scale(0.11 -0.11)">
       <defs>
        <path id="ArialMT-33" d="M 269 1209 
L 831 1284 
Q 928 806 1161 595 
Q 1394 384 1728 384 
Q 2125 384 2398 659 
Q 2672 934 2672 1341 
Q 2672 1728 2419 1979 
Q 2166 2231 1775 2231 
Q 1616 2231 1378 2169 
L 1441 2663 
Q 1497 2656 1531 2656 
Q 1891 2656 2178 2843 
Q 2466 3031 2466 3422 
Q 2466 3731 2256 3934 
Q 2047 4138 1716 4138 
Q 1388 4138 1169 3931 
Q 950 3725 888 3313 
L 325 3413 
Q 428 3978 793 4289 
Q 1159 4600 1703 4600 
Q 2078 4600 2393 4439 
Q 2709 4278 2876 4000 
Q 3044 3722 3044 3409 
Q 3044 3113 2884 2869 
Q 2725 2625 2413 2481 
Q 2819 2388 3044 2092 
Q 3269 1797 3269 1353 
Q 3269 753 2831 336 
Q 2394 -81 1725 -81 
Q 1122 -81 723 278 
Q 325 638 269 1209 
z
" transform="scale(0.015625)"/>
       </defs>
       <use xlink:href="#ArialMT-33"/>
       <use xlink:href="#ArialMT-2e" x="55.615234"/>
       <use xlink:href="#ArialMT-30" x="83.398438"/>
       <use xlink:href="#ArialMT-30" x="139.013672"/>
      </g>
     </g>
    </g>
    <g id="ytick_7">
     <g id="line2d_13">
      <defs>
       <path id="madb85ab52b" d="M 0 0 
L -4 0 
" style="stroke: #808080"/>
      </defs>
      <g>
       <use xlink:href="#madb85ab52b" x="53.081406" y="161.125367" style="fill: #808080; stroke: #808080"/>
      </g>
     </g>
    </g>
    <g id="ytick_8">
     <g id="line2d_14">
      <g>
       <use xlink:href="#madb85ab52b" x="53.081406" y="139.426785" style="fill: #808080; stroke: #808080"/>
      </g>
     </g>
    </g>
    <g id="text_9">
     <!-- Relative mRNA level -->
     <g style="fill: #262626" transform="translate(15.789375 154.440078) rotate(-90) scale(0.12 -0.12)">
      <defs>
       <path id="ArialMT-52" d="M 503 0 
L 503 4581 
L 2534 4581 
Q 3147 4581 3465 4457 
Q 3784 4334 3975 4021 
Q 4166 3709 4166 3331 
Q 4166 2844 3850 2509 
Q 3534 2175 2875 2084 
Q 3116 1969 3241 1856 
Q 3506 1613 3744 1247 
L 4541 0 
L 3778 0 
L 3172 953 
Q 2906 1366 2734 1584 
Q 2563 1803 2427 1890 
Q 2291 1978 2150 2013 
Q 2047 2034 1813 2034 
L 1109 2034 
L 1109 0 
L 503 0 
z
M 1109 2559 
L 2413 2559 
Q 2828 2559 3062 2645 
Q 3297 2731 3419 2920 
Q 3541 3109 3541 3331 
Q 3541 3656 3305 3865 
Q 3069 4075 2559 4075 
L 1109 4075 
L 1109 2559 
z
" transform="scale(0.015625)"/>
       <path id="ArialMT-6c" d="M 409 0 
L 409 4581 
L 972 4581 
L 972 0 
L 409 0 
z
" transform="scale(0.015625)"/>
       <path id="ArialMT-61" d="M 2588 409 
Q 2275 144 1986 34 
Q 1697 -75 1366 -75 
Q 819 -75 525 192 
Q 231 459 231 875 
Q 231 1119 342 1320 
Q 453 1522 633 1644 
Q 813 1766 1038 1828 
Q 1203 1872 1538 1913 
Q 2219 1994 2541 2106 
Q 2544 2222 2544 2253 
Q 2544 2597 2384 2738 
Q 2169 2928 1744 2928 
Q 1347 2928 1158 2789 
Q 969 2650 878 2297 
L 328 2372 
Q 403 2725 575 2942 
Q 747 3159 1072 3276 
Q 1397 3394 1825 3394 
Q 2250 3394 2515 3294 
Q 2781 3194 2906 3042 
Q 3031 2891 3081 2659 
Q 3109 2516 3109 2141 
L 3109 1391 
Q 3109 606 3145 398 
Q 3181 191 3288 0 
L 2700 0 
Q 2613 175 2588 409 
z
M 2541 1666 
Q 2234 1541 1622 1453 
Q 1275 1403 1131 1340 
Q 988 1278 909 1158 
Q 831 1038 831 891 
Q 831 666 1001 516 
Q 1172 366 1500 366 
Q 1825 366 2078 508 
Q 2331 650 2450 897 
Q 2541 1088 2541 1459 
L 2541 1666 
z
" transform="scale(0.015625)"/>
       <path id="ArialMT-74" d="M 1650 503 
L 1731 6 
Q 1494 -44 1306 -44 
Q 1000 -44 831 53 
Q 663 150 594 308 
Q 525 466 525 972 
L 525 2881 
L 113 2881 
L 113 3319 
L 525 3319 
L 525 4141 
L 1084 4478 
L 1084 3319 
L 1650 3319 
L 1650 2881 
L 1084 2881 
L 1084 941 
Q 1084 700 1114 631 
Q 1144 563 1211 522 
Q 1278 481 1403 481 
Q 1497 481 1650 503 
z
" transform="scale(0.015625)"/>
       <path id="ArialMT-69" d="M 425 3934 
L 425 4581 
L 988 4581 
L 988 3934 
L 425 3934 
z
M 425 0 
L 425 3319 
L 988 3319 
L 988 0 
L 425 0 
z
" transform="scale(0.015625)"/>
       <path id="ArialMT-76" d="M 1344 0 
L 81 3319 
L 675 3319 
L 1388 1331 
Q 1503 1009 1600 663 
Q 1675 925 1809 1294 
L 2547 3319 
L 3125 3319 
L 1869 0 
L 1344 0 
z
" transform="scale(0.015625)"/>
       <path id="ArialMT-20" transform="scale(0.015625)"/>
       <path id="ArialMT-6d" d="M 422 0 
L 422 3319 
L 925 3319 
L 925 2853 
Q 1081 3097 1340 3245 
Q 1600 3394 1931 3394 
Q 2300 3394 2536 3241 
Q 2772 3088 2869 2813 
Q 3263 3394 3894 3394 
Q 4388 3394 4653 3120 
Q 4919 2847 4919 2278 
L 4919 0 
L 4359 0 
L 4359 2091 
Q 4359 2428 4304 2576 
Q 4250 2725 4106 2815 
Q 3963 2906 3769 2906 
Q 3419 2906 3187 2673 
Q 2956 2441 2956 1928 
L 2956 0 
L 2394 0 
L 2394 2156 
Q 2394 2531 2256 2718 
Q 2119 2906 1806 2906 
Q 1569 2906 1367 2781 
Q 1166 2656 1075 2415 
Q 984 2175 984 1722 
L 984 0 
L 422 0 
z
" transform="scale(0.015625)"/>
       <path id="ArialMT-4e" d="M 488 0 
L 488 4581 
L 1109 4581 
L 3516 984 
L 3516 4581 
L 4097 4581 
L 4097 0 
L 3475 0 
L 1069 3600 
L 1069 0 
L 488 0 
z
" transform="scale(0.015625)"/>
       <path id="ArialMT-41" d="M -9 0 
L 1750 4581 
L 2403 4581 
L 4278 0 
L 3588 0 
L 3053 1388 
L 1138 1388 
L 634 0 
L -9 0 
z
M 1313 1881 
L 2866 1881 
L 2388 3150 
Q 2169 3728 2063 4100 
Q 1975 3659 1816 3225 
L 1313 1881 
z
" transform="scale(0.015625)"/>
      </defs>
      <use xlink:href="#ArialMT-52"/>
      <use xlink:href="#ArialMT-65" x="72.216797"/>
      <use xlink:href="#ArialMT-6c" x="127.832031"/>
      <use xlink:href="#ArialMT-61" x="150.048828"/>
      <use xlink:href="#ArialMT-74" x="205.664062"/>
      <use xlink:href="#ArialMT-69" x="233.447266"/>
      <use xlink:href="#ArialMT-76" x="255.664062"/>
      <use xlink:href="#ArialMT-65" x="305.664062"/>
      <use xlink:href="#ArialMT-20" x="361.279297"/>
      <use xlink:href="#ArialMT-6d" x="389.0625"/>
      <use xlink:href="#ArialMT-52" x="472.363281"/>
      <use xlink:href="#ArialMT-4e" x="544.580078"/>
      <use xlink:href="#ArialMT-41" x="616.796875"/>
      <use xlink:href="#ArialMT-20" x="677.996094"/>
      <use xlink:href="#ArialMT-6c" x="705.779297"/>
      <use xlink:href="#ArialMT-65" x="727.996094"/>
      <use xlink:href="#ArialMT-76" x="783.611328"/>
      <use xlink:href="#ArialMT-65" x="833.611328"/>
      <use xlink:href="#ArialMT-6c" x="889.226562"/>
     </g>
    </g>
   </g>
   <g id="PathCollection_1">
    <path d="M 80.541899 142.623151 
C 81.072305 142.623151 81.581059 142.412418 81.956112 142.037365 
C 82.331166 141.662311 82.541899 141.153557 82.541899 140.623151 
C 82.541899 140.092745 82.331166 139.583991 81.956112 139.208937 
C 81.581059 138.833884 81.072305 138.623151 80.541899 138.623151 
C 80.011493 138.623151 79.502739 138.833884 79.127685 139.208937 
C 78.752632 139.583991 78.541899 140.092745 78.541899 140.623151 
C 78.541899 141.153557 78.752632 141.662311 79.127685 142.037365 
C 79.502739 142.412418 80.011493 142.623151 80.541899 142.623151 
z
" clip-path="url(#p80cf46df99)" style="fill: #0173b2; fill-opacity: 0.2; stroke: #0173b2; stroke-opacity: 0.6; stroke-width: 0.75"/>
    <path d="M 80.832711 130.653834 
C 81.363117 130.653834 81.87187 130.443101 82.246924 130.068047 
C 82.621978 129.692993 82.832711 129.18424 82.832711 128.653834 
C 82.832711 128.123428 82.621978 127.614674 82.246924 127.23962 
C 81.87187 126.864566 81.363117 126.653834 80.832711 126.653834 
C 80.302304 126.653834 79.793551 126.864566 79.418497 127.23962 
C 79.043443 127.614674 78.832711 128.123428 78.832711 128.653834 
C 78.832711 129.18424 79.043443 129.692993 79.418497 130.068047 
C 79.793551 130.443101 80.302304 130.653834 80.832711 130.653834 
z
" clip-path="url(#p80cf46df99)" style="fill: #0173b2; fill-opacity: 0.2; stroke: #0173b2; stroke-opacity: 0.6; stroke-width: 0.75"/>
    <path d="M 75.543511 124.669175 
C 76.073918 124.669175 76.582671 124.458442 76.957725 124.083389 
C 77.332779 123.708335 77.543511 123.199581 77.543511 122.669175 
C 77.543511 122.138769 77.332779 121.630015 76.957725 121.254962 
C 76.582671 120.879908 76.073918 120.669175 75.543511 120.669175 
C 75.013105 120.669175 74.504352 120.879908 74.129298 121.254962 
C 73.754244 121.630015 73.543511 122.138769 73.543511 122.669175 
C 73.543511 123.199581 73.754244 123.708335 74.129298 124.083389 
C 74.504352 124.458442 75.013105 124.669175 75.543511 124.669175 
z
" clip-path="url(#p80cf46df99)" style="fill: #0173b2; fill-opacity: 0.2; stroke: #0173b2; stroke-opacity: 0.6; stroke-width: 0.75"/>
    <path d="M 79.217892 133.54546 
C 79.748298 133.54546 80.257051 133.334727 80.632105 132.959673 
C 81.007159 132.584619 81.217892 132.075866 81.217892 131.54546 
C 81.217892 131.015053 81.007159 130.5063 80.632105 130.131246 
C 80.257051 129.756192 79.748298 129.54546 79.217892 129.54546 
C 78.687485 129.54546 78.178732 129.756192 77.803678 130.131246 
C 77.428624 130.5063 77.217892 131.015053 77.217892 131.54546 
C 77.217892 132.075866 77.428624 132.584619 77.803678 132.959673 
C 78.178732 133.334727 78.687485 133.54546 79.217892 133.54546 
z
" clip-path="url(#p80cf46df99)" style="fill: #0173b2; fill-opacity: 0.2; stroke: #0173b2; stroke-opacity: 0.6; stroke-width: 0.75"/>
    <path d="M 77.799946 141.325516 
C 78.330352 141.325516 78.839105 141.114783 79.214159 140.739729 
C 79.589213 140.364676 79.799946 139.855922 79.799946 139.325516 
C 79.799946 138.79511 79.589213 138.286356 79.214159 137.911302 
C 78.839105 137.536249 78.330352 137.325516 77.799946 137.325516 
C 77.269539 137.325516 76.760786 137.536249 76.385732 137.911302 
C 76.010678 138.286356 75.799946 138.79511 75.799946 139.325516 
C 75.799946 139.855922 76.010678 140.364676 76.385732 140.739729 
C 76.760786 141.114783 77.269539 141.325516 77.799946 141.325516 
z
" clip-path="url(#p80cf46df99)" style="fill: #0173b2; fill-opacity: 0.2; stroke: #0173b2; stroke-opacity: 0.6; stroke-width: 0.75"/>
    <path d="M 80.45346 129.356199 
C 80.983867 129.356199 81.49262 129.145466 81.867674 128.770412 
C 82.242728 128.395358 82.45346 127.886605 82.45346 127.356199 
C 82.45346 126.825792 82.242728 126.317039 81.867674 125.941985 
C 81.49262 125.566931 80.983867 125.356199 80.45346 125.356199 
C 79.923054 125.356199 79.414301 125.566931 79.039247 125.941985 
C 78.664193 126.317039 78.45346 126.825792 78.45346 127.356199 
C 78.45346 127.886605 78.664193 128.395358 79.039247 128.770412 
C 79.414301 129.145466 79.923054 129.356199 80.45346 129.356199 
z
" clip-path="url(#p80cf46df99)" style="fill: #0173b2; fill-opacity: 0.2; stroke: #0173b2; stroke-opacity: 0.6; stroke-width: 0.75"/>
    <path d="M 79.583231 126.962335 
C 80.113638 126.962335 80.622391 126.751603 80.997445 126.376549 
C 81.372499 126.001495 81.583231 125.492741 81.583231 124.962335 
C 81.583231 124.431929 81.372499 123.923175 80.997445 123.548122 
C 80.622391 123.173068 80.113638 122.962335 79.583231 122.962335 
C 79.052825 122.962335 78.544072 123.173068 78.169018 123.548122 
C 77.793964 123.923175 77.583231 124.431929 77.583231 124.962335 
C 77.583231 125.492741 77.793964 126.001495 78.169018 126.376549 
C 78.544072 126.751603 79.052825 126.962335 79.583231 126.962335 
z
" clip-path="url(#p80cf46df99)" style="fill: #0173b2; fill-opacity: 0.2; stroke: #0173b2; stroke-opacity: 0.6; stroke-width: 0.75"/>
    <path d="M 81.151222 131.151596 
C 81.681628 131.151596 82.190381 130.940864 82.565435 130.56581 
C 82.940489 130.190756 83.151222 129.682002 83.151222 129.151596 
C 83.151222 128.62119 82.940489 128.112436 82.565435 127.737383 
C 82.190381 127.362329 81.681628 127.151596 81.151222 127.151596 
C 80.620816 127.151596 80.112062 127.362329 79.737008 127.737383 
C 79.361954 128.112436 79.151222 128.62119 79.151222 129.151596 
C 79.151222 129.682002 79.361954 130.190756 79.737008 130.56581 
C 80.112062 130.940864 80.620816 131.151596 81.151222 131.151596 
z
" clip-path="url(#p80cf46df99)" style="fill: #0173b2; fill-opacity: 0.2; stroke: #0173b2; stroke-opacity: 0.6; stroke-width: 0.75"/>
    <path d="M 76.227148 130.759694 
C 76.757554 130.759694 77.266307 130.548961 77.641361 130.173908 
C 78.016415 129.798854 78.227148 129.2901 78.227148 128.759694 
C 78.227148 128.229288 78.016415 127.720534 77.641361 127.34548 
C 77.266307 126.970427 76.757554 126.759694 76.227148 126.759694 
C 75.696742 126.759694 75.187988 126.970427 74.812934 127.34548 
C 74.43788 127.720534 74.227148 128.229288 74.227148 128.759694 
C 74.227148 129.2901 74.43788 129.798854 74.812934 130.173908 
C 75.187988 130.548961 75.696742 130.759694 76.227148 130.759694 
z
" clip-path="url(#p80cf46df99)" style="fill: #0173b2; fill-opacity: 0.2; stroke: #0173b2; stroke-opacity: 0.6; stroke-width: 0.75"/>
    <path d="M 76.979563 132.126291 
C 77.509969 132.126291 78.018723 131.915558 78.393777 131.540504 
C 78.768831 131.165451 78.979563 130.656697 78.979563 130.126291 
C 78.979563 129.595885 78.768831 129.087131 78.393777 128.712077 
C 78.018723 128.337023 77.509969 128.126291 76.979563 128.126291 
C 76.449157 128.126291 75.940403 128.337023 75.56535 128.712077 
C 75.190296 129.087131 74.979563 129.595885 74.979563 130.126291 
C 74.979563 130.656697 75.190296 131.165451 75.56535 131.540504 
C 75.940403 131.915558 76.449157 132.126291 76.979563 132.126291 
z
" clip-path="url(#p80cf46df99)" style="fill: #0173b2; fill-opacity: 0.2; stroke: #0173b2; stroke-opacity: 0.6; stroke-width: 0.75"/>
    <path d="M 81.167028 132.792144 
C 81.697434 132.792144 82.206187 132.581411 82.581241 132.206357 
C 82.956295 131.831304 83.167028 131.32255 83.167028 130.792144 
C 83.167028 130.261738 82.956295 129.752984 82.581241 129.37793 
C 82.206187 129.002877 81.697434 128.792144 81.167028 128.792144 
C 80.636621 128.792144 80.127868 129.002877 79.752814 129.37793 
C 79.37776 129.752984 79.167028 130.261738 79.167028 130.792144 
C 79.167028 131.32255 79.37776 131.831304 79.752814 132.206357 
C 80.127868 132.581411 80.636621 132.792144 81.167028 132.792144 
z
" clip-path="url(#p80cf46df99)" style="fill: #0173b2; fill-opacity: 0.2; stroke: #0173b2; stroke-opacity: 0.6; stroke-width: 0.75"/>
    <path d="M 75.845301 133.667699 
C 76.375707 133.667699 76.884461 133.456967 77.259515 133.081913 
C 77.634568 132.706859 77.845301 132.198106 77.845301 131.667699 
C 77.845301 131.137293 77.634568 130.62854 77.259515 130.253486 
C 76.884461 129.878432 76.375707 129.667699 75.845301 129.667699 
C 75.314895 129.667699 74.806141 129.878432 74.431087 130.253486 
C 74.056034 130.62854 73.845301 131.137293 73.845301 131.667699 
C 73.845301 132.198106 74.056034 132.706859 74.431087 133.081913 
C 74.806141 133.456967 75.314895 133.667699 75.845301 133.667699 
z
" clip-path="url(#p80cf46df99)" style="fill: #0173b2; fill-opacity: 0.2; stroke: #0173b2; stroke-opacity: 0.6; stroke-width: 0.75"/>
    <path d="M 120.966713 99.533609 
L 124.966713 99.533609 
L 124.966713 95.533609 
L 120.966713 95.533609 
z
" clip-path="url(#p80cf46df99)" style="fill: #de8f05; fill-opacity: 0.2; stroke: #de8f05; stroke-opacity: 0.6; stroke-width: 0.75"/>
    <path d="M 116.52937 106.116733 
L 120.52937 106.116733 
L 120.52937 102.116733 
L 116.52937 102.116733 
z
" clip-path="url(#p80cf46df99)" style="fill: #de8f05; fill-opacity: 0.2; stroke: #de8f05; stroke-opacity: 0.6; stroke-width: 0.75"/>
    <path d="M 118.389379 75.494271 
L 122.389379 75.494271 
L 122.389379 71.494271 
L 118.389379 71.494271 
z
" clip-path="url(#p80cf46df99)" style="fill: #de8f05; fill-opacity: 0.2; stroke: #de8f05; stroke-opacity: 0.6; stroke-width: 0.75"/>
    <path d="M 120.946257 79.683532 
L 124.946257 79.683532 
L 124.946257 75.683532 
L 120.946257 75.683532 
z
" clip-path="url(#p80cf46df99)" style="fill: #de8f05; fill-opacity: 0.2; stroke: #de8f05; stroke-opacity: 0.6; stroke-width: 0.75"/>
    <path d="M 119.717594 78.4866 
L 123.717594 78.4866 
L 123.717594 74.4866 
L 119.717594 74.4866 
z
" clip-path="url(#p80cf46df99)" style="fill: #de8f05; fill-opacity: 0.2; stroke: #de8f05; stroke-opacity: 0.6; stroke-width: 0.75"/>
    <path d="M 117.417611 73.100407 
L 121.417611 73.100407 
L 121.417611 69.100407 
L 117.417611 69.100407 
z
" clip-path="url(#p80cf46df99)" style="fill: #de8f05; fill-opacity: 0.2; stroke: #de8f05; stroke-opacity: 0.6; stroke-width: 0.75"/>
    <path d="M 116.368918 33.60166 
L 120.368918 33.60166 
L 120.368918 29.60166 
L 116.368918 29.60166 
z
" clip-path="url(#p80cf46df99)" style="fill: #de8f05; fill-opacity: 0.2; stroke: #de8f05; stroke-opacity: 0.6; stroke-width: 0.75"/>
    <path d="M 114.956117 100.740407 
L 118.956117 100.740407 
L 118.956117 96.740407 
L 114.956117 96.740407 
z
" clip-path="url(#p80cf46df99)" style="fill: #de8f05; fill-opacity: 0.2; stroke: #de8f05; stroke-opacity: 0.6; stroke-width: 0.75"/>
    <path d="M 115.067556 104.18763 
L 119.067556 104.18763 
L 119.067556 100.18763 
L 115.067556 100.18763 
z
" clip-path="url(#p80cf46df99)" style="fill: #de8f05; fill-opacity: 0.2; stroke: #de8f05; stroke-opacity: 0.6; stroke-width: 0.75"/>
    <path d="M 118.307351 104.33593 
L 122.307351 104.33593 
L 122.307351 100.33593 
L 118.307351 100.33593 
z
" clip-path="url(#p80cf46df99)" style="fill: #de8f05; fill-opacity: 0.2; stroke: #de8f05; stroke-opacity: 0.6; stroke-width: 0.75"/>
    <path d="M 115.985025 87.677932 
L 119.985025 87.677932 
L 119.985025 83.677932 
L 115.985025 83.677932 
z
" clip-path="url(#p80cf46df99)" style="fill: #de8f05; fill-opacity: 0.2; stroke: #de8f05; stroke-opacity: 0.6; stroke-width: 0.75"/>
    <path d="M 117.932699 98.608073 
L 121.932699 98.608073 
L 121.932699 94.608073 
L 117.932699 94.608073 
z
" clip-path="url(#p80cf46df99)" style="fill: #de8f05; fill-opacity: 0.2; stroke: #de8f05; stroke-opacity: 0.6; stroke-width: 0.75"/>
   </g>
   <g id="PathCollection_2">
    <path d="M 69.766646 133.469424 
C 70.562255 133.469424 71.325385 133.153326 71.887966 132.590745 
C 72.450547 132.028164 72.766646 131.265034 72.766646 130.469424 
C 72.766646 129.673815 72.450547 128.910685 71.887966 128.348104 
C 71.325385 127.785523 70.562255 127.469424 69.766646 127.469424 
C 68.971037 127.469424 68.207906 127.785523 67.645325 128.348104 
C 67.082745 128.910685 66.766646 129.673815 66.766646 130.469424 
C 66.766646 131.265034 67.082745 132.028164 67.645325 132.590745 
C 68.207906 133.153326 68.971037 133.469424 69.766646 133.469424 
z
" clip-path="url(#p80cf46df99)" style="fill: #0173b2; stroke: #0173b2; stroke-width: 0.5"/>
    <path d="M 108.479745 87.797232 
L 114.479745 87.797232 
L 114.479745 81.797232 
L 108.479745 81.797232 
z
" clip-path="url(#p80cf46df99)" style="fill: #de8f05; stroke: #de8f05; stroke-width: 0.5"/>
   </g>
   <g id="LineCollection_1">
    <path d="M 69.766646 135.631915 
L 69.766646 125.306934 
" clip-path="url(#p80cf46df99)" style="fill: none; stroke: #0173b2; stroke-width: 1.5; stroke-linecap: square"/>
    <path d="M 111.479745 105.566471 
L 111.479745 64.027993 
" clip-path="url(#p80cf46df99)" style="fill: none; stroke: #de8f05; stroke-width: 1.5; stroke-linecap: square"/>
   </g>
   <g id="patch_3">
    <path d="M 53.081406 177.720156 
L 53.081406 21.789375 
" style="fill: none; stroke: #ffffff; stroke-width: 1.25; stroke-linejoin: miter; stroke-linecap: square"/>
   </g>
   <g id="patch_4">
    <path d="M 136.507604 177.720156 
L 136.507604 21.789375 
" style="fill: none; stroke: #ffffff; stroke-width: 1.25; stroke-linejoin: miter; stroke-linecap: square"/>
   </g>
   <g id="patch_5">
    <path d="M 53.081406 177.720156 
L 136.507604 177.720156 
" style="fill: none; stroke: #ffffff; stroke-width: 1.25; stroke-linejoin: miter; stroke-linecap: square"/>
   </g>
   <g id="patch_6">
    <path d="M 53.081406 21.789375 
L 136.507604 21.789375 
" style="fill: none; stroke: #ffffff; stroke-width: 1.25; stroke-linejoin: miter; stroke-linecap: square"/>
   </g>
   <g id="text_10">
    <!-- 11 -->
    <g style="fill: #262626" transform="translate(88.56388 15.789375) scale(0.12 -0.12)">
     <use xlink:href="#ArialMT-31"/>
     <use xlink:href="#ArialMT-31" x="48.240234"/>
    </g>
   </g>
  </g>
  <g id="axes_2">
   <g id="patch_7">
    <path d="M 155.467604 177.720156 
L 238.893802 177.720156 
L 238.893802 21.789375 
L 155.467604 21.789375 
z
" style="fill: #eaeaf2"/>
   </g>
   <g id="matplotlib.axis_3">
    <g id="xtick_3">
     <g id="text_11">
      <!-- FeS -->
      <g style="fill: #262626" transform="translate(166.237669 195.09375) scale(0.11 -0.11)">
       <use xlink:href="#ArialMT-46"/>
       <use xlink:href="#ArialMT-65" x="61.083984"/>
       <use xlink:href="#ArialMT-53" x="116.699219"/>
      </g>
     </g>
    </g>
    <g id="xtick_4">
     <g id="text_12">
      <!-- FeD -->
      <g style="fill: #262626" transform="translate(207.647409 195.09375) scale(0.11 -0.11)">
       <use xlink:href="#ArialMT-46"/>
       <use xlink:href="#ArialMT-65" x="61.083984"/>
       <use xlink:href="#ArialMT-44" x="116.699219"/>
      </g>
     </g>
    </g>
   </g>
   <g id="matplotlib.axis_4">
    <g id="ytick_9">
     <g id="line2d_15">
      <path d="M 155.467604 174.434794 
L 238.893802 174.434794 
" clip-path="url(#pd32c3e6c34)" style="fill: none; stroke: #ffffff; stroke-linecap: round"/>
     </g>
     <g id="line2d_16">
      <g>
       <use xlink:href="#m738684a376" x="155.467604" y="174.434794" style="fill: #808080; stroke: #808080; stroke-width: 1.25"/>
      </g>
     </g>
    </g>
    <g id="ytick_10">
     <g id="line2d_17">
      <path d="M 155.467604 149.596217 
L 238.893802 149.596217 
" clip-path="url(#pd32c3e6c34)" style="fill: none; stroke: #ffffff; stroke-linecap: round"/>
     </g>
     <g id="line2d_18">
      <g>
       <use xlink:href="#m738684a376" x="155.467604" y="149.596217" style="fill: #808080; stroke: #808080; stroke-width: 1.25"/>
      </g>
     </g>
    </g>
    <g id="ytick_11">
     <g id="line2d_19">
      <path d="M 155.467604 130.329919 
L 238.893802 130.329919 
" clip-path="url(#pd32c3e6c34)" style="fill: none; stroke: #ffffff; stroke-linecap: round"/>
     </g>
     <g id="line2d_20">
      <g>
       <use xlink:href="#m738684a376" x="155.467604" y="130.329919" style="fill: #808080; stroke: #808080; stroke-width: 1.25"/>
      </g>
     </g>
    </g>
    <g id="ytick_12">
     <g id="line2d_21">
      <path d="M 155.467604 95.32191 
L 238.893802 95.32191 
" clip-path="url(#pd32c3e6c34)" style="fill: none; stroke: #ffffff; stroke-linecap: round"/>
     </g>
     <g id="line2d_22">
      <g>
       <use xlink:href="#m738684a376" x="155.467604" y="95.32191" style="fill: #808080; stroke: #808080; stroke-width: 1.25"/>
      </g>
     </g>
    </g>
    <g id="ytick_13">
     <g id="line2d_23">
      <path d="M 155.467604 70.483333 
L 238.893802 70.483333 
" clip-path="url(#pd32c3e6c34)" style="fill: none; stroke: #ffffff; stroke-linecap: round"/>
     </g>
     <g id="line2d_24">
      <g>
       <use xlink:href="#m738684a376" x="155.467604" y="70.483333" style="fill: #808080; stroke: #808080; stroke-width: 1.25"/>
      </g>
     </g>
    </g>
    <g id="ytick_14">
     <g id="line2d_25">
      <path d="M 155.467604 35.475324 
L 238.893802 35.475324 
" clip-path="url(#pd32c3e6c34)" style="fill: none; stroke: #ffffff; stroke-linecap: round"/>
     </g>
     <g id="line2d_26">
      <g>
       <use xlink:href="#m738684a376" x="155.467604" y="35.475324" style="fill: #808080; stroke: #808080; stroke-width: 1.25"/>
      </g>
     </g>
    </g>
    <g id="ytick_15">
     <g id="line2d_27">
      <g>
       <use xlink:href="#madb85ab52b" x="155.467604" y="161.125367" style="fill: #808080; stroke: #808080"/>
      </g>
     </g>
    </g>
    <g id="ytick_16">
     <g id="line2d_28">
      <g>
       <use xlink:href="#madb85ab52b" x="155.467604" y="139.426785" style="fill: #808080; stroke: #808080"/>
      </g>
     </g>
    </g>
   </g>
   <g id="PathCollection_3">
    <path d="M 178.736664 139.008239 
C 179.26707 139.008239 179.775824 138.797506 180.150878 138.422452 
C 180.525932 138.047399 180.736664 137.538645 180.736664 137.008239 
C 180.736664 136.477833 180.525932 135.969079 180.150878 135.594025 
C 179.775824 135.218972 179.26707 135.008239 178.736664 135.008239 
C 178.206258 135.008239 177.697505 135.218972 177.322451 135.594025 
C 176.947397 135.969079 176.736664 136.477833 176.736664 137.008239 
C 176.736664 137.538645 176.947397 138.047399 177.322451 138.422452 
C 177.697505 138.797506 178.206258 139.008239 178.736664 139.008239 
z
" clip-path="url(#pd32c3e6c34)" style="fill: #0173b2; fill-opacity: 0.2; stroke: #0173b2; stroke-opacity: 0.6; stroke-width: 0.75"/>
    <path d="M 183.74041 122.251195 
C 184.270816 122.251195 184.77957 122.040462 185.154624 121.665408 
C 185.529678 121.290354 185.74041 120.781601 185.74041 120.251195 
C 185.74041 119.720789 185.529678 119.212035 185.154624 118.836981 
C 184.77957 118.461927 184.270816 118.251195 183.74041 118.251195 
C 183.210004 118.251195 182.70125 118.461927 182.326197 118.836981 
C 181.951143 119.212035 181.74041 119.720789 181.74041 120.251195 
C 181.74041 120.781601 181.951143 121.290354 182.326197 121.665408 
C 182.70125 122.040462 183.210004 122.251195 183.74041 122.251195 
z
" clip-path="url(#pd32c3e6c34)" style="fill: #0173b2; fill-opacity: 0.2; stroke: #0173b2; stroke-opacity: 0.6; stroke-width: 0.75"/>
    <path d="M 183.338107 137.811307 
C 183.868513 137.811307 184.377267 137.600575 184.752321 137.225521 
C 185.127375 136.850467 185.338107 136.341713 185.338107 135.811307 
C 185.338107 135.280901 185.127375 134.772147 184.752321 134.397094 
C 184.377267 134.02204 183.868513 133.811307 183.338107 133.811307 
C 182.807701 133.811307 182.298947 134.02204 181.923894 134.397094 
C 181.54884 134.772147 181.338107 135.280901 181.338107 135.811307 
C 181.338107 136.341713 181.54884 136.850467 181.923894 137.225521 
C 182.298947 137.600575 182.807701 137.811307 183.338107 137.811307 
z
" clip-path="url(#pd32c3e6c34)" style="fill: #0173b2; fill-opacity: 0.2; stroke: #0173b2; stroke-opacity: 0.6; stroke-width: 0.75"/>
    <path d="M 179.684439 133.622046 
C 180.214846 133.622046 180.723599 133.411314 181.098653 133.03626 
C 181.473707 132.661206 181.684439 132.152452 181.684439 131.622046 
C 181.684439 131.09164 181.473707 130.582886 181.098653 130.207833 
C 180.723599 129.832779 180.214846 129.622046 179.684439 129.622046 
C 179.154033 129.622046 178.64528 129.832779 178.270226 130.207833 
C 177.895172 130.582886 177.684439 131.09164 177.684439 131.622046 
C 177.684439 132.152452 177.895172 132.661206 178.270226 133.03626 
C 178.64528 133.411314 179.154033 133.622046 179.684439 133.622046 
z
" clip-path="url(#pd32c3e6c34)" style="fill: #0173b2; fill-opacity: 0.2; stroke: #0173b2; stroke-opacity: 0.6; stroke-width: 0.75"/>
    <path d="M 179.951182 130.031251 
C 180.481588 130.031251 180.990341 129.820518 181.365395 129.445465 
C 181.740449 129.070411 181.951182 128.561657 181.951182 128.031251 
C 181.951182 127.500845 181.740449 126.992091 181.365395 126.617037 
C 180.990341 126.241984 180.481588 126.031251 179.951182 126.031251 
C 179.420776 126.031251 178.912022 126.241984 178.536968 126.617037 
C 178.161914 126.992091 177.951182 127.500845 177.951182 128.031251 
C 177.951182 128.561657 178.161914 129.070411 178.536968 129.445465 
C 178.912022 129.820518 179.420776 130.031251 179.951182 130.031251 
z
" clip-path="url(#pd32c3e6c34)" style="fill: #0173b2; fill-opacity: 0.2; stroke: #0173b2; stroke-opacity: 0.6; stroke-width: 0.75"/>
    <path d="M 179.232498 135.713959 
C 179.762904 135.713959 180.271657 135.503226 180.646711 135.128172 
C 181.021765 134.753119 181.232498 134.244365 181.232498 133.713959 
C 181.232498 133.183553 181.021765 132.674799 180.646711 132.299745 
C 180.271657 131.924692 179.762904 131.713959 179.232498 131.713959 
C 178.702092 131.713959 178.193338 131.924692 177.818284 132.299745 
C 177.44323 132.674799 177.232498 133.183553 177.232498 133.713959 
C 177.232498 134.244365 177.44323 134.753119 177.818284 135.128172 
C 178.193338 135.503226 178.702092 135.713959 179.232498 135.713959 
z
" clip-path="url(#pd32c3e6c34)" style="fill: #0173b2; fill-opacity: 0.2; stroke: #0173b2; stroke-opacity: 0.6; stroke-width: 0.75"/>
    <path d="M 182.615752 126.138505 
C 183.146158 126.138505 183.654912 125.927772 184.029966 125.552719 
C 184.40502 125.177665 184.615752 124.668911 184.615752 124.138505 
C 184.615752 123.608099 184.40502 123.099345 184.029966 122.724292 
C 183.654912 122.349238 183.146158 122.138505 182.615752 122.138505 
C 182.085346 122.138505 181.576593 122.349238 181.201539 122.724292 
C 180.826485 123.099345 180.615752 123.608099 180.615752 124.138505 
C 180.615752 124.668911 180.826485 125.177665 181.201539 125.552719 
C 181.576593 125.927772 182.085346 126.138505 182.615752 126.138505 
z
" clip-path="url(#pd32c3e6c34)" style="fill: #0173b2; fill-opacity: 0.2; stroke: #0173b2; stroke-opacity: 0.6; stroke-width: 0.75"/>
    <path d="M 177.949933 141.698618 
C 178.480339 141.698618 178.989093 141.487885 179.364147 141.112831 
C 179.7392 140.737777 179.949933 140.229024 179.949933 139.698618 
C 179.949933 139.168211 179.7392 138.659458 179.364147 138.284404 
C 178.989093 137.90935 178.480339 137.698618 177.949933 137.698618 
C 177.419527 137.698618 176.910773 137.90935 176.53572 138.284404 
C 176.160666 138.659458 175.949933 139.168211 175.949933 139.698618 
C 175.949933 140.229024 176.160666 140.737777 176.53572 141.112831 
C 176.910773 141.487885 177.419527 141.698618 177.949933 141.698618 
z
" clip-path="url(#pd32c3e6c34)" style="fill: #0173b2; fill-opacity: 0.2; stroke: #0173b2; stroke-opacity: 0.6; stroke-width: 0.75"/>
    <path d="M 178.724593 126.736971 
C 179.254999 126.736971 179.763753 126.526238 180.138807 126.151185 
C 180.51386 125.776131 180.724593 125.267377 180.724593 124.736971 
C 180.724593 124.206565 180.51386 123.697811 180.138807 123.322757 
C 179.763753 122.947704 179.254999 122.736971 178.724593 122.736971 
C 178.194187 122.736971 177.685433 122.947704 177.310379 123.322757 
C 176.935326 123.697811 176.724593 124.206565 176.724593 124.736971 
C 176.724593 125.267377 176.935326 125.776131 177.310379 126.151185 
C 177.685433 126.526238 178.194187 126.736971 178.724593 126.736971 
z
" clip-path="url(#pd32c3e6c34)" style="fill: #0173b2; fill-opacity: 0.2; stroke: #0173b2; stroke-opacity: 0.6; stroke-width: 0.75"/>
    <path d="M 177.627429 130.817986 
C 178.157835 130.817986 178.666589 130.607253 179.041643 130.2322 
C 179.416696 129.857146 179.627429 129.348392 179.627429 128.817986 
C 179.627429 128.28758 179.416696 127.778826 179.041643 127.403773 
C 178.666589 127.028719 178.157835 126.817986 177.627429 126.817986 
C 177.097023 126.817986 176.588269 127.028719 176.213216 127.403773 
C 175.838162 127.778826 175.627429 128.28758 175.627429 128.817986 
C 175.627429 129.348392 175.838162 129.857146 176.213216 130.2322 
C 176.588269 130.607253 177.097023 130.817986 177.627429 130.817986 
z
" clip-path="url(#pd32c3e6c34)" style="fill: #0173b2; fill-opacity: 0.2; stroke: #0173b2; stroke-opacity: 0.6; stroke-width: 0.75"/>
    <path d="M 183.313884 133.521197 
C 183.844291 133.521197 184.353044 133.310464 184.728098 132.93541 
C 185.103152 132.560356 185.313884 132.051603 185.313884 131.521197 
C 185.313884 130.99079 185.103152 130.482037 184.728098 130.106983 
C 184.353044 129.731929 183.844291 129.521197 183.313884 129.521197 
C 182.783478 129.521197 182.274725 129.731929 181.899671 130.106983 
C 181.524617 130.482037 181.313884 130.99079 181.313884 131.521197 
C 181.313884 132.051603 181.524617 132.560356 181.899671 132.93541 
C 182.274725 133.310464 182.783478 133.521197 183.313884 133.521197 
z
" clip-path="url(#pd32c3e6c34)" style="fill: #0173b2; fill-opacity: 0.2; stroke: #0173b2; stroke-opacity: 0.6; stroke-width: 0.75"/>
    <path d="M 182.03744 136.689355 
C 182.567846 136.689355 183.0766 136.478622 183.451653 136.103569 
C 183.826707 135.728515 184.03744 135.219761 184.03744 134.689355 
C 184.03744 134.158949 183.826707 133.650195 183.451653 133.275142 
C 183.0766 132.900088 182.567846 132.689355 182.03744 132.689355 
C 181.507034 132.689355 180.99828 132.900088 180.623226 133.275142 
C 180.248173 133.650195 180.03744 134.158949 180.03744 134.689355 
C 180.03744 135.219761 180.248173 135.728515 180.623226 136.103569 
C 180.99828 136.478622 181.507034 136.689355 182.03744 136.689355 
z
" clip-path="url(#pd32c3e6c34)" style="fill: #0173b2; fill-opacity: 0.2; stroke: #0173b2; stroke-opacity: 0.6; stroke-width: 0.75"/>
    <path d="M 177.814067 128.506771 
C 178.344473 128.506771 178.853226 128.296038 179.22828 127.920984 
C 179.603334 127.54593 179.814067 127.037177 179.814067 126.506771 
C 179.814067 125.976365 179.603334 125.467611 179.22828 125.092557 
C 178.853226 124.717503 178.344473 124.506771 177.814067 124.506771 
C 177.28366 124.506771 176.774907 124.717503 176.399853 125.092557 
C 176.024799 125.467611 175.814067 125.976365 175.814067 126.506771 
C 175.814067 127.037177 176.024799 127.54593 176.399853 127.920984 
C 176.774907 128.296038 177.28366 128.506771 177.814067 128.506771 
z
" clip-path="url(#pd32c3e6c34)" style="fill: #0173b2; fill-opacity: 0.2; stroke: #0173b2; stroke-opacity: 0.6; stroke-width: 0.75"/>
    <path d="M 219.792569 57.018416 
L 223.792569 57.018416 
L 223.792569 53.018416 
L 219.792569 53.018416 
z
" clip-path="url(#pd32c3e6c34)" style="fill: #de8f05; fill-opacity: 0.2; stroke: #de8f05; stroke-opacity: 0.6; stroke-width: 0.75"/>
    <path d="M 220.578673 57.616882 
L 224.578673 57.616882 
L 224.578673 53.616882 
L 220.578673 53.616882 
z
" clip-path="url(#pd32c3e6c34)" style="fill: #de8f05; fill-opacity: 0.2; stroke: #de8f05; stroke-opacity: 0.6; stroke-width: 0.75"/>
    <path d="M 221.055184 43.852167 
L 225.055184 43.852167 
L 225.055184 39.852167 
L 221.055184 39.852167 
z
" clip-path="url(#pd32c3e6c34)" style="fill: #de8f05; fill-opacity: 0.2; stroke: #de8f05; stroke-opacity: 0.6; stroke-width: 0.75"/>
    <path d="M 222.274049 51.033757 
L 226.274049 51.033757 
L 226.274049 47.033757 
L 222.274049 47.033757 
z
" clip-path="url(#pd32c3e6c34)" style="fill: #de8f05; fill-opacity: 0.2; stroke: #de8f05; stroke-opacity: 0.6; stroke-width: 0.75"/>
    <path d="M 218.642414 54.624552 
L 222.642414 54.624552 
L 222.642414 50.624552 
L 218.642414 50.624552 
z
" clip-path="url(#pd32c3e6c34)" style="fill: #de8f05; fill-opacity: 0.2; stroke: #de8f05; stroke-opacity: 0.6; stroke-width: 0.75"/>
    <path d="M 219.012624 92.624417 
L 223.012624 92.624417 
L 223.012624 88.624417 
L 219.012624 88.624417 
z
" clip-path="url(#pd32c3e6c34)" style="fill: #de8f05; fill-opacity: 0.2; stroke: #de8f05; stroke-opacity: 0.6; stroke-width: 0.75"/>
    <path d="M 219.592931 87.83669 
L 223.592931 87.83669 
L 223.592931 83.83669 
L 219.592931 83.83669 
z
" clip-path="url(#pd32c3e6c34)" style="fill: #de8f05; fill-opacity: 0.2; stroke: #de8f05; stroke-opacity: 0.6; stroke-width: 0.75"/>
    <path d="M 220.693848 80.056634 
L 224.693848 80.056634 
L 224.693848 76.056634 
L 220.693848 76.056634 
z
" clip-path="url(#pd32c3e6c34)" style="fill: #de8f05; fill-opacity: 0.2; stroke: #de8f05; stroke-opacity: 0.6; stroke-width: 0.75"/>
    <path d="M 218.943722 42.563602 
L 222.943722 42.563602 
L 222.943722 38.563602 
L 218.943722 38.563602 
z
" clip-path="url(#pd32c3e6c34)" style="fill: #de8f05; fill-opacity: 0.2; stroke: #de8f05; stroke-opacity: 0.6; stroke-width: 0.75"/>
    <path d="M 222.944654 42.535893 
L 226.944654 42.535893 
L 226.944654 38.535893 
L 222.944654 38.535893 
z
" clip-path="url(#pd32c3e6c34)" style="fill: #de8f05; fill-opacity: 0.2; stroke: #de8f05; stroke-opacity: 0.6; stroke-width: 0.75"/>
    <path d="M 219.175144 55.685444 
L 223.175144 55.685444 
L 223.175144 51.685444 
L 219.175144 51.685444 
z
" clip-path="url(#pd32c3e6c34)" style="fill: #de8f05; fill-opacity: 0.2; stroke: #de8f05; stroke-opacity: 0.6; stroke-width: 0.75"/>
    <path d="M 217.260272 53.395415 
L 221.260272 53.395415 
L 221.260272 49.395415 
L 217.260272 49.395415 
z
" clip-path="url(#pd32c3e6c34)" style="fill: #de8f05; fill-opacity: 0.2; stroke: #de8f05; stroke-opacity: 0.6; stroke-width: 0.75"/>
    <path d="M 219.709496 46.907626 
L 223.709496 46.907626 
L 223.709496 42.907626 
L 219.709496 42.907626 
z
" clip-path="url(#pd32c3e6c34)" style="fill: #de8f05; fill-opacity: 0.2; stroke: #de8f05; stroke-opacity: 0.6; stroke-width: 0.75"/>
   </g>
   <g id="PathCollection_4">
    <path d="M 172.152844 133.503646 
C 172.948453 133.503646 173.711583 133.187547 174.274164 132.624966 
C 174.836745 132.062386 175.152844 131.299255 175.152844 130.503646 
C 175.152844 129.708037 174.836745 128.944906 174.274164 128.382326 
C 173.711583 127.819745 172.948453 127.503646 172.152844 127.503646 
C 171.357234 127.503646 170.594104 127.819745 170.031523 128.382326 
C 169.468943 128.944906 169.152844 129.708037 169.152844 130.503646 
C 169.152844 131.299255 169.468943 132.062386 170.031523 132.624966 
C 170.594104 133.187547 171.357234 133.503646 172.152844 133.503646 
z
" clip-path="url(#pd32c3e6c34)" style="fill: #0173b2; stroke: #0173b2; stroke-width: 0.5"/>
    <path d="M 210.865943 59.903961 
L 216.865943 59.903961 
L 216.865943 53.903961 
L 210.865943 53.903961 
z
" clip-path="url(#pd32c3e6c34)" style="fill: #de8f05; stroke: #de8f05; stroke-width: 0.5"/>
   </g>
   <g id="LineCollection_2">
    <path d="M 172.152844 136.196862 
L 172.152844 124.81043 
" clip-path="url(#pd32c3e6c34)" style="fill: none; stroke: #0173b2; stroke-width: 1.5; stroke-linecap: square"/>
    <path d="M 213.865943 73.867562 
L 213.865943 39.94036 
" clip-path="url(#pd32c3e6c34)" style="fill: none; stroke: #de8f05; stroke-width: 1.5; stroke-linecap: square"/>
   </g>
   <g id="patch_8">
    <path d="M 155.467604 177.720156 
L 155.467604 21.789375 
" style="fill: none; stroke: #ffffff; stroke-width: 1.25; stroke-linejoin: miter; stroke-linecap: square"/>
   </g>
   <g id="patch_9">
    <path d="M 238.893802 177.720156 
L 238.893802 21.789375 
" style="fill: none; stroke: #ffffff; stroke-width: 1.25; stroke-linejoin: miter; stroke-linecap: square"/>
   </g>
   <g id="patch_10">
    <path d="M 155.467604 177.720156 
L 238.893802 177.720156 
" style="fill: none; stroke: #ffffff; stroke-width: 1.25; stroke-linejoin: miter; stroke-linecap: square"/>
   </g>
   <g id="patch_11">
    <path d="M 155.467604 21.789375 
L 238.893802 21.789375 
" style="fill: none; stroke: #ffffff; stroke-width: 1.25; stroke-linejoin: miter; stroke-linecap: square"/>
   </g>
   <g id="text_13">
    <!-- 18 -->
    <g style="fill: #262626" transform="translate(190.507578 15.789375) scale(0.12 -0.12)">
     <use xlink:href="#ArialMT-31"/>
     <use xlink:href="#ArialMT-38" x="55.615234"/>
    </g>
   </g>
  </g>
  <g id="axes_3">
   <g id="patch_12">
    <path d="M 257.853802 177.720156 
L 341.28 177.720156 
L 341.28 21.789375 
L 257.853802 21.789375 
z
" style="fill: #eaeaf2"/>
   </g>
   <g id="matplotlib.axis_5">
    <g id="xtick_5">
     <g id="text_14">
      <!-- FeS -->
      <g style="fill: #262626" transform="translate(261.671684 195.09375) scale(0.11 -0.11)">
       <use xlink:href="#ArialMT-46"/>
       <use xlink:href="#ArialMT-65" x="61.083984"/>
       <use xlink:href="#ArialMT-53" x="116.699219"/>
      </g>
     </g>
    </g>
    <g id="xtick_6">
     <g id="text_15">
      <!-- FeD -->
      <g style="fill: #262626" transform="translate(289.177057 195.09375) scale(0.11 -0.11)">
       <use xlink:href="#ArialMT-46"/>
       <use xlink:href="#ArialMT-65" x="61.083984"/>
       <use xlink:href="#ArialMT-44" x="116.699219"/>
      </g>
     </g>
    </g>
    <g id="xtick_7">
     <g id="text_16">
      <!-- FeR -->
      <g style="fill: #262626" transform="translate(316.98579 195.09375) scale(0.11 -0.11)">
       <use xlink:href="#ArialMT-46"/>
       <use xlink:href="#ArialMT-65" x="61.083984"/>
       <use xlink:href="#ArialMT-52" x="116.699219"/>
      </g>
     </g>
    </g>
   </g>
   <g id="matplotlib.axis_6">
    <g id="ytick_17">
     <g id="line2d_29">
      <path d="M 257.853802 174.434794 
L 341.28 174.434794 
" clip-path="url(#p6393307c2c)" style="fill: none; stroke: #ffffff; stroke-linecap: round"/>
     </g>
     <g id="line2d_30">
      <g>
       <use xlink:href="#m738684a376" x="257.853802" y="174.434794" style="fill: #808080; stroke: #808080; stroke-width: 1.25"/>
      </g>
     </g>
    </g>
    <g id="ytick_18">
     <g id="line2d_31">
      <path d="M 257.853802 149.596217 
L 341.28 149.596217 
" clip-path="url(#p6393307c2c)" style="fill: none; stroke: #ffffff; stroke-linecap: round"/>
     </g>
     <g id="line2d_32">
      <g>
       <use xlink:href="#m738684a376" x="257.853802" y="149.596217" style="fill: #808080; stroke: #808080; stroke-width: 1.25"/>
      </g>
     </g>
    </g>
    <g id="ytick_19">
     <g id="line2d_33">
      <path d="M 257.853802 130.329919 
L 341.28 130.329919 
" clip-path="url(#p6393307c2c)" style="fill: none; stroke: #ffffff; stroke-linecap: round"/>
     </g>
     <g id="line2d_34">
      <g>
       <use xlink:href="#m738684a376" x="257.853802" y="130.329919" style="fill: #808080; stroke: #808080; stroke-width: 1.25"/>
      </g>
     </g>
    </g>
    <g id="ytick_20">
     <g id="line2d_35">
      <path d="M 257.853802 95.32191 
L 341.28 95.32191 
" clip-path="url(#p6393307c2c)" style="fill: none; stroke: #ffffff; stroke-linecap: round"/>
     </g>
     <g id="line2d_36">
      <g>
       <use xlink:href="#m738684a376" x="257.853802" y="95.32191" style="fill: #808080; stroke: #808080; stroke-width: 1.25"/>
      </g>
     </g>
    </g>
    <g id="ytick_21">
     <g id="line2d_37">
      <path d="M 257.853802 70.483333 
L 341.28 70.483333 
" clip-path="url(#p6393307c2c)" style="fill: none; stroke: #ffffff; stroke-linecap: round"/>
     </g>
     <g id="line2d_38">
      <g>
       <use xlink:href="#m738684a376" x="257.853802" y="70.483333" style="fill: #808080; stroke: #808080; stroke-width: 1.25"/>
      </g>
     </g>
    </g>
    <g id="ytick_22">
     <g id="line2d_39">
      <path d="M 257.853802 35.475324 
L 341.28 35.475324 
" clip-path="url(#p6393307c2c)" style="fill: none; stroke: #ffffff; stroke-linecap: round"/>
     </g>
     <g id="line2d_40">
      <g>
       <use xlink:href="#m738684a376" x="257.853802" y="35.475324" style="fill: #808080; stroke: #808080; stroke-width: 1.25"/>
      </g>
     </g>
    </g>
    <g id="ytick_23">
     <g id="line2d_41">
      <g>
       <use xlink:href="#madb85ab52b" x="257.853802" y="161.125367" style="fill: #808080; stroke: #808080"/>
      </g>
     </g>
    </g>
    <g id="ytick_24">
     <g id="line2d_42">
      <g>
       <use xlink:href="#madb85ab52b" x="257.853802" y="139.426785" style="fill: #808080; stroke: #808080"/>
      </g>
     </g>
    </g>
   </g>
   <g id="PathCollection_5">
    <path d="M 272.378636 135.370624 
C 272.909042 135.370624 273.417796 135.159892 273.792849 134.784838 
C 274.167903 134.409784 274.378636 133.901031 274.378636 133.370624 
C 274.378636 132.840218 274.167903 132.331465 273.792849 131.956411 
C 273.417796 131.581357 272.909042 131.370624 272.378636 131.370624 
C 271.84823 131.370624 271.339476 131.581357 270.964422 131.956411 
C 270.589368 132.331465 270.378636 132.840218 270.378636 133.370624 
C 270.378636 133.901031 270.589368 134.409784 270.964422 134.784838 
C 271.339476 135.159892 271.84823 135.370624 272.378636 135.370624 
z
" clip-path="url(#p6393307c2c)" style="fill: #0173b2; fill-opacity: 0.2; stroke: #0173b2; stroke-opacity: 0.6; stroke-width: 0.75"/>
    <path d="M 272.856354 118.869086 
C 273.38676 118.869086 273.895513 118.658353 274.270567 118.2833 
C 274.645621 117.908246 274.856354 117.399492 274.856354 116.869086 
C 274.856354 116.33868 274.645621 115.829926 274.270567 115.454872 
C 273.895513 115.079819 273.38676 114.869086 272.856354 114.869086 
C 272.325947 114.869086 271.817194 115.079819 271.44214 115.454872 
C 271.067086 115.829926 270.856354 116.33868 270.856354 116.869086 
C 270.856354 117.399492 271.067086 117.908246 271.44214 118.2833 
C 271.817194 118.658353 272.325947 118.869086 272.856354 118.869086 
z
" clip-path="url(#p6393307c2c)" style="fill: #0173b2; fill-opacity: 0.2; stroke: #0173b2; stroke-opacity: 0.6; stroke-width: 0.75"/>
    <path d="M 272.655612 135.218177 
C 273.186018 135.218177 273.694772 135.007444 274.069826 134.63239 
C 274.444879 134.257336 274.655612 133.748583 274.655612 133.218177 
C 274.655612 132.68777 274.444879 132.179017 274.069826 131.803963 
C 273.694772 131.428909 273.186018 131.218177 272.655612 131.218177 
C 272.125206 131.218177 271.616452 131.428909 271.241399 131.803963 
C 270.866345 132.179017 270.655612 132.68777 270.655612 133.218177 
C 270.655612 133.748583 270.866345 134.257336 271.241399 134.63239 
C 271.616452 135.007444 272.125206 135.218177 272.655612 135.218177 
z
" clip-path="url(#p6393307c2c)" style="fill: #0173b2; fill-opacity: 0.2; stroke: #0173b2; stroke-opacity: 0.6; stroke-width: 0.75"/>
    <path d="M 273.974602 141.543033 
C 274.505008 141.543033 275.013762 141.332301 275.388816 140.957247 
C 275.763869 140.582193 275.974602 140.07344 275.974602 139.543033 
C 275.974602 139.012627 275.763869 138.503874 275.388816 138.12882 
C 275.013762 137.753766 274.505008 137.543033 273.974602 137.543033 
C 273.444196 137.543033 272.935442 137.753766 272.560388 138.12882 
C 272.185335 138.503874 271.974602 139.012627 271.974602 139.543033 
C 271.974602 140.07344 272.185335 140.582193 272.560388 140.957247 
C 272.935442 141.332301 273.444196 141.543033 273.974602 141.543033 
z
" clip-path="url(#p6393307c2c)" style="fill: #0173b2; fill-opacity: 0.2; stroke: #0173b2; stroke-opacity: 0.6; stroke-width: 0.75"/>
    <path d="M 276.651615 135.223703 
C 277.182021 135.223703 277.690775 135.01297 278.065829 134.637916 
C 278.440882 134.262862 278.651615 133.754109 278.651615 133.223703 
C 278.651615 132.693297 278.440882 132.184543 278.065829 131.809489 
C 277.690775 131.434435 277.182021 131.223703 276.651615 131.223703 
C 276.121209 131.223703 275.612455 131.434435 275.237401 131.809489 
C 274.862348 132.184543 274.651615 132.693297 274.651615 133.223703 
C 274.651615 133.754109 274.862348 134.262862 275.237401 134.637916 
C 275.612455 135.01297 276.121209 135.223703 276.651615 135.223703 
z
" clip-path="url(#p6393307c2c)" style="fill: #0173b2; fill-opacity: 0.2; stroke: #0173b2; stroke-opacity: 0.6; stroke-width: 0.75"/>
    <path d="M 273.485525 137.890836 
C 274.015931 137.890836 274.524685 137.680104 274.899739 137.30505 
C 275.274793 136.929996 275.485525 136.421243 275.485525 135.890836 
C 275.485525 135.36043 275.274793 134.851677 274.899739 134.476623 
C 274.524685 134.101569 274.015931 133.890836 273.485525 133.890836 
C 272.955119 133.890836 272.446365 134.101569 272.071312 134.476623 
C 271.696258 134.851677 271.485525 135.36043 271.485525 135.890836 
C 271.485525 136.421243 271.696258 136.929996 272.071312 137.30505 
C 272.446365 137.680104 272.955119 137.890836 273.485525 137.890836 
z
" clip-path="url(#p6393307c2c)" style="fill: #0173b2; fill-opacity: 0.2; stroke: #0173b2; stroke-opacity: 0.6; stroke-width: 0.75"/>
    <path d="M 274.530448 124.467572 
C 275.060854 124.467572 275.569608 124.25684 275.944661 123.881786 
C 276.319715 123.506732 276.530448 122.997978 276.530448 122.467572 
C 276.530448 121.937166 276.319715 121.428412 275.944661 121.053359 
C 275.569608 120.678305 275.060854 120.467572 274.530448 120.467572 
C 274.000042 120.467572 273.491288 120.678305 273.116234 121.053359 
C 272.74118 121.428412 272.530448 121.937166 272.530448 122.467572 
C 272.530448 122.997978 272.74118 123.506732 273.116234 123.881786 
C 273.491288 124.25684 274.000042 124.467572 274.530448 124.467572 
z
" clip-path="url(#p6393307c2c)" style="fill: #0173b2; fill-opacity: 0.2; stroke: #0173b2; stroke-opacity: 0.6; stroke-width: 0.75"/>
    <path d="M 276.015255 115.747675 
C 276.545661 115.747675 277.054415 115.536942 277.429469 115.161888 
C 277.804523 114.786834 278.015255 114.278081 278.015255 113.747675 
C 278.015255 113.217268 277.804523 112.708515 277.429469 112.333461 
C 277.054415 111.958407 276.545661 111.747675 276.015255 111.747675 
C 275.484849 111.747675 274.976095 111.958407 274.601042 112.333461 
C 274.225988 112.708515 274.015255 113.217268 274.015255 113.747675 
C 274.015255 114.278081 274.225988 114.786834 274.601042 115.161888 
C 274.976095 115.536942 275.484849 115.747675 276.015255 115.747675 
z
" clip-path="url(#p6393307c2c)" style="fill: #0173b2; fill-opacity: 0.2; stroke: #0173b2; stroke-opacity: 0.6; stroke-width: 0.75"/>
    <path d="M 273.184206 103.918877 
C 273.714612 103.918877 274.223366 103.708144 274.598419 103.333091 
C 274.973473 102.958037 275.184206 102.449283 275.184206 101.918877 
C 275.184206 101.388471 274.973473 100.879717 274.598419 100.504663 
C 274.223366 100.12961 273.714612 99.918877 273.184206 99.918877 
C 272.6538 99.918877 272.145046 100.12961 271.769992 100.504663 
C 271.394939 100.879717 271.184206 101.388471 271.184206 101.918877 
C 271.184206 102.449283 271.394939 102.958037 271.769992 103.333091 
C 272.145046 103.708144 272.6538 103.918877 273.184206 103.918877 
z
" clip-path="url(#p6393307c2c)" style="fill: #0173b2; fill-opacity: 0.2; stroke: #0173b2; stroke-opacity: 0.6; stroke-width: 0.75"/>
    <path d="M 275.047255 172.632393 
C 275.577661 172.632393 276.086415 172.421661 276.461469 172.046607 
C 276.836523 171.671553 277.047255 171.1628 277.047255 170.632393 
C 277.047255 170.101987 276.836523 169.593234 276.461469 169.21818 
C 276.086415 168.843126 275.577661 168.632393 275.047255 168.632393 
C 274.516849 168.632393 274.008095 168.843126 273.633042 169.21818 
C 273.257988 169.593234 273.047255 170.101987 273.047255 170.632393 
C 273.047255 171.1628 273.257988 171.671553 273.633042 172.046607 
C 274.008095 172.421661 274.516849 172.632393 275.047255 172.632393 
z
" clip-path="url(#p6393307c2c)" style="fill: #0173b2; fill-opacity: 0.2; stroke: #0173b2; stroke-opacity: 0.6; stroke-width: 0.75"/>
    <path d="M 273.793273 154.718455 
C 274.323679 154.718455 274.832433 154.507722 275.207486 154.132668 
C 275.58254 153.757615 275.793273 153.248861 275.793273 152.718455 
C 275.793273 152.188049 275.58254 151.679295 275.207486 151.304241 
C 274.832433 150.929188 274.323679 150.718455 273.793273 150.718455 
C 273.262867 150.718455 272.754113 150.929188 272.379059 151.304241 
C 272.004005 151.679295 271.793273 152.188049 271.793273 152.718455 
C 271.793273 153.248861 272.004005 153.757615 272.379059 154.132668 
C 272.754113 154.507722 273.262867 154.718455 273.793273 154.718455 
z
" clip-path="url(#p6393307c2c)" style="fill: #0173b2; fill-opacity: 0.2; stroke: #0173b2; stroke-opacity: 0.6; stroke-width: 0.75"/>
    <path d="M 272.323953 130.381329 
C 272.854359 130.381329 273.363113 130.170597 273.738167 129.795543 
C 274.113221 129.420489 274.323953 128.911736 274.323953 128.381329 
C 274.323953 127.850923 274.113221 127.34217 273.738167 126.967116 
C 273.363113 126.592062 272.854359 126.381329 272.323953 126.381329 
C 271.793547 126.381329 271.284793 126.592062 270.90974 126.967116 
C 270.534686 127.34217 270.323953 127.850923 270.323953 128.381329 
C 270.323953 128.911736 270.534686 129.420489 270.90974 129.795543 
C 271.284793 130.170597 271.793547 130.381329 272.323953 130.381329 
z
" clip-path="url(#p6393307c2c)" style="fill: #0173b2; fill-opacity: 0.2; stroke: #0173b2; stroke-opacity: 0.6; stroke-width: 0.75"/>
    <path d="M 275.855218 134.218739 
C 276.385624 134.218739 276.894378 134.008007 277.269431 133.632953 
C 277.644485 133.257899 277.855218 132.749146 277.855218 132.218739 
C 277.855218 131.688333 277.644485 131.17958 277.269431 130.804526 
C 276.894378 130.429472 276.385624 130.218739 275.855218 130.218739 
C 275.324812 130.218739 274.816058 130.429472 274.441004 130.804526 
C 274.065951 131.17958 273.855218 131.688333 273.855218 132.218739 
C 273.855218 132.749146 274.065951 133.257899 274.441004 133.632953 
C 274.816058 134.008007 275.324812 134.218739 275.855218 134.218739 
z
" clip-path="url(#p6393307c2c)" style="fill: #0173b2; fill-opacity: 0.2; stroke: #0173b2; stroke-opacity: 0.6; stroke-width: 0.75"/>
    <path d="M 276.725199 132.432415 
C 277.255605 132.432415 277.764359 132.221682 278.139413 131.846629 
C 278.514466 131.471575 278.725199 130.962821 278.725199 130.432415 
C 278.725199 129.902009 278.514466 129.393255 278.139413 129.018201 
C 277.764359 128.643148 277.255605 128.432415 276.725199 128.432415 
C 276.194793 128.432415 275.686039 128.643148 275.310985 129.018201 
C 274.935932 129.393255 274.725199 129.902009 274.725199 130.432415 
C 274.725199 130.962821 274.935932 131.471575 275.310985 131.846629 
C 275.686039 132.221682 276.194793 132.432415 276.725199 132.432415 
z
" clip-path="url(#p6393307c2c)" style="fill: #0173b2; fill-opacity: 0.2; stroke: #0173b2; stroke-opacity: 0.6; stroke-width: 0.75"/>
    <path d="M 276.241888 156.633098 
C 276.772294 156.633098 277.281048 156.422365 277.656102 156.047312 
C 278.031156 155.672258 278.241888 155.163504 278.241888 154.633098 
C 278.241888 154.102692 278.031156 153.593938 277.656102 153.218884 
C 277.281048 152.843831 276.772294 152.633098 276.241888 152.633098 
C 275.711482 152.633098 275.202728 152.843831 274.827675 153.218884 
C 274.452621 153.593938 274.241888 154.102692 274.241888 154.633098 
C 274.241888 155.163504 274.452621 155.672258 274.827675 156.047312 
C 275.202728 156.422365 275.711482 156.633098 276.241888 156.633098 
z
" clip-path="url(#p6393307c2c)" style="fill: #0173b2; fill-opacity: 0.2; stroke: #0173b2; stroke-opacity: 0.6; stroke-width: 0.75"/>
    <path d="M 276.531077 98.142431 
C 277.061484 98.142431 277.570237 97.931698 277.945291 97.556644 
C 278.320345 97.181591 278.531077 96.672837 278.531077 96.142431 
C 278.531077 95.612025 278.320345 95.103271 277.945291 94.728217 
C 277.570237 94.353164 277.061484 94.142431 276.531077 94.142431 
C 276.000671 94.142431 275.491918 94.353164 275.116864 94.728217 
C 274.74181 95.103271 274.531077 95.612025 274.531077 96.142431 
C 274.531077 96.672837 274.74181 97.181591 275.116864 97.556644 
C 275.491918 97.931698 276.000671 98.142431 276.531077 98.142431 
z
" clip-path="url(#p6393307c2c)" style="fill: #0173b2; fill-opacity: 0.2; stroke: #0173b2; stroke-opacity: 0.6; stroke-width: 0.75"/>
    <path d="M 274.704918 156.079192 
C 275.235324 156.079192 275.744078 155.868459 276.119131 155.493405 
C 276.494185 155.118351 276.704918 154.609598 276.704918 154.079192 
C 276.704918 153.548785 276.494185 153.040032 276.119131 152.664978 
C 275.744078 152.289924 275.235324 152.079192 274.704918 152.079192 
C 274.174512 152.079192 273.665758 152.289924 273.290704 152.664978 
C 272.91565 153.040032 272.704918 153.548785 272.704918 154.079192 
C 272.704918 154.609598 272.91565 155.118351 273.290704 155.493405 
C 273.665758 155.868459 274.174512 156.079192 274.704918 156.079192 
z
" clip-path="url(#p6393307c2c)" style="fill: #0173b2; fill-opacity: 0.2; stroke: #0173b2; stroke-opacity: 0.6; stroke-width: 0.75"/>
    <path d="M 273.094252 131.182105 
C 273.624658 131.182105 274.133412 130.971372 274.508466 130.596318 
C 274.883519 130.221264 275.094252 129.712511 275.094252 129.182105 
C 275.094252 128.651698 274.883519 128.142945 274.508466 127.767891 
C 274.133412 127.392837 273.624658 127.182105 273.094252 127.182105 
C 272.563846 127.182105 272.055092 127.392837 271.680038 127.767891 
C 271.304985 128.142945 271.094252 128.651698 271.094252 129.182105 
C 271.094252 129.712511 271.304985 130.221264 271.680038 130.596318 
C 272.055092 130.971372 272.563846 131.182105 273.094252 131.182105 
z
" clip-path="url(#p6393307c2c)" style="fill: #0173b2; fill-opacity: 0.2; stroke: #0173b2; stroke-opacity: 0.6; stroke-width: 0.75"/>
    <path d="M 275.639906 131.408328 
C 276.170312 131.408328 276.679065 131.197595 277.054119 130.822541 
C 277.429173 130.447488 277.639906 129.938734 277.639906 129.408328 
C 277.639906 128.877922 277.429173 128.369168 277.054119 127.994114 
C 276.679065 127.619061 276.170312 127.408328 275.639906 127.408328 
C 275.1095 127.408328 274.600746 127.619061 274.225692 127.994114 
C 273.850638 128.369168 273.639906 128.877922 273.639906 129.408328 
C 273.639906 129.938734 273.850638 130.447488 274.225692 130.822541 
C 274.600746 131.197595 275.1095 131.408328 275.639906 131.408328 
z
" clip-path="url(#p6393307c2c)" style="fill: #0173b2; fill-opacity: 0.2; stroke: #0173b2; stroke-opacity: 0.6; stroke-width: 0.75"/>
    <path d="M 276.273801 134.437438 
C 276.804207 134.437438 277.312961 134.226706 277.688014 133.851652 
C 278.063068 133.476598 278.273801 132.967845 278.273801 132.437438 
C 278.273801 131.907032 278.063068 131.398279 277.688014 131.023225 
C 277.312961 130.648171 276.804207 130.437438 276.273801 130.437438 
C 275.743395 130.437438 275.234641 130.648171 274.859587 131.023225 
C 274.484534 131.398279 274.273801 131.907032 274.273801 132.437438 
C 274.273801 132.967845 274.484534 133.476598 274.859587 133.851652 
C 275.234641 134.226706 275.743395 134.437438 276.273801 134.437438 
z
" clip-path="url(#p6393307c2c)" style="fill: #0173b2; fill-opacity: 0.2; stroke: #0173b2; stroke-opacity: 0.6; stroke-width: 0.75"/>
    <path d="M 299.176909 32.246032 
L 303.176909 32.246032 
L 303.176909 28.246032 
L 299.176909 28.246032 
z
" clip-path="url(#p6393307c2c)" style="fill: #de8f05; fill-opacity: 0.2; stroke: #de8f05; stroke-opacity: 0.6; stroke-width: 0.75"/>
    <path d="M 300.031161 35.533268 
L 304.031161 35.533268 
L 304.031161 31.533268 
L 300.031161 31.533268 
z
" clip-path="url(#p6393307c2c)" style="fill: #de8f05; fill-opacity: 0.2; stroke: #de8f05; stroke-opacity: 0.6; stroke-width: 0.75"/>
    <path d="M 299.073418 30.877138 
L 303.073418 30.877138 
L 303.073418 26.877138 
L 299.073418 26.877138 
z
" clip-path="url(#p6393307c2c)" style="fill: #de8f05; fill-opacity: 0.2; stroke: #de8f05; stroke-opacity: 0.6; stroke-width: 0.75"/>
    <path d="M 300.188139 37.430107 
L 304.188139 37.430107 
L 304.188139 33.430107 
L 300.188139 33.430107 
z
" clip-path="url(#p6393307c2c)" style="fill: #de8f05; fill-opacity: 0.2; stroke: #de8f05; stroke-opacity: 0.6; stroke-width: 0.75"/>
    <path d="M 298.919252 104.871216 
L 302.919252 104.871216 
L 302.919252 100.871216 
L 298.919252 100.871216 
z
" clip-path="url(#p6393307c2c)" style="fill: #de8f05; fill-opacity: 0.2; stroke: #de8f05; stroke-opacity: 0.6; stroke-width: 0.75"/>
    <path d="M 299.859343 69.309536 
L 303.859343 69.309536 
L 303.859343 65.309536 
L 299.859343 65.309536 
z
" clip-path="url(#p6393307c2c)" style="fill: #de8f05; fill-opacity: 0.2; stroke: #de8f05; stroke-opacity: 0.6; stroke-width: 0.75"/>
    <path d="M 298.547699 121.629277 
L 302.547699 121.629277 
L 302.547699 117.629277 
L 298.547699 117.629277 
z
" clip-path="url(#p6393307c2c)" style="fill: #de8f05; fill-opacity: 0.2; stroke: #de8f05; stroke-opacity: 0.6; stroke-width: 0.75"/>
    <path d="M 299.919128 104.943032 
L 303.919128 104.943032 
L 303.919128 100.943032 
L 299.919128 100.943032 
z
" clip-path="url(#p6393307c2c)" style="fill: #de8f05; fill-opacity: 0.2; stroke: #de8f05; stroke-opacity: 0.6; stroke-width: 0.75"/>
    <path d="M 302.219792 113.680438 
L 306.219792 113.680438 
L 306.219792 109.680438 
L 302.219792 109.680438 
z
" clip-path="url(#p6393307c2c)" style="fill: #de8f05; fill-opacity: 0.2; stroke: #de8f05; stroke-opacity: 0.6; stroke-width: 0.75"/>
    <path d="M 302.270448 101.037902 
L 306.270448 101.037902 
L 306.270448 97.037902 
L 302.270448 97.037902 
z
" clip-path="url(#p6393307c2c)" style="fill: #de8f05; fill-opacity: 0.2; stroke: #de8f05; stroke-opacity: 0.6; stroke-width: 0.75"/>
    <path d="M 299.149732 102.873605 
L 303.149732 102.873605 
L 303.149732 98.873605 
L 299.149732 98.873605 
z
" clip-path="url(#p6393307c2c)" style="fill: #de8f05; fill-opacity: 0.2; stroke: #de8f05; stroke-opacity: 0.6; stroke-width: 0.75"/>
    <path d="M 300.358269 94.946133 
L 304.358269 94.946133 
L 304.358269 90.946133 
L 300.358269 90.946133 
z
" clip-path="url(#p6393307c2c)" style="fill: #de8f05; fill-opacity: 0.2; stroke: #de8f05; stroke-opacity: 0.6; stroke-width: 0.75"/>
    <path d="M 301.737655 104.014312 
L 305.737655 104.014312 
L 305.737655 100.014312 
L 301.737655 100.014312 
z
" clip-path="url(#p6393307c2c)" style="fill: #de8f05; fill-opacity: 0.2; stroke: #de8f05; stroke-opacity: 0.6; stroke-width: 0.75"/>
    <path d="M 302.370729 113.320532 
L 306.370729 113.320532 
L 306.370729 109.320532 
L 302.370729 109.320532 
z
" clip-path="url(#p6393307c2c)" style="fill: #de8f05; fill-opacity: 0.2; stroke: #de8f05; stroke-opacity: 0.6; stroke-width: 0.75"/>
    <path d="M 298.291899 69.272015 
L 302.291899 69.272015 
L 302.291899 65.272015 
L 298.291899 65.272015 
z
" clip-path="url(#p6393307c2c)" style="fill: #de8f05; fill-opacity: 0.2; stroke: #de8f05; stroke-opacity: 0.6; stroke-width: 0.75"/>
    <path d="M 298.500219 59.573584 
L 302.500219 59.573584 
L 302.500219 55.573584 
L 298.500219 55.573584 
z
" clip-path="url(#p6393307c2c)" style="fill: #de8f05; fill-opacity: 0.2; stroke: #de8f05; stroke-opacity: 0.6; stroke-width: 0.75"/>
    <path d="M 330.614245 135.552565 
L 328.614245 139.552565 
L 332.614245 139.552565 
z
" clip-path="url(#p6393307c2c)" style="fill: #029e73; fill-opacity: 0.2; stroke: #029e73; stroke-opacity: 0.6; stroke-width: 0.75"/>
    <path d="M 329.829192 139.07635 
L 327.829192 143.07635 
L 331.829192 143.07635 
z
" clip-path="url(#p6393307c2c)" style="fill: #029e73; fill-opacity: 0.2; stroke: #029e73; stroke-opacity: 0.6; stroke-width: 0.75"/>
    <path d="M 332.311592 117.7372 
L 330.311592 121.7372 
L 334.311592 121.7372 
z
" clip-path="url(#p6393307c2c)" style="fill: #029e73; fill-opacity: 0.2; stroke: #029e73; stroke-opacity: 0.6; stroke-width: 0.75"/>
    <path d="M 329.700206 116.478697 
L 327.700206 120.478697 
L 331.700206 120.478697 
z
" clip-path="url(#p6393307c2c)" style="fill: #029e73; fill-opacity: 0.2; stroke: #029e73; stroke-opacity: 0.6; stroke-width: 0.75"/>
    <path d="M 328.780079 107.379561 
L 326.780079 111.379561 
L 330.780079 111.379561 
z
" clip-path="url(#p6393307c2c)" style="fill: #029e73; fill-opacity: 0.2; stroke: #029e73; stroke-opacity: 0.6; stroke-width: 0.75"/>
    <path d="M 330.653571 130.188111 
L 328.653571 134.188111 
L 332.653571 134.188111 
z
" clip-path="url(#p6393307c2c)" style="fill: #029e73; fill-opacity: 0.2; stroke: #029e73; stroke-opacity: 0.6; stroke-width: 0.75"/>
    <path d="M 329.859494 126.047515 
L 327.859494 130.047515 
L 331.859494 130.047515 
z
" clip-path="url(#p6393307c2c)" style="fill: #029e73; fill-opacity: 0.2; stroke: #029e73; stroke-opacity: 0.6; stroke-width: 0.75"/>
    <path d="M 329.989444 108.176191 
L 327.989444 112.176191 
L 331.989444 112.176191 
z
" clip-path="url(#p6393307c2c)" style="fill: #029e73; fill-opacity: 0.2; stroke: #029e73; stroke-opacity: 0.6; stroke-width: 0.75"/>
    <path d="M 330.859096 122.625114 
L 328.859096 126.625114 
L 332.859096 126.625114 
z
" clip-path="url(#p6393307c2c)" style="fill: #029e73; fill-opacity: 0.2; stroke: #029e73; stroke-opacity: 0.6; stroke-width: 0.75"/>
    <path d="M 329.056381 137.296368 
L 327.056381 141.296368 
L 331.056381 141.296368 
z
" clip-path="url(#p6393307c2c)" style="fill: #029e73; fill-opacity: 0.2; stroke: #029e73; stroke-opacity: 0.6; stroke-width: 0.75"/>
    <path d="M 329.454459 158.485525 
L 327.454459 162.485525 
L 331.454459 162.485525 
z
" clip-path="url(#p6393307c2c)" style="fill: #029e73; fill-opacity: 0.2; stroke: #029e73; stroke-opacity: 0.6; stroke-width: 0.75"/>
    <path d="M 330.302562 143.057188 
L 328.302562 147.057188 
L 332.302562 147.057188 
z
" clip-path="url(#p6393307c2c)" style="fill: #029e73; fill-opacity: 0.2; stroke: #029e73; stroke-opacity: 0.6; stroke-width: 0.75"/>
    <path d="M 332.142165 145.042247 
L 330.142165 149.042247 
L 334.142165 149.042247 
z
" clip-path="url(#p6393307c2c)" style="fill: #029e73; fill-opacity: 0.2; stroke: #029e73; stroke-opacity: 0.6; stroke-width: 0.75"/>
    <path d="M 327.969023 101.837775 
L 325.969023 105.837775 
L 329.969023 105.837775 
z
" clip-path="url(#p6393307c2c)" style="fill: #029e73; fill-opacity: 0.2; stroke: #029e73; stroke-opacity: 0.6; stroke-width: 0.75"/>
    <path d="M 330.875502 92.621181 
L 328.875502 96.621181 
L 332.875502 96.621181 
z
" clip-path="url(#p6393307c2c)" style="fill: #029e73; fill-opacity: 0.2; stroke: #029e73; stroke-opacity: 0.6; stroke-width: 0.75"/>
   </g>
   <g id="PathCollection_6">
    <path d="M 268.977295 135.025775 
C 269.772904 135.025775 270.536035 134.709676 271.098615 134.147096 
C 271.661196 133.584515 271.977295 132.821385 271.977295 132.025775 
C 271.977295 131.230166 271.661196 130.467036 271.098615 129.904455 
C 270.536035 129.341874 269.772904 129.025775 268.977295 129.025775 
C 268.181686 129.025775 267.418556 129.341874 266.855975 129.904455 
C 266.293394 130.467036 265.977295 131.230166 265.977295 132.025775 
C 265.977295 132.821385 266.293394 133.584515 266.855975 134.147096 
C 267.418556 134.709676 268.181686 135.025775 268.977295 135.025775 
z
" clip-path="url(#p6393307c2c)" style="fill: #0173b2; stroke: #0173b2; stroke-width: 0.5"/>
    <path d="M 293.786028 81.972383 
L 299.786028 81.972383 
L 299.786028 75.972383 
L 293.786028 75.972383 
z
" clip-path="url(#p6393307c2c)" style="fill: #de8f05; stroke: #de8f05; stroke-width: 0.5"/>
    <path d="M 324.59476 124.440106 
L 321.59476 130.440106 
L 327.59476 130.440106 
z
" clip-path="url(#p6393307c2c)" style="fill: #029e73; stroke: #029e73; stroke-width: 0.5"/>
   </g>
   <g id="LineCollection_3">
    <path d="M 268.977295 149.606257 
L 268.977295 114.445293 
" clip-path="url(#p6393307c2c)" style="fill: none; stroke: #0173b2; stroke-width: 1.5; stroke-linecap: square"/>
    <path d="M 296.786028 111.732823 
L 296.786028 46.211943 
" clip-path="url(#p6393307c2c)" style="fill: none; stroke: #de8f05; stroke-width: 1.5; stroke-linecap: square"/>
    <path d="M 324.59476 145.653604 
L 324.59476 109.226607 
" clip-path="url(#p6393307c2c)" style="fill: none; stroke: #029e73; stroke-width: 1.5; stroke-linecap: square"/>
   </g>
   <g id="patch_13">
    <path d="M 257.853802 177.720156 
L 257.853802 21.789375 
" style="fill: none; stroke: #ffffff; stroke-width: 1.25; stroke-linejoin: miter; stroke-linecap: square"/>
   </g>
   <g id="patch_14">
    <path d="M 341.28 177.720156 
L 341.28 21.789375 
" style="fill: none; stroke: #ffffff; stroke-width: 1.25; stroke-linejoin: miter; stroke-linecap: square"/>
   </g>
   <g id="patch_15">
    <path d="M 257.853802 177.720156 
L 341.28 177.720156 
" style="fill: none; stroke: #ffffff; stroke-width: 1.25; stroke-linejoin: miter; stroke-linecap: square"/>
   </g>
   <g id="patch_16">
    <path d="M 257.853802 21.789375 
L 341.28 21.789375 
" style="fill: none; stroke: #ffffff; stroke-width: 1.25; stroke-linejoin: miter; stroke-linecap: square"/>
   </g>
   <g id="text_17">
    <!-- 21 -->
    <g style="fill: #262626" transform="translate(292.893776 15.789375) scale(0.12 -0.12)">
     <use xlink:href="#ArialMT-32"/>
     <use xlink:href="#ArialMT-31" x="55.615234"/>
    </g>
   </g>
  </g>
  <g id="legend_1">
   <g id="patch_17">
    <path d="M 360.5 118.906953 
L 416.479688 118.906953 
Q 418.679688 118.906953 418.679688 116.706953 
L 418.679688 54.653047 
Q 418.679688 52.453047 416.479688 52.453047 
L 360.5 52.453047 
Q 358.3 52.453047 358.3 54.653047 
L 358.3 116.706953 
Q 358.3 118.906953 360.5 118.906953 
z
" style="fill: #eaeaf2; opacity: 0.8; stroke: #cccccc; stroke-linejoin: miter"/>
   </g>
   <g id="text_18">
    <!-- tx -->
    <g style="fill: #262626" transform="translate(383.822969 65.442422) scale(0.12 -0.12)">
     <defs>
      <path id="ArialMT-78" d="M 47 0 
L 1259 1725 
L 138 3319 
L 841 3319 
L 1350 2541 
Q 1494 2319 1581 2169 
Q 1719 2375 1834 2534 
L 2394 3319 
L 3066 3319 
L 1919 1756 
L 3153 0 
L 2463 0 
L 1781 1031 
L 1600 1309 
L 728 0 
L 47 0 
z
" transform="scale(0.015625)"/>
     </defs>
     <use xlink:href="#ArialMT-74"/>
     <use xlink:href="#ArialMT-78" x="27.783203"/>
    </g>
   </g>
   <g id="PathCollection_7">
    <defs>
     <path id="m6853f84eae" d="M 0 2 
C 0.530406 2 1.03916 1.789267 1.414214 1.414214 
C 1.789267 1.03916 2 0.530406 2 0 
C 2 -0.530406 1.789267 -1.03916 1.414214 -1.414214 
C 1.03916 -1.789267 0.530406 -2 0 -2 
C -0.530406 -2 -1.03916 -1.789267 -1.414214 -1.414214 
C -1.789267 -1.03916 -2 -0.530406 -2 0 
C -2 0.530406 -1.789267 1.03916 -1.414214 1.414214 
C -1.03916 1.789267 -0.530406 2 0 2 
z
" style="stroke: #0173b2; stroke-opacity: 0.6; stroke-width: 0.75"/>
    </defs>
    <g>
     <use xlink:href="#m6853f84eae" x="373.7" y="78.313516" style="fill: #0173b2; fill-opacity: 0.2; stroke: #0173b2; stroke-opacity: 0.6; stroke-width: 0.75"/>
    </g>
   </g>
   <g id="PathCollection_8">
    <defs>
     <path id="m9082c50b4f" d="M 0 3 
C 0.795609 3 1.55874 2.683901 2.12132 2.12132 
C 2.683901 1.55874 3 0.795609 3 0 
C 3 -0.795609 2.683901 -1.55874 2.12132 -2.12132 
C 1.55874 -2.683901 0.795609 -3 0 -3 
C -0.795609 -3 -1.55874 -2.683901 -2.12132 -2.12132 
C -2.683901 -1.55874 -3 -0.795609 -3 0 
C -3 0.795609 -2.683901 1.55874 -2.12132 2.12132 
C -1.55874 2.683901 -0.795609 3 0 3 
z
" style="stroke: #0173b2; stroke-width: 0.5"/>
    </defs>
    <g>
     <use xlink:href="#m9082c50b4f" x="373.7" y="78.313516" style="fill: #0173b2; stroke: #0173b2; stroke-width: 0.5"/>
    </g>
   </g>
   <g id="text_19">
    <!-- FeS -->
    <g style="fill: #262626" transform="translate(393.5 81.201016) scale(0.11 -0.11)">
     <use xlink:href="#ArialMT-46"/>
     <use xlink:href="#ArialMT-65" x="61.083984"/>
     <use xlink:href="#ArialMT-53" x="116.699219"/>
    </g>
   </g>
   <g id="PathCollection_9">
    <defs>
     <path id="m645b956fdc" d="M -2 2 
L 2 2 
L 2 -2 
L -2 -2 
z
" style="stroke: #de8f05; stroke-opacity: 0.6; stroke-width: 0.75"/>
    </defs>
    <g>
     <use xlink:href="#m645b956fdc" x="373.7" y="93.873359" style="fill: #de8f05; fill-opacity: 0.2; stroke: #de8f05; stroke-opacity: 0.6; stroke-width: 0.75"/>
    </g>
   </g>
   <g id="PathCollection_10">
    <defs>
     <path id="m91c1973c68" d="M -3 3 
L 3 3 
L 3 -3 
L -3 -3 
z
" style="stroke: #de8f05; stroke-width: 0.5"/>
    </defs>
    <g>
     <use xlink:href="#m91c1973c68" x="373.7" y="93.873359" style="fill: #de8f05; stroke: #de8f05; stroke-width: 0.5"/>
    </g>
   </g>
   <g id="text_20">
    <!-- FeD -->
    <g style="fill: #262626" transform="translate(393.5 96.760859) scale(0.11 -0.11)">
     <use xlink:href="#ArialMT-46"/>
     <use xlink:href="#ArialMT-65" x="61.083984"/>
     <use xlink:href="#ArialMT-44" x="116.699219"/>
    </g>
   </g>
   <g id="PathCollection_11">
    <defs>
     <path id="m4946adad8e" d="M 0 -2 
L -2 2 
L 2 2 
z
" style="stroke: #029e73; stroke-opacity: 0.6; stroke-width: 0.75"/>
    </defs>
    <g>
     <use xlink:href="#m4946adad8e" x="373.7" y="109.433203" style="fill: #029e73; fill-opacity: 0.2; stroke: #029e73; stroke-opacity: 0.6; stroke-width: 0.75"/>
    </g>
   </g>
   <g id="PathCollection_12">
    <defs>
     <path id="mc6f417b108" d="M 0 -3 
L -3 3 
L 3 3 
z
" style="stroke: #029e73; stroke-width: 0.5"/>
    </defs>
    <g>
     <use xlink:href="#mc6f417b108" x="373.7" y="109.433203" style="fill: #029e73; stroke: #029e73; stroke-width: 0.5"/>
    </g>
   </g>
   <g id="text_21">
    <!-- FeR -->
    <g style="fill: #262626" transform="translate(393.5 112.320703) scale(0.11 -0.11)">
     <use xlink:href="#ArialMT-46"/>
     <use xlink:href="#ArialMT-65" x="61.083984"/>
     <use xlink:href="#ArialMT-52" x="116.699219"/>
    </g>
   </g>
  </g>
 </g>
 <defs>
  <clipPath id="p80cf46df99">
   <rect x="53.081406" y="21.789375" width="83.426198" height="155.930781"/>
  </clipPath>
  <clipPath id="pd32c3e6c34">
   <rect x="155.467604" y="21.789375" width="83.426198" height="155.930781"/>
  </clipPath>
  <clipPath id="p6393307c2c">
   <rect x="257.853802" y="21.789375" width="83.426198" height="155.930781"/>
  </clipPath>
 </defs>
</svg>
