<?xml version="1.0" encoding="utf-8" standalone="no"?>
<!DOCTYPE svg PUBLIC "-//W3C//DTD SVG 1.1//EN"
  "http://www.w3.org/Graphics/SVG/1.1/DTD/svg11.dtd">
<svg xmlns:xlink="http://www.w3.org/1999/xlink" width="243.719687pt" height="204.48pt" viewBox="0 0 243.719687 204.48" xmlns="http://www.w3.org/2000/svg" version="1.1">
 <metadata>
  <rdf:RDF xmlns:dc="http://purl.org/dc/elements/1.1/" xmlns:cc="http://creativecommons.org/ns#" xmlns:rdf="http://www.w3.org/1999/02/22-rdf-syntax-ns#">
   <cc:Work>
    <dc:type rdf:resource="http://purl.org/dc/dcmitype/StillImage"/>
    <dc:date>2023-06-09T14:25:18.685455</dc:date>
    <dc:format>image/svg+xml</dc:format>
    <dc:creator>
     <cc:Agent>
      <dc:title>Matplotlib v3.6.2, https://matplotlib.org/</dc:title>
     </cc:Agent>
    </dc:creator>
   </cc:Work>
  </rdf:RDF>
 </metadata>
 <defs>
  <style type="text/css">*{stroke-linejoin: round; stroke-linecap: butt}</style>
 </defs>
 <g id="figure_1">
  <g id="patch_1">
   <path d="M 0 204.48 
L 243.719687 204.48 
L 243.719687 0 
L 0 0 
z
" style="fill: #ffffff"/>
  </g>
  <g id="axes_1">
   <g id="patch_2">
    <path d="M 46.964375 177.720156 
L 161.28 177.720156 
L 161.28 7.2 
L 46.964375 7.2 
z
" style="fill: #eaeaf2"/>
   </g>
   <g id="matplotlib.axis_1">
    <g id="xtick_1">
     <g id="text_1">
      <text style="fill: #262626; font: 11px 'Arial', 'DejaVu Sans', 'Liberation Sans', 'Bitstream Vera Sans', sans-serif; text-anchor: middle" x="66.016979" y="195.09375" transform="rotate(-0 66.016979 195.09375)">FeS</text>
     </g>
    </g>
    <g id="xtick_2">
     <g id="text_2">
      <text style="fill: #262626; font: 11px 'Arial', 'DejaVu Sans', 'Liberation Sans', 'Bitstream Vera Sans', sans-serif; text-anchor: middle" x="104.122188" y="195.09375" transform="rotate(-0 104.122188 195.09375)">FeD</text>
     </g>
    </g>
    <g id="xtick_3">
     <g id="text_3">
      <text style="fill: #262626; font: 11px 'Arial', 'DejaVu Sans', 'Liberation Sans', 'Bitstream Vera Sans', sans-serif; text-anchor: middle" x="142.227396" y="195.09375" transform="rotate(-0 142.227396 195.09375)">FeR</text>
     </g>
    </g>
   </g>
   <g id="matplotlib.axis_2">
    <g id="ytick_1">
     <g id="line2d_1">
      <path d="M 46.964375 168.470744 
L 161.28 168.470744 
" clip-path="url(#p623222a426)" style="fill: none; stroke: #ffffff; stroke-opacity: 0.8; stroke-linecap: round"/>
     </g>
     <g id="line2d_2">
      <defs>
       <path id="m90189eb5db" d="M 0 0 
L -6 0 
" style="stroke: #808080; stroke-width: 1.25"/>
      </defs>
      <g>
       <use xlink:href="#m90189eb5db" x="46.964375" y="168.470744" style="fill: #808080; stroke: #808080; stroke-width: 1.25"/>
      </g>
     </g>
     <g id="text_4">
      <text style="fill: #262626; font: 11px 'Arial', 'DejaVu Sans', 'Liberation Sans', 'Bitstream Vera Sans', sans-serif; text-anchor: end" x="37.464375" y="172.407541" transform="rotate(-0 37.464375 172.407541)">0.1</text>
     </g>
    </g>
    <g id="ytick_2">
     <g id="line2d_3">
      <path d="M 46.964375 125.116088 
L 161.28 125.116088 
" clip-path="url(#p623222a426)" style="fill: none; stroke: #ffffff; stroke-opacity: 0.8; stroke-linecap: round"/>
     </g>
     <g id="line2d_4">
      <g>
       <use xlink:href="#m90189eb5db" x="46.964375" y="125.116088" style="fill: #808080; stroke: #808080; stroke-width: 1.25"/>
      </g>
     </g>
     <g id="text_5">
      <text style="fill: #262626; font: 11px 'Arial', 'DejaVu Sans', 'Liberation Sans', 'Bitstream Vera Sans', sans-serif; text-anchor: end" x="37.464375" y="129.052885" transform="rotate(-0 37.464375 129.052885)">0.2</text>
     </g>
    </g>
    <g id="ytick_3">
     <g id="line2d_5">
      <path d="M 46.964375 81.761432 
L 161.28 81.761432 
" clip-path="url(#p623222a426)" style="fill: none; stroke: #ffffff; stroke-opacity: 0.8; stroke-linecap: round"/>
     </g>
     <g id="line2d_6">
      <g>
       <use xlink:href="#m90189eb5db" x="46.964375" y="81.761432" style="fill: #808080; stroke: #808080; stroke-width: 1.25"/>
      </g>
     </g>
     <g id="text_6">
      <text style="fill: #262626; font: 11px 'Arial', 'DejaVu Sans', 'Liberation Sans', 'Bitstream Vera Sans', sans-serif; text-anchor: end" x="37.464375" y="85.698229" transform="rotate(-0 37.464375 85.698229)">0.4</text>
     </g>
    </g>
    <g id="ytick_4">
     <g id="line2d_7">
      <path d="M 46.964375 56.400585 
L 161.28 56.400585 
" clip-path="url(#p623222a426)" style="fill: none; stroke: #ffffff; stroke-opacity: 0.8; stroke-linecap: round"/>
     </g>
     <g id="line2d_8">
      <g>
       <use xlink:href="#m90189eb5db" x="46.964375" y="56.400585" style="fill: #808080; stroke: #808080; stroke-width: 1.25"/>
      </g>
     </g>
     <g id="text_7">
      <text style="fill: #262626; font: 11px 'Arial', 'DejaVu Sans', 'Liberation Sans', 'Bitstream Vera Sans', sans-serif; text-anchor: end" x="37.464375" y="60.337381" transform="rotate(-0 37.464375 60.337381)">0.6</text>
     </g>
    </g>
    <g id="ytick_5">
     <g id="line2d_9">
      <path d="M 46.964375 38.406777 
L 161.28 38.406777 
" clip-path="url(#p623222a426)" style="fill: none; stroke: #ffffff; stroke-opacity: 0.8; stroke-linecap: round"/>
     </g>
     <g id="line2d_10">
      <g>
       <use xlink:href="#m90189eb5db" x="46.964375" y="38.406777" style="fill: #808080; stroke: #808080; stroke-width: 1.25"/>
      </g>
     </g>
     <g id="text_8">
      <text style="fill: #262626; font: 11px 'Arial', 'DejaVu Sans', 'Liberation Sans', 'Bitstream Vera Sans', sans-serif; text-anchor: end" x="37.464375" y="42.343573" transform="rotate(-0 37.464375 42.343573)">0.8</text>
     </g>
    </g>
    <g id="ytick_6">
     <g id="line2d_11">
      <path d="M 46.964375 24.449695 
L 161.28 24.449695 
" clip-path="url(#p623222a426)" style="fill: none; stroke: #ffffff; stroke-opacity: 0.8; stroke-linecap: round"/>
     </g>
     <g id="line2d_12">
      <g>
       <use xlink:href="#m90189eb5db" x="46.964375" y="24.449695" style="fill: #808080; stroke: #808080; stroke-width: 1.25"/>
      </g>
     </g>
     <g id="text_9">
      <text style="fill: #262626; font: 11px 'Arial', 'DejaVu Sans', 'Liberation Sans', 'Bitstream Vera Sans', sans-serif; text-anchor: end" x="37.464375" y="28.386492" transform="rotate(-0 37.464375 28.386492)">1.0</text>
     </g>
    </g>
    <g id="ytick_7">
     <g id="line2d_13">
      <path d="M 46.964375 13.045929 
L 161.28 13.045929 
" clip-path="url(#p623222a426)" style="fill: none; stroke: #ffffff; stroke-opacity: 0.8; stroke-linecap: round"/>
     </g>
     <g id="line2d_14">
      <g>
       <use xlink:href="#m90189eb5db" x="46.964375" y="13.045929" style="fill: #808080; stroke: #808080; stroke-width: 1.25"/>
      </g>
     </g>
     <g id="text_10">
      <text style="fill: #262626; font: 11px 'Arial', 'DejaVu Sans', 'Liberation Sans', 'Bitstream Vera Sans', sans-serif; text-anchor: end" x="37.464375" y="16.982726" transform="rotate(-0 37.464375 16.982726)">1.2</text>
     </g>
    </g>
    <g id="ytick_8">
     <g id="line2d_15">
      <defs>
       <path id="m66aeb09d65" d="M 0 0 
L -4 0 
" style="stroke: #808080"/>
      </defs>
      <g>
       <use xlink:href="#m66aeb09d65" x="46.964375" y="175.060786" style="fill: #808080; stroke: #808080"/>
      </g>
     </g>
    </g>
    <g id="ytick_9">
     <g id="line2d_16">
      <g>
       <use xlink:href="#m66aeb09d65" x="46.964375" y="99.75524" style="fill: #808080; stroke: #808080"/>
      </g>
     </g>
    </g>
    <g id="ytick_10">
     <g id="line2d_17">
      <g>
       <use xlink:href="#m66aeb09d65" x="46.964375" y="67.804351" style="fill: #808080; stroke: #808080"/>
      </g>
     </g>
    </g>
    <g id="ytick_11">
     <g id="line2d_18">
      <g>
       <use xlink:href="#m66aeb09d65" x="46.964375" y="46.758838" style="fill: #808080; stroke: #808080"/>
      </g>
     </g>
    </g>
    <g id="ytick_12">
     <g id="line2d_19">
      <g>
       <use xlink:href="#m66aeb09d65" x="46.964375" y="31.039737" style="fill: #808080; stroke: #808080"/>
      </g>
     </g>
    </g>
    <g id="text_11">
     <text style="fill: #262626; font: 12px 'Arial', 'DejaVu Sans', 'Liberation Sans', 'Bitstream Vera Sans', sans-serif; text-anchor: middle" x="15.789375" y="92.460078" transform="rotate(-90 15.789375 92.460078)">Relative ATP levels</text>
    </g>
   </g>
   <g id="PathCollection_1">
    <path d="M 72.665649 19.809241 
C 73.196055 19.809241 73.704809 19.598509 74.079862 19.223455 
C 74.454916 18.848401 74.665649 18.339647 74.665649 17.809241 
C 74.665649 17.278835 74.454916 16.770082 74.079862 16.395028 
C 73.704809 16.019974 73.196055 15.809241 72.665649 15.809241 
C 72.135243 15.809241 71.626489 16.019974 71.251435 16.395028 
C 70.876381 16.770082 70.665649 17.278835 70.665649 17.809241 
C 70.665649 18.339647 70.876381 18.848401 71.251435 19.223455 
C 71.626489 19.598509 72.135243 19.809241 72.665649 19.809241 
z
" clip-path="url(#p623222a426)" style="fill: #0173b2; fill-opacity: 0.2; stroke: #0173b2; stroke-opacity: 0.6; stroke-width: 0.75"/>
    <path d="M 72.087378 21.272918 
C 72.617784 21.272918 73.126538 21.062186 73.501592 20.687132 
C 73.876645 20.312078 74.087378 19.803325 74.087378 19.272918 
C 74.087378 18.742512 73.876645 18.233759 73.501592 17.858705 
C 73.126538 17.483651 72.617784 17.272918 72.087378 17.272918 
C 71.556972 17.272918 71.048218 17.483651 70.673165 17.858705 
C 70.298111 18.233759 70.087378 18.742512 70.087378 19.272918 
C 70.087378 19.803325 70.298111 20.312078 70.673165 20.687132 
C 71.048218 21.062186 71.556972 21.272918 72.087378 21.272918 
z
" clip-path="url(#p623222a426)" style="fill: #0173b2; fill-opacity: 0.2; stroke: #0173b2; stroke-opacity: 0.6; stroke-width: 0.75"/>
    <path d="M 67.15028 24.160275 
C 67.680687 24.160275 68.18944 23.949543 68.564494 23.574489 
C 68.939548 23.199435 69.15028 22.690682 69.15028 22.160275 
C 69.15028 21.629869 68.939548 21.121116 68.564494 20.746062 
C 68.18944 20.371008 67.680687 20.160275 67.15028 20.160275 
C 66.619874 20.160275 66.111121 20.371008 65.736067 20.746062 
C 65.361013 21.121116 65.15028 21.629869 65.15028 22.160275 
C 65.15028 22.690682 65.361013 23.199435 65.736067 23.574489 
C 66.111121 23.949543 66.619874 24.160275 67.15028 24.160275 
z
" clip-path="url(#p623222a426)" style="fill: #0173b2; fill-opacity: 0.2; stroke: #0173b2; stroke-opacity: 0.6; stroke-width: 0.75"/>
    <path d="M 69.879719 38.720218 
C 70.410126 38.720218 70.918879 38.509486 71.293933 38.134432 
C 71.668987 37.759378 71.879719 37.250624 71.879719 36.720218 
C 71.879719 36.189812 71.668987 35.681059 71.293933 35.306005 
C 70.918879 34.930951 70.410126 34.720218 69.879719 34.720218 
C 69.349313 34.720218 68.84056 34.930951 68.465506 35.306005 
C 68.090452 35.681059 67.879719 36.189812 67.879719 36.720218 
C 67.879719 37.250624 68.090452 37.759378 68.465506 38.134432 
C 68.84056 38.509486 69.349313 38.720218 69.879719 38.720218 
z
" clip-path="url(#p623222a426)" style="fill: #0173b2; fill-opacity: 0.2; stroke: #0173b2; stroke-opacity: 0.6; stroke-width: 0.75"/>
    <path d="M 68.312056 20.603698 
C 68.842463 20.603698 69.351216 20.392966 69.72627 20.017912 
C 70.101324 19.642858 70.312056 19.134104 70.312056 18.603698 
C 70.312056 18.073292 70.101324 17.564539 69.72627 17.189485 
C 69.351216 16.814431 68.842463 16.603698 68.312056 16.603698 
C 67.78165 16.603698 67.272897 16.814431 66.897843 17.189485 
C 66.522789 17.564539 66.312056 18.073292 66.312056 18.603698 
C 66.312056 19.134104 66.522789 19.642858 66.897843 20.017912 
C 67.272897 20.392966 67.78165 20.603698 68.312056 20.603698 
z
" clip-path="url(#p623222a426)" style="fill: #0173b2; fill-opacity: 0.2; stroke: #0173b2; stroke-opacity: 0.6; stroke-width: 0.75"/>
    <path d="M 69.549612 25.84981 
C 70.080018 25.84981 70.588772 25.639077 70.963825 25.264024 
C 71.338879 24.88897 71.549612 24.380216 71.549612 23.84981 
C 71.549612 23.319404 71.338879 22.81065 70.963825 22.435596 
C 70.588772 22.060543 70.080018 21.84981 69.549612 21.84981 
C 69.019206 21.84981 68.510452 22.060543 68.135398 22.435596 
C 67.760345 22.81065 67.549612 23.319404 67.549612 23.84981 
C 67.549612 24.380216 67.760345 24.88897 68.135398 25.264024 
C 68.510452 25.639077 69.019206 25.84981 69.549612 25.84981 
z
" clip-path="url(#p623222a426)" style="fill: #0173b2; fill-opacity: 0.2; stroke: #0173b2; stroke-opacity: 0.6; stroke-width: 0.75"/>
    <path d="M 69.391015 30.827676 
C 69.921421 30.827676 70.430175 30.616943 70.805229 30.241889 
C 71.180283 29.866835 71.391015 29.358082 71.391015 28.827676 
C 71.391015 28.297269 71.180283 27.788516 70.805229 27.413462 
C 70.430175 27.038408 69.921421 26.827676 69.391015 26.827676 
C 68.860609 26.827676 68.351855 27.038408 67.976802 27.413462 
C 67.601748 27.788516 67.391015 28.297269 67.391015 28.827676 
C 67.391015 29.358082 67.601748 29.866835 67.976802 30.241889 
C 68.351855 30.616943 68.860609 30.827676 69.391015 30.827676 
z
" clip-path="url(#p623222a426)" style="fill: #0173b2; fill-opacity: 0.2; stroke: #0173b2; stroke-opacity: 0.6; stroke-width: 0.75"/>
    <path d="M 72.188886 32.862631 
C 72.719292 32.862631 73.228045 32.651898 73.603099 32.276844 
C 73.978153 31.90179 74.188886 31.393037 74.188886 30.862631 
C 74.188886 30.332224 73.978153 29.823471 73.603099 29.448417 
C 73.228045 29.073363 72.719292 28.862631 72.188886 28.862631 
C 71.658479 28.862631 71.149726 29.073363 70.774672 29.448417 
C 70.399618 29.823471 70.188886 30.332224 70.188886 30.862631 
C 70.188886 31.393037 70.399618 31.90179 70.774672 32.276844 
C 71.149726 32.651898 71.658479 32.862631 72.188886 32.862631 
z
" clip-path="url(#p623222a426)" style="fill: #0173b2; fill-opacity: 0.2; stroke: #0173b2; stroke-opacity: 0.6; stroke-width: 0.75"/>
    <path d="M 71.028463 44.189908 
C 71.558869 44.189908 72.067623 43.979175 72.442677 43.604121 
C 72.81773 43.229067 73.028463 42.720314 73.028463 42.189908 
C 73.028463 41.659502 72.81773 41.150748 72.442677 40.775694 
C 72.067623 40.40064 71.558869 40.189908 71.028463 40.189908 
C 70.498057 40.189908 69.989303 40.40064 69.61425 40.775694 
C 69.239196 41.150748 69.028463 41.659502 69.028463 42.189908 
C 69.028463 42.720314 69.239196 43.229067 69.61425 43.604121 
C 69.989303 43.979175 70.498057 44.189908 71.028463 44.189908 
z
" clip-path="url(#p623222a426)" style="fill: #0173b2; fill-opacity: 0.2; stroke: #0173b2; stroke-opacity: 0.6; stroke-width: 0.75"/>
    <path d="M 72.413477 20.686069 
C 72.943884 20.686069 73.452637 20.475336 73.827691 20.100283 
C 74.202745 19.725229 74.413477 19.216475 74.413477 18.686069 
C 74.413477 18.155663 74.202745 17.646909 73.827691 17.271855 
C 73.452637 16.896802 72.943884 16.686069 72.413477 16.686069 
C 71.883071 16.686069 71.374318 16.896802 70.999264 17.271855 
C 70.62421 17.646909 70.413477 18.155663 70.413477 18.686069 
C 70.413477 19.216475 70.62421 19.725229 70.999264 20.100283 
C 71.374318 20.475336 71.883071 20.686069 72.413477 20.686069 
z
" clip-path="url(#p623222a426)" style="fill: #0173b2; fill-opacity: 0.2; stroke: #0173b2; stroke-opacity: 0.6; stroke-width: 0.75"/>
    <path d="M 67.905264 24.549997 
C 68.43567 24.549997 68.944423 24.339264 69.319477 23.96421 
C 69.694531 23.589156 69.905264 23.080403 69.905264 22.549997 
C 69.905264 22.019591 69.694531 21.510837 69.319477 21.135783 
C 68.944423 20.760729 68.43567 20.549997 67.905264 20.549997 
C 67.374857 20.549997 66.866104 20.760729 66.49105 21.135783 
C 66.115996 21.510837 65.905264 22.019591 65.905264 22.549997 
C 65.905264 23.080403 66.115996 23.589156 66.49105 23.96421 
C 66.866104 24.339264 67.374857 24.549997 67.905264 24.549997 
z
" clip-path="url(#p623222a426)" style="fill: #0173b2; fill-opacity: 0.2; stroke: #0173b2; stroke-opacity: 0.6; stroke-width: 0.75"/>
    <path d="M 70.915147 21.853353 
C 71.445553 21.853353 71.954306 21.64262 72.32936 21.267567 
C 72.704414 20.892513 72.915147 20.383759 72.915147 19.853353 
C 72.915147 19.322947 72.704414 18.814193 72.32936 18.439139 
C 71.954306 18.064086 71.445553 17.853353 70.915147 17.853353 
C 70.38474 17.853353 69.875987 18.064086 69.500933 18.439139 
C 69.125879 18.814193 68.915147 19.322947 68.915147 19.853353 
C 68.915147 20.383759 69.125879 20.892513 69.500933 21.267567 
C 69.875987 21.64262 70.38474 21.853353 70.915147 21.853353 
z
" clip-path="url(#p623222a426)" style="fill: #0173b2; fill-opacity: 0.2; stroke: #0173b2; stroke-opacity: 0.6; stroke-width: 0.75"/>
    <path d="M 69.033261 26.466648 
C 69.563667 26.466648 70.072421 26.255915 70.447475 25.880861 
C 70.822529 25.505807 71.033261 24.997054 71.033261 24.466648 
C 71.033261 23.936241 70.822529 23.427488 70.447475 23.052434 
C 70.072421 22.67738 69.563667 22.466648 69.033261 22.466648 
C 68.502855 22.466648 67.994102 22.67738 67.619048 23.052434 
C 67.243994 23.427488 67.033261 23.936241 67.033261 24.466648 
C 67.033261 24.997054 67.243994 25.505807 67.619048 25.880861 
C 67.994102 26.255915 68.502855 26.466648 69.033261 26.466648 
z
" clip-path="url(#p623222a426)" style="fill: #0173b2; fill-opacity: 0.2; stroke: #0173b2; stroke-opacity: 0.6; stroke-width: 0.75"/>
    <path d="M 70.369697 23.995693 
C 70.900103 23.995693 71.408857 23.784961 71.783911 23.409907 
C 72.158964 23.034853 72.369697 22.5261 72.369697 21.995693 
C 72.369697 21.465287 72.158964 20.956534 71.783911 20.58148 
C 71.408857 20.206426 70.900103 19.995693 70.369697 19.995693 
C 69.839291 19.995693 69.330537 20.206426 68.955484 20.58148 
C 68.58043 20.956534 68.369697 21.465287 68.369697 21.995693 
C 68.369697 22.5261 68.58043 23.034853 68.955484 23.409907 
C 69.330537 23.784961 69.839291 23.995693 70.369697 23.995693 
z
" clip-path="url(#p623222a426)" style="fill: #0173b2; fill-opacity: 0.2; stroke: #0173b2; stroke-opacity: 0.6; stroke-width: 0.75"/>
    <path d="M 71.478577 26.225364 
C 72.008984 26.225364 72.517737 26.014632 72.892791 25.639578 
C 73.267845 25.264524 73.478577 24.75577 73.478577 24.225364 
C 73.478577 23.694958 73.267845 23.186205 72.892791 22.811151 
C 72.517737 22.436097 72.008984 22.225364 71.478577 22.225364 
C 70.948171 22.225364 70.439418 22.436097 70.064364 22.811151 
C 69.68931 23.186205 69.478577 23.694958 69.478577 24.225364 
C 69.478577 24.75577 69.68931 25.264524 70.064364 25.639578 
C 70.439418 26.014632 70.948171 26.225364 71.478577 26.225364 
z
" clip-path="url(#p623222a426)" style="fill: #0173b2; fill-opacity: 0.2; stroke: #0173b2; stroke-opacity: 0.6; stroke-width: 0.75"/>
    <path d="M 66.877679 16.950916 
C 67.408085 16.950916 67.916839 16.740184 68.291893 16.36513 
C 68.666947 15.990076 68.877679 15.481322 68.877679 14.950916 
C 68.877679 14.42051 68.666947 13.911756 68.291893 13.536703 
C 67.916839 13.161649 67.408085 12.950916 66.877679 12.950916 
C 66.347273 12.950916 65.838519 13.161649 65.463466 13.536703 
C 65.088412 13.911756 64.877679 14.42051 64.877679 14.950916 
C 64.877679 15.481322 65.088412 15.990076 65.463466 16.36513 
C 65.838519 16.740184 66.347273 16.950916 66.877679 16.950916 
z
" clip-path="url(#p623222a426)" style="fill: #0173b2; fill-opacity: 0.2; stroke: #0173b2; stroke-opacity: 0.6; stroke-width: 0.75"/>
    <path d="M 70.041659 28.464482 
C 70.572065 28.464482 71.080819 28.253749 71.455873 27.878695 
C 71.830926 27.503641 72.041659 26.994888 72.041659 26.464482 
C 72.041659 25.934075 71.830926 25.425322 71.455873 25.050268 
C 71.080819 24.675214 70.572065 24.464482 70.041659 24.464482 
C 69.511253 24.464482 69.002499 24.675214 68.627446 25.050268 
C 68.252392 25.425322 68.041659 25.934075 68.041659 26.464482 
C 68.041659 26.994888 68.252392 27.503641 68.627446 27.878695 
C 69.002499 28.253749 69.511253 28.464482 70.041659 28.464482 
z
" clip-path="url(#p623222a426)" style="fill: #0173b2; fill-opacity: 0.2; stroke: #0173b2; stroke-opacity: 0.6; stroke-width: 0.75"/>
    <path d="M 67.650513 28.206563 
C 68.180919 28.206563 68.689673 27.99583 69.064727 27.620776 
C 69.43978 27.245722 69.650513 26.736969 69.650513 26.206563 
C 69.650513 25.676156 69.43978 25.167403 69.064727 24.792349 
C 68.689673 24.417295 68.180919 24.206563 67.650513 24.206563 
C 67.120107 24.206563 66.611353 24.417295 66.236299 24.792349 
C 65.861246 25.167403 65.650513 25.676156 65.650513 26.206563 
C 65.650513 26.736969 65.861246 27.245722 66.236299 27.620776 
C 66.611353 27.99583 67.120107 28.206563 67.650513 28.206563 
z
" clip-path="url(#p623222a426)" style="fill: #0173b2; fill-opacity: 0.2; stroke: #0173b2; stroke-opacity: 0.6; stroke-width: 0.75"/>
    <path d="M 71.481733 25.904846 
C 72.01214 25.904846 72.520893 25.694114 72.895947 25.31906 
C 73.271001 24.944006 73.481733 24.435253 73.481733 23.904846 
C 73.481733 23.37444 73.271001 22.865687 72.895947 22.490633 
C 72.520893 22.115579 72.01214 21.904846 71.481733 21.904846 
C 70.951327 21.904846 70.442574 22.115579 70.06752 22.490633 
C 69.692466 22.865687 69.481733 23.37444 69.481733 23.904846 
C 69.481733 24.435253 69.692466 24.944006 70.06752 25.31906 
C 70.442574 25.694114 70.951327 25.904846 71.481733 25.904846 
z
" clip-path="url(#p623222a426)" style="fill: #0173b2; fill-opacity: 0.2; stroke: #0173b2; stroke-opacity: 0.6; stroke-width: 0.75"/>
    <path d="M 68.231601 27.731862 
C 68.762007 27.731862 69.270761 27.521129 69.645815 27.146075 
C 70.020868 26.771022 70.231601 26.262268 70.231601 25.731862 
C 70.231601 25.201456 70.020868 24.692702 69.645815 24.317648 
C 69.270761 23.942594 68.762007 23.731862 68.231601 23.731862 
C 67.701195 23.731862 67.192441 23.942594 66.817387 24.317648 
C 66.442334 24.692702 66.231601 25.201456 66.231601 25.731862 
C 66.231601 26.262268 66.442334 26.771022 66.817387 27.146075 
C 67.192441 27.521129 67.701195 27.731862 68.231601 27.731862 
z
" clip-path="url(#p623222a426)" style="fill: #0173b2; fill-opacity: 0.2; stroke: #0173b2; stroke-opacity: 0.6; stroke-width: 0.75"/>
    <path d="M 68.265919 32.559641 
C 68.796325 32.559641 69.305078 32.348909 69.680132 31.973855 
C 70.055186 31.598801 70.265919 31.090047 70.265919 30.559641 
C 70.265919 30.029235 70.055186 29.520481 69.680132 29.145428 
C 69.305078 28.770374 68.796325 28.559641 68.265919 28.559641 
C 67.735512 28.559641 67.226759 28.770374 66.851705 29.145428 
C 66.476651 29.520481 66.265919 30.029235 66.265919 30.559641 
C 66.265919 31.090047 66.476651 31.598801 66.851705 31.973855 
C 67.226759 32.348909 67.735512 32.559641 68.265919 32.559641 
z
" clip-path="url(#p623222a426)" style="fill: #0173b2; fill-opacity: 0.2; stroke: #0173b2; stroke-opacity: 0.6; stroke-width: 0.75"/>
    <path d="M 71.105733 25.628111 
C 71.636139 25.628111 72.144893 25.417378 72.519947 25.042324 
C 72.895001 24.667271 73.105733 24.158517 73.105733 23.628111 
C 73.105733 23.097705 72.895001 22.588951 72.519947 22.213897 
C 72.144893 21.838843 71.636139 21.628111 71.105733 21.628111 
C 70.575327 21.628111 70.066573 21.838843 69.69152 22.213897 
C 69.316466 22.588951 69.105733 23.097705 69.105733 23.628111 
C 69.105733 24.158517 69.316466 24.667271 69.69152 25.042324 
C 70.066573 25.417378 70.575327 25.628111 71.105733 25.628111 
z
" clip-path="url(#p623222a426)" style="fill: #0173b2; fill-opacity: 0.2; stroke: #0173b2; stroke-opacity: 0.6; stroke-width: 0.75"/>
    <path d="M 71.241783 23.512169 
C 71.772189 23.512169 72.280942 23.301436 72.655996 22.926382 
C 73.03105 22.551328 73.241783 22.042575 73.241783 21.512169 
C 73.241783 20.981763 73.03105 20.473009 72.655996 20.097955 
C 72.280942 19.722901 71.772189 19.512169 71.241783 19.512169 
C 70.711377 19.512169 70.202623 19.722901 69.827569 20.097955 
C 69.452515 20.473009 69.241783 20.981763 69.241783 21.512169 
C 69.241783 22.042575 69.452515 22.551328 69.827569 22.926382 
C 70.202623 23.301436 70.711377 23.512169 71.241783 23.512169 
z
" clip-path="url(#p623222a426)" style="fill: #0173b2; fill-opacity: 0.2; stroke: #0173b2; stroke-opacity: 0.6; stroke-width: 0.75"/>
    <path d="M 69.208745 31.507975 
C 69.739151 31.507975 70.247905 31.297242 70.622959 30.922188 
C 70.998013 30.547135 71.208745 30.038381 71.208745 29.507975 
C 71.208745 28.977569 70.998013 28.468815 70.622959 28.093761 
C 70.247905 27.718708 69.739151 27.507975 69.208745 27.507975 
C 68.678339 27.507975 68.169585 27.718708 67.794532 28.093761 
C 67.419478 28.468815 67.208745 28.977569 67.208745 29.507975 
C 67.208745 30.038381 67.419478 30.547135 67.794532 30.922188 
C 68.169585 31.297242 68.678339 31.507975 69.208745 31.507975 
z
" clip-path="url(#p623222a426)" style="fill: #0173b2; fill-opacity: 0.2; stroke: #0173b2; stroke-opacity: 0.6; stroke-width: 0.75"/>
    <path d="M 70.803271 31.370094 
C 71.333677 31.370094 71.84243 31.159362 72.217484 30.784308 
C 72.592538 30.409254 72.803271 29.900501 72.803271 29.370094 
C 72.803271 28.839688 72.592538 28.330935 72.217484 27.955881 
C 71.84243 27.580827 71.333677 27.370094 70.803271 27.370094 
C 70.272864 27.370094 69.764111 27.580827 69.389057 27.955881 
C 69.014003 28.330935 68.803271 28.839688 68.803271 29.370094 
C 68.803271 29.900501 69.014003 30.409254 69.389057 30.784308 
C 69.764111 31.159362 70.272864 31.370094 70.803271 31.370094 
z
" clip-path="url(#p623222a426)" style="fill: #0173b2; fill-opacity: 0.2; stroke: #0173b2; stroke-opacity: 0.6; stroke-width: 0.75"/>
    <path d="M 67.662428 28.20545 
C 68.192834 28.20545 68.701588 27.994717 69.076642 27.619663 
C 69.451695 27.244609 69.662428 26.735856 69.662428 26.20545 
C 69.662428 25.675043 69.451695 25.16629 69.076642 24.791236 
C 68.701588 24.416182 68.192834 24.20545 67.662428 24.20545 
C 67.132022 24.20545 66.623268 24.416182 66.248214 24.791236 
C 65.873161 25.16629 65.662428 25.675043 65.662428 26.20545 
C 65.662428 26.735856 65.873161 27.244609 66.248214 27.619663 
C 66.623268 27.994717 67.132022 28.20545 67.662428 28.20545 
z
" clip-path="url(#p623222a426)" style="fill: #0173b2; fill-opacity: 0.2; stroke: #0173b2; stroke-opacity: 0.6; stroke-width: 0.75"/>
    <path d="M 67.561215 19.377349 
C 68.091621 19.377349 68.600374 19.166617 68.975428 18.791563 
C 69.350482 18.416509 69.561215 17.907755 69.561215 17.377349 
C 69.561215 16.846943 69.350482 16.33819 68.975428 15.963136 
C 68.600374 15.588082 68.091621 15.377349 67.561215 15.377349 
C 67.030808 15.377349 66.522055 15.588082 66.147001 15.963136 
C 65.771947 16.33819 65.561215 16.846943 65.561215 17.377349 
C 65.561215 17.907755 65.771947 18.416509 66.147001 18.791563 
C 66.522055 19.166617 67.030808 19.377349 67.561215 19.377349 
z
" clip-path="url(#p623222a426)" style="fill: #0173b2; fill-opacity: 0.2; stroke: #0173b2; stroke-opacity: 0.6; stroke-width: 0.75"/>
    <path d="M 68.864687 44.476295 
C 69.395093 44.476295 69.903847 44.265562 70.278901 43.890508 
C 70.653955 43.515454 70.864687 43.006701 70.864687 42.476295 
C 70.864687 41.945888 70.653955 41.437135 70.278901 41.062081 
C 69.903847 40.687027 69.395093 40.476295 68.864687 40.476295 
C 68.334281 40.476295 67.825528 40.687027 67.450474 41.062081 
C 67.07542 41.437135 66.864687 41.945888 66.864687 42.476295 
C 66.864687 43.006701 67.07542 43.515454 67.450474 43.890508 
C 67.825528 44.265562 68.334281 44.476295 68.864687 44.476295 
z
" clip-path="url(#p623222a426)" style="fill: #0173b2; fill-opacity: 0.2; stroke: #0173b2; stroke-opacity: 0.6; stroke-width: 0.75"/>
    <path d="M 67.535172 22.740361 
C 68.065578 22.740361 68.574332 22.529629 68.949386 22.154575 
C 69.32444 21.779521 69.535172 21.270767 69.535172 20.740361 
C 69.535172 20.209955 69.32444 19.701202 68.949386 19.326148 
C 68.574332 18.951094 68.065578 18.740361 67.535172 18.740361 
C 67.004766 18.740361 66.496012 18.951094 66.120959 19.326148 
C 65.745905 19.701202 65.535172 20.209955 65.535172 20.740361 
C 65.535172 21.270767 65.745905 21.779521 66.120959 22.154575 
C 66.496012 22.529629 67.004766 22.740361 67.535172 22.740361 
z
" clip-path="url(#p623222a426)" style="fill: #0173b2; fill-opacity: 0.2; stroke: #0173b2; stroke-opacity: 0.6; stroke-width: 0.75"/>
    <path d="M 70.074946 32.352253 
C 70.605352 32.352253 71.114106 32.141521 71.48916 31.766467 
C 71.864214 31.391413 72.074946 30.882659 72.074946 30.352253 
C 72.074946 29.821847 71.864214 29.313093 71.48916 28.93804 
C 71.114106 28.562986 70.605352 28.352253 70.074946 28.352253 
C 69.54454 28.352253 69.035786 28.562986 68.660733 28.93804 
C 68.285679 29.313093 68.074946 29.821847 68.074946 30.352253 
C 68.074946 30.882659 68.285679 31.391413 68.660733 31.766467 
C 69.035786 32.141521 69.54454 32.352253 70.074946 32.352253 
z
" clip-path="url(#p623222a426)" style="fill: #0173b2; fill-opacity: 0.2; stroke: #0173b2; stroke-opacity: 0.6; stroke-width: 0.75"/>
    <path d="M 70.20998 26.068816 
C 70.740387 26.068816 71.24914 25.858084 71.624194 25.48303 
C 71.999248 25.107976 72.20998 24.599223 72.20998 24.068816 
C 72.20998 23.53841 71.999248 23.029657 71.624194 22.654603 
C 71.24914 22.279549 70.740387 22.068816 70.20998 22.068816 
C 69.679574 22.068816 69.170821 22.279549 68.795767 22.654603 
C 68.420713 23.029657 68.20998 23.53841 68.20998 24.068816 
C 68.20998 24.599223 68.420713 25.107976 68.795767 25.48303 
C 69.170821 25.858084 69.679574 26.068816 70.20998 26.068816 
z
" clip-path="url(#p623222a426)" style="fill: #0173b2; fill-opacity: 0.2; stroke: #0173b2; stroke-opacity: 0.6; stroke-width: 0.75"/>
    <path d="M 67.629236 19.414396 
C 68.159642 19.414396 68.668396 19.203663 69.04345 18.828609 
C 69.418503 18.453555 69.629236 17.944802 69.629236 17.414396 
C 69.629236 16.883989 69.418503 16.375236 69.04345 16.000182 
C 68.668396 15.625128 68.159642 15.414396 67.629236 15.414396 
C 67.09883 15.414396 66.590076 15.625128 66.215023 16.000182 
C 65.839969 16.375236 65.629236 16.883989 65.629236 17.414396 
C 65.629236 17.944802 65.839969 18.453555 66.215023 18.828609 
C 66.590076 19.203663 67.09883 19.414396 67.629236 19.414396 
z
" clip-path="url(#p623222a426)" style="fill: #0173b2; fill-opacity: 0.2; stroke: #0173b2; stroke-opacity: 0.6; stroke-width: 0.75"/>
    <path d="M 66.80979 17.480343 
C 67.340196 17.480343 67.848949 17.269611 68.224003 16.894557 
C 68.599057 16.519503 68.80979 16.01075 68.80979 15.480343 
C 68.80979 14.949937 68.599057 14.441184 68.224003 14.06613 
C 67.848949 13.691076 67.340196 13.480343 66.80979 13.480343 
C 66.279383 13.480343 65.77063 13.691076 65.395576 14.06613 
C 65.020522 14.441184 64.80979 14.949937 64.80979 15.480343 
C 64.80979 16.01075 65.020522 16.519503 65.395576 16.894557 
C 65.77063 17.269611 66.279383 17.480343 66.80979 17.480343 
z
" clip-path="url(#p623222a426)" style="fill: #0173b2; fill-opacity: 0.2; stroke: #0173b2; stroke-opacity: 0.6; stroke-width: 0.75"/>
    <path d="M 68.365576 29.024841 
C 68.895983 29.024841 69.404736 28.814108 69.77979 28.439054 
C 70.154844 28.064 70.365576 27.555247 70.365576 27.024841 
C 70.365576 26.494435 70.154844 25.985681 69.77979 25.610627 
C 69.404736 25.235573 68.895983 25.024841 68.365576 25.024841 
C 67.83517 25.024841 67.326417 25.235573 66.951363 25.610627 
C 66.576309 25.985681 66.365576 26.494435 66.365576 27.024841 
C 66.365576 27.555247 66.576309 28.064 66.951363 28.439054 
C 67.326417 28.814108 67.83517 29.024841 68.365576 29.024841 
z
" clip-path="url(#p623222a426)" style="fill: #0173b2; fill-opacity: 0.2; stroke: #0173b2; stroke-opacity: 0.6; stroke-width: 0.75"/>
    <path d="M 72.00656 24.086633 
C 72.536966 24.086633 73.045719 23.8759 73.420773 23.500846 
C 73.795827 23.125792 74.00656 22.617039 74.00656 22.086633 
C 74.00656 21.556226 73.795827 21.047473 73.420773 20.672419 
C 73.045719 20.297365 72.536966 20.086633 72.00656 20.086633 
C 71.476154 20.086633 70.9674 20.297365 70.592346 20.672419 
C 70.217292 21.047473 70.00656 21.556226 70.00656 22.086633 
C 70.00656 22.617039 70.217292 23.125792 70.592346 23.500846 
C 70.9674 23.8759 71.476154 24.086633 72.00656 24.086633 
z
" clip-path="url(#p623222a426)" style="fill: #0173b2; fill-opacity: 0.2; stroke: #0173b2; stroke-opacity: 0.6; stroke-width: 0.75"/>
    <path d="M 67.877066 24.062606 
C 68.407472 24.062606 68.916226 23.851873 69.29128 23.47682 
C 69.666333 23.101766 69.877066 22.593012 69.877066 22.062606 
C 69.877066 21.5322 69.666333 21.023446 69.29128 20.648393 
C 68.916226 20.273339 68.407472 20.062606 67.877066 20.062606 
C 67.34666 20.062606 66.837906 20.273339 66.462853 20.648393 
C 66.087799 21.023446 65.877066 21.5322 65.877066 22.062606 
C 65.877066 22.593012 66.087799 23.101766 66.462853 23.47682 
C 66.837906 23.851873 67.34666 24.062606 67.877066 24.062606 
z
" clip-path="url(#p623222a426)" style="fill: #0173b2; fill-opacity: 0.2; stroke: #0173b2; stroke-opacity: 0.6; stroke-width: 0.75"/>
    <path d="M 70.473424 18.961902 
C 71.00383 18.961902 71.512584 18.751169 71.887637 18.376115 
C 72.262691 18.001062 72.473424 17.492308 72.473424 16.961902 
C 72.473424 16.431496 72.262691 15.922742 71.887637 15.547688 
C 71.512584 15.172634 71.00383 14.961902 70.473424 14.961902 
C 69.943018 14.961902 69.434264 15.172634 69.05921 15.547688 
C 68.684156 15.922742 68.473424 16.431496 68.473424 16.961902 
C 68.473424 17.492308 68.684156 18.001062 69.05921 18.376115 
C 69.434264 18.751169 69.943018 18.961902 70.473424 18.961902 
z
" clip-path="url(#p623222a426)" style="fill: #0173b2; fill-opacity: 0.2; stroke: #0173b2; stroke-opacity: 0.6; stroke-width: 0.75"/>
    <path d="M 72.512441 33.290129 
C 73.042848 33.290129 73.551601 33.079396 73.926655 32.704342 
C 74.301709 32.329288 74.512441 31.820535 74.512441 31.290129 
C 74.512441 30.759722 74.301709 30.250969 73.926655 29.875915 
C 73.551601 29.500861 73.042848 29.290129 72.512441 29.290129 
C 71.982035 29.290129 71.473282 29.500861 71.098228 29.875915 
C 70.723174 30.250969 70.512441 30.759722 70.512441 31.290129 
C 70.512441 31.820535 70.723174 32.329288 71.098228 32.704342 
C 71.473282 33.079396 71.982035 33.290129 72.512441 33.290129 
z
" clip-path="url(#p623222a426)" style="fill: #0173b2; fill-opacity: 0.2; stroke: #0173b2; stroke-opacity: 0.6; stroke-width: 0.75"/>
    <path d="M 71.441578 29.533303 
C 71.971984 29.533303 72.480738 29.322571 72.855792 28.947517 
C 73.230845 28.572463 73.441578 28.063709 73.441578 27.533303 
C 73.441578 27.002897 73.230845 26.494143 72.855792 26.11909 
C 72.480738 25.744036 71.971984 25.533303 71.441578 25.533303 
C 70.911172 25.533303 70.402418 25.744036 70.027365 26.11909 
C 69.652311 26.494143 69.441578 27.002897 69.441578 27.533303 
C 69.441578 28.063709 69.652311 28.572463 70.027365 28.947517 
C 70.402418 29.322571 70.911172 29.533303 71.441578 29.533303 
z
" clip-path="url(#p623222a426)" style="fill: #0173b2; fill-opacity: 0.2; stroke: #0173b2; stroke-opacity: 0.6; stroke-width: 0.75"/>
    <path d="M 67.046561 32.897859 
C 67.576967 32.897859 68.085721 32.687127 68.460775 32.312073 
C 68.835829 31.937019 69.046561 31.428265 69.046561 30.897859 
C 69.046561 30.367453 68.835829 29.858699 68.460775 29.483646 
C 68.085721 29.108592 67.576967 28.897859 67.046561 28.897859 
C 66.516155 28.897859 66.007401 29.108592 65.632348 29.483646 
C 65.257294 29.858699 65.046561 30.367453 65.046561 30.897859 
C 65.046561 31.428265 65.257294 31.937019 65.632348 32.312073 
C 66.007401 32.687127 66.516155 32.897859 67.046561 32.897859 
z
" clip-path="url(#p623222a426)" style="fill: #0173b2; fill-opacity: 0.2; stroke: #0173b2; stroke-opacity: 0.6; stroke-width: 0.75"/>
    <path d="M 69.375348 24.613254 
C 69.905754 24.613254 70.414508 24.402521 70.789562 24.027467 
C 71.164615 23.652413 71.375348 23.14366 71.375348 22.613254 
C 71.375348 22.082847 71.164615 21.574094 70.789562 21.19904 
C 70.414508 20.823986 69.905754 20.613254 69.375348 20.613254 
C 68.844942 20.613254 68.336188 20.823986 67.961135 21.19904 
C 67.586081 21.574094 67.375348 22.082847 67.375348 22.613254 
C 67.375348 23.14366 67.586081 23.652413 67.961135 24.027467 
C 68.336188 24.402521 68.844942 24.613254 69.375348 24.613254 
z
" clip-path="url(#p623222a426)" style="fill: #0173b2; fill-opacity: 0.2; stroke: #0173b2; stroke-opacity: 0.6; stroke-width: 0.75"/>
    <path d="M 72.108137 25.861644 
C 72.638544 25.861644 73.147297 25.650911 73.522351 25.275857 
C 73.897405 24.900803 74.108137 24.39205 74.108137 23.861644 
C 74.108137 23.331238 73.897405 22.822484 73.522351 22.44743 
C 73.147297 22.072376 72.638544 21.861644 72.108137 21.861644 
C 71.577731 21.861644 71.068978 22.072376 70.693924 22.44743 
C 70.31887 22.822484 70.108137 23.331238 70.108137 23.861644 
C 70.108137 24.39205 70.31887 24.900803 70.693924 25.275857 
C 71.068978 25.650911 71.577731 25.861644 72.108137 25.861644 
z
" clip-path="url(#p623222a426)" style="fill: #0173b2; fill-opacity: 0.2; stroke: #0173b2; stroke-opacity: 0.6; stroke-width: 0.75"/>
    <path d="M 69.590006 19.952724 
C 70.120412 19.952724 70.629166 19.741992 71.004219 19.366938 
C 71.379273 18.991884 71.590006 18.48313 71.590006 17.952724 
C 71.590006 17.422318 71.379273 16.913564 71.004219 16.538511 
C 70.629166 16.163457 70.120412 15.952724 69.590006 15.952724 
C 69.0596 15.952724 68.550846 16.163457 68.175792 16.538511 
C 67.800739 16.913564 67.590006 17.422318 67.590006 17.952724 
C 67.590006 18.48313 67.800739 18.991884 68.175792 19.366938 
C 68.550846 19.741992 69.0596 19.952724 69.590006 19.952724 
z
" clip-path="url(#p623222a426)" style="fill: #0173b2; fill-opacity: 0.2; stroke: #0173b2; stroke-opacity: 0.6; stroke-width: 0.75"/>
    <path d="M 69.105898 24.695851 
C 69.636304 24.695851 70.145058 24.485118 70.520112 24.110064 
C 70.895165 23.73501 71.105898 23.226257 71.105898 22.695851 
C 71.105898 22.165445 70.895165 21.656691 70.520112 21.281637 
C 70.145058 20.906583 69.636304 20.695851 69.105898 20.695851 
C 68.575492 20.695851 68.066738 20.906583 67.691684 21.281637 
C 67.316631 21.656691 67.105898 22.165445 67.105898 22.695851 
C 67.105898 23.226257 67.316631 23.73501 67.691684 24.110064 
C 68.066738 24.485118 68.575492 24.695851 69.105898 24.695851 
z
" clip-path="url(#p623222a426)" style="fill: #0173b2; fill-opacity: 0.2; stroke: #0173b2; stroke-opacity: 0.6; stroke-width: 0.75"/>
    <path d="M 68.164775 32.467247 
C 68.695181 32.467247 69.203935 32.256514 69.578989 31.88146 
C 69.954043 31.506407 70.164775 30.997653 70.164775 30.467247 
C 70.164775 29.936841 69.954043 29.428087 69.578989 29.053033 
C 69.203935 28.677979 68.695181 28.467247 68.164775 28.467247 
C 67.634369 28.467247 67.125616 28.677979 66.750562 29.053033 
C 66.375508 29.428087 66.164775 29.936841 66.164775 30.467247 
C 66.164775 30.997653 66.375508 31.506407 66.750562 31.88146 
C 67.125616 32.256514 67.634369 32.467247 68.164775 32.467247 
z
" clip-path="url(#p623222a426)" style="fill: #0173b2; fill-opacity: 0.2; stroke: #0173b2; stroke-opacity: 0.6; stroke-width: 0.75"/>
    <path d="M 105.996985 31.511952 
L 103.996985 35.511952 
L 107.996985 35.511952 
z
" clip-path="url(#p623222a426)" style="fill: #de8f05; fill-opacity: 0.2; stroke: #de8f05; stroke-opacity: 0.6; stroke-width: 0.75"/>
    <path d="M 110.934029 30.24333 
L 108.934029 34.24333 
L 112.934029 34.24333 
z
" clip-path="url(#p623222a426)" style="fill: #de8f05; fill-opacity: 0.2; stroke: #de8f05; stroke-opacity: 0.6; stroke-width: 0.75"/>
    <path d="M 105.071054 49.086939 
L 103.071054 53.086939 
L 107.071054 53.086939 
z
" clip-path="url(#p623222a426)" style="fill: #de8f05; fill-opacity: 0.2; stroke: #de8f05; stroke-opacity: 0.6; stroke-width: 0.75"/>
    <path d="M 107.596116 54.815396 
L 105.596116 58.815396 
L 109.596116 58.815396 
z
" clip-path="url(#p623222a426)" style="fill: #de8f05; fill-opacity: 0.2; stroke: #de8f05; stroke-opacity: 0.6; stroke-width: 0.75"/>
    <path d="M 106.485152 44.174257 
L 104.485152 48.174257 
L 108.485152 48.174257 
z
" clip-path="url(#p623222a426)" style="fill: #de8f05; fill-opacity: 0.2; stroke: #de8f05; stroke-opacity: 0.6; stroke-width: 0.75"/>
    <path d="M 110.218513 38.483117 
L 108.218513 42.483117 
L 112.218513 42.483117 
z
" clip-path="url(#p623222a426)" style="fill: #de8f05; fill-opacity: 0.2; stroke: #de8f05; stroke-opacity: 0.6; stroke-width: 0.75"/>
    <path d="M 110.082668 45.004506 
L 108.082668 49.004506 
L 112.082668 49.004506 
z
" clip-path="url(#p623222a426)" style="fill: #de8f05; fill-opacity: 0.2; stroke: #de8f05; stroke-opacity: 0.6; stroke-width: 0.75"/>
    <path d="M 108.986106 52.114039 
L 106.986106 56.114039 
L 110.986106 56.114039 
z
" clip-path="url(#p623222a426)" style="fill: #de8f05; fill-opacity: 0.2; stroke: #de8f05; stroke-opacity: 0.6; stroke-width: 0.75"/>
    <path d="M 108.104233 61.072223 
L 106.104233 65.072223 
L 110.104233 65.072223 
z
" clip-path="url(#p623222a426)" style="fill: #de8f05; fill-opacity: 0.2; stroke: #de8f05; stroke-opacity: 0.6; stroke-width: 0.75"/>
    <path d="M 106.112681 35.111857 
L 104.112681 39.111857 
L 108.112681 39.111857 
z
" clip-path="url(#p623222a426)" style="fill: #de8f05; fill-opacity: 0.2; stroke: #de8f05; stroke-opacity: 0.6; stroke-width: 0.75"/>
    <path d="M 109.762654 53.944508 
L 107.762654 57.944508 
L 111.762654 57.944508 
z
" clip-path="url(#p623222a426)" style="fill: #de8f05; fill-opacity: 0.2; stroke: #de8f05; stroke-opacity: 0.6; stroke-width: 0.75"/>
    <path d="M 107.078179 57.784673 
L 105.078179 61.784673 
L 109.078179 61.784673 
z
" clip-path="url(#p623222a426)" style="fill: #de8f05; fill-opacity: 0.2; stroke: #de8f05; stroke-opacity: 0.6; stroke-width: 0.75"/>
    <path d="M 110.287606 49.540739 
L 108.287606 53.540739 
L 112.287606 53.540739 
z
" clip-path="url(#p623222a426)" style="fill: #de8f05; fill-opacity: 0.2; stroke: #de8f05; stroke-opacity: 0.6; stroke-width: 0.75"/>
    <path d="M 107.878475 36.3238 
L 105.878475 40.3238 
L 109.878475 40.3238 
z
" clip-path="url(#p623222a426)" style="fill: #de8f05; fill-opacity: 0.2; stroke: #de8f05; stroke-opacity: 0.6; stroke-width: 0.75"/>
    <path d="M 106.404537 41.073727 
L 104.404537 45.073727 
L 108.404537 45.073727 
z
" clip-path="url(#p623222a426)" style="fill: #de8f05; fill-opacity: 0.2; stroke: #de8f05; stroke-opacity: 0.6; stroke-width: 0.75"/>
    <path d="M 109.637506 88.17101 
L 107.637506 92.17101 
L 111.637506 92.17101 
z
" clip-path="url(#p623222a426)" style="fill: #de8f05; fill-opacity: 0.2; stroke: #de8f05; stroke-opacity: 0.6; stroke-width: 0.75"/>
    <path d="M 105.401191 62.96989 
L 103.401191 66.96989 
L 107.401191 66.96989 
z
" clip-path="url(#p623222a426)" style="fill: #de8f05; fill-opacity: 0.2; stroke: #de8f05; stroke-opacity: 0.6; stroke-width: 0.75"/>
    <path d="M 109.905075 66.236581 
L 107.905075 70.236581 
L 111.905075 70.236581 
z
" clip-path="url(#p623222a426)" style="fill: #de8f05; fill-opacity: 0.2; stroke: #de8f05; stroke-opacity: 0.6; stroke-width: 0.75"/>
    <path d="M 106.419658 61.183582 
L 104.419658 65.183582 
L 108.419658 65.183582 
z
" clip-path="url(#p623222a426)" style="fill: #de8f05; fill-opacity: 0.2; stroke: #de8f05; stroke-opacity: 0.6; stroke-width: 0.75"/>
    <path d="M 108.475735 116.563358 
L 106.475735 120.563358 
L 110.475735 120.563358 
z
" clip-path="url(#p623222a426)" style="fill: #de8f05; fill-opacity: 0.2; stroke: #de8f05; stroke-opacity: 0.6; stroke-width: 0.75"/>
    <path d="M 108.511059 75.8034 
L 106.511059 79.8034 
L 110.511059 79.8034 
z
" clip-path="url(#p623222a426)" style="fill: #de8f05; fill-opacity: 0.2; stroke: #de8f05; stroke-opacity: 0.6; stroke-width: 0.75"/>
    <path d="M 109.244676 51.343171 
L 107.244676 55.343171 
L 111.244676 55.343171 
z
" clip-path="url(#p623222a426)" style="fill: #de8f05; fill-opacity: 0.2; stroke: #de8f05; stroke-opacity: 0.6; stroke-width: 0.75"/>
    <path d="M 107.062055 44.047568 
L 105.062055 48.047568 
L 109.062055 48.047568 
z
" clip-path="url(#p623222a426)" style="fill: #de8f05; fill-opacity: 0.2; stroke: #de8f05; stroke-opacity: 0.6; stroke-width: 0.75"/>
    <path d="M 106.890112 53.283635 
L 104.890112 57.283635 
L 108.890112 57.283635 
z
" clip-path="url(#p623222a426)" style="fill: #de8f05; fill-opacity: 0.2; stroke: #de8f05; stroke-opacity: 0.6; stroke-width: 0.75"/>
    <path d="M 107.123599 52.83487 
L 105.123599 56.83487 
L 109.123599 56.83487 
z
" clip-path="url(#p623222a426)" style="fill: #de8f05; fill-opacity: 0.2; stroke: #de8f05; stroke-opacity: 0.6; stroke-width: 0.75"/>
    <path d="M 105.419363 47.504148 
L 103.419363 51.504148 
L 107.419363 51.504148 
z
" clip-path="url(#p623222a426)" style="fill: #de8f05; fill-opacity: 0.2; stroke: #de8f05; stroke-opacity: 0.6; stroke-width: 0.75"/>
    <path d="M 109.004796 56.232965 
L 107.004796 60.232965 
L 111.004796 60.232965 
z
" clip-path="url(#p623222a426)" style="fill: #de8f05; fill-opacity: 0.2; stroke: #de8f05; stroke-opacity: 0.6; stroke-width: 0.75"/>
    <path d="M 106.909233 86.633189 
L 104.909233 90.633189 
L 108.909233 90.633189 
z
" clip-path="url(#p623222a426)" style="fill: #de8f05; fill-opacity: 0.2; stroke: #de8f05; stroke-opacity: 0.6; stroke-width: 0.75"/>
    <path d="M 110.938177 99.582071 
L 108.938177 103.582071 
L 112.938177 103.582071 
z
" clip-path="url(#p623222a426)" style="fill: #de8f05; fill-opacity: 0.2; stroke: #de8f05; stroke-opacity: 0.6; stroke-width: 0.75"/>
    <path d="M 108.203033 92.869088 
L 106.203033 96.869088 
L 110.203033 96.869088 
z
" clip-path="url(#p623222a426)" style="fill: #de8f05; fill-opacity: 0.2; stroke: #de8f05; stroke-opacity: 0.6; stroke-width: 0.75"/>
    <path d="M 108.500022 106.267055 
L 106.500022 110.267055 
L 110.500022 110.267055 
z
" clip-path="url(#p623222a426)" style="fill: #de8f05; fill-opacity: 0.2; stroke: #de8f05; stroke-opacity: 0.6; stroke-width: 0.75"/>
    <path d="M 110.249687 167.96924 
L 108.249687 171.96924 
L 112.249687 171.96924 
z
" clip-path="url(#p623222a426)" style="fill: #de8f05; fill-opacity: 0.2; stroke: #de8f05; stroke-opacity: 0.6; stroke-width: 0.75"/>
    <path d="M 108.262515 124.452168 
L 106.262515 128.452168 
L 110.262515 128.452168 
z
" clip-path="url(#p623222a426)" style="fill: #de8f05; fill-opacity: 0.2; stroke: #de8f05; stroke-opacity: 0.6; stroke-width: 0.75"/>
    <path d="M 108.791724 29.090372 
L 106.791724 33.090372 
L 110.791724 33.090372 
z
" clip-path="url(#p623222a426)" style="fill: #de8f05; fill-opacity: 0.2; stroke: #de8f05; stroke-opacity: 0.6; stroke-width: 0.75"/>
    <path d="M 110.315767 51.664707 
L 108.315767 55.664707 
L 112.315767 55.664707 
z
" clip-path="url(#p623222a426)" style="fill: #de8f05; fill-opacity: 0.2; stroke: #de8f05; stroke-opacity: 0.6; stroke-width: 0.75"/>
    <path d="M 105.196082 45.850507 
L 103.196082 49.850507 
L 107.196082 49.850507 
z
" clip-path="url(#p623222a426)" style="fill: #de8f05; fill-opacity: 0.2; stroke: #de8f05; stroke-opacity: 0.6; stroke-width: 0.75"/>
    <path d="M 108.028248 59.611889 
L 106.028248 63.611889 
L 110.028248 63.611889 
z
" clip-path="url(#p623222a426)" style="fill: #de8f05; fill-opacity: 0.2; stroke: #de8f05; stroke-opacity: 0.6; stroke-width: 0.75"/>
    <path d="M 108.37679 45.403836 
L 106.37679 49.403836 
L 110.37679 49.403836 
z
" clip-path="url(#p623222a426)" style="fill: #de8f05; fill-opacity: 0.2; stroke: #de8f05; stroke-opacity: 0.6; stroke-width: 0.75"/>
    <path d="M 143.842719 31.377748 
L 147.842719 31.377748 
L 147.842719 27.377748 
L 143.842719 27.377748 
z
" clip-path="url(#p623222a426)" style="fill: #029e73; fill-opacity: 0.2; stroke: #029e73; stroke-opacity: 0.6; stroke-width: 0.75"/>
    <path d="M 143.562949 41.093078 
L 147.562949 41.093078 
L 147.562949 37.093078 
L 143.562949 37.093078 
z
" clip-path="url(#p623222a426)" style="fill: #029e73; fill-opacity: 0.2; stroke: #029e73; stroke-opacity: 0.6; stroke-width: 0.75"/>
    <path d="M 146.465687 39.785646 
L 150.465687 39.785646 
L 150.465687 35.785646 
L 146.465687 35.785646 
z
" clip-path="url(#p623222a426)" style="fill: #029e73; fill-opacity: 0.2; stroke: #029e73; stroke-opacity: 0.6; stroke-width: 0.75"/>
    <path d="M 142.521747 45.872528 
L 146.521747 45.872528 
L 146.521747 41.872528 
L 142.521747 41.872528 
z
" clip-path="url(#p623222a426)" style="fill: #029e73; fill-opacity: 0.2; stroke: #029e73; stroke-opacity: 0.6; stroke-width: 0.75"/>
    <path d="M 143.596175 35.397679 
L 147.596175 35.397679 
L 147.596175 31.397679 
L 143.596175 31.397679 
z
" clip-path="url(#p623222a426)" style="fill: #029e73; fill-opacity: 0.2; stroke: #029e73; stroke-opacity: 0.6; stroke-width: 0.75"/>
    <path d="M 143.610891 41.873377 
L 147.610891 41.873377 
L 147.610891 37.873377 
L 143.610891 37.873377 
z
" clip-path="url(#p623222a426)" style="fill: #029e73; fill-opacity: 0.2; stroke: #029e73; stroke-opacity: 0.6; stroke-width: 0.75"/>
    <path d="M 143.27577 52.892665 
L 147.27577 52.892665 
L 147.27577 48.892665 
L 143.27577 48.892665 
z
" clip-path="url(#p623222a426)" style="fill: #029e73; fill-opacity: 0.2; stroke: #029e73; stroke-opacity: 0.6; stroke-width: 0.75"/>
    <path d="M 146.494035 46.544122 
L 150.494035 46.544122 
L 150.494035 42.544122 
L 146.494035 42.544122 
z
" clip-path="url(#p623222a426)" style="fill: #029e73; fill-opacity: 0.2; stroke: #029e73; stroke-opacity: 0.6; stroke-width: 0.75"/>
    <path d="M 145.648405 30.909368 
L 149.648405 30.909368 
L 149.648405 26.909368 
L 145.648405 26.909368 
z
" clip-path="url(#p623222a426)" style="fill: #029e73; fill-opacity: 0.2; stroke: #029e73; stroke-opacity: 0.6; stroke-width: 0.75"/>
    <path d="M 143.728992 34.153418 
L 147.728992 34.153418 
L 147.728992 30.153418 
L 143.728992 30.153418 
z
" clip-path="url(#p623222a426)" style="fill: #029e73; fill-opacity: 0.2; stroke: #029e73; stroke-opacity: 0.6; stroke-width: 0.75"/>
    <path d="M 144.567623 35.380722 
L 148.567623 35.380722 
L 148.567623 31.380722 
L 144.567623 31.380722 
z
" clip-path="url(#p623222a426)" style="fill: #029e73; fill-opacity: 0.2; stroke: #029e73; stroke-opacity: 0.6; stroke-width: 0.75"/>
    <path d="M 142.09394 26.076837 
L 146.09394 26.076837 
L 146.09394 22.076837 
L 142.09394 22.076837 
z
" clip-path="url(#p623222a426)" style="fill: #029e73; fill-opacity: 0.2; stroke: #029e73; stroke-opacity: 0.6; stroke-width: 0.75"/>
    <path d="M 144.830504 22.49128 
L 148.830504 22.49128 
L 148.830504 18.49128 
L 144.830504 18.49128 
z
" clip-path="url(#p623222a426)" style="fill: #029e73; fill-opacity: 0.2; stroke: #029e73; stroke-opacity: 0.6; stroke-width: 0.75"/>
    <path d="M 146.231603 31.370236 
L 150.231603 31.370236 
L 150.231603 27.370236 
L 146.231603 27.370236 
z
" clip-path="url(#p623222a426)" style="fill: #029e73; fill-opacity: 0.2; stroke: #029e73; stroke-opacity: 0.6; stroke-width: 0.75"/>
    <path d="M 141.950731 24.762056 
L 145.950731 24.762056 
L 145.950731 20.762056 
L 141.950731 20.762056 
z
" clip-path="url(#p623222a426)" style="fill: #029e73; fill-opacity: 0.2; stroke: #029e73; stroke-opacity: 0.6; stroke-width: 0.75"/>
    <path d="M 142.108304 57.93625 
L 146.108304 57.93625 
L 146.108304 53.93625 
L 142.108304 53.93625 
z
" clip-path="url(#p623222a426)" style="fill: #029e73; fill-opacity: 0.2; stroke: #029e73; stroke-opacity: 0.6; stroke-width: 0.75"/>
    <path d="M 146.029102 31.541675 
L 150.029102 31.541675 
L 150.029102 27.541675 
L 146.029102 27.541675 
z
" clip-path="url(#p623222a426)" style="fill: #029e73; fill-opacity: 0.2; stroke: #029e73; stroke-opacity: 0.6; stroke-width: 0.75"/>
    <path d="M 144.342367 51.697718 
L 148.342367 51.697718 
L 148.342367 47.697718 
L 144.342367 47.697718 
z
" clip-path="url(#p623222a426)" style="fill: #029e73; fill-opacity: 0.2; stroke: #029e73; stroke-opacity: 0.6; stroke-width: 0.75"/>
    <path d="M 144.576051 42.566372 
L 148.576051 42.566372 
L 148.576051 38.566372 
L 144.576051 38.566372 
z
" clip-path="url(#p623222a426)" style="fill: #029e73; fill-opacity: 0.2; stroke: #029e73; stroke-opacity: 0.6; stroke-width: 0.75"/>
    <path d="M 144.793783 56.070466 
L 148.793783 56.070466 
L 148.793783 52.070466 
L 144.793783 52.070466 
z
" clip-path="url(#p623222a426)" style="fill: #029e73; fill-opacity: 0.2; stroke: #029e73; stroke-opacity: 0.6; stroke-width: 0.75"/>
    <path d="M 143.324184 42.759943 
L 147.324184 42.759943 
L 147.324184 38.759943 
L 143.324184 38.759943 
z
" clip-path="url(#p623222a426)" style="fill: #029e73; fill-opacity: 0.2; stroke: #029e73; stroke-opacity: 0.6; stroke-width: 0.75"/>
    <path d="M 143.358688 35.056345 
L 147.358688 35.056345 
L 147.358688 31.056345 
L 143.358688 31.056345 
z
" clip-path="url(#p623222a426)" style="fill: #029e73; fill-opacity: 0.2; stroke: #029e73; stroke-opacity: 0.6; stroke-width: 0.75"/>
    <path d="M 145.922076 33.355997 
L 149.922076 33.355997 
L 149.922076 29.355997 
L 145.922076 29.355997 
z
" clip-path="url(#p623222a426)" style="fill: #029e73; fill-opacity: 0.2; stroke: #029e73; stroke-opacity: 0.6; stroke-width: 0.75"/>
    <path d="M 145.82291 50.48784 
L 149.82291 50.48784 
L 149.82291 46.48784 
L 145.82291 46.48784 
z
" clip-path="url(#p623222a426)" style="fill: #029e73; fill-opacity: 0.2; stroke: #029e73; stroke-opacity: 0.6; stroke-width: 0.75"/>
    <path d="M 145.184104 34.938402 
L 149.184104 34.938402 
L 149.184104 30.938402 
L 145.184104 30.938402 
z
" clip-path="url(#p623222a426)" style="fill: #029e73; fill-opacity: 0.2; stroke: #029e73; stroke-opacity: 0.6; stroke-width: 0.75"/>
    <path d="M 145.198277 37.843519 
L 149.198277 37.843519 
L 149.198277 33.843519 
L 145.198277 33.843519 
z
" clip-path="url(#p623222a426)" style="fill: #029e73; fill-opacity: 0.2; stroke: #029e73; stroke-opacity: 0.6; stroke-width: 0.75"/>
    <path d="M 146.15782 29.704814 
L 150.15782 29.704814 
L 150.15782 25.704814 
L 146.15782 25.704814 
z
" clip-path="url(#p623222a426)" style="fill: #029e73; fill-opacity: 0.2; stroke: #029e73; stroke-opacity: 0.6; stroke-width: 0.75"/>
    <path d="M 142.412183 44.415096 
L 146.412183 44.415096 
L 146.412183 40.415096 
L 142.412183 40.415096 
z
" clip-path="url(#p623222a426)" style="fill: #029e73; fill-opacity: 0.2; stroke: #029e73; stroke-opacity: 0.6; stroke-width: 0.75"/>
    <path d="M 146.308477 34.120035 
L 150.308477 34.120035 
L 150.308477 30.120035 
L 146.308477 30.120035 
z
" clip-path="url(#p623222a426)" style="fill: #029e73; fill-opacity: 0.2; stroke: #029e73; stroke-opacity: 0.6; stroke-width: 0.75"/>
    <path d="M 142.748988 61.717199 
L 146.748988 61.717199 
L 146.748988 57.717199 
L 142.748988 57.717199 
z
" clip-path="url(#p623222a426)" style="fill: #029e73; fill-opacity: 0.2; stroke: #029e73; stroke-opacity: 0.6; stroke-width: 0.75"/>
    <path d="M 145.052873 37.285481 
L 149.052873 37.285481 
L 149.052873 33.285481 
L 145.052873 33.285481 
z
" clip-path="url(#p623222a426)" style="fill: #029e73; fill-opacity: 0.2; stroke: #029e73; stroke-opacity: 0.6; stroke-width: 0.75"/>
    <path d="M 142.30901 66.462337 
L 146.30901 66.462337 
L 146.30901 62.462337 
L 142.30901 62.462337 
z
" clip-path="url(#p623222a426)" style="fill: #029e73; fill-opacity: 0.2; stroke: #029e73; stroke-opacity: 0.6; stroke-width: 0.75"/>
    <path d="M 141.525231 43.017975 
L 145.525231 43.017975 
L 145.525231 39.017975 
L 141.525231 39.017975 
z
" clip-path="url(#p623222a426)" style="fill: #029e73; fill-opacity: 0.2; stroke: #029e73; stroke-opacity: 0.6; stroke-width: 0.75"/>
    <path d="M 142.519889 31.028763 
L 146.519889 31.028763 
L 146.519889 27.028763 
L 142.519889 27.028763 
z
" clip-path="url(#p623222a426)" style="fill: #029e73; fill-opacity: 0.2; stroke: #029e73; stroke-opacity: 0.6; stroke-width: 0.75"/>
    <path d="M 144.758702 46.548624 
L 148.758702 46.548624 
L 148.758702 42.548624 
L 144.758702 42.548624 
z
" clip-path="url(#p623222a426)" style="fill: #029e73; fill-opacity: 0.2; stroke: #029e73; stroke-opacity: 0.6; stroke-width: 0.75"/>
    <path d="M 143.599208 26.494088 
L 147.599208 26.494088 
L 147.599208 22.494088 
L 143.599208 22.494088 
z
" clip-path="url(#p623222a426)" style="fill: #029e73; fill-opacity: 0.2; stroke: #029e73; stroke-opacity: 0.6; stroke-width: 0.75"/>
    <path d="M 142.090079 28.292553 
L 146.090079 28.292553 
L 146.090079 24.292553 
L 142.090079 24.292553 
z
" clip-path="url(#p623222a426)" style="fill: #029e73; fill-opacity: 0.2; stroke: #029e73; stroke-opacity: 0.6; stroke-width: 0.75"/>
    <path d="M 143.117229 47.973889 
L 147.117229 47.973889 
L 147.117229 43.973889 
L 143.117229 43.973889 
z
" clip-path="url(#p623222a426)" style="fill: #029e73; fill-opacity: 0.2; stroke: #029e73; stroke-opacity: 0.6; stroke-width: 0.75"/>
    <path d="M 144.297993 43.120029 
L 148.297993 43.120029 
L 148.297993 39.120029 
L 144.297993 39.120029 
z
" clip-path="url(#p623222a426)" style="fill: #029e73; fill-opacity: 0.2; stroke: #029e73; stroke-opacity: 0.6; stroke-width: 0.75"/>
   </g>
   <g id="PathCollection_2">
    <path d="M 62.206458 27.743854 
C 63.002068 27.743854 63.765198 27.427755 64.327779 26.865174 
C 64.890359 26.302593 65.206458 25.539463 65.206458 24.743854 
C 65.206458 23.948244 64.890359 23.185114 64.327779 22.622533 
C 63.765198 22.059953 63.002068 21.743854 62.206458 21.743854 
C 61.410849 21.743854 60.647719 22.059953 60.085138 22.622533 
C 59.522557 23.185114 59.206458 23.948244 59.206458 24.743854 
C 59.206458 25.539463 59.522557 26.302593 60.085138 26.865174 
C 60.647719 27.427755 61.410849 27.743854 62.206458 27.743854 
z
" clip-path="url(#p623222a426)" style="fill: #0173b2; stroke: #0173b2; stroke-width: 0.5"/>
    <path d="M 100.311667 61.259299 
L 97.311667 67.259299 
L 103.311667 67.259299 
z
" clip-path="url(#p623222a426)" style="fill: #de8f05; stroke: #de8f05; stroke-width: 0.5"/>
    <path d="M 135.416875 40.856825 
L 141.416875 40.856825 
L 141.416875 34.856825 
L 135.416875 34.856825 
z
" clip-path="url(#p623222a426)" style="fill: #029e73; stroke: #029e73; stroke-width: 0.5"/>
   </g>
   <g id="LineCollection_1">
    <path d="M 62.206458 30.970533 
L 62.206458 18.517174 
" clip-path="url(#p623222a426)" style="fill: none; stroke: #0173b2; stroke-width: 1.5; stroke-linecap: round"/>
    <path d="M 100.311667 93.656269 
L 100.311667 34.862329 
" clip-path="url(#p623222a426)" style="fill: none; stroke: #de8f05; stroke-width: 1.5; stroke-linecap: round"/>
    <path d="M 138.416875 48.325112 
L 138.416875 27.388538 
" clip-path="url(#p623222a426)" style="fill: none; stroke: #029e73; stroke-width: 1.5; stroke-linecap: round"/>
   </g>
   <g id="patch_3">
    <path d="M 46.964375 177.720156 
L 46.964375 7.2 
" style="fill: none; stroke: #ffffff; stroke-width: 1.25; stroke-linejoin: miter; stroke-linecap: square"/>
   </g>
   <g id="patch_4">
    <path d="M 161.28 177.720156 
L 161.28 7.2 
" style="fill: none; stroke: #ffffff; stroke-width: 1.25; stroke-linejoin: miter; stroke-linecap: square"/>
   </g>
   <g id="patch_5">
    <path d="M 46.964375 177.720156 
L 161.28 177.720156 
" style="fill: none; stroke: #ffffff; stroke-width: 1.25; stroke-linejoin: miter; stroke-linecap: square"/>
   </g>
   <g id="patch_6">
    <path d="M 46.964375 7.2 
L 161.28 7.2 
" style="fill: none; stroke: #ffffff; stroke-width: 1.25; stroke-linejoin: miter; stroke-linecap: square"/>
   </g>
  </g>
  <g id="legend_1">
   <g id="patch_7">
    <path d="M 184.1 118.977266 
L 240.079688 118.977266 
Q 242.279688 118.977266 242.279688 116.777266 
L 242.279688 54.582734 
Q 242.279688 52.382734 240.079688 52.382734 
L 184.1 52.382734 
Q 181.9 52.382734 181.9 54.582734 
L 181.9 116.777266 
Q 181.9 118.977266 184.1 118.977266 
z
" style="fill: #eaeaf2; opacity: 0.8; stroke: #cccccc; stroke-linejoin: miter"/>
   </g>
   <g id="text_12">
    <text style="fill: #262626; font: 12px 'Arial', 'DejaVu Sans', 'Liberation Sans', 'Bitstream Vera Sans', sans-serif; text-anchor: start" x="196.745781" y="65.372109" transform="rotate(-0 196.745781 65.372109)">group</text>
   </g>
   <g id="PathCollection_3">
    <defs>
     <path id="m129e273fa5" d="M 0 2 
C 0.530406 2 1.03916 1.789267 1.414214 1.414214 
C 1.789267 1.03916 2 0.530406 2 0 
C 2 -0.530406 1.789267 -1.03916 1.414214 -1.414214 
C 1.03916 -1.789267 0.530406 -2 0 -2 
C -0.530406 -2 -1.03916 -1.789267 -1.414214 -1.414214 
C -1.789267 -1.03916 -2 -0.530406 -2 0 
C -2 0.530406 -1.789267 1.03916 -1.414214 1.414214 
C -1.03916 1.789267 -0.530406 2 0 2 
z
" style="stroke: #0173b2; stroke-opacity: 0.6; stroke-width: 0.75"/>
    </defs>
    <g>
     <use xlink:href="#m129e273fa5" x="197.3" y="78.383828" style="fill: #0173b2; fill-opacity: 0.2; stroke: #0173b2; stroke-opacity: 0.6; stroke-width: 0.75"/>
    </g>
   </g>
   <g id="PathCollection_4">
    <defs>
     <path id="m0f04a7fc10" d="M 0 3 
C 0.795609 3 1.55874 2.683901 2.12132 2.12132 
C 2.683901 1.55874 3 0.795609 3 0 
C 3 -0.795609 2.683901 -1.55874 2.12132 -2.12132 
C 1.55874 -2.683901 0.795609 -3 0 -3 
C -0.795609 -3 -1.55874 -2.683901 -2.12132 -2.12132 
C -2.683901 -1.55874 -3 -0.795609 -3 0 
C -3 0.795609 -2.683901 1.55874 -2.12132 2.12132 
C -1.55874 2.683901 -0.795609 3 0 3 
z
" style="stroke: #0173b2; stroke-width: 0.5"/>
    </defs>
    <g>
     <use xlink:href="#m0f04a7fc10" x="197.3" y="78.383828" style="fill: #0173b2; stroke: #0173b2; stroke-width: 0.5"/>
    </g>
   </g>
   <g id="text_13">
    <text style="fill: #262626; font: 11px 'Arial', 'DejaVu Sans', 'Liberation Sans', 'Bitstream Vera Sans', sans-serif; text-anchor: start" x="217.1" y="81.271328" transform="rotate(-0 217.1 81.271328)">FeS</text>
   </g>
   <g id="PathCollection_5">
    <defs>
     <path id="mee4cf71d3c" d="M 0 -2 
L -2 2 
L 2 2 
z
" style="stroke: #de8f05; stroke-opacity: 0.6; stroke-width: 0.75"/>
    </defs>
    <g>
     <use xlink:href="#mee4cf71d3c" x="197.3" y="93.943672" style="fill: #de8f05; fill-opacity: 0.2; stroke: #de8f05; stroke-opacity: 0.6; stroke-width: 0.75"/>
    </g>
   </g>
   <g id="PathCollection_6">
    <defs>
     <path id="mbf074adaf0" d="M 0 -3 
L -3 3 
L 3 3 
z
" style="stroke: #de8f05; stroke-width: 0.5"/>
    </defs>
    <g>
     <use xlink:href="#mbf074adaf0" x="197.3" y="93.943672" style="fill: #de8f05; stroke: #de8f05; stroke-width: 0.5"/>
    </g>
   </g>
   <g id="text_14">
    <text style="fill: #262626; font: 11px 'Arial', 'DejaVu Sans', 'Liberation Sans', 'Bitstream Vera Sans', sans-serif; text-anchor: start" x="217.1" y="96.831172" transform="rotate(-0 217.1 96.831172)">FeD</text>
   </g>
   <g id="PathCollection_7">
    <defs>
     <path id="m72c4392754" d="M -2 2 
L 2 2 
L 2 -2 
L -2 -2 
z
" style="stroke: #029e73; stroke-opacity: 0.6; stroke-width: 0.75"/>
    </defs>
    <g>
     <use xlink:href="#m72c4392754" x="197.3" y="109.503516" style="fill: #029e73; fill-opacity: 0.2; stroke: #029e73; stroke-opacity: 0.6; stroke-width: 0.75"/>
    </g>
   </g>
   <g id="PathCollection_8">
    <defs>
     <path id="meaee21afbf" d="M -3 3 
L 3 3 
L 3 -3 
L -3 -3 
z
" style="stroke: #029e73; stroke-width: 0.5"/>
    </defs>
    <g>
     <use xlink:href="#meaee21afbf" x="197.3" y="109.503516" style="fill: #029e73; stroke: #029e73; stroke-width: 0.5"/>
    </g>
   </g>
   <g id="text_15">
    <text style="fill: #262626; font: 11px 'Arial', 'DejaVu Sans', 'Liberation Sans', 'Bitstream Vera Sans', sans-serif; text-anchor: start" x="217.1" y="112.391016" transform="rotate(-0 217.1 112.391016)">FeR</text>
   </g>
  </g>
 </g>
 <defs>
  <clipPath id="p623222a426">
   <rect x="46.964375" y="7.2" width="114.315625" height="170.520156"/>
  </clipPath>
 </defs>
</svg>
